<svg version="1.2" xmlns="http://www.w3.org/2000/svg" viewBox="0 0 946 736" width="946" height="736"><defs><clipPath clipPathUnits="userSpaceOnUse" id="cp1"><path d="m513.49 591.61c0 0-26.09 52.34-8.19 101.65l214.14-69.23c0 0-18.07-33.71-1.2-75.27z"/></clipPath><clipPath clipPathUnits="userSpaceOnUse" id="cp2"><path d="m729.26 477.09l-269.48 42.92c0 0-15.64 49.57 0 76.85l277.06-46.94c0 0-6.58-34.9-7.58-72.83z"/></clipPath><clipPath clipPathUnits="userSpaceOnUse" id="cp3"><path d="m697.9 356.12l-209.17 44.12c0 0-31.94 59.89 8.98 96.82l202.61-55.9z"/></clipPath><clipPath clipPathUnits="userSpaceOnUse" id="cp4"><path d="m689.34 272.49l-238.54 30.94c0 0-27.95 52.9 6.99 74.86l233.55-37.93c0 0-2-70.86-2-67.87z"/></clipPath><clipPath clipPathUnits="userSpaceOnUse" id="cp5"><path d="m643.17 134.17l-91.8 25.22v47.9 5.99l90.53-28.69z"/></clipPath><clipPath clipPathUnits="userSpaceOnUse" id="cp6"><path d="m480.25 108.73c0 0-16.18 22.56-3.43 45.61l162.83-26.97 2.45-47.09z"/></clipPath></defs><style>.a{opacity:.7;fill:#8bcde5}.b{fill:#8bcde5}.c{fill:#fff}.d{fill:#4d82a3}.e{fill:#dc903c}.f{opacity:.1;fill:#2b3448}.g{fill:#74471b}.h{fill:#5ca28b}.i{fill:#2b3448}.j{opacity:.2;mix-blend-mode:overlay;fill:#fff}.k{fill:#ecb751}.l{fill:#de6c6b}.m{opacity:.4;fill:#2b3448}.n{opacity:.1;fill:#74471b}.o{opacity:.1;fill:#fff}.p{fill:none;stroke:#2b3448;stroke-miterlimit:10;stroke-width:2}.q{opacity:.3;fill:#dc903c}.r{opacity:.2;fill:#2b3448}.s{opacity:.3;fill:#74471b}</style><path class="a" d="m33.3 652c0 39.8 193 72.1 431.1 72.1 238 0 431-32.3 431-72.1 0-39.8-193-72.1-431-72.1-238.1 0-431.1 32.3-431.1 72.1z"/><g style="opacity:.3"></g><path class="a" d="m881.7 655.7c0 7-32.6 12.7-72.8 12.7-40.2 0-72.8-5.7-72.8-12.7 0-7 32.6-12.6 72.8-12.6 40.2 0 72.8 5.6 72.8 12.6z"/><path class="b" d="m163.3 93.9l-9.2-27.3-27.6-8.5 28.3-9.7 8.9-28.5 9.3 27.3 27.5 8.5-28.8 10.4z"/><path class="b" d="m707.7 189.6l-9.3-27.3-27.5-8.5 28.2-9.8 9-28.4 9.3 27.2 27.5 8.6-28.8 10.4z"/><path class="c" d="m791.4 207.4l-4.7-13.9-14.1-4.3 14.4-5 4.6-14.5 4.7 13.9 14.1 4.4-14.7 5.3z"/><path class="c" d="m152.4 429.2l-4.7-13.9-14-4.4 14.3-4.9 4.6-14.6 4.7 13.9 14.1 4.4-14.7 5.3z"/><path class="b" d="m742.5 241.5l-4.8-13.9-14-4.3 14.4-5 4.6-14.5 4.7 13.9 14 4.3-14.7 5.3z"/><path class="b" d="m237.9 179.1l-4.8-13.9-14-4.3 14.4-5 4.6-14.5 4.7 13.9 14 4.4-14.7 5.3z"/><path class="b" d="m204.9 114.8c0 2.2-1.9 4.1-4.2 4.1-2.2 0-4.1-1.9-4.1-4.1 0-2.3 1.9-4.2 4.1-4.2 2.3 0 4.2 1.9 4.2 4.2z"/><path class="b" d="m845.9 310.8c0 2.3-1.8 4.2-4.1 4.2-2.3 0-4.1-1.9-4.1-4.2 0-2.3 1.8-4.1 4.1-4.1 2.3 0 4.1 1.8 4.1 4.1z"/><path class="b" d="m838.6 365.6c0 2.3-1.8 4.1-4.1 4.1-2.3 0-4.1-1.8-4.1-4.1 0-2.3 1.8-4.1 4.1-4.1 2.3 0 4.1 1.8 4.1 4.1z"/><path class="b" d="m791.2 356.1c0 2.3-1.9 4.1-4.2 4.1-2.3 0-4.1-1.8-4.1-4.1 0-2.3 1.8-4.1 4.1-4.1 2.3 0 4.2 1.8 4.2 4.1z"/><path class="b" d="m137.4 270.4c0 2.3-1.9 4.2-4.2 4.2-2.3 0-4.1-1.9-4.1-4.2 0-2.2 1.8-4.1 4.1-4.1 2.3 0 4.2 1.9 4.2 4.1z"/><path class="b" d="m112.6 240.1c0 2.3-1.9 4.2-4.2 4.2-2.3 0-4.1-1.9-4.1-4.2 0-2.2 1.8-4.1 4.1-4.1 2.3 0 4.2 1.9 4.2 4.1z"/><path class="b" d="m683.1 86.4c0 2.3-1.8 4.2-4.1 4.2-2.3 0-4.2-1.9-4.2-4.2 0-2.2 1.9-4.1 4.2-4.1 2.3 0 4.1 1.9 4.1 4.1z"/><g style="opacity:.5"><path class="d" d="m244.3 419.9c-21.1-30.6-40.7-62.3-57.4-95.5-13.4-26.6-24.9-54.3-33.6-82.8q1-29.5 2-59c0.8-23.4 0.5-49.7-16-66.3-4.1-4-9.8-7.4-15.3-5.9-6.4 1.8-9.3 9.2-10.6 15.8-8.1 40.7 9.7 81.9 33.5 116.4q4.1 13.5 9 26.7c12.8 34.7 29.5 67.8 48.3 99.5 10.7 18 22 35.5 33.9 52.7 1.1 1.6 6.7-0.8 6.2-1.6z"/></g><g style="opacity:.5"><path class="d" d="m224.8 404.3c-10.1-25.5-18.9-51.6-25.4-78.2-5.2-21.4-8.8-43.2-10.3-65.2q5.6-21.1 11.2-42.1c4.5-16.7 8.7-35.7-0.4-50.3-2.3-3.6-5.8-7-10-6.8-5 0.2-8.3 5-10.3 9.5-12.6 28-6.7 60.6 4.7 89.4q0.7 10.3 2 20.7c3.5 27 9.9 53.6 18.2 79.6 4.6 14.7 9.9 29.2 15.6 43.5 0.5 1.3 4.9 0.6 4.7-0.1z"/></g><g style="opacity:.5"><path class="d" d="m301.5 408.4c-26.4-7.6-52.4-16.6-77.4-27.8-20.1-9-39.6-19.4-57.9-31.6q-13.2-17.4-26.5-34.7c-10.4-13.8-22.9-28.7-40-30.4-4.2-0.5-9.1 0.3-11.5 3.7-2.9 4-1.1 9.6 1.2 14 14.5 27.1 43.9 42.3 73.6 50.9q8.6 5.8 17.6 11.1c23.5 13.8 48.5 25 74.1 34.3 14.5 5.3 29.2 10 44 14.3 1.4 0.4 3.5-3.6 2.8-3.8z"/></g><g style="opacity:.5"><path class="d" d="m647.8 465.8c24.6-20.9 48.2-43.1 69.6-67.2 17.3-19.4 33.1-40 46.9-62q5.8-25 11.6-50c4.6-19.8 10.7-41.8 28.3-52 4.3-2.5 9.9-4.1 14.2-1.5 5 2.9 5.7 9.8 5.4 15.6-2.5 36-26.6 66.6-54.4 90.2q-6.5 10.4-13.6 20.4c-18.5 26.2-39.9 50.2-62.9 72.7-13 12.6-26.5 24.8-40.3 36.5-1.2 1.1-5.4-2.2-4.8-2.7z"/></g><g style="opacity:.5"><path class="d" d="m667.7 457.1c14.2-19.2 27.4-39.1 38.9-60 9.1-16.8 17.1-34.2 23.3-52.3q0-19 0-37.9c0-15 0.8-31.9 11.7-42.2 2.7-2.5 6.4-4.5 10-3.4 4.1 1.3 5.8 6.1 6.4 10.3 4.3 26.3-8 52.4-24 73.9q-2.9 8.6-6.4 17c-9 21.9-20.3 42.8-33.1 62.7-7.2 11.3-14.9 22.3-22.9 33.1-0.7 0.9-4.3-0.7-3.9-1.2z"/></g><g style="opacity:.5"><path class="d" d="m602.4 443.3c23.8-0.5 47.7-2.2 71.2-5.9 18.9-3.1 37.6-7.4 55.7-13.6q15-11.6 30-23.2c11.9-9.1 25.7-18.8 40.5-16.5 3.6 0.6 7.5 2.3 8.8 5.8 1.5 4-1.3 8.3-4.2 11.4-18.2 19.5-46.3 25.7-73.2 26.2q-8.6 2.9-17.3 5.3c-22.8 6.3-46.3 10.1-69.9 12.2-13.4 1.2-26.8 1.8-40.1 2.1-1.3 0-2.1-3.8-1.5-3.8z"/></g><path class="e" d="m879.9 588.6c0-5.1-0.6-10-1.7-14.8h-1.1c-2-8.9-28.7-15.9-61.3-15.9-33.9 0-61.4 7.6-61.4 17q0 0.4 0.1 0.8c-0.8 4.2-1.3 8.5-1.3 12.9 0 25.8 15.4 48 37.6 57.9-5.4 1.5-8.7 3.4-8.7 5.5 0 4.5 15.4 8.2 34.4 8.2 19.1 0 34.5-3.7 34.5-8.2 0-2.1-3.3-4-8.7-5.5 22.2-9.9 37.6-32.1 37.6-57.9z"/><path class="f" d="m879.9 588.6c0-5.1-0.6-10-1.7-14.8h-1.1c-0.7-2.9-4-5.6-9.3-7.9 3.2 4.9 5.3 10.6 5.8 17.2 1.3 16.5-8.4 33.9-22.1 42.8-13.9 9-31.7 9.5-47.3 5.5-22.7-5.9-42.7-21.9-51-42.8q0 0 0 0c0 25.8 15.4 48 37.6 57.9-5.4 1.5-8.7 3.4-8.7 5.5 0 4.5 15.4 8.2 34.4 8.2 19.1 0 34.5-3.7 34.5-8.2 0-2.1-3.3-4-8.7-5.5 22.2-9.9 37.6-32.1 37.6-57.9z"/><path class="g" d="m865.6 574.9c0 7.6-22.3 13.7-49.8 13.7-27.4 0-49.7-6.1-49.7-13.7 0-7.6 22.3-13.7 49.7-13.7 27.5 0 49.8 6.1 49.8 13.7z"/><path class="h" d="m816.2 581.6c-9.6-5.9-19.3-12-26.6-20.6-7.3-8.6-11.9-20.3-9.3-31.3 1.3-5.4 4.2-10.5 4.1-16-0.3-11.7-12.9-18.5-19.8-27.8-8.4-11.3-8.3-26.5-8-40.5 5.2 15.3 22.7 21.8 35.1 32.2 13.7 11.4 21.4 28.7 24.8 46.3 3.3 17.5 2.6 35.6 1.8 53.4z"/><g style="opacity:.2"><path class="i" d="m801.9 506.5c-9.3-23.6-32.4-36.9-45.3-57.4-0.3 12.9 0.4 26.5 8 36.8 6.9 9.3 19.5 16.1 19.8 27.8 0.1 5.5-2.8 10.6-4.1 16-2.6 11 2 22.7 9.3 31.3 5.7 6.7 13 11.9 20.5 16.7 1.5-24.3 0.6-48.8-8.2-71.2z"/></g><path class="h" d="m816.2 581.5c-12.6-15.2-15.9-37.5-8.2-55.6 5.3-12.5 15.4-23.3 16.7-36.8 0.6-6.7-1-13.4-1.2-20.2-0.2-9.4 2.4-18.8 7.5-26.7-2.7 27.8 17.1 53.4 17 81.3-0.1 21.4-31.8 58-31.8 58z"/><g style="opacity:.2"><path class="i" d="m831.2 476.9c0.6 21.8-2.6 42.3-7.6 63.5-2.7 11.3-3.7 21.3-1.8 31.4 15.8-10.6 26.1-29.2 26.2-48.3 0.1-23.5-14-45.5-16.8-68.4-0.6 7.2-0.2 14.6 0 21.8z"/></g><path class="h" d="m816 581.4c0.1-17.8 0.9-37.5 13.1-50.5 10.3-11 26.9-15 35.3-27.5 7.4-10.8 6.4-24.9 9.5-37.6 3-13 10.5-24.8 20.9-33.1q1.7 19.4 3.5 38.9c1.4 15.5 2.7 31.5-2.1 46.3-5.1 15.8-16.7 28.7-30.1 38.3-13.5 9.6-28.8 16.2-43.9 22.7z"/><g style="opacity:.2"><path class="i" d="m895.8 443.7c-4.9 13-7 27.1-11.3 40.3-6.7 20-17.7 36.5-32 51.8-12.8 13.7-22.8 24.4-27 41.7 14-6.1 28.1-12.4 40.6-21.3 13.4-9.6 25-22.5 30.1-38.3 4.8-14.8 3.5-30.8 2.1-46.3q-1.3-13.9-2.5-27.9z"/></g><path class="b" d="m178.4 594.2l-43.4 14.2c0 0 338.7 98.1 354.5 104.4 15.8 6.3 262.7-79.1 262.7-79.1l-69.6-22.2z"/><path class="i" d="m308.9 680.3l-210.9-49.6c-6.1-1.4-12.2 2.4-13.7 8.4-1.4 6.1 2.4 12.2 8.5 13.7l210.9 49.6z"/><path class="j" d="m84.2 643.8c0.8 4.3 4.1 7.9 8.6 9l210.9 49.6 1.6-6.7z"/><path class="k" d="m123.4 636.5l-5.4 22.7-5.8-1.4 5.3-22.7z"/><path class="k" d="m219.2 659l-5.3 22.7-5.9-1.4 5.4-22.7z"/><path class="k" d="m179.1 655.7l-0.7 3-67.3-15.9 0.7-2.9z"/><path class="k" d="m303.7 702.4l20.4-3.3 1.7-7.3-16.9-11.5z"/><path class="l" d="m728.8 628.7l-17.2-8c-21.9-12-7.9-83.9-7.9-83.9l-196.4 56.8-332.6-82.7c-11 41.6-2 96.3-2 96.3l307.5 84-0.1 0.3 26.9 7c229.6-66.9 221.8-69.8 221.8-69.8z"/><path class="l" d="m511.7 595.1l220.5-65.9-332.3-70.9-225.2 52.6z"/><path class="m" d="m179.4 604.3c-1.6-6.6-2.6-13.4-3.3-20.2-0.7-6.8-0.9-13.6-0.8-20.5 0.2-6.8 0.8-13.7 2.1-20.4 1.2-6.8 3.1-13.4 5.9-19.7-0.9 3.3-2 6.6-2.5 9.9-0.8 3.3-1.3 6.7-1.8 10-0.8 6.7-1.4 13.5-1.6 20.3-0.2 6.7 0 13.5 0.3 20.3q0.2 5.1 0.7 10.2c0.2 3.4 0.6 6.7 1 10.1z"/><path class="m" d="m490 687.8c-1.7-6.6-2.7-13.4-3.4-20.2-0.7-6.8-0.9-13.7-0.7-20.5 0.2-6.9 0.8-13.7 2-20.5 1.3-6.7 3.2-13.4 5.9-19.6-0.8 3.3-1.9 6.5-2.5 9.9-0.8 3.3-1.2 6.6-1.8 10-0.8 6.7-1.4 13.4-1.5 20.2-0.2 6.8 0 13.6 0.3 20.4q0.2 5 0.7 10.1c0.2 3.4 0.6 6.8 1 10.2z"/><path class="m" d="m193.2 521.8c24 5.9 47.9 12 71.8 18.2l71.8 18.7 71.6 19.3 35.7 9.8 35.7 10-36-9-35.9-9.2-71.7-18.8-71.6-19.2c-23.8-6.5-47.7-13.1-71.4-19.8z"/><g style="opacity:.4"><path fill-rule="evenodd" class="c" d="m254.9 623.8l-65.9-19.3 3.8-75.4 64.8 17.2zm-63.7-20l61.5 17.9 2.6-74.8-60.5-16z"/><path fill-rule="evenodd" class="c" d="m223.2 577.1l-30.7-27.9 32.3-10.5 31.5 27.9zm-27.7-27.1l27.7 25.2 29.9-9.5-28.4-25.2z"/><path fill-rule="evenodd" class="c" d="m221.2 597.1l-30.8-28.3 32.5-10.5 31.5 28.3zm-27.7-27.4l27.8 25.5 30-9.4-28.5-25.5z"/><path fill-rule="evenodd" class="c" d="m220.5 613.6l-30.9-28.7 32.6-10.4 31.7 28.7zm-27.9-27.8l27.9 25.9 30.1-9.3-28.6-25.9z"/></g><g style="opacity:.4"><path fill-rule="evenodd" class="c" d="m327.6 644.8l-65.9-19.3 3.8-75.4 64.8 17.2zm-63.7-20l61.5 17.9 2.6-74.8-60.5-16z"/><path fill-rule="evenodd" class="c" d="m295.9 598.1l-30.7-27.9 32.3-10.5 31.5 27.9zm-27.7-27.1l27.7 25.2 29.9-9.5-28.4-25.2z"/><path fill-rule="evenodd" class="c" d="m294 618.1l-30.8-28.3 32.4-10.5 31.6 28.3zm-27.8-27.4l27.8 25.5 30-9.4-28.5-25.5z"/><path fill-rule="evenodd" class="c" d="m293.2 634.6l-30.9-28.7 32.6-10.4 31.7 28.7zm-27.9-27.8l28 25.9 30-9.3-28.5-25.9z"/></g><g style="opacity:.4"><path fill-rule="evenodd" class="c" d="m402.4 665.8l-65.9-19.3 3.8-75.4 64.8 17.2zm-63.7-20l61.5 17.9 2.6-74.7-60.5-16.1z"/><path fill-rule="evenodd" class="c" d="m370.7 619.1l-30.7-27.9 32.3-10.5 31.5 27.9zm-27.7-27.1l27.7 25.2 29.8-9.5-28.3-25.2z"/><path fill-rule="evenodd" class="c" d="m368.7 639.1l-30.8-28.3 32.5-10.5 31.5 28.4zm-27.7-27.5l27.8 25.6 30-9.4-28.5-25.6z"/><path fill-rule="evenodd" class="c" d="m368 655.6l-30.9-28.7 32.6-10.4 31.7 28.7zm-27.9-27.8l27.9 25.9 30.1-9.3-28.6-25.9z"/></g><g style="opacity:.4"><path fill-rule="evenodd" class="c" d="m477.3 685.8l-65.9-19.3 3.7-75.5 64.9 17.2zm-63.7-20l61.4 18 2.7-74.8-60.5-16z"/><path fill-rule="evenodd" class="c" d="m445.5 639l-30.7-27.8 32.4-10.6 31.4 27.9zm-27.6-27l27.7 25.1 29.8-9.5-28.3-25.1z"/><path fill-rule="evenodd" class="c" d="m443.6 659l-30.8-28.3 32.4-10.4 31.6 28.3zm-27.7-27.5l27.8 25.6 29.9-9.4-28.4-25.6z"/><path fill-rule="evenodd" class="c" d="m442.9 675.5l-30.9-28.7 32.6-10.3 31.6 28.7zm-27.8-27.8l27.9 25.8 30-9.3-28.5-25.9z"/></g><g clip-path="url(#cp1)"><path class="c" d="m513.5 591.6c0 0-26.1 52.4-8.2 101.7l214.1-69.3c0 0-13.9-47.2 3-88.8z"/><path class="n" d="m676.9 629.7c-29.6 11.3-59 20.2-90.7 22.6-31.4 2.3-63.6-5.4-82.9-31.1-4.7 19.5-7.4 46.2 2 72.1l214.1-69.3c0 0-1-3.6-2.2-9.7-13.6 4.8-26.9 10.2-40.3 15.4z"/><g style="opacity:.2"><path class="g" d="m494 612.6l-0.4-1.5 232.4-51.6 0.3 1.5z"/><path class="g" d="m494.7 629.2l-0.3-1.6 231.5-55.2 0.3 1.5z"/><path class="g" d="m492.9 646.3l-0.4-1.6 231.5-55.2 0.4 1.5z"/><path class="g" d="m492.3 661.3l-0.4-1.6 230.6-58.8 0.4 1.5z"/><path class="g" d="m495.1 681.2l-0.4-1.5 228.6-66.2 0.4 1.6z"/></g></g><path class="o" d="m500.6 601.3l-327-85.1c0 0-5.2 22-2.1 34.7l327 87.2 9.5-35.7z"/><path class="f" d="m172.7 607.2l334.3 91.3c0 0-7.4-30.9-7.4-34.1l-328.1-83.1c0 0-1.9 20.3 1.2 25.9z"/><path class="k" d="m234.2 429.2c0 0-6 36.9-1 60.9 0 0 207.6 112.8 222.6 116.7 15 4 301.4-50.9 301.4-50.9l-37.9-8.9-1.8-67.6 34.7-6.3-241.5-96.8z"/><path class="c" d="m729.3 477.1l-269.5 42.9c0 0-15.7 49.6 0 76.9l277-47c0 0-6.5-34.9-7.5-72.8z"/><path class="n" d="m593 566.4c-46.6 1.8-97.6 0.2-138.7-20.8-2.3 16.3-2.8 36.9 5.5 51.3l277-47c0 0-0.1-0.5-0.2-1.5-47.4 9.4-95.4 16.2-143.6 18z"/><g style="opacity:.3"><path class="p" d="m256.3 442.4l-11.8-4.6-5.9 24.4 5.3 28.8 11.5 6 6.5-24.2z"/><path class="i" d="m252.7 456.4l-5.2-2.2-2.7 10.8 2.4 13 5.2 2.5 2.8-10.7z"/><path class="p" d="m262 500.4l-23.7-12.3 0.4-53.1 24.4 9.6z"/><path class="p" d="m329.1 471l-16.1-6.3-8.9 27.5 6.2 33.4 15.5 8 9.9-27z"/><path class="i" d="m323.6 486.8l-7.1-3-4 12.2 2.8 15.1 6.9 3.4 4.3-12.1z"/><path class="p" d="m334.7 538.3l-31.9-16.6 2.5-60.6 33.1 13z"/><path class="p" d="m431.6 511.3l-23.2-9.1-14 31.3 7.4 39.7 22 11.5 15.8-30.5z"/><path class="i" d="m422.9 529.4l-10.2-4.3-6.4 13.8 3.3 18.1 10 4.8 6.7-13.7z"/><path class="p" d="m436.7 591.4l-45.4-23.6 6.1-70.6 47.8 18.7z"/><path class="i" d="m283.8 512l-5.1-2.7 1.6-58 5.3 2.1z"/><path class="i" d="m363 553.3l-6.8-3.6 4.6-66.9 7.1 2.8z"/></g><path class="o" d="m234.2 429.2l225.6 90.8c0 0-7.2 27.5-6.7 34l-221.4-102.9c0 0 1.2-19.6 2.5-21.9z"/><path class="q" d="m233.2 490.1l222.6 116.7c0 0-9.2-13.5-8.6-37.8l-215.5-98.5c0 0 0.3 17.1 1.5 19.6z"/><g clip-path="url(#cp2)"><g style="opacity:.4"><path class="g" d="m448.1 534.5l-0.2-1 288.4-47.9 0.2 1.1z"/></g><g style="opacity:.4"><path class="g" d="m449.1 546.5l-0.2-1 288.4-47.9 0.1 1.1z"/></g><g style="opacity:.4"><path class="g" d="m448 559.8l-0.2-1.1 288.4-47.8 0.1 1z"/></g><g style="opacity:.4"><path class="g" d="m448.5 573l-0.1-1.1 288.3-47.8 0.2 1.1z"/></g><g style="opacity:.4"><path class="g" d="m449.1 587.5l-0.2-1.1 288.4-47.8 0.2 1z"/></g></g><path class="h" d="m199.3 321.4c0 0-22 43.9-1 93.8l295.4 91.8 223.6-61.3-18.9-4.7-4.2-83.8 21.1-5.9-279.5-83.8z"/><path class="c" d="m697.9 356.1l-209.2 44.1c0 0-31.9 59.9 9 96.9l202.6-55.9z"/><path class="n" d="m610.9 375.1c7.6 0 15.2-0.3 22.8-0.9 3.4-0.2 6.8-0.6 10.2-1q0.9-0.1 1.4-0.2 1.2-0.1 2.3-0.3c12.9-2.2 25.6-4.9 38.2-8.2q6.1-1.6 12.2-3.4l-0.1-5-89.9 19q1.4 0 2.9 0z"/><path class="n" d="m606.7 449.5c-30-0.3-59.9-3.5-89.8-5.5-13.3-1-26.6-2.3-39.5-5-2 18.8 1.3 40.9 20.3 58.1l202.6-55.9-0.1-4.2c-30.5 7.6-61.4 12.8-93.5 12.5z"/><path class="m" d="m202.2 410.7c-3.1-6.6-4.9-13.7-6.1-20.8-1.3-7.2-1.8-14.5-1.6-21.8 0-1.8 0.2-3.6 0.2-5.4l0.2-2.7 0.3-2.8 0.7-5.4 1-5.3c0.6-3.6 1.7-7.1 2.6-10.6 1-3.5 2.3-6.9 3.5-10.3-1.7 7.1-3.5 14.1-4.5 21.2l-0.8 5.3-0.5 5.3-0.2 2.7-0.2 2.7c-0.1 1.8-0.2 3.6-0.2 5.4-0.2 7.1 0.2 14.3 1.1 21.4 0.4 3.6 1 7.1 1.7 10.6 0.8 3.6 1.7 7 2.8 10.5z"/><path class="m" d="m471.5 492.7c-3.1-6.5-4.9-13.6-6.1-20.8-1.3-7.1-1.7-14.4-1.6-21.7 0-1.8 0.2-3.6 0.3-5.5l0.1-2.7 0.3-2.7 0.7-5.4 1-5.4c0.6-3.5 1.7-7 2.6-10.5 1-3.5 2.3-6.9 3.5-10.3-1.7 7-3.4 14-4.5 21.1l-0.7 5.4-0.6 5.3-0.2 2.7-0.2 2.7c0 1.8-0.2 3.5-0.2 5.3-0.2 7.2 0.2 14.4 1.1 21.5 0.4 3.6 1 7.1 1.8 10.6 0.7 3.5 1.6 7 2.7 10.4z"/><g style="opacity:.2"><path class="i" d="m226.9 390.5l41.8 7.1-36.5-28.7-20 2.7z"/><path class="i" d="m232.7 367.6l39.6 30.9-25.4-47.2-21.1-8.9z"/><path class="i" d="m226.8 392.7l44.6 6.8-39.5 14.8-18.8-8.6z"/></g><path class="r" d="m291 355.4c0 0-18.4 43.2-6.4 84.8l46.3 16c0 0-10.3-69.6 10.4-85.6z"/><path class="r" d="m394.1 386.6c0 0-19.2 47.2-6.4 86.4l14.4 5.6c0 0-4-65.6 10.4-87.2z"/><g clip-path="url(#cp3)"><g style="opacity:.3"><path class="g" d="m479.4 409.9l-0.2-1.1 240.1-52.1 0.2 1z"/><path class="g" d="m475.8 423.1l-0.3-1 239.8-53.7 0.3 1z"/><path class="g" d="m473.8 437.6l-0.2-1.1 238.8-57.7 0.3 1z"/><path class="g" d="m472.8 449.3l-0.3-1.1 238.9-57.7 0.2 1z"/><path class="g" d="m473.1 460.9l-0.3-1 238.9-57.8 0.2 1.1z"/><path class="g" d="m474.7 471.9l-0.2-1.1 238.8-57.7 0.3 1z"/><path class="g" d="m485.3 492.4l-0.3-1 238-60.9 0.3 1z"/><path class="g" d="m479.8 481.4l-0.3-1.1 238.9-57.7 0.2 1z"/></g></g><path class="o" d="m199.3 321.4l289.4 78.8c0 0-11.4 28-13 41.6l-286.3-88c0 0 4.6-27.3 9.9-32.4z"/><path class="f" d="m195.8 414.6l297.9 92.4c0 0-16.6-6.5-22-35.6l-282.3-85.6c0 0 4 24 6.4 28.8z"/><path class="i" d="m222.2 223.6c0 0-6.9 59.9-1 75.8l222.6 90.9 268.5-46.9-27-6-3.1-64.6 23.6-2.6-268-78.6z"/><path class="c" d="m689.3 272.5l-238.5 30.9c0 0-27.9 52.9 7 74.9l233.5-37.9c0 0-2-70.9-2-67.9z"/><path class="n" d="m595.6 352.8c-29.3-0.2-59-2.7-88.1-5.2-17.4-1.5-35.3-3.5-51-11.6-5.1-2.6-9.7-5.9-14.1-9.5-4 17.1-4.4 39.4 15.4 51.8l159.4-25.9q-10.9 0.4-21.6 0.4z"/><g style="opacity:.5"><path class="k" d="m240.3 269.7c0 0.7-0.9 0.9-1.9 0.5-1-0.4-1.7-1.2-1.7-1.9 0-0.6 0.9-0.8 1.8-0.4 1 0.3 1.8 1.2 1.8 1.8z"/><path class="k" d="m269 261.8c0 0.7-0.9 0.9-2 0.6-1.1-0.4-1.9-1.3-1.9-2 0.1-0.6 1-0.9 2-0.5 1.1 0.4 1.9 1.3 1.9 1.9z"/><path class="k" d="m267 299c-0.1 0.7-1 0.9-2 0.4-1.1-0.4-1.9-1.3-1.9-2 0.1-0.6 1-0.8 2-0.4 1.1 0.4 1.9 1.3 1.9 2z"/><path class="k" d="m297.4 292c0 0.7-1 0.9-2.1 0.4-1.2-0.4-2-1.3-2-2 0-0.7 1-0.9 2.1-0.5 1.2 0.5 2.1 1.4 2 2.1z"/><path fill-rule="evenodd" class="k" d="m309.1 262.9l-4.3 64.1-76.6-32.4 1.3-28.5-0.3-0.3 0.3-0.1 1.3-30zm-58.1-3.6l14.2 17.6 0.6-10.9 2.3 0.8-0.6 11.3 17.4-6.9-14.8-19.4zm17.5-9l-34.6-12.1 15.8 19.5zm17.9 20.3l18.7-7.5-33.4-11.6zm2.3 17.2l-0.1 1.4-19.6-7.5 16.1 19.9 18.4-6-17.3-22.6-17.8 7zm-39.1-27.9l-17.7 7 15.6 19.2 16.2-6.5-19.5-7.5 0.1-1.4 20.2 7.8zm-0.7 27.7l16.5 20.3 18.2-5.9-16.3-20.2-0.7 13-2.2-0.9 0.6-12.6zm-1.4 0.5l-16 6.4 32.2 13.5zm19.6 21.3l34.1 14.4-16.2-20.1zm35.5 13.5l1.7-25.5-17.7 5.7zm1.9-29.1l2-29.1-18.6 7.4zm-72.9-29.2l16.6-6.5-15.5-19.2zm-0.1 3.7l-1.1 24.3 15.7-6.3z"/></g><g style="opacity:.5"><path class="k" d="m354.9 311.4c0 0.7-0.8 0.9-1.8 0.5-1-0.4-1.8-1.2-1.8-1.9 0.1-0.6 0.9-0.8 1.9-0.4 1 0.3 1.8 1.2 1.7 1.8z"/><path class="k" d="m383.6 303.5c0 0.7-0.9 0.9-2 0.6-1-0.4-1.9-1.3-1.8-2 0-0.7 0.9-0.9 2-0.5 1 0.4 1.9 1.2 1.8 1.9z"/><path class="k" d="m381.6 340.7c-0.1 0.7-0.9 0.8-2 0.4-1-0.4-1.9-1.3-1.8-2 0-0.6 0.9-0.8 1.9-0.4 1.1 0.4 1.9 1.3 1.9 2z"/><path class="k" d="m412 333.7c0 0.7-1 0.9-2.1 0.4-1.1-0.4-2-1.3-2-2 0.1-0.7 1-0.9 2.2-0.5 1.1 0.5 2 1.4 1.9 2.1z"/><path fill-rule="evenodd" class="k" d="m423.7 304.6l-4.3 64.1-76.6-32.4 1.3-28.5-0.3-0.3 0.3-0.1 1.3-30zm-58-3.6l14.2 17.6 0.6-10.9 2.2 0.8-0.6 11.3 17.4-7-14.8-19.3zm17.5-9l-34.6-12.1 15.8 19.5zm17.9 20.3l18.7-7.5-33.3-11.7zm2.2 17.3l-0.1 1.4-19.5-7.5 16 19.9 18.5-6-17.4-22.7-17.7 7.1zm-39.2-27.9l-17.7 7 15.7 19.2 16.2-6.5-19.5-7.5v-1.4l20.2 7.7zm-0.7 27.8l16.5 20.3 18.2-5.9-16.3-20.2-0.7 13-2.2-0.9 0.7-12.6zm-1.4 0.5l-16.1 6.4 32.2 13.5zm19.6 21.3l34.1 14.4-16.2-20.2zm35.6 13.6l1.6-25.5-17.7 5.7zm2-29.1l1.9-29.1-18.6 7.4zm-72.9-29.2l16.7-6.6-15.5-19.1zm-0.2 3.7l-1.1 24.3 15.8-6.3z"/></g><g clip-path="url(#cp4)"><g style="opacity:.3"><path class="g" d="m436.6 335l-0.2-1.1 270.5-36 0.1 1z"/></g><g style="opacity:.3"><path class="g" d="m436.6 351.9l-0.2-1.1 270.5-36 0.1 1z"/></g><g style="opacity:.3"><path class="g" d="m436.8 370.3l-0.2-1.1 270.1-39 0.1 1.1z"/></g><g style="opacity:.3"><path class="g" d="m436.3 316l-0.1-1 271-31.9 0.1 1z"/></g></g><path class="k" d="m501.9 307.4c0 0 30.4 45.1 23.6 101.4l14.7-12.4 11.3 11.3c0 0 1.1-76.6-19.2-102.5z"/><path class="o" d="m222.2 223.6c0 0 223.3 71.4 223.3 74.8 0 3.4-14.6 27.1-11.2 49.6l-214.1-84.5z"/><path class="e" d="m682.1 284.1h-406.2v-64.8h406.2z"/><path class="f" d="m682.1 284.1h-406.2v-13.9h406.2z"/><path class="o" d="m682.1 243.2h-406.2v-23.9h406.2z"/><path class="s" d="m333.6 219.3h-35.7v64.8h35.7z"/><path class="s" d="m365.2 219.3h-6.1v64.8h6.1z"/><path class="s" d="m593.9 219.3h-203.2v64.8h203.2z"/><path class="s" d="m644.6 219.3h-25.2v64.8h25.2z"/><path class="e" d="m275.9 219.3l-3-50.9 373.3-3 35.9 53.9z"/><path class="l" d="m294.9 133.4v57.9l257.5 28 97.8-31-13-5 1-46.9 10-4-240.6-21.9z"/><path class="c" d="m643.2 134.2l-91.8 25.2v47.9 6l90.5-28.7z"/><path class="k" d="m532.2 172.1l-227.6-25.9 0.2-2.1 227.6 25.9z"/><path class="k" d="m531.1 185.7l-227.7-26 0.3-2.1 227.6 26z"/><path class="k" d="m531.1 199.2l-227.7-25.9 0.3-2.1 227.6 25.9z"/><path class="k" d="m531.1 211.6l-227.7-25.9 0.3-2.1 227.6 25.9z"/><g clip-path="url(#cp5)"><g style="opacity:.4"><path class="g" d="m546.1 167.8l-0.2-1 110-29.6 0.3 1z"/></g><g style="opacity:.4"><path class="g" d="m547.3 181.3l-0.3-1 110.1-29.6 0.2 1z"/></g><g style="opacity:.4"><path class="g" d="m547.5 193.3l-0.3-1 110-29.6 0.3 1z"/></g><g style="opacity:.4"><path class="g" d="m548.6 205.7l-0.3-1 110.1-29.6 0.2 1z"/></g></g><path class="f" d="m294.9 191.3l257.5 28-0.9-23.4-255.8-25.9z"/><path class="o" d="m294.9 133.4l256.5 26 0.1 13.9-255.8-22.5z"/><path class="n" d="m551.4 159.4v53.9l81.2-26.4c0 0-80.2 23.9-81.2-27.5z"/><path class="d" d="m257.8 71c0 0-11.8 24-1.5 47l213.8 40.8 181-29-13.7-2.4 2.4-47.1 10.8-2.5-212.8-35.3c0 0-172.7 18.7-180 28.5z"/><g clip-path="url(#cp6)"><path class="c" d="m480.3 108.7c0 0-16.2 22.6-3.5 45.6l162.9-26.9 2.4-47.1z"/><path class="n" d="m563.2 139.9c-18.5-0.3-38.5-0.8-56.5-5.6-11.7-3.2-21.6-9.4-31.4-16-3.4 8.7-6.1 22.3 1.5 36l86.9-14.3q-0.2-0.1-0.5-0.1z"/><g style="opacity:.4"><path class="g" d="m462.5 118.6l-0.1-1 194.9-31.5 0.2 1z"/></g><g style="opacity:.4"><path class="g" d="m462.5 129.9l-0.1-1 194.9-31.6 0.2 1.1z"/></g><g style="opacity:.4"><path class="g" d="m462.5 141.2l-0.1-1.1 194.9-31.5 0.2 1z"/></g><g style="opacity:.4"><path class="g" d="m462.5 150.2l-0.1-1 194.9-31.6 0.2 1z"/></g></g><path class="k" d="m476.6 69.3c10.3 1.8 11.7 4.3 3 5.7-8.7 1.4-24.1 1.2-34.5-0.6-10.4-1.7-11.8-4.3-3.1-5.7 8.7-1.4 24.2-1.1 34.6 0.6z"/><path class="k" d="m432.3 68.2c-4.4 0.2-9.6 0.2-14.4-0.1-2.4-0.2-4.8-0.4-6.7-0.7-5.1-0.9-6-2.1-8.1-3.1-4.5-2.2-16.3-4.1-29.5-4.9 11.3-0.2 23.8-0.3 34.4 0.8 11.5 1.3 16.7 3.6 22.1 5.6 2.1 0.8 4.3 1.5 6.4 2.3z"/><path class="k" d="m486.1 76.1c4.4-0.2 9.5-0.2 14.3 0.1 2.4 0.2 4.8 0.4 6.7 0.7 5.1 0.8 5.9 2 8.1 3.1 4.4 2.2 16.1 4.1 29.2 4.8-11.1 0.2-23.5 0.4-34.1-0.7-11.5-1.3-16.6-3.6-22-5.6-2.1-0.8-4.3-1.6-6.4-2.3z"/><path class="k" d="m453.4 66.7c-4.7-0.4-8.7-1-11.5-1.8-1.3-0.4-2.4-0.8-2.6-1.2-0.8-1.1 3.7-1.8 6.4-2.7 5.7-1.8 4.1-4.3-3.9-6.2 10.5 1.2 21.8 2.6 25.8 4.5 4.3 2.1-1.4 4-5.6 5.8-1.6 0.7-3 1.4-4.6 2.1z"/><path class="k" d="m465.1 77.6c4.6 0.4 8.7 1 11.4 1.8 1.3 0.4 2.4 0.8 2.6 1.2 0.8 1-3.7 1.8-6.4 2.7-5.7 1.8-4.1 4.3 3.9 6.2-10.5-1.2-21.7-2.6-25.8-4.5-4.3-2.1 1.4-4 5.6-5.8 1.6-0.7 3-1.4 4.6-2.1z"/><path class="k" d="m474.7 68c-2.6-0.8-3.8-1.6-3.3-2.4 0.2-0.4 0.8-0.8 2.1-1.1 3.5-0.8 10.5-0.8 16.3-1.1 11.9-0.5 20-2.4 20.4-4.5 4.8 1.9 9.6 4 5.9 5.7-4 1.8-16.5 2.5-27.3 3.2-4 0.3-8 0.6-12 0.9z"/><path class="k" d="m443.7 76.3c2.6 0.8 3.8 1.7 3.3 2.4-0.2 0.4-0.8 0.8-2.1 1.1-3.5 0.8-10.5 0.8-16.3 1.1-11.9 0.6-20.1 2.4-20.5 4.5-4.8-1.9-9.7-4-5.9-5.7 4-1.8 16.6-2.5 27.3-3.2 4.1-0.3 8.1-0.6 12.2-0.9z"/><path class="k" d="m491 71.9c1.4-0.7 4.3-1.3 8.3-1.6 1.9-0.2 4.2-0.3 6.6-0.3 6.3 0 12.3 0.9 18.2 1.5 12.3 1.2 27.2 1.3 37.2 0.2-4.7 1.6-10.4 3.3-21.1 3.7-11.6 0.4-24.8-0.8-36.9-1.8-4.6-0.3-9.3-0.7-13.9-1z"/><path class="k" d="m427.4 72.4c-1.4 0.7-4.4 1.3-8.3 1.6-2 0.2-4.2 0.3-6.7 0.3-6.4 0-12.3-0.9-18.3-1.5-12.4-1.2-27.4-1.3-37.6-0.2 4.8-1.6 10.5-3.3 21.4-3.7 11.7-0.4 24.9 0.8 37.2 1.8 4.6 0.3 9.2 0.7 13.8 1z"/><path class="k" d="m283.4 75.6c0 0-14.4 28.3 1.1 48l18.1 3.2c0 0-9.6-33.6 4.3-48z"/><path class="k" d="m410.8 100.3c0 0-14.3 28.3 1.1 48l18.1 3.2c0 0-9.6-33.6 4.3-48z"/><path class="o" d="m257.8 71l222.5 37.7c0 0-8.8 13.5-9.6 24l-218.9-39.7c0 0 1.4-18.2 6-22z"/><g style="opacity:.4"><path class="i" d="m467.9 107.9l-197.2-34.9 0.4-2.1 197.2 34.9z"/></g><path class="r" d="m469.2 151q-0.8-2.9-1.4-5.8l-215.2-36 3.7 8.8 213.8 40.8c-1.3-2.5-1.3-5.4-0.9-7.8z"/><path class="o" d="m286.6 63c0 0 82.6-14.2 151.2-20.5l126.1 20.5z"/></svg>