<svg version="1.2" xmlns="http://www.w3.org/2000/svg" viewBox="0 0 512 512" width="512" height="512"><defs><linearGradient id="P" gradientUnits="userSpaceOnUse"/><linearGradient id="g1" x1="0" y1="478.5" x2="512" y2="33.5" href="#P"><stop stop-color="#be6ffb"/><stop offset=".01" stop-color="#be6ffb"/><stop offset="1" stop-color="#b7aefd"/></linearGradient><clipPath clipPathUnits="userSpaceOnUse" id="cp1"><path d="m31 296c0-57.99 47.01-105 105-105h122c57.99 0 105 47.01 105 105 0 57.99-47.01 105-105 105h-69c0 0-12.71 0.65-25.58 8.88-11.71 7.49-29.87 41.91-35.41 45.97-4.67 3.43-11.66 0.86-11.95 0.83-8.57-0.73-1.9-23.06-7.01-40.52-3.88-13.28-18.53-25.29-23.97-28.31-32.25-17.92-54.08-52.34-54.08-91.85z"/></clipPath><clipPath clipPathUnits="userSpaceOnUse" id="cp2"><path d="m480 105c0-57.99-47.01-105-105-105h-122c-57.99 0-105 47.01-105 105 0 57.99 47.01 105 105 105h69c0 0 12.71 0.65 25.58 8.88 11.71 7.49 29.87 41.91 35.41 45.97 4.67 3.43 11.66 0.86 11.95 0.83 8.57-0.73 1.9-23.06 7.01-40.52 3.88-13.28 18.53-25.29 23.97-28.31 32.25-17.92 54.08-52.34 54.08-91.85z"/></clipPath></defs><style>.a{fill:url(#g1)}.b{fill:#fff}.c{fill:#ddd}.d{fill:#f84e82}.e{fill:#dd3a71}</style><path class="a" d="m256 512c-141.6 0-256-114.4-256-256 0-141.6 114.4-256 256-256 141.6 0 256 114.4 256 256 0 141.6-114.4 256-256 256z"/><g clip-path="url(#cp1)"><path class="b" d="m31 296c0-58 47-105 105-105h122c58 0 105 47 105 105 0 58-47 105-105 105h-69c0 0-12.7 0.7-25.6 8.9-11.7 7.5-29.9 41.9-35.4 45.9-4.7 3.5-11.6 0.9-11.9 0.9-8.6-0.8-1.9-23.1-7-40.5-3.9-13.3-18.6-25.3-24-28.3-32.3-18-54.1-52.4-54.1-91.9z"/><path class="c" d="m177 190c0 0-33.6 3.4-61 21.2-21.9 14.2-37.9 39.7-44.3 63.4-5.9 22.3 0.2 59.6 14.8 82.5 15 23.6 38.7 32.5 40.5 33.9 7.6 5.9 15.8 6.3 22 35 6.2 28.7-14 29-14 29l-16 7-52-56-52-115 29-79 43-25 67-5z"/></g><path  d="m95.2 321v-62h16v23.7h23.5v-23.7h16v62h-16v-26.3h-23.5v26.3zm116.8-23.4v4.3h-34.7q0.5 5.2 3.8 7.8 3.2 2.6 9 2.6 4.7 0 9.6-1.3 4.9-1.5 10.1-4.3v11.5q-5.2 2-10.5 3-5.3 1-10.6 1-12.6 0-19.6-6.4-7-6.4-7-18 0-11.4 6.9-17.9 6.9-6.5 18.9-6.5 11 0 17.5 6.6 6.6 6.6 6.6 17.6zm-34.5-4.9h19.3q0-4.2-2.5-6.8-2.5-2.6-6.5-2.6-4.3 0-7 2.4-2.7 2.4-3.3 7zm45.8 28.3v-64.6h14.8v64.6zm29.2 0v-64.6h14.8v64.6zm51.3-37q-4.9 0-7.6 3.6-2.5 3.5-2.5 10.2 0 6.7 2.5 10.3 2.7 3.5 7.6 3.5 4.8 0 7.4-3.5 2.6-3.6 2.6-10.3 0-6.7-2.6-10.2-2.6-3.6-7.4-3.6zm0-10.6q12 0 18.7 6.5 6.8 6.4 6.8 17.9 0 11.5-6.8 17.9-6.7 6.5-18.7 6.5-12 0-18.9-6.5-6.7-6.4-6.7-17.9 0-11.5 6.7-17.9 6.9-6.5 18.9-6.5z"/><g clip-path="url(#cp2)"><path class="d" d="m480 105c0-58-47-105-105-105h-122c-58 0-105 47-105 105 0 58 47 105 105 105h69c0 0 12.7 0.7 25.6 8.9 11.7 7.5 29.9 41.9 35.4 45.9 4.7 3.5 11.6 0.9 11.9 0.9 8.6-0.8 1.9-23.1 7-40.5 3.9-13.3 18.6-25.3 24-28.3 32.3-18 54.1-52.4 54.1-91.9z"/><path class="e" d="m253-3c0 0-77 29.5-59 117 18 87.5 129 82 129 82 0 0 71.2-3.6 86 24 17.8 33.1 10 61 10 61 0 0-49 12.8-60 11-11-1.8-104.4-53.8-115-56-10.6-2.2-151.2-118.7-151.2-118.7l53.2-77.3 62-44z"/></g><path class="b" d="m272.2 126v-62h16v23.7h23.5v-23.7h16v62h-16v-26.3h-23.5v26.3zm70.4 0v-46.5h14.9v46.5zm0-52.5v-12.1h14.8v12.1z"/></svg>