<svg version="1.2" xmlns="http://www.w3.org/2000/svg" viewBox="0 0 910 909" width="910" height="909"><style>.a{fill:#4a5}</style><path class="a" d="m133.5 775.6c41.7 41.8 90.3 74.5 144.4 97.4 56 23.7 115.5 35.7 176.8 35.7 61.3 0 120.8-12 176.9-35.7 54.1-22.9 102.7-55.6 144.4-97.4 41.7-41.7 74.4-90.3 97.3-144.4 23.7-56 35.7-115.5 35.7-176.8 0-49-7.7-97.2-23-143.3-5-14.9-21-23-35.9-18-14.9 4.9-22.9 21-18 35.8 13.4 40.4 20.2 82.6 20.2 125.5 0 106.2-41.3 206-116.4 281.1-75.1 75.1-175 116.5-281.2 116.5-106.2 0-206-41.4-281.1-116.5-75.1-75.1-116.5-174.9-116.5-281.1 0-106.2 41.4-206.1 116.5-281.2 75.1-75.1 174.9-116.4 281.1-116.4 69.5 0 137.9 18.2 197.8 52.6 13.5 7.8 30.9 3.1 38.7-10.5 7.8-13.6 3.1-30.9-10.5-38.7-68.4-39.3-146.6-60.1-226-60.1-61.3 0-120.8 12-176.8 35.7-54.1 22.9-102.7 55.6-144.4 97.3-41.7 41.8-74.5 90.3-97.4 144.4-23.7 56.1-35.7 115.6-35.7 176.9 0 61.3 12 120.8 35.7 176.8 22.9 54.1 55.7 102.7 97.4 144.4z"/><path class="a" d="m380.7 516.9c0 0-54-34.3-119.1-86.9-14-11.3-34.6-8.7-45.4 5.6-7.8 10.5-8.5 24.6-1.6 35.7 33 53.6 89.9 138.1 134 193.6 20.8 26.2 57.7 28.7 81.9 5.6 139.5-132.4 269-299.4 424-530.7 9-13.4 4.5-31.6-9.7-39.3-10.9-5.8-24.3-3.6-32.8 5.3-172 182.2-260.2 268.7-431.3 411.1z"/></svg>