<svg version="1.2" xmlns="http://www.w3.org/2000/svg" viewBox="0 0 651 590" width="651" height="590"><style>.a{fill:#4a5}.b{fill:#fff}.c{fill:#c62c2c}</style><path class="a" d="m1288.3 811.7c-61.3 0-120.8-12-176.9-35.7-54.1-22.9-102.7-55.6-144.4-97.4-41.7-41.7-74.4-90.3-97.3-144.4-23.7-56-35.7-115.5-35.7-176.8 0-61.3 12-120.8 35.7-176.9 22.9-54.1 55.6-102.6 97.3-144.4 41.7-41.7 90.3-74.4 144.4-97.3 56.1-23.7 115.6-35.7 176.9-35.7 61.3 0 120.8 12 176.8 35.7 54.1 22.9 102.7 55.6 144.4 97.3 41.7 41.8 74.5 90.3 97.4 144.4 23.7 56.1 35.7 115.6 35.7 176.9 0 61.3-12 120.8-35.7 176.8-22.9 54.1-55.7 102.7-97.4 144.4-41.7 41.8-90.3 74.5-144.4 97.4-56 23.7-115.5 35.7-176.8 35.7z"/><path class="b" d="m1050.5 416.5c24.5 39.9 66.8 102.7 99.5 143.9 15.5 19.5 42.9 21.3 61 4.2 103.7-98.4 199.9-222.6 315.2-394.5 6.6-10 3.3-23.6-7.3-29.2-8.1-4.4-18.1-2.7-24.4 3.9-127.8 135.4-193.4 199.7-320.6 305.6 0 0-40.1-25.5-88.5-64.6-10.4-8.4-25.7-6.5-33.7 4.2-5.9 7.7-6.3 18.3-1.2 26.5z"/><path class="a" d="m171.7 419.9c0 0-54-34.3-119.1-86.9-14-11.3-34.6-8.7-45.4 5.6-7.8 10.5-8.5 24.6-1.6 35.7 33 53.6 89.9 138.1 134 193.6 20.8 26.2 57.7 28.7 81.9 5.6 139.5-132.4 269-299.4 424-530.7 9-13.4 4.5-31.6-9.7-39.3-10.9-5.8-24.3-3.6-32.8 5.3-172 182.2-260.2 268.7-431.3 411.1z"/><path fill-rule="evenodd" class="c" d="m664.3 1199.8c23.7 56 35.7 115.5 35.7 176.8 0 61.3-12 120.8-35.7 176.9-22.9 54.1-55.6 102.6-97.3 144.4-41.7 41.7-90.3 74.4-144.4 97.3-56.1 23.7-115.6 35.7-176.9 35.7-61.3 0-120.8-12-176.8-35.7-54.1-22.9-102.7-55.6-144.4-97.3-41.7-41.8-74.5-90.3-97.4-144.4-23.7-56.1-35.7-115.6-35.7-176.9 0-61.3 12-120.8 35.7-176.8 22.9-54.1 55.7-102.7 97.4-144.4 41.7-41.8 90.3-74.5 144.4-97.4 56-23.7 115.5-35.7 176.8-35.7 61.3 0 120.8 12 176.9 35.7 54.1 22.9 102.7 55.6 144.4 97.4 41.7 41.7 74.4 90.3 97.3 144.4zm-21 176.8c0-106.2-41.3-206-116.4-281.1-75.1-75.1-175-116.5-281.2-116.5-106.2 0-206 41.4-281.1 116.5-75.1 75.1-116.5 174.9-116.5 281.1 0 106.2 41.4 206.1 116.5 281.2 75.1 75.1 174.9 116.4 281.1 116.4 106.2 0 206.1-41.3 281.2-116.4 75.1-75.1 116.4-175 116.4-281.2z"/><path class="c" d="m430.6 1191.8c-13.5-13.5-35.4-13.5-48.8 0l-136.1 136-136-136c-13.5-13.5-35.3-13.5-48.8 0-13.5 13.4-13.5 35.3 0 48.8l136 136-136 136.1c-13.5 13.4-13.5 35.3 0 48.7 6.7 6.8 15.6 10.1 24.4 10.1 8.8 0 17.6-3.3 24.4-10.1l136-136 136.1 136c6.7 6.8 15.5 10.1 24.4 10.1 8.8 0 17.6-3.3 24.4-10.1 13.4-13.4 13.4-35.3 0-48.7l-136.1-136.1 136.1-136c13.4-13.5 13.4-35.4 0-48.8z"/><path class="c" d="m1288.3 1830.9c-61.3 0-120.8-12-176.9-35.7-54.1-22.9-102.7-55.6-144.4-97.3-41.7-41.8-74.4-90.3-97.3-144.4-23.7-56.1-35.7-115.6-35.7-176.9 0-61.3 12-120.8 35.7-176.8 22.9-54.1 55.6-102.7 97.3-144.4 41.7-41.8 90.3-74.5 144.4-97.4 56.1-23.7 115.6-35.7 176.9-35.7 61.3 0 120.8 12 176.8 35.7 54.1 22.9 102.7 55.6 144.4 97.4 41.7 41.7 74.5 90.3 97.4 144.4 23.7 56 35.7 115.5 35.7 176.8 0 61.3-12 120.8-35.7 176.9-22.9 54.1-55.7 102.6-97.4 144.4-41.7 41.7-90.3 74.4-144.4 97.3-56 23.7-115.5 35.7-176.8 35.7z"/><path class="b" d="m1337.1 1376.6l136-136c13.5-13.5 13.5-35.4 0-48.8-13.5-13.5-35.3-13.5-48.8 0l-136 136-136.1-136c-13.4-13.5-35.3-13.5-48.8 0-13.4 13.4-13.4 35.3 0 48.8l136.1 136-136.1 136.1c-13.4 13.4-13.4 35.3 0 48.7 6.8 6.8 15.6 10.1 24.4 10.1 8.9 0 17.7-3.3 24.4-10.1l136.1-136 136 136c6.8 6.8 15.6 10.1 24.4 10.1 8.8 0 17.7-3.3 24.4-10.1 13.5-13.4 13.5-35.3 0-48.7z"/></svg>