<svg version="1.2" xmlns="http://www.w3.org/2000/svg" viewBox="0 0 620 585" width="620" height="585"><style>.a{fill:#c8d72c}.b{mix-blend-mode:multiply;fill:#c8d72c}.c{fill:#3d9919}.d{fill:#007634}.e{fill:#a86736}.f{fill:#bf753f}.g{fill:#f7931e}.h{fill:#ffcd34}.i{fill:#8cc63f}.j{mix-blend-mode:multiply;fill:#4d9a10}.k{fill:#0f7b88}.l{fill:#4d9a10}.m{fill:#f6931d}.n{fill:#64c8cf}.o{mix-blend-mode:multiply;fill:#12626e}.p{fill:#fbb03b}.q{fill:#12626e}.r{mix-blend-mode:screen;fill:#fbb03b}.s{fill:#ca8cbd}.t{fill:#964481}.u{opacity:.6;mix-blend-mode:multiply;fill:#12626e}.v{fill:#656668}.w{mix-blend-mode:multiply;fill:#656668}.x{opacity:.5;mix-blend-mode:multiply;fill:#847fbc}.y{opacity:.6;mix-blend-mode:multiply;fill:#0f7b88}.z{opacity:.6;mix-blend-mode:multiply;fill:#0d8b94}.A{mix-blend-mode:screen;fill:#ffce51}.B{mix-blend-mode:multiply;fill:#0d8b94}.C{fill:#bcbec0}.D{fill:#fff}.E{fill:#00737d}.F{fill:#004249}.G{fill:#7f4280}.H{fill:#0d8b94}.I{fill:#02282c}.J{fill:#b28237}.K{fill:#cb8dbe}.L{fill:#ecbfda}.M{opacity:.8;mix-blend-mode:multiply;fill:#dfa7cc}.N{opacity:.6;mix-blend-mode:multiply;fill:#cb8dbe}.O{fill:#e2e3e4}.P{opacity:.6;mix-blend-mode:multiply;fill:#cbcce7}.Q{fill:#96d3be}.R{opacity:.7;mix-blend-mode:multiply;fill:#cb8dbe}.S{fill:#313239}.T{fill:#231f20}.U{fill:#e0dfc4}.V{mix-blend-mode:screen;fill:#e0c894}.W{mix-blend-mode:multiply;fill:#e0dfc4}.X{fill:#e0c894}.Y{mix-blend-mode:multiply;fill:#c8937a}.Z{mix-blend-mode:multiply;fill:#dca586}.a0{mix-blend-mode:multiply;fill:#e0c894}.a1{mix-blend-mode:screen;fill:#cb8dbe}</style><path class="a" d="m591.1 539c0 16.9-128.4 30.6-286.9 30.6-158.5 0-287-13.7-287-30.6 0-16.8 128.5-30.5 287-30.5 158.5 0 286.9 13.7 286.9 30.5z"/><path class="b" d="m543 540.2c0 10.6-113.2 19.1-252.9 19.1-139.8 0-253-8.5-253-19.1 0-10.5 113.2-19 253-19 139.7 0 252.9 8.5 252.9 19z"/><path class="c" d="m532.8 547.3l17.9 0.9c3.4-4.3 7.7-4.1 7.7-4.1-2.2-2.1-4.5-2.5-4.5-2.5 2.6-1.4 5.1-1.5 5.1-1.5-5.4-3.6-10.7-1.2-10.7-1.2 2.4-4.1 6.3-7.2 6.3-7.2-7.9-1.4-12.6 5.7-12.6 5.7-0.4-4.2 3.5-9.2 3.5-9.2-5.9 3.1-7.1 9.3-7.1 9.3-1.8-4.2-5.9-5-5.9-5 4.2 3.9 2.7 7.6 2.7 7.6-4-4.5-8.8-1.7-8.8-1.7 3.3 0.1 5.3 3.3 5.3 3.3-3.4-0.7-7 4.6-7 4.6 4.2-1.8 7.9 1 7.9 1z"/><path class="c" d="m532.8 547.3l17.9 0.9c3.4-4.3 7.7-4.1 7.7-4.1-2.2-2.1-4.5-2.5-4.5-2.5 2.6-1.4 5.1-1.5 5.1-1.5-5.4-3.6-10.7-1.2-10.7-1.2 2.4-4.1 6.3-7.2 6.3-7.2-7.9-1.4-12.6 5.7-12.6 5.7-0.4-4.2 3.5-9.2 3.5-9.2-5.9 3.1-7.1 9.3-7.1 9.3-1.8-4.2-5.9-5-5.9-5 4.2 3.9 2.7 7.6 2.7 7.6-4-4.5-8.8-1.7-8.8-1.7 3.3 0.1 5.3 3.3 5.3 3.3-3.4-0.7-7 4.6-7 4.6 4.2-1.8 7.9 1 7.9 1z"/><path class="d" d="m549.8 548.2c1.9-2.7 6.6-4.8 6.6-4.8-2.3-1.4-6.5-0.5-6.5-0.5 2.8-3.2 7.2-3.1 7.2-3.1-4.8-1.9-12.1 3.9-12.1 3.9 0.8-5.2 8.5-11.6 8.5-11.6-8.1-0.3-12.2 9.2-12.2 9.2-1.5-4.7 2.1-10.8 2.1-10.8-2.5 2.7-3.8 9.8-3.8 9.8-0.8-2.6-3-4.3-3-4.3 2 3.8 3.4 9 3.4 9-3.8-5.5-8.5-6.3-8.5-6.3 5 1.7 7.2 7.4 7.2 7.4-5.1-4.6-11-1.4-11-1.4 3.9-1.4 7.2 1.9 8.1 2.7z"/><path class="e" d="m548.6 549.3c1-0.1 2.4-0.4 3.5-1 0.3-0.4 0.4-1-0.2-1.7-0.8-0.9-2.7-1.3-3.8-1.5-1.2-0.2-2.3 0.1-3.3 0.7-0.9 0.5-1.8 1.6-1.5 2.5 1.1 1.1 4 1.2 5.3 1z"/><path class="f" d="m547.2 548.3c0.5-0.1 1.3-0.2 1.8-0.5 0.2-0.2 0.2-0.5-0.1-0.9-0.4-0.5-1.4-0.7-2-0.8-0.6-0.1-1.1 0.1-1.6 0.4-0.5 0.2-1 0.8-0.9 1.3 0.6 0.6 2.1 0.6 2.8 0.5z"/><path class="e" d="m540.3 548.9c0.7-0.1 1.6-0.2 2.3-0.6 0.3-0.3 0.3-0.7-0.1-1.2-0.5-0.7-1.8-0.9-2.6-1-0.8-0.2-1.5 0-2.2 0.4-0.6 0.4-1.3 1.1-1 1.7 0.7 0.8 2.7 0.9 3.6 0.7z"/><path class="f" d="m539.3 548.3c0.4-0.1 0.9-0.2 1.3-0.4 0.1-0.2 0.1-0.4-0.1-0.6-0.3-0.3-1-0.5-1.4-0.5-0.4-0.1-0.8 0-1.1 0.2-0.3 0.2-0.7 0.6-0.6 0.9 0.4 0.4 1.5 0.4 1.9 0.4z"/><path class="c" d="m94.2 550.5l18 1c3.4-4.3 7.6-4.2 7.6-4.2-2.2-2-4.5-2.5-4.5-2.5 2.6-1.3 5.1-1.4 5.1-1.4-5.3-3.6-10.7-1.3-10.7-1.3 2.4-4.1 6.4-7.1 6.4-7.1-8-1.5-12.7 5.7-12.7 5.7-0.4-4.3 3.5-9.2 3.5-9.2-5.8 3-7.1 9.2-7.1 9.2-1.8-4.2-5.9-4.9-5.9-4.9 4.2 3.9 2.7 7.6 2.7 7.6-4-4.5-8.7-1.8-8.7-1.8 3.2 0.1 5.2 3.4 5.2 3.4-3.3-0.7-7 4.6-7 4.6 4.2-1.9 7.9 0.9 7.9 0.9z"/><path class="c" d="m94.2 550.5l18 1c3.4-4.3 7.6-4.2 7.6-4.2-2.2-2-4.5-2.5-4.5-2.5 2.6-1.3 5.1-1.4 5.1-1.4-5.3-3.6-10.7-1.3-10.7-1.3 2.4-4.1 6.4-7.1 6.4-7.1-8-1.5-12.7 5.7-12.7 5.7-0.4-4.3 3.5-9.2 3.5-9.2-5.8 3-7.1 9.2-7.1 9.2-1.8-4.2-5.9-4.9-5.9-4.9 4.2 3.9 2.7 7.6 2.7 7.6-4-4.5-8.7-1.8-8.7-1.8 3.2 0.1 5.2 3.4 5.2 3.4-3.3-0.7-7 4.6-7 4.6 4.2-1.9 7.9 0.9 7.9 0.9z"/><path class="d" d="m111.2 551.4c1.9-2.7 6.6-4.7 6.6-4.7-2.3-1.4-6.4-0.5-6.4-0.5 2.7-3.2 7.2-3.1 7.2-3.1-4.9-1.9-12.1 3.9-12.1 3.9 0.8-5.3 8.5-11.6 8.5-11.6-8.1-0.4-12.3 9.1-12.3 9.1-1.5-4.7 2.1-10.7 2.1-10.7-2.4 2.6-3.8 9.7-3.8 9.7-0.8-2.6-3-4.2-3-4.2 2 3.7 3.4 8.9 3.4 8.9-3.8-5.5-8.4-6.2-8.4-6.2 4.9 1.6 7.1 7.3 7.1 7.3-5-4.5-11-1.4-11-1.4 3.9-1.3 7.3 1.9 8.1 2.8z"/><path class="e" d="m110 552.6c1.1-0.1 2.4-0.4 3.5-1 0.3-0.5 0.4-1-0.2-1.7-0.7-1-2.7-1.3-3.8-1.5-1.1-0.2-2.2 0.1-3.2 0.6-0.9 0.6-1.9 1.7-1.6 2.5 1.1 1.2 4.1 1.3 5.3 1.1z"/><path class="f" d="m108.6 551.6c0.6-0.1 1.3-0.2 1.8-0.5 0.2-0.3 0.2-0.6 0-0.9-0.4-0.5-1.5-0.7-2-0.8-0.6-0.1-1.2 0-1.7 0.3-0.5 0.3-1 0.9-0.8 1.3 0.5 0.6 2.1 0.7 2.7 0.6z"/><path class="e" d="m101.7 552.2c0.7-0.1 1.6-0.3 2.4-0.7 0.2-0.3 0.2-0.7-0.1-1.1-0.6-0.7-1.9-0.9-2.7-1.1-0.7-0.1-1.5 0.1-2.2 0.5-0.6 0.3-1.2 1.1-1 1.7 0.7 0.7 2.7 0.8 3.6 0.7z"/><path class="f" d="m100.7 551.5c0.4 0 0.9-0.1 1.3-0.3 0.1-0.2 0.1-0.4-0.1-0.6-0.2-0.4-0.9-0.5-1.3-0.6-0.4-0.1-0.8 0-1.2 0.2-0.3 0.2-0.6 0.6-0.5 0.9 0.4 0.4 1.4 0.5 1.8 0.4z"/><g style="mix-blend-mode:multiply"></g><path fill-rule="evenodd" class="g" d="m333.1 226.5l-6.8 16.1c-0.2 0.5-0.6 0.9-1.1 1l-14 5q-0.3 0.1-0.7 0.1c0 0-52.7 0.4-52.7 0.4-1.1 0-1.9-0.9-2-1.9l-0.9-33.7c-4.9-1-8.6-4.5-9.1-9-0.3-3.4 1.2-6.6 3.9-8.8-3-1.7-5.1-4.4-5.5-7.7-0.3-2.9 0.7-5.7 2.9-8q0.9-1 2.1-1.8c-2.8-1.4-4.7-3.9-5.1-6.9-0.3-2.5 0.6-5 2.5-7 1.8-1.9 4.4-3.1 7.1-3.4q0.1 0 0.2 0 0.3-0.5 0.9-0.7l16.6-5.2q0.2 0 0.5 0 0.2 0 0.3 0l41.9 4.9c0.6 0.1 1.1 0.4 1.5 0.9l9.6 15.5q0.4 0.5 0.3 1.1l-0.7 16.6q0 0.6-0.3 1l-5.1 7.7 7 4c0.4 0.3 0.7 0.6 0.8 1.1l6 17.3c0.1 0.4 0.1 0.9-0.1 1.4zm-46.4-37.5l8.3-1.8v-6.7l-8.3-1.8zm10 30.4l-8.4-2.8v9.9l8.4-1.8z"/><path class="h" d="m246.1 171.1c0.4 4 4.7 6.9 9.5 6.3 4.8-0.5 8.3-4.2 7.8-8.2-0.4-4-4.7-6.9-9.4-6.3-4.8 0.5-8.4 4.2-7.9 8.2z"/><path class="h" d="m246.2 187.8c0.5 4.7 5.5 8 11.1 7.4 5.7-0.6 9.8-5 9.3-9.7-0.6-4.7-5.5-8.1-11.2-7.4-5.6 0.6-9.7 4.9-9.2 9.7z"/><path class="h" d="m247.8 204.3c0.5 4.7 5.5 8.1 11.1 7.5 5.7-0.7 9.8-5 9.3-9.7-0.6-4.8-5.5-8.1-11.2-7.5-5.6 0.7-9.7 5-9.2 9.7z"/><path fill-rule="evenodd" class="i" d="m313.9 161.9l9.7 15.5-0.8 16.5-6.2 9.4 8.8 5.1 5.9 17.3-6.8 16.1-14 4.9-52.7 0.4-2.4-85 16.5-5.2zm-16.9 27v-9.9l-12.2-2.7v15.1zm1.7 37.4v-8.2l-12.3-4.3v15.1z"/><path class="j" d="m325.4 208.4l-8.8-5.1 6.2-9.4 0.8-16.5-9.7-15.5-6.7-0.8 7.7 12.3-0.7 16.6-6.3 9.4 8.8 5.1 5.9 17.3-6.7 16.1-14 4.9-44.2 0.3 0.1 4 52.7-0.4 14-4.9 6.8-16.1z"/><g style="mix-blend-mode:multiply"><path class="k" d="m316.4 177c1.2-1 1.3-2.7 0.9-4.1-0.4-1-1.1-2-2-2.8q-0.3-0.4-0.6-0.8c-0.7-0.9-1.6-1.8-2.7-2.3-0.4-0.1-0.9-0.2-1.4 0-0.3 0.2-0.6 0.6-0.8 1-0.4 0.9-0.9 1.9-1.2 2.8-0.4 1.2-0.7 2.4-0.3 3.6 0.3 1.2 1.3 2 2.4 2.6 0.8 0.4 1.9 0.7 2.8 0.7 1 0 2.1-0.1 2.9-0.7z"/><path class="k" d="m306.4 181.8q0.2 0 0.3-0.3c0.2-0.2 0.2-0.4 0.2-0.7 0.1-0.3 0.1-0.6 0.1-1-0.2-0.7-0.5-1.5-1-2.1-0.5-0.6-1.5-1-2.2-0.6-0.6 0.4-1 1.1-1.2 1.7q-0.3 1-0.4 2c-0.1 0.5 0.3 1.1 0.7 1.3 0.6 0.4 1.4 0.7 2.1 0.6q0.9-0.2 1.4-0.9z"/><path class="k" d="m311.6 188.1c0.2-0.1 0.4-0.3 0.6-0.4 0.1-0.2 0.2-0.4 0.3-0.6 0.1-0.3 0.2-0.6 0.1-0.9q-0.1-0.3-0.2-0.7 0-0.1 0-0.2 0 0 0 0.1c0-0.1 0-0.2 0-0.4v0.2c0-0.2 0-0.3-0.1-0.5-0.1-0.3-0.2-0.5-0.4-0.6q0.1 0.1 0.2 0.2c-0.2-0.2-0.4-0.4-0.6-0.5q-0.3-0.2-0.6-0.2c-0.2-0.1-0.5-0.1-0.7 0q-0.6 0.1-1.1 0.4-0.3 0.2-0.6 0.5-0.2 0.2-0.4 0.5c-0.3 0.5-0.4 1-0.3 1.5 0 0.3 0.1 0.6 0.3 0.9q0.4 0.5 1 0.8 0.4 0.2 0.7 0.2 0.4 0.1 0.7 0.1c0.4-0.1 0.8-0.2 1.1-0.4z"/><path class="l" d="m279.3 207.3q0.6-0.4 1-1c0.2-0.2 0.4-0.6 0.4-0.9q0.2-0.7 0.2-1.4c-0.1-0.9-0.3-2-0.8-2.8-0.7-0.9-1.8-1.4-2.8-1-0.8 0.4-1.4 1.1-1.8 1.8-0.8 1.5-1.3 3.7 0.1 5.1 0.5 0.5 1.3 0.8 2.1 0.8 0.6 0 1.2-0.3 1.6-0.6z"/><path class="l" d="m270.1 218.7c0.9-0.3 1.5-1.1 2-1.8 0.9-1.5 1.3-3.3 1.2-5 0-0.7 0-1.5-0.4-2.1-0.3-1.3-1.2-2.4-2.5-2.7-1.5-0.3-3 0.5-3.9 1.6-1.1 1.3-1.8 3-2 4.7-0.1 0.8-0.1 1.6 0.2 2.4 0.4 1 1.3 1.9 2.2 2.4 1 0.6 2.1 0.9 3.2 0.5z"/><path class="l" d="m268.4 203c0.5-0.2 1-0.7 1.3-1.1q0.4-0.6 0.7-1.1c0.3 0 0.7-0.1 0.7-0.4 0-0.5 0.2-0.9 0.2-1.3 0-0.5 0-1.1-0.1-1.6-0.2-1.3-1-2.5-2.3-2.9-0.4-0.1-0.8-0.2-1.1 0.1-0.8 1-1.3 2.2-1.5 3.5-0.3 1.2-0.2 2.6 0.2 3.8 0.2 0.6 1.2 1.3 1.9 1z"/></g><path fill-rule="evenodd" class="m" d="m232.8 256.7c-0.1 0.6-0.5 1.1-1.1 1.4l-1.7 0.9q0 0 0 0l-8.8 4.5q0 0 0 0l-1.9 1q0 0.1 0 0.1l-9.4 4.8q0 0 0 0l-1.5 0.7q0 0 0 0l-6.5 3.4-3 1.6q-0.2 0-0.3 0.1c-0.4 0.1-0.9 0.1-1.3 0-0.5-0.2-0.9-0.6-1.1-1l-8.7-17.9-25.1 7.5 0.8 22.3c0 0.9-0.5 1.7-1.4 1.9q-0.1 0.1-0.3 0.1l-35.4 5c-0.6 0.1-1.3-0.1-1.7-0.6-0.4-0.5-0.6-1.1-0.5-1.8l20.5-92.1c0.1-0.6 0.5-1.1 1.1-1.4l22.2-9.8q0.1 0 0.2-0.1 0.4-0.1 0.9-0.1 1-0.5 2-0.9c4.2-1.3 8.3-0.2 10.7 2.9 1.8 2.4 2.1 5.6 1 8.5 4.1-0.7 8 0.6 10.3 3.7 2 2.6 2.4 6.1 1.3 9.3 3.6-0.2 6.9 1.1 8.9 3.8 2.2 2.9 2.4 6.7 1.1 10.1l28.2 30.4c0.4 0.5 0.6 1.1 0.5 1.7zm-59.2-25.2l-4.9-7.1-5.2 1.6-0.8 8.8z"/><path class="h" d="m179.9 190.4c2.4 3.2 1.3 8.2-2.6 11.1-3.8 2.9-8.9 2.6-11.3-0.6-2.5-3.3-1.3-8.2 2.5-11.1 3.9-2.9 9-2.7 11.4 0.6z"/><path class="h" d="m191.2 202.6c2.9 3.8 1.6 9.6-3 13-4.5 3.4-10.5 3.1-13.3-0.7-2.9-3.8-1.6-9.6 3-13.1 4.5-3.4 10.5-3 13.3 0.8z"/><path class="h" d="m201.4 215.7c2.9 3.8 1.6 9.6-3 13.1-4.5 3.4-10.5 3-13.3-0.8-2.9-3.8-1.6-9.6 3-13 4.5-3.4 10.5-3.1 13.3 0.7z"/><path fill-rule="evenodd" class="n" d="m230.8 256.4l-32.8 16.9-9.5-19.4-28.1 8.5 0.8 23.7-35.4 5.1 20.5-92.2 22.2-9.8zm-70.4-18.2l17.8-5.3-7.9-10.5-9 2.5z"/><path class="o" d="m215.9 252.1c-8.1-3.6-13.4-0.8-14.3 5.7-4.8-5-7.9 0.2-7.9 0.2l-5.7-9.9-27.2 7.3 0.6 6.7 27.1-8.2 9.5 19.4 32.8-16.9-9.8-10.6c-2.2 0.6-4.3 2.3-5.1 6.3z"/><path class="o" d="m154.7 275.9c-4.3 1-6.3 5.9-6.3 5.9 0 0-1-6.9-6.8-5.5-4.6 1.1-4.9 4.7-4.9 6.3 0.1 0.4 0.1 0.7 0.1 0.7 0 0 0-0.3-0.1-0.7-0.2-1.9-1.6-6.6-8.4-2.5l-2.5 11 35.4-5-0.3-8.9c-1.4-1.2-3.4-1.8-6.2-1.3z"/><path class="p" d="m132.5 281.9c-2.6-0.2-5 2.8-5.4 6.7q-0.1 1.3 0 2.4l9.3-1.3q0-0.1 0-0.1c0.4-3.9-1.3-7.4-3.9-7.7z"/><path class="p" d="m143.4 279.5c-3 0-5.4 3.7-5.4 8.2q0.1 0.9 0.2 1.7l10.5-1.5q0-0.1 0-0.2c0-4.6-2.4-8.2-5.3-8.2z"/><path class="p" d="m154.7 279.1c-2.8 0.2-4.7 3.8-4.3 8q0 0.3 0.1 0.6l9.7-1.4q0 0 0-0.1c-0.4-4.1-2.8-7.4-5.5-7.1z"/><path class="p" d="m199.6 263.4c-2.4 1.3-2.9 5.3-1 9q0.1 0.3 0.2 0.5l8.7-4.5q-0.1-0.2-0.1-0.3c-1.9-3.8-5.4-5.9-7.8-4.7z"/><path class="p" d="m209.5 256.7c-2.7 1.3-3.2 5.7-1.2 9.8q0.3 0.6 0.7 1.1l9.4-4.8q-0.2-0.5-0.5-1c-2-4.1-5.8-6.4-8.4-5.1z"/><path class="p" d="m228.9 256.7c-2-3.7-5.6-5.6-8-4.3-2.5 1.3-2.8 5.4-0.8 9.1q0.1 0.1 0.2 0.3l8.8-4.6q-0.1-0.2-0.2-0.5z"/><g style="mix-blend-mode:multiply"><path class="q" d="m172.9 198.3c0.2-1.6-0.8-2.9-2.1-3.6-1-0.6-2.2-0.8-3.3-0.7q-0.5-0.2-1-0.3c-1.1-0.2-2.5-0.2-3.6 0.2-0.4 0.2-0.8 0.5-1 0.9-0.1 0.4 0 0.9 0.1 1.3 0.3 1 0.6 2 1 2.9 0.5 1.2 1.1 2.3 2.2 2.9 1.1 0.6 2.4 0.6 3.5 0.2 1-0.2 1.9-0.7 2.6-1.4 0.8-0.6 1.5-1.4 1.6-2.4z"/><path class="q" d="m168.8 208.6q0.2-0.2 0.1-0.4c0-0.3-0.2-0.5-0.3-0.7-0.2-0.3-0.4-0.5-0.7-0.7-0.6-0.5-1.3-0.9-2.1-1-0.8-0.1-1.8 0.3-2.1 1.1-0.1 0.7 0.1 1.4 0.3 2q0.4 1 1 1.8c0.3 0.4 1 0.6 1.5 0.5 0.7-0.2 1.5-0.4 1.9-1.1q0.6-0.7 0.4-1.5z"/><path class="q" d="m177 209.6c0-0.2 0.1-0.4 0.1-0.6 0-0.2-0.1-0.5-0.2-0.7-0.1-0.2-0.2-0.5-0.5-0.7q-0.3-0.2-0.6-0.3-0.1-0.2-0.2-0.3 0.1 0.1 0.1 0.2c-0.1-0.1-0.1-0.2-0.2-0.3l0.1 0.1c-0.1-0.1-0.3-0.3-0.5-0.3-0.2-0.1-0.4-0.2-0.7-0.2q0.2 0 0.3 0c-0.3 0-0.5 0-0.8 0.1q-0.3 0.1-0.5 0.2c-0.2 0.2-0.4 0.3-0.5 0.5q-0.4 0.5-0.6 1.1-0.1 0.3-0.1 0.7 0 0.4 0.1 0.7c0 0.5 0.3 1 0.7 1.3 0.3 0.2 0.6 0.3 0.9 0.4q0.7 0.1 1.3 0 0.4-0.1 0.7-0.4 0.3-0.2 0.5-0.4c0.2-0.3 0.5-0.7 0.6-1.1z"/><path class="q" d="m191 219.1q0.2-0.6 0.1-1.3c-0.1-0.3-0.2-0.7-0.3-1q-0.4-0.6-0.9-1.1c-0.7-0.7-1.5-1.3-2.4-1.5-1.1-0.2-2.3 0.1-2.8 1.2-0.3 0.7-0.3 1.6-0.1 2.4 0.4 1.7 1.6 3.6 3.5 3.7 0.8 0.1 1.6-0.2 2.1-0.8 0.5-0.4 0.7-1 0.8-1.6z"/><path class="q" d="m203.6 234c0.4-0.8 0.4-1.8 0.2-2.7-0.3-1.6-1.3-3.2-2.4-4.4-0.5-0.6-1.1-1.1-1.8-1.3-1.1-0.8-2.5-1-3.6-0.3-1.4 0.8-1.9 2.4-1.8 3.9 0.1 1.7 0.6 3.4 1.6 4.7 0.5 0.7 1.1 1.3 1.9 1.7 1 0.5 2.2 0.5 3.2 0.3 1.1-0.3 2.1-0.8 2.7-1.9z"/><path class="q" d="m189.3 231.6c0.2-0.5 0.2-1.1 0.2-1.7q-0.1-0.7-0.3-1.3c0.3-0.2 0.5-0.5 0.2-0.8-0.2-0.3-0.4-0.7-0.7-1-0.3-0.4-0.7-0.8-1.1-1.1-1-0.8-2.4-1.2-3.7-0.6-0.3 0.2-0.7 0.4-0.7 0.8 0 1.3 0.6 2.5 1.2 3.6 0.7 1.1 1.6 2 2.8 2.6 0.6 0.3 1.7 0.3 2.1-0.5z"/></g><path class="r" d="m132.4 282.8c0.4 0.4-0.1 1.3-1 1.9-0.8 0.6-1.8 0.7-2.1 0.2-0.3-0.5 0.1-1.3 1-1.9 0.9-0.6 1.8-0.7 2.1-0.2z"/><path class="r" d="m143.5 280.4c0.3 0.5-0.1 1.3-1 1.9-0.9 0.6-1.8 0.7-2.1 0.3-0.3-0.5 0.1-1.4 1-1.9 0.9-0.6 1.8-0.7 2.1-0.3z"/><path class="r" d="m155.6 280c0.3 0.5-0.1 1.3-1 1.9-0.9 0.6-1.9 0.7-2.2 0.3-0.3-0.5 0.2-1.3 1.1-1.9 0.8-0.6 1.8-0.7 2.1-0.3z"/><path class="r" d="m201.4 264.1c0.3 0.4-0.1 1.3-1 1.9-0.9 0.6-1.8 0.7-2.1 0.2-0.3-0.4 0.1-1.3 1-1.9 0.9-0.6 1.8-0.7 2.1-0.2z"/><path class="r" d="m211.6 257.2c0.3 0.4-0.1 1.3-1 1.9-0.9 0.6-1.8 0.7-2.1 0.2-0.4-0.4 0.1-1.3 1-1.9 0.8-0.6 1.8-0.7 2.1-0.2z"/><path class="r" d="m222.9 252.9c0.3 0.4-0.2 1.3-1 1.9-0.9 0.6-1.9 0.7-2.2 0.2-0.3-0.4 0.1-1.3 1-1.9 0.9-0.6 1.9-0.7 2.2-0.2z"/><path class="m" d="m416.6 287.6l7.9-33.8c0.1-0.6 0-1.2-0.4-1.7q-0.3-0.3-0.7-0.5-0.4-0.2-0.9-0.2l-26.5 0.4-8.6-15.7 8.8-16 18.8 0.6 14.3 18.2q0.3 0.3 0.7 0.5 0.5 0.3 1 0.2c0.7 0 1.3-0.4 1.6-1l15.6-28c0.5-0.9 0.2-2.1-0.7-2.6l-7.1-4.3q0.2-0.5 0.3-1c1.5-5.1-0.4-10.3-4.5-12.4q-0.6-0.3-1.3-0.5c-3-0.9-6.1 0-8.5 2.1-0.7-3.3-2.6-6.1-5.5-7.5q-0.7-0.4-1.5-0.6c-3.3-1-6.7-0.1-9.4 2.1-0.9-2.6-2.7-4.8-5.1-6.1q-0.7-0.3-1.5-0.6c-5.6-1.6-11.8 2.3-13.7 8.7q-0.5 1.9-0.6 3.8l-3.4 0.1c-0.5 0-0.9 0.2-1.3 0.5l-22.3 20q-0.4 0.5-0.6 1.1l-5.4 26.3q-0.1 0.6 0.1 1.2l11.7 29.1c0.2 0.4 0.5 0.8 0.9 1q0.1 0 0.2 0.1l45 17.9c0.5 0.2 1.1 0.2 1.6-0.1 0.5-0.2 0.9-0.7 1-1.3z"/><path class="h" d="m429.3 208.4c-3.9-1.2-5.9-5.9-4.5-10.5 1.4-4.6 5.6-7.4 9.5-6.2 3.9 1.1 5.9 5.8 4.5 10.4-1.3 4.6-5.6 7.4-9.5 6.3z"/><path class="h" d="m413 205.3c-4.6-1.4-7-6.9-5.4-12.3 1.6-5.4 6.6-8.7 11.2-7.4 4.6 1.4 7 6.9 5.3 12.3-1.6 5.5-6.6 8.7-11.1 7.4z"/><path class="h" d="m396.9 200.8c-4.5-1.4-6.9-6.9-5.3-12.3 1.6-5.4 6.6-8.7 11.2-7.4 4.6 1.4 6.9 6.9 5.3 12.3-1.6 5.4-6.6 8.7-11.2 7.4z"/><path class="s" d="m446.5 209.7l-15.6 28-14.9-18.9-20.9-0.7-10 18 9.8 17.6 27.7-0.3-7.9 33.8-45-18-11.7-29.1 5.4-26.3 22.3-20 32-1.1z"/><g style="mix-blend-mode:multiply"><path class="t" d="m436.1 217.8c1.6-0.4 2.5-1.8 2.7-3.2 0.1-1.1-0.1-2.4-0.5-3.4q-0.1-0.5-0.1-1c-0.3-1.1-0.7-2.4-1.5-3.3-0.3-0.3-0.7-0.6-1.2-0.6-0.4 0-0.8 0.2-1.1 0.5-0.9 0.6-1.7 1.3-2.5 2-0.9 0.8-1.6 1.8-1.8 3.1-0.2 1.2 0.2 2.3 1 3.3 0.5 0.8 1.3 1.5 2.2 1.9 0.8 0.5 1.8 0.9 2.8 0.7z"/><path class="t" d="m425.1 217.6q0.2 0 0.4-0.1c0.2-0.1 0.4-0.3 0.5-0.5q0.3-0.4 0.4-0.9c0.3-0.8 0.4-1.6 0.2-2.3-0.2-0.8-0.9-1.6-1.8-1.6-0.7 0.1-1.3 0.5-1.8 1q-0.7 0.7-1.2 1.6c-0.3 0.4-0.3 1.1 0 1.5 0.4 0.6 0.9 1.3 1.7 1.5q0.8 0.2 1.6-0.2z"/><path class="i" d="m426.9 225.6c0.2-0.1 0.5-0.1 0.7-0.2 0.2-0.1 0.4-0.2 0.5-0.3 0.2-0.2 0.4-0.5 0.5-0.8q0.1-0.3 0.1-0.7 0.1-0.1 0.2-0.2-0.1 0.1-0.1 0.1c0.1-0.1 0.1-0.2 0.2-0.3l-0.1 0.2c0.1-0.2 0.2-0.4 0.2-0.6 0-0.2 0-0.5-0.1-0.7q0 0.1 0 0.3c0-0.3-0.1-0.5-0.3-0.8q-0.2-0.2-0.4-0.4c-0.2-0.1-0.4-0.2-0.6-0.3q-0.6-0.2-1.2-0.1-0.4 0-0.7 0.1-0.4 0.1-0.7 0.3c-0.4 0.3-0.7 0.7-0.9 1.2-0.1 0.3-0.2 0.6-0.1 0.9q0.1 0.7 0.5 1.3 0.2 0.3 0.5 0.5 0.3 0.2 0.6 0.3c0.4 0.1 0.8 0.2 1.2 0.2z"/><path class="t" d="m379.6 231.7q0.6-0.1 1.2-0.5c0.3-0.1 0.7-0.3 0.9-0.6q0.4-0.6 0.7-1.2c0.4-0.9 0.7-1.9 0.5-2.8-0.1-1.1-0.9-2.1-2-2.2-0.8 0-1.7 0.4-2.3 0.8-1.5 0.9-2.9 2.7-2.3 4.5 0.2 0.8 0.8 1.4 1.5 1.8 0.6 0.2 1.2 0.3 1.8 0.2z"/><path class="t" d="m366.2 237.7c0.9 0.1 1.8-0.3 2.6-0.8 1.5-0.8 2.6-2.3 3.3-3.8 0.3-0.7 0.6-1.4 0.6-2.1 0.3-1.3 0-2.7-1-3.5-1.2-1-2.9-0.9-4.3-0.3-1.5 0.6-2.9 1.8-3.9 3.2-0.4 0.7-0.8 1.5-0.8 2.3-0.1 1.1 0.2 2.2 0.8 3.1 0.6 1 1.5 1.7 2.7 1.9z"/><path class="t" d="m371.7 222.9c0.6 0 1.2-0.2 1.7-0.4q0.6-0.3 1.2-0.7c0.2 0.2 0.5 0.2 0.7-0.1 0.2-0.3 0.5-0.6 0.8-1 0.2-0.5 0.5-0.9 0.6-1.4 0.4-1.3 0.2-2.7-0.8-3.7-0.2-0.2-0.6-0.5-0.9-0.3-1.2 0.4-2.2 1.4-3 2.3-0.8 1-1.3 2.3-1.5 3.5-0.1 0.7 0.4 1.8 1.2 1.8z"/></g><g style="mix-blend-mode:multiply"><path class="i" d="m396.3 209.6l-1 8.5 20.7 0.7 14.9 18.9 5.4-9.7-16.9-16.6z"/><path class="t" d="m377.4 263.6l-18-30-1.4 6.5 11.7 29.1 45 18 2.4-10.3z"/></g><g style="mix-blend-mode:multiply"></g><g style="mix-blend-mode:multiply"></g><g style="mix-blend-mode:multiply"></g><g style="mix-blend-mode:multiply"></g><g style="mix-blend-mode:multiply"></g><g style="mix-blend-mode:multiply"></g><g style="mix-blend-mode:multiply"></g><g style="mix-blend-mode:multiply"></g><g style="mix-blend-mode:multiply"></g><g style="mix-blend-mode:multiply"></g><g style="mix-blend-mode:multiply"></g><g style="mix-blend-mode:multiply"></g><g style="mix-blend-mode:multiply"></g><g style="mix-blend-mode:multiply"></g><g style="mix-blend-mode:multiply"></g><g style="mix-blend-mode:multiply"></g><g style="mix-blend-mode:multiply"></g><g style="mix-blend-mode:multiply"></g><g style="mix-blend-mode:multiply"></g><g style="mix-blend-mode:multiply"></g><g style="mix-blend-mode:multiply"></g><g style="mix-blend-mode:multiply"></g><g style="mix-blend-mode:multiply"></g><g style="mix-blend-mode:multiply"></g><g style="mix-blend-mode:multiply"></g><g style="mix-blend-mode:multiply"></g><g style="mix-blend-mode:multiply"></g><g style="mix-blend-mode:multiply"></g><g style="mix-blend-mode:multiply"></g><g style="mix-blend-mode:multiply"></g><g style="mix-blend-mode:multiply"></g><g style="mix-blend-mode:multiply"></g><g style="mix-blend-mode:multiply"></g><g style="mix-blend-mode:multiply"></g><g style="mix-blend-mode:multiply"></g><g style="mix-blend-mode:multiply"></g><g style="mix-blend-mode:multiply"></g><g style="mix-blend-mode:multiply"></g><g style="mix-blend-mode:multiply"></g><g style="mix-blend-mode:multiply"></g><g style="mix-blend-mode:multiply"></g><path class="n" d="m534.1 532.8c-1.2-2.1-1.1-4.9-1-7.2 0.1-1.4 0.2-2.7 0.3-4.1 0.1-1.4 0.1-2.9 0.2-4.3q0.2-4.8 0.3-9.6c0.4-10 8.1-68.2 6.3-78.1-5.9-32.4-62-14.2-49.2 48.4 0.6 3.3 4.4 10.4 4.7 13.7 0.4 5.4 1.2 10.8 1.8 16.1 0.7 6 1.3 12 1.3 17.9 0 1.4-0.1 2.8-0.3 4.1-0.3 1.2-0.7 2.4-1.1 3.6-0.3 1.2-0.7 2.4-1 3.6-0.2 1-0.4 2-0.1 3 0.4 1.6 1.9 2.4 3.4 2.8 1.7 0.6 3.5 0.8 5.3 1.2 3.2 0.6 6.4 1.2 9.6 1.5 4.1-0.1 8.2-0.5 12.3-1.5 3-0.7 10.7-1.8 10.9-6-0.3-1.9-2.9-3.7-3.7-5.1z"/><path class="u" d="m533.1 525.6c0.1-1.4 0.2-2.7 0.3-4.1 0.1-1.4 0.1-2.9 0.2-4.3q0.2-4.8 0.3-9.6c0.4-10 8.1-68.2 6.3-78.1-5.9-32.4-62-14.2-49.2 48.4 0.3 1.8 1.5 4.5 2.6 7.3q0.2-0.1 0.3-0.1c6-1.1 11.6-3.8 16.7-6.9 4.8-2.9 9.4-6.3 13.5-10.2 0.3-0.2 0.6 0 0.6 0.3 0.3 4.1-0.7 8.3-1.4 12.4-0.4 1.8-0.7 3.7-0.9 5.6-0.3 2.1-0.4 4.3-0.6 6.4q-0.5 6.5-1 13.1c-0.2 2.2-0.4 4.4-0.4 6.6q-0.1 3.3-0.1 6.6c0 4.4 0.1 8.8-0.1 13.2 0 0.2-0.2 0.3-0.4 0.4-2.6 0.3-4.2 2.6-5.1 4.9-0.1 0.3-0.5 0.3-0.7 0.1-1-1.7-2.3-3.7-4.3-4.1-1.3-0.2-2.5 0.4-3.4 1.2-1.2 1.1-2.1 2.5-2.9 3.9-0.8 1.5-1.4 3-1.9 4.6 1.1 0.3 2.3 0.4 3.5 0.7 3.2 0.6 6.4 1.2 9.6 1.5 4.1-0.1 8.2-0.5 12.3-1.5 3-0.7 10.7-1.8 10.9-6-0.3-1.9-2.9-3.7-3.7-5.1-1.2-2.1-1.1-4.9-1-7.2z"/><path class="v" d="m524.7 540.9q0.1-0.4 0.1-0.8c0.1-1.5 0.6-3.5 2.2-4q0.5-0.2 0.9-0.2c1.8 0.2 3.4 1.8 4.4 3.1 1 1.4 2 3.4 1.1 5-0.8 1.3-2.5 1.7-3.8 1.8q-0.7 0.1-1.3 0.1c-0.9-0.2-1.7-0.6-2.4-1.3-0.9-1-1.2-2.4-1.2-3.7z"/><path class="w" d="m526.8 536.1c-0.8 1.1-0.9 2.5-0.7 3.8 0.2 1.4 0.8 2.9 2 3.8 0.7 0.4 1.4 0.6 2.2 0.6 0.7 0 1.5-0.1 2.1-0.5 1-0.7 1.2-1.8 1-2.9 0.4 1.1 0.5 2.2 0 3.1-0.8 1.3-2.5 1.7-3.8 1.8q-0.7 0.1-1.3 0.1c-0.9-0.2-1.7-0.6-2.4-1.3-0.9-1-1.2-2.4-1.2-3.7q0.1-0.4 0.1-0.8c0.1-1.5 0.5-3.3 2-4z"/><path class="v" d="m519.7 535.8q0 0 0 0c0.5 0 0.8 0.2 1.2 0.4 2 1.1 3.2 3.2 4.1 5.3 0.3 0.8 0.7 1.8 0.6 2.8-0.1 1.4-1.5 2.1-2.7 2.4-1.7 0.4-3.4 0.3-5 0-1.2-0.1-3.1-0.1-3.6-1.4-0.9-2 0.3-4.9 1.3-6.7 0.7-1.1 1.6-2.1 2.8-2.6 0.4-0.2 0.9-0.3 1.3-0.2z"/><path class="w" d="m515.6 538.6c0.7-1.1 1.6-2.1 2.8-2.6q0.1 0 0.2-0.1c-1 1-1.7 2.4-2 3.8-0.2 1.4-0.1 3.1 0.9 4.3 1.2 1.3 3.2 1.5 4.9 0.9 2.6-0.9 2.4-3.6 1.4-5.9 0.4 0.8 0.8 1.7 1.2 2.5 0.3 0.8 0.7 1.8 0.6 2.8-0.1 1.4-1.5 2.1-2.7 2.4-1.7 0.4-3.4 0.3-5 0-1.2-0.1-3.1-0.1-3.6-1.4-0.9-2 0.3-4.9 1.3-6.7z"/><path class="v" d="m504.5 544.7c-0.5-0.7-0.7-1.4-0.8-2.2 0-1.7 0.6-3.5 1.6-4.9 0.6-0.7 1.4-1.3 2.3-1.5 1.2-0.2 2.3 0.3 3.2 0.9 1.7 1.2 2.9 3.2 3.5 5 0.5 1.8 0.4 3.9-1.8 4.6-1.5 0.4-3.3 0.2-4.8 0q-0.1 0-0.2 0c-1.2-0.4-2.3-1-3-1.9z"/><path class="w" d="m505.3 537.6c0.6-0.7 1.4-1.3 2.3-1.5q0.1 0 0.3 0c-0.8 0.5-1.3 1.3-1.6 2.1-0.6 1.7-0.6 3.8 0.3 5.3 0.5 0.7 1.1 1.3 2 1.5 0.9 0.2 2.1 0.3 3-0.2 1.6-0.9 1.7-3 1.2-4.6-0.2-0.8-0.5-1.6-1-2.3 1.2 1.2 2 2.7 2.5 4.1 0.5 1.8 0.4 3.9-1.8 4.6-1.5 0.4-3.3 0.2-4.8 0q-0.1 0-0.2 0c-1.2-0.4-2.3-1-3-1.9-0.5-0.7-0.7-1.4-0.8-2.2 0-1.7 0.6-3.5 1.6-4.9z"/><path class="x" d="m521.4 508.2c1.8-0.1 3.6-0.1 5.3 0.2 1.1 0.2 2.2 0.5 3.2 1.1q-0.7 0.1-1.4 0.2c-1.7 0.1-3.5 0.2-5.2 0.1-1.3-0.2-2.7-0.5-3.8-1.3q0.9-0.2 1.9-0.3z"/><path class="x" d="m528.4 513.8c-2.4 0.7-5 0.7-7.3-0.2 2.4-0.4 4.9-0.3 7.3 0.2z"/><path class="x" d="m527.2 517.1q-1 0.4-2.1 0.5c-1 0.1-2 0.1-2.9 0.1 1.6-0.4 3.3-0.6 5-0.6z"/><path class="n" d="m427.1 532.7c-1.2-2.1-1.1-4.8-1-7.2 0-1.3 0.2-2.7 0.2-4.1 0.1-1.4 0.2-2.8 0.2-4.3q0.2-4.8 0.4-9.5c0.4-10.1 9.5-47.2 7.7-57.1-5.9-32.4-63.4-35.2-50.7 27.4 0.7 3.2 4.5 10.3 4.7 13.7 0.5 5.3 1.2 10.7 1.9 16.1 0.6 5.9 1.2 11.9 1.2 17.9 0 1.4 0 2.7-0.3 4-0.2 1.3-0.6 2.5-1 3.7-0.4 1.1-0.8 2.3-1 3.5-0.3 1-0.4 2.1-0.1 3.1 0.4 1.5 1.9 2.3 3.3 2.8 1.8 0.5 3.6 0.8 5.4 1.1 3.2 0.7 6.4 1.2 9.6 1.5 4.1 0 8.2-0.5 12.2-1.4 3.1-0.7 10.7-1.9 11-6.1-0.4-1.8-2.9-3.7-3.7-5.1z"/><path class="u" d="m426.1 525.5c0-1.3 0.2-2.7 0.2-4.1 0.1-1.4 0.2-2.8 0.2-4.3q0.2-4.8 0.4-9.5c0.4-10.1 9.5-47.2 7.7-57.1-5.9-32.4-63.4-35.2-50.7 27.4 0.6 2.6 3.1 7.7 4.2 11.3 1.7 0.6 3.4 1 5.1 1.4 2.2 0.5 4.4 0.9 6.6 1.4 1.9 0.4 3.9 0.9 5.7 1.8 2.1 1 3.9 2.7 4.9 4.8 1 1.9 1.5 4.2 1.6 6.3 0.2 2.4 0.1 4.8 0.1 7.1 0 3.2 0 6.3-0.1 9.5q-0.2 2.3-0.5 4.7c-0.1 1.4-0.3 2.9-0.8 4.3-0.4 1.1-1 2-1.6 3-0.7 1.1-1.4 2.2-1.9 3.4-0.1 0.3-0.4 0.3-0.6 0.1-1.2-1.4-2.8-3.1-4.9-3.1-1.4 0-2.5 0.9-3.3 2-1.1 1.3-1.9 2.9-2.4 4.5q-0.5 1.4-0.8 2.9 1.4 0.3 2.8 0.5c3.2 0.7 6.4 1.2 9.6 1.5 4.1 0 8.2-0.5 12.2-1.4 3.1-0.7 10.7-1.9 11-6.1-0.4-1.8-2.9-3.7-3.7-5.1-1.2-2.1-1.1-4.8-1-7.2z"/><path class="v" d="m417.7 540.9q0-0.4 0.1-0.8c0.1-1.6 0.5-3.6 2.2-4.1q0.4-0.2 0.9-0.1c1.8 0.1 3.4 1.8 4.4 3.1 0.9 1.3 2 3.4 1 5-0.7 1.3-2.4 1.7-3.8 1.8q-0.6 0-1.2 0c-0.9-0.2-1.8-0.5-2.4-1.3-0.9-1-1.2-2.3-1.2-3.6z"/><path class="w" d="m419.8 536.1c-0.8 1-1 2.4-0.8 3.7 0.2 1.4 0.9 2.9 2.1 3.8 0.6 0.5 1.4 0.6 2.1 0.6 0.8 0 1.5-0.1 2.1-0.5 1-0.6 1.2-1.8 1-2.8 0.4 1 0.6 2.1 0 3.1-0.7 1.3-2.4 1.7-3.8 1.8q-0.6 0-1.2 0c-0.9-0.2-1.8-0.5-2.4-1.3-0.9-1-1.2-2.3-1.2-3.6q0-0.4 0.1-0.8c0.1-1.5 0.5-3.4 2-4z"/><path class="v" d="m412.7 535.7q0 0 0 0c0.4 0 0.8 0.2 1.2 0.4 2 1.1 3.2 3.2 4 5.3 0.4 0.9 0.7 1.9 0.7 2.8-0.1 1.4-1.5 2.2-2.8 2.4-1.6 0.4-3.3 0.4-5 0.1-1.1-0.2-3-0.2-3.6-1.4-0.8-2.1 0.4-5 1.4-6.7 0.6-1.2 1.6-2.2 2.8-2.7 0.4-0.1 0.8-0.2 1.3-0.2z"/><path class="w" d="m408.6 538.6c0.6-1.2 1.6-2.2 2.8-2.7q0 0 0.1 0c-1 1-1.6 2.3-1.9 3.7-0.3 1.5-0.1 3.1 0.9 4.3 1.2 1.4 3.2 1.5 4.8 0.9 2.7-0.9 2.5-3.5 1.4-5.8 0.5 0.8 0.9 1.6 1.2 2.4 0.4 0.9 0.7 1.9 0.7 2.8-0.1 1.4-1.5 2.2-2.8 2.4-1.6 0.4-3.3 0.4-5 0.1-1.1-0.2-3-0.2-3.6-1.4-0.8-2.1 0.4-5 1.4-6.7z"/><path class="v" d="m397.5 544.6c-0.5-0.6-0.8-1.4-0.9-2.1 0-1.8 0.6-3.6 1.7-4.9 0.5-0.7 1.3-1.4 2.3-1.5 1.1-0.2 2.2 0.2 3.1 0.9 1.7 1.1 3 3.1 3.5 5 0.6 1.7 0.5 3.8-1.7 4.5-1.5 0.4-3.3 0.3-4.8 0q-0.2 0-0.3 0c-1.1-0.4-2.2-1-2.9-1.9z"/><path class="w" d="m398.3 537.6c0.5-0.7 1.3-1.4 2.3-1.5q0.1 0 0.2 0c-0.7 0.4-1.2 1.2-1.6 2.1-0.6 1.6-0.6 3.7 0.4 5.2 0.4 0.7 1.1 1.3 1.9 1.5 1 0.3 2.1 0.3 3-0.2 1.7-0.9 1.7-3 1.3-4.6-0.2-0.8-0.5-1.5-1-2.3 1.2 1.2 2 2.7 2.4 4.2 0.6 1.7 0.5 3.8-1.7 4.5-1.5 0.4-3.3 0.3-4.8 0q-0.2 0-0.3 0c-1.1-0.4-2.2-1-2.9-1.9-0.5-0.6-0.8-1.4-0.9-2.1 0-1.8 0.6-3.6 1.7-4.9z"/><path class="x" d="m414.4 508.2c1.7-0.2 3.5-0.1 5.3 0.2 1 0.2 2.2 0.5 3.1 1q-0.7 0.1-1.4 0.2c-1.7 0.2-3.4 0.3-5.1 0.1-1.4-0.2-2.7-0.5-3.9-1.3q1-0.2 2-0.2z"/><path class="x" d="m421.4 513.8c-2.4 0.6-5 0.7-7.4-0.2 2.5-0.4 5-0.3 7.4 0.2z"/><path class="x" d="m420.2 517.1q-1.1 0.3-2.2 0.5c-0.9 0.1-1.9 0.1-2.9 0.1 1.6-0.5 3.4-0.7 5.1-0.6z"/><path class="n" d="m379 465.1c0.5-3.7-48.9-44.4-57.1-43.2 0-0.1-0.2-0.2-0.3-0.1q-0.1 0.1-0.2 0.2-1.7 0.3-3.5 1.5c-7.8 5.1-12.8 14.6-19 21.4-7.5 8.1-15.8 15.6-24.7 22.2-29.8 22.1-66.4 35-103.4 37-3.9 0.2-15-0.3-15 5.2 0.1 10.4 35 14.6 42.2 15.9 17.9 3.2 36.3 3.9 54.3 1.1 35.7-5.3 121.1-20.9 126.7-61.2z"/><path class="u" d="m321.9 421.9c0-0.1-0.2-0.2-0.3-0.1q-0.1 0.1-0.2 0.2-1.7 0.3-3.5 1.5c-6.8 4.4-11.5 12.2-16.7 18.7-0.7 9.4 1.6 19.4 2.9 28.3 0.5 3.8 1 7.5 0.4 11.3-0.5 3.3-1.7 6.4-3.5 9.1-3.8 5.7-9.9 9.4-15.9 12.2-6.9 3.2-14.2 5.5-21.5 7.4-7.8 2-15.8 3.6-23.8 4.6-16.6 2.2-33.6 2.3-50.2-0.2-10.7-1.7-21.4-4.6-31.3-9.1-1.5 0.8-2.5 1.9-2.5 3.5 0.1 10.4 35 14.6 42.2 15.9 17.9 3.2 36.3 3.9 54.3 1.1 35.7-5.3 121.1-20.9 126.7-61.2 0.5-3.7-48.9-44.4-57.1-43.2z"/><path class="n" d="m577 160.6c-3.2 0.9-6.1 3.2-8.7 5.3-2.5 2.1-4.9 4.4-7.5 6.4-3.5 2.8-7.3 5.6-10.3 9-1.4 1.5-2.6 3.2-3.5 5.1-1 2.1-1.1 4.4-0.8 6.6 0.2 2.4 1 4.7 1.6 7-0.2 3.4-0.6 6.7-1.2 10-0.8 4.8-1.9 9.6-3.2 14.3-2.6 9.2-5.8 18.3-8.9 27.4-3.1 8.9-6.7 17.7-11 26.1-4.7 9.1-9.7 21.4-19.3 26-10.4 5-23.4 4.9-34.7 7.4-12.7 2.9-25.1 6.7-37.3 11.3-46.5 17.8-98.7 52.2-117.4 101-2.8 7.4-4.7 15.3-4.3 23.2 0.3 7.8 3 15.4 8.2 21.3 6.4 7.2 15.5 10.8 24.8 12.9 11.1 2.5 22.7 3.8 34.1 4.4 24.5 1.2 48.9-2.2 73-6.4 11.9-2.1 23.8-4.6 35.5-7.1 11-2.4 21.9-5.4 31.6-11.4 7.9-4.9 14.9-11.1 20.4-18.7 5-6.7 8.5-14.4 10.5-22.4 4.2-16.7 2.4-34.2-2.5-50.5 3.4-8.8 6.4-17.8 9-26.8 3.2-10.5 5.9-21.1 8.5-31.8 2.6-10.8 5.3-21.6 7.5-32.5 2.4-11.7 4.2-23.6 5.7-35.4 1.5-11.9 2.7-23.7 4.3-35.5 0.8-5.9 1.6-11.9 2-17.9 0.3-4.7 0.3-9.3 0.7-14 0.4-4.7 1.3-16.6-6.8-14.3z"/><path class="y" d="m541.4 225.3q-0.8 2.6-1.6 5.3 3.8-0.6 7.4-1.9c5.7-2 11-5.1 15.8-8.7 5.1-3.7 9.7-8.2 13.8-13q1.5-1.7 2.9-3.5c0.6-4.5 1.1-9 1.4-13.6 0.3-4.7 0.3-9.3 0.7-14 0.4-4.7 1.3-16.6-6.8-14.3-3.2 0.9-6.1 3.2-8.7 5.3-2.5 2.1-4.9 4.4-7.5 6.4-3.5 2.8-7.3 5.6-10.3 9-1.4 1.5-2.6 3.2-3.5 5.1-1 2.1-1.1 4.4-0.8 6.6 0.2 2.4 1 4.7 1.6 7-0.2 3.4-0.6 6.7-1.2 10-0.8 4.8-1.9 9.6-3.2 14.3z"/><path class="z" d="m575 161.6c-3.2 0.9-6.1 3.2-8.7 5.3-2.5 2.1-4.9 4.4-7.5 6.4q-1.4 1.2-2.9 2.3c0.8 5.2 1.5 10.5 2 15.7 1.1 11 1.2 21.9 0.2 32.8-1.9 22.1-5.7 44.1-10.2 65.8-3.4 16.1-7.7 32.2-13.8 47.5-5.7 14.2-13.1 27.7-22.5 39.7-10.1 12.7-22.3 23.6-35.8 32.4-16.5 10.8-34.8 18.5-54 22.7-17.9 3.9-36.6 5.1-54.7 3-6.7-0.7-13.4-2-19.6-4.3-5.9-2.3-11.6-5.6-15.2-10.9-9.6-14.2 2.7-30.5 11.6-41.5q1.5-1.9 3-3.7c-14.8 14.4-26.9 31-34.1 49.7-2.8 7.4-4.7 15.3-4.3 23.2 0.3 7.8 3 15.4 8.2 21.3 6.4 7.2 15.5 10.8 24.8 12.9 11.1 2.5 22.7 3.8 34.1 4.4 24.5 1.2 48.9-2.2 73-6.4 11.9-2.1 23.8-4.6 35.5-7.1 11-2.4 21.9-5.4 31.6-11.4 7.9-4.9 14.9-11.1 20.4-18.7 5-6.7 8.5-14.4 10.5-22.4 4.2-16.7 2.4-34.2-2.5-50.5 3.4-8.8 6.4-17.8 9-26.8 3.2-10.5 5.9-21.1 8.5-31.8 2.6-10.8 5.3-21.6 7.5-32.5 2.4-11.7 4.2-23.6 5.7-35.4 1.5-11.9 2.7-23.7 4.3-35.5 0.8-5.9 1.6-11.9 2-17.9 0.3-4.7 0.3-9.3 0.7-14 0.4-4.7 1.3-16.6-6.8-14.3z"/><path class="y" d="m553.1 343.3q-1.3 2.6-2.6 5.2c-2.1 4.5-3.8 9.1-5.9 13.6-0.1 0.2-0.4 0.3-0.6 0.1-2.9-3.7-6.6-6.7-10.9-8.6q0.7 1 1.4 2c5.7 8.8 7.9 19.4 7.6 29.8-0.3 10.7-3 21.3-7.3 31-2.1 4.7-4.5 9.2-7.4 13.4-1.9 2.7-4 5.3-6.1 7.8-2.8 3.5-5.7 6.9-9 9.9-1.3 1.2-2.7 2.4-4.3 3.4-1.1 0.6-2.5 1.4-3.8 1.3-1.4 0-2.7-1.5-3.6-2.4-1.6-1.5-2.9-3.1-4.4-4.6-1.9-1.8-4.6-3.1-7-4.2-2.7-1.2-5.5-2-8.4-2.4 2.8 3.7 5 7.9 6.5 12.3 2.2 7 2.2 14.2 0.6 21 9.7-2.2 19.2-5.2 27.8-10.5 7.9-4.9 14.9-11.1 20.4-18.7 5-6.7 8.5-14.4 10.5-22.4 4.2-16.7 2.4-34.2-2.5-50.5 3.4-8.7 6.3-17.6 9-26.5z"/><path class="u" d="m394.7 484.1c-3-0.8-6.1-2-8.5-3.9-2.1-1.7-3.5-4-4.5-6.5-2.1-5.4-2.2-11.3-3.4-17-0.5-2.6-1.3-5.3-2.7-7.6-1.3-2.2-3.2-3.8-5.5-4.8 1.4 5.1 0.8 10.7-1.1 15.6-1.8 4.7-4.7 9-8.4 12.4-4.2 3.8-9.6 6.5-15.1 8q-2.8 0.8-5.7 1.2 0.8 0.2 1.7 0.4c11.1 2.5 22.7 3.8 34.1 4.4 10.6 0.5 21.2 0.2 31.8-0.7-4.3 0-8.6-0.3-12.7-1.5z"/><path class="n" d="m369.9 539.1c-1.3-2.1-1.2-4.8-1-7.2 0-1.3 0.2-2.7 0.2-4.1 0.1-1.4 0.2-2.9 0.2-4.3q0.2-4.8 0.4-9.5c0.4-10.1 9.5-47.2 7.7-57.1-5.9-32.4-63.4-35.2-50.7 27.4 0.7 3.2 4.4 10.3 4.7 13.6 0.5 5.4 1.2 10.8 1.9 16.2 0.6 5.9 1.2 11.9 1.2 17.9 0 1.3 0 2.7-0.3 4-0.2 1.3-0.6 2.5-1 3.6-0.4 1.2-0.8 2.4-1.1 3.6-0.2 1-0.3 2.1-0.1 3.1 0.5 1.5 2 2.3 3.4 2.8 1.8 0.5 3.6 0.8 5.4 1.1 3.1 0.6 6.4 1.2 9.6 1.5 4.1 0 8.2-0.5 12.2-1.4 3.1-0.7 10.7-1.9 11-6.1-0.4-1.8-2.9-3.7-3.7-5.1z"/><path class="A" d="m335 539c0.8-1.7 1.7-3.6 1.7-5.6 0.1-2.9-0.5-5.9-0.7-8.8-1.1-12.4-0.6-25.1-4.8-37-2.4-6.9-3.8-14.3-4-21.7-0.2-7.3 0.9-15 4.5-21.4q0.9-1.8 2.1-3.3c-7.4 7.4-11.5 21.3-7.1 43.1 0.7 3.2 4.4 10.3 4.7 13.6 0.5 5.4 1.2 10.8 1.9 16.2 0.6 5.9 1.2 11.9 1.2 17.9 0 1.3 0 2.7-0.3 4-0.2 1.3-0.6 2.5-1 3.6-0.4 1.2-0.8 2.4-1.1 3.6-0.2 1-0.3 2.1-0.1 3.1q0.2 0.4 0.5 0.8c-0.4-2.7 1.3-5.8 2.5-8.1z"/><path class="u" d="m368.9 531.9c0-1.3 0.2-2.7 0.2-4.1 0.1-1.4 0.2-2.9 0.2-4.3q0.2-4.8 0.4-9.5c0.4-10.1 9.5-47.2 7.7-57.1-4-21.8-31.2-30.2-44.8-14.4 2.2-1.3 4.6-2.3 7-2.9 6.2-1.4 13.2-0.4 18 4.1 2.8 2.7 4.4 6.3 5.2 10.1 1.1 5 1 10.3 0.6 15.3-0.4 5.1-1.1 10.2-1.7 15.2q-0.9 9.3-1.3 18.6-0.1 4.6-0.2 9.3c-0.1 2.9-0.2 5.9-0.1 8.8 0.2 5.8 1 11.5 2.6 17.1 0.1 0.2 0 0.4-0.2 0.4-1.5 0.6-2 2.1-2.2 3.5 0 0.3-0.4 0.5-0.6 0.3-1.3-1.3-3.1-2.5-5-2.6-2.1-0.1-3.5 1.5-4.1 3.4-0.1 0.3-0.4 0.4-0.7 0.2-1.4-1.4-3.2-2.8-5.3-2.9-3.1-0.1-4.9 3.2-5.8 5.7q-0.6 1.7-0.9 3.6 1.4 0.2 2.9 0.5c3.1 0.6 6.4 1.2 9.6 1.5 4.1 0 8.2-0.5 12.2-1.4 3.1-0.7 10.7-1.9 11-6.1-0.4-1.8-2.9-3.7-3.7-5.1-1.3-2.1-1.2-4.8-1-7.2z"/><path class="v" d="m360.5 547.3q0-0.4 0-0.9c0.2-1.5 0.6-3.5 2.2-4q0.5-0.2 1-0.1c1.7 0.1 3.4 1.8 4.4 3.1 0.9 1.3 1.9 3.4 1 5-0.7 1.3-2.4 1.7-3.8 1.8q-0.6 0-1.2 0c-0.9-0.2-1.8-0.6-2.4-1.3-0.9-1-1.2-2.3-1.2-3.6z"/><path class="w" d="m362.5 542.5c-0.7 1-0.9 2.4-0.7 3.7 0.2 1.4 0.9 2.9 2.1 3.8 0.6 0.4 1.3 0.6 2.1 0.6 0.8 0 1.5-0.1 2.1-0.5 1-0.6 1.2-1.8 1-2.8 0.4 1 0.6 2.1 0 3.1-0.7 1.3-2.4 1.7-3.8 1.8q-0.6 0-1.2 0c-0.9-0.2-1.8-0.6-2.4-1.3-0.9-1-1.2-2.3-1.2-3.6q0-0.4 0-0.9c0.2-1.4 0.6-3.3 2-3.9z"/><path class="v" d="m355.4 542.1q0.1 0 0.1 0c0.4 0 0.8 0.2 1.2 0.4 2 1.1 3.2 3.2 4 5.3 0.4 0.9 0.7 1.9 0.7 2.8-0.1 1.4-1.6 2.1-2.8 2.4-1.6 0.4-3.3 0.4-5 0.1-1.1-0.2-3-0.2-3.6-1.4-0.8-2.1 0.4-5 1.4-6.7 0.6-1.2 1.6-2.2 2.8-2.7 0.4-0.1 0.8-0.2 1.2-0.2z"/><path class="w" d="m351.4 545c0.6-1.2 1.6-2.2 2.8-2.7q0 0 0.1 0c-1 1-1.7 2.3-1.9 3.7-0.3 1.5-0.1 3.1 0.9 4.3 1.1 1.4 3.2 1.5 4.8 0.9 2.7-0.9 2.5-3.5 1.4-5.8 0.5 0.7 0.9 1.6 1.2 2.4 0.4 0.9 0.7 1.9 0.7 2.8-0.1 1.4-1.6 2.1-2.8 2.4-1.6 0.4-3.3 0.4-5 0.1-1.1-0.2-3-0.2-3.6-1.4-0.8-2.1 0.4-5 1.4-6.7z"/><path class="v" d="m340.3 551c-0.5-0.6-0.8-1.4-0.9-2.2 0-1.7 0.6-3.5 1.7-4.8 0.5-0.7 1.3-1.4 2.3-1.5 1.1-0.2 2.2 0.2 3.1 0.8 1.7 1.2 3 3.2 3.5 5.1 0.5 1.7 0.5 3.8-1.7 4.5-1.5 0.4-3.3 0.2-4.8 0q-0.2 0-0.3 0c-1.2-0.4-2.2-1-2.9-1.9z"/><path class="w" d="m341.1 544c0.5-0.7 1.3-1.4 2.3-1.5q0.1 0 0.2-0.1c-0.7 0.5-1.3 1.3-1.6 2.1-0.6 1.7-0.6 3.8 0.4 5.3 0.4 0.7 1.1 1.3 1.9 1.5 1 0.2 2.1 0.3 3-0.2 1.7-0.9 1.7-3 1.3-4.6-0.2-0.8-0.6-1.6-1-2.3 1.1 1.2 2 2.7 2.4 4.2 0.5 1.7 0.5 3.8-1.7 4.5-1.5 0.4-3.3 0.2-4.8 0q-0.2 0-0.3 0c-1.2-0.4-2.2-1-2.9-1.9-0.5-0.6-0.8-1.4-0.9-2.2 0-1.7 0.6-3.5 1.7-4.8z"/><path class="x" d="m357.2 514.5c1.7-0.1 3.5-0.1 5.3 0.3 1 0.2 2.1 0.5 3.1 1q-0.7 0.1-1.4 0.2c-1.7 0.2-3.4 0.3-5.1 0.1-1.4-0.2-2.7-0.5-3.9-1.3q1-0.2 2-0.3z"/><path class="x" d="m364.2 520.1c-2.4 0.7-5 0.8-7.4-0.1 2.4-0.4 4.9-0.3 7.4 0.1z"/><path class="x" d="m363 523.5q-1.1 0.3-2.2 0.5c-0.9 0.1-1.9 0.1-2.9 0 1.6-0.4 3.4-0.6 5.1-0.5z"/><path class="n" d="m491.2 542.4c-1.2-2.1-1.1-4.9-1-7.2 0.1-1.4 0.2-2.7 0.3-4.1 0.1-1.4 0.1-2.9 0.2-4.3q0.1-4.8 0.3-9.6c0.4-10 9.5-47.2 7.7-57.1-5.9-32.4-63.4-35.2-50.6 27.4 0.6 3.3 4.4 10.4 4.7 13.7 0.4 5.4 1.2 10.8 1.8 16.1 0.7 6 1.2 11.9 1.3 17.9 0 1.4-0.1 2.7-0.4 4.1-0.2 1.2-0.6 2.4-1 3.6-0.4 1.2-0.7 2.3-1 3.6-0.2 1-0.4 2-0.1 3 0.4 1.6 1.9 2.4 3.4 2.8 1.7 0.6 3.5 0.8 5.3 1.2 3.2 0.6 6.4 1.2 9.6 1.5 4.1-0.1 8.2-0.6 12.3-1.5 3-0.7 10.7-1.8 10.9-6-0.3-1.9-2.9-3.7-3.7-5.1z"/><path class="A" d="m455.7 546.1c0.8-3.7 2.4-7.3 2.6-11 0-1.2-0.1-2.5-0.2-3.7q-0.1-2.2-0.3-4.4-0.3-4.5-0.7-8.9c-0.6-6-1.4-12-2.6-17.9q-1-4.4-2.3-8.7c-0.5-1.7-1-3.3-1.5-5q-1.3-5.2-1.9-10.5c-0.9-7.5-0.9-15.4 1.2-22.7q0.6-2.1 1.5-4.2c-5 8.1-7.1 20.6-3.4 38.4 0.6 3.3 4.4 10.4 4.7 13.7 0.4 5.4 1.2 10.8 1.8 16.1 0.7 6 1.2 11.9 1.3 17.9 0 1.4-0.1 2.7-0.4 4.1-0.2 1.2-0.6 2.4-1 3.6-0.4 1.2-0.7 2.3-1 3.6-0.2 1-0.4 2-0.1 3 0.3 1.2 1.2 1.9 2.2 2.4-0.4-1.9-0.3-3.9 0.1-5.8z"/><path class="u" d="m490.2 535.2c0.1-1.4 0.2-2.7 0.3-4.1 0.1-1.4 0.1-2.9 0.2-4.3q0.1-4.8 0.3-9.6c0.4-10 9.5-47.2 7.7-57.1-4.3-23.6-36.1-31.5-48-9.7q2-2.2 4.3-4c5.6-4.5 13.6-7.7 20.5-4.2 4 2 6.9 5.8 8.6 9.8 2.4 5.4 2.6 11.4 2.3 17.2-0.3 6.6-0.8 13.2-1.5 19.8-0.7 6.9-1.6 13.7-2.4 20.6-0.7 6.8-1.2 13.6-0.5 20.5q0.3 2.7 0.8 5.3c0.2 1.3 0.6 2.6 0.4 3.9-0.1 0.9-0.5 1.7-0.9 2.5-0.5 1.2-0.9 2.3-1.1 3.6 0 0.2-0.4 0.3-0.6 0.1-1.1-1.3-2.8-2.8-4.7-2.5-2 0.3-3.1 2.2-3.9 3.9-0.1 0.3-0.5 0.1-0.6-0.1-0.8-1.7-2-3.5-3.9-4-1.7-0.6-3.5 0.1-5 1.1-1.3 0.9-2.3 2.2-3 3.7-0.7 1.6-1 3.4-1.1 5.1 1.2 0.3 2.5 0.5 3.7 0.8 3.2 0.6 6.4 1.2 9.6 1.5 4.1-0.1 8.2-0.6 12.3-1.5 3-0.7 10.7-1.8 10.9-6-0.3-1.9-2.9-3.7-3.7-5.1-1.2-2.1-1.1-4.9-1-7.2z"/><path class="v" d="m481.8 550.5q0.1-0.4 0.1-0.8c0.1-1.5 0.6-3.5 2.2-4.1q0.5-0.1 0.9-0.1c1.8 0.2 3.4 1.8 4.4 3.1 1 1.3 2 3.4 1.1 5-0.8 1.3-2.5 1.7-3.9 1.8q-0.6 0.1-1.2 0c-0.9-0.1-1.7-0.5-2.4-1.2-0.9-1-1.2-2.4-1.2-3.7z"/><path class="w" d="m483.9 545.7c-0.8 1.1-0.9 2.5-0.8 3.7 0.3 1.5 0.9 3 2.1 3.8 0.7 0.5 1.4 0.7 2.2 0.7 0.7 0 1.5-0.1 2.1-0.5 1-0.7 1.1-1.8 1-2.9 0.4 1 0.5 2.2 0 3.1-0.8 1.3-2.5 1.7-3.9 1.8q-0.6 0.1-1.2 0c-0.9-0.1-1.7-0.5-2.4-1.2-0.9-1-1.2-2.4-1.2-3.7q0.1-0.4 0.1-0.8c0.1-1.5 0.5-3.3 2-4z"/><path class="v" d="m476.8 545.3q0 0 0 0.1c0.4 0 0.8 0.2 1.2 0.4 2 1.1 3.2 3.2 4.1 5.3 0.3 0.8 0.6 1.8 0.6 2.8-0.1 1.4-1.5 2.1-2.7 2.4-1.7 0.4-3.4 0.3-5 0-1.2-0.2-3.1-0.2-3.6-1.4-0.9-2 0.3-4.9 1.3-6.7 0.7-1.1 1.6-2.1 2.8-2.6 0.4-0.2 0.8-0.3 1.3-0.3z"/><path class="w" d="m472.7 548.2c0.7-1.1 1.6-2.1 2.8-2.6q0.1 0 0.2-0.1c-1.1 1-1.7 2.4-2 3.7-0.2 1.5-0.1 3.2 0.9 4.4 1.2 1.3 3.2 1.4 4.8 0.9 2.7-0.9 2.5-3.6 1.5-5.9q0.7 1.2 1.2 2.5c0.3 0.8 0.6 1.8 0.6 2.8-0.1 1.4-1.5 2.1-2.7 2.4-1.7 0.4-3.4 0.3-5 0-1.2-0.2-3.1-0.2-3.6-1.4-0.9-2 0.3-4.9 1.3-6.7z"/><path class="v" d="m461.6 554.3c-0.5-0.7-0.7-1.4-0.8-2.2-0.1-1.7 0.5-3.5 1.6-4.9 0.6-0.7 1.3-1.3 2.3-1.5 1.1-0.2 2.3 0.3 3.2 0.9 1.7 1.2 2.9 3.2 3.5 5 0.5 1.8 0.4 3.9-1.8 4.5-1.5 0.5-3.3 0.3-4.8 0.1q-0.1 0-0.3-0.1c-1.1-0.3-2.2-0.9-2.9-1.8z"/><path class="w" d="m462.4 547.2c0.6-0.7 1.3-1.3 2.3-1.5q0.1 0 0.2 0c-0.7 0.5-1.2 1.3-1.5 2.1-0.6 1.6-0.6 3.8 0.3 5.3 0.5 0.7 1.1 1.3 2 1.5 0.9 0.2 2.1 0.2 3-0.2 1.6-0.9 1.7-3 1.2-4.6-0.2-0.8-0.5-1.6-1-2.3 1.2 1.2 2 2.7 2.5 4.1 0.5 1.8 0.4 3.9-1.8 4.5-1.5 0.5-3.3 0.3-4.8 0.1q-0.1 0-0.3-0.1c-1.1-0.3-2.2-0.9-2.9-1.8-0.5-0.7-0.7-1.4-0.8-2.2-0.1-1.7 0.5-3.5 1.6-4.9z"/><path class="x" d="m478.5 517.8c1.8-0.1 3.6-0.1 5.3 0.2 1.1 0.2 2.2 0.5 3.2 1.1q-0.7 0.1-1.4 0.1c-1.7 0.2-3.5 0.3-5.2 0.1-1.3-0.1-2.7-0.4-3.8-1.2q0.9-0.2 1.9-0.3z"/><path class="x" d="m485.5 523.4c-2.4 0.6-5 0.7-7.3-0.2 2.4-0.4 4.9-0.3 7.3 0.2z"/><path class="x" d="m484.3 526.7q-1 0.4-2.1 0.5c-1 0.1-2 0.1-2.9 0.1 1.6-0.5 3.3-0.6 5-0.6z"/><path class="n" d="m582.1 165.6q0-2.1-0.1-4.2c-0.5-7.3-1.6-14.7-5-21.3-3.2-6.1-8.8-10.7-15.5-12.6-3.5-0.9-7.3-1.2-10.9-1-3.8 0.1-7.5 0.8-11.1 2.1-7.2 2.6-12.9 8-16.9 14.6-2.1 3.5-3.6 7.3-4.9 11.2-0.9 2.8-1.8 5.6-2.7 8.4-1 0.9-2.1 1.7-3.2 2.4-2.7 1.9-5.5 3.4-8.2 5.1-5.1 3.1-10.1 6.6-13.7 11.5-3.5 4.9-5.4 11.1-4.6 17.1 0.8 5.9 4.7 11.2 9.1 15.1 2.7 2.4 5.7 4.1 9.1 5.3 22.7 8.1 48 2 64.8-15.3 10.1-10.5 14-24.3 13.8-38.4z"/><path class="A" d="m485.7 196.9c-0.1-2.8 0.5-5.6 1.5-8.2 1.1-2.6 2.6-5 4.4-7.2 3.5-4.6 8.2-8.4 13.3-11 2.7-1.5 5.6-2.7 8.3-4.2 1-0.6 2-1.2 2.7-2.1 0.7-1 1-2.2 1.2-3.3 0.3-1.6 0.3-3.1 0.3-4.7q0.1-0.7 0.1-1.4c-0.8 2.7-1.6 5.3-2.5 8-1 0.9-2.1 1.7-3.2 2.4-2.7 1.9-5.5 3.4-8.2 5.1-5.1 3.1-10.1 6.6-13.7 11.5-3.5 4.9-5.4 11.1-4.6 17.1q0.2 1.6 0.8 3.2-0.4-2.6-0.4-5.2z"/><path class="A" d="m556.6 163.1c-3.7 0.4-7.1 2.5-9.8 4.8-1.4 1.2-2.7 2.5-3.7 4q-0.5 0.7-0.9 1.5 1.1-1.4 2.5-2.6c4.5-3.8 10.2-5.9 15.9-7-1.2-0.7-2.6-0.8-4-0.7z"/><path class="B" d="m582.1 165.6q0-2.1-0.1-4.2c-0.5-7.3-1.6-14.7-5-21.3-3.2-6.1-8.8-10.7-15.5-12.6-3.5-0.9-7.3-1.2-10.9-1q-1.2 0-2.4 0.1c2.8 0.3 5.6 0.7 8.2 1.5 5 1.6 9.7 4.3 13.1 8.3 2.8 3.3 4.8 7.5 5.9 11.8 1.1 4 1.6 9-1 12.6-0.1 0.2-0.3 0.3-0.5 0.1-1.6-0.9-3.4-1.5-5.2-1.7-1.9-0.2-3.7 0-5.6 0.3-0.3 0-0.6-0.4-0.3-0.7 0.6-0.6 1.5-1 2.3-1.4-3.1-1.4-6.6-0.3-9.7 0.7-0.3 0.1-0.5-0.1-0.5-0.4 0.2-3.1 1.2-6.2 1-9.3-0.2-2.7-1.5-5.3-3.6-7-1.7-1.4-3.9-2.1-6.1-2.4-4.3-0.4-9.2 0.9-12 4.4-0.1 0.2-0.5 0.1-0.6-0.1-0.6-1.1-1.6-1.9-2.8-2.4-1.9-0.9-4-1.1-6.1-0.8q-1.1 1.5-2.1 3.1c-2.1 3.5-3.6 7.3-4.9 11.2q-0.5 1.4-0.9 2.8c-0.1 1.4 0.1 2.8 0.8 4 1.6 3.1 5.4 3.9 8.6 3.7 3.7-0.2 7.5-1.6 10.2-4.1 0.2-0.1 0.4-0.1 0.6 0q2.7 2.3 6.2 3c0.3 0 0.3 0.4 0.2 0.6-2.6 2.5-4.4 6.2-4.8 9.8q1-0.7 1.9-1.5c1.7-1.5 3.2-3.2 4.9-4.7 1.7-1.5 3.5-2.8 5.6-3.8 4.4-2 9.2-2.9 13.9-3 3.5-0.1 7 0.4 10.1 2 3 1.6 5.1 4.4 5.5 7.8 0.5 3.8-0.5 7.5-2.1 10.9-1.7 3.7-4.2 7-6.9 10.1-5.4 6.3-12 11.8-19.4 15.9q-3.1 1.8-6.4 3.2c-2 0.8-4 1.4-6 2-1.8 0.6-3.6 1.2-5.5 1.5-1.6 0.3-3.5 0.6-5.1-0.1-0.2-0.1-0.4-0.5 0-0.6q2.8-1.3 5.5-2.8c6.7-3.8 13-8.9 17.1-15.5 0.2-0.2 0.5-0.3 0.6-0.1 0.6 0.6 1.2 1.2 1.9 1.7 0.1-0.9 0.1-1.9 0-2.9-0.1-0.9-0.3-2-1.1-2.7-0.8-0.7-2-0.6-3-0.3-1.9 0.5-3.4 1.8-5 2.9q0.9-0.1 1.8-0.2c0.3 0 0.5 0.5 0.3 0.7q-0.9 0.7-1.7 1.5c-2.1 2-4.1 4.1-6.5 5.9-2.3 1.8-5 3.3-7.7 4.6-5.2 2.6-10.9 4.5-16.7 5.5-5.2 0.9-10.7 0.9-15.8-0.7-4.9-1.6-9.3-4.8-11.7-9.4-0.9-1.8-1.6-3.7-2-5.7q0 1.2 0.2 2.5c0.8 5.9 4.7 11.2 9.1 15.1 2.7 2.4 5.7 4.1 9.1 5.3 22.7 8.1 48 2 64.8-15.3 10.1-10.5 14-24.3 13.8-38.4z"/><path class="C" d="m554.2 153c0 5.8-4.7 10.5-10.5 10.5-5.8 0-10.5-4.7-10.5-10.5 0-5.8 4.7-10.5 10.5-10.5 5.8 0 10.5 4.7 10.5 10.5z"/><path class="D" d="m553.5 153.1c0 5.4-4.4 9.8-9.8 9.8-5.5 0-9.9-4.4-9.9-9.8 0-5.5 4.4-9.9 9.9-9.9 5.4 0 9.8 4.4 9.8 9.9z"/><path class="E" d="m552.6 153.9c0 4.3-3.5 7.8-7.9 7.8-4.3 0-7.8-3.5-7.8-7.8 0-4.3 3.5-7.8 7.8-7.8 4.4 0 7.9 3.5 7.9 7.8z"/><path class="F" d="m549.2 154.3c0 2.2-1.8 4.1-4.1 4.1-2.2 0-4-1.9-4-4.1 0-2.2 1.8-4.1 4-4.1 2.3 0 4.1 1.9 4.1 4.1z"/><path class="D" d="m544.8 151.3c0 1.4-1.1 2.5-2.5 2.5-1.3 0-2.4-1.1-2.4-2.5 0-1.3 1.1-2.4 2.4-2.4 1.4 0 2.5 1.1 2.5 2.4z"/><path class="G" d="m537.9 149c3.2-1 6.8-1.1 10.1-0.4 1.5 0.4 3 1 4.2 1.9q1.3 1 2 2.4 0 0 0 0c0-5.7-4.7-10.4-10.5-10.4-5.2 0-9.6 3.9-10.3 9q0.2-0.2 0.5-0.3c1.2-0.9 2.6-1.7 4-2.2z"/><path class="C" d="m538.2 153c0 5.8-4.7 10.5-10.5 10.5-5.8 0-10.5-4.7-10.5-10.5 0-5.8 4.7-10.5 10.5-10.5 5.8 0 10.5 4.7 10.5 10.5z"/><path class="D" d="m537.4 153.1c0 5.4-4.4 9.8-9.8 9.8-5.4 0-9.8-4.4-9.8-9.8 0-5.5 4.4-9.9 9.8-9.9 5.4 0 9.8 4.4 9.8 9.9z"/><path class="E" d="m536.5 153.9c0 4.3-3.5 7.8-7.8 7.8-4.3 0-7.8-3.5-7.8-7.8 0-4.3 3.5-7.8 7.8-7.8 4.3 0 7.8 3.5 7.8 7.8z"/><path class="F" d="m533.2 154.3c0 2.2-1.9 4.1-4.1 4.1-2.2 0-4.1-1.9-4.1-4.1 0-2.2 1.9-4.1 4.1-4.1 2.2 0 4.1 1.9 4.1 4.1z"/><path class="D" d="m528.8 151.3c0 1.4-1.1 2.5-2.5 2.5-1.4 0-2.5-1.1-2.5-2.5 0-1.3 1.1-2.4 2.5-2.4 1.4 0 2.5 1.1 2.5 2.4z"/><path class="H" d="m521.9 149c3.2-1 6.7-1.1 10-0.4 1.5 0.4 3 1 4.2 1.9q1.3 1 2.1 2.4c-0.1-5.7-4.8-10.4-10.5-10.4-5.3 0-9.6 3.9-10.4 9q0.3-0.2 0.5-0.3c1.2-0.9 2.6-1.7 4.1-2.2z"/><path class="C" d="m554.2 153c0 5.8-4.7 10.5-10.5 10.5-5.8 0-10.5-4.7-10.5-10.5 0-5.8 4.7-10.5 10.5-10.5 5.8 0 10.5 4.7 10.5 10.5z"/><path class="D" d="m553.5 153.1c0 5.4-4.4 9.8-9.8 9.8-5.5 0-9.9-4.4-9.9-9.8 0-5.5 4.4-9.9 9.9-9.9 5.4 0 9.8 4.4 9.8 9.9z"/><path class="E" d="m552.6 153.9c0 4.3-3.5 7.8-7.9 7.8-4.3 0-7.8-3.5-7.8-7.8 0-4.3 3.5-7.8 7.8-7.8 4.4 0 7.9 3.5 7.9 7.8z"/><path class="F" d="m549.2 154.3c0 2.2-1.8 4.1-4.1 4.1-2.2 0-4-1.9-4-4.1 0-2.2 1.8-4.1 4-4.1 2.3 0 4.1 1.9 4.1 4.1z"/><path class="D" d="m544.8 151.3c0 1.4-1.1 2.5-2.5 2.5-1.3 0-2.4-1.1-2.4-2.5 0-1.3 1.1-2.4 2.4-2.4 1.4 0 2.5 1.1 2.5 2.4z"/><path class="H" d="m537.9 149c3.2-1 6.8-1.1 10.1-0.4 1.5 0.4 3 1 4.2 1.9q1.3 1 2 2.4 0 0 0 0c0-5.7-4.7-10.4-10.5-10.4-5.2 0-9.6 3.9-10.3 9q0.2-0.2 0.5-0.3c1.2-0.9 2.6-1.7 4-2.2z"/><path class="I" d="m494 196.7q-0.2-0.9-0.5-1.7c-0.1-0.5-0.3-0.9-0.7-1.3-0.3-0.2-0.9 0.1-1 0.4-0.6 0.8-0.7 1.9-0.6 2.8 0.1 0.5 0.2 1.1 0.4 1.6q0 0.3 0.1 0.5c0.2 0.4 0.4 0.7 0.7 0.9 0.4 0.3 1 0.1 1.3-0.2 0.7-0.8 0.5-2.1 0.3-3z"/><path class="I" d="m502.2 195.5q-0.2-0.8-0.5-1.6c-0.2-0.3-0.4-0.8-0.8-1-0.3-0.2-0.8 0-1 0.3q-0.3 0.6-0.4 1.2 0 0.6 0 1.1c0 1 0.1 2 0.5 2.8 0.2 0.4 0.5 0.7 0.9 0.7 0.5 0 1-0.3 1.2-0.7 0.5-0.8 0.3-1.9 0.1-2.8z"/><path class="I" d="m493.7 191.7q-0.3-0.3-0.6-0.6c-0.3-0.3-0.8-0.6-1.3-0.6-1-0.1-1.6 0.9-1.9 1.7-0.1 0.5-0.2 0.9-0.3 1.4-0.1 0.3 0.3 0.2 0.4 0 0.1-0.5 0.2-0.9 0.4-1.3q0.1-0.4 0.3-0.7 0.1-0.1 0.2-0.2c0.1-0.1 0.1-0.1 0.1-0.1 0 0 0.1-0.1 0.1-0.1 0.4-0.2 0.9 0 1.2 0.3q0.4 0.3 0.6 0.6 0.1 0.2 0.2 0.3 0.2 0.2 0.3 0.3c0.2 0.2 0.6-0.1 0.5-0.3 0-0.3-0.1-0.5-0.2-0.7z"/><path class="I" d="m503.4 191c-0.5-1-1.3-1.8-2.3-2-1-0.2-2 0-2.6 0.8-0.4 0.5-0.5 1.1-0.6 1.7 0 0.3 0.4 0.1 0.4-0.1q0.1-0.7 0.6-1.2 0.3-0.4 0.7-0.5c0.7-0.2 1.5 0.1 2.1 0.5 0.4 0.3 0.7 0.8 0.9 1.2 0.2 0.3 0.9-0.1 0.8-0.4z"/><path class="J" d="m548.3 194.5q0 0-0.1 0 0.1 0 0.1 0z"/><path class="I" d="m551.8 193c-0.2-0.3-0.6-0.5-1-0.5-0.9 0-1.8 0.5-2.4 1-0.3 0.3-0.6 0.5-0.7 0.9-0.1 0.3 0.2 0.3 0.4 0.2q0 0 0 0 0 0 0.1 0 0-0.1 0.1-0.1 0 0 0.1-0.1 0.1 0 0.2-0.1 0 0 0 0 0 0 0.1 0 0.4-0.3 0.9-0.5 0.1 0 0.2 0 0 0 0.1-0.1 0.1 0 0.2 0 0 0 0.1 0 0 0 0 0 0.1 0 0.1 0c-1.1 2-2.6 3.7-4.3 5.2-1.7 1.6-3.4 3.1-5.3 4.5-3.8 2.9-8 5.3-12.4 7.2-4.5 1.8-9.2 3.1-13.9 3.8-4.4 0.7-9 1-13.4 0.2-4.8-0.9-8.9-3.4-11.8-7.3-0.1-0.1-0.3 0-0.2 0.1 2.3 3.7 5.9 6.1 10 7.3 4.3 1.3 8.9 1.3 13.3 0.8 9.9-1 19.4-4.6 27.5-10.4 2.2-1.6 4.4-3.3 6.3-5.2 1.7-1.8 3.4-3.9 4.5-6.1q0 0 0 0 0 0 0 0 0 0 0 0 0 0 0 0 0 0 0 0 0 0 0.1 0-0.1 0-0.1 0 0.1 0.1 0.1 0.1 0 0 0 0 0 0.1 0 0.1c0.1 0.1 0.1 0.3 0.1 0.3q0 0.1 0 0.1 0 0.2 0.1 0.3c0.3 0.4 0.9 0.1 1.1-0.2 0.2-0.5 0.2-1.1-0.2-1.5z"/><path class="K" d="m199.9 521.5c0.6 6.4 1.6 12.9 3.2 19.2 0.7 2.8 1.5 8.1 4.2 9.8 2.5 1.6 5.6 1.8 8.5 1.5 6.3-0.6 13-1.8 19-4.1 3.3-1.2 6.4-3 9.1-5.3 1.2-0.9 2.3-2 2.8-3.5 0.6-1.5 0.3-3.1 0-4.6-3.3-13.3-6.9-26.8-12.1-39.5-2.8-6.9-5.5-16.4-13.9-18-3-0.6-6.3 0.1-9.1 1.5-3.8 1.8-6.6 4.5-8.5 7.7-6 9.8-4.2 24.4-3.2 35.3z"/><path class="L" d="m246.2 533.7c-0.8-3.3-1.8-6.6-2.9-9.9q-3.1-10-7-19.7c-1.2-3-2.5-5.9-3.7-8.9-0.7-1.7-1.4-3.4-2.1-5.1-1.5-3.6-3.2-7.3-5.8-10.3-0.9-1-1.9-1.9-2.9-2.6 7.5 2.3 10.1 11.2 12.8 17.8 5.2 12.7 8.8 26.2 12.1 39.5 0.2 1.1 0.5 2.4 0.3 3.5q-0.4-2.1-0.8-4.3z"/><path class="M" d="m203.1 540.7c-1.6-6.3-2.6-12.8-3.2-19.2-1-10.9-2.8-25.5 3.2-35.3 1.9-3.2 4.7-5.9 8.5-7.7 2.7-1.3 5.7-2.1 8.7-1.6-1.7 0-3.4 0.5-5 1.2-2.2 1-4.2 2.6-5.3 4.8-1 2.1-1.3 4.4-1.3 6.7 0 2.6 0.3 5.1 0.6 7.7 1 7.9 2.6 15.8 4.4 23.6 0.9 3.9 1.8 7.7 2.9 11.6 1 3.7 2 7.4 3.6 10.9 0.1 0.3 0.6 0.1 0.6-0.2 0.5-3.9 5.8-2.6 8-1.2 0.3 0.2 0.5 0 0.6-0.2 0.1-2 1.2-3.6 3.1-4.2 1.7-0.5 3.7-0.3 5.4 0.3 0.2 0 0.4-0.2 0.4-0.4 0.2-1.1 0.6-2.1 1.7-2.6 1.7-0.9 4.1-0.2 5.7 0.6q0.6 0.2 1.3 0.6c0.1 1 0.1 2.1-0.3 3-0.5 1.5-1.6 2.6-2.8 3.5-2.7 2.3-5.8 4.1-9.1 5.3-6 2.3-12.7 3.5-19 4.1-2.9 0.3-6 0.1-8.5-1.5-2.7-1.7-3.5-7-4.2-9.8z"/><path class="v" d="m240.3 541.5q-0.1-0.4-0.2-0.7c-0.4-1.4-0.6-3.3 0.7-4.3q0.4-0.3 0.8-0.4c1.6-0.4 3.5 0.6 4.8 1.4 1.2 0.9 2.7 2.4 2.4 4.1-0.2 1.4-1.6 2.2-2.8 2.8q-0.5 0.2-1.1 0.3c-0.8 0.2-1.7 0.1-2.5-0.3-1.1-0.6-1.7-1.8-2.1-2.9z"/><path class="w" d="m240.6 536.6c-0.3 1.2 0 2.5 0.5 3.5 0.6 1.2 1.7 2.4 3 2.8 0.7 0.2 1.4 0.1 2.1-0.1 0.6-0.3 1.2-0.6 1.7-1.1 0.6-0.9 0.5-1.9 0-2.8 0.6 0.8 1.1 1.7 0.9 2.7-0.2 1.4-1.6 2.2-2.8 2.8q-0.5 0.2-1.1 0.3c-0.8 0.2-1.7 0.1-2.5-0.3-1.1-0.6-1.7-1.8-2.1-2.9q-0.1-0.4-0.2-0.7c-0.3-1.4-0.5-3.1 0.5-4.2z"/><path class="v" d="m234.3 538.5q0 0 0-0.1c0.4 0 0.8 0 1.2 0.1 2.1 0.3 3.8 1.8 5.1 3.4 0.6 0.7 1.2 1.4 1.5 2.3 0.3 1.3-0.7 2.3-1.7 2.9-1.3 0.9-2.9 1.3-4.4 1.6-1.1 0.1-2.8 0.7-3.6-0.2-1.4-1.5-1.2-4.4-0.8-6.3 0.2-1.2 0.7-2.3 1.6-3.1 0.3-0.3 0.7-0.5 1.1-0.6z"/><path class="w" d="m231.6 542.2c0.2-1.2 0.7-2.3 1.6-3.1q0.1-0.1 0.1-0.1c-0.5 1.1-0.7 2.5-0.5 3.8 0.2 1.4 0.8 2.8 2 3.5 1.5 0.9 3.3 0.4 4.6-0.6 2.1-1.6 1.1-3.9-0.5-5.6q0.9 0.8 1.7 1.8c0.6 0.7 1.2 1.4 1.5 2.3 0.3 1.3-0.7 2.3-1.7 2.9-1.3 0.9-2.9 1.3-4.4 1.6-1.1 0.1-2.8 0.7-3.6-0.2-1.4-1.5-1.2-4.4-0.8-6.3z"/><path class="v" d="m223.6 550.9c-0.6-0.4-1.1-1-1.4-1.7-0.5-1.5-0.5-3.3 0-4.8 0.3-0.8 0.8-1.5 1.6-2 0.9-0.5 2-0.4 3-0.1 1.9 0.5 3.5 1.9 4.6 3.3 1 1.4 1.5 3.3-0.2 4.5-1.1 0.9-2.8 1.2-4.2 1.5q-0.1 0-0.2 0c-1.2 0.1-2.3-0.1-3.2-0.7z"/><path class="w" d="m222.2 544.4c0.3-0.8 0.8-1.5 1.6-2q0.1 0 0.2-0.1c-0.5 0.7-0.8 1.5-0.8 2.4 0 1.6 0.6 3.5 1.9 4.5 0.6 0.5 1.4 0.8 2.2 0.7 0.9-0.1 1.9-0.4 2.6-1.1 1.1-1.2 0.5-3.1-0.3-4.4-0.4-0.6-1-1.2-1.6-1.7 1.4 0.7 2.6 1.8 3.4 2.9 1 1.4 1.5 3.3-0.2 4.5-1.1 0.9-2.8 1.2-4.2 1.5q-0.1 0-0.2 0c-1.2 0.1-2.3-0.1-3.2-0.7-0.6-0.4-1.1-1-1.4-1.7-0.5-1.5-0.5-3.3 0-4.8z"/><path class="x" d="m227.5 513.7c1.5-0.7 3.1-1.2 4.7-1.4 1-0.2 2.1-0.2 3.1 0q-0.6 0.3-1.2 0.5c-1.4 0.7-2.9 1.3-4.5 1.7-1.2 0.3-2.5 0.4-3.7 0q0.7-0.4 1.6-0.8z"/><path class="x" d="m235.3 516.5c-1.9 1.3-4.1 2.2-6.5 2.1 2-1.1 4.3-1.8 6.5-2.1z"/><path class="x" d="m235.3 519.8q-0.8 0.6-1.8 1.1c-0.8 0.4-1.6 0.7-2.5 0.9 1.3-0.9 2.8-1.5 4.3-2z"/><path class="K" d="m185 534.1c-6.1 5.4-20.8 2.2-26.7-0.1-7.3-2.8-7.9-7.5-7.6-14.9 0.5-10.4 2.4-20.2 5.9-30 2-5.7 4.5-12.2 10-15.4 5.3-3.1 11.8-2.8 15.7 2.4 4.3 5.7 4.2 13.6 4.5 20.4 0.3 7.7 2.2 34-1.8 37.6z"/><path class="L" d="m186.9 524.2c0.3-5.3 0.1-10.7-0.1-16-0.3-5.4-0.6-10.8-1.2-16.2-0.5-4.9-1.2-9.8-3.5-14.3-0.9-1.6-2-3-3.5-4.1q-0.9-0.8-2-1.5c2.1 0.6 4.1 1.9 5.7 4 4.3 5.7 4.2 13.6 4.5 20.4 0.3 6.7 1.8 27.3-0.5 35.1q0.4-3.7 0.6-7.4z"/><path class="M" d="m150.7 519.1c0.5-10.4 2.4-20.2 5.9-30 2-5.7 4.5-12.2 10-15.4 5.3-3.1 11.8-2.8 15.7 2.4 1.8 2.3 2.8 5.1 3.4 8-0.9-2.4-2.2-4.8-4.1-6.6-1.7-1.8-4.1-2.9-6.7-2.9-2.6 0-5 1.1-6.8 3-1.8 1.8-3.1 4.2-4 6.6-1 2.6-1.6 5.3-2.2 8.1-1.7 8.1-2.5 16.4-2.6 24.7q0 3 0.1 5.9c0.1 1.1 0 2.2 0.1 3.3 0.1 2.1 0.4 5.2 2.7 6 0.2 0 0.3 0 0.4-0.2 0.8-1.6 1.6-3.6 3.5-4.1 2.1-0.5 4.1 1.1 5 2.9 0.1 0.3 0.5 0.1 0.6-0.1 0.3-0.8 0.7-1.7 1.4-2.1 0.6-0.3 1.2-0.4 1.9-0.2 1.4 0.3 2.8 1.2 3.9 2.2 0.2 0.1 0.5 0.1 0.6-0.2 0.2-0.9 0.6-1.9 1.4-2.3 1.3-0.7 2.9 0.3 3.9 1.1 0.6 0.5 1.2 1.1 1.7 1.7-0.4 1.5-0.9 2.7-1.5 3.2-6.1 5.4-20.8 2.2-26.7-0.1-7.3-2.8-7.9-7.5-7.6-14.9z"/><path class="v" d="m179.6 533.6q0-0.3 0-0.6c0.1-1.2 0.4-2.7 1.6-3.1q0.4-0.2 0.7-0.2c1.4 0.1 2.7 1.4 3.4 2.3 0.8 1 1.6 2.6 1 3.9-0.6 1-1.9 1.3-2.9 1.4q-0.5 0-1 0c-0.7-0.1-1.3-0.3-1.9-0.9-0.6-0.7-0.9-1.8-0.9-2.8z"/><path class="w" d="m181.1 529.9c-0.6 0.8-0.7 1.9-0.5 2.9 0.2 1.1 0.7 2.2 1.6 2.9 0.5 0.3 1.1 0.4 1.7 0.4 0.5 0 1.1-0.1 1.6-0.4 0.7-0.5 0.8-1.4 0.7-2.2 0.3 0.8 0.5 1.6 0.1 2.4-0.6 1-1.9 1.3-2.9 1.4q-0.5 0-1 0c-0.7-0.1-1.3-0.3-1.9-0.9-0.6-0.7-0.9-1.8-0.9-2.8q0-0.3 0-0.6c0.1-1.1 0.4-2.6 1.5-3.1z"/><path class="v" d="m175.6 529.8q0.1 0 0.1 0c0.3 0 0.6 0.1 0.9 0.2 1.5 0.9 2.5 2.5 3.2 4 0.2 0.7 0.5 1.4 0.5 2.2 0 1.1-1.1 1.6-2 1.9-1.3 0.3-2.6 0.3-3.9 0.1-0.8-0.1-2.3-0.1-2.7-1-0.7-1.6 0.1-3.8 0.9-5.2 0.4-0.9 1.1-1.6 2.1-2 0.3-0.2 0.6-0.3 0.9-0.2z"/><path class="w" d="m172.6 532c0.4-0.9 1.1-1.6 2.1-2q0-0.1 0.1-0.1c-0.8 0.8-1.3 1.8-1.4 2.9-0.2 1.1-0.1 2.4 0.7 3.3 0.9 1 2.5 1.1 3.7 0.6 2.1-0.7 1.8-2.8 1-4.5q0.6 0.9 1 1.8c0.2 0.7 0.5 1.4 0.5 2.2 0 1.1-1.1 1.6-2 1.9-1.3 0.3-2.6 0.3-3.9 0.1-0.8-0.1-2.3-0.1-2.7-1-0.7-1.6 0.1-3.8 0.9-5.2z"/><path class="v" d="m164.2 536.9c-0.4-0.5-0.6-1.1-0.7-1.7-0.1-1.3 0.4-2.7 1.2-3.8 0.4-0.5 1-1 1.7-1.1 0.9-0.2 1.7 0.1 2.4 0.6 1.4 0.8 2.3 2.3 2.8 3.7 0.4 1.4 0.4 3-1.3 3.5-1.1 0.4-2.5 0.3-3.6 0.2q-0.1-0.1-0.2-0.1c-0.9-0.2-1.8-0.7-2.3-1.3z"/><path class="w" d="m164.7 531.4c0.4-0.5 1-1 1.7-1.1q0.1-0.1 0.2-0.1c-0.6 0.4-1 1-1.2 1.7-0.4 1.2-0.4 2.8 0.4 4 0.3 0.5 0.8 1 1.5 1.1 0.7 0.2 1.6 0.2 2.3-0.2 1.2-0.7 1.2-2.3 0.9-3.5-0.2-0.6-0.5-1.2-0.8-1.8 0.9 0.9 1.5 2.1 1.9 3.1 0.4 1.4 0.4 3-1.3 3.5-1.1 0.4-2.5 0.3-3.6 0.2q-0.1-0.1-0.2-0.1c-0.9-0.2-1.8-0.7-2.3-1.3-0.4-0.5-0.6-1.1-0.7-1.7-0.1-1.3 0.4-2.7 1.2-3.8z"/><path class="x" d="m176.4 505.8c1.7-0.2 3.3-0.3 5-0.1 1 0.1 2 0.4 3 0.8q-0.7 0.1-1.3 0.2c-1.6 0.3-3.2 0.5-4.8 0.4-1.3 0-2.5-0.2-3.7-0.9q0.9-0.2 1.8-0.4z"/><path class="x" d="m183.3 510.6c-2.2 0.7-4.6 1-6.9 0.3 2.3-0.6 4.6-0.6 6.9-0.3z"/><path class="x" d="m182.3 513.8q-0.9 0.4-1.9 0.5c-0.9 0.2-1.8 0.3-2.7 0.3 1.5-0.5 3.1-0.8 4.6-0.8z"/><path class="K" d="m28.9 468.2c0.3-0.6 0.9-1.1 1.8-1.3 1-0.3 2.1 0 3.2 0.4 9.7 3.1 18 6.3 28.5 5.9 15.5-0.6 30.7-7.8 42.8-17.3 5.3-4.2 10.2-9 14.7-14.1 4.2-4.7 7.4-10.1 12.8-13.4 5.8-3.5 12.4-2.4 16.9 2.5 3.6 4.1 5.9 9.7 7.4 14.8 3.2 11.1 3.7 23.7-0.9 34.4-1.2 2.8-5.6 31.7-37.7 33.4-24.2 1.3-63.2-14.8-80.9-31.4-2.6-2.5-11-9.3-8.6-13.9z"/><path class="N" d="m33.3 477.2q2.4 2.1 4.9 3.9c3.3 2.4 6.7 4.6 10.3 6.5 3.7 2 7.3 4 11 5.7q5.5 2.5 11.2 4.4 5.8 2 11.7 3.3c3.1 0.8 6.3 1.3 9.4 1.9 4.5 0.8 9.2 1.6 13.8 1.5 4-0.1 8.7-0.8 11.2-4.3 1.3-1.8 1.8-4.1 1.7-6.3-0.1-4.4-0.6-8.8-1.2-13.1-0.6-4.4-1.2-8.7-1.4-13.1-0.1-3.5 0-7 0.2-10.5 0.3-3.5 0.7-7.1 1.5-10.5q0.4-1.7 0.9-3.3 0.8-0.7 1.4-1.5c4.2-4.7 7.4-10.1 12.8-13.4 5.8-3.5 12.4-2.4 16.9 2.5 3.6 4.1 5.9 9.7 7.4 14.8 3.2 11.1 3.7 23.7-0.9 34.4-1.2 2.8-5.6 31.7-37.7 33.4-24.2 1.3-63.2-14.8-80.9-31.4-1.5-1.5-5-4.4-7.1-7.4q1.4 1.3 2.9 2.5z"/><path class="L" d="m109.9 454.2c-4.7 5-10.1 9.4-16.1 12.8-6.3 3.6-13.3 6.3-20.4 7.2-4.5 0.5-9 0.4-13.5 0-4.3-0.5-8.7-1.2-12.9-2.5q-1.6-0.6-3.2-1.2c5.9 1.7 11.8 3 18.6 2.7 15.5-0.6 30.7-7.8 42.8-17.3 4.7-3.7 9-7.8 13-12.2-2.5 3.7-5.2 7.2-8.3 10.5z"/><path class="N" d="m34.9 475.3c3.8 3 8.1 5.3 12.5 7.3 4.5 2 9.1 3.6 13.7 5.1 3.9 1.3 7.8 2.4 11.7 3.4 4 1.1 8.2 2.1 12.3 2.8 4.6 0.7 9.3 1.1 13.9 0.4 4.2-0.7 8.2-2.5 10.8-5.9 1.6-2.2 2.4-4.8 3-7.4 0.7-3.5 1-7 1.3-10.5 0.2-3.6 0.3-7.1 0.7-10.7 0.4-3.5 1.2-7 2.2-10.4q1.1-3.6 2.4-7 0.3-0.3 0.5-0.6c4.2-4.7 7.4-10.1 12.8-13.4 5.8-3.5 12.4-2.4 16.9 2.5 3.6 4.1 5.9 9.7 7.4 14.8 3.2 11.1 3.7 23.7-0.9 34.4-1.2 2.8-5.6 31.7-37.7 33.4-24.2 1.3-63.2-14.8-80.9-31.4-2.5-2.4-10.1-8.6-8.9-13.2 1.7 2.5 3.9 4.6 6.3 6.4z"/><path class="K" d="m128.6 501.9c8.7 10.2 21.4 16.8 34.5 18.9 17.5 2.9 38-1 52.3-11.6 22.6-16.9 33.8-50.2 17.8-75.2-5.9-9.3-14.5-16.7-24.1-22.1-12.3-7-26.6-10.9-40.7-9.7-29.7 2.4-48.8 27.4-51.1 55.9-1.2 14.7 1.6 32.3 11.3 43.8z"/><path class="O" d="m123.2 486.9c4.7 3.8 10.2 6.4 15.9 8.1 6.1 1.8 12.4 2.6 18.6 2.6 6.1 0 12.1-0.7 17.9-2.2 6.7-1.9 13-5 18.4-9.4 5.9-4.8 10.5-11 14-17.7 1.8-3.5 3.3-7.1 4.6-10.7 1.3-3.4 2.5-6.8 3.2-10.3 0.5-3 0.9-6 1.6-9 0.6-3.1 1.4-6.2 2.9-9 0.6-1.1 1.4-2.2 2.5-2.9 1.1-0.7 2.3-1.1 3.6-1.1 2.5 2.7 4.8 5.6 6.8 8.7 16 25 4.8 58.3-17.8 75.2-14.3 10.6-34.8 14.5-52.3 11.6-13.1-2.1-25.8-8.7-34.5-18.9-4.4-5.2-7.4-11.7-9.2-18.7q1.7 2 3.8 3.7z"/><path class="P" d="m120.8 485.9c2.1 3.6 4.9 6.7 7.9 9.5 6.1 5.6 13.4 9.7 21.2 12.4 7.3 2.5 15 4.1 22.7 4.4 6.4 0.2 12.9-0.4 19.2-1.9 6.3-1.5 12.4-3.8 18.1-6.8 5.7-3 10.9-6.7 15.6-11.1 4.5-4.3 8.5-9.2 11.5-14.7q1.1-1.9 2-3.9c-2.4 9.6-7.3 18.7-13.8 26.2-0.2-0.1-0.5 0-0.6 0.3 0 0.2-0.1 0.4-0.1 0.6-2.8 3-5.8 5.8-9.1 8.3-14.3 10.6-34.8 14.5-52.3 11.6-13.1-2.1-25.8-8.7-34.5-18.9-4.4-5.2-7.4-11.7-9.2-18.6q0.6 1.3 1.4 2.6z"/><path class="N" d="m234.4 462c-2.3-1.5-4.4-3.1-6.7-4.6-1-0.6-2-1.2-3.1-1.6-0.7-0.3-1.5-0.5-2.3-0.5-2.9-0.4-5.8-0.6-8.7-1.4-3.1-0.9-6-2.1-8.7-3.8-2.5-1.6-3.9-3.9-5.7-6.2-1.3-1.8-2.9-3.2-5.1-3.9-2.3-0.8-4.7-1-7.1-1.2-5.9-0.5-11.8-1.1-17.7-1.2-6.5 0-13.1 0.5-19.5 1.8-5.3 1.1-10.6 2.8-15.2 5.6-2.3 1.4-4.5 3-6.3 4.9-2 2.1-3.6 4.4-5 6.9-2.8 5.2-4.7 10.8-5.8 16.6-0.6-5.2-0.6-10.4-0.2-15.3 2.3-28.5 21.4-53.5 51.1-55.9 14.1-1.2 28.4 2.7 40.7 9.7 9.6 5.4 18.2 12.8 24.1 22.1 6.2 9.6 8.3 20.4 7.3 31-2.2-0.6-4.2-1.8-6.1-3z"/><path class="N" d="m158.9 507.7c1.7-6.1 4.2-12.2 8.1-17.2 1.9-2.3 4.1-4.4 6.6-6 2.7-1.7 5.7-2.8 8.8-3.3 3.4-0.5 7-0.3 10.1 1.4 3.4 1.8 5.8 5 7.4 8.4 1.1 2.1 1.9 4.4 2.5 6.7 0.6 2.2 1 4.4 1.5 6.6 0.5 2.2 1.1 4.4 1.4 6.6 0.2 1.3 0.4 2.7 0.4 4-13 6.2-28.7 8.2-42.6 5.9q-3.2-0.5-6.4-1.4c0.5-3.9 1.2-7.8 2.2-11.7z"/><path class="N" d="m122.9 488.7c1.5-2.6 3.2-5.1 5.2-7.3 1.8-2 3.9-3.7 6.3-4.8 2.1-1 4.6-1.4 6.9-0.7 2.8 0.7 5.3 2.6 7.2 4.8 2.1 2.5 3.3 5.6 4.2 8.7 0.8 3.5 1.2 7 1.4 10.6 0.3 6.2-0.2 12.4-0.2 18.6-9.7-3.2-18.7-8.9-25.3-16.7-2.8-3.3-5-7.2-6.8-11.3q0.6-1 1.1-1.9z"/><path class="K" d="m160.9 521.8c-1.1 6.4-1.9 12.9-2 19.4-0.1 2.9-0.6 8.2 1.5 10.5 2 2.2 4.9 3.3 7.8 3.8 6.3 1 13.1 1.6 19.4 1 3.5-0.4 7-1.2 10.2-2.7 1.4-0.6 2.7-1.4 3.6-2.7 1-1.3 1.2-2.9 1.2-4.4 0.3-13.7 0.5-27.7-1.2-41.3-0.9-7.4-1-17.3-8.7-21.1-2.8-1.4-6.1-1.5-9.1-0.9-4.3 0.8-7.6 2.6-10.3 5.2-8.4 7.8-10.5 22.4-12.4 33.2z"/><path class="L" d="m202.3 545.8c0.2-3.5 0.1-6.9-0.1-10.4q-0.4-10.4-1.6-20.8c-0.4-3.2-0.8-6.4-1.3-9.6-0.2-1.8-0.4-3.6-0.6-5.4-0.5-3.9-1.2-7.9-2.9-11.5-0.6-1.2-1.3-2.3-2.1-3.2 6.7 4.1 6.8 13.4 7.7 20.5 1.7 13.6 1.5 27.6 1.2 41.3 0 1.1-0.1 2.4-0.6 3.4q0.2-2.1 0.3-4.3z"/><path class="M" d="m158.9 541.2c0.1-6.5 0.9-13 2-19.4 1.9-10.8 4-25.4 12.4-33.2 2.7-2.6 6-4.4 10.3-5.2 2.9-0.6 6-0.5 8.7 0.7-1.6-0.4-3.4-0.4-5.1-0.1-2.4 0.3-4.7 1.4-6.4 3.2-1.5 1.7-2.4 3.9-3 6.2-0.7 2.4-1 5-1.4 7.5-1.2 8-1.7 16-2 24-0.1 3.9-0.3 7.9-0.3 11.9 0 3.8 0 7.6 0.6 11.4 0.1 0.4 0.5 0.3 0.7 0 1.4-3.6 6.3-0.9 8 1 0.2 0.3 0.5 0.1 0.6-0.1 0.7-1.8 2.1-3.1 4.1-3.2 1.8 0 3.6 0.7 5.1 1.7 0.3 0.1 0.5 0 0.6-0.2 0.4-1 1.1-1.9 2.2-2.2 2-0.4 4 1 5.4 2.1q0.6 0.5 1.1 1c-0.2 1-0.4 2-1.1 2.8-0.9 1.3-2.2 2.1-3.6 2.7-3.2 1.5-6.7 2.3-10.2 2.7-6.3 0.6-13.1 0-19.4-1-2.9-0.5-5.8-1.6-7.8-3.8-2.1-2.3-1.6-7.6-1.5-10.5z"/><path class="v" d="m194.6 551.7q0-0.4 0-0.7c0-1.5 0.3-3.3 1.8-3.9q0.4-0.2 0.9-0.2c1.6 0 3.2 1.5 4.2 2.6 1 1.2 2.1 3 1.3 4.6-0.6 1.2-2.2 1.7-3.4 1.9q-0.6 0.1-1.2 0.1c-0.8-0.1-1.7-0.4-2.3-1.1-0.9-0.8-1.2-2.1-1.3-3.3z"/><path class="w" d="m196.2 547.1c-0.6 1-0.7 2.4-0.4 3.5 0.2 1.4 0.9 2.7 2.1 3.4 0.6 0.4 1.3 0.5 2 0.5 0.7-0.1 1.4-0.2 2-0.6 0.8-0.6 0.9-1.7 0.7-2.7 0.5 0.9 0.7 2 0.2 2.9-0.6 1.2-2.2 1.7-3.4 1.9q-0.6 0.1-1.2 0.1c-0.8-0.1-1.7-0.4-2.3-1.1-0.9-0.8-1.2-2.1-1.3-3.3q0-0.4 0-0.7c0-1.4 0.3-3.2 1.6-3.9z"/><path class="v" d="m189.6 547.2q0 0 0.1 0c0.3 0 0.7 0.2 1.1 0.3 1.9 0.9 3.1 2.8 4 4.7 0.4 0.8 0.8 1.7 0.8 2.6 0 1.3-1.3 2-2.4 2.4-1.5 0.4-3.1 0.5-4.6 0.3-1.1-0.1-2.9 0-3.4-1.1-1-1.8 0-4.6 0.8-6.3 0.5-1.1 1.3-2.1 2.4-2.6 0.4-0.2 0.8-0.3 1.2-0.3z"/><path class="w" d="m186 550.1c0.5-1.1 1.3-2.1 2.4-2.6q0.1 0 0.2 0c-0.9 0.9-1.4 2.2-1.6 3.5-0.2 1.4 0.1 2.9 1.1 4 1.2 1.2 3.1 1.2 4.5 0.5 2.5-1 2.1-3.4 1-5.5 0.5 0.7 0.9 1.5 1.2 2.2 0.4 0.8 0.8 1.7 0.8 2.6 0 1.3-1.3 2-2.4 2.4-1.5 0.4-3.1 0.5-4.6 0.3-1.1-0.1-2.9 0-3.4-1.1-1-1.8 0-4.6 0.8-6.3z"/><path class="v" d="m176.1 556.4c-0.6-0.6-0.8-1.3-1-2-0.1-1.6 0.4-3.3 1.3-4.6 0.4-0.7 1.1-1.3 2-1.5 1.1-0.3 2.1 0.1 3 0.6 1.7 1 2.9 2.8 3.5 4.5 0.6 1.5 0.7 3.5-1.3 4.3-1.4 0.5-3 0.4-4.5 0.3q-0.1 0-0.2 0c-1.1-0.3-2.1-0.8-2.8-1.6z"/><path class="w" d="m176.4 549.8c0.4-0.7 1.1-1.3 2-1.5q0.1 0 0.2-0.1c-0.6 0.5-1.1 1.3-1.3 2.1-0.5 1.5-0.4 3.5 0.6 4.9 0.5 0.6 1.1 1.1 1.9 1.2 0.9 0.2 2 0.2 2.8-0.3 1.5-1 1.4-2.9 0.9-4.4-0.2-0.7-0.6-1.4-1.1-2 1.2 1 2 2.3 2.5 3.7 0.6 1.5 0.7 3.5-1.3 4.3-1.4 0.5-3 0.4-4.5 0.3q-0.1 0-0.2 0c-1.1-0.3-2.1-0.8-2.8-1.6-0.6-0.6-0.8-1.3-1-2-0.1-1.6 0.4-3.3 1.3-4.6z"/><path class="x" d="m189.6 521.5c1.6-0.2 3.3-0.3 4.9-0.1 1 0.1 2.1 0.4 3 0.8q-0.6 0.1-1.3 0.3c-1.6 0.2-3.2 0.4-4.8 0.4-1.2-0.1-2.5-0.3-3.6-1q0.9-0.2 1.8-0.4z"/><path class="x" d="m196.4 526.3c-2.2 0.8-4.6 1-6.8 0.3 2.2-0.5 4.5-0.6 6.8-0.3z"/><path class="x" d="m195.5 529.5q-1 0.4-2 0.6c-0.9 0.1-1.8 0.2-2.7 0.2 1.5-0.5 3.1-0.8 4.7-0.8z"/><path class="K" d="m150.8 541.8c-6 5.4-20.7 2.1-26.6-0.1-7.4-2.8-8-7.6-7.6-14.9 0.5-10.4 2.4-20.3 5.8-30 2-5.8 4.5-12.3 10.1-15.5 5.3-3 11.8-2.7 15.7 2.4 4.3 5.8 4.1 13.6 4.5 20.5 0.3 7.7 2.2 33.9-1.9 37.6z"/><path class="L" d="m152.8 531.9c0.2-5.4 0-10.7-0.2-16.1-0.2-5.4-0.5-10.8-1.1-16.2-0.5-4.9-1.2-9.8-3.5-14.2-0.9-1.6-2.1-3-3.5-4.2q-1-0.8-2.1-1.4c2.2 0.5 4.2 1.8 5.8 3.9 4.3 5.8 4.1 13.6 4.5 20.5 0.3 6.7 1.7 27.3-0.6 35q0.5-3.6 0.7-7.3z"/><path class="M" d="m116.6 526.8c0.5-10.4 2.4-20.3 5.8-30 2-5.8 4.5-12.3 10.1-15.5 5.3-3 11.8-2.7 15.7 2.4 1.7 2.4 2.8 5.1 3.4 8-1-2.4-2.2-4.8-4.1-6.6-1.8-1.8-4.1-2.9-6.7-2.8-2.6 0-5 1.1-6.8 2.9-1.9 1.9-3.1 4.3-4 6.7-1 2.6-1.6 5.3-2.2 8-1.7 8.1-2.5 16.4-2.6 24.7q0 3 0.1 6c0 1.1 0 2.2 0.1 3.3 0.1 2.1 0.3 5.1 2.7 6 0.1 0 0.3-0.1 0.4-0.2 0.8-1.6 1.6-3.6 3.5-4.1 2.1-0.6 4.1 1 4.9 2.8 0.2 0.3 0.6 0.2 0.7-0.1 0.2-0.8 0.6-1.6 1.4-2.1 0.5-0.3 1.2-0.3 1.8-0.2 1.5 0.3 2.8 1.3 4 2.2 0.2 0.2 0.5 0.1 0.5-0.1 0.3-0.9 0.6-1.9 1.5-2.4 1.3-0.6 2.9 0.3 3.9 1.1 0.6 0.5 1.1 1.1 1.6 1.8-0.4 1.5-0.8 2.6-1.5 3.2-6 5.4-20.7 2.1-26.6-0.1-7.4-2.8-8-7.6-7.6-14.9z"/><path class="v" d="m145.5 541.3q0-0.3 0-0.6c0.1-1.2 0.4-2.7 1.6-3.2q0.3-0.1 0.7-0.1c1.4 0.1 2.6 1.3 3.4 2.3 0.8 1 1.6 2.6 0.9 3.8-0.5 1-1.8 1.3-2.9 1.5q-0.5 0-0.9 0c-0.7-0.1-1.4-0.4-1.9-0.9-0.7-0.8-0.9-1.8-0.9-2.8z"/><path class="w" d="m146.9 537.6c-0.5 0.8-0.6 1.9-0.5 2.8 0.2 1.1 0.7 2.3 1.7 2.9 0.5 0.3 1 0.4 1.6 0.4 0.6 0 1.2-0.1 1.6-0.4 0.8-0.5 0.9-1.4 0.8-2.2 0.3 0.8 0.4 1.7 0 2.4-0.5 1-1.8 1.3-2.9 1.5q-0.5 0-0.9 0c-0.7-0.1-1.4-0.4-1.9-0.9-0.7-0.8-0.9-1.8-0.9-2.8q0-0.3 0-0.6c0-1.2 0.3-2.6 1.4-3.1z"/><path class="v" d="m141.5 537.4q0 0 0 0c0.4 0 0.6 0.2 0.9 0.3 1.6 0.8 2.6 2.4 3.2 4 0.3 0.7 0.6 1.4 0.6 2.1-0.1 1.1-1.2 1.7-2.1 1.9-1.2 0.4-2.6 0.3-3.8 0.1-0.9-0.1-2.4 0-2.8-1-0.7-1.5 0.2-3.8 0.9-5.1 0.5-0.9 1.2-1.7 2.1-2.1 0.3-0.1 0.7-0.2 1-0.2z"/><path class="w" d="m138.4 539.7c0.5-0.9 1.2-1.7 2.1-2.1q0.1 0 0.1 0c-0.7 0.7-1.2 1.8-1.4 2.8-0.2 1.2 0 2.5 0.8 3.3 0.9 1 2.5 1.1 3.7 0.7 2-0.8 1.8-2.8 1-4.6q0.5 0.9 0.9 1.9c0.3 0.7 0.6 1.4 0.6 2.1-0.1 1.1-1.2 1.7-2.1 1.9-1.2 0.4-2.6 0.3-3.8 0.1-0.9-0.1-2.4 0-2.8-1-0.7-1.5 0.2-3.8 0.9-5.1z"/><path class="v" d="m130 544.5c-0.4-0.5-0.6-1.1-0.6-1.6-0.1-1.4 0.3-2.8 1.1-3.8 0.4-0.6 1-1 1.8-1.2 0.8-0.2 1.7 0.2 2.4 0.6 1.3 0.9 2.3 2.4 2.7 3.8 0.5 1.3 0.5 3-1.2 3.5-1.1 0.4-2.5 0.3-3.7 0.1q-0.1 0-0.2 0c-0.9-0.3-1.7-0.7-2.3-1.4z"/><path class="w" d="m130.5 539.1c0.4-0.6 1-1 1.8-1.2q0.1 0 0.1 0c-0.5 0.4-0.9 1-1.1 1.6-0.5 1.3-0.4 2.9 0.3 4 0.4 0.6 0.9 1 1.5 1.2 0.8 0.1 1.7 0.1 2.3-0.3 1.3-0.7 1.3-2.3 0.9-3.5-0.1-0.6-0.4-1.2-0.8-1.7 0.9 0.9 1.6 2 1.9 3.1 0.5 1.3 0.5 3-1.2 3.5-1.1 0.4-2.5 0.3-3.7 0.1q-0.1 0-0.2 0c-0.9-0.3-1.7-0.7-2.3-1.4-0.4-0.5-0.6-1.1-0.6-1.6-0.1-1.4 0.3-2.8 1.1-3.8z"/><path class="x" d="m142.3 513.5c1.6-0.3 3.3-0.3 4.9-0.1 1 0.1 2.1 0.3 3 0.8q-0.6 0.1-1.3 0.2c-1.5 0.2-3.1 0.5-4.7 0.4-1.3-0.1-2.6-0.3-3.7-1q0.9-0.2 1.8-0.3z"/><path class="x" d="m149.1 518.3c-2.2 0.7-4.6 0.9-6.8 0.2 2.2-0.5 4.6-0.5 6.8-0.2z"/><path class="x" d="m148.2 521.4q-0.9 0.4-1.9 0.6c-0.9 0.2-1.8 0.2-2.7 0.2 1.4-0.5 3-0.7 4.6-0.8z"/><path class="O" d="m302.8 392.6c0.2 1.2 0.5 2.4 0.6 3.6 0.1 1.4 0.2 2.8 0.8 4 2.7 5.1 14.2-4.8 16.7-6.8 1.5-1.2 4.5-4.5 2.1-6.3-2.5-1.9-8.2-1.8-11.2-1.9q-1-0.1-2 0c-4.2 0.3-7.7 2.4-7 7.4z"/><path class="O" d="m295.2 378.3c0.7 1 1.4 2 2 3.1 0.7 1.1 1.4 2.4 2.5 3.2 4.5 3.6 10.9-10.2 12.3-13.1 0.9-1.7 2.2-6-0.7-6.6-3.1-0.7-8.3 1.8-11.1 2.9q-0.9 0.4-1.7 0.9c-3.7 2-6.1 5.4-3.3 9.6z"/><path class="O" d="m278.9 364.4c1 0.7 2 1.4 2.9 2.2 1 0.9 2.1 1.9 3.4 2.3 5.4 1.9 6.9-13.2 7.4-16.4 0.2-1.9 0.1-6.4-2.8-6-3.2 0.4-7.3 4.4-9.5 6.3q-0.8 0.7-1.4 1.4c-2.9 3.2-4 7.1 0 10.2z"/><path class="O" d="m262.5 354.7c1.1 0.5 2.2 1 3.3 1.6 1.2 0.6 2.4 1.4 3.8 1.6 5.7 0.7 4.1-14.4 3.9-17.7-0.2-1.9-1.2-6.2-4-5.3-3 1.1-6.3 5.8-8 8.2q-0.6 0.8-1.1 1.6c-2.1 3.7-2.4 7.8 2.1 10z"/><path class="O" d="m237 347.3c1.2 0.3 2.5 0.4 3.7 0.7 1.3 0.4 2.7 0.8 4 0.6 5.7-0.9 0.2-15-0.9-18.1-0.6-1.8-2.8-5.7-5.2-4-2.7 1.8-4.5 7.2-5.6 10q-0.4 0.9-0.6 1.8c-1.1 4.1-0.3 8.1 4.6 9z"/><path class="O" d="m210.3 351.1c1.2-0.3 2.4-0.6 3.6-0.8 1.3-0.3 2.7-0.5 3.9-1.2 4.9-3.1-5.9-13.7-8.2-16.1-1.3-1.4-4.8-4.1-6.4-1.6-1.7 2.7-1.2 8.4-1 11.4q0 1 0.2 2c0.6 4.1 3 7.5 7.9 6.3z"/><path class="O" d="m183.9 362.5c1.1-0.7 2-1.5 3.1-2.2 1.1-0.7 2.3-1.4 3.1-2.5 3.3-4.7-10.8-10.4-13.7-11.7-1.8-0.8-6.1-2-6.6 1-0.5 3.1 2.2 8.2 3.5 10.9q0.4 0.9 0.9 1.7c2.2 3.6 5.7 5.8 9.7 2.8z"/><path class="O" d="m166.7 378.8c0.5-1.1 1-2.3 1.6-3.3 0.7-1.2 1.4-2.4 1.6-3.8 0.7-5.7-14.4-4.1-17.6-3.9-1.9 0.1-6.3 1.2-5.3 4 1 3 5.7 6.2 8.1 8q0.8 0.6 1.7 1.1c3.6 2.1 7.7 2.4 9.9-2.1z"/><path class="O" d="m159.8 400.4c0.2-1.3 0.3-2.5 0.5-3.7 0.3-1.3 0.6-2.8 0.3-4.1-1.1-5.7-14.9 0.6-17.9 1.8-1.8 0.7-5.6 3-3.8 5.4 1.9 2.6 7.4 4.2 10.2 5.1q1 0.3 1.9 0.5c4.2 0.9 8.1-0.1 8.8-5z"/><path class="O" d="m157.5 423.3c0.2-1.2 0.3-2.5 0.5-3.7 0.3-1.3 0.6-2.7 0.4-4.1-1.1-5.6-15 0.6-18 1.8-1.8 0.8-5.6 3.1-3.8 5.5 1.9 2.5 7.4 4.1 10.3 5q0.9 0.4 1.9 0.6c4.1 0.8 8.1-0.1 8.7-5.1z"/><g style="mix-blend-mode:multiply"><path class="O" d="m309.8 385.2q1-0.1 2 0c2.8 0.1 8 0 10.7 1.6q-0.7 0-1.4 0c-1.8 0-3.7 0.2-5.6 0.6-1.4 0.4-3 1-3.9 2.3-0.4 0.5-0.6 1.3-0.5 1.9 0 1.1 0.9 1.9 1.6 2.7 0.4 0.4 0.8 0.9 1.2 1.4 0.3 0.6 0.5 1.2 0.7 1.8q0 0.3 0.1 0.7c-4.1 2.8-8.9 5.1-10.5 2-0.6-1.2-0.7-2.6-0.8-4-0.1-1.2-0.4-2.4-0.6-3.6-0.7-5 2.8-7.1 7-7.4z"/><path class="O" d="m298.5 368.7q0.8-0.5 1.7-0.9c2.8-1.1 7.9-3.5 11-2.9q-0.7 0.3-1.3 0.7c-1.5 0.8-3 1.7-4.3 2.8-0.8 0.7-1.9 1.8-1.8 3.1 0.1 0.7 0.5 1.2 1 1.6 0.8 0.6 1.6 1 2.3 1.7 0.9 0.7 1.3 1.9 1.6 3q0 0 0 0c-2.7 4.5-6.2 9-9 6.8-1.1-0.8-1.8-2.1-2.5-3.2-0.6-1.1-1.3-2.1-2-3.1-2.8-4.2-0.4-7.6 3.3-9.6z"/><path class="O" d="m278.9 354.2q0.6-0.7 1.4-1.4c2.2-1.9 6.3-5.9 9.5-6.3q0.7-0.1 1.2 0.1-1 1-1.9 2c-1.1 1.4-2.3 3-2.8 4.7-0.1 0.8-0.2 1.6 0 2.3 0.3 0.7 0.7 1.3 1.1 1.9 1.1 1.3 2.4 2.4 3.4 3.7q0.1 0.2 0.2 0.4c-1.1 4.3-2.9 8.4-5.8 7.3-1.3-0.4-2.4-1.4-3.4-2.3-0.9-0.8-1.9-1.5-2.9-2.2-4-3.1-2.9-7 0-10.2z"/><path class="O" d="m260.4 344.7q0.5-0.8 1.1-1.6c1.7-2.4 5-7.1 8-8.2 0.7-0.2 1.2-0.1 1.7 0.2-0.6 1.3-1.2 2.7-1.8 4.1-0.7 1.8-1.4 3.8-1.5 5.8-0.1 1.7 0.2 3.7 1.3 5.1 0.9 1.1 2.2 1.8 3.4 2.5q0.4 0.3 0.8 0.6c-0.5 2.8-1.6 4.9-3.8 4.7-1.4-0.2-2.6-1-3.8-1.6-1.1-0.6-2.2-1.1-3.3-1.6-4.5-2.2-4.2-6.3-2.1-10z"/><path class="O" d="m232.4 338.3q0.2-0.9 0.6-1.8c1.1-2.8 2.9-8.2 5.6-10q0.6-0.4 1.2-0.4c0.1 0.7 0.1 1.4 0 2.1 0 1.6-0.2 3.2-0.2 4.8-0.1 1.4-0.1 2.9 0.3 4.3 0.4 1.3 1.5 2.4 2.9 2.6 0.9 0.1 1.8 0 2.6-0.2q0.6-0.1 1.2-0.2c1 4.4 1.2 8.6-1.9 9.1-1.3 0.2-2.7-0.2-4-0.6-1.2-0.3-2.5-0.4-3.7-0.7-4.9-0.9-5.7-4.9-4.6-9z"/><path class="O" d="m203.2 331.4c0.5-0.7 1.1-1 1.8-1 0.2 0.9 0.4 1.7 0.7 2.6 0.4 1.6 0.8 3.2 1.5 4.7 0.5 1.1 1.3 2.3 2.5 2.8 1.3 0.5 2.5-0.3 3.5-1.1 0.3-0.2 0.8-0.7 1.3-1 3.3 3.9 6.3 8.8 3.3 10.7-1.2 0.7-2.6 0.9-3.9 1.2-1.2 0.2-2.4 0.5-3.6 0.8-4.9 1.2-7.3-2.2-7.9-6.3q-0.2-1-0.2-2c-0.2-3-0.7-8.7 1-11.4z"/><path class="O" d="m170.7 345.7q0.7 1.1 1.5 2.2c1.1 1.6 2.3 3.2 3.8 4.5 1 1 2.5 2.2 4 2.1 1.7-0.1 2.8-1.6 3.5-2.9q0.5-0.8 0.8-1.7c4.1 2.3 7.7 5.2 5.8 7.9-0.8 1.1-2 1.8-3.1 2.5-1.1 0.7-2 1.5-3.1 2.2-4 3-7.5 0.8-9.7-2.8q-0.5-0.8-0.9-1.7c-1.3-2.7-4-7.8-3.5-10.9 0.1-0.7 0.4-1.1 0.9-1.4z"/><path class="O" d="m148.3 371.3c1.2 0.9 2.6 1.8 4.1 2.4 1.2 0.5 2.7 0.8 3.9 0.1 1.4-0.6 1.6-2.2 1.8-3.6 0.2-0.9 0.2-1.8 0.4-2.7 5.4-0.2 11.9 0.4 11.4 4.2-0.2 1.4-0.9 2.6-1.6 3.8-0.6 1-1.1 2.2-1.6 3.3-2.2 4.5-6.3 4.2-9.9 2.1q-0.9-0.5-1.7-1.1c-2.4-1.8-7.1-5-8.1-8-0.2-0.6-0.2-1.1 0-1.6q0.6 0.5 1.3 1.1z"/><path class="O" d="m141.2 398.6c2.3 0.2 5.4 0.2 7-1.8 1.1-1.5 1.2-3.2 1.3-5 4.8-1.6 10.5-2.7 11.1 0.8 0.3 1.3 0 2.8-0.3 4.1-0.2 1.2-0.3 2.4-0.5 3.7-0.7 4.9-4.6 5.9-8.8 5q-0.9-0.2-1.9-0.5c-2.8-0.9-8.3-2.5-10.2-5.1-0.5-0.6-0.6-1.3-0.4-1.9 0.9 0.3 1.8 0.5 2.7 0.7z"/><path class="O" d="m138.6 422.8c1.6 0.3 3.1 0.3 4.7 0.1 1.2-0.2 2.5-0.5 3.5-1.3 1.1-1.1 1.2-2.9 1.1-4.4q-0.2-1.3-0.5-2.5c4.8-1.6 10.3-2.6 11 0.8 0.2 1.4-0.1 2.8-0.4 4.1-0.2 1.2-0.3 2.5-0.5 3.7-0.6 5-4.6 5.9-8.7 5.1q-1-0.2-1.9-0.6c-2.9-0.9-8.4-2.5-10.3-5q-0.2-0.3-0.3-0.5c0.8 0.3 1.6 0.4 2.3 0.5z"/></g><path class="K" d="m150 416.1c0.6 1.6 0.7 3.2 0.3 4.9-0.7 3-2.3 5.8-1.5 9 2.3 9.2 14 6.3 20.5 5.6 10.6-1.1 21.5-1.2 32 1.3 3.8 0.9 7.5 2.3 11.3 3.7 3.6 1.3 7.3 2.6 11 3.3 3.6 0.8 7.4 1.1 11 1.2 7.3 0.3 14.6-0.4 21.6-2.6q5.1-1.6 9.8-4.2c2.3-1.3 4.6-2.6 6.7-4.3 2.2-1.5 4.2-3.4 5.6-5.8 1.3-2.3 1.6-4.9 0.9-7.4q-0.1-0.1-0.1-0.2 0.3-1.1 0.9-2.1c1.2-2.5 2.8-4.9 5-6.6 2-1.7 4.4-2.8 6.8-3.8 2.7-1.2 5.5-2.1 8.3-2.8 2.2-0.7 4.5-1.1 6.8-1.7 1.7-0.5 3.8-1.1 4.9-2.6 1.4-1.9 0.9-4.1-0.2-5.9-1.1-1.9-2.9-3.3-3.9-5.3-0.9-1.8-0.7-3.9-0.6-5.9 0.1-2.3-0.2-4.5-1.2-6.6-1-1.9-2.6-3.7-4.5-4.7-1.9-1-4.1-1.1-6.2-1.6-1-0.2-2.1-0.5-2.9-1.2-0.9-0.7-1.4-1.7-1.8-2.8-0.8-2.2-1-4.5-2.1-6.6-1-2-2.8-3.5-4.7-4.4-2-1-4.2-1.4-6.4-1.5-2.3 0-4.7-0.1-6.9-1.1-2.2-1.1-3.5-3.2-4.9-5.2-1.2-1.7-2.3-3.4-3.9-4.8-1.9-1.6-4.2-2.8-6.6-3.4-2.1-0.6-4.2-0.5-6.4-0.1-2.3 0.5-4.6 1.1-7 1.2-2.6 0-5-0.9-7.4-1.9-4.5-1.8-9.2-3.7-14.2-2.3-2.4 0.7-4.1 2.2-5.7 4-0.8 0.9-1.6 1.9-2.6 2.7-1 0.8-2.2 1.3-3.5 1.6-4.9 1.2-10.1-0.6-15.1 0.1-2.2 0.4-4.3 1.2-6 2.7-1.5 1.4-2.6 3-3.8 4.6-1.2 1.7-2.5 3.4-4.2 4.7-1.5 1.2-3.4 1.9-5.2 2.4-3.4 0.9-7.2 1.3-10.2 3.3-1.4 1-2.5 2.5-3.2 4.1-0.9 2.2-0.8 4.5-0.7 6.8 0.1 2.4-0.1 4.7-1.8 6.6-1.2 1.6-2.9 2.9-4.3 4.3-1.3 1.2-2.5 2.5-3.1 4.1-0.3 0.9-0.4 1.9-0.3 2.8q-0.1 0 0 0.2 0 0.1 0 0.2c0.2 0.9 0.4 1.8 0.8 2.6q0.1 0.2 0.3 0.3 0.2 0.9 0.3 1.7c0.3 1.5 0.1 2.9-0.7 4.2-0.6 1.2-1.6 2.1-2.3 3.2-0.8 1-1.4 2.1-1.5 3.4-0.2 1.5 0.3 3.1 0.9 4.5 0.6 1.4 1.4 2.7 1.9 4.1z"/><path class="Q" d="m161.9 417.1c0.2-0.5 0.4-0.9 0.8-1.1 0.6-0.3 1.2-0.4 1.8-0.2 0.4 0.1 0.7 0.3 1 0.5 0.4 0.2 0.6 0.5 0.8 0.8 0.3 0.4 0.4 0.8 0.5 1.3q0 0.3-0.1 0.7 0 0.3 0 0.5c-0.1 0.5-0.2 0.9-0.4 1.2-0.4 0.5-1.1 0.7-1.7 0.5-0.9-0.2-1.6-0.9-2.2-1.6-0.3-0.4-0.5-0.9-0.5-1.4-0.1-0.4-0.1-0.9 0-1.2z"/><path class="Q" d="m169.5 398.3c0.3-0.8 0.8-1.6 1.5-2.1 1.2-0.8 2.9-0.8 4.2-0.1 1.3 0.7 2.5 1.9 2.6 3.4q0.1 0.6-0.1 1.1 0 0.2 0 0.3c-0.3 1.6-1.9 2.5-3.4 2.5-0.8-0.1-1.7-0.3-2.4-0.7-0.8-0.4-1.6-1.1-2-1.9-0.4-0.8-0.7-1.7-0.4-2.5z"/><path class="Q" d="m172 370.4q0 0 0 0 0-0.5 0.2-1c0.3-0.4 0.8-0.8 1.3-0.9q0 0 0.1 0 0.2-0.1 0.4-0.1c0.7-0.1 1.3 0.1 1.9 0.4 0.8 0.2 1.4 0.7 1.9 1.3 0.5 0.7 0.8 1.5 0.6 2.3-0.2 0.7-0.7 1.2-1.3 1.5-1.7 0.8-3.9 0.1-4.8-1.6-0.3-0.6-0.4-1.2-0.3-1.9z"/><path class="Q" d="m169 377.1c0.5 0 1 0.3 1.2 0.8 0.1 0.4-0.2 0.8-0.6 0.8-0.5 0-1-0.3-1.1-0.8-0.2-0.4 0.1-0.8 0.5-0.8z"/><path class="Q" d="m184.9 385.4c0.1-0.4 0.4-0.8 0.8-1.1q0.2-0.1 0.4-0.2 0.1 0 0.2 0 0.3-0.1 0.5-0.1 0.3 0 0.6 0.1 0.2 0.1 0.5 0.2 0.1 0 0.2 0.1 0.3 0.1 0.4 0.3 0.4 0.2 0.6 0.6 0 0 0 0 0.1 0.1 0.2 0.2c0.1 0.2 0.2 0.4 0.2 0.6q0 0.2-0.1 0.3 0 0.3 0 0.6c-0.2 0.3-0.3 0.4-0.5 0.6-0.2 0.2-0.4 0.3-0.6 0.4q-0.2 0-0.5 0-0.1 0.1-0.3 0.1 0 0 0 0 0 0 0 0-0.4 0-0.8-0.2-0.2 0-0.3-0.1-0.3-0.1-0.6-0.3-0.1-0.1-0.3-0.3 0 0-0.1 0c-0.1-0.2-0.2-0.4-0.3-0.6-0.1-0.2-0.2-0.3-0.2-0.6q0-0.1 0-0.2 0-0.2 0-0.4z"/><path class="Q" d="m157.3 412.3c0.1-0.2 0.2-0.3 0.3-0.4q0 0 0 0 0.1-0.1 0.2-0.1 0-0.1 0.1-0.2 0.2-0.1 0.4 0 0.1 0 0.2 0 0.1 0 0.1 0.1 0.1 0 0.1 0 0.2 0.1 0.3 0.1 0.1 0.1 0.2 0.2 0 0.1 0.1 0.2 0 0 0 0 0.2 0.2 0.2 0.4 0.1 0.1 0.1 0.1 0 0.2 0 0.4 0 0 0 0.1-0.1 0-0.1 0.1 0 0.1-0.1 0.2-0.1 0.2-0.4 0.2-0.1 0.1-0.3 0.1-0.3 0-0.5-0.1-0.2-0.1-0.4-0.3-0.2-0.1-0.3-0.3-0.2-0.3-0.2-0.5c0-0.1 0-0.2 0-0.3z"/><path class="Q" d="m174.3 425.9q0.1-0.3 0.3-0.5c0.2-0.2 0.4-0.4 0.6-0.5 0.6-0.3 1.2-0.4 1.7-0.2 0.6 0.1 1.2 0.4 1.6 0.9q0.1 0.1 0.1 0.1 0.3 0.3 0.6 0.5c0.3 0.5 0.7 1 0.8 1.5 0.2 0.5 0.2 1.1 0 1.6-0.1 0.4-0.3 0.6-0.6 0.8-0.2 0.2-0.5 0.4-0.8 0.5-0.4 0.2-1 0.2-1.4 0.1q-0.4 0-0.8-0.2-0.4-0.2-0.7-0.4c-0.9-0.7-1.6-1.7-1.7-2.8 0-0.5 0.1-1 0.3-1.4z"/><path class="Q" d="m202.6 366.5c1.1 0.4 2.4 0.1 3.5-0.4 0.8-0.4 1.5-1.1 1.7-2q0.1-0.7 0-1.4 0.2-0.6 0.2-1.1c0-1-0.7-1.9-1.4-2.5-1-0.7-2.3-1.1-3.5-1.2-1.1-0.1-2.1 0.3-2.9 1.1-0.6 0.6-0.9 1.5-1 2.3-0.2 2.3 1.1 4.6 3.4 5.2z"/><path class="Q" d="m202.1 363.4q0 0 0 0 0 0-0.1 0 0 0 0 0 0 0 0.1 0z"/><path class="Q" d="m202.5 363.3q0-0.1 0-0.1 0 0 0 0 0 0.1 0 0.1z"/><path class="Q" d="m222.3 351q0.1-0.3 0.1-0.5 0 0 0.1-0.1 0 0 0 0 0 0 0 0 0-0.1 0-0.1 0.1-0.2 0.3-0.3 0.2-0.2 0.4-0.2 0 0 0 0 0.1-0.1 0.4-0.2-0.1 0-0.2 0.1 0.1-0.1 0.3-0.2 0.2 0 0.4 0 0.3 0.1 0.5 0.3 0.2 0.1 0.3 0.2 0.1 0.1 0.2 0.3 0.1 0.1 0.1 0.2 0.2 0.3 0.3 0.6 0.1 0.3 0.1 0.6 0 0.3-0.1 0.6 0 0.1-0.1 0.3-0.1 0.1-0.3 0.2-0.1 0.1-0.2 0.1-0.2 0-0.4 0-0.3-0.1-0.5-0.1-0.3-0.1-0.5-0.2-0.3-0.1-0.6-0.3-0.1-0.1-0.2-0.2-0.2-0.2-0.3-0.4-0.1-0.2-0.1-0.3-0.1-0.2 0-0.4z"/><path class="Q" d="m242.9 351.1c0.6-0.9 1.6-1.6 2.6-1.9 2.1-0.7 4.3 0.5 5.4 2.3q0.1 0 0.1 0 0.1 0.2 0.3 0.3c0.7 0.8 1 1.8 0.9 2.8-0.2 1.2-0.9 2.4-1.7 3.1-0.9 0.8-2.1 1-3.2 0.8-1.2-0.1-2.3-0.7-3.2-1.5-0.8-0.7-1.4-1.7-1.7-2.7-0.3-1.1-0.2-2.2 0.5-3.2z"/><path class="Q" d="m245.6 363q0-0.1 0.1-0.2 0-0.1 0.1-0.2 0.1-0.1 0.3-0.2 0 0 0 0 0 0 0 0c0.1 0 0.3 0 0.3 0q0.3 0 0.6 0.1 0.1 0.1 0.3 0.2 0.2 0.1 0.3 0.3 0.2 0.2 0.3 0.4 0 0.1 0 0.2 0 0.2-0.1 0.4 0 0.1-0.1 0.2-0.1 0.2-0.3 0.2-0.1 0-0.3 0-0.3 0-0.6-0.1 0 0 0 0-0.1 0-0.2-0.1-0.1 0-0.2-0.1-0.1-0.1-0.2-0.2-0.1-0.1-0.1-0.2-0.1-0.1-0.1-0.1-0.1-0.1-0.1-0.3 0-0.1 0-0.3z"/><path class="Q" d="m271.5 360.7c0.4-0.6 0.9-1 1.6-1.2 0.6-0.2 1.2-0.2 1.8 0q1.2 0.3 2.1 1.1c0.4 0.4 0.8 0.9 0.9 1.5 0.1 0.4 0.2 0.7 0.1 1.1 0 0.3-0.2 0.6-0.3 0.9-0.1 0.3-0.4 0.5-0.6 0.7q-0.3 0.3-0.7 0.5-0.6 0.5-1.2 0.7c-1.5 0.5-3.1-0.2-4-1.5-0.3-0.5-0.5-1.2-0.5-1.8 0-0.7 0.3-1.4 0.8-2z"/><path class="Q" d="m286.9 376.6q0 0 0-0.1 0 0 0 0c0-0.1 0.1-0.3 0.2-0.3q0.1-0.2 0.3-0.3 0.1 0 0.2 0 0.1-0.1 0.2-0.1 0.1-0.1 0.3-0.2 0.3 0 0.6 0 0.1 0.1 0.1 0.1 0.1-0.1 0.1-0.1 0.1-0.1 0.2-0.1 0.2 0 0.3 0 0.3 0.1 0.5 0.2c0.1 0.2 0.2 0.3 0.3 0.4q0.1 0.1 0.1 0.2 0.1 0.2 0.2 0.4 0.1 0.3 0.2 0.6 0 0.2-0.1 0.5-0.1 0.2-0.2 0.4-0.2 0.1-0.3 0.3-0.1 0-0.1 0 0 0 0 0-0.1 0-0.1 0.1c-0.2 0.1-0.4 0.1-0.7 0.1q-0.4 0-0.7-0.1-0.1 0-0.1 0-0.3-0.1-0.6-0.2-0.3-0.2-0.5-0.4-0.1-0.1-0.2-0.3-0.2-0.3-0.2-0.6 0-0.1 0-0.1 0-0.2 0-0.4z"/><path class="Q" d="m294.1 383.9c0.8-0.6 1.9-0.8 2.9-0.5 1.3 0.3 2.3 1.3 2.6 2.5 0.3 0.8 0.3 1.7-0.1 2.4-0.3 0.5-0.8 0.9-1.4 1.1-0.5 0.2-1.2 0.2-1.8 0-1.3-0.3-2.6-1.2-3.1-2.5-0.4-1.1-0.1-2.4 0.9-3z"/><path class="Q" d="m297.3 399.5q0-0.1 0.1-0.3 0 0 0 0 0.2-0.2 0.4-0.3 0.1 0 0.3 0 0.1 0 0.2 0 0.1 0 0.1 0 0.1 0 0.3 0.1 0.1 0.1 0.3 0.2 0.2 0.1 0.4 0.4 0 0 0 0c0 0.1 0.1 0.2 0.1 0.3 0 0 0.1 0.2 0.1 0.3q0 0 0 0 0 0.1 0 0.2-0.1 0.2-0.2 0.3-0.1 0.1-0.2 0.1-0.1 0.1-0.2 0.1 0 0-0.1 0-0.1 0.2-0.3 0.2-0.1 0-0.2 0-0.1 0-0.2-0.1-0.2-0.1-0.3-0.3-0.1-0.1-0.1-0.2-0.1-0.1-0.2-0.3-0.1-0.1-0.1-0.1 0 0-0.1-0.1-0.1-0.1-0.1-0.3 0-0.1 0-0.2z"/><path class="Q" d="m282.6 390.9c0 0 0.1-0.2 0.1-0.3q0 0 0 0c0.2-0.2 0.2-0.2 0.5-0.3 0.1-0.1 0.4 0 0.6 0 0.2 0 0.4 0.1 0.6 0.3q0.1 0.1 0.3 0.2c0.2 0.2 0.2 0.4 0.3 0.6q0 0 0.1 0 0.1 0.3 0 0.6 0 0 0 0 0 0.1-0.1 0.2 0 0.1-0.1 0.2-0.1 0.2-0.3 0.2-0.1 0.1-0.2 0.1-0.2 0-0.5 0-0.1-0.1-0.3-0.1-0.1-0.1-0.3-0.2-0.2-0.1-0.3-0.3-0.1-0.1-0.1-0.2-0.1 0-0.1 0-0.1-0.1-0.1-0.2-0.1-0.2-0.1-0.4 0-0.1 0-0.1 0-0.2 0-0.3z"/><path class="Q" d="m282.6 390.9q0 0 0 0 0 0 0 0z"/><path class="Q" d="m217 363.9c0.1-0.9 0.7-1.7 1.6-2 1.1-0.3 2.5 0.1 3.3 1.1q0 0 0.1 0.1 0.4 0.3 0.7 0.6c0.7 0.8 1.1 2.1 0.6 3.1-0.2 0.5-0.5 0.9-0.9 1.2-0.5 0.3-1 0.4-1.6 0.5-1.2 0-2.6-0.7-3.2-1.8-0.6-0.8-0.7-1.8-0.6-2.8z"/><path class="Q" d="m186.4 357.3q0.2-0.2 0.4-0.2 0.1-0.1 0.1-0.1 0 0 0.1 0 0.1-0.1 0.2-0.1 0.3-0.1 0.5-0.1 0.2 0.1 0.4 0.2 0.2 0.1 0.4 0.3 0.2 0.2 0.3 0.4 0 0.1 0 0.1 0 0 0 0 0 0.1 0 0.1 0.1 0.1 0.1 0.2c0 0 0 0.2-0.1 0.3q0 0 0 0 0 0.1-0.1 0.2 0 0 0 0 0 0 0 0.1-0.1 0.1-0.2 0.1 0 0 0 0.1-0.1 0-0.1 0 0 0-0.1 0.1 0.1-0.1 0.2-0.2-0.2 0.2-0.4 0.3-0.3 0-0.6 0-0.1-0.1-0.3-0.1-0.3-0.2-0.5-0.4-0.2-0.2-0.3-0.4-0.1-0.2-0.1-0.4 0-0.2 0.1-0.5z"/><path class="R" d="m157.8 434.7q4.9-0.8 9.7-1.8c1.3-0.3 2.6-0.6 3.9-0.9q1.5-0.2 3.1-0.4c2.2-0.3 4.5-0.7 6.8-1.3 1.9-0.5 3.9-1.2 5.2-2.7 0.2-0.2 0.1-0.5-0.1-0.6-2.8-0.8-5.7-1.3-8.7-1.7-5.2-0.6-10.6-0.5-15.9-0.4-4.2 0.2-8.5 0.4-12.8 0.4 0.4-1.4 1-2.8 1.3-4.3q0.5-2 0-3.9 2.4-0.2 4.8-0.4c3.7-0.2 7.3-0.4 11-0.6 2.8-0.1 5.6-0.3 8.4-0.3 2.4 0 4.7 0.1 7.1-0.2 1.8-0.2 4.1-0.6 5.3-2.1 0.2-0.3 0.1-0.5-0.1-0.6-2.8-1.1-5.7-2-8.7-2.7-5.2-1.2-10.6-1.9-15.9-2.7-4.8-0.6-9.5-1.4-14.2-2.5q0.3-0.5 0.7-0.9c0.7-1.1 1.7-2 2.3-3.2 0.8-1.3 1-2.7 0.7-4.2q-0.1-0.8-0.3-1.7-0.2-0.1-0.3-0.3-0.2-0.3-0.3-0.7c6.4 1.5 12.8 3.1 19.2 4.5q5.5 1.2 11.1 2.1c2.2 0.4 4.4 0.9 6.6 1.1 0.9 0.1 3.6 0.4 3.6-1.2 0.1-0.8-0.7-1.6-1.2-2.1-1-0.9-2.1-1.6-3.3-2.2-2.6-1.3-5.3-2.4-7.9-3.6-3.3-1.6-6.8-3.2-10.2-4.8q-2.4-1.1-4.9-2.2c-1.4-0.7-2.8-1.4-4.2-2.1q-1.4-0.8-3-1.5 0.8-0.7 1.4-1.5c1.7-1.9 1.9-4.2 1.8-6.6-0.1-2.2-0.1-4.3 0.5-6.3 6.5 3.3 13 6.5 19.5 9.8q5.4 2.7 10.7 5.5c1.3 0.7 2.6 1.3 3.9 2 0.8 0.5 1.7 1 2.7 1.4 1.2 0.6 3.7 1.5 4.1-0.6 0.3-2-1.3-3.9-2.6-5.3-1.8-1.8-3.9-3.4-6-5q-2.9-2.1-5.7-4.3c-4.7-3.8-9.4-7.6-14.4-11.1q0.7-0.1 1.4-0.3c1.8-0.5 3.7-1.2 5.2-2.4 1.7-1.3 3-3 4.2-4.7 1.2-1.6 2.3-3.2 3.8-4.6q1.3-1.1 2.8-1.8 5.9 6.1 11.4 12.4 1.6 1.7 3.2 3.5c1 1.3 2 2.5 3 3.7q1.7 1.9 3.3 3.8c0.5 0.6 1.1 1.2 1.5 1.8 0.4 0.4 0.6 0.9 0.9 1.3 0.6 0.9 1.2 1.9 2.1 2.4 0.7 0.5 1.9 0.7 2.6 0.3 0.7-0.4 0.9-1.2 0.9-1.9-0.1-1-0.4-2-0.8-3-2-5.7-4.9-11.2-8.1-16.4-1.3-2.2-2.8-4.4-4.1-6.7q-0.4-0.9-1-1.8c1.2-0.1 2.3-0.2 3.4-0.4 1.3-0.3 2.5-0.8 3.5-1.6 1-0.8 1.8-1.8 2.6-2.7 1.6-1.8 3.3-3.3 5.7-4q1.5-0.4 2.9-0.5 3.2 8.8 6 17.7c1.2 3.7 2.4 7.4 3.5 11.2 0.5 1.5 0.8 3.1 1.3 4.6 0.4 0.9 0.8 1.8 1.3 2.6 0.4 0.6 1 1.3 1.7 1.5 0.7 0.1 1.6 0 2-0.6 0.4-0.5 0.4-1.3 0.5-2 0.2-2.2-0.1-4.4-0.4-6.6-0.2-1.8-0.5-3.5-0.7-5.3-0.4-6.5-0.7-13.1-2-19.5 1.8 0.6 3.6 1.1 5.5 1.1 2.4-0.1 4.7-0.7 7-1.2 2.2-0.4 4.3-0.5 6.4 0.1q0.8 0.2 1.6 0.5c-1.1 5.4-2.5 10.7-3.8 16-0.7 3.1-1.4 6.1-1.9 9.2q-0.4 1.9-0.7 3.9-0.2 1.1-0.2 2.3c-0.1 1.2-0.1 3.1 1.1 3.8 1.4 0.8 3.2-0.7 4-1.7 1.4-1.6 2.2-3.6 3-5.5 0.8-2 1.5-3.9 2.4-5.8 2.1-4.4 4.2-8.6 6-13 1 1.5 2.2 2.9 3.9 3.7 2.2 1 4.6 1.1 6.9 1.1 2.2 0.1 4.4 0.5 6.4 1.5q0.5 0.2 1.1 0.6-4.5 5.8-8.8 11.7c-2.8 3.9-6.3 7.6-7.9 12.2-0.4 1-0.7 2-0.7 3-0.1 0.7 0 1.4 0.5 1.9 0.5 0.5 1.3 0.5 2 0.4 1-0.1 1.8-0.5 2.6-1.1 1.9-1.2 3.3-3 4.8-4.6 1.5-1.8 3.1-3.4 4.8-5 2.8-2.6 5.8-5.2 8.4-8 0.4 1 0.9 2 1.8 2.7 0.8 0.7 1.9 1 2.9 1.2 2.1 0.5 4.3 0.6 6.2 1.6q0.3 0.2 0.5 0.3c-4 3.4-8.2 6.4-12.3 9.7-2.2 1.8-4.4 3.7-6.5 5.7-1.6 1.6-3.3 3.3-4.4 5.3-0.7 1.3-1.4 3.1-0.7 4.5 0.8 1.5 2.9 1.7 4.4 1.3 2-0.6 3.8-1.7 5.6-2.8 1.5-1 3.1-2.1 4.7-3.1 1.3-0.7 2.5-1.6 3.8-2.4q1.9-1.4 3.9-2.7c2.1-1.3 4.3-2.7 6.7-3.7-0.1 1.6-0.2 3.2 0.4 4.7q0 0 0 0c-5.4 2.9-10.7 5.9-15.9 9.1q-1.8 1.2-3.6 2.3c-1.3 0.8-2.6 1.6-3.7 2.7-0.7 0.6-1.8 1.7-1.5 2.7 0.4 1.3 2.3 1.5 3.4 1.4 2-0.1 4-0.9 5.9-1.6q1.3-0.5 2.7-1c1-0.4 2.1-0.6 3.2-0.8 4.5-1 9.2-1.5 13.6-2.9-1.2 1.3-3.1 1.9-4.7 2.3-2.3 0.6-4.6 1-6.8 1.7-2.8 0.7-5.6 1.6-8.3 2.8-2.4 1-4.8 2.1-6.8 3.8-2.2 1.7-3.8 4.1-5 6.6q-0.6 1-0.9 2.1 0 0.1 0.1 0.2c0.7 2.5 0.4 5.1-0.9 7.4-1.4 2.4-3.4 4.3-5.6 5.8-2.1 1.7-4.4 3-6.7 4.3q-4.7 2.6-9.8 4.2c-7 2.2-14.3 2.9-21.6 2.6-3.6-0.1-7.4-0.4-11-1.2-3.7-0.7-7.4-2-11-3.3-3.8-1.4-7.5-2.8-11.3-3.7-10.5-2.5-21.4-2.4-32-1.3-4.6 0.5-11.7 2-16.3-0.2q2.4-0.3 4.8-0.7z"/><path class="R" d="m189.9 431.9c1.4-2.5 1.3-5.5 1.2-8.2-0.1-1.6-0.2-3.2-0.2-4.8 0-1.5 0.1-2.9 0.3-4.3 0.6-5.3 1.9-10.5 4.2-15.4 2.1-4.5 5-8.8 8.6-12.3 3.7-3.6 8-6.5 12.7-8.5 5.2-2.3 10.9-3.5 16.5-3.7 6.1-0.1 12.2 0.8 17.9 2.6 5.7 1.8 11.2 4.6 15.8 8.5 5.1 4.3 9.1 9.9 11.9 15.9 1.8 4.2 2.3 8.9 3.2 13.4q-1.2 1.6-2 3.4-0.6 1-0.9 2.1 0 0.1 0.1 0.2c0.7 2.5 0.4 5.1-0.9 7.4-1.4 2.4-3.4 4.3-5.6 5.8-2.1 1.7-4.4 3-6.7 4.3q-4.7 2.6-9.8 4.2c-7 2.2-14.3 2.9-21.6 2.6-3.6-0.1-7.4-0.4-11-1.2-3.7-0.7-7.4-2-11-3.3-3.8-1.4-7.5-2.8-11.3-3.7-4.6-1.1-9.3-1.7-14-1.9 1-0.9 2-1.9 2.6-3.1z"/><path class="K" d="m210.7 448c2.2 1.5 4.7 2.7 7.3 3.6 1.5 0.6 6 0.7 6.9 1.6q0.1 0.1 0.2 0.2c8.4 7.7 22.4 9.8 33.3 9.8 9.2 0 19.8-2.1 27-8.1 12.3-10.3 8.2-30.7-5.7-37.6q-0.5-0.3-1-0.5c0.6-6-0.9-12-3.7-17.4-2.9-5.8-7.4-10.9-12.7-14.6-9-6.4-20.5-9.5-31.4-8.6-8.1 0.7-16.1 3.7-22.3 9.1-4.7 4.2-8.2 9.7-10.4 15.7-6 16.4-2.3 36.9 12.5 46.8z"/><path class="N" d="m254.4 381.1q0.7 0.6 1.4 1.4 0 0 0 0.1 0.6 0.7 1.2 1.6 0 0.1 0.1 0.2 0.1 0.1 0.1 0.1 0.7 1 1.2 2.1c0.7 1.4 1.3 3.2 0.7 4.7-0.6 1.5-2.2 2.2-3.7 2.2-1.6-0.1-3.1-1.1-4.4-2.1-2.2-1.8-4-4.5-4.9-7.3-0.5-1.3-0.8-3 0.1-4.2 0.7-1 2-1.4 3.2-1.3q1.7 0.5 3.4 1.2 0.8 0.6 1.6 1.3z"/><path class="N" d="m233.2 401.6c3.2 0.6 6.4 2.3 8.1 5.1 1.1 1.7 1.6 3.9 1.5 5.9-0.1 2.3-1.3 4.4-2.8 6.1-0.2 0.3 0 0.6 0.4 0.6 0.9-0.2 1.9 0.1 2.8 0.4q-1.8 0.5-3.5 1c-2.6 0.8-5.2 1.6-7.7 2.8-2.2 1.1-4.2 2.4-5.9 4.1 0.6-1.9 1.9-3.5 3.4-4.9 0.2-0.2 0.1-0.5-0.2-0.6q-0.6-0.1-1.3-0.4c-3.3-1.2-5.7-4.3-6.6-7.7-0.8-3.5 0.1-7.3 2.7-9.9 2.4-2.3 5.9-3 9.1-2.5z"/><path class="N" d="m258.7 398.5c2.8-1.6 6.5-1.5 9.4 0 2.7 1.5 4.7 4.5 5.2 7.6 0.5 2.8-0.6 6.5-3.5 7.7-0.4 0.1-0.4 0.7 0.1 0.7 0.9-0.2 1.9 0 2.7 0.6-2.6 0.4-5.1 0.2-7.6 0.2-2.6-0.1-5.1 0.1-7.4 1 0.3-0.5 0.7-0.9 1.2-1.2 0.2-0.2 0-0.5-0.2-0.6-1.5-0.5-2.5-1.9-3.1-3.3-0.7-1.5-1.1-3.2-1.2-4.9-0.1-3.2 1.6-6.2 4.4-7.8z"/><path class="N" d="m217.3 386.2c1.3-1.1 3.1-1.2 4.6-1 1.8 0.3 3.5 1.1 5.1 2q0.8 0.4 1.6 0.9c-0.2 0.2-0.2 0.5 0.1 0.6q0.6 0.1 1.1 0.4 0.1 0 0.1 0 0.5 0.4 0.9 0.8c0.2 0.1 0.4 0.1 0.5-0.1 2.6 1.7 5.2 4.9 3.3 7.7-1.1 1.6-3.1 2.3-5 2.4-2 0.2-4-0.1-5.9-0.7q-2.7-0.9-4.7-2.8c-1.5-1.4-2.8-3.2-3.3-5.2-0.5-1.9 0.1-3.8 1.6-5z"/><path class="N" d="m251.5 414.5c5.2-0.5 10.5-0.4 15.7 0.1 2 0.3 3.9 0.5 5.8 0.9q1.1 0.3 2.1 0.7c-4.2-0.3-8.5-0.1-12.7 0.5-4.1 0.5-8.1 1.4-12.1 2.4-3.6 0.9-7.2 2-10.8 3.4-4.6 1.8-9.2 4.1-13.3 7 1.2-2.1 2.7-4.1 4.4-5.8 5.6-5.4 13.3-8.3 20.9-9.2z"/><path class="N" d="m198.2 401.2c2.2-6 5.7-11.5 10.4-15.7 6.2-5.4 14.2-8.4 22.3-9.1 9.8-0.8 20 1.6 28.5 6.7-5.2-1.7-10.7-2.5-16.1-2.2-6 0.3-11.9 1.9-16.9 5.2-4.9 3.3-8.9 8-11 13.6-2.1 5.7-2.5 12-1.8 18 0.8 6.2 2.8 12.3 6.2 17.5 1.6 2.6 3.4 4.9 5.7 6.8 2.5 2.3 5.5 4 8.6 5.4 3.3 1.4 6.9 2.3 10.5 2 1.7-0.2 3.4-0.6 5-1.4 1.8-0.8 3.3-2 4.7-3.4 5.6-5.4 12.2-10.2 19.6-12.7 3.7-1.2 7.5-1.8 11.3-1.6 2.2 0.2 4.4 0.7 6.4 1.5 2.5 8.1 0.9 17.3-6.2 23.3-7.2 6-17.8 8.1-27 8.1-10.9 0-24.9-2.1-33.3-9.8q-0.1-0.1-0.2-0.2c-0.9-0.9-5.4-1-6.9-1.6-2.6-0.9-5.1-2.1-7.3-3.6-14.8-9.9-18.5-30.4-12.5-46.8z"/><path class="N" d="m204.2 441.5c1.5 1.6 3.1 3 4.9 4.2 2 1.4 4.3 2.4 6.5 3.4 1.3 0.5 2.7 1 4.1 1.4 1.3 0.3 2.6 0.4 4 0.6 0.7 0.1 1.4 0.3 2 0.7 0.9 0.4 1.6 1 2.4 1.6 1.3 0.8 2.6 1.5 4 2.2q2.7 1.2 5.4 2c1.9 0.6 3.9 1.1 5.8 1.2 1.7 0.2 3.4 0.1 5-0.5 1.6-0.7 2.6-1.8 3.3-3.4 0.9-2.1 1.3-4.5 2.4-6.6 2.3-4.8 6.1-8.4 10.5-11.2 4.3-2.8 9.3-4.8 14.5-5.4 4.3-0.5 8.7 0 12.9 1.2 2.1 7.9 0.3 16.5-6.5 22.2-7.2 6-17.8 8.1-27 8.1-10.9 0-24.9-2.1-33.3-9.8q-0.1-0.1-0.2-0.2c-0.9-0.9-5.4-1-6.9-1.6-2.6-0.9-5.1-2.1-7.3-3.6-4.2-2.8-7.5-6.5-10-10.6q1.6 2.2 3.5 4.1z"/><path class="C" d="m222.3 412.3c0 5.4 4.4 9.7 9.7 9.7 5.4 0 9.8-4.3 9.8-9.7 0-5.4-4.4-9.8-9.8-9.8-5.3 0-9.7 4.4-9.7 9.8z"/><path class="D" d="m223 412.3c0 5.1 4.1 9.1 9.1 9.1 5.1 0 9.2-4 9.2-9.1 0-5.1-4.1-9.2-9.2-9.2-5 0-9.1 4.1-9.1 9.2z"/><path class="S" d="m222.9 412.8c0 4 3.3 7.3 7.3 7.3 4 0 7.3-3.3 7.3-7.3 0-4-3.3-7.3-7.3-7.3-4 0-7.3 3.3-7.3 7.3z"/><path class="T" d="m226.3 413.5c0 1.9 1.6 3.5 3.5 3.5 2 0 3.5-1.6 3.5-3.5 0-1.9-1.5-3.5-3.5-3.5-1.9 0-3.5 1.6-3.5 3.5z"/><path class="D" d="m230.1 410.4c0 1.3 1 2.3 2.3 2.3 1.3 0 2.3-1 2.3-2.3 0-1.3-1-2.3-2.3-2.3-1.3 0-2.3 1-2.3 2.3z"/><path class="C" d="m255.3 406.5c0 4.7 3.8 8.5 8.4 8.5 4.7 0 8.4-3.8 8.4-8.5 0-4.6-3.7-8.4-8.4-8.4-4.6 0-8.4 3.8-8.4 8.4z"/><path class="D" d="m255.9 406.5c0 4.4 3.5 7.9 7.9 7.9 4.3 0 7.9-3.5 7.9-7.9 0-4.3-3.6-7.9-7.9-7.9-4.4 0-7.9 3.6-7.9 7.9z"/><path class="S" d="m256.2 407c0 3.5 2.9 6.3 6.3 6.3 3.5 0 6.3-2.8 6.3-6.3 0-3.4-2.8-6.3-6.3-6.3-3.4 0-6.3 2.9-6.3 6.3z"/><path class="T" d="m259.2 407.6c0 1.7 1.4 3 3 3 1.7 0 3.1-1.3 3.1-3 0-1.6-1.4-3-3.1-3-1.6 0-3 1.4-3 3z"/><path class="D" d="m262.5 405c0 1.1 0.8 1.9 1.9 1.9 1.1 0 2-0.8 2-1.9 0-1.1-0.9-2-2-2-1.1 0-1.9 0.9-1.9 2z"/><path class="U" d="m265.7 421.7c0.2 1 0.6 2.1 1.1 3 0.9 1.6 2.2 2.9 3.6 4 2.1 1.5 4.6 2.5 7.1 2.3 4.7-0.4 8-4.4 9.9-8.4 2-4.2 3.1-9.4 2.1-14-0.3-1.2-0.7-2.4-1.5-3.4-0.9-1-2.1-1.2-3.3-0.4-0.6 0.5-1.1 1.1-1.6 1.7q-0.9 1.1-1.7 2.1c-1.2 1.3-2.4 2.5-3.8 3.5q-2.1 1.5-4.6 2.3c-1.5 0.5-3.1 1-4.6 1.7-1.4 0.7-2.8 1.8-3 3.5-0.1 0.7 0 1.4 0.3 2.1z"/><path class="V" d="m280.9 424.3q0.9-0.8 1.7-1.7c1.3-1.3 2.4-2.9 3.3-4.4 1.2-2.2 2.2-4.5 2.7-6.9q0 0.6 0 1.3c-0.2 3.1-1.3 6.2-2.8 8.9-1.3 2.4-3.1 4.7-5.4 6.4q-0.5-0.5-0.8-1.1c-0.3-0.4-0.2-0.8 0.1-1.2 0.3-0.5 0.8-0.9 1.2-1.3z"/><path class="W" d="m265.4 419.6c0.2-1.7 1.6-2.8 3-3.5 1.5-0.7 3.1-1.2 4.6-1.7q2.5-0.8 4.6-2.3c1.4-1 2.6-2.2 3.8-3.5q0.8-1 1.7-2.1c0.5-0.6 1-1.2 1.6-1.7 1-0.7 2-0.7 2.9 0-1.2 0.3-1.3 1.7-1.8 2.6-1.5 2.8-2.9 6-5.5 8-1.9 1.5-4.1 2.6-5.9 4.2-0.8 0.8-1.4 1.6-1.7 2.6-0.4 1.2-0.1 2.4 0.3 3.5 0.5 1.3 1.5 2.4 2.7 3 1.2 0.6 2.4 0.7 3.7 0.5 2-0.2 3.8-1.2 5.2-2.5q0.8-0.8 1.4-1.6c-1.9 3-4.8 5.6-8.5 5.9-2.5 0.2-5-0.8-7.1-2.3-1.4-1.1-2.7-2.4-3.6-4-0.5-0.9-0.9-2-1.1-3-0.3-0.7-0.4-1.4-0.3-2.1z"/><path class="X" d="m261.1 446.3l-2.7 1.5c0 0-4.3 3.9-3.6 12.8 0.8 8.9 36.1 10.9 39.6 7.3 0 0-4.9-18-16.5-19.5-11.5-1.5-16.8-2.1-16.8-2.1z"/><path class="Y" d="m258.4 447.8l2.7-1.5c0 0 5.3 0.6 16.8 2.1 11.6 1.5 16.5 19.5 16.5 19.5q-0.1 0.1-0.2 0.1c-3.8-0.3-7.6-1-11.4-2.1-3.6-1-7.2-2.3-10.6-3.9-1.6-0.8-3-1.7-4.5-2.5-1.5-0.9-3-1.8-4.7-2.3-1.4-0.4-3-0.6-4.4-0.1-1 0.4-1.8 1.2-2.2 2.2-0.5 1.1-0.6 2.3-0.6 3.5q-0.8-1-1-2.2c-0.7-8.9 3.6-12.8 3.6-12.8z"/><path class="Z" d="m285.4 465c-3.1-1.1-6.1-2.2-9.1-3.3-2.4-1-4.8-2-7.1-3.3-4.4-2.6-8.3-6.1-10.4-10.8l2.3-1.3c0 0 5.3 0.6 16.8 2.1 11.6 1.5 16.5 19.5 16.5 19.5q0 0 0 0c-3.1-0.8-6.1-1.8-9-2.9z"/><path class="X" d="m258.9 451.2c1.5 2 4.4 3 6.7 3.4 6.4 1.2 12.8 0.7 19 3.2 2.6 1.1 5.2 2.4 6.9 4.7 0.4 0.5 3.2 5.4 3.9 4.7 3-2.8 2.5-8.1 2.4-11.9-0.3-6.9-1.9-14.1-5-20.3-0.7-1.2-1.4-1.7-2.7-1.9-7.4-1.5-15.8 0-22.1 4-3.5 2.3-8.4 6.4-9.8 10.5-0.3 1.1-0.2 2.4 0.7 3.6z"/><path class="V" d="m290.8 435.5q0.9 1.3 1.6 2.7c1.6 3.3 2.7 6.7 3.4 10.3 0.3 2.7 0.3 5.4 0.5 8.1q-0.2-0.6-0.4-1.2c-1.2-3.8-2.9-7.5-4.9-10.9-1.9-3.1-4.1-6.1-6.8-8.5 2.1-0.8 4.4-0.9 6.6-0.5z"/><path class="a0" d="m258.2 447.6c1.4-4.1 6.3-8.2 9.8-10.5 4.9-3.1 11.1-4.7 17.1-4.6q-1.7 0.2-3.4 0.7c-5 1.2-9.5 3.6-13.1 7.3-1.8 2-3.7 4.6-2.9 7.4 0.5 2.1 2.3 3.3 4.2 4 4.3 1.6 9 0.9 13.4 2.1 2.7 0.8 5.2 2.1 7.3 3.9 2.2 1.8 3.9 4.2 5.3 6.6 0.1 0.2 0.4 0.3 0.5 0.1 0.5-0.5 0.9-1.1 1.2-1.7-0.3 1.6-1 3.2-2.2 4.3-0.7 0.7-3.5-4.2-3.9-4.7-1.7-2.3-4.3-3.6-6.9-4.7-6.2-2.5-12.6-2-19-3.2-2.3-0.4-5.2-1.4-6.7-3.4-0.9-1.2-1-2.5-0.7-3.6z"/><path class="U" d="m227 398.4c-1.8-0.2-3.6-0.7-5.2-1.8-2.8-1.9-4.6-5.6-4.5-9.1 0-1.3 0.6-2.5 1.6-3.4 1.1-0.9 2.5-1.5 3.8-2.1 2.9-1.3 6.1-3 7.6-6.1 1.3-2.7 1.5-5.7 1.5-8.7 0.2-0.6 0.6-1 1.2-1.1 1.2-0.1 2.2 1.2 2.9 2 7.5 9.3 6.1 29.7-8.9 30.3z"/><path class="W" d="m218.9 384.1c1.1-0.9 2.5-1.5 3.8-2.1 2.9-1.3 6.1-3 7.6-6.1 1.3-2.7 1.5-5.7 1.5-8.7 0.2-0.6 0.6-1 1.2-1.1q0.4 0 0.8 0.1c0.9 2.8 0.5 6.1-0.3 8.8q-0.8 2.8-2.1 5.4-0.5 1.2-1.2 2.2c-0.5 0.8-1.1 1.5-1.7 2.3-1.3 1.4-2.8 3-3.1 5-0.2 1.9 1.1 3.6 2.7 4.4 1.6 0.9 3.6 1.1 5.4 0.5 1.7-0.6 3.1-2 4.1-3.5q1.2-1.7 2-3.6c-1.6 5.8-5.6 10.4-12.6 10.7-1.8-0.2-3.6-0.7-5.2-1.8-2.8-1.9-4.6-5.6-4.5-9.1 0-1.3 0.6-2.5 1.6-3.4z"/><path class="U" d="m252.9 391.1c-2.3-0.9-4-2.9-4.6-5.3-0.4-1.4-0.3-2.9 0-4.2 0.3-1.4 1.1-2.5 2.2-3.4 1.1-0.9 2.3-1.6 3.5-2.4 1.3-1 2.4-2.3 3.3-3.6 1.4-2.3 2.1-4.8 2.1-7.4 0.3-1.4 0.8-2.6 1.9-2.5 1.2 0 2.1 1.4 2.6 2.3 3.8 6.3 4.6 15.9-0.1 21.9-1.9 2.4-4.8 4.1-8 5.1q-1.4 0-2.9-0.5z"/><path class="W" d="m248.3 381.6c0.3-1.4 1.1-2.5 2.2-3.4 1.1-0.9 2.3-1.6 3.5-2.4 1.3-1 2.4-2.3 3.3-3.6 1.4-2.3 2.1-4.8 2.1-7.4 0.3-1.3 0.8-2.5 1.8-2.5q0.4 1.5 0.4 3.1c0.1 2.1-0.3 4.2-1 6.2-0.6 1.9-1.4 3.7-2.3 5.4-0.9 1.7-2 3.3-2.9 5-0.4 0.8-0.8 1.6-0.7 2.5 0 0.9 0.5 1.6 1.1 2.3 0.8 0.9 1.8 1.6 3 1.7 2.3 0.2 4.4-1.7 5.8-3.4q0.2-0.3 0.5-0.7-0.6 1.1-1.3 2.1c-1.9 2.4-4.8 4.1-8 5.1q-1.4 0-2.9-0.5c-2.3-0.9-4-2.9-4.6-5.3-0.4-1.4-0.3-2.9 0-4.2z"/><path class="a1" d="m148.1 412c-0.6-1.4-1.1-3-0.9-4.5 0.1-1.3 0.7-2.4 1.5-3.4 0.7-1.1 1.7-2 2.3-3.2 0.8-1.3 1-2.7 0.7-4.2q-0.1-0.8-0.3-1.7-0.2-0.1-0.3-0.3c-0.4-0.8-0.6-1.7-0.8-2.6q0-0.1 0-0.2-0.1-0.2 0-0.2c-0.1-0.9 0-1.9 0.3-2.8 0.6-1.6 1.8-2.9 3.1-4.1 1.4-1.4 3.1-2.7 4.3-4.3 1.7-1.9 1.9-4.2 1.8-6.6-0.1-2.3-0.2-4.6 0.7-6.8 0.7-1.6 1.8-3.1 3.2-4.1 3-2 6.8-2.4 10.2-3.3 1.8-0.5 3.7-1.2 5.2-2.4 1.7-1.3 3-3 4.2-4.7 1.2-1.6 2.3-3.2 3.8-4.6 1.7-1.5 3.8-2.3 6-2.7 5-0.7 10.2 1.1 15.1-0.1 1.3-0.3 2.5-0.8 3.5-1.6 1-0.8 1.8-1.8 2.6-2.7 1.6-1.8 3.3-3.3 5.7-4 5-1.4 9.7 0.5 14.2 2.3 2.4 1 4.8 1.9 7.4 1.9 2.4-0.1 4.7-0.7 7-1.2 2.2-0.4 4.3-0.5 6.4 0.1 2.4 0.6 4.7 1.8 6.6 3.4 1.6 1.4 2.7 3.1 3.9 4.8 1.4 2 2.7 4.1 4.9 5.2 2.2 1 4.6 1.1 6.9 1.1 2.2 0.1 4.4 0.5 6.4 1.5 1.9 0.9 3.7 2.4 4.7 4.4 1.1 2.1 1.3 4.4 2.1 6.6 0.4 1.1 0.9 2.1 1.8 2.8 0.8 0.7 1.9 1 2.9 1.2 2.1 0.5 4.3 0.6 6.2 1.6 1.9 1 3.5 2.8 4.5 4.7 1 2.1 1.3 4.3 1.2 6.6-0.1 2-0.3 4.1 0.6 5.9 1 2 2.8 3.4 3.9 5.3 1.1 1.8 1.6 4 0.2 5.9q-0.5 0.6-1.1 1.1c0.5-1.8 0.2-3.8-1-5.3-1.2-1.6-3.1-2.5-4.6-3.8-0.5-0.5-0.9-1-1.1-1.7-0.3-0.7-0.4-1.5-0.4-2.3 0.1-2.2 0.7-4.4 0.6-6.6 0-2.1-0.5-4.1-1.8-5.7-1.4-1.7-3.3-2.7-5.5-3.2-2-0.5-4.2-0.6-6-1.6-2.1-1.1-2.9-3.1-3.4-5.2-0.4-2.1-0.5-4.3-1.7-6-1.4-2.1-3.8-3.2-6.2-3.5-2.5-0.4-5.1-0.2-7.6-0.4-2.3-0.3-4.5-1.1-6.2-2.8-1.5-1.5-2.5-3.3-3.6-5.1-1.2-1.9-2.5-3.7-4.3-5.1-1.7-1.2-3.7-1.8-5.8-1.8-2.2 0-4.4 0.6-6.6 1.1-2.6 0.7-5.3 0.7-7.9 0-2.5-0.7-4.9-1.9-7.2-3-2.2-1.2-4.5-1.9-7-1.3q-1.3 0.3-2.5 0.9 0 0-0.1 0c-1.5 0.5-2.8 1.4-4.1 2.4-1.4 1-2.9 2.2-4.4 3.3-1.2 0.9-2.6 1.7-4.2 2.1-1.8 0.4-3.7 0.3-5.5 0.1-3.5-0.3-7.1-1.3-10.6-0.3-1.7 0.5-3.2 1.5-4.4 2.9-1.3 1.5-2.3 3.4-3.2 5.3-1 1.8-2.1 3.5-3.8 4.8-1.7 1.2-3.7 1.8-5.8 2-2 0.2-4 0.3-5.9 1-1.4 0.5-2.7 1.3-3.7 2.5-1.6 2.2-1.6 5.1-1.6 7.7 0 3.1 0 6.8-2.1 9.3-1.3 1.4-2.9 2.3-4.4 3.5-1.5 1.1-2.9 2.5-3.5 4.4-0.5 1.7-0.4 3.5-0.2 5.3q0.2 1.3 0.5 2.6-0.1 0.6-0.3 1.1c-0.7 2.1-2.3 3.5-3.2 5.5-0.8 1.9-0.6 3.9 0.3 5.8 0.7 1.6 1.8 3 2.6 4.6 0.8 1.6 0.9 3.3 0.4 5.1-0.3 0.9-0.7 1.8-1 2.7q-0.5 1.2-0.8 2.5c-0.7 2.8-1.1 6.1 0.5 8.8q0.2 0.3 0.4 0.6c-1.9-1-3.4-2.7-4-5.3-0.8-3.2 0.8-6 1.5-9 0.4-1.7 0.3-3.3-0.3-4.9-0.5-1.4-1.3-2.7-1.9-4.1z"/></svg>