<svg version="1.2" xmlns="http://www.w3.org/2000/svg" viewBox="0 0 608 355" width="608" height="355"><defs><linearGradient id="P" gradientUnits="userSpaceOnUse"/><radialGradient id="g1" cx="413" cy="150.5" r="32.7" href="#P"><stop offset=".01" stop-color="#511fa4"/><stop offset="1" stop-color="#52146a"/></radialGradient><radialGradient id="g2" cx="407.9" cy="121.9" r="45.3" href="#P"><stop stop-color="#cc7ae9"/><stop offset="1" stop-color="#8343d6"/></radialGradient><radialGradient id="g3" cx="409.9" cy="160.1" r="45.6" href="#P"><stop offset=".01" stop-color="#511fa4"/><stop offset="1" stop-color="#52146a"/></radialGradient><radialGradient id="g4" cx="416.2" cy="204.1" r="9.7" href="#P"><stop offset=".01" stop-color="#6831ae"/><stop offset="1" stop-color="#68327d"/></radialGradient><linearGradient id="g5" x1="383" y1="178.7" x2="397.1" y2="178.7" href="#P"><stop offset=".01" stop-color="#511fa4"/><stop offset="1" stop-color="#52146a"/></linearGradient><linearGradient id="g6" x1="433.4" y1="108.6" x2="443.8" y2="108.6" href="#P"><stop offset=".01" stop-color="#511fa4"/><stop offset="1" stop-color="#52146a"/></linearGradient><radialGradient id="g7" cx="408.2" cy="123.1" r="15.4" href="#P"><stop offset=".01" stop-color="#511fa4"/><stop offset="1"/></radialGradient><radialGradient id="g8" cx="398.1" cy="228.1" r="6.9" href="#P"><stop stop-color="#9d94c2"/><stop offset=".98" stop-color="#8c74b1"/></radialGradient><linearGradient id="g9" x1="445.6" y1="245.5" x2="444.4" y2="213.8" href="#P"><stop offset="0" stop-color="#9f0047"/><stop offset="1" stop-color="#d23927"/></linearGradient><radialGradient id="g10" cx="485.4" cy="232.2" r="7.8" href="#P"><stop stop-color="#ffbf00"/><stop offset="1" stop-color="#fb6300"/></radialGradient><radialGradient id="g11" cx="427.7" cy="229.4" r="8.5" href="#P"><stop stop-color="#ffbf00"/><stop offset="1" stop-color="#fb6300"/></radialGradient><radialGradient id="g12" cx="436.2" cy="229.6" r="9.3" href="#P"><stop stop-color="#ffbf00"/><stop offset="1" stop-color="#fb6300"/></radialGradient><radialGradient id="g13" cx="365.9" cy="246.6" r="22.8" href="#P"><stop offset=".01" stop-color="#515bff"/><stop offset=".03" stop-color="#515add"/><stop offset="1" stop-color="#4335bb"/></radialGradient><radialGradient id="g14" cx="398" cy="254" r="8.2" href="#P"><stop stop-color="#9d94c2"/><stop offset=".98" stop-color="#8c74b1"/></radialGradient><linearGradient id="g15" x1="445.5" y1="273.3" x2="444.1" y2="237.8" href="#P"><stop stop-color="#6339ab"/><stop offset="1" stop-color="#547ed1"/></linearGradient><linearGradient id="g16" x1="404.5" y1="264.5" x2="402.7" y2="244.3" href="#P"><stop stop-color="#fb6300"/><stop offset="1" stop-color="#ffbf00"/></linearGradient><radialGradient id="g17" cx="369.3" cy="274" r="22.8" href="#P"><stop offset=".01" stop-color="#515bff"/><stop offset=".03" stop-color="#515add"/><stop offset="1" stop-color="#4335bb"/></radialGradient><radialGradient id="g18" cx="401.1" cy="283.5" r="8.2" href="#P"><stop stop-color="#9d94c2"/><stop offset=".98" stop-color="#8c74b1"/></radialGradient><linearGradient id="g19" x1="449.3" y1="297.4" x2="449.3" y2="269.2" href="#P"><stop stop-color="#433599"/><stop offset="1" stop-color="#515aba"/></linearGradient><linearGradient id="g20" x1="376" y1="290.4" x2="376" y2="281.4" href="#P"><stop offset="0" stop-color="#dd1d33"/><stop offset="1" stop-color="#ff4827"/></linearGradient><linearGradient id="g21" x1="476" y1="292.7" x2="476" y2="275.8" href="#P"><stop stop-color="#fb6300"/><stop offset="1" stop-color="#ffbf00"/></linearGradient><linearGradient id="g22" x1="350.9" y1="297.4" x2="350.9" y2="269.8" href="#P"><stop stop-color="#fb6300"/><stop offset="1" stop-color="#ffbf00"/></linearGradient><linearGradient id="g23" x1="314" y1="297.4" x2="314" y2="269.4" href="#P"><stop stop-color="#fb6300"/><stop offset="1" stop-color="#ffbf00"/></linearGradient><linearGradient id="g24" x1="26.1" y1="297.3" x2="26.1" y2="168.8" href="#P"><stop offset="0" stop-color="#ea1847"/><stop offset="1" stop-color="#ff6127"/></linearGradient><linearGradient id="g25" x1="-458.4" y1="297.3" x2="-458.4" y2="193.4" href="#P"><stop offset="0" stop-color="#e03347"/><stop offset="1" stop-color="#ff7527"/></linearGradient><linearGradient id="g26" x1="221.9" y1="181.3" x2="221.9" y2="168.8" href="#P"><stop stop-color="#fb8900"/><stop offset="1" stop-color="#ffbf00"/></linearGradient><linearGradient id="g27" x1="223.3" y1="297.3" x2="223.3" y2="286.9" href="#P"><stop stop-color="#fb8900"/><stop offset="1" stop-color="#ffbf00"/></linearGradient><linearGradient id="g28" x1="243.7" y1="194.9" x2="251.3" y2="194.9" href="#P"><stop stop-color="#433599"/><stop offset="1" stop-color="#515aba"/></linearGradient><linearGradient id="g29" x1="643.1" y1="306.9" x2="589.2" y2="375.5" href="#P"><stop offset=".01" stop-color="#511fa4"/><stop offset="1" stop-color="#52146a"/></linearGradient><linearGradient id="g30" x1="407.5" y1="181" x2="356.9" y2="255.7" href="#P"><stop offset=".01" stop-color="#8343d6"/><stop offset="1" stop-color="#8143e5"/></linearGradient><linearGradient id="g31" x1="194.1" y1="105.7" x2="246.2" y2="105.7" href="#P"><stop stop-color="#ffbf00"/><stop offset="1" stop-color="#dd6d00"/></linearGradient><linearGradient id="g32" x1="429.7" y1="47.7" x2="475.7" y2="63.5" href="#P"><stop stop-color="#ffbf00"/><stop offset="1" stop-color="#ffa700"/></linearGradient><linearGradient id="g33" x1="446" y1="79.4" x2="446.4" y2="74.9" href="#P"><stop stop-color="#52146a"/><stop offset=".99" stop-color="#511fa4"/></linearGradient><linearGradient id="g34" x1="410.6" y1="104.6" x2="413.3" y2="72.2" href="#P"><stop offset=".01" stop-color="#8343d6"/><stop offset="1" stop-color="#8143e5"/></linearGradient><linearGradient id="g35" x1="174.1" y1="297.9" x2="174.1" y2="142.1" href="#P"><stop offset="0" stop-color="#ea1847"/><stop offset="1" stop-color="#f63427"/></linearGradient><linearGradient id="g36" x1="175.7" y1="294" x2="175.7" y2="146.3" href="#P"><stop offset=".01" stop-color="#fff"/><stop offset="1" stop-color="#ffdee3"/></linearGradient><radialGradient id="g37" cx="315.6" cy="144.8" r="24.7" href="#P"><stop stop-color="#ff95ab"/><stop offset="1"/></radialGradient><radialGradient id="g38" cx="353.1" cy="168.8" r="16.9" href="#P"><stop stop-color="#ff95ab"/><stop offset="1"/></radialGradient><radialGradient id="g39" cx="281.7" cy="291.3" r="14.8" href="#P"><stop stop-color="#ff95ab"/><stop offset="1"/></radialGradient><linearGradient id="g40" x1="-813" y1="293.5" x2="-813" y2="146.6" href="#P"><stop/><stop offset="1" stop-color="#ff95ab"/></linearGradient><linearGradient id="g41" x1="278.2" y1="187.3" x2="283.6" y2="187.3" href="#P"><stop/><stop offset="1" stop-color="#ff95ab"/></linearGradient><linearGradient id="g42" x1="314.3" y1="285.1" x2="314.3" y2="275.9" href="#P"><stop offset=".01" stop-color="#8343d6"/><stop offset="1" stop-color="#8143e5"/></linearGradient><radialGradient id="g43" cx="306.3" cy="309.6" r="200.2" href="#P"><stop stop-color="#c73d25"/><stop offset="1" stop-color="#b83e47"/></radialGradient><linearGradient id="g44" x1="-166.2" y1="298.1" x2="-166.2" y2="177.9" href="#P"><stop offset="0" stop-color="#ea1847"/><stop offset="1" stop-color="#ff6127"/></linearGradient><radialGradient id="g45" cx="110.8" cy="197.9" r="9" href="#P"><stop stop-color="#ffbf00"/><stop offset="1" stop-color="#fb8900"/></radialGradient><radialGradient id="g46" cx="111.2" cy="207.9" r="7.8" href="#P"><stop stop-color="#ffbf00"/><stop offset="1" stop-color="#fb8900"/></radialGradient><radialGradient id="g47" cx="114" cy="280.2" r="7.3" href="#P"><stop stop-color="#ffbf00"/><stop offset="1" stop-color="#fb8900"/></radialGradient><linearGradient id="g48" x1="-218.6" y1="298.7" x2="-218.6" y2="187.3" href="#P"><stop offset=".01" stop-color="#8343d6"/><stop offset="1" stop-color="#945fe9"/></linearGradient><linearGradient id="g49" x1="-166" y1="298.7" x2="-166" y2="188.1" href="#P"><stop stop-color="#52146a"/><stop offset=".99" stop-color="#511fa4"/></linearGradient><linearGradient id="g50" x1="156.9" y1="299.3" x2="156.9" y2="281.3" href="#P"><stop stop-color="#dd6d00"/><stop offset="1" stop-color="#ff9000"/></linearGradient><linearGradient id="g51" x1="121.9" y1="269.1" x2="243.7" y2="269.1" href="#P"><stop stop-color="#fca536"/><stop offset="1" stop-color="#ffbf00"/></linearGradient><linearGradient id="g52" x1="42.9" y1="293.7" x2="81.2" y2="293.7" href="#P"><stop offset=".01" stop-color="#511fa4"/><stop offset="1" stop-color="#52146a"/></linearGradient><linearGradient id="g53" x1="53.7" y1="196.4" x2="62.1" y2="196.4" href="#P"><stop offset=".01" stop-color="#511fa4"/><stop offset="1" stop-color="#52146a"/></linearGradient></defs><style>.a{fill:#321351}.b{fill:url(#g1)}.c{fill:url(#g2)}.d{fill:url(#g3)}.e{fill:url(#g4)}.f{fill:#461370}.g{fill:url(#g5)}.h{fill:url(#g6)}.i{fill:#652056}.j{fill:#fff}.k{opacity:.5;mix-blend-mode:soft-light;fill:#fff}.l{mix-blend-mode:screen;fill:url(#g7)}.m{mix-blend-mode:soft-light;fill:#fff}.n{fill:#ff8b40}.o{fill:#7b2040}.p{fill:#c24836}.q{fill:#a93845}.r{fill:#eee1e9}.s{fill:#b32742}.t{fill:url(#g8)}.u{opacity:.8;mix-blend-mode:multiply;fill:#9a4f8b}.v{fill:url(#g9)}.w{fill:url(#g10)}.x{fill:url(#g11)}.y{fill:url(#g12)}.z{fill:#ff5947}.A{opacity:.5;mix-blend-mode:multiply;fill:#9a4f8b}.B{opacity:.3;fill:#771156}.C{fill:#71a6ff}.D{fill:url(#g13)}.E{fill:url(#g14)}.F{fill:url(#g15)}.G{fill:url(#g16)}.H{fill:#dadada}.I{fill:#4e2c81}.J{fill:#7184ff}.K{fill:url(#g17)}.L{fill:url(#g18)}.M{fill:url(#g19)}.N{fill:url(#g20)}.O{fill:url(#g21)}.P{fill:url(#g22)}.Q{fill:url(#g23)}.R{opacity:.6;fill:#771156}.S{fill:#7d1027}.T{fill:url(#g24)}.U{fill:#978bc3}.V{fill:url(#g25)}.W{opacity:.8;mix-blend-mode:multiply;fill:#b02463}.X{mix-blend-mode:soft-light;fill:#fff3b3}.Y{fill:url(#g26)}.Z{fill:url(#g27)}.a0{fill:#e2412c}.a1{fill:url(#g28)}.a2{fill:url(#g29)}.a3{fill:url(#g30)}.a4{fill:#a190da}.a5{fill:url(#g31)}.a6{fill:#e55947}.a7{fill:#8c6fa4}.a8{fill:url(#g32)}.a9{fill:#745090}.aa{fill:#5c326c}.ab{fill:url(#g33)}.ac{fill:url(#g34)}.ad{fill:#451c3e}.ae{fill:url(#g35)}.af{fill:#9f1c3e}.ag{fill:url(#g36)}.ah{fill:#b379c7}.ai{opacity:.5;mix-blend-mode:multiply;fill:#b379c7}.aj{mix-blend-mode:screen;fill:url(#g37)}.ak{mix-blend-mode:screen;fill:url(#g38)}.al{mix-blend-mode:screen;fill:url(#g39)}.am{mix-blend-mode:screen;fill:url(#g40)}.an{mix-blend-mode:screen;fill:url(#g41)}.ao{fill:url(#g42)}.ap{opacity:.5;fill:#fff}.aq{fill:#592c8b}.ar{fill:#5941e5}.as{fill:#f61b4a}.at{fill:url(#g43)}.au{fill:url(#g44)}.av{fill:url(#g45)}.aw{fill:url(#g46)}.ax{opacity:1;mix-blend-mode:multiply;fill:#c2429d}.ay{fill:url(#g47)}.az{fill:url(#g48)}.aA{fill:url(#g49)}.aB{fill:#ffd690}.aC{fill:#4f1f77}.aD{fill:#4f7dfc}.aE{fill:#bb9fff}.aF{fill:url(#g50)}.aG{fill:url(#g51)}.aH{fill:#a49acb}.aI{opacity:.4;mix-blend-mode:multiply;fill:#9a4f8b}.aJ{opacity:.8;mix-blend-mode:multiply;fill:#e04263}.aK{mix-blend-mode:soft-light;fill:#ffffa4}.aL{fill:url(#g52)}.aM{fill:url(#g53)}.aN{fill:#e4deff}.aO{fill:#a172da}.aP{mix-blend-mode:soft-light;fill:#cac0ea}</style><path class="a" d="m439.4 118.2c0 0 25.5 16.6 12.2 48.8 0 0 19.3-27.6-9.1-52.3z"/><path class="b" d="m386.6 187.2l51.5-74.6 1.3 1-50.3 74.8z"/><path class="c" d="m453.2 149.3q0 0.8-0.1 1.5c-0.8 20.8-17.8 37.3-38.7 37.3-12.8 0-24.1-6.2-31.2-15.7-4.8-6.4-7.6-14.4-7.6-23.1 0-11.2 4.7-21.2 12.3-28.3q0.8-0.8 1.7-1.6c6.7-5.5 15.3-8.9 24.8-8.9 7.5 0 14.5 2.1 20.4 5.8 4.8 3 8.9 7 12 11.7 4 6.1 6.4 13.4 6.4 21.3z"/><path class="d" d="m431 194c23.9-8.1 36.7-34.2 28.5-58.1-3.5-10.1-10.1-18.1-18.4-23.5l-0.5 0.7c6.2 4.9 11.1 11.6 13.8 19.6 7.7 22.4-4.3 46.8-26.7 54.5-12.6 4.3-25.9 2.4-36.4-4.1l-2.9 4c11.7 9 27.6 12.1 42.6 6.9z"/><path class="e" d="m405.4 212.5c0 0 9.1-3 8.3-16 0 0 2.6-1.6 6.5 0 0 0-1.5 11.9 6.8 15.4 0 0-9.5-1.2-21.6 0.6z"/><path class="f" d="m400.5 217.2l0.3-3.9c0 0 18.1-3.8 32-0.4l1 5.6z"/><path class="f" d="m386.6 187.2l4.9-7c0 0 1.1-0.4 2.4 0.7l-4.8 7.5z"/><path class="g" d="m388.7 178.8l-5.7 7.9c0 0 3.1 5.3 8.5 5.9l5.6-9.3c0 0-3.3-5.1-8.4-4.5z"/><path class="f" d="m383 186.7c0 0 5.7 0.1 8.5 5.9 0 0-5.6-1-8.5-5.9z"/><path class="h" d="m433.4 115.5c0 0 2 1.2 5.2 3.5l5.2-5.8c0 0-0.6-4.9-6-4.6z"/><path class="f" d="m413.7 199.9c0 0 3.4-0.6 6.6 2.2 0 0-0.5-4.5-0.1-5.6 0 0-3.1-1.8-6.5 0 0 0 0.1 2.3 0 3.4z"/><g style="opacity:.3"><path class="i" d="m453.2 149.3q0 0.8-0.1 1.5c-0.2 0.2-0.6 0.4-0.8 0.5-0.1 0-0.4-0.1-0.5 0-0.2 0.1-0.2 0.5-0.3 0.6-0.5 0.9-1.1 1.6-2 1.3-0.6-0.2-1.6-1-2.2-0.7-0.5 0.2-0.5 0.7-0.7 1.2-0.2 0.3-0.6 0.9-1 1-0.5 0.3-1.4 0.2-1.9 0.1-0.9-0.1-2.1-0.6-2.9-0.2-0.4 0.3-0.7 0.6-1.2 0.7-0.9 0.4-1.8 0.4-2.7 0.4-0.6 0-1.6-0.2-2.2 0.1-0.5 0.3-0.4 1.2-0.4 1.7 0 0.3 0 0.5-0.1 0.8 0 0-0.1 0.5-0.1 0.6 0 0.3 0.4 0.6 0.6 0.8q0.6 0.9 1.4 1.5c0.6 0.4 0.6 1 0.7 1.6 0.1 0.3 0.3 0.7 0.2 1-0.3 1.2-2.5 0.7-2.9-0.2-0.3-0.5-0.2-1.1-0.5-1.6-0.2-0.4-0.4-0.6-0.7-0.9-0.3-0.3-0.4-0.6-0.5-1 0-0.5 0.1-0.9 0.1-1.4 0.1-0.5 0-1 0.1-1.5 0.2-1.4 1-2.8 0.3-4.2-0.4-0.7-0.6-1-0.4-1.8q0.2-0.8 0.5-1.6c0.1-0.7-0.1-1.5 0.2-2.2 0.2-0.4 0.7-1 0.1-1.2-1-0.3-2.2-0.5-3.1-1-0.1-0.1-0.4-0.2-0.5-0.4 0-0.2 0.1-0.3 0.2-0.4 0.3-0.7 0.2-1-0.5-1.2-0.6-0.2-1.2-0.3-1.6-0.9-0.4-0.6-0.3-1.3-0.7-1.8-0.4-0.7-1.1-0.9-1.8-1.2-0.6-0.3-0.8-0.6-0.9-1.2-0.2-0.1-0.4 0-0.6 0-0.3 0-0.5-0.1-0.7-0.1-0.5-0.1-1 0-1.4-0.3-0.4-0.3-1.1-1.1-1.7-0.7-0.7 0.4-0.6 1.2-1.3 1.6-0.5 0.3-1 0.2-1.5 0.2-0.3 0-0.7-0.1-0.9 0.1-0.6 0.3-0.1 1.4-0.3 2-0.2 0.8-1.7 1-2.4 1.1-0.5 0.1-1 0.2-1.6 0.5-0.2 0.1-0.4 0.4-0.6 0.5-0.5 0.2-1.2 0.4-1.6 0.3-0.5 0-0.8-0.5-1.2-0.6-0.2-0.1-0.5-0.1-0.7 0-0.5 0.1-0.9 0.3-1.5 0.3-0.4 0-0.6 0.1-0.7-0.3-0.1-0.3-0.1-0.6-0.2-0.9-0.2-0.7-0.8-1.2-1-2-0.1-0.8 0.3-1.6 0.3-2.4 0-0.8-0.3-1.4 0.1-2.2 0.3-0.7 0.9-1.1 1-1.8 0-0.6-0.3-1.2-0.4-1.7 0-0.7 0.3-1.1 0.5-1.7 0.1-0.2 0.2-0.4 0.2-0.7 0-0.2 0-0.5 0-0.7 0-0.4 0.4-0.7 0.8-0.9 0.4-0.2 0.8-0.3 1.2-0.6-0.2-0.4-0.5-0.8-0.5-1.3 0-0.2 0.1-0.6-0.1-0.7-0.2-0.2-0.9 0-1.2 0-0.7-0.1-1.3-0.6-1.8-1.1-0.4-0.4-0.9-0.6-0.9-1.2 0-0.1 0-0.3 0-0.4-0.1-0.3-0.1-0.1-0.3-0.2-0.2-0.1-0.5-0.2-0.6-0.3-0.5-0.5 0.9-1 0.7-1.7-0.1-0.3-0.8-0.3-1-0.4-0.3 0-1.4 0-1.5-0.3-0.1-0.3 0.3-0.6 0.5-0.8 0.4-0.5 0.7-1 1.1-1.6-1.4-0.1-1.7-0.2-1.9-0.2-0.8-0.2-1.9 0.1-2.6 0.4-0.8 0.4-1.6 1.1-2.5 1.4-0.8 0.2-1.6-0.1-2.5 0-1.2 0.1-2.3 0.7-3.5 0.7 6.7-5.5 15.3-8.9 24.8-8.9 7.5 0 14.5 2.1 20.4 5.8q0 0.2 0 0.3c-0.1 2.6 2.2 5.1 4.2 6.5 2.3 1.7 4.9 3.1 7.3 4.6q0.2 0.1 0.5 0.3c4 6.1 6.4 13.4 6.4 21.3z"/><path class="i" d="m393.7 126.6c-0.2 0.2-0.3 0.4-0.5 0.7-0.3 0.6-0.6 1.2-0.7 2 0 0.4-0.2 0.7-0.2 1.1 0 0.4 0.1 0.7 0 1.1 0 1-0.3 2.2-0.6 3.2-0.4 1.7-2 1.8-3.4 2.1-1.3 0.2-2.5 1-3 2.3-0.2 0.6-0.6 1.1-0.8 1.7-0.1 0.2-0.3 0.5-0.4 0.8-0.1 0.3 0 0.7-0.1 1.1-0.1 0.2-0.1 0.5-0.2 0.7-0.2 0.3-0.5 0.5-0.8 0.7-0.7 0.8-1.5 1.8-1.5 2.9 0 0.4 0.1 1.4 0.4 1.7 0.2 0.2 1.1 0 1.4 0 0.5 0 0.5 0.3 0.3 0.7-0.3 0.6-0.8 1.2-0.9 1.9-0.1 0.5 0.1 0.6 0.4 0.9 0.2 0.2 0.3 0.2 0.3 0.6 0 0.2 0 0.5-0.1 0.7-0.2 0.5-0.3 0.8-0.3 1.3 0.1 0.2 0.2 0.3 0.2 0.5 0.1 0.2 0 0.5 0 0.7 0 0.3-0.2 0.6-0.2 0.9 0 0.3 0.2 0.7 0.3 1 0.2 0.5 0.4 0.9 0.1 1.5-0.3 0.7-1 1.1-1.3 1.9-0.2 0.6-0.1 1.2-0.1 1.8 0 0.9-0.1 1.7-0.3 2.6-0.1 0.9 0.1 1.8 0.2 2.6 0 0.8 0.4 1.6 0.6 2.3 0.1 0.5 0.4 0.9 0.6 1.4q0.1 0.2 0.1 0.4c-4.8-6.4-7.6-14.4-7.6-23.1 0-11.2 4.7-21.2 12.3-28.3q1.2 0 2.5 0c0.4 0 0.9 0.1 1.2 0.4 0.4 0.4 0.1 0.4-0.2 0.8-0.2 0.3-0.3 0.8-0.3 1.2 0.1 0.5 0.6 1 1 1.2 0.3 0.3 0.6 0.5 0.9 0.7 0.3 0.2 0.8 0.2 0.9 0.6 0 0.2-0.1 0.5-0.2 0.7z"/><path class="i" d="m387.1 158.2c-0.3 0.5-0.4 0.7-0.6 1.2 0 0.3-0.1 0.8-0.2 1.1-0.3 0.5-0.8 0.6-1.2 0.9-1.4 0.7-0.7 2.2-0.2 3.4 0.1 0.4 0.3 0.9 0.8 1 0.5 0.1 1-0.1 1.5 0.1 0.6 0.2 1.1 0.6 1.4 1.2 0.3 0.6 0.3 1.3 1.1 1.6 1.2 0.6 2.4-0.4 3.4-0.9 0.5-0.3 0.7-0.4 0.9-0.9 0.3-0.8 0.2-1.7 0.2-2.5 0-0.9 0-1.2 0.7-1.8 0.4-0.4 0.8-0.8 1-1.4 0.3-0.9 0-1.3-0.4-2.2-0.2-0.4-0.4-0.7-0.7-1.1-0.2-0.2-0.3-0.5-0.6-0.7-0.2 0.1-0.2 0.5-0.3 0.8-0.1 0.3-0.2 1-0.4 1.3-0.5 0.6-1.1-0.6-1.2-0.9-0.4-1-1.1-2.1-2-2.6-0.5-0.3-1-0.3-1.6-0.3-0.8 0-0.8 0.9-1.6 2.7z"/><path class="i" d="m413.6 178q-0.1 0.4-0.1 0.9c0.8 0 1.7 0 2.6-0.1 0.5-0.1 1-0.1 1.5-0.1 0.2 0 0.9-0.2 1.1 0 0.5 0.3-0.8 1-1 1.1-0.4 0.3-1 0.7-0.9 1.2 0.1 0.2 0.3 0.4 0.4 0.5 0.2 0.3 0.2 0.3 0.3 0.6 0.1 0.4 0.2 0.8 0.4 1.1 0.4 0.7 1.3 0.8 2 1 0.4 0.1 0.8 0 1.2 0.1 0.1 0.1 0.3 0.1 0.5 0.1 0.2 0.1 0.2 0.2 0.4 0.3 0.3 0.2 1.1 0 1.4 0 0.7-0.2 1.5-0.1 2.2-0.1q1 0 2.1-0.3c1-0.2 2.1-0.3 3.1-0.8 1-0.5 2-0.8 2.9-1.5q1-0.9 1.9-1.8c0.8-0.8-0.1-1.7 0.4-2.5 0.2-0.5 0.7-1 0.8-1.5 0-0.2 0-0.5 0-0.8 0-0.3 0-0.3-0.3-0.3-0.4 0-0.7 0.4-1.1 0.2-0.3-0.2-0.6-0.6-0.8-0.8-0.3-0.3-0.5-0.6-0.9-0.6-0.5 0-0.9 0.1-1.3-0.1-0.6-0.2-0.6-0.5-0.8-1.1 0-0.3-0.1-0.6 0-0.9 0-0.3 0.1-0.6 0.1-1 0.2-1.3-1.4-1.9-2.5-1.9-0.7-0.1-1.2-0.4-1.8-0.8-0.4-0.3-0.9-0.9-1.4-1.1-0.7-0.1-1.4 0.1-2 0.4-0.9 0.4-1.9 0.8-2.9 1.1-0.9 0.2-2.1 0.1-2.9 0.6-0.3 0.2-0.7 0.6-1 0.8-0.1 0.1-0.1 0.3-0.2 0.4-0.2 0.2-0.3 0.2-0.5 0.3-0.4 0.2-0.8 0.5-1.3 0.6-0.6 0.1-1.2 0.2-1.8 0.4-0.7 0.3-0.8 1-0.8 1.7 0 0.6-0.2 0.8-0.5 1.3-0.1 0.2-0.2 0.3-0.2 0.6 0.1 0.2 0.2 0.5 0.3 0.7 0.3 0.3 0.9 0.5 1.1 0.9 0.1 0 0.3 0.3 0.3 0.4 0.1 0.3-0.2 0.5 0 0.8z"/></g><path class="j" d="m410 118.3c-0.9-0.6-5.5 0.6-5.7 1.6-0.3 1.1 2 2.4 3.7 1.9 1.8-0.5 3-2.7 2-3.5z"/><path class="k" d="m407.3 184.8c0 0 16 4.3 30.7-6 14.6-10.3 13-33.3 13-33.3 0 0 0 18.3-14.5 29.6-13.9 10.8-29.2 9.7-29.2 9.7z"/><path class="l" d="m422.3 116.8c2.5 5.5-1.8 12.7-9.6 16.2-7.8 3.5-16.1 1.9-18.5-3.6-2.5-5.5 1.8-12.7 9.6-16.2 7.8-3.5 16.1-1.9 18.5 3.6z"/><path class="m" d="m383.7 186l4.9-6.1c0 0-1.2 5.1-4.9 6.1z"/><path class="j" d="m408.4 212.1c0 0 3.3-3.7 4.9-0.4z"/><g style="mix-blend-mode:soft-light"><path class="j" d="m446 171.6c-3.5-25.7-20-37.1-33.2-42.2-14.4-5.5-28.1-4.8-28.2-4.8l-0.1-0.3c0.2 0 14-0.6 28.4 4.9 8.4 3.2 15.5 7.9 20.9 13.9 6.7 7.5 10.9 17.1 12.4 28.5z"/><path class="j" d="m395.7 181.7l-0.1-0.2c20.6-5.8 34.4-15.4 41-28.7 8.4-16.7 2-33.6 1.9-33.7l0.2-0.1c0.1 0.2 6.5 17.1-1.9 33.9-6.6 13.4-20.5 23-41.1 28.8z"/><path class="j" d="m406.2 184.2c-5.4 0-9.1-0.8-9.2-0.8l0.1-0.2c0.1 0 7.9 1.7 17.4 0.1 8.9-1.5 21.1-6.2 29.2-20.2 8.1-14 6.2-25.2 3.3-32.2-3.2-7.5-8.4-11.7-8.5-11.8l0.2-0.2c0 0.1 5.3 4.4 8.5 11.9 3 7 4.8 18.3-3.3 32.4-8.1 14.1-20.4 18.9-29.3 20.4-3.1 0.5-5.9 0.6-8.4 0.6z"/><path class="j" d="m394 181l-0.3-0.1c9.9-24.6 20.6-40.9 27.8-50.1 7.8-10.1 13.4-14.4 13.4-14.4l0.2 0.2c-0.1 0-5.6 4.3-13.4 14.3-7.2 9.3-17.8 25.5-27.7 50.1z"/><path class="j" d="m391.4 178.8c-0.1-0.1-1.8-8.5-1.5-19.1 0.3-9.8 2.3-23.7 10.8-33.7 7.8-9.3 16.3-11.7 22-12.1 6.3-0.4 10.7 1.5 10.8 1.5l-0.1 0.2c-0.1 0-4.5-1.8-10.7-1.4-5.7 0.4-14.1 2.7-21.9 12-8.3 9.9-10.4 23.7-10.6 33.5-0.3 10.6 1.4 18.9 1.4 19z"/><path class="j" d="m388.6 178.8c-0.1 0-4.3-8.1-6.5-18.7-2-9.9-2.5-24 6.2-35.6 7.8-10.3 19.2-12.5 27.4-12.5q0 0 0 0c8.9 0 16 2.5 16 2.5v0.2c-0.1 0-7.2-2.5-16-2.5q0 0 0 0c-8.2 0-19.5 2.2-27.2 12.5-8.7 11.5-8.1 25.5-6.1 35.3 2.1 10.7 6.3 18.7 6.4 18.7z"/><path class="j" d="m433.3 183.2c-9.3-20.7-24.5-28.5-35.6-31.3-12.1-3.1-22-1.3-22.1-1.3l-0.1-0.2c0.1-0.1 10.1-1.9 22.2 1.2 7.1 1.8 13.6 5 19.1 9.4 7 5.4 12.6 12.9 16.7 22z"/><path class="j" d="m453 149.3c-6.2-20.9-19.4-29.9-29.4-33.7-10.8-4.2-20.2-3.4-20.3-3.4v-0.2c0.1 0 9.6-0.8 20.4 3.3 6.4 2.5 12 6.2 16.6 10.9 5.9 6 10.2 13.8 13 23.1z"/><path class="j" d="m416.9 188.1c-6.5-10.5-16.1-15.4-23-17.7-7.5-2.5-13.5-2.5-13.7-2.5q0 0 0 0v-0.3q0 0 0 0c0.2 0 6.3 0 13.8 2.5 6.9 2.3 16.6 7.3 23.1 17.8z"/></g><path class="n" d="m589.1 298.7l-53.9-3.7-398.9-2.3-112.8 8.5z"/><path class="o" d="m94.9 156.8l45.5 21.4v117.3l-40.1 3.5z"/><path class="p" d="m87 299l-11.7-140.1 19.6-2.1 5.4 142.2z"/><path class="q" d="m94.9 156.8l5.4 142.2 0.8-0.3-4.8-141.2z"/><path class="o" d="m518.6 156.8l-45.6 21.4v117.3l40.2 3.5z"/><path class="p" d="m526.4 299l11.7-140.1-19.5-2.1-5.4 142.2z"/><path class="q" d="m518.6 156.8l-6.3 142.1 0.9 0.1 6.8-142.2z"/><path class="r" d="m335.8 232.8c0 0 2.5 7.6 1.5 14.1l60.2-9.2c0 0 4.7-5.9 0.2-19.9z"/><path class="s" d="m333.9 233.1l1.9-0.1 62.1-14.5-0.2-0.7z"/><path class="t" d="m396.4 218.9c0 0 5.3 5.6 0.3 18.9l0.8-0.1c0 0 4.9-7.1 0.4-19.2z"/><path class="u" d="m335.8 232.8l0.2 1.1 62.2-14.4-0.3-1z"/><path class="v" d="m399 215.6l98.1 6.7c0 0 7.6 7.6 2.2 21.1l-100.1-3.3c0 0 5.2-10.4-0.2-24.5z"/><path class="w" d="m484.9 243.1l-0.9-0.3c4.6-14.3-0.1-21-0.1-21.1l0.8-0.4c0.1 0.1 4.9 7.1 0.2 21.8z"/><path class="x" d="m426.8 241.3l-0.9-0.4c5.7-12.3 0.6-23 0.6-23.1l0.9-0.3c0 0.1 5.2 11.1-0.6 23.8z"/><path class="y" d="m430.4 217.7c0 0 6 7.2 0 23.5l8.4 0.3c0 0 6.8-10.2 0.6-23.1z"/><path class="s" d="m334.7 248.7l93.1-3.2 71-2-99.5-3.4z"/><path class="z" d="m334.7 248.7c0 0-0.7-0.9-0.1-1.7l62.9-9.3c0 0 4.4-6.5 0.2-19.9l-63.8 15.3c0 0-0.9-0.5 0-2l65.1-15.5c0 0 6.1 7.3 0.6 24.5z"/><path class="A" d="m450.1 219.1c0 0 5.5 9.1 0.1 22.7l-11.4-0.3c0 0 7-10.4 0.6-23.1z"/><path class="B" d="m399 215.6l98.1 6.7c0 0 7.6 7.6 2.2 21.1l-100.1-3.3c0 0 5.2-10.4-0.2-24.5z"/><path class="C" d="m334.7 274.5c0 0-0.7-0.9-0.1-1.7l62.9-7.3c0 0 4.4-10.3 0.2-23.7l-63.8 9.6c0 0-0.9-0.4 0-1.9l65.1-9.9c0 0 5.8 11.1 0.3 28.2z"/><path class="r" d="m335.8 251.2c0 0 2.5 15 1.5 21.5l60.2-7.2c0 0 4.7-9.7 0.2-23.7z"/><path class="D" d="m333.9 251.4h1.9l62.1-8.9-0.2-0.7z"/><path class="E" d="m396.7 242.7c0 0 6.2 9.2 0 22.8h0.8c0 0 4.9-10.9 0.4-23z"/><path class="u" d="m335.8 251.2l0.2 1.1 61.2-8.7-0.5-0.9z"/><path class="F" d="m399 239.6l101.2 4.4c0 0 7 13-1.1 27.2l-99.9-3.3c0 0 4.8-14.3-0.2-28.3z"/><path class="G" d="m406.5 244c0 0 2.7 5.9 0.2 18.1l15.4 0.9c0 0 3.5-7.4 0.7-17.8z"/><g style="mix-blend-mode:soft-light"><path class="H" d="m483.6 270.8l-1-0.3c5-15.5 0-26.8 0-26.9l0.9-0.5c0 0.2 5.2 11.8 0.1 27.7z"/></g><g style="mix-blend-mode:soft-light"><path class="H" d="m424.9 269l-0.8-0.4c5.5-12.7 0.6-27.4 0.6-27.6l0.8-0.3c0.1 0.1 5.1 15.2-0.6 28.3z"/></g><path class="B" d="m399 239.6l101.2 4.4c0 0 7 13-1.1 27.2l-99.9-3.3c0 0 4.8-14.3-0.2-28.3z"/><path class="I" d="m334.7 274.5l93.1-1.3 71-2-99.5-3.3z"/><path class="J" d="m337.2 296.9c0 0-0.6-1 0-1.7l62.9-0.2c0 0 4.8-10.1 1.1-23.6l-64 5.1c0 0-1-0.4 0-1.9l65.4-5.4c0 0 5.3 11.3-0.8 28.2z"/><path class="r" d="m339 276.4c0 0 2.2 12.3 0.9 18.8l60.2-0.2c0 0 5-9.5 1.1-23.6z"/><path class="K" d="m337.2 276.5l1.9 0.1 62.2-4.6-0.1-0.6z"/><path class="L" d="m400.1 272.2c0 0 5.9 9.5-0.8 22.8h0.8c0 0 5.3-10.7 1.2-23z"/><path class="M" d="m402.6 269.2l98.8 2.2c0 0 6.9 11.6 0 26h-99.6c0 0 5.6-14.1 0.8-28.2z"/><path class="u" d="m339 276.4l0.2 1.1 61.4-4.4-0.5-0.9z"/><path class="u" d="m385.3 281.4l0.8 11.7h-7.4l-0.8-10.4z"/><path class="N" d="m385.3 281.4l-7.4 1.3c0 0-4.5 2.1-4.7 7.7h10.3c0 0-1.5-4.5 1.8-9z"/><path class="O" d="m494.9 275.8c0 0 3.2 5.2 0 16.9h5.2c0 0 2.8-9.6 0-16.9z"/><path class="P" d="m429.3 269.8c0 0 6.9 10.5 1 27.6h1c0 0 6-14.1 0.3-27.6z"/><path class="Q" d="m411.7 269.4c0 0 5.3 11.1 0 28h-1.7c0 0 5.6-14 0.7-28z"/><path class="B" d="m402.6 269.2l98.8 2.2c0 0 6.9 11.6 0 26h-99.6c0 0 5.6-14.1 0.8-28.2z"/><path class="R" d="m356.9 296.9v-1.8h3.1l0.8-20.3h-2.6l0.1-4.6 2.1-0.2 0.9-22.5h-1l0.2-4.3 1.7-0.3v-16.2l-0.6-0.4 0.6-2-32 7.8 5.6 64.8z"/><path class="S" d="m192.5 195h18.2l55-26.2-3.9 128.5h-59.1z"/><path class="T" d="m197.9 297.3l-5.4-102.3 43.8-26.2v128.5z"/><path class="s" d="m236.3 168.8h2.8l-1.2 128.5h-2.1z"/><path class="U" d="m239.1 172.1c0 0 10 3.7 22.7 1.8l-4 121.8h-19.9z"/><path class="s" d="m261.8 297.3l3.9-128.5 2.7 0.5-5.4 128z"/><path class="V" d="m192.5 195l5.4 102.3h2.8l-5.5-103.9h-0.6z"/><path class="W" d="m202.2 253.2l-2.6-48.9 29.5-16.5v61.4z"/><path class="X" d="m202.2 257.1l0.6 11.5 26.3-1.9v-14.3z"/><path class="X" d="m209.1 295.7v-1l15-0.4v1.4z"/><path class="Y" d="m229.1 173.1l7.2 8.2v-12.5z"/><path class="Z" d="m230.1 297.3l5.7-10.4v10.4z"/><path class="a0" d="m236.3 181.3l2.6 0.3 0.2-12.8h-2.8z"/><path class="a0" d="m265.3 183h2.5l0.6-13.7-2.7-0.5z"/><path class="a0" d="m235.8 286.9h2.1v10.4h-2.1z"/><path class="a0" d="m261.8 297.3l0.3-9.1 1.3 0.3-0.4 8.8z"/><path class="u" d="m243.7 207.4l9.8 1.2v-7.5l-9.8-2.5z"/><path class="a1" d="m243.7 198.6v8.8l7.6-2.2v-10.3z"/><path class="u" d="m222.2 177.2l-26.6 78.2-3.2-60.4 2.2-1.6h0.6z"/><path class="a2" d="m264.2 133.3c0 0 0.2-2.9-1.5-6.1-2.8-5.3-7.4-8.5-7.4-8.5l-97.7 59.4c0 0 1.4 11 8.9 14.6z"/><path class="a3" d="m157.6 178.1l-4.1-30.4 76.6-47.4c0 0 3 3.6 3.8 4.4 4.5 4.6 21.4 14 21.4 14z"/><path class="a4" d="m211.9 156.9l-0.9-1.8 3-1.7 0.9 2.1z"/><path class="a4" d="m241.7 137.1l1.2 2.2 16.9-10c0 0 0.4-0.9-1-2.4z"/><path class="a5" d="m194.1 125.3l32.6-19.6 19.5 14.5-37.1 22.7z"/><path class="u" d="m192.9 126l-16.7 10.5 11 18.1 19.9-10.7z"/><path class="u" d="m235.4 106.1l-30.5 9.8 25.2-15.6c0 0 2.2 3.4 5.3 5.8z"/><path class="s" d="m565.7 104.6l-32.8 4-107.7-31.5c0 0-5.3 3-6.6 18.1h-1.5c0 0-1.8-14.2 6.8-19.9l49.9-11.2z"/><path class="a6" d="m566.3 102.8l-92.4-39.9-0.7 2.1 92.5 39.6z"/><path class="r" d="m425.2 77.1l47.6-9.1c0 0-7 10.3-9.1 28.4l-45.1-1.2c0 0-0.3-14.8 6.6-18.1z"/><path class="a7" d="m559.1 104.5c0 0-1.2 1.4-2.8 4.7l-5.1 0.5 4.1 1.7q-0.3 0.7-0.6 1.5l-1.2 0.2 1 0.3c-1.4 3.9-2.9 9.2-4 16.1l-86.8-33.1c0 0 0.2-18 9.1-28.4z"/><path class="a8" d="m473.9 62.9l-50.5 11.3c0 0-9.4 8.5-7.7 22.3l47.8 2.6 0.9-2.6-47.3-1.3c0 0-1.8-11 6.8-19.9l49.3-10.3z"/><path class="a6" d="m464.4 96.5l90.5 34.7-0.6 1.7-90.8-33.8z"/><path class="s" d="m554.3 132.9l-44.8-9.9-93.8-26.5 47.8 2.6z"/><path class="a9" d="m469.2 73.4l-40.5 6.7 39.8-5.3 82.7 34.9 5.1-0.5z"/><path class="a9" d="m467.5 77.2l-32.2 3.8 32-3.4 86.2 35.5 1.2-0.2z"/><path class="u" d="m418.6 95.2l2.5 0.1c0 0-1.6-12.1 4.8-17.5l45.7-8.3 1.2-1.5-47.6 9.1c0 0-6.7 1.3-6.6 18.1z"/><path class="W" d="m437.3 102.1l30.4 2.1 12.8 4.4-30.9-3.3z"/><path class="aa" d="m425.2 77.1c0 0-6.3 2.7-6.6 18.1 0 0-1.6-14.3 6.6-18.1z"/><path class="ab" d="m454.2 79c0 0-4-3.7-7.4-4l-2.5 0.3-4.9 1.2c0 0 6.2 0.8 8.9 3.1z"/><path class="ac" d="m446.8 75c0 0-7.8-0.2-10.8 14-2.6 12.5-6.5 17.2-6.5 17.2l-10.6-1c10-16.8 8.3-24.2 20.5-28.7 0 0 4.6-1.4 7.4-1.5z"/><path class="u" d="m454.2 79l-2.3 17.1-4.4-0.1-0.8 2.2-6.2-0.4 0.2-2 4.6 0.1 3-16.3z"/><path class="ad" d="m273.4 168.7l-1.2 0.8 0.6 18.5 1.2 1.4z"/><path class="ad" d="m274.1 192.6l-1 0.9 0.5 12.7 1 1.2z"/><path class="ae" d="m307.7 297.9c-21.2 0-22.8-0.4-23.5-0.6-4.5-1.3-7-5.7-7.5-8.3-0.5-2.7-3.3-132-3.3-133.2 0-9.3 5-11.9 6.5-12.5 3.3-1.2 34.4-1.2 40.6-1.2 10.6 0 28.6 0.1 30.7 0.9 6.1 2.2 7.7 7.9 7.7 10.6 0 1.2-2.9 131.6-3.7 135.3-1 4.6-6.6 7.9-8.6 8.4-1.6 0.4-26.4 0.6-38.9 0.6q0 0 0 0z"/><path class="af" d="m307.7 296.6c-13.9 0-21.7-0.2-23.1-0.6-4-1.1-6.1-5-6.6-7.3-0.5-2.4-3.3-131.7-3.3-132.9 0.1-8.5 4.4-10.7 5.7-11.2 2.5-1 26.4-1.2 40.1-1.2 4.7 0 28.1 0 30.2 0.8 5.5 2 6.9 7 6.9 9.4 0 1.2-2.9 131.3-3.7 135-0.8 3.8-5.8 7-7.6 7.4-1.2 0.3-23.5 0.6-38.6 0.6q0 0 0 0z"/><path class="ad" d="m280.6 145.2c-2.5 0.9-5.2 4.1-5.2 10.6 0 4.3 2.8 130.7 3.2 132.8 0.5 2.1 2.5 5.7 6.2 6.8 3.7 1.1 59.7 0.4 61.3 0 1.7-0.4 6.4-3.4 7.2-6.9 0.7-3.5 3.6-132.6 3.6-134.9 0-2.2-1.4-7-6.4-8.8-3.1-1.1-66.1-1-69.9 0.4z"/><path class="ag" d="m308.1 294c-18.5 0-22.4-0.4-22.8-0.5-2.9-0.9-4.4-3.9-4.7-5.3-0.5-4.4-3.2-128.6-3.2-132.3 0-4.9 2.5-8.3 4.8-8.9 2.8-0.7 34.8-0.7 56-0.7 9.3 0 11.2 0.3 11.6 0.3 3.8 1.6 5.2 5.7 5.2 7 0 1.1-2.9 130.1-3.7 134.5-0.5 2.4-3.2 4.6-5.6 5.4-1.8 0.2-21 0.5-37.6 0.5q0 0 0 0z"/><path fill-rule="evenodd" class="ah" d="m351.1 156.8l-1.8 3.1h-3.5l-1.8-3.1 1.8-3h3.5zm-1.7 0c0-1-0.8-1.9-1.8-1.9-1 0-1.8 0.9-1.8 1.9 0 1 0.8 1.8 1.8 1.8 1 0 1.8-0.8 1.8-1.8z"/><path class="ai" d="m352.9 160.7l-72 0.5v-8.8l72 0.5z"/><path class="j" d="m282.5 185l1.1 92.5c0 0-2.2-57.1-1.1-92.5z"/><path class="aj" d="m280.6 145.2l69.9-0.4c0 0-38.7-1.2-69.9 0.4z"/><path class="ak" d="m349.6 145.2c0 0 6.1 1.4 7 7.9l-0.9 39.2 0.4-39.5c0 0-0.2-4.8-6.5-7.6z"/><path class="al" d="m278.2 258.8l0.9 30c0 0 1 4.5 6 6.4l13.3 0.2-13.1-0.8c0 0-4.7-1.8-5.5-6.4z"/><path class="am" d="m349.8 146.6l-4.1 146.9c0 0 4.3-2 5.6-5.4l3.7-134.5c0 0-0.6-5.3-5.2-7z"/><path class="j" d="m347.3 257.4l2.7-81.7c0 0-4.9 58-2.7 81.7z"/><path class="an" d="m280 282.4l3.6-3.1-1.3-92-4.1 0.1z"/><path class="ao" d="m299.4 275.9l0.5 9.2h31.1l0.9-9.2z"/><path class="ap" d="m321.1 282.5l2.1-2-2.1-2.1 0.1 0.7 1.3 1.4-1.4 1.3z"/><path class="aq" d="m299.9 285.1l1.7 0.5 27.2-0.1 2.2-0.4z"/><path class="ar" d="m343.5 219.3h-55.4l-2.4-42.7h60.9z"/><path class="j" d="m286 181.9l50.7 37.4h6.8l0.6-7.7-52.4-35h-6z"/><path class="j" d="m339.9 176.6l-52.1 37.1 0.3 5.6h6l52.2-38.2 0.3-4.5z"/><path class="as" d="m344.1 176.6l-56 41.6v1.1h1.6l56.9-41.6v-1.1z"/><path class="as" d="m285.7 177.3l56 42h1.8l0.1-1.8-56.1-40.9h-1.8z"/><path class="j" d="m345.4 193.5l-58.7 0.8 0.7 10.3 57.3-1.7z"/><path class="j" d="m310.1 176.6v42.7h10.7l0.9-42.7z"/><path class="as" d="m286.8 195.8l58.5-0.6-0.4 5.7-57.7 1.2z"/><path class="as" d="m311.6 176.6l0.5 42.7h7.3l1-42.7z"/><path class="at" d="m23.5 301.2l2.7 19.3h557.6l5.3-21.8z"/><g style="opacity:.3"><path class="o" d="m84.3 266.7c0 0 6.5-30.8 13.4-36l0.1 2.6c0 0-8.7 9.2-13.1 37.8z"/><path class="o" d="m83 250.9c0 0-1.7-49.9 13.3-58v7.9c0 0-12.8-3-13.1 52.9z"/><path class="o" d="m98 238.9c0 0-1.4 1.9-2.1 5.6-0.7 3.8 2.6 8.6 2.6 8.6z"/><path class="o" d="m98.8 260.1c0 0-6.1 3.6-13.2 22.3v1.8c0 0 6.7-20.6 13.2-23z"/><path class="o" d="m81.2 229.3c0 0 3.3-45.3 14.5-50.6l0.2 4.3c0 0-11.9 6.4-14.5 49.1z"/><path class="o" d="m76.5 173.1l8.2-15.2-2.5 0.3-6 11.6z"/><path class="o" d="m80.8 301.1l7.7 19.4h16.2l-15.3-19.4z"/><path class="o" d="m103.9 301l7.5 19.5h3.6c0 0-7.1-6.5-9.5-19.4z"/><path class="o" d="m337.2 320.5l-20.3-20.8 5.2 0.2 16.3 20.6z"/><path class="o" d="m316.9 320.5c0 0-11.5-12.5-33.3-17.9-21.8-5.3-80.9 17.9-80.9 17.9h5.2c0 0 51.1-22.9 74.3-16.3 23.2 6.7 33.4 16.3 33.4 16.3z"/><path class="o" d="m257.2 320.5c0 0-16.3-6.7-21.4 0z"/><path class="o" d="m150.4 320.5c0 0 60.1-20.1 87.5-20.2h-10.8c0 0-37.2 5.8-80.5 20.2z"/><path class="o" d="m369.3 320.5c0 0 110.3-9.7 139.4-21.2l-5.9-0.4c0 0-44.5 15.4-138.7 21.6z"/><path class="o" d="m445.7 299.2c0 0 3.9 2 8.9 2 5 0 13.2-2.5 13.2-2.5z"/><path class="o" d="m516.9 298.7c0 0-15.9 15.2-53.3 21.8h4.2c0 0 35-9.1 51-21.6z"/><path class="o" d="m559.3 298.8l-45.8 21.7h2.3l55.4-21.5z"/><path class="o" d="m515 251c0 0 13.1-12.5 17.7-27.4l0.4-4.7c0 0-5.4 20.7-18.1 30.6z"/><path class="o" d="m515 234.9c0 0 13 4.7 20.5-44.4l-0.6 7.6c0 0-4.5 35.2-19.3 38.5z"/><path class="o" d="m516.2 219.4c0 0 14.4-21.8 20.7-46.3l0.4-4c0 0-7.2 27.2-21.1 44.5z"/><path class="o" d="m517.9 175.7c0 0 5.2 8.6-0.7 18.3z"/><path class="o" d="m529.1 267.2l-15.6 20.1-0.3 5.4 15.9-24.9z"/></g><path class="au" d="m104.7 298.1l-5.9-118.1c0 0 10.9-4.1 22.4-0.7l3.6 118.8z"/><path class="s" d="m121.2 179.3l22.7 10.5-0.2 107.7-18.9 0.6z"/><path class="av" d="m99.7 194.3c0 0 7.9-4.9 21.9-1.4l0.3 10.7c0 0-8.3-1.7-21.9 0.5z"/><path class="aw" d="m100.2 208.4c0 0 11.6-2.5 21.9-1.2v1.4c0 0-2.8-1.6-21.9 0.4z"/><path class="ax" d="m99.7 195.8c0 0 10.5-4.7 22-1.3l0.2 7.4c0 0-12-1.5-21.9 1.2z"/><path class="ay" d="m103.8 281.3l20.5-0.5-0.1-1.7-20.5 1z"/><path class="A" d="m123.7 180.5l2.9 117.5h-0.7l-2.8-117.9z"/><path class="R" d="m98.8 180l2.3-0.7 6.6 118.7-3 0.1z"/><path class="az" d="m127.7 298.7l-2.9-110c0 0 7.7-2.7 15-0.6l2.6 110.6z"/><path class="aA" d="m139.8 188.1l19.4 11.5-0.7 98.5-16.1 0.6z"/><path class="aB" d="m128 256.8l-1.4-47.5c0 0 5-1.4 12.4-0.5l0.6 47.4z"/><path class="aC" d="m126.7 262.7l14.8-1v0.5l-14.8 0.9z"/><path class="aC" d="m126.9 270h14.8v0.6h-14.8z"/><path class="aD" d="m128.9 295.4l-0.9-22.4 12.7-0.3v22.7z"/><path class="aE" d="m129.4 264.2h0.3v1.4h0.9v0.2h-1.2z"/><path fill-rule="evenodd" class="aE" d="m130.7 265c0-0.4 0.3-0.8 0.9-0.8 0.5 0 0.8 0.4 0.8 0.8 0 0.5-0.3 0.9-0.8 0.9-0.6 0-0.9-0.4-0.9-0.9zm1.4 0c0-0.3-0.2-0.5-0.5-0.5-0.4 0-0.6 0.2-0.6 0.5 0 0.4 0.2 0.6 0.6 0.6 0.3 0 0.5-0.2 0.5-0.6z"/><path fill-rule="evenodd" class="aE" d="m133.8 265.8l-0.3-0.4q-0.1 0-0.1 0h-0.4v0.4h-0.3v-1.6h0.7c0.4 0 0.7 0.2 0.7 0.6q0 0.4-0.3 0.5l0.3 0.5zm-0.4-1.3h-0.3v0.6h0.3q0.4 0 0.4-0.3 0-0.3-0.4-0.3z"/><path class="aE" d="m135.7 265.6v0.2h-1.3v-1.6h1.2v0.3h-0.9v0.4h0.8v0.2h-0.8v0.5z"/><path class="aE" d="m137.5 265.8v-1l-0.6 0.9h-0.1l-0.5-0.9v1h-0.3v-1.6h0.2l0.7 1.1 0.6-1.1h0.3v1.6z"/><path class="aE" d="m129.9 267h0.3v1.6h-0.3z"/><path fill-rule="evenodd" class="aE" d="m132 267.6c0 0.3-0.3 0.6-0.7 0.6h-0.4v0.4h-0.3v-1.6h0.7c0.4 0 0.7 0.2 0.7 0.6zm-0.3 0q0-0.3-0.4-0.3h-0.4v0.6h0.4q0.4 0 0.4-0.3z"/><path class="aE" d="m132.1 268.5l0.1-0.3c0.2 0.1 0.4 0.2 0.6 0.2 0.2 0 0.3-0.1 0.3-0.2 0-0.4-0.9-0.1-0.9-0.7 0-0.3 0.2-0.5 0.6-0.5 0.2 0 0.4 0 0.6 0.1l-0.1 0.3q-0.2-0.2-0.5-0.2c-0.2 0-0.3 0.1-0.3 0.3 0 0.3 0.9 0.1 0.9 0.7 0 0.2-0.2 0.5-0.6 0.5-0.3 0-0.5-0.1-0.7-0.2z"/><path class="aE" d="m133.7 267.9v-0.9h0.3v0.9q0 0.5 0.4 0.5 0.4 0 0.5-0.5v-0.9h0.2v0.9c0 0.5-0.2 0.8-0.7 0.8-0.4 0-0.7-0.3-0.7-0.8z"/><path class="aE" d="m137.1 268.6v-1l-0.6 0.8h-0.1l-0.5-0.8v1h-0.3v-1.6h0.2l0.7 1.1 0.6-1.1h0.2v1.6z"/><path class="aB" d="m125.1 199.1c0 0 5.1-2.2 14.9-0.9l-0.1-3.7c0 0-6-2.3-14.9 0.8z"/><path class="R" d="m124.8 188.7l2.9 110h2.1l-4-110.3z"/><path class="aF" d="m121.9 299.3v-14.8l74.3-3.2v18z"/><path class="aG" d="m196.2 281.3c0 0 34.9 0.3 47.5-12.2l-65.7 6.1c0 0-6.8 6.4-56.1 9.3z"/><path class="aH" d="m243.7 299.3h-47.5v-18c33.5-0.4 46.6-11.3 46.6-11.3q0.5 0.9 0.9 2c0 0-10.1 6.8-26.4 8.8 0.7-0.2 4 0.5 26.8-2.4 2.2 5.5-0.4 20.9-0.4 20.9z"/><path class="a6" d="m244.1 299.3h-47.9v-18c0 0 33.9-0.7 47.5-12.2l0.4 0.9c0 0-13.7 11.4-47.1 12l-0.6 17 47.8-0.3z"/><path class="aI" d="m197 282h0.9v17h-1.5z"/><path class="aJ" d="m130.3 298.1v-12l59.6-1.6c0 0-0.9 14.5-0.8 13.5z"/><path class="aJ" d="m191.7 298.1v-13.6l2.6-0.3-1.3 13.9z"/><path class="aK" d="m178 275.2l49.1 1.6c0 0 13-3.6 16.6-7.7z"/><path class="j" d="m244.1 278.4l-17.3 0.6c0 0-7.6 1.7-9.5 1.8 0 0 14.9-0.2 26.8-2.4z"/><path class="aL" d="m43.7 299.7l-0.8-4.3 37.9-1.7 0.4 5z"/><path class="aM" d="m62.1 294.6l-6.1-98.2h-2.3l7.2 98.3z"/><path class="aN" d="m58 234.8l-51.8 0.8v-34.7l47.7-1.8c0 0 1.1-0.6 2.3 0z"/><path class="as" d="m6.7 221l50.8-1.2-1.2-20.4-50.3 1.4c0 0-0.9 0.8-0.1 2.2z"/><path class="aO" d="m51 295l0.4 4.5h6.5l-1-4.8z"/><path class="aP" d="m77.4 298.8h-1.1v-4.9h1.1z"/></svg>