<svg version="1.2" xmlns="http://www.w3.org/2000/svg" viewBox="0 0 200 200" width="200" height="200"><defs><clipPath clipPathUnits="userSpaceOnUse" id="cp1"><path d="m99.67 199.01c-54.94 0-99.35-44.4-99.35-99.34 0-54.94 44.41-99.35 99.35-99.35 54.94 0 99.34 44.41 99.34 99.35 0 54.94-44.4 99.34-99.34 99.34z"/></clipPath></defs><style>.a{fill:#f60}.b{fill:#ff802c}.c{fill:#fcd258}.d{opacity:.5;mix-blend-mode:multiply;fill:#fcd258}.e{mix-blend-mode:multiply;fill:#fc9062}</style><g clip-path="url(#cp1)"><path class="a" d="m99.7 199c-55 0-99.4-44.4-99.4-99.3 0-55 44.4-99.4 99.4-99.4 54.9 0 99.3 44.4 99.3 99.4 0 54.9-44.4 99.3-99.3 99.3z"/><path class="b" d="m100 0h100v200h-100z"/></g><path class="c" d="m152.8 85c-2.3-26.8-25-48.1-52.3-48.1-27.1 0-49.7 21-52.2 47.6-6.4 2.8-10.7 9.2-10.7 16.3v11.5c0 8 5.3 15.1 13.1 17.2 4.6 1.3 9.1-2.2 9.1-7v-31.9c0-3.1-1.9-5.7-4.5-6.7 2.8-22.5 22.1-40.1 45.2-40.1 23 0 42.3 17.5 45.2 39.8-3 0.8-5.4 3.5-5.4 7v31.9c0 4.1 3.4 7.2 7.2 7.2-2.6 15-12.1 27.9-26 34.7-1.8-2-5.3-2.8-8.7-1.7l-1.8 0.6c-4.4 1.4-7.1 5.2-6 8.6 1.1 3.4 5.5 5 9.9 3.6l1.7-0.6c4.2-1.3 6.8-4.8 6.2-8 15-7.3 25.2-21.4 27.6-37.7 7.2-2.5 12.2-9.2 12.2-16.9v-11.5c0-6.8-3.9-12.8-9.8-15.8z"/><path class="d" d="m39.5 101.6v9.9c0 6.8 3.7 12.8 9 14.7v-39.3c-5.3 1.9-9 7.9-9 14.7z"/><path class="e" d="m50.7 83.6q-0.2 0.1-0.3 0.1v45.7q0.1 0 0.3 0.1c4.6 1.3 9.1-2.2 9.1-7v-31.9c0-4.8-4.5-8.3-9.1-7z"/><path class="d" d="m160.7 111.5v-9.9c0-6.8-3.7-12.8-9-14.7v39.3c5.3-1.9 9-7.9 9-14.7z"/><path class="e" d="m149.5 129.5q0.1-0.1 0.3-0.1v-45.7q-0.2 0-0.3-0.1c-4.6-1.3-9.1 2.2-9.1 7v31.9c0 4.8 4.5 8.3 9.1 7z"/></svg>