<svg version="1.2" xmlns="http://www.w3.org/2000/svg" viewBox="0 0 1144 1144" width="1144" height="1144"><defs><linearGradient id="P" gradientUnits="userSpaceOnUse"/><linearGradient id="g1" x2="1" href="#P" gradientTransform="matrix(1145,-995.333,995.33,1144.997,0,1070.154)"><stop stop-color="#617fd3"/><stop offset=".01" stop-color="#617fd3"/><stop offset="1" stop-color="#5dc9d3"/></linearGradient></defs><style>.a{fill:url(#g1)}.b{fill:#fff}</style><path class="a" d="m572.5 1145c-316.6 0-572.5-255.9-572.5-572.5 0-316.6 255.9-572.5 572.5-572.5 316.6 0 572.5 255.9 572.5 572.5 0 316.6-255.9 572.5-572.5 572.5z"/><path class="b" d="m666 380l111 1-1 118-108.5-0.5z"/><path class="b" d="m554 324l127 1v260c0 0 7.4 97.1 108 111l1 128c0 0-118 3.3-193-112 0 0-41.1-57.1-42-127z"/><path class="b" d="m364 818v-218c0 0 9.2-69 127-73l0.3 221.1c0 0-20.6 72.4-127.3 69.9z"/><path class="b" d="m363 478l-1-109c0 0 1.8-45.8 131-45v112c0 0-25.4 53.8-130 42z"/></svg>