<svg version="1.2" xmlns="http://www.w3.org/2000/svg" viewBox="0 0 500 500" width="500" height="500"><defs><linearGradient id="P" gradientUnits="userSpaceOnUse"/><linearGradient id="g1" x1="0" y1="467.7" x2="500.4" y2="32.7" href="#P"><stop stop-color="#f9d897"/><stop offset="1" stop-color="#f9a3a3"/></linearGradient></defs><style>.a{fill:url(#g1)}.b{fill:#a84fe7}.c{fill:#bcfc23}.d{fill:#16baff}.e{fill:#ea64e8}</style><path class="a" d="m250.2 500.4c-138.4 0-250.2-111.8-250.2-250.2 0-138.4 111.8-250.2 250.2-250.2 138.4 0 250.2 111.8 250.2 250.2 0 138.4-111.8 250.2-250.2 250.2z"/><path class="b" d="m89 319.9q-5.8 0-9.6-2.8-3.7-2.9-5.2-8.6-1.6-5.7-2.6-18.6-1-13.1-1-28.2 0-16.3 0.7-31.7 0.8-15.6 2.9-27.3 1.9-10.6 6-15.8 4.3-5.1 12.8-5.1 6.7 0 11 3.2 4.5 3.1 6.7 10.3 2.3 7 2.3 18.9 0 2.9-0.2 6.1 0 3.2-0.3 6.8h0.7q7.7-18.7 15.5-29.2 7.7-10.4 15.2-14.6 7.4-4.1 13.9-4.1 8.1 0 12.4 6 4.5 6.1 4.5 15 0 12.5-10 23.7-9.8 11.2-32.2 24.1l1.3-4.9q19.5 14.4 28.5 27.3 9 12.7 9 26.9 0 9.3-5.4 15-5.3 5.5-15 5.5-8.3 0-15.5-5.3-7.2-5.3-13.3-17.3-6-12.1-10.8-32.4h-0.7q0.1 2.5 0.1 5.1 0.2 2.5 0 5 0 25.2-4.8 36.2-4.6 10.8-16.9 10.8zm-4.5 0q-5.9 0-9.7-2.8-3.6-2.9-5.2-8.6-1.5-5.7-2.5-18.6-1.1-13.1-1.1-28.2 0-16.3 0.7-31.7 0.9-15.6 2.9-27.3 1.9-10.6 6.1-15.8 4.3-5.1 12.7-5.1 6.8 0 11.1 3.2 4.5 3.1 6.7 10.3 2.2 7 2.2 18.9 0 2.9-0.1 6.1 0 3.2-0.4 6.8h0.7q7.8-18.7 15.5-29.2 7.8-10.4 15.2-14.6 7.4-4.1 14-4.1 8.1 0 12.4 6 4.5 6.1 4.5 15 0 12.5-10 23.7-9.9 11.2-32.3 24.1l1.4-4.9q19.5 14.4 28.5 27.3 8.9 12.7 8.9 26.9 0 9.3-5.3 15-5.4 5.5-15 5.5-8.3 0-15.5-5.3-7.3-5.3-13.3-17.3-6.1-12.1-10.9-32.4h-0.7q0.2 2.5 0.2 5.1 0.2 2.5 0 5 0 25.2-4.8 36.2-4.7 10.8-16.9 10.8z"/><path class="c" d="m209.2 155.5q10.6 0 15.1 5.5 4.7 5.5 4.7 12.7 0 8.8-5.7 13.7-5.7 4.7-15.9 4.7-10 0-15-5.3-4.8-5.3-4.8-12.5 0-9.3 5.9-14 6-4.8 15.7-4.8zm1.8 42.3q8.5 0 13.2 11.4 4.8 11.4 4.8 36.2 0 30.6-6.1 44-5.8 13.5-17.9 13.5-9.5 0-14-9.9-4.3-10-4.3-34.9 0-30.5 6.8-45.3 6.7-15 17.5-15zm-6.4-42.3q10.7 0 15.2 5.5 4.6 5.5 4.6 12.7 0 8.8-5.7 13.7-5.6 4.7-15.8 4.7-10 0-15-5.3-4.8-5.3-4.8-12.5 0-9.3 5.8-14 6-4.8 15.7-4.8zm1.9 42.3q8.5 0 13.1 11.4 4.8 11.4 4.8 36.2 0 30.6-6 44-5.9 13.5-17.9 13.5-9.5 0-14-9.9-4.3-10-4.3-34.9 0-30.5 6.7-45.3 6.7-15 17.6-15z"/><path class="d" d="m269.8 339.7q-16.2 0-25.5-13.9-9.2-14-9.2-42.7 0-28.4 8.8-41.5 8.8-13.3 25-13.3 10.2 0 17.8 4.6 7.6 4.5 13.8 12.9l-2.8 0.7q-1-6.8-2-14.4-0.9-7.8-1.4-14.6-0.5-6.8-0.5-10.8 0-9.1 3.8-14 3.8-5.2 11.7-5.2 8.8 0 14.5 6.7 5.7 6.4 8.4 19.7 1.7 8 3 20.3 1.3 12.1 2 25.6 0.9 13.3 0.9 25 0 21.1-2.9 32.9-2.8 11.7-8 16.5-5 4.7-11.7 4.7-7.9 0-11-5.9-3-5.9-3.3-19.1h3.4q-4.6 11.7-13.6 18.7-9 7.1-21.2 7.1zm17.4-33.8q3.5 0 6.4-2.5 2.9-2.4 4.7-7.6 1.7-5.1 1.7-13 0-10.3-3.1-16.7-3-6.5-10-6.5-5.9 0-9.5 5.7-3.5 5.7-3.5 17.3 0 10.2 3.7 16.8 3.6 6.5 9.6 6.5zm-21.9 33.8q-16.3 0-25.6-13.9-9.1-14-9.1-42.7 0-28.4 8.8-41.5 8.8-13.3 25-13.3 10.2 0 17.8 4.6 7.5 4.5 13.7 12.9l-2.7 0.7q-1-6.8-2.1-14.4-0.8-7.8-1.4-14.6-0.5-6.8-0.5-10.8 0-9.1 3.8-14 3.8-5.2 11.7-5.2 8.8 0 14.5 6.7 5.7 6.4 8.5 19.7 1.7 8 2.9 20.3 1.4 12.1 2.1 25.6 0.8 13.3 0.8 25 0 21.1-2.9 32.9-2.8 11.7-7.9 16.5-5 4.7-11.8 4.7-7.9 0-11-5.9-2.9-5.9-3.3-19.1h3.5q-4.7 11.7-13.6 18.7-9 7.1-21.2 7.1zm17.4-33.8q3.4 0 6.3-2.5 3-2.4 4.7-7.6 1.7-5.1 1.7-13 0-10.3-3.1-16.7-2.9-6.5-10-6.5-5.8 0-9.5 5.7-3.4 5.7-3.4 17.3 0 10.2 3.6 16.8 3.6 6.5 9.7 6.5z"/><path class="e" d="m399.9 178.3q18.7 0 26.8 7.2 8.2 7 8.2 18.2 0 7-4.3 11.5-4.1 4.6-11.7 4.6-5.5 0-11.9-1.9-6.2-2.1-14.3-2.1-3.8 0-5.9 1.5-1.9 1.6-1.9 4 0 2.5 2.1 4.2 2.2 1.5 9.7 2.5 13.1 1.1 22 4.5 9.2 3.4 13.8 10.6 4.7 7 4.7 19.6 0 18.4-12.6 26.7-12.4 8.4-34.7 8.4-15.3 0-24.6-3.3-9.3-3.4-13.5-9.3-4.1-6-4.1-13.8 0-7.6 4.5-11.8 4.6-4.3 10.8-4.3 4 0 8.5 1.3 4.5 1.1 9.5 2.5 5 1.3 10.1 1.3 6.9 0 6.9-4.4 0-1.5-0.8-2.6-0.7-1.4-3.3-2.3-2.4-1.1-7.6-1.7-11.5-1.5-20-4.6-8.4-3-13.1-9.3-4.7-6.4-4.7-17.4 0-17.8 13.5-28.8 13.4-11 37.9-11zm-4.5 0q18.6 0 26.7 7.2 8.3 7 8.3 18.2 0 7-4.3 11.5-4.2 4.6-11.7 4.6-5.6 0-11.9-1.9-6.3-2.1-14.4-2.1-3.8 0-5.8 1.5-1.9 1.6-1.9 4 0 2.5 2.1 4.2 2.2 1.5 9.6 2.5 13.1 1.1 22.1 4.5 9.1 3.4 13.8 10.6 4.6 7 4.6 19.6 0 18.4-12.6 26.7-12.4 8.4-34.6 8.4-15.4 0-24.7-3.3-9.3-3.4-13.4-9.3-4.2-6-4.2-13.8 0-7.6 4.5-11.8 4.7-4.3 10.9-4.3 3.9 0 8.4 1.3 4.5 1.1 9.5 2.5 5 1.3 10.2 1.3 6.9 0 6.9-4.4 0-1.5-0.9-2.6-0.7-1.4-3.3-2.3-2.4-1.1-7.5-1.7-11.6-1.5-20-4.6-8.5-3-13.1-9.3-4.7-6.4-4.7-17.4 0-17.8 13.4-28.8 13.5-11 38-11z"/></svg>