<svg version="1.2" xmlns="http://www.w3.org/2000/svg" viewBox="0 0 864 576" width="864" height="576"><defs><linearGradient id="P" gradientUnits="userSpaceOnUse"/><linearGradient id="g1" x1="622.1" y1="346.5" x2="647.2" y2="362.9" href="#P"><stop stop-color="#fff"/><stop offset="1" stop-color="#3b3b3b"/></linearGradient></defs><style>.a{mix-blend-mode:overlay;fill:#25008d}.b{fill:url(#g1)}.c{fill:#fff}.d{fill:#ffdc23}.e{fill:#ff5f15}.f{fill:#25008d}.g{fill:#ff0080}</style><path class="a" d="m215.8 297.6l-65.2-76.7 111.5-11.5 27.8-98.7 85.4 68.1 10.7-48.5 43.5 31.2 33-59.4 43 53 143-55.1-18.5 132.6 47.6 15.4-40.2 27.9 66.8 49.3-84.6 25.8-1.1 102.2-102.8-49.9 29.9 96-112.6-24-40.7 24.7-3.8-42.1-73.4 49.3-11.8-78.1-178.4 1.7z"/><path fill-rule="evenodd" class="b" d="m634.7 309.5q0 1.3 0 3.1c-0.1 1.2-0.4 2.6-0.6 4.2-1 6.5-3.5 16.6-12 29.9q1.6 1 1.6 1c8.6-13.5 11.3-23.9 12.3-30.6 0.1-1.7 0.5-3.1 0.5-4.4q0.1-1.9 0.1-3.1 0.1-2.5 0.1-2.5 0 0-1.9 0 0 0-0.1 2.4zm-143-114.4c5.7 1.5 11.3 3.4 17 5.1 2.8 0.9 5.6 1.9 8.3 2.9q2.1 0.7 4.2 1.4 2.1 0.8 4.1 1.6c11.1 4.1 21.7 9 32 14.2 10.3 5.2 20.1 11.1 29.2 17.6 9.1 6.4 17.5 13.4 24.7 21 7.1 7.5 13 15.6 17 23.7 4.1 8.2 6.3 16.4 6.6 24.5q1.9 0 1.9 0c-0.3-8.5-2.6-16.9-6.8-25.3-4.2-8.4-10.2-16.6-17.4-24.2-7.2-7.7-15.8-14.8-24.9-21.3-9.2-6.4-19.1-12.4-29.5-17.7-10.3-5.2-21-10.1-32.1-14.2q-2.1-0.8-4.1-1.6-2.1-0.8-4.2-1.5c-2.8-1-5.6-2-8.4-2.9-5.7-1.7-11.4-3.6-17.1-5.1-23-6.4-46.7-10.4-70.4-12.7q0 0-0.2 1.8c23.6 2.3 47.2 6.4 70.1 12.7zm-70.1-12.7q0.2-1.8 0.2-1.8-0.1 0-0.1 0 0 0-0.1 1.8 0 0 0 0zm0 0q0.1-1.8 0.1-1.8c-16-1.5-32.2-1.9-48.3-1.4q0 0 0.1 1.8c16-0.4 32.1 0 48.1 1.4zm-203.9 54c9.7-12.5 24.1-23 40.8-31 16.7-8.1 35.6-13.8 55-17.7 19.5-3.9 39.7-6 60-6.7q-0.1-1.8-0.1-1.8c-20.3 0.6-40.6 2.7-60.3 6.6-19.5 4-38.5 9.7-55.4 17.9-16.9 8.1-31.6 18.7-41.5 31.6-9.9 12.7-15.1 27.6-15.8 44.3q0 0 1.9 0.1c0.6-16.4 5.7-30.8 15.4-43.3zm-10.9 78.4c-3.3-12.1-4.8-23.9-4.5-35.1q-1.9-0.1-1.9-0.1c-0.3 11.4 1.2 23.5 4.6 35.7 3.1 12.2 8 24.5 13.7 36.7q0 0 1.7-0.8c-5.6-12.1-10.5-24.3-13.6-36.4zm13.6 36.4q-1.7 0.8-1.7 0.8 0 0 0 0 0 0 1.7-0.8 0 0 0 0zm66.4 67.5c-14.7-7.5-27.8-16.9-39-28.3-11.2-11.3-20.4-24.5-27.4-39.2q-1.7 0.8-1.7 0.8c7.1 14.9 16.4 28.3 27.7 39.7 11.4 11.5 24.7 21.1 39.5 28.6 29.6 15.2 64.5 22.1 99.9 22.8q0 0 0-1.9c-35.1-0.7-69.8-7.6-99-22.5zm272.5-19.5q-5.4 2.8-10.9 5.6-5.4 2.6-10.8 5.1-5.5 2.3-11 4.7c-14.8 6-30.1 10.9-45.7 15-31.2 8-63.4 12.1-95.1 11.6q0 1.9 0 1.9c31.9 0.5 64.3-3.7 95.6-11.7 15.6-4.1 31-9.1 45.9-15.1q5.6-2.3 11.1-4.7 5.4-2.5 10.8-5.1 5.5-2.8 11-5.7 11.1-6.3 22.2-12.6 0 0-0.2-2.1-11.4 6.5-22.9 13.1zm22.9-13.1q0.2 2.1 0.2 2.1 0 0 0.1 0 0 0-0.2-2.1 0 0-0.1 0zm0.1 0q0.2 2.1 0.2 2.1 37.8 15 75.6 30 0 0 0.7-1.7-38.2-15.2-76.5-30.4zm36.9 67.5l39.6-37.1q-0.7 1.7-0.7 1.7l-37.1 34.9v-0.1q0 0-1.8 0.6zm0 0q1.8-0.6 1.8-0.6-12.1-37.1-24.2-74.1 0 0-2.1-0.5 12.3 37.6 24.5 75.2zm-24.5-75.2q2.1 0.5 2.1 0.5 0-0.1 0-0.1 0 0-2.1-0.5 0 0.1 0 0.1zm24.3-27.3q-0.9 1.1-1.7 2.2-0.4 0.5-0.9 1.1-0.8 1-1.7 2c-3.1 3.7-6.5 7.2-10 10.7q-5.1 5.2-10.3 10.4 0.2 0.4 0.3 0.8 2.1 0.5 2.1 0.5-0.1-0.4-0.2-0.8 5-5.1 10-10.1c3.3-3.4 6.6-6.8 9.6-10.3q0.8-1 1.7-2 0.4-0.6 0.9-1.1 0.8-1.2 1.7-2.3 1.7-2.2 3.2-4.5 0 0-1.6-1-1.5 2.2-3.1 4.4zm17.6-41.5q0 1.2-0.1 3.1c0 1.2-0.4 2.7-0.5 4.4-1 6.7-3.7 17-12.3 30.6q0.7 0.5 1.5 1c8.8-13.8 11.6-24.4 12.6-31.3 0.2-1.8 0.5-3.3 0.6-4.6q0-1.9 0-3.2 0.1-2.6 0.1-2.6-0.9 0-1.8 0 0 0-0.1 2.6zm-144.5-116.3c5.8 1.5 11.5 3.3 17.2 5.1 2.8 0.9 5.6 1.9 8.4 2.9q2.1 0.7 4.2 1.4 2 0.8 4.1 1.6c11.1 4.2 21.8 9 32.1 14.3 10.4 5.3 20.3 11.2 29.4 17.7 9.2 6.5 17.8 13.6 25 21.3 7.2 7.6 13.2 15.8 17.4 24.2 4.2 8.4 6.4 16.8 6.8 25.2q0.9 0 1.8 0c-0.3-8.7-2.7-17.5-6.9-26-4.3-8.6-10.4-17-17.7-24.7-7.4-7.8-16-14.9-25.3-21.5-9.2-6.5-19.1-12.6-29.6-17.9-10.4-5.3-21.2-10.2-32.3-14.3q-2.1-0.8-4.2-1.6-2.1-0.8-4.2-1.5c-2.8-0.9-5.6-2-8.5-2.9-5.7-1.7-11.4-3.6-17.2-5.1-23-6.4-46.8-10.5-70.7-12.8q-0.1 0.9-0.1 1.9c23.7 2.2 47.4 6.3 70.3 12.7zm-70.3-12.7q0-1 0.1-1.9 0 0 0 0-0.1 0.9-0.2 1.9 0 0 0.1 0zm-0.1 0q0.1-1 0.2-1.9c-16.1-1.4-32.3-1.9-48.5-1.4q0 0.9 0 1.8c16.1-0.4 32.3 0 48.3 1.5zm-205.5 54.6c9.9-12.8 24.6-23.4 41.5-31.5 16.9-8.2 35.9-13.9 55.4-17.9 19.7-3.9 39.9-6 60.3-6.7q0-0.9 0-1.8c-20.5 0.6-40.9 2.7-60.6 6.7-19.7 4-38.9 9.7-55.9 18-17.1 8.2-32 19-42.2 32.1-10.2 13-15.5 28.3-16.2 45.5q1 0 1.9 0c0.7-16.7 5.8-31.6 15.8-44.4zm-11.3 80.1c-3.3-12.2-4.8-24.3-4.5-35.7q-0.9 0-1.9 0c-0.3 11.6 1.3 23.8 4.6 36.2 3.3 12.3 8.2 24.7 13.9 37q0.9-0.4 1.7-0.8c-5.7-12.2-10.6-24.5-13.8-36.7zm13.8 36.7q-0.8 0.4-1.7 0.8 0 0 0 0 0.9-0.4 1.7-0.8 0 0 0 0zm67.2 68.3c-14.8-7.5-28.1-17.1-39.5-28.6-11.3-11.4-20.6-24.8-27.7-39.7q-0.8 0.4-1.7 0.8c7.2 15 16.6 28.6 28.1 40.2 11.5 11.7 25 21.4 40 29 29.9 15.3 65.1 22.2 100.7 22.9q0-0.9 0-1.8c-35.4-0.8-70.3-7.7-99.9-22.8zm274.3-19.5q-5.5 2.9-11 5.7-5.4 2.5-10.8 5.1-5.5 2.3-11.1 4.7c-14.9 6-30.3 11-45.9 15.1-31.4 8-63.7 12.2-95.6 11.7q0 0.9 0 1.8c32 0.6 64.6-3.6 96-11.7 15.8-4.1 31.3-9.1 46.2-15.2q5.6-2.3 11.2-4.7 5.4-2.6 10.9-5.1 5.5-2.9 10.9-5.7 10.8-6.1 21.5-12.3 0-1-0.1-2-11.1 6.3-22.2 12.6zm22.2-12.6q0.1 1 0.1 2 0.1 0 0.1 0-0.1-1-0.1-2-0.1-0.1-0.1 0zm0.1 0q0 1 0.1 2 37.4 14.9 74.8 29.7 0.4-0.9 0.7-1.7-37.8-15-75.6-30zm38.5 64.8l37.1-34.8q-0.3 0.8-0.7 1.7l-34.6 32.6v-0.1q-0.9 0.3-1.8 0.6zm0 0q0.9-0.3 1.8-0.6-11.9-36.5-23.9-73.1-1-0.2-2.1-0.5 12.1 37.1 24.2 74.2zm-24.2-74.2q1.1 0.3 2.1 0.5 0 0 0-0.1-1-0.2-2.1-0.4 0 0 0 0zm23.7-26.6q-0.9 1.1-1.7 2.2-0.5 0.6-0.9 1.2-0.9 1-1.7 2c-3 3.5-6.3 6.9-9.6 10.3q-5 5-10 10.1 0.1 0.4 0.2 0.8 1.1 0.2 2.1 0.4-0.1-0.4-0.2-0.7 4.9-4.9 9.7-9.8c3.2-3.3 6.4-6.6 9.3-10q0.8-1 1.6-2 0.5-0.5 0.9-1.1 0.9-1.1 1.8-2.3 1.7-2.3 3.2-4.6-0.8-0.5-1.6-1-1.4 2.2-3.1 4.5zm17.9-42.6q0 1.3 0 3.2c-0.1 1.3-0.4 2.8-0.6 4.5-1 7-3.8 17.6-12.6 31.4q0.8 0.5 1.6 1c8.9-14 11.8-25 12.9-32.1 0.2-1.8 0.5-3.3 0.6-4.7q0-2 0-3.3 0.1-2.7 0.1-2.7-0.9 0-1.9 0.1 0 0-0.1 2.6zm-145.8-118.1c5.8 1.5 11.5 3.3 17.2 5.1 2.9 0.9 5.7 1.9 8.5 2.9q2.1 0.7 4.2 1.5 2.1 0.8 4.2 1.6c11.1 4.1 21.9 9 32.3 14.3 10.5 5.3 20.4 11.3 29.6 17.9 9.3 6.5 17.9 13.7 25.3 21.5 7.3 7.7 13.4 16.1 17.7 24.6 4.2 8.6 6.6 17.3 6.9 26.1q1-0.1 1.9-0.1c-0.3-9-2.8-18-7.2-26.8-4.3-8.8-10.5-17.3-18-25.1-7.4-7.9-16.2-15.1-25.5-21.7-9.3-6.7-19.3-12.7-29.8-18-10.5-5.4-21.4-10.3-32.6-14.5q-2.1-0.8-4.1-1.6-2.2-0.7-4.3-1.5c-2.8-0.9-5.6-2-8.5-2.9-5.7-1.8-11.4-3.6-17.3-5.1-23.1-6.5-47-10.6-71-12.9q-0.1 0.9-0.2 1.9c23.9 2.3 47.7 6.3 70.7 12.8zm-70.7-12.8q0.1-1 0.2-1.9 0 0 0 0-0.1 0.9-0.2 1.9 0 0 0 0zm0 0q0.1-1 0.2-1.9c-16.2-1.4-32.5-1.9-48.8-1.4q0.1 0.9 0.1 1.8c16.2-0.4 32.4 0 48.5 1.5zm-207.2 55.4c10.2-13.1 25.1-23.9 42.2-32.1 17-8.3 36.2-14 55.9-18 19.7-4 40.1-6.1 60.6-6.8q0-0.9-0.1-1.8c-20.6 0.6-41.1 2.8-60.9 6.7-19.8 4-39.1 9.9-56.4 18.2-17.2 8.3-32.4 19.2-42.8 32.6-10.4 13.4-15.9 29.1-16.5 46.6q0.9 0 1.8 0c0.7-17.1 6-32.4 16.2-45.4zm-11.6 81.6c-3.3-12.3-4.9-24.6-4.6-36.2q-0.9 0-1.8 0c-0.4 11.8 1.2 24.2 4.6 36.7 3.3 12.5 8.3 25 14 37.3q0.9-0.4 1.7-0.8c-5.7-12.2-10.7-24.6-13.9-37zm13.9 37q-0.8 0.4-1.7 0.8 0 0.1 0 0.1 0.9-0.4 1.7-0.8 0 0 0-0.1zm68 69.3c-14.9-7.7-28.4-17.3-39.9-29-11.5-11.6-20.9-25.2-28.1-40.2q-0.8 0.4-1.7 0.8c7.3 15.2 16.8 29 28.5 40.7 11.6 11.8 25.3 21.6 40.4 29.3 30.3 15.5 65.7 22.5 101.5 23.2q0-1 0.1-1.9c-35.6-0.7-70.8-7.6-100.8-22.9zm276-19.5q-5.5 2.8-10.9 5.7-5.5 2.5-10.9 5.1-5.6 2.3-11.2 4.7c-15 6.1-30.4 11.1-46.2 15.2-31.4 8-64 12.3-96 11.7q-0.1 0.9-0.1 1.9c32.3 0.5 65-3.7 96.6-11.8 15.8-4.1 31.4-9.2 46.4-15.3q5.6-2.3 11.2-4.7 5.5-2.6 11-5.2 5.5-2.8 11-5.7 10.4-5.9 20.8-11.8-0.1-1-0.2-2.1-10.7 6.1-21.5 12.3zm21.5-12.3q0.1 1.1 0.2 2.1 0 0 0 0 0-1-0.1-2.1 0 0-0.1 0zm0.1 0q0.1 1.1 0.1 2.1 37 14.7 74 29.3 0.4-0.8 0.7-1.7-37.4-14.8-74.8-29.7zm40.2 62.2l34.6-32.5q-0.3 0.9-0.7 1.7v0.1l-32.1 30.2v-0.1q-0.9 0.3-1.8 0.6zm0 0q0.9-0.3 1.8-0.6-11.8-36-23.5-72.1-1.1-0.2-2.2-0.4 12 36.5 23.9 73.1zm-23.9-73.1q1.1 0.2 2.2 0.4 0 0-0.1 0-1-0.3-2.1-0.5 0 0 0 0.1zm23.1-26q-0.9 1.1-1.8 2.3-0.4 0.5-0.9 1.1-0.8 1-1.6 2c-2.9 3.4-6.1 6.7-9.3 10q-4.8 4.9-9.7 9.7 0.1 0.4 0.2 0.8 1.1 0.2 2.1 0.5 0-0.4-0.1-0.8 4.6-4.7 9.3-9.4c3.1-3.2 6.2-6.3 9-9.7q0.8-0.9 1.6-1.9 0.5-0.6 0.9-1.2 0.9-1.1 1.8-2.3 1.7-2.3 3.3-4.7-0.8-0.5-1.6-1-1.5 2.3-3.2 4.6zm18.3-43.7q0 1.3 0 3.3c-0.1 1.3-0.4 2.9-0.6 4.7-1.1 7.1-4 18.1-12.9 32.1q0.8 0.5 1.5 1c9.1-14.2 12.1-25.5 13.2-32.8 0.2-1.9 0.6-3.5 0.6-4.9q0.1-2 0.1-3.4 0.1-2.8 0.1-2.8-1 0-1.9 0.1 0 0-0.1 2.7zm-147.2-119.9c5.9 1.5 11.6 3.3 17.3 5.1 2.9 0.9 5.7 1.9 8.5 2.9q2.1 0.7 4.2 1.5 2.1 0.8 4.2 1.6c11.2 4.2 22.1 9.1 32.5 14.4 10.6 5.4 20.6 11.4 29.9 18 9.3 6.7 18.1 13.9 25.5 21.7 7.5 7.9 13.7 16.4 18 25.2 4.4 8.8 6.9 17.8 7.2 26.8q0.9-0.1 1.9-0.1c-0.4-9.3-2.9-18.6-7.4-27.5-4.4-9-10.8-17.7-18.3-25.6-7.6-8-16.4-15.3-25.8-22-9.4-6.7-19.5-12.8-30.1-18.1-10.6-5.4-21.4-10.4-32.7-14.6q-2.1-0.8-4.2-1.6-2.1-0.7-4.3-1.5c-2.8-0.9-5.6-2-8.5-2.9-5.8-1.8-11.5-3.6-17.4-5.2-23.3-6.4-47.3-10.6-71.3-12.9q-0.1 1-0.2 1.9c24 2.3 47.9 6.4 71 12.9zm-71-12.9q0.1-0.9 0.2-1.9-0.1 0-0.1 0-0.1 1-0.2 1.9 0.1 0 0.1 0zm-0.1 0q0.1-0.9 0.2-1.9c-16.2-1.4-32.6-1.9-48.9-1.4q0 0.9 0 1.9c16.3-0.5 32.6-0.1 48.7 1.4zm-208.8 56.1c10.4-13.4 25.6-24.3 42.8-32.6 17.3-8.4 36.6-14.2 56.4-18.2 19.8-4 40.3-6.1 60.9-6.7q0-1 0-1.9c-20.7 0.6-41.3 2.8-61.3 6.8-19.9 4-39.3 9.9-56.8 18.3-17.4 8.4-32.8 19.4-43.4 33.1-10.7 13.7-16.4 29.9-17 47.7q0.9 0 1.8 0.1c0.7-17.5 6.2-33.3 16.6-46.6zm-11.9 83.3c-3.4-12.5-5-24.9-4.7-36.7q-0.9-0.1-1.8-0.1c-0.4 12 1.3 24.7 4.7 37.3 3.3 12.6 8.3 25.2 14.1 37.6q0.9-0.4 1.7-0.8c-5.7-12.3-10.7-24.8-14-37.3zm14 37.3q-0.8 0.4-1.7 0.8 0 0.1 0 0.1 0.9-0.4 1.7-0.8 0-0.1 0-0.1zm68.9 70.1c-15.1-7.7-28.8-17.5-40.5-29.3-11.6-11.8-21.1-25.5-28.4-40.7q-0.8 0.4-1.7 0.8c7.3 15.4 17 29.3 28.8 41.2 11.8 12 25.7 21.9 40.9 29.7 30.6 15.6 66.4 22.6 102.4 23.3q0-0.9 0-1.8c-35.8-0.8-71.2-7.7-101.5-23.2zm277.7-19.5q-5.5 2.9-11 5.7-5.5 2.6-11 5.2-5.6 2.4-11.2 4.7c-15 6.1-30.6 11.2-46.4 15.3-31.6 8.1-64.3 12.3-96.6 11.8q0 0.9 0 1.8c32.4 0.6 65.3-3.7 97.1-11.8 15.8-4.1 31.5-9.2 46.6-15.3q5.7-2.4 11.3-4.8 5.5-2.6 11-5.2 5.5-2.9 11.1-5.7 10-5.7 20-11.4-0.1-1.1-0.1-2.1-10.4 5.9-20.8 11.8zm20.8-11.8q0 1 0.1 2.1 0-0.1 0.1 0-0.1-1.1-0.2-2.1 0 0 0 0zm0 0q0.1 1 0.2 2.1 36.5 14.5 73.1 29 0.4-0.9 0.7-1.8-37-14.6-74-29.3zm41.9 59.5l32.1-30.2q-0.3 0.9-0.7 1.8l-29.7 27.9v-0.1q-0.9 0.3-1.7 0.6zm-0.1 0q0.9-0.3 1.8-0.6-11.5-35.5-23.1-71-1.1-0.3-2.1-0.5 11.7 36.1 23.4 72.1zm-23.4-72.1q1 0.2 2.1 0.5 0-0.1 0-0.1-1.1-0.2-2.2-0.5 0 0.1 0.1 0.1zm22.4-25.3q-0.9 1.2-1.8 2.3-0.5 0.6-0.9 1.2-0.8 0.9-1.6 1.9c-2.8 3.3-5.9 6.5-9 9.7q-4.7 4.7-9.3 9.4 0.1 0.4 0.1 0.7 1.1 0.3 2.2 0.5-0.1-0.4-0.2-0.7 4.5-4.6 9-9.1c3-3.1 6-6.1 8.7-9.4q0.8-0.9 1.5-1.8 0.5-0.6 1-1.2 0.9-1.2 1.8-2.4 1.8-2.4 3.3-4.8-0.7-0.5-1.5-1-1.6 2.4-3.3 4.7zm18.7-44.8q0 1.3-0.1 3.4c0 1.4-0.4 3-0.6 4.9-1.1 7.3-4.1 18.6-13.2 32.8q0.8 0.5 1.6 1c9.3-14.4 12.4-26 13.5-33.6 0.2-1.9 0.5-3.5 0.6-5q0-2.1 0-3.5 0.1-2.9 0.1-2.9-0.9 0.1-1.8 0.1 0 0-0.1 2.8zm-148.6-121.8c5.9 1.5 11.6 3.4 17.4 5.2 2.9 0.9 5.7 2 8.5 2.9q2.2 0.8 4.3 1.5 2.1 0.8 4.2 1.6c11.3 4.2 22.1 9.2 32.7 14.6 10.6 5.3 20.6 11.4 30.1 18.1 9.4 6.7 18.2 14 25.8 21.9 7.5 8 13.9 16.7 18.3 25.6 4.5 9 7 18.3 7.4 27.6q0.9 0 1.8-0.1c-0.3-9.6-2.9-19.1-7.5-28.3-4.6-9.2-11-18-18.7-26.1-7.6-8-16.5-15.4-26-22.1-9.5-6.8-19.7-12.9-30.3-18.3-10.7-5.4-21.6-10.4-32.9-14.6q-2.2-0.8-4.3-1.7-2.1-0.7-4.3-1.4c-2.8-1-5.7-2.1-8.5-3-5.8-1.8-11.6-3.7-17.5-5.2-23.4-6.5-47.5-10.6-71.7-13q-0.1 1-0.2 1.9c24.1 2.3 48.1 6.4 71.4 12.9zm-71.4-12.9q0.1-0.9 0.2-1.9 0 0 0 0-0.1 1-0.2 1.9 0 0 0 0zm0 0q0.1-0.9 0.2-1.9c-16.3-1.4-32.8-1.9-49.2-1.4q0 0.9 0.1 1.9c16.3-0.5 32.7 0 48.9 1.4zm-210.4 56.8c10.6-13.7 26-24.7 43.4-33.1 17.5-8.5 36.9-14.3 56.8-18.4 20-3.9 40.6-6.1 61.3-6.7q-0.1-1-0.1-1.9c-20.8 0.6-41.5 2.8-61.6 6.8-20 4.1-39.6 10-57.2 18.5-17.6 8.5-33.3 19.7-44.1 33.7-11 13.9-16.7 30.6-17.4 48.7q0.9 0 1.9 0.1c0.6-17.8 6.3-34 17-47.7zm-12.3 85c-3.4-12.7-5.1-25.3-4.7-37.3q-1-0.1-1.9-0.1c-0.4 12.3 1.3 25.1 4.8 37.9 3.3 12.7 8.4 25.4 14.2 37.9q0.9-0.4 1.7-0.8c-5.8-12.4-10.8-25-14.1-37.6zm14.1 37.6q-0.8 0.4-1.7 0.8 0 0 0 0.1 0.9-0.4 1.7-0.8 0-0.1 0-0.1zm69.7 71c-15.2-7.8-29.1-17.7-40.9-29.7-11.8-11.9-21.5-25.9-28.8-41.2q-0.8 0.4-1.7 0.8c7.4 15.5 17.2 29.7 29.2 41.7 11.9 12.1 25.9 22.2 41.4 30 30.9 15.8 66.9 22.9 103.1 23.6q0-0.9 0.1-1.9c-36-0.7-71.8-7.7-102.4-23.3zm279.5-19.5q-5.6 2.8-11.1 5.7-5.5 2.6-11 5.2-5.6 2.4-11.3 4.8c-15.1 6.1-30.8 11.2-46.6 15.3-31.8 8.1-64.7 12.4-97.1 11.8q-0.1 1-0.1 1.9c32.7 0.6 65.7-3.7 97.6-11.9 16-4.1 31.7-9.3 46.9-15.4q5.7-2.4 11.3-4.8 5.6-2.6 11.1-5.2 5.6-2.9 11.1-5.8 9.7-5.5 19.3-11 0-1-0.1-2.1-10 5.7-20 11.5zm20-11.5q0.1 1.1 0.1 2.1 0.1 0 0.1 0-0.1-1-0.1-2.1-0.1 0-0.1 0zm0.1 0q0 1.1 0.1 2.1 36.2 14.4 72.3 28.7 0.4-0.9 0.7-1.7-36.6-14.6-73.1-29.1zm43.4 56.9l29.7-27.8q-0.3 0.8-0.7 1.7l-27.2 25.6v-0.1q-0.9 0.3-1.8 0.6zm0 0q0.9-0.3 1.8-0.6-11.4-35-22.8-70-1.1-0.2-2.1-0.5 11.5 35.6 23.1 71.1zm-23.1-71.1q1 0.3 2.1 0.5 0 0 0-0.1-1.1-0.2-2.1-0.4 0 0 0 0zm21.8-24.6q-0.9 1.2-1.8 2.4-0.5 0.5-1 1.1-0.7 1-1.5 1.9c-2.7 3.2-5.7 6.3-8.7 9.3q-4.5 4.6-9 9.2 0.1 0.3 0.2 0.7 1 0.2 2.1 0.4-0.1-0.3-0.1-0.6 4.3-4.4 8.6-8.8c2.9-3 5.8-5.9 8.4-9q0.7-1 1.5-1.9 0.5-0.6 0.9-1.2 1-1.2 1.9-2.4 1.8-2.4 3.4-4.9-0.8-0.5-1.6-1-1.5 2.4-3.3 4.8zm19-45.9q0 1.4 0 3.5c-0.1 1.5-0.4 3.1-0.6 5-1.2 7.6-4.2 19.1-13.5 33.6q0.8 0.5 1.6 1.1c9.4-14.8 12.6-26.6 13.7-34.4 0.2-2 0.6-3.7 0.7-5.1q0-2.2 0-3.7 0.1-2.9 0.1-2.9-0.9 0-1.9 0 0 0-0.1 2.9zm-149.9-123.6c5.9 1.5 11.7 3.4 17.5 5.2 2.8 0.9 5.7 2 8.5 2.9q2.2 0.8 4.3 1.5 2.1 0.8 4.2 1.7c11.4 4.2 22.3 9.2 33 14.6 10.6 5.4 20.7 11.5 30.3 18.2 9.5 6.8 18.4 14.1 26 22.2 7.7 8.1 14.1 16.9 18.7 26.1 4.6 9.2 7.2 18.7 7.5 28.3q1 0 1.9 0c-0.3-9.9-3.1-19.7-7.7-29.1-4.7-9.4-11.3-18.4-19-26.6-7.8-8.2-16.8-15.6-26.4-22.4-9.6-6.8-19.8-13-30.5-18.4-10.7-5.4-21.7-10.5-33.1-14.7q-2.1-0.8-4.2-1.6-2.2-0.8-4.3-1.5c-2.9-1-5.8-2.1-8.7-3-5.8-1.8-11.6-3.7-17.5-5.2-23.5-6.6-47.7-10.7-72-13q-0.1 0.9-0.2 1.8c24.2 2.3 48.3 6.5 71.7 13zm-71.7-13q0.1-0.9 0.2-1.8 0-0.1-0.1-0.1 0 1-0.1 1.9 0 0 0 0zm0 0q0.1-0.9 0.1-1.9c-16.4-1.4-32.9-1.9-49.4-1.4q0.1 0.9 0.1 1.9c16.4-0.5 32.9 0 49.2 1.4zm-212.1 57.6c10.8-14 26.5-25.3 44.1-33.7 17.6-8.6 37.2-14.4 57.2-18.5 20.1-4 40.8-6.2 61.6-6.8q0-1-0.1-1.9c-20.8 0.6-41.6 2.8-61.8 6.9-20.2 4-39.9 10-57.7 18.6-17.8 8.5-33.7 19.9-44.8 34.2-11.2 14.2-17.1 31.4-17.8 49.8q1 0 1.9 0.1c0.6-18.1 6.4-34.8 17.4-48.7zm-12.6 86.5c-3.5-12.7-5.2-25.5-4.8-37.8q-0.9-0.1-1.9-0.1c-0.4 12.5 1.4 25.5 4.9 38.4 3.3 12.9 8.4 25.8 14.3 38.3q0.9-0.4 1.7-0.8c-5.8-12.5-10.9-25.2-14.2-38zm14.2 38q-0.8 0.4-1.7 0.8 0 0 0 0 0.9-0.4 1.7-0.8 0 0 0 0zm70.6 71.8c-15.5-7.8-29.5-17.9-41.4-30-12-12.1-21.8-26.2-29.2-41.8q-0.8 0.4-1.7 0.8c7.5 15.8 17.4 30.1 29.5 42.3 12.1 12.3 26.3 22.4 41.9 30.4 31.3 16 67.6 23 104 23.8q0-1 0-1.9c-36.2-0.7-72.2-7.8-103.1-23.6zm281.1-19.5q-5.5 2.9-11.1 5.8-5.5 2.6-11.1 5.2-5.6 2.4-11.3 4.8c-15.2 6.1-30.9 11.2-46.9 15.4-31.9 8.1-64.9 12.4-97.6 11.9q0 0.9 0 1.9c32.8 0.5 66-3.8 98.1-12 16-4.2 31.8-9.3 47.1-15.5q5.7-2.4 11.4-4.8 5.6-2.6 11.2-5.3 5.5-2.9 11.1-5.7 9.3-5.3 18.6-10.6-0.1-1.1-0.2-2.1-9.6 5.5-19.3 11zm19.3-11q0.1 1 0.2 2.1 0-0.1 0 0 0-1.1-0.1-2.1 0 0-0.1 0zm0.1 0q0.1 1 0.1 2.1 35.8 14.1 71.5 28.3 0.4-0.9 0.7-1.7-36.1-14.4-72.3-28.7zm45.1 54.2l27.2-25.5q-0.3 0.8-0.7 1.7l-24.7 23.3v-0.1q-0.9 0.3-1.8 0.6zm0 0q0.9-0.3 1.8-0.6-11.3-34.5-22.5-69-1.1-0.2-2.1-0.4 11.4 35 22.8 70zm-22.8-70q1 0.2 2.1 0.4 0 0 0 0-1.1-0.3-2.1-0.5 0 0 0 0.1zm21.2-24q-0.9 1.2-1.9 2.4-0.4 0.6-0.9 1.2-0.8 0.9-1.5 1.8c-2.6 3.1-5.5 6.1-8.4 9q-4.3 4.4-8.6 8.8 0 0.4 0.1 0.7 1 0.2 2.1 0.5 0-0.4-0.1-0.7 4.2-4.2 8.3-8.4c2.8-2.9 5.6-5.7 8.1-8.7q0.7-0.9 1.4-1.8 0.5-0.6 1-1.2 1-1.3 1.9-2.5 1.8-2.5 3.5-5-0.8-0.5-1.6-1-1.6 2.5-3.4 4.9zm19.4-47q0 1.4 0 3.6c-0.1 1.5-0.5 3.2-0.7 5.2-1.1 7.7-4.3 19.6-13.7 34.3q1.5 1.1 3.1 2.1c9.7-15.2 13.1-27.7 14.3-35.9 0.3-2.1 0.6-3.9 0.7-5.4q0-2.3 0.1-3.9 0.1-3.1 0.1-3.1-1.9 0.1-3.8 0.1 0 0-0.1 3zm-151.3-125.4c5.9 1.5 11.7 3.4 17.5 5.2 2.9 0.9 5.8 2 8.7 3q2.1 0.7 4.3 1.5 2.1 0.8 4.2 1.6c11.4 4.2 22.4 9.2 33.1 14.7 10.7 5.4 20.9 11.6 30.5 18.4 9.6 6.8 18.6 14.2 26.4 22.4 7.7 8.2 14.3 17.1 19 26.5 4.6 9.4 7.3 19.3 7.7 29.1q1.9 0 3.8-0.1c-0.4-10.5-3.3-20.8-8.2-30.6-4.9-9.8-11.7-19-19.6-27.5-8-8.4-17.1-16-26.9-22.9-9.8-6.9-20.1-13.2-31-18.6-10.8-5.6-21.9-10.6-33.5-14.9q-2.1-0.8-4.2-1.7-2.2-0.7-4.4-1.5c-2.9-1-5.8-2-8.7-3-5.9-1.8-11.7-3.7-17.7-5.2-23.7-6.7-48.2-10.9-72.7-13.2q-0.2 1.9-0.3 3.7c24.3 2.4 48.5 6.5 72 13.1zm-72-13.1q0.1-1.8 0.3-3.7 0 0 0 0-0.2 1.9-0.4 3.7 0 0 0.1 0zm-0.1 0q0.2-1.8 0.4-3.7c-16.6-1.5-33.3-2-49.9-1.5q0.1 1.9 0.1 3.8c16.5-0.5 33 0 49.4 1.4zm-213.7 58.3c11.1-14.3 27-25.7 44.8-34.2 17.8-8.6 37.5-14.6 57.7-18.7 20.2-4 41-6.2 61.8-6.8q0-1.9-0.1-3.8c-21 0.7-42 2.9-62.5 7-20.4 4.1-40.4 10.1-58.6 18.9-18.1 8.7-34.5 20.4-46.1 35.3-5.7 7.4-10.3 15.6-13.4 24.3-3.1 8.8-4.7 18.1-5.1 27.7q1.8 0 3.7 0.1c0.7-18.5 6.6-35.6 17.8-49.8zm-12.9 88.2c-3.5-12.9-5.3-25.9-4.9-38.4q-1.9-0.1-3.7-0.1c-0.4 12.9 1.4 26.3 4.9 39.5 3.5 13.2 8.7 26.2 14.6 38.9q1.7-0.8 3.4-1.6c-5.9-12.6-11-25.4-14.3-38.3zm14.3 38.3q-1.7 0.8-3.4 1.6 0 0 0.1 0 1.6-0.8 3.3-1.6 0 0 0 0zm71.4 72.7c-15.6-8-29.8-18.1-41.9-30.4-12.1-12.2-22-26.5-29.5-42.3q-1.7 0.8-3.3 1.6c7.6 16.1 17.7 30.8 30.1 43.3 12.4 12.6 27 23 42.9 31.1 31.9 16.3 68.7 23.4 105.6 24.2q0-1.9 0.1-3.8c-36.5-0.7-72.7-7.8-104-23.7zm282.9-19.6q-5.6 2.9-11.1 5.8-5.6 2.6-11.2 5.3-5.7 2.4-11.4 4.8c-15.3 6.2-31.1 11.3-47.1 15.4-32.1 8.3-65.3 12.6-98.1 12q-0.1 1.9-0.1 3.8c33.2 0.6 66.7-3.8 99.1-12.1 16.2-4.2 32.2-9.4 47.6-15.6q5.8-2.5 11.5-4.9 5.7-2.7 11.3-5.3 5.6-2.9 11.2-5.8 8.6-4.9 17.2-9.8-0.2-2.1-0.3-4.1-9.3 5.2-18.6 10.5zm18.6-10.5q0.1 2 0.3 4.1 0 0 0 0-0.1-2.1-0.3-4.2 0 0 0 0.1zm0-0.1q0.2 2.1 0.3 4.2 34.9 13.8 69.8 27.7 0.7-1.8 1.4-3.5-35.7-14.2-71.5-28.4zm46.8 51.6l24.7-23.2q-0.7 1.7-1.4 3.5h0.1l-19.8 18.6q-1.8 0.5-3.6 1.1zm0 0q1.8-0.6 3.5-1.1-10.9-33.5-21.8-67-2.1-0.4-4.2-0.9 11.2 34.5 22.5 69zm-22.5-69q2.1 0.5 4.2 0.9 0 0 0 0-2.1-0.5-4.2-0.9 0 0 0 0zm20.6-23.3q-1 1.2-1.9 2.4-0.5 0.6-1 1.3-0.7 0.9-1.5 1.8c-2.4 3-5.2 5.8-8 8.6q-4.1 4.3-8.3 8.5 0.1 0.3 0.1 0.7 2.1 0.4 4.2 0.9 0-0.3 0-0.6 3.9-3.9 7.7-7.8c2.5-2.7 5-5.3 7.3-8.1q0.7-0.8 1.5-1.7 0.5-0.6 1-1.2 0.9-1.3 1.9-2.6 1.9-2.5 3.6-5.1-1.6-1.1-3.1-2.1-1.7 2.5-3.5 5zm21.7-48.1q-0.1 1.5-0.1 3.9c-0.1 1.5-0.4 3.3-0.7 5.4-1.2 8.2-4.6 20.7-14.3 35.9q0.8 0.5 1.6 1c9.9-15.4 13.3-28.2 14.6-36.6 0.2-2.2 0.6-4 0.7-5.6q0-2.4 0-4 0.1-3.2 0.1-3.2-0.9 0.1-1.9 0.1 0 0 0 3.1zm-154.1-129.1c6 1.6 11.8 3.5 17.7 5.3 2.9 0.9 5.8 2 8.7 3q2.2 0.8 4.4 1.5 2.1 0.8 4.2 1.7c11.5 4.2 22.7 9.3 33.5 14.8 10.9 5.5 21.2 11.8 31 18.7 9.7 6.9 18.9 14.5 26.9 22.9 7.9 8.4 14.7 17.7 19.6 27.5 4.9 9.8 7.8 20.1 8.1 30.6q1 0 1.9-0.1c-0.4-10.7-3.3-21.4-8.3-31.4-5-10-11.9-19.3-19.9-27.9-8.1-8.5-17.4-16.1-27.2-23.1-9.9-7-20.3-13.3-31.2-18.8-10.9-5.6-22.1-10.7-33.7-15q-2.1-0.8-4.3-1.6-2.2-0.8-4.4-1.6c-2.9-1-5.8-2-8.7-3-5.9-1.8-11.8-3.7-17.8-5.3-23.9-6.6-48.4-10.8-73-13.2q-0.1 0.9-0.2 1.9c24.5 2.3 49 6.5 72.7 13.1zm-72.7-13.1q0.1-1 0.2-1.9-0.1 0-0.1 0-0.1 0.9-0.1 1.9 0 0 0 0zm0 0q0-1 0.1-1.9c-16.6-1.5-33.3-2-50-1.5q0 1 0 1.9c16.6-0.5 33.3 0 49.9 1.5zm-230.5 84c3.1-8.7 7.7-16.9 13.4-24.3 11.6-14.9 28-26.6 46.1-35.3 18.2-8.8 38.2-14.8 58.6-19 20.5-4 41.5-6.2 62.5-6.9q0-0.9 0-1.9c-21.2 0.7-42.3 2.9-62.9 7-20.5 4.2-40.6 10.2-59 19.1-18.3 8.8-35 20.6-46.8 35.8-5.8 7.6-10.5 16-13.7 24.9-3.2 8.9-4.8 18.5-5.2 28.2q0.9 0 1.9 0c0.4-9.5 2-18.8 5.1-27.6zm-0.2 67.1c-3.5-13.1-5.3-26.5-4.9-39.5q-1 0-1.9 0c-0.4 13.2 1.4 26.7 5 40 3.5 13.4 8.7 26.5 14.7 39.3q0.9-0.4 1.7-0.8c-5.9-12.7-11.1-25.7-14.6-39zm14.6 39q-0.8 0.4-1.7 0.8 0 0 0.1 0 0.8-0.4 1.6-0.8 0 0 0 0zm73.1 74.4c-15.9-8.1-30.5-18.5-42.9-31.1-12.4-12.5-22.5-27.2-30.2-43.3q-0.8 0.4-1.6 0.8c7.7 16.3 18 31.1 30.5 43.8 12.5 12.7 27.3 23.3 43.4 31.5 32.2 16.4 69.3 23.6 106.4 24.3q0-0.9 0-1.8c-36.9-0.8-73.7-7.9-105.6-24.2zm286.3-19.6q-5.6 3-11.2 5.9-5.6 2.6-11.3 5.3-5.7 2.4-11.5 4.9c-15.4 6.2-31.4 11.4-47.6 15.6-32.4 8.3-65.9 12.6-99.1 12.1q0 0.9 0 1.8c33.4 0.6 67-3.8 99.6-12.1 16.3-4.2 32.3-9.4 47.8-15.7q5.8-2.5 11.6-4.9 5.7-2.7 11.3-5.4 5.7-2.9 11.3-5.8 8.2-4.7 16.4-9.3-0.1-1.1-0.1-2.1-8.6 4.9-17.2 9.7zm17.2-9.7q0 1 0.1 2.1 0-0.1 0.1-0.1-0.1-1-0.2-2 0 0 0 0zm0 0q0.1 1 0.2 2 34.4 13.7 68.9 27.4 0.4-0.9 0.7-1.7-34.9-13.9-69.8-27.7zm50.1 46.3l19.7-18.6q-0.3 0.8-0.7 1.7h0.1l-17.4 16.3q-0.9 0.3-1.8 0.6zm0-0.1q0.9-0.3 1.8-0.5-10.7-33-21.5-66-1-0.2-2.1-0.4 10.9 33.5 21.8 66.9zm-21.8-66.9q1.1 0.2 2.1 0.4 0 0 0 0-1-0.2-2.1-0.5 0 0.1 0 0.1zm19.4-22q-1 1.3-1.9 2.5-0.5 0.7-1 1.3-0.8 0.9-1.5 1.7c-2.3 2.8-4.8 5.4-7.3 8q-3.8 4-7.7 7.9 0 0.3 0 0.5 1.1 0.3 2.1 0.5 0.1-0.3 0.1-0.5c4.8-5 9.9-10 14.3-15.2q0.7-0.9 1.4-1.7 0.5-0.7 1-1.3 1-1.3 2-2.6 1.9-2.6 3.7-5.2-0.8-0.5-1.6-1-1.7 2.6-3.6 5.1zm20.5-50.3q0 1.6 0 4c-0.1 1.6-0.5 3.4-0.7 5.5-1.3 8.5-4.8 21.3-14.6 36.7q0.7 0.5 1.5 1c10.1-15.6 13.7-28.7 14.9-37.4 0.3-2.2 0.6-4.1 0.7-5.7q0.1-2.4 0.1-4.1 0.1-3.3 0.1-3.3-1 0.1-1.9 0.1 0 0-0.1 3.2zm-155.4-130.9c6 1.6 11.9 3.5 17.8 5.3 2.9 0.9 5.8 2 8.7 3q2.2 0.8 4.4 1.5 2.1 0.9 4.3 1.7c11.6 4.3 22.8 9.4 33.7 15 10.9 5.5 21.3 11.8 31.2 18.8 9.8 6.9 19.1 14.6 27.2 23.1 8 8.5 14.9 17.9 19.9 27.9 5 10 7.9 20.7 8.3 31.4q0.9 0 1.9-0.1c-0.4-11-3.4-21.9-8.5-32.1-5.1-10.2-12.1-19.7-20.3-28.4-8.2-8.6-17.5-16.3-27.4-23.4-10-7-20.5-13.4-31.5-18.9-10.9-5.6-22.2-10.7-33.8-15.1q-2.2-0.8-4.4-1.6-2.2-0.8-4.4-1.6c-2.9-1-5.8-2-8.8-3-5.9-1.8-11.8-3.7-17.8-5.3-24-6.7-48.6-10.9-73.4-13.3q-0.1 1-0.1 1.9c24.6 2.4 49.1 6.6 73 13.2zm-73-13.2q0-0.9 0.1-1.9 0 0 0 0-0.1 1-0.2 1.9 0 0 0.1 0zm-0.1 0q0.1-0.9 0.2-1.9c-16.7-1.5-33.5-2-50.3-1.5q0 1 0.1 1.9c16.7-0.5 33.4 0 50 1.5zm-232.4 85.3c3.2-9 7.8-17.3 13.7-24.9 11.8-15.2 28.5-27 46.8-35.8 18.4-8.9 38.5-14.9 59-19.1 20.6-4.1 41.7-6.3 62.9-7q-0.1-0.9-0.1-1.9c-21.2 0.7-42.4 2.9-63.1 7-20.7 4.2-40.9 10.3-59.5 19.3-18.5 8.9-35.4 20.8-47.4 36.3-6 7.8-10.8 16.3-14 25.5-3.3 9.1-5 18.8-5.4 28.7q0.9 0 1.9 0c0.4-9.7 2-19.2 5.2-28.1zm-0.2 68.2c-3.6-13.3-5.4-26.8-5-40.1q-1 0-1.9 0c-0.4 13.4 1.5 27.1 5.1 40.6 3.5 13.5 8.8 26.7 14.8 39.6q0.9-0.4 1.7-0.8c-6-12.8-11.2-25.9-14.7-39.3zm14.7 39.3q-0.8 0.4-1.7 0.8 0 0 0.1 0 0.8-0.4 1.6-0.8 0 0 0 0zm73.9 75.3c-16-8.2-30.8-18.8-43.3-31.5-12.6-12.7-22.8-27.5-30.6-43.8q-0.8 0.4-1.6 0.8c7.7 16.5 18.2 31.5 30.9 44.3 12.6 12.9 27.6 23.5 43.8 31.8 16.2 8.3 33.8 14.3 51.8 18.3 18.1 3.9 36.7 5.9 55.4 6.3q0-0.9 0.1-1.9c-37.1-0.7-74.2-7.9-106.5-24.3zm288.1-19.6q-5.6 2.9-11.3 5.8-5.6 2.7-11.3 5.4-5.8 2.4-11.6 4.9c-15.5 6.2-31.5 11.5-47.8 15.7-32.6 8.3-66.2 12.7-99.6 12.1q-0.1 1-0.1 1.9c33.6 0.6 67.4-3.8 100.1-12.2 16.4-4.2 32.5-9.5 48.1-15.8q5.8-2.5 11.6-4.9 5.8-2.7 11.5-5.4 5.6-2.9 11.3-5.9 7.8-4.4 15.7-8.9-0.1-1-0.2-2.1-8.2 4.7-16.4 9.4zm16.4-9.4q0.1 1.1 0.2 2.1 0 0 0 0-0.1-1-0.1-2.1-0.1 0-0.1 0zm0.1 0q0 1.1 0.1 2.1 34.1 13.5 68.1 27 0.4-0.8 0.7-1.7-34.5-13.7-68.9-27.4zm51.6 43.7l17.3-16.3q-0.3 0.9-0.7 1.7h0.1l-14.9 14q-0.9 0.3-1.8 0.6zm0-0.1q0.9-0.3 1.8-0.5-10.6-32.5-21.1-64.9-1.1-0.3-2.2-0.5 10.8 33 21.5 65.9zm-21.5-65.9q1.1 0.2 2.2 0.5-0.1-0.1 0-0.1-1.1-0.2-2.2-0.4 0 0 0 0zm18.8-21.3q-1 1.3-2 2.6-0.5 0.6-1 1.3-0.7 0.8-1.4 1.6c-4.4 5.3-9.5 10.3-14.3 15.2q0 0.3-0.1 0.6 1.1 0.2 2.2 0.4 0-0.2 0-0.5c4.7-4.7 9.5-9.5 13.7-14.5q0.7-0.8 1.4-1.7 0.5-0.6 1-1.3 1-1.3 2-2.6 2-2.6 3.7-5.3-0.8-0.5-1.5-1-1.8 2.6-3.7 5.2zm20.9-51.4q0 1.6-0.1 4.1c-0.1 1.6-0.4 3.5-0.7 5.7-1.2 8.6-4.8 21.7-14.9 37.4q1.6 1 3.2 2c10.3-16.1 14.1-29.8 15.4-38.9 0.3-2.2 0.7-4.2 0.8-5.9q0-2.6 0-4.4 0.1-3.4 0.1-3.4-1.8 0.1-3.7 0.1 0 0-0.1 3.3zm-156.8-132.7c6 1.6 11.9 3.5 17.8 5.3 3 0.9 5.9 2 8.8 3q2.2 0.8 4.4 1.6 2.2 0.8 4.4 1.6c11.6 4.3 22.9 9.5 33.8 15.1 11 5.5 21.5 11.9 31.5 18.9 9.9 7.1 19.2 14.8 27.4 23.4 8.2 8.6 15.2 18.1 20.3 28.4 5 10.2 8.1 21.1 8.5 32.1q1.9 0 3.7-0.1c-0.4-11.6-3.6-23.1-8.9-33.7-5.3-10.6-12.5-20.4-20.9-29.3-8.4-8.8-17.9-16.7-28-23.8-10.1-7.2-20.7-13.6-31.9-19.3-11.1-5.6-22.5-10.8-34.2-15.2q-2.2-0.8-4.4-1.7-2.2-0.7-4.4-1.5c-3-1-5.9-2.1-8.9-3.1-6-1.8-12-3.7-18-5.3-24.2-6.8-49.1-11-74-13.4q-0.2 1.8-0.4 3.7c24.8 2.4 49.4 6.6 73.4 13.3zm-73.4-13.3q0.2-1.9 0.4-3.7-0.1 0-0.1 0-0.1 1.8-0.3 3.7 0 0 0 0zm0 0q0.2-1.9 0.3-3.7c-16.8-1.5-33.8-2-50.7-1.5q0 1.9 0.1 3.7c16.8-0.5 33.6 0 50.3 1.5zm-234.3 86.5c3.2-9.1 7.9-17.6 13.9-25.4 12.1-15.5 29-27.4 47.5-36.3 18.6-9 38.8-15.1 59.5-19.3 20.7-4.1 41.8-6.3 63.1-7q-0.1-1.8-0.1-3.7c-21.5 0.6-42.8 2.9-63.8 7.1-20.9 4.2-41.4 10.3-60.3 19.5-18.9 9.1-36.3 21.3-48.8 37.4-6.2 8-11.2 17-14.6 26.5-3.4 9.5-5.1 19.6-5.5 29.8q1.8 0.1 3.7 0.2c0.4-9.9 2.1-19.6 5.4-28.8zm-0.3 69.4c-3.6-13.5-5.5-27.2-5.1-40.6q-1.9-0.1-3.7-0.2c-0.5 13.9 1.5 28 5.2 41.7 3.6 13.8 8.9 27.2 15 40.3q1.7-0.8 3.4-1.6c-6-12.9-11.3-26.1-14.8-39.6zm14.8 39.6q-1.7 0.8-3.4 1.6 0.1 0 0.1 0 1.7-0.8 3.4-1.6-0.1 0-0.1 0zm126.6 94.3c-18-3.9-35.6-9.9-51.8-18.2-16.3-8.3-31.2-18.9-43.8-31.8-12.7-12.8-23.2-27.9-30.9-44.3q-1.7 0.8-3.4 1.6c7.9 16.8 18.6 32.2 31.6 45.3 13 13.2 28.2 24.1 44.8 32.5 16.6 8.5 34.4 14.6 52.7 18.6 18.4 4 37.2 6 56.1 6.4q0.1-1.8 0.1-3.7c-18.7-0.4-37.3-2.4-55.4-6.4zm238-37.8q-5.7 3-11.3 5.9-5.8 2.7-11.5 5.4-5.8 2.4-11.6 4.9c-15.6 6.3-31.7 11.5-48.1 15.8-32.7 8.4-66.5 12.8-100.1 12.2q0 1.9-0.1 3.7c34 0.6 68.2-3.8 101.2-12.3 16.5-4.3 32.7-9.6 48.5-15.9q5.9-2.5 11.8-5 5.7-2.7 11.5-5.4 5.7-3 11.4-6 7.1-4 14.2-8.1-0.1-2-0.3-4.1-7.8 4.5-15.6 8.9zm15.6-8.9q0.2 2.1 0.3 4.1 0.1 0 0.1 0-0.2-2-0.3-4.1 0 0-0.1 0zm0.1 0q0.1 2.1 0.3 4.1 33.2 13.2 66.4 26.4 0.7-1.7 1.4-3.5-34-13.5-68.1-27zm53.3 41l14.9-14h-0.1q-0.7 1.8-1.4 3.5h0.1l-9.9 9.3q-1.8 0.6-3.6 1.2zm0-0.1q1.8-0.5 3.6-1.1-10.3-31.4-20.5-62.8-2.1-0.5-4.2-0.9 10.5 32.4 21.1 64.8zm-21.1-64.8q2.1 0.4 4.2 0.9 0-0.1 0-0.1-2.1-0.4-4.3-0.9 0 0 0.1 0.1zm18.1-20.7q-1 1.3-2 2.6-0.5 0.7-1 1.3-0.7 0.8-1.4 1.7c-4.2 5-9 9.8-13.7 14.5q0 0.3-0.1 0.5 2.2 0.5 4.3 0.9 0.1-0.2 0.2-0.4c4.2-4.3 8.4-8.7 12.3-13.3q0.6-0.7 1.3-1.5 0.5-0.7 1-1.4 1.1-1.3 2.1-2.7 2-2.7 3.9-5.5-1.6-1-3.2-2-1.8 2.7-3.7 5.3zm23.1-52.5q0 1.8 0 4.3c-0.1 1.8-0.5 3.7-0.8 6-1.3 9.1-5.1 22.8-15.4 38.9q3.1 2.1 6.2 4.1c5.3-8.6 9.5-16.4 11.9-23.6q1-2.7 1.9-5.1c0.4-1.7 0.8-3.3 1.2-4.8q0.5-2.3 1.1-4.4c0.3-1.4 0.3-2.7 0.5-4 0.3-2.5 0.7-4.7 0.8-6.6q0.1-2.8 0.1-4.7 0.1-3.8 0.1-3.8-3.7 0.2-7.5 0.3 0 0-0.1 3.4zm-159.5-136.3c6 1.5 12 3.5 18 5.3 3 1 5.9 2.1 8.9 3.1q2.2 0.7 4.4 1.5 2.2 0.9 4.4 1.7c11.7 4.4 23.1 9.6 34.2 15.2 11.2 5.6 21.8 12.1 31.9 19.2 10.1 7.2 19.6 15.1 28 23.9 8.4 8.9 15.6 18.6 20.9 29.3 5.3 10.6 8.5 22.1 8.9 33.7q3.8-0.1 7.5-0.3c-0.4-12.8-4-25.3-9.7-36.8-5.7-11.4-13.4-21.8-22.1-31-8.8-9.3-18.7-17.5-29.1-24.9-10.5-7.3-21.4-14-32.8-19.8-11.4-5.7-23.1-11-35-15.5q-2.3-0.9-4.5-1.7-2.3-0.8-4.5-1.6c-3.1-1-6-2.1-9.1-3.1-6.1-1.9-12.2-3.9-18.4-5.5-24.6-6.8-49.9-11.2-75.3-13.6q-0.3 3.7-0.6 7.5c24.9 2.3 49.8 6.6 74 13.4zm-74-13.4q0.3-3.8 0.6-7.5 0 0 0 0-0.4 3.7-0.7 7.5 0 0 0.1 0zm-0.1 0q0.3-3.8 0.7-7.5c-17.2-1.5-34.4-2-51.6-1.5q0.1 3.7 0.2 7.5c16.9-0.5 33.9 0 50.7 1.5zm-238.2 89c3.4-9.6 8.4-18.5 14.6-26.5 12.5-16.1 29.9-28.3 48.8-37.4 18.9-9.2 39.4-15.3 60.3-19.6 20.9-4.1 42.3-6.4 63.8-7q-0.1-3.8-0.2-7.5c-21.9 0.6-43.7 2.9-65.1 7.2-21.3 4.3-42.4 10.6-62.1 20.1-19.6 9.5-38 22.3-51.4 39.6-6.7 8.6-12.1 18.3-15.7 28.6-3.7 10.3-5.6 21.1-6 32q3.7 0.2 7.4 0.3c0.5-10.2 2.2-20.3 5.6-29.8zm-0.3 71.5c-3.7-13.7-5.7-27.8-5.3-41.7q-3.7-0.1-7.4-0.3c-0.5 14.8 1.6 29.7 5.4 43.9 3.8 14.4 9.3 28.2 15.6 41.6q3.4-1.6 6.7-3.2c-6.1-13.1-11.4-26.5-15-40.3zm15 40.3q-3.3 1.6-6.7 3.2 0 0 0 0 3.4-1.6 6.8-3.2 0 0-0.1 0zm129.2 96.4c-18.3-4-36.2-10.1-52.7-18.6-16.6-8.4-31.8-19.3-44.8-32.5-13-13.1-23.7-28.5-31.6-45.3q-3.4 1.6-6.8 3.2c8.3 17.5 19.4 33.6 33 47.4 13.6 13.8 29.5 25.1 46.8 33.9 17.2 8.8 35.7 15.1 54.5 19.2 18.9 4.2 38.3 6.2 57.6 6.6q0.1-3.7 0.1-7.5c-18.9-0.4-37.7-2.4-56.1-6.4zm240.5-38.2q-5.7 3-11.4 5.9-5.8 2.7-11.5 5.5-5.9 2.5-11.8 5c-15.8 6.3-32 11.6-48.5 15.9-33.1 8.4-67.2 12.9-101.2 12.3q0 3.8-0.1 7.5c34.7 0.6 69.5-3.9 103.1-12.6 33.7-8.7 66.4-21.4 96.2-39.3q-0.3-4.1-0.6-8.3-7.1 4.1-14.2 8.1zm14.2-8.1q0.3 4.2 0.6 8.3 0 0 0 0-0.2-4.1-0.5-8.3 0 0-0.1 0zm0.1 0q0.3 4.2 0.5 8.3 31.6 12.5 63.2 25.1 1.4-3.5 2.7-7-33.2-13.2-66.4-26.4zm90.4 24.7l18.6 56.9-55.7-22.1q0 0-0.7 1.7v0.1l59.4 23.5-19.8-60.7q-1.8 0.5-1.8 0.5zm-33.8 11.1q3.5-1.2 7.1-2.4-9.6-29.3-19.1-58.7-4.3-0.9-8.5-1.8 10.2 31.4 20.5 62.9zm-20.5-62.9q4.2 0.9 8.5 1.8-0.1 0 0 0-4.3-0.9-8.5-1.8 0 0 0 0zm16.9-19.3q-1 1.4-2.1 2.7-0.5 0.7-1 1.4-0.7 0.7-1.3 1.5c-3.9 4.6-8.1 9-12.3 13.3q-0.1 0.2-0.2 0.4 4.2 0.9 8.5 1.8 0.1-0.2 0.3-0.3c6.7-6.8 13-14.2 18.2-22.2q-3.1-2-6.2-4.1-1.9 2.8-3.9 5.5zm27.6-54.6q0 1.9-0.1 4.7c-0.1 1.9-0.5 4.1-0.8 6.6-0.2 1.3-0.3 2.6-0.5 4q-0.6 2.1-1.1 4.3c-0.4 1.6-0.8 3.2-1.2 4.9q-0.9 2.4-1.9 5.1c-2.4 7.2-6.6 15-11.9 23.6q3.2 2.1 6.3 4.1c5.6-9.1 10.1-17.4 12.7-25.1q1-2.9 1.9-5.5c0.5-1.8 0.9-3.6 1.4-5.3q0.6-2.4 1.1-4.7c0.3-1.5 0.4-3 0.7-4.3 0.3-2.7 0.7-5.1 0.8-7.2q0.1-3.1 0.1-5.1 0.1-4.1 0.1-4.1-3.7 0.1-7.5 0.2 0 0-0.1 3.8zm-165.1-143.7c6.2 1.6 12.3 3.6 18.4 5.5 3 0.9 6 2.1 9.1 3.1q2.2 0.8 4.5 1.6 2.2 0.8 4.5 1.7c11.9 4.4 23.6 9.7 35 15.5 11.4 5.8 22.3 12.4 32.8 19.8 10.4 7.4 20.3 15.6 29.1 24.8 8.7 9.3 16.4 19.7 22.1 31.1 5.7 11.4 9.3 24 9.7 36.8q3.8-0.1 7.5-0.2c-0.5-14-4.3-27.7-10.4-39.9-6.1-12.3-14.3-23.2-23.5-32.9-9.2-9.7-19.5-18.2-30.2-25.8-10.8-7.6-22-14.4-33.7-20.3-11.7-6-23.6-11.4-35.8-15.9q-2.2-0.9-4.5-1.8-2.3-0.8-4.6-1.6c-3.1-1-6.2-2.2-9.3-3.2-6.2-1.9-12.4-3.9-18.7-5.5-25-7-50.7-11.4-76.6-13.9q-0.3 3.7-0.7 7.5c25.4 2.4 50.7 6.8 75.3 13.6zm-75.3-13.6q0.4-3.8 0.7-7.5 0 0-0.1 0-0.3 3.7-0.6 7.5 0 0 0 0zm0 0q0.3-3.8 0.6-7.5c-17.4-1.6-35-2.1-52.5-1.5q0.1 3.7 0.2 7.4c17.3-0.5 34.5 0 51.7 1.6zm-246 93.9c3.7-10.3 9.1-19.9 15.8-28.5 13.4-17.3 31.8-30.2 51.4-39.6 19.7-9.5 40.8-15.8 62.1-20.1 21.4-4.3 43.2-6.6 65-7.3q-0.1-3.7-0.2-7.4c-22.2 0.6-44.4 2.9-66.2 7.3-21.9 4.5-43.5 10.9-64 20.7-10.2 4.9-20 10.8-29.2 17.6-9.2 6.9-17.7 15-24.9 24.2-7.1 9.2-12.9 19.6-16.8 30.6-4 11.1-6 22.8-6.4 34.3q3.7 0.2 7.4 0.3c0.5-10.9 2.4-21.8 6-32.1zm-0.5 76c-3.8-14.3-5.9-29.1-5.5-43.9q-3.7-0.1-7.4-0.3c-0.5 15.8 1.7 31.3 5.7 46.2 3.9 14.8 9.6 29.1 16 42.8q3.4-1.6 6.8-3.2c-6.3-13.4-11.8-27.2-15.6-41.6zm15.6 41.6q-3.4 1.6-6.8 3.2 0 0 0 0 3.4-1.6 6.8-3.2 0 0 0 0zm134.3 100.5c-18.9-4.1-37.3-10.4-54.5-19.2-17.3-8.8-33.2-20.2-46.8-33.9-13.6-13.8-24.7-29.9-33-47.4q-3.4 1.6-6.8 3.2c8.6 18.2 20.3 35.1 34.5 49.4 14.2 14.4 30.8 26.3 48.7 35.4 17.8 9.1 36.9 15.6 56.3 19.8 19.5 4.3 39.3 6.4 59 6.8q0.1-3.8 0.2-7.5c-19.4-0.4-38.7-2.5-57.6-6.6zm160.7-6c-33.6 8.6-68.4 13.2-103.1 12.6q-0.1 3.7-0.2 7.5c35.6 0.6 71-4 105.2-12.8 17.1-4.4 34-9.9 50.4-16.6q6.2-2.6 12.3-5.2 6-2.8 12-5.6 5.9-3.1 11.8-6.1 4.2-2.4 8.4-4.8-0.3-4.2-0.6-8.3c-29.9 17.8-62.5 30.6-96.2 39.3zm96.2-39.3q0.3 4.1 0.6 8.3 0 0 0 0-0.3-4.2-0.6-8.3 0 0 0 0zm0 0q0.3 4.1 0.6 8.3 29.9 11.9 59.8 23.7 1.4-3.5 2.8-7-31.6-12.5-63.2-25zm88.1 16.9l17.4 53.2-52-20.6v-0.1q-0.4 0.9-0.7 1.8l55.7 22.1-18.6-57q-0.9 0.3-1.8 0.6zm-24.9 8.1q3.5-1.1 7.1-2.3-8.9-27.3-17.8-54.6-4.2-0.9-8.4-1.8 9.5 29.4 19.1 58.7zm-19.1-58.7q4.2 0.9 8.4 1.8 0 0 0 0-4.2-0.9-8.4-1.8-0.1 0 0 0zm0.3-0.3q-0.2 0.1-0.3 0.3 4.2 0.9 8.4 1.8 0.2-0.1 0.3-0.2 3.8-3.9 7.2-8 1.1-1.4 2.2-2.7 1.2-1.5 2.3-3 2.3-3.1 4.4-6.3-3.1-2.1-6.3-4.1c-5.2 8-11.5 15.4-18.2 22.2zm43.2-75.3q0 2-0.1 5.1c-0.1 2.1-0.5 4.5-0.9 7.2-0.2 1.3-0.3 2.8-0.6 4.3q-0.5 2.2-1.1 4.7c-0.5 1.7-0.9 3.4-1.4 5.2q-0.9 2.7-1.9 5.5c-2.6 7.8-7.1 16.1-12.7 25.2q1.6 1 3.1 2.1c5.8-9.4 10.4-18 13.1-26q1.1-2.9 2-5.7c0.5-1.8 1-3.7 1.4-5.4q0.6-2.6 1.2-4.9c0.3-1.5 0.4-3.1 0.7-4.5 0.3-2.8 0.7-5.3 0.8-7.4q0.1-3.2 0.2-5.4 0.1-4.3 0.1-4.3-1.9 0.1-3.8 0.1 0 0-0.1 4.2zm-170.6-151c6.3 1.6 12.5 3.6 18.7 5.5 3.1 1 6.2 2.1 9.3 3.2q2.3 0.8 4.6 1.6 2.2 0.9 4.5 1.8c12.2 4.5 24.1 9.9 35.8 15.8 11.7 6 22.9 12.8 33.7 20.4 10.7 7.6 21 16 30.2 25.8 9.2 9.7 17.3 20.6 23.4 32.9 6.1 12.2 10 25.9 10.5 39.8q1.9 0 3.8-0.1c-0.5-14.5-4.6-28.8-10.9-41.4-6.3-12.7-14.7-23.9-24.1-33.8-9.4-9.9-19.8-18.5-30.7-26.3-11-7.7-22.4-14.6-34.2-20.6-11.8-6-23.8-11.5-36.1-16q-2.3-0.9-4.6-1.8-2.4-0.8-4.7-1.6c-3.1-1.1-6.2-2.2-9.3-3.2-6.3-2-12.5-4-18.9-5.7-25.3-7-51.2-11.5-77.3-14q-0.2 1.9-0.3 3.8c25.9 2.5 51.6 6.9 76.6 13.9zm-76.6-13.9q0.1-1.9 0.3-3.8 0 0 0 0-0.2 1.9-0.4 3.8 0.1 0 0.1 0zm-0.1 0q0.2-1.9 0.4-3.8c-17.6-1.5-35.3-2-53-1.5q0.1 1.9 0.1 3.7c17.5-0.5 35.1 0 52.5 1.6zm-253.6 98.9c3.9-11 9.7-21.4 16.8-30.6 7.2-9.3 15.7-17.3 24.9-24.2 9.2-6.8 19-12.7 29.2-17.6 20.4-9.8 42.1-16.3 63.9-20.7 21.9-4.4 44.1-6.7 66.3-7.4q0-1.8-0.1-3.7c-22.4 0.7-44.8 3-66.9 7.4-22.1 4.5-44 11-64.8 21-10.4 5-20.5 11-29.9 18-9.4 7.1-18.1 15.3-25.5 24.9-7.4 9.5-13.4 20.2-17.5 31.7-4.1 11.4-6.1 23.5-6.6 35.4q1.9 0 3.7 0.1c0.5-11.6 2.5-23.2 6.5-34.3zm-0.7 80.4c-4-14.8-6.3-30.4-5.8-46.1q-1.8-0.1-3.7-0.1c-0.5 16.2 1.8 32.1 5.8 47.2 4 15.2 9.8 29.6 16.3 43.5q1.7-0.8 3.4-1.6c-6.4-13.8-12.1-28-16-42.9zm16 42.9q-1.7 0.8-3.4 1.6 0 0 0 0 1.7-0.8 3.4-1.6 0 0 0 0zm139.5 104.6c-19.4-4.3-38.5-10.7-56.4-19.8-17.8-9.2-34.5-21-48.6-35.4-14.2-14.4-25.9-31.2-34.5-49.4q-1.7 0.8-3.4 1.6c8.8 18.5 20.7 35.8 35.2 50.4 14.5 14.7 31.4 26.8 49.6 36.1 18.2 9.3 37.6 15.8 57.3 20.2 19.7 4.3 39.8 6.4 59.7 6.8q0.1-1.8 0.1-3.7c-19.7-0.4-39.5-2.5-59-6.8zm250.7-39.5q-5.9 3-11.8 6.1-6 2.8-12 5.6-6.1 2.6-12.3 5.2c-16.4 6.7-33.3 12.1-50.4 16.6-34.3 8.7-69.6 13.4-105.2 12.8q0 1.9-0.1 3.7c36 0.6 71.7-4 106.2-12.9 17.3-4.5 34.3-10 50.9-16.7q6.2-2.6 12.4-5.3 6.1-2.8 12.2-5.7 5.9-3 11.8-6.1 3.5-2 7-4-0.2-2.1-0.3-4.1-4.2 2.4-8.4 4.8zm8.4-4.8q0.1 2 0.3 4.1-0.2-2.1-0.3-4.1 0 0 0 0zm0 0q0.1 2 0.3 4.1 29.1 11.6 58.1 23.1 0.7-1.8 1.4-3.5-29.9-11.9-59.8-23.7zm85.8 9.2l16 49.3-48.2-19.1q-0.4 0.9-0.7 1.7l52 20.6-17.4-53.1q-0.9 0.3-1.7 0.6zm-16.1 5.2q1.8-0.6 3.6-1.2-8.6-26.2-17.1-52.5-2.2-0.4-4.3-0.9 8.9 27.3 17.8 54.6zm-17.8-54.6q2.1 0.5 4.3 0.9 0 0 0 0-2.2-0.5-4.3-0.9 0 0 0 0zm12-14q-1.1 1.6-2.3 3.1-1.1 1.3-2.2 2.7-3.4 4.1-7.2 7.9-0.2 0.2-0.3 0.3 2.1 0.4 4.3 0.9 0.1-0.1 0.2-0.2 3.1-3.2 6-6.7 1.1-1.3 2.2-2.6 1.1-1.6 2.3-3.1 2.4-3.2 4.5-6.5-1.5-1-3.1-2-2.1 3.2-4.4 6.2zm26.9-63.4q-0.1 2.1-0.2 5.4c-0.1 2.1-0.5 4.6-0.8 7.4-0.3 1.4-0.4 2.9-0.7 4.5q-0.6 2.3-1.2 4.9c-0.4 1.7-0.9 3.5-1.4 5.4q-1 2.7-2 5.7c-2.7 8-7.3 16.6-13.1 25.9q0.8 0.5 1.6 1.1c5.8-9.5 10.5-18.2 13.2-26.3q1.1-3.1 2.1-5.8c0.5-1.9 1-3.8 1.4-5.5q0.6-2.7 1.2-5c0.4-1.6 0.5-3.2 0.7-4.6 0.4-2.9 0.8-5.4 0.9-7.6q0.1-3.3 0.1-5.5 0.1-4.4 0.1-4.4-0.9 0.1-1.9 0.1 0 0 0 4.3zm-173.4-154.7c6.4 1.7 12.6 3.7 18.9 5.6 3.1 1 6.2 2.2 9.3 3.2q2.3 0.9 4.7 1.7 2.3 0.8 4.6 1.7c12.3 4.6 24.3 10.1 36.1 16.1 11.8 6 23.2 12.9 34.1 20.6 11 7.7 21.4 16.3 30.8 26.3 9.4 9.9 17.8 21.1 24.1 33.8 6.3 12.6 10.3 26.9 10.8 41.4q1 0 1.9-0.1c-0.5-14.8-4.6-29.3-11-42.1-6.4-12.9-15-24.3-24.4-34.3-9.5-10.1-20.1-18.7-31.1-26.5-11-7.8-22.5-14.8-34.3-20.8-11.9-6-24-11.5-36.4-16.1q-2.3-0.9-4.6-1.8-2.3-0.8-4.7-1.6c-3.1-1.1-6.2-2.2-9.3-3.2-6.3-2-12.6-4-19-5.7-25.4-7-51.4-11.5-77.6-14q-0.1 0.9-0.2 1.8c26.1 2.5 52 7 77.3 14zm-77.3-14q0.1-0.9 0.2-1.8 0 0-0.1 0 0 0.9-0.1 1.8 0 0 0 0zm0 0q0.1-0.9 0.1-1.8c-17.7-1.6-35.4-2.1-53.2-1.6q0.1 0.9 0.1 1.9c17.7-0.6 35.3 0 53 1.5zm-257.6 101.5c4.1-11.5 10.1-22.3 17.5-31.8 7.4-9.5 16.1-17.7 25.5-24.8 9.4-7 19.5-13 29.9-18 20.8-10 42.7-16.5 64.8-21 22.1-4.4 44.5-6.7 66.9-7.4q0-1-0.1-1.9c-22.4 0.7-44.9 3-67.2 7.5-22.2 4.5-44.2 11-65.2 21.1-10.5 5.1-20.7 11.1-30.2 18.2-9.5 7.2-18.4 15.5-25.9 25.2-7.5 9.6-13.6 20.6-17.7 32.2-4.2 11.7-6.3 23.9-6.8 36q1 0 1.9 0.1c0.5-12 2.5-24 6.6-35.4zm-0.8 82.6c-4.1-15.1-6.3-31.1-5.8-47.2q-0.9-0.1-1.9-0.1c-0.5 16.4 1.8 32.5 5.9 47.8 4 15.3 9.9 29.8 16.4 43.8q0.8-0.4 1.7-0.8c-6.5-13.9-12.3-28.3-16.3-43.5zm16.3 43.5q-0.9 0.4-1.7 0.8 0 0 0 0 0.9-0.4 1.7-0.8 0 0 0 0zm142.1 106.7c-19.7-4.4-39.1-10.9-57.3-20.2-18.2-9.3-35.1-21.4-49.6-36.1-14.5-14.6-26.4-31.9-35.2-50.4q-0.8 0.4-1.7 0.8c8.9 18.7 20.9 36.1 35.5 50.9 14.7 14.9 31.8 27.1 50.2 36.4 18.4 9.4 37.9 16 57.7 20.4 19.9 4.3 40 6.5 60.1 6.9q0-1 0-1.9c-19.9-0.4-40-2.5-59.7-6.8zm253.2-39.9q-5.9 3-11.8 6.1-6.1 2.9-12.2 5.7-6.2 2.6-12.4 5.3c-16.6 6.7-33.6 12.2-50.9 16.7-34.5 8.8-70.2 13.5-106.2 12.9q0 0.9 0 1.9c36.1 0.6 72-4.1 106.7-13 17.4-4.5 34.5-10.1 51.1-16.8q6.3-2.6 12.5-5.3 6.1-2.8 12.2-5.7 5.9-3.1 11.9-6.2 3.1-1.7 6.2-3.5-0.1-1.1-0.1-2.1-3.5 2-7 4zm7-4q0 1 0.1 2.1 0-1.1-0.1-2.1zm0 0q0.1 1 0.1 2.1 28.7 11.3 57.3 22.7 0.4-0.9 0.7-1.7-29-11.6-58.1-23.1zm83.7 5.6l14.8 45.6-44.5-17.7q-0.4 0.9-0.7 1.8l48.3 19.1-16.1-49.3v-0.1q-0.9 0.3-1.8 0.6zm-10.7 3.5q0.9-0.3 1.8-0.6-8.4-25.7-16.8-51.5-1.1-0.2-2.1-0.4 8.5 26.2 17.1 52.5zm-17.1-52.5q1 0.2 2.1 0.4-1.1-0.2-2.1-0.4 0 0 0 0zm10.7-12.6q-1.1 1.5-2.3 3.1-1.1 1.3-2.2 2.6-2.8 3.5-6 6.7-0.1 0.1-0.2 0.2 1 0.2 2.1 0.4 0.1-0.1 0.2-0.2 2.8-2.8 5.4-5.9 1.1-1.4 2.1-2.7 1.2-1.6 2.5-3.1 2.3-3.2 4.5-6.6-0.8-0.5-1.5-1-2.2 3.3-4.6 6.5zm25.8-65.7q-0.1 2.2-0.2 5.5c-0.1 2.2-0.5 4.7-0.9 7.6-0.2 1.4-0.3 2.9-0.7 4.5q-0.5 2.4-1.2 5c-0.4 1.8-0.8 3.6-1.4 5.5q-1 2.8-2 5.8c-2.8 8.2-7.5 16.9-13.3 26.3q0.8 0.6 1.6 1.1c5.9-9.6 10.6-18.4 13.4-26.7q1.1-3.1 2.1-5.9c0.6-2 1-3.8 1.4-5.6q0.7-2.7 1.3-5.1c0.3-1.6 0.5-3.2 0.7-4.7 0.3-2.9 0.8-5.5 0.9-7.7q0.1-3.4 0.1-5.6 0.1-4.5 0.1-4.5-0.9 0.1-1.9 0.1 0 0 0 4.4zm-174.8-156.5c6.4 1.7 12.7 3.7 19 5.6 3.1 1 6.2 2.2 9.3 3.3q2.4 0.8 4.7 1.6 2.3 0.9 4.6 1.8c12.4 4.6 24.5 10.1 36.4 16.1 11.9 6 23.3 13 34.3 20.7 11 7.8 21.6 16.5 31.1 26.5 9.5 10.1 18 21.5 24.4 34.3 6.4 12.9 10.5 27.4 11 42.2q1 0 1.9-0.1c-0.5-15.1-4.7-29.9-11.2-42.9-6.5-13.1-15.2-24.6-24.7-34.7-9.7-10.2-20.3-18.9-31.4-26.8-11.1-7.8-22.6-14.8-34.6-20.9-11.9-6-24-11.6-36.5-16.2q-2.3-0.9-4.6-1.8-2.4-0.8-4.7-1.6c-3.2-1.1-6.3-2.2-9.4-3.2-6.4-2-12.7-4-19.1-5.7-25.5-7.1-51.6-11.6-77.9-14.1q-0.1 0.9-0.2 1.8c26.2 2.5 52.2 7 77.6 14.1zm-77.6-14.1q0.1-0.9 0.2-1.8-0.1 0-0.1 0-0.1 0.9-0.1 1.8 0 0 0 0zm0 0q0-0.9 0.1-1.8c-17.8-1.6-35.6-2.1-53.4-1.6q0 0.9 0.1 1.9c17.7-0.6 35.5 0 53.2 1.5zm-259.5 102.7c4.1-11.6 10.2-22.6 17.7-32.2 7.5-9.7 16.4-18.1 25.9-25.2 9.5-7.1 19.7-13.2 30.2-18.2 21-10.1 43-16.6 65.3-21.2 22.2-4.4 44.7-6.7 67.2-7.4q-0.1-1-0.1-1.9c-22.6 0.7-45.2 3-67.5 7.5-22.4 4.5-44.6 11.1-65.7 21.3-10.6 5.1-20.9 11.2-30.5 18.4-9.7 7.2-18.6 15.7-26.3 25.5-7.6 9.8-13.8 20.9-18 32.8-4.2 11.8-6.3 24.2-6.8 36.5q0.9 0 1.8 0.1c0.5-12.1 2.6-24.4 6.8-36zm-0.9 83.7c-4.1-15.2-6.4-31.3-5.9-47.7q-0.9-0.1-1.8-0.1c-0.6 16.6 1.8 32.9 5.9 48.3 4.1 15.5 9.9 30.1 16.5 44.2q0.9-0.5 1.7-0.9c-6.5-13.9-12.4-28.4-16.4-43.8zm16.4 43.8q-0.8 0.4-1.7 0.9 0 0 0 0 0.9-0.4 1.7-0.8 0 0 0-0.1zm143.4 107.8c-19.8-4.4-39.3-11-57.7-20.4-18.4-9.3-35.5-21.5-50.1-36.4-14.7-14.8-26.7-32.2-35.6-50.9q-0.8 0.4-1.7 0.8c9 18.9 21.1 36.5 35.9 51.4 14.8 15 32.1 27.4 50.6 36.8 18.6 9.5 38.3 16.1 58.2 20.5 20 4.4 40.3 6.5 60.5 6.9q0-0.9 0-1.8c-20.1-0.4-40.2-2.6-60.1-6.9zm254.5-40.1q-5.9 3.1-11.9 6.2-6.1 2.8-12.2 5.7-6.2 2.7-12.4 5.3c-16.7 6.7-33.8 12.3-51.2 16.8-34.7 8.9-70.6 13.6-106.7 13q0 0.9 0 1.8c36.3 0.7 72.3-4.1 107.2-13 17.4-4.5 34.6-10.1 51.4-16.9q6.2-2.6 12.4-5.3 6.2-2.9 12.3-5.8 6-3 12-6.1 2.7-1.6 5.5-3.2-0.1-1-0.2-2-3.1 1.7-6.2 3.5zm6.2-3.5q0.1 1 0.2 2-0.1-1-0.2-2zm0.1-0.1q0 1.1 0.1 2.1 28.2 11.2 56.5 22.4 0.3-0.8 0.7-1.7-28.7-11.4-57.3-22.8zm81.7 4.2l13.6 41.8-40.8-16.2q-0.4 0.8-0.7 1.7l44.6 17.7-14.9-45.6q-0.9 0.3-1.8 0.6zm-7.1 2.3q0.9-0.3 1.8-0.6-8.3-25.2-16.5-50.4-1-0.3-2.1-0.5 8.4 25.7 16.8 51.5zm-16.8-51.5q1.1 0.2 2.1 0.5v-0.1q-1-0.2-2.1-0.4zm10.2-12q-1.2 1.6-2.4 3.2-1.1 1.3-2.2 2.6-2.5 3.1-5.4 6-0.1 0.1-0.2 0.2 1.1 0.2 2.1 0.4 0.1-0.1 0.2-0.1 2.5-2.6 4.8-5.3 1.1-1.4 2.1-2.7 1.3-1.6 2.5-3.1 2.4-3.3 4.6-6.7-0.8-0.5-1.6-1-2.2 3.4-4.5 6.5zm26.1-66.7q-0.1 2.2-0.2 5.6c-0.1 2.2-0.5 4.7-0.9 7.7-0.2 1.4-0.4 3-0.7 4.7q-0.6 2.4-1.2 5c-0.5 1.8-0.9 3.7-1.5 5.6q-1 2.9-2.1 5.9c-2.8 8.3-7.5 17.2-13.4 26.7q1.6 1.1 3.1 2.1c6.1-9.8 11-18.9 13.9-27.5q1.1-3.1 2.1-6.1c0.6-2 1-3.9 1.5-5.8q0.7-2.7 1.3-5.2c0.3-1.7 0.5-3.4 0.7-4.9 0.4-3 0.8-5.7 1-8q0-3.5 0.1-5.8 0.1-4.6 0.1-4.6-1.9 0-3.8 0.1 0 0 0 4.5zm-176.2-158.3c6.4 1.6 12.7 3.7 19.1 5.6 3.1 1 6.2 2.2 9.4 3.2q2.3 0.9 4.7 1.7 2.3 0.9 4.6 1.8c12.5 4.6 24.6 10.1 36.6 16.2 11.9 6 23.5 13 34.5 20.9 11.1 7.8 21.8 16.6 31.4 26.7 9.5 10.2 18.2 21.7 24.7 34.8 6.5 13 10.7 27.8 11.2 42.9q1.9-0.1 3.8-0.1c-0.6-15.7-4.9-31.1-11.6-44.5-6.8-13.5-15.6-25.3-25.4-35.7-9.8-10.3-20.6-19.2-31.9-27.2-11.2-7.9-23-15-35-21.1-12.1-6.2-24.4-11.8-36.9-16.4q-2.4-0.9-4.7-1.8-2.4-0.9-4.8-1.7c-3.1-1.1-6.3-2.2-9.5-3.2-6.3-2-12.7-4.1-19.2-5.8-25.7-7.1-52-11.7-78.6-14.2q-0.2 1.9-0.3 3.7c26.3 2.5 52.4 7.1 77.9 14.2zm-77.9-14.2q0.1-1.8 0.3-3.7 0 0 0 0-0.2 1.9-0.4 3.7 0.1 0 0.1 0zm-0.1 0q0.2-1.8 0.4-3.7-26.9-2.4-53.9-1.6 0.1 1.9 0.1 3.8c17.8-0.6 35.7-0.1 53.4 1.5zm-261.4 103.9c4.2-11.8 10.4-22.9 18-32.7 7.7-9.8 16.7-18.3 26.3-25.5 9.6-7.3 19.9-13.3 30.5-18.4 21.2-10.2 43.4-16.8 65.7-21.3 22.4-4.5 44.9-6.8 67.5-7.5q0-1.9-0.1-3.8c-22.8 0.7-45.5 3.1-68.1 7.6-22.6 4.6-45.1 11.2-66.6 21.6-10.8 5.2-21.3 11.4-31.2 18.8-9.8 7.4-19 16.1-26.9 26.2-7.9 10.1-14.3 21.6-18.6 33.8-4.4 12.2-6.5 25-7.1 37.6q1.9 0.1 3.8 0.2c0.5-12.3 2.6-24.7 6.8-36.6zm-0.9 84.9c-4.1-15.4-6.4-31.7-5.9-48.3q-1.9-0.1-3.8-0.2c-0.5 17.1 1.9 33.8 6.1 49.4 4.1 15.8 10.1 30.6 16.8 44.8q1.7-0.8 3.3-1.6c-6.5-14.1-12.4-28.7-16.5-44.1zm16.5 44.1q-1.6 0.8-3.3 1.6 0 0 0 0.1 1.7-0.8 3.4-1.6 0-0.1-0.1-0.1zm144.7 108.8c-19.9-4.4-39.6-11.1-58.1-20.5-18.6-9.5-35.9-21.8-50.7-36.8-14.8-15-26.9-32.6-35.8-51.4q-1.7 0.8-3.4 1.6c9.1 19.2 21.5 37.1 36.6 52.4 15.1 15.3 32.7 27.9 51.6 37.5 18.8 9.6 38.8 16.4 59 20.8 20.3 4.5 40.8 6.6 61.2 7q0.1-1.8 0.1-3.7c-20.2-0.4-40.5-2.6-60.5-6.9zm255.8-40.3q-6 3.1-11.9 6.2-6.2 2.9-12.3 5.8-6.3 2.6-12.5 5.3c-16.8 6.8-33.9 12.3-51.4 16.8-34.9 9-70.9 13.7-107.2 13.1q0 1.9-0.1 3.7c36.7 0.7 73.1-4.1 108.3-13.1 17.5-4.6 34.9-10.2 51.8-17q6.3-2.7 12.6-5.4 6.2-2.9 12.4-5.8 6-3.1 12-6.2 2-1.2 4.1-2.4-0.2-2-0.3-4.1-2.8 1.6-5.5 3.1zm5.5-3.1q0.1 2.1 0.3 4.1-0.2-2-0.3-4.1zm0 0q0.2 2.1 0.3 4.1 27.4 10.9 54.8 21.8 0.7-1.8 1.4-3.5-28.2-11.2-56.5-22.4zm79.9 2.6l12.3 38-37.1-14.7q-0.3 0.8-0.7 1.7l40.9 16.2-13.7-41.7v-0.1q-0.9 0.3-1.7 0.6zm-3.6 1.2q1.8-0.6 3.5-1.2-7.8-24.2-15.7-48.4-2.1-0.4-4.3-0.9 8.3 25.2 16.5 50.5zm-16.5-50.5q2.2 0.5 4.3 0.9-2.1-0.4-4.3-0.9zm9.6-11.3q-1.2 1.6-2.4 3.2-1.1 1.3-2.1 2.6-2.3 2.8-4.9 5.3-0.1 0.1-0.1 0.2 2.1 0.4 4.2 0.9 0-0.1 0.1-0.1 1.9-1.9 3.6-4 1.1-1.3 2.1-2.6 1.3-1.6 2.5-3.2 2.5-3.4 4.8-6.9-1.6-1-3.2-2-2.2 3.4-4.6 6.6zm28.3-67.8q0 2.3-0.1 5.8c-0.1 2.3-0.6 4.9-1 8-0.2 1.5-0.3 3.2-0.7 4.8q-0.6 2.5-1.3 5.3c-0.4 1.8-0.9 3.8-1.5 5.8q-1 2.9-2.1 6.1c-2.9 8.6-7.8 17.6-13.8 27.4q0.7 0.6 1.5 1.1c6.2-10 11.1-19.2 14-27.9q1.2-3.2 2.2-6.2c0.6-2 1.1-4 1.5-5.9q0.7-2.8 1.3-5.3c0.4-1.7 0.5-3.4 0.8-4.9 0.4-3.1 0.8-5.8 0.9-8.2q0.1-3.5 0.2-5.9 0.1-4.7 0.1-4.7-1 0-1.9 0 0 0-0.1 4.7zm-178.9-162c6.5 1.7 12.9 3.7 19.3 5.7 3.1 1 6.3 2.2 9.4 3.3q2.4 0.8 4.8 1.6 2.3 0.9 4.7 1.8c12.5 4.7 24.8 10.3 36.9 16.4 12.1 6.1 23.8 13.2 35 21.2 11.3 8 22.1 16.8 31.9 27.2 9.8 10.4 18.7 22.2 25.4 35.7 6.7 13.4 11.1 28.7 11.6 44.4q0.9 0 1.9 0c-0.6-16-5-31.6-11.8-45.3-6.9-13.7-15.8-25.6-25.7-36.1-9.9-10.4-20.9-19.4-32.2-27.5-11.3-8-23.1-15.1-35.2-21.2-12.2-6.2-24.5-11.8-37.1-16.5q-2.4-0.9-4.8-1.8-2.3-0.9-4.7-1.7c-3.2-1.1-6.4-2.3-9.6-3.3-6.4-2-12.8-4-19.3-5.7-25.8-7.2-52.2-11.8-78.9-14.3q-0.1 0.9-0.2 1.9c26.6 2.5 52.9 7 78.6 14.2zm-78.6-14.2q0.1-1 0.2-1.9 0 0 0 0-0.1 0.9-0.2 1.9 0 0 0 0zm0 0q0.1-1 0.2-1.9-27.1-2.4-54.1-1.6 0 0.9 0 1.9 27-0.8 53.9 1.6zm-265.3 106.3c4.3-12.2 10.7-23.7 18.6-33.8 7.9-10.1 17.1-18.8 27-26.2 9.8-7.4 20.3-13.6 31.1-18.7 21.5-10.4 44-17.1 66.6-21.7 22.6-4.5 45.4-6.8 68.1-7.5q0-1 0-1.9c-22.9 0.7-45.8 3.1-68.5 7.6-22.7 4.6-45.3 11.3-67 21.8-10.9 5.2-21.5 11.4-31.5 18.9-9.9 7.5-19.3 16.3-27.3 26.6-7.9 10.2-14.5 21.9-18.9 34.3-4.4 12.4-6.6 25.4-7.1 38.2q0.9 0 1.9 0.1c0.5-12.6 2.6-25.4 7-37.7zm-1 87.1c-4.2-15.7-6.6-32.3-6-49.4q-1-0.1-1.9-0.1c-0.6 17.3 1.9 34.2 6.1 50 4.2 15.9 10.2 30.8 16.9 45.1q0.8-0.4 1.7-0.8c-6.7-14.2-12.6-29.1-16.8-44.8zm16.8 44.8q-0.9 0.4-1.7 0.8 0 0 0 0 0.8-0.4 1.7-0.8 0 0 0 0zm147.3 110.8c-20.3-4.5-40.3-11.2-59.1-20.8-18.9-9.6-36.5-22.2-51.6-37.5-15.1-15.3-27.5-33.3-36.6-52.5q-0.9 0.4-1.7 0.8c9.2 19.4 21.7 37.6 37 53 15.2 15.5 33 28.1 52 37.8 19 9.7 39.2 16.5 59.6 21 20.4 4.5 41 6.7 61.5 7.1q0-1 0-1.9c-20.4-0.4-40.9-2.6-61.1-7zm258.2-40.6q-6 3.1-12 6.2-6.2 3-12.4 5.9-6.3 2.7-12.6 5.3c-16.9 6.9-34.2 12.5-51.8 17-35.2 9.1-71.6 13.8-108.3 13.2q0 0.9 0 1.9c36.9 0.6 73.4-4.2 108.7-13.2 17.7-4.6 35.1-10.3 52.1-17.1q6.3-2.7 12.7-5.4 6.2-3 12.5-5.9 6-3.1 12-6.2 1.7-1 3.3-1.9 0-1.1-0.1-2.1-2 1.2-4.1 2.3zm4.1-2.3q0.1 1 0.1 2.1 0-1.1-0.1-2.1zm0 0q0.1 1 0.2 2.1 26.9 10.7 53.9 21.4 0.4-0.9 0.7-1.8-27.4-10.8-54.8-21.7zm76-0.3l9.9 30.3-29.7-11.7v-0.1q-0.7 1.8-1.4 3.5l37.1 14.8-12.3-38q-1.8 0.6-3.6 1.1zm3.6-1.1q0.9-0.3 1.7-0.6-7.7-23.7-15.4-47.4-1-0.2-2.1-0.4 7.9 24.2 15.8 48.4zm-15.8-48.4q1.1 0.2 2.1 0.4-1-0.2-2.1-0.4zm8.3-10q-1.2 1.7-2.5 3.3-1 1.3-2 2.6-1.8 2-3.7 3.9 0 0.1-0.1 0.2 1.1 0.2 2.1 0.4 0.1 0 0.1-0.1 1.6-1.6 3-3.3 1.1-1.3 2.1-2.6 1.3-1.6 2.5-3.3 2.5-3.3 4.8-6.9-0.7-0.5-1.5-1-2.3 3.5-4.8 6.8zm27.2-70q-0.1 2.3-0.1 5.9c-0.2 2.3-0.6 5-1 8.1-0.2 1.6-0.4 3.2-0.8 5q-0.6 2.5-1.2 5.3c-0.5 1.9-1 3.9-1.5 5.9q-1.1 3-2.2 6.2c-3 8.7-7.9 17.9-14.1 27.8q0.8 0.5 1.6 1.1c6.2-10.1 11.2-19.4 14.2-28.3q1.2-3.2 2.2-6.2c0.6-2.1 1.1-4.1 1.6-6q0.7-2.9 1.3-5.5c0.4-1.7 0.5-3.4 0.7-5 0.4-3.2 0.9-5.9 1-8.3q0.1-3.6 0.2-6 0.1-4.8 0.1-4.8-1 0-1.9 0 0 0-0.1 4.8zm-180.2-163.8c6.4 1.6 12.8 3.7 19.2 5.7 3.2 1 6.4 2.2 9.6 3.3q2.4 0.8 4.7 1.6 2.4 0.9 4.8 1.8c12.6 4.7 24.9 10.4 37.1 16.5 12.1 6.2 23.9 13.3 35.2 21.3 11.4 8.1 22.3 17 32.2 27.5 9.9 10.5 18.8 22.4 25.7 36.1 6.8 13.6 11.2 29.2 11.8 45.2q0.9 0 1.9 0c-0.6-16.3-5.1-32.2-12.1-46-6.9-13.9-16-26-26-36.6-10-10.6-21-19.6-32.4-27.7-11.4-8.1-23.3-15.3-35.5-21.4-12.2-6.3-24.6-11.9-37.3-16.6q-2.3-0.9-4.7-1.8-2.4-0.9-4.8-1.7c-3.2-1.1-6.4-2.3-9.6-3.3-6.4-2-12.8-4.1-19.3-5.8-26-7.2-52.5-11.8-79.3-14.3q-0.1 0.9-0.2 1.9c26.7 2.5 53.1 7.1 79 14.3zm-79-14.3q0.1-1 0.2-1.9 0 0-0.1 0 0 0.9-0.1 1.9 0 0 0 0zm0 0q0.1-1 0.1-1.9-27.1-2.4-54.3-1.6 0.1 0.9 0.1 1.9 27.1-0.8 54.1 1.6zm-267.2 107.6c4.3-12.4 10.9-24.1 18.8-34.3 8-10.3 17.4-19.1 27.3-26.6 10-7.5 20.6-13.7 31.5-18.9 21.7-10.5 44.3-17.2 67-21.8 22.7-4.6 45.6-6.9 68.5-7.6q0-1-0.1-1.9c-22.9 0.7-45.9 3.1-68.7 7.6-22.9 4.7-45.6 11.4-67.5 22-11 5.2-21.7 11.5-31.8 19.1-10.1 7.6-19.5 16.5-27.6 26.9-8.1 10.4-14.8 22.3-19.2 34.9-4.5 12.6-6.7 25.8-7.3 38.7q1 0 1.9 0.1c0.5-12.8 2.7-25.8 7.2-38.2zm-1.1 88.2c-4.2-15.9-6.7-32.7-6.1-50q-0.9-0.1-1.9-0.1c-0.5 17.6 1.9 34.6 6.2 50.5 1 4.1 2.3 7.9 3.5 11.9 1.3 3.8 2.6 7.7 4.1 11.5 2.8 7.6 6.1 14.8 9.4 22.1q0.8-0.4 1.7-0.8c-6.7-14.4-12.7-29.3-16.9-45.1zm16.9 45.1q-0.9 0.4-1.7 0.8 0 0 0 0 0.9-0.4 1.7-0.8 0 0 0 0zm148.6 111.8c-20.4-4.5-40.5-11.3-59.6-21-19-9.7-36.8-22.4-52-37.8-15.3-15.5-27.8-33.6-37-53q-0.8 0.4-1.7 0.8c9.3 19.6 21.9 37.9 37.3 53.5 15.4 15.6 33.4 28.4 52.6 38.2 19.2 9.8 39.5 16.6 60 21.1 20.5 4.5 41.3 6.7 61.9 7.1q0-0.9 0-1.8c-20.5-0.5-41.1-2.6-61.5-7.1zm259.5-40.7q-6 3.1-12 6.2-6.3 2.9-12.5 5.9-6.3 2.6-12.7 5.3c-17 6.9-34.4 12.6-52.1 17.1-35.3 9.1-71.8 13.9-108.7 13.3q0 0.9 0 1.8c37.1 0.7 73.7-4.2 109.2-13.3 17.8-4.5 35.2-10.2 52.3-17.1q6.4-2.7 12.8-5.4 6.2-3 12.5-5.9 6.1-3.2 12.1-6.3 1.3-0.7 2.6-1.5-0.1-1-0.2-2.1-1.6 1-3.3 2zm3.3-2q0.1 1.1 0.2 2.1-0.1-1-0.1-2.1zm0 0q0 1.1 0.1 2.1 26.6 10.6 53.1 21.1 0.4-0.9 0.7-1.8-27-10.7-53.9-21.4zm54.4 4.6l9.9-9.3q-1.4 3.5-2.8 7h0.1-0.1q-3.5 1.1-7.1 2.3zm26.8-8.7q0.8-0.3 1.7-0.6-7.5-23.2-15.1-46.3-1-0.3-2.1-0.5 7.7 23.7 15.5 47.4zm-15.5-47.4q1.1 0.2 2.1 0.5v-0.1q-1-0.2-2.1-0.4zm7.7-9.3q-1.2 1.7-2.5 3.3-1 1.3-2 2.6-1.5 1.7-3.1 3.3 0 0-0.1 0.1 1.1 0.2 2.1 0.4 0.1 0 0.1 0 1.3-1.3 2.4-2.7 1.1-1.3 2.1-2.5 1.3-1.7 2.5-3.4 2.6-3.4 4.9-7-0.8-0.5-1.5-1-2.4 3.6-4.9 6.9zm27.6-71.1q-0.1 2.4-0.2 6c-0.1 2.4-0.5 5.1-0.9 8.3-0.3 1.5-0.4 3.2-0.8 5q-0.6 2.6-1.3 5.4c-0.5 1.9-1 4-1.5 6q-1.1 3-2.3 6.3c-3 8.8-8 18.2-14.2 28.2q0.8 0.5 1.6 1.1c6.3-10.2 11.3-19.7 14.4-28.6q1.2-3.4 2.2-6.4c0.6-2.1 1.1-4.2 1.6-6.1q0.7-2.9 1.3-5.6c0.4-1.7 0.6-3.5 0.8-5.1 0.4-3.2 0.9-6 1-8.4q0.1-3.7 0.2-6.1 0-4.9 0-4.9-0.9 0-1.8 0 0 0-0.1 4.9zm-181.6-165.7c6.5 1.7 12.9 3.8 19.3 5.8 3.2 1 6.4 2.2 9.6 3.3q2.4 0.8 4.8 1.6 2.4 1 4.7 1.9c12.7 4.7 25.1 10.3 37.3 16.5 12.2 6.2 24.1 13.4 35.5 21.5 11.4 8.1 22.4 17.1 32.5 27.7 9.9 10.5 19 22.6 26 36.5 6.9 13.9 11.4 29.8 12 46q0.9 0 1.8 0c-0.5-16.6-5.1-32.7-12.2-46.8-7-14.1-16.2-26.3-26.3-37-10.1-10.7-21.2-19.8-32.7-28-11.5-8.1-23.4-15.3-35.7-21.5-12.3-6.3-24.8-11.9-37.5-16.7q-2.4-0.9-4.8-1.8-2.4-0.9-4.8-1.7c-3.2-1.1-6.4-2.3-9.6-3.3-6.5-2-12.9-4.1-19.4-5.8-26.1-7.2-52.8-11.8-79.6-14.4q-0.1 0.9-0.2 1.9c26.8 2.5 53.3 7.1 79.3 14.3zm-79.3-14.3q0.1-1 0.2-1.9-0.1 0-0.1 0-0.1 0.9-0.2 1.9 0.1 0 0.1 0zm-0.1 0q0.1-1 0.2-1.9-27.2-2.4-54.5-1.6 0 0.9 0 1.9 27.2-0.8 54.3 1.6zm-269.1 108.8c4.4-12.6 11.1-24.4 19.2-34.8 8.1-10.4 17.5-19.4 27.6-26.9 10.1-7.6 20.8-13.9 31.8-19.2 21.9-10.5 44.6-17.2 67.5-21.9 22.8-4.6 45.8-6.9 68.7-7.6q0-1 0-1.9c-23.1 0.7-46.1 3.1-69.1 7.7-22.9 4.6-45.9 11.4-67.9 22-11.1 5.3-21.9 11.7-32.1 19.4-10.2 7.6-19.8 16.7-28 27.2-8.2 10.6-15 22.6-19.5 35.4-4.5 12.8-6.8 26.2-7.4 39.3q1 0 1.9 0.1c0.6-13 2.8-26.2 7.3-38.8zm6.5 112.6c-1.5-3.7-2.8-7.6-4.1-11.5-1.2-3.9-2.5-7.8-3.5-11.8-4.3-15.9-6.7-33-6.2-50.5q-0.9-0.1-1.9-0.1c-0.5 17.8 2 35 6.3 51.1 1 4.1 2.3 8 3.5 11.9 1.4 3.9 2.6 7.8 4.1 11.6 2.9 7.6 6.2 15 9.5 22.2q0.9-0.4 1.7-0.8c-3.3-7.2-6.6-14.5-9.4-22.1zm9.4 22.1q-0.8 0.4-1.7 0.8 0 0.1 0 0.1 0.9-0.4 1.7-0.8 0 0 0-0.1zm149.9 112.9c-20.5-4.5-40.8-11.4-60-21.2-19.2-9.7-37.2-22.5-52.6-38.2-15.4-15.5-28-33.9-37.3-53.4q-0.8 0.4-1.7 0.8c9.4 19.7 22.1 38.2 37.7 54 15.5 15.7 33.7 28.7 53 38.5 19.4 9.9 39.8 16.8 60.5 21.3 20.6 4.5 41.5 6.7 62.3 7.2q0-1 0-1.9c-20.6-0.4-41.4-2.6-61.9-7.1zm260.8-40.9q-6 3.1-12.1 6.2-6.3 3-12.5 5.9-6.4 2.7-12.8 5.4c-17 6.9-34.5 12.6-52.3 17.2-35.5 9.1-72.1 13.9-109.2 13.3q0 0.9 0 1.9c37.2 0.6 74-4.2 109.7-13.4 17.8-4.6 35.4-10.3 52.5-17.2q6.4-2.7 12.8-5.5 6.3-2.9 12.6-5.9 6.1-3.1 12.2-6.3c-0.1 0.1-0.2 0.1-0.2 0.1q0 0 0.1 0 0 0 0.1-0.1 0.1-0.1 0.3-0.1 0.2-0.2 0.5-0.3 0.5-0.3 1-0.6 0-1.1-0.1-2.1-1.3 0.7-2.6 1.5zm2.6-1.5q0.1 1 0.1 2.1h0.1q-0.1-1.1-0.2-2.1zm0 0q0.1 1 0.2 2.1 26.1 10.3 52.3 20.7 0.3-0.9 0.6-1.7-26.5-10.6-53.1-21.1zm73.9-3.9l8.7 26.6-26-10.3v-0.1q-0.3 0.9-0.7 1.8l29.7 11.8-9.9-30.4q-0.9 0.3-1.8 0.6zm8.9-3q0.9-0.2 1.8-0.5-7.4-22.7-14.7-45.3-1.1-0.3-2.2-0.5 7.6 23.2 15.1 46.3zm-15.1-46.3q1.1 0.2 2.2 0.5-1.1-0.3-2.2-0.5zm7.1-8.6q-1.2 1.7-2.5 3.3-1 1.3-2 2.6-1.2 1.4-2.5 2.6 0 0.1 0 0.1 1 0.2 2.1 0.5 0-0.1 0-0.1 1-1 1.8-2 1-1.2 2.1-2.5 1.2-1.7 2.5-3.4 2.6-3.4 5-7.1-0.8-0.5-1.6-1-2.3 3.6-4.9 7zm28-72.2q-0.1 2.4-0.2 6.1c-0.1 2.4-0.6 5.2-1 8.4-0.2 1.6-0.4 3.4-0.8 5.1q-0.6 2.6-1.3 5.6c-0.5 1.9-1 3.9-1.5 6q-1.1 3.1-2.3 6.4c-3.1 9-8.1 18.5-14.4 28.6q0.8 0.5 1.6 1.1c6.3-10.3 11.4-19.9 14.6-29q1.1-3.4 2.2-6.5c0.7-2.1 1.1-4.2 1.6-6.2q0.7-3 1.4-5.6c0.4-1.8 0.5-3.6 0.8-5.2 0.4-3.3 0.9-6.1 1-8.6q0.1-3.7 0.1-6.2 0.1-5 0.1-5-0.9 0-1.9 0.1 0 0 0 4.9zm-183-167.5c6.5 1.7 13 3.8 19.4 5.8 3.2 1 6.4 2.2 9.6 3.3q2.4 0.8 4.8 1.7 2.4 0.9 4.8 1.8c12.8 4.7 25.2 10.4 37.5 16.6 12.3 6.3 24.2 13.5 35.7 21.6 11.5 8.2 22.6 17.3 32.7 27.9 10.1 10.7 19.3 23 26.3 37.1 7.1 14 11.7 30.2 12.2 46.8q1-0.1 1.9-0.1c-0.5-16.9-5.3-33.3-12.4-47.6-7.1-14.3-16.4-26.6-26.6-37.4-10.2-10.8-21.4-20-33-28.2-11.6-8.2-23.6-15.5-35.9-21.7-12.4-6.3-24.9-12-37.7-16.8q-2.4-0.9-4.8-1.8-2.4-0.9-4.8-1.7c-3.3-1.1-6.5-2.3-9.7-3.3-6.5-2-13-4.1-19.5-5.8-26.2-7.3-53-11.9-80-14.5q-0.1 0.9-0.1 1.9c26.8 2.5 53.5 7.1 79.6 14.4zm-79.6-14.4q0-1 0.1-1.9 0 0 0 0-0.1 0.9-0.2 1.9 0 0 0.1 0zm-0.1 0q0.1-1 0.2-1.9-27.4-2.4-54.8-1.6 0.1 0.9 0.1 1.9 27.3-0.9 54.5 1.6zm-271.1 110.1c4.5-12.8 11.3-24.9 19.5-35.4 8.2-10.6 17.8-19.6 28-27.3 10.2-7.6 21-14 32.1-19.3 22.1-10.6 45-17.4 67.9-22.1 23-4.5 46-6.9 69.1-7.6q0-1-0.1-1.9c-23.1 0.7-46.3 3.1-69.4 7.7-23 4.7-46.1 11.5-68.4 22.2-11.1 5.4-22 11.8-32.3 19.5-10.3 7.8-20.1 16.9-28.4 27.6-8.3 10.7-15.2 23-19.7 36-4.7 12.9-7 26.5-7.5 39.8q0.9 0 1.9 0.1c0.5-13.1 2.8-26.5 7.3-39.3zm6.5 113.9c-1.5-3.8-2.7-7.7-4.1-11.6-1.2-4-2.5-7.9-3.5-11.9-4.3-16.1-6.8-33.3-6.2-51.1q-1-0.1-1.9-0.1c-0.6 18 1.9 35.4 6.3 51.6 1 4.1 2.3 8.1 3.5 12.1 1.4 3.9 2.7 7.8 4.2 11.6 2.8 7.7 6.1 15.1 9.5 22.4q0.9-0.4 1.7-0.8c-3.3-7.3-6.6-14.6-9.5-22.2zm9.5 22.2q-0.8 0.4-1.7 0.8 0 0 0 0.1 0.9-0.4 1.7-0.8 0-0.1 0-0.1zm151.2 113.9c-20.7-4.5-41.1-11.4-60.5-21.3-19.3-9.9-37.5-22.8-53-38.6-15.6-15.7-28.3-34.2-37.7-53.9q-0.8 0.4-1.7 0.8c9.5 19.9 22.4 38.6 38.1 54.4 15.6 16 34 29 53.5 38.9 19.5 10 40.1 17 60.9 21.5 20.8 4.6 41.8 6.8 62.6 7.2q0-0.9 0.1-1.9c-20.8-0.4-41.7-2.6-62.3-7.1zm262.9-41.6q-0.3 0.2-0.5 0.3-0.2 0.1-0.3 0.2-0.1 0-0.1 0.1-0.1 0-0.1 0c0 0 0.1-0.1 0.2-0.1q-6.1 3.2-12.1 6.3-6.4 3-12.7 5.9-6.4 2.7-12.8 5.5c-17.1 6.9-34.7 12.6-52.5 17.2-35.7 9.1-72.5 14-109.7 13.3q-0.1 1-0.1 1.9c37.5 0.7 74.5-4.2 110.3-13.4 17.9-4.6 35.5-10.3 52.7-17.3q6.5-2.7 12.9-5.5 6.3-3 12.7-5.9 6.1-3.2 12.2-6.3-0.2 0-0.3 0.1 0 0 0.1 0 0-0.1 0.1-0.1 0 0 0.1-0.1 0.2-0.1 0.4-0.2 0.3-0.2 0.7-0.4-0.1-1-0.1-2.1-0.6 0.3-1.1 0.6zm1.1-0.6q0 1.1 0.1 2.1-0.1-1-0.1-2.1zm0 0q0 1.1 0.1 2.1 25.7 10.2 51.5 20.4 0.3-0.9 0.7-1.7-26.2-10.4-52.3-20.8zm72-5.4l7.4 22.8-22.3-8.8q-0.3 0.8-0.7 1.7l26 10.3-8.7-26.5v-0.1q-0.9 0.3-1.7 0.6zm12.4-4.1q0.9-0.3 1.8-0.5-7.2-22.2-14.4-44.3-1.1-0.2-2.1-0.5 7.3 22.7 14.7 45.3zm-14.7-45.3q1 0.3 2.1 0.5-1.1-0.2-2.1-0.5zm6.4-7.9q-1.2 1.7-2.5 3.4-1 1.2-2.1 2.5-0.8 1-1.8 2 0 0 0 0 1 0.3 2.1 0.5 0 0 0-0.1 0.7-0.6 1.2-1.3 1-1.2 2-2.5 1.4-1.6 2.7-3.4 2.5-3.5 5-7.2-0.8-0.5-1.6-1-2.4 3.7-5 7.1zm28.4-73.4q-0.1 2.5-0.2 6.3c-0.1 2.4-0.6 5.3-1 8.6-0.3 1.6-0.4 3.4-0.8 5.1q-0.7 2.7-1.4 5.7c-0.5 1.9-0.9 4-1.6 6.2q-1 3.1-2.2 6.5c-3.2 9.1-8.3 18.6-14.6 28.9q0.8 0.5 1.5 1.1c6.5-10.5 11.7-20.2 14.8-29.4q1.2-3.4 2.3-6.6c0.7-2.2 1.2-4.3 1.7-6.3q0.7-3 1.3-5.7c0.4-1.8 0.6-3.6 0.8-5.3 0.5-3.3 0.9-6.2 1.1-8.7q0.1-3.8 0.1-6.3 0.1-5.1 0.1-5.1-0.9 0-1.9 0.1 0 0 0 4.9zm-184.4-169.2c6.5 1.7 13 3.8 19.5 5.8 3.2 1 6.4 2.2 9.7 3.3q2.4 0.8 4.8 1.7 2.4 0.9 4.8 1.8c12.8 4.8 25.3 10.5 37.7 16.7 12.3 6.3 24.3 13.6 35.9 21.7 11.6 8.3 22.8 17.4 33 28.2 10.2 10.8 19.5 23.2 26.6 37.5 7.1 14.3 11.9 30.7 12.4 47.6q1-0.1 1.9-0.1c-0.6-17.2-5.4-33.9-12.6-48.3-7.2-14.5-16.7-27-27-38-10.3-10.9-21.6-20.1-33.2-28.4-11.7-8.2-23.8-15.5-36.2-21.8-12.4-6.3-25-12.1-37.8-16.8q-2.5-1-4.9-1.9-2.4-0.8-4.8-1.7c-3.2-1.1-6.5-2.3-9.7-3.3-6.5-2-13-4.1-19.6-5.9-26.3-7.3-53.2-11.9-80.3-14.5q-0.1 0.9-0.2 1.9c27 2.6 53.8 7.2 80 14.5zm-80-14.5q0.1-1 0.2-1.9 0 0 0 0-0.1 0.9-0.2 1.9 0 0 0 0zm0 0q0.1-1 0.2-1.9-27.5-2.4-55-1.6 0 0.9 0 1.9 27.4-0.9 54.8 1.6zm-273 111.3c4.5-13 11.4-25.2 19.7-35.9 8.3-10.7 18.1-19.8 28.4-27.6 10.3-7.7 21.2-14.1 32.3-19.5 22.3-10.7 45.4-17.5 68.4-22.2 23.1-4.6 46.3-7 69.4-7.7q0-1 0-1.9c-23.3 0.7-46.5 3.1-69.7 7.7-23.2 4.8-46.4 11.6-68.9 22.4-11.2 5.4-22.2 11.9-32.6 19.7-10.5 7.8-20.3 17.1-28.8 28-8.4 10.8-15.4 23.2-20 36.4-4.7 13.2-7 27-7.6 40.4q0.9 0.1 1.9 0.1c0.5-13.3 2.8-26.9 7.5-39.9zm6.5 115.2c-1.5-3.8-2.8-7.8-4.2-11.7-1.2-3.9-2.5-7.9-3.5-12-4.4-16.2-6.9-33.6-6.3-51.6q-1 0-1.9-0.1c-0.6 18.3 2 35.8 6.4 52.2 1 4.1 2.3 8.1 3.6 12.1 1.3 4 2.6 7.9 4.1 11.8 2.9 7.7 6.2 15.1 9.6 22.5q0.9-0.4 1.7-0.8c-3.4-7.3-6.7-14.7-9.5-22.4zm9.5 22.4q-0.8 0.4-1.7 0.8 0 0 0.1 0 0.8-0.4 1.6-0.8 0 0 0 0zm152.5 114.9c-20.8-4.6-41.4-11.5-60.9-21.5-19.5-9.9-37.9-23-53.5-38.9-15.7-15.9-28.6-34.5-38.1-54.5q-0.8 0.4-1.6 0.8c9.5 20.1 22.5 39 38.3 55 15.9 16.1 34.4 29.3 54 39.3 19.7 10 40.5 17 61.4 21.6 20.9 4.6 42 6.8 63 7.3q0-1 0-1.9c-20.8-0.4-41.8-2.6-62.6-7.2zm263.8-41.5q-0.2 0.1-0.4 0.2-0.1 0-0.1 0.1-0.1 0-0.1 0 0 0-0.1 0.1 0.1-0.1 0.3-0.2-6.1 3.2-12.2 6.3-6.4 3-12.7 6-6.4 2.7-12.9 5.5c-17.2 6.9-34.8 12.7-52.7 17.3-35.8 9.2-72.8 14-110.3 13.4q0 0.9 0 1.9c37.6 0.6 74.8-4.3 110.7-13.5 18-4.6 35.7-10.4 53.1-17.4q6.4-2.7 12.9-5.5 6.3-3 12.7-6 6.1-3.1 12.2-6.3-0.1 0.1-0.2 0.1 0 0 0 0 0.1 0 0.1 0 0.1-0.1 0.2-0.1 0.2-0.1 0.3-0.2 0-1.1-0.1-2.1-0.4 0.2-0.7 0.4zm0.7-0.4q0.1 1 0.1 2.1 0-1.1-0.1-2.1zm0 0q0.1 1 0.2 2.1 25.3 10 50.6 20 0.3-0.8 0.7-1.7-25.8-10.2-51.5-20.4zm68.3-6.3l4.9 15.2-14.8-5.9q-0.7 1.7-1.4 3.5l22.3 8.8-7.4-22.8q-1.8 0.6-3.6 1.2zm17.8-5.9q0.9-0.3 1.8-0.5-7-21.7-14.1-43.3-1.1-0.2-2.1-0.4 7.2 22.1 14.4 44.2zm-14.4-44.2q1 0.2 2.1 0.4-1.1-0.2-2.1-0.4zm5.9-7.3q-1.3 1.7-2.7 3.4-1 1.3-2 2.5-0.5 0.7-1.2 1.3 0 0 0 0.1 1 0.2 2.1 0.4 0.3-0.3 0.6-0.7 1-1.2 2-2.4 1.3-1.7 2.7-3.5 2.6-3.5 5-7.3-0.7-0.5-1.5-1-2.5 3.7-5 7.2zm28.6-74.5q0 2.6-0.1 6.4c-0.2 2.5-0.7 5.4-1.1 8.7-0.2 1.7-0.4 3.5-0.8 5.3q-0.6 2.7-1.3 5.7c-0.5 2-1 4.1-1.7 6.3q-1.1 3.1-2.3 6.6c-3.1 9.2-8.3 18.9-14.8 29.3q0 0 1.6 1.1c6.5-10.6 11.8-20.4 15-29.8q1.2-3.5 2.3-6.7c0.7-2.2 1.2-4.3 1.7-6.3q0.7-3.1 1.4-5.9c0.4-1.8 0.5-3.6 0.8-5.3 0.4-3.4 0.9-6.3 1-8.9q0.1-3.9 0.2-6.4 0.1-5.2 0.1-5.2-1.9 0.1-1.9 0.1 0 0-0.1 5zm-185.7-171.1c6.6 1.7 13.1 3.8 19.6 5.9 3.2 1 6.5 2.2 9.7 3.3q2.4 0.8 4.8 1.7 2.4 0.9 4.9 1.8c12.8 4.8 25.4 10.5 37.8 16.9 12.4 6.2 24.5 13.5 36.2 21.8 11.6 8.3 22.9 17.5 33.2 28.4 10.3 10.9 19.8 23.4 27 38 7.2 14.4 12 31.1 12.6 48.3q0 0 1.9-0.1c-0.6-17.4-5.5-34.4-12.8-49.1-7.3-14.7-16.9-27.4-27.3-38.4-10.4-11-21.8-20.3-33.5-28.6-11.8-8.3-24-15.7-36.4-22-12.5-6.4-25.2-12.1-38.1-16.9q-2.4-0.9-4.8-1.9-2.4-0.8-4.9-1.7c-3.2-1.1-6.5-2.3-9.7-3.3-6.6-2.1-13.1-4.2-19.7-5.9-26.4-7.3-53.4-12-80.6-14.6q-0.2 1.9-0.2 1.9c27.1 2.6 54 7.2 80.3 14.5zm-80.3-14.5q0 0 0.2-1.9-0.1 0-0.1 0-0.1 1.9-0.1 1.9 0 0 0 0zm0 0q0 0 0.1-1.9-27.6-2.4-55.2-1.6 0.1 1.9 0.1 1.9 27.5-0.9 55 1.6zm-275 112.6c4.6-13.2 11.6-25.6 20-36.5 8.5-10.8 18.3-20.1 28.8-27.9 10.4-7.8 21.4-14.3 32.6-19.7 22.5-10.8 45.7-17.7 68.9-22.4 23.2-4.6 46.4-7 69.7-7.7q0 0-0.1-1.9c-23.3 0.7-46.7 3.1-70 7.8-23.3 4.7-46.6 11.6-69.3 22.5-11.3 5.4-22.4 12-33 19.9-10.5 7.9-20.5 17.3-29 28.3-8.6 11-15.7 23.6-20.4 37-4.7 13.3-7.1 27.3-7.7 40.9q1.9 0.1 1.9 0.1c0.6-13.4 2.9-27.2 7.6-40.4zm6.5 116.4c-1.5-3.8-2.8-7.8-4.1-11.7-1.3-4-2.6-8-3.6-12.1-4.4-16.4-7-34-6.4-52.2q0 0-1.9-0.1c-0.3 9.3 0.2 18.3 1.4 27.1 1.1 8.8 2.8 17.4 5.1 25.7 1 4.1 2.3 8.1 3.6 12.2 1.3 3.9 2.6 8 4.2 11.8 2.9 7.8 6.2 15.3 9.6 22.7q1.7-0.8 1.7-0.8c-3.4-7.4-6.7-14.8-9.6-22.6zm9.6 22.6q0 0-1.7 0.8 0.1 0 0.1 0 1.7-0.8 1.7-0.8-0.1 0-0.1 0zm153.8 115.9c-20.9-4.6-41.7-11.6-61.4-21.6-19.6-10-38.1-23.2-54-39.3-15.8-16-28.8-34.9-38.3-55q0 0-1.7 0.8c9.6 20.3 22.7 39.3 38.7 55.5 16 16.3 34.7 29.5 54.5 39.6 19.8 10.2 40.7 17.2 61.8 21.8 21.1 4.7 42.3 6.9 63.4 7.3q0-1.9 0-1.9c-21-0.4-42.1-2.6-63-7.2zm264.7-41.5q-0.1 0.1-0.2 0.1 0 0.1-0.1 0.1 0 0 0 0 0.1 0 0.2-0.1-6.1 3.1-12.2 6.3-6.4 3-12.7 6-6.5 2.7-12.9 5.5c-17.4 7-35.1 12.7-53.1 17.4-35.9 9.2-73.1 14.1-110.7 13.4q0 0 0 1.9c37.8 0.7 75.1-4.3 111.2-13.5 18.1-4.7 35.9-10.5 53.3-17.5q6.4-2.7 12.9-5.5 6.4-3 12.8-6 6.2-3.2 12.3-6.4-0.2 0.1-0.3 0.2-0.2-2.1-0.2-2.1-0.1 0.1-0.3 0.2zm0.3-0.2q0 0 0.2 2.1-0.2-2.1-0.2-2.1zm0 0q0 0 0.2 2.1 24.9 9.9 49.8 19.8 0.7-1.8 0.7-1.8-25.3-10-50.7-20.1zm61.1-6h-0.1q-1.3 3.5-2.7 6.9v0.1l14.8 5.8-4.9-15.1v-0.1q-3.6 1.2-7.1 2.4zm26.7-8.8q0 0 1.8-0.6-6.9-21.1-13.8-42.2-2.1-0.4-2.1-0.4 7 21.6 14.1 43.2zm-14.1-43.2q0 0 2.1 0.4-2.1-0.4-2.1-0.4zm5.3-6.6q-1.4 1.7-2.7 3.5-1 1.2-2 2.4-0.3 0.4-0.6 0.7 0 0 2.1 0.4 0.3-0.3 0.6-0.7 0.7-0.8 1.4-1.7 1.3-1.7 2.7-3.5 2.6-3.6 5.1-7.4-1.6-1-1.6-1-2.4 3.8-5 7.3z"/><path class="c" d="m663.8 369c75.7-105-66.6-207.9-221.3-228.9-137.8-18.8-327.5 23.2-249.4 208.5 63.1 149.8 280.7 141.8 403.1 75.7l64.4 29-17.1-61.9c7.8-7.1 14.7-14.6 20.3-22.4z"/><path class="d" d="m580.2 345.3c48.6-67.4-42.8-133.6-142.2-147.1-88.6-12-210.5 14.9-160.4 134 40.6 96.3 180.5 91.1 259.1 48.6l41.4 18.7-11-39.8c5.1-4.6 9.5-9.4 13.1-14.4z"/><path fill-rule="evenodd" class="e" d="m650.5 475.3q-0.5 0-0.9-0.3l-61.1-33.8c-41.7 18.1-92.3 29-142.7 30.7-55 1.8-106.2-7.1-148.3-26-53.6-24-90.9-64-107.7-115.5-20.8-63.6-15.3-113.6 16.4-148.6 54.5-60 170.2-60 252.7-41.8 110.3 24.4 202.7 87.6 224.8 153.8 11.3 33.7 3.9 67.2-21.4 96.8-6 6.9-13.2 13.8-21.5 20.3l11.7 62c0.1 0.8-0.2 1.6-0.8 2-0.3 0.3-0.8 0.4-1.2 0.4zm-61.9-38.3q0.5 0 1 0.2l58.2 32.3-11.2-59.1c-0.1-0.7 0.2-1.5 0.8-1.9 8.5-6.6 15.9-13.5 21.9-20.5 24.7-28.9 31.6-60.2 20.6-93-21.6-64.8-112.9-127-221.9-151.1-46.9-10.3-96-13.1-138.4-7.9-49 6.1-87.2 22.9-110.4 48.5-30.7 33.9-36 82.6-15.6 144.7 16.7 51.1 52.2 89.2 105.6 113.1 80.5 36.1 199.2 34 288.6-5.2q0.4-0.1 0.8-0.1zm72.2-47.7z"/><path class="c" d="m371.2 484.5q0 0 0 0c-29.8-1-58-5.3-83.7-12.8-1.1-0.3-1.7-1.4-1.4-2.5 0.3-1 1.4-1.6 2.5-1.3 25.4 7.4 53.2 11.7 82.7 12.6 1.1 0.1 2 1 1.9 2.1 0 1.1-0.9 1.9-2 1.9zm125.4-14.2c-0.9 0-1.7-0.6-2-1.5-0.2-1 0.4-2.1 1.5-2.4 6.4-1.6 12.9-3.4 19.2-5.4 1-0.3 2.1 0.3 2.4 1.4 0.4 1-0.2 2.1-1.3 2.5-6.3 1.9-12.8 3.7-19.3 5.4q-0.3 0-0.5 0zm-227.5-4.8q-0.4 0-0.7-0.1c-42.9-16-76.9-41.2-101-74.9-0.7-0.9-0.5-2.2 0.4-2.8 0.9-0.7 2.2-0.5 2.8 0.4 23.7 33.1 57 57.8 99.2 73.6 1 0.3 1.5 1.5 1.2 2.5-0.3 0.8-1.1 1.3-1.9 1.3zm395.6-1.9q-0.4 0-0.8-0.1l-71.2-31.1c-1-0.4-1.4-1.6-1-2.6 0.5-1 1.6-1.5 2.6-1l67.3 29.3-12.4-42.9c-0.3-1.1 0.3-2.2 1.4-2.5 1-0.3 2.1 0.3 2.4 1.4l13.6 47c0.2 0.7 0 1.5-0.6 2-0.4 0.4-0.8 0.5-1.3 0.5zm-19.1-66.2c-0.9 0-1.7-0.5-2-1.4l-0.4-1.7c-0.3-0.7 0-1.5 0.5-2 8.7-8.1 16-16.4 21.9-24.7 14.5-20.7 21.9-42 21.9-63.4 0-17.8-5.2-35.7-15.4-53.2-0.6-0.9-0.3-2.1 0.7-2.7 1-0.6 2.2-0.2 2.7 0.7 10.6 18.1 16 36.6 16 55.2 0 22.2-7.6 44.3-22.7 65.7-5.8 8.2-13 16.4-21.5 24.5l0.2 0.5c0.3 1-0.3 2.1-1.4 2.5q-0.3 0-0.5 0zm-511.5-82.4c-0.9 0-1.7-0.6-1.9-1.5-1.8-6.7-3.3-13.3-4.5-19.7-0.1-1.1 0.6-2.1 1.7-2.3 1.1-0.2 2.1 0.6 2.3 1.6 1.1 6.3 2.6 12.8 4.3 19.4 0.3 1-0.3 2.1-1.4 2.4q-0.2 0.1-0.5 0.1zm528.4-79.5c-0.6 0-1.1-0.2-1.5-0.7-15.3-19.6-36.6-37.8-63.3-54.1-0.9-0.6-1.2-1.8-0.6-2.8 0.5-0.9 1.8-1.2 2.7-0.6 27.1 16.6 48.7 35.1 64.3 55 0.7 0.9 0.5 2.1-0.3 2.8-0.4 0.3-0.8 0.4-1.3 0.4zm-500.2-56.8c-0.5 0-1-0.2-1.4-0.6-0.8-0.7-0.8-2 0-2.8 18-18 42.5-32.4 72.8-42.9 1.1-0.3 2.2 0.2 2.6 1.3 0.3 1-0.2 2.1-1.3 2.5-29.7 10.3-53.7 24.4-71.3 41.9-0.4 0.4-0.9 0.6-1.4 0.6zm319.8-45.7q-0.2 0-0.5-0.1c-6.4-1.6-12.9-3.1-19.4-4.5-1.1-0.2-1.7-1.3-1.5-2.4 0.2-1.1 1.3-1.7 2.4-1.5 6.5 1.4 13 2.9 19.5 4.6 1.1 0.2 1.7 1.3 1.4 2.4-0.2 0.9-1 1.5-1.9 1.5zm-228.6-2.5c-0.9 0-1.7-0.6-1.9-1.5-0.3-1.1 0.3-2.2 1.4-2.5 31.5-8.4 68.4-12.9 106.5-12.9 6.5 0 13.1 0.1 19.6 0.4 1.1 0 2 0.9 1.9 2.1 0 1.1-1 2-2.1 1.9-6.4-0.3-13-0.4-19.4-0.4-37.8 0-74.3 4.4-105.5 12.8q-0.2 0.1-0.5 0.1z"/><path fill-rule="evenodd" class="f" d="m245.8 300.6c-5 0-9.5-2.7-11.7-7.2l-0.5-1c-0.8-1.6-1.3-3.6-1.6-5.9-0.2-1.5-0.3-2.4-0.4-2.9q-0.1-0.5-0.2-1.1l-0.5-4.7c-0.3-1.8-0.6-3.9-0.9-6.7l-1.4-10.4c-0.3-1.8-0.9-5.1-1.7-9.5q0-0.2-0.1-0.5l-0.5-3.3c-0.5-3.2-0.9-5.7-1-7.4l-0.2-1.4q-0.1-1.3 0-2.7c0-0.2 0-0.5 0-0.7q-0.1-1.3-0.2-2.9l-0.4-2.4q0-0.1-0.1-0.2-0.4-1.4-0.5-2.8c-0.1-0.7-0.1-1.5-0.2-3q0-0.7 0-1.4-0.1-0.6-0.1-1.1c0-0.5-0.1-1.5-0.2-3.1l-0.5-4.4c-0.2-1.5-0.5-3.4-0.8-5.9q-0.4-1.8-0.7-4l-0.1-0.8c-1.4-8.2 3.2-15.6 11.3-18.2 1.8-0.7 3.9-1.2 6.2-1.5l41.1-4.3c6.7-0.8 12.7 2.8 15.5 8.9 3.8-4.3 6.9-7.6 9.3-10q0.3-0.2 0.6-0.5c2.8-2.4 4.9-3.9 7.6-4.7q1.2-0.4 2.6-0.6c3.6-0.4 7.2 0.8 10.5 3.4l2.4 2q0.7 0.5 1.3 1.1 0.1 0.2 0.2 0.3l0.1 0.1q1.3 0.9 2.4 1.9l0.9 0.7q0.2 0.1 0.4 0.3 1 0.8 1.7 1.5c-0.1-0.1-0.3-0.3-0.4-0.4q0.2 0.2 0.5 0.5 0 0 0 0 0.9 0.8 1.6 1.8c0.1 0 0.8 0.9 3.8 4 2.8 2.6 5.1 5.5 6.8 8.4 1 1.6 1.6 3.3 1.8 5.2v0.3c0.7 6.1-2.5 11.3-5.7 15.6q-0.2 0.2-0.3 0.3l-2.7 3.4q-0.2 0.2-0.3 0.4-0.8 0.8-1.1 1.3-0.9 1.2-1.9 2.2c-0.3 0.3-0.6 0.7-0.9 0.9l-4.4 4.3c2.3 1.5 5.7 4 10.4 7.5 4.5 3.3 8.2 6.4 11.1 9.3q0.4 0.4 0.7 0.8c1.8 2.1 4.2 5.5 4.7 9.8q0.3 3.2-0.5 6.1c-0.5 2.1-1.6 4.2-3.2 6.2q-0.3 0.4-0.7 0.8c-2.3 2.5-4.6 4.4-7 5.9q-0.9 0.6-1.9 1.6-1.9 2-3.6 3.9c-1.6 1.8-3.6 3.5-5.7 5.1q-0.3 0.3-0.7 0.5l-2.4 1.7q-0.1 0.1-0.2 0.2-0.9 0.9-2 1.7c-3.1 2.4-6.7 3.8-10.5 4.2-2.5 0.3-5 0.1-7.6-0.6q-1.5-0.5-2.8-1.2l-2.1-1.2q-1.4-0.8-2.5-1.9c-0.5-0.4-1-0.9-1.6-1.6l-1.8-1.6c-1.3 2.2-3.1 4.1-5.4 5.4-2.3 1.4-5 2.2-7.8 2.3-4.4 0.6-7.6 1-9.7 1.3l-22.6 2.2c-1.3 0.2-2.4 0.2-3.3 0.2l-0.2 0.1q-0.5 0-1.1 0l-6.2 0.1q-0.1 0-0.2 0zm87.6-9.8q0 0.1-0.1 0.2 0.1-0.1 0.1-0.2zm-6.8-10.3c-0.2-1.5-0.6-2.9-1-3.9q0.8 1.8 1 3.9zm-81.4-6.9c1.8 0 3.4 0.3 5 1-1.8-0.8-3.9-1.2-6.1-1q0.6 0 1.1 0zm-1.1 0q-0.1 0-0.2 0 0.1 0 0.2 0zm8.4-26.9c0.9 4.6 1.5 8 1.8 10.4l1.5 10.7q0 0.2 0 0.4c0.3 3.1 0.6 4.2 0.6 4.4q0.2 0.7 0.3 1.5l2.4-0.3 17.6-1.7q0.2 0 0.4-0.1-0.1-1.3 0-2.6 0-0.2-0.1-0.9l-0.5-4.9c-0.3-3.2 0.4-6.4 2.2-9.2 2.3-3.6 6.1-5.9 10.4-6.3 4.3-0.5 7.6 1.3 9 2.1q0.9 0.6 1.8 1.2l2.2 1.9c1.1 0.8 2.1 1.8 3.2 2.9q0.4 0.4 0.6 0.7 0.3 0.1 0.5 0.3l12.7 11.9q0.1 0 0.1 0l2.1-1.4q0.9-0.7 1.5-1.3 0.1-0.2 0.3-0.4 1.9-2 3.9-4.1 0.5-0.6 1-1-0.4-0.3-0.8-0.6c-6.3-4.7-9.2-6.8-10.5-7.6q-0.4-0.3-0.8-0.7l-3.7-2.9q-1.9-1-3.7-2.5c-4.2-3.3-6.8-7.7-7.3-12.6-0.5-4.5 0.7-7.7 2.2-9.9q1.4-2.1 3.4-3.7 0.3-0.2 0.6-0.4 0.5-0.5 1.1-0.9 0.4-0.3 0.8-0.7l1.3-1.2 1.9-2.4q0.5-0.6 1.1-1.2l4.6-4.4q0.4-0.5 0.8-1 0.7-0.9 1.7-2.1h0.1c-1.6-1.7-2.7-2.9-3.4-3.7q-2 2.3-4.5 5.2 0 0.1-0.1 0.2c-4.6 5.1-7.8 8.9-9.7 11.3-1.2 1.4-2.1 2.5-3 3.4q-0.6 0.6-1.2 1.2l-0.2 0.3q-1 1.2-2.3 2.2c-2.7 2-5.9 3.3-9.3 3.7-3.4 0.3-6.9-0.7-9.6-2.8-2.7-2.2-4.4-5.4-4.7-8.8-0.1-0.8-0.2-2.2-0.3-5.7l-0.3-3.4q-0.1-1.6-0.2-3.1l-23.6 2.6q0.1 0.7 0.2 1.3 0.1 0.4 0.1 0.8l0.5 4.8q0.3 2.6 0.4 4.6 0.1 1.7 0.1 3.4 0.3 1.2 0.5 2.6l0.4 2.4q0 0.3 0.1 0.6 0.2 2.5 0.3 4.7 0.2 1.8 0.1 3.3c0.1 0.9 0.3 2.6 0.9 6.1q0 0.1 0 0.2zm24.6 22.5q0 0.1 0 0.1 0 0 0-0.1zm25.3-8.3q0 0 0 0zm3.4-4.1q0-0.1-0.1-0.1 0.1 0 0.1 0.1zm0.1 0q-0.1 0-0.1 0 0.1 0 0.1 0zm16.7-15.4q-0.6 0.5-1.3 0.9 0.7-0.5 1.3-0.9zm12.9-57.7q0 0 0 0 0 0 0 0 0 0 0 0zm-14.2 58.6q0 0 0 0 0 0 0 0zm0 0q0 0 0 0 0 0 0 0zm0 0q0 0 0 0 0 0 0 0zm0 0q0 0 0 0 0 0 0 0zm0 0q0 0 0 0 0 0 0 0zm1.6-1.4q0 0 0 0 0 0 0 0zm-97.5-6.4q0 0 0 0 0 0 0 0zm113-8.9q0 0 0 0zm-89-3.4q0 0 0 0 0 0 0 0zm-2.4-21.7q0 0 0 0 0 0 0 0zm76.8-24.6q0 0 0 0 0 0 0 0z"/><path fill-rule="evenodd" class="f" d="m357.3 306.9c-3.3 0-6.6-1-9.3-3.1-2.4-1.7-4.3-4.1-5.6-6.9q-0.2-0.6-0.5-1.2-1-3.1-1.7-6.8c-0.3-1.1-0.5-2.4-0.7-4l-0.2-1.8-1.7-17.1c-0.6-5.6-1-11.5-1.4-17.2l-4.5-42.9c-0.5-4.5 1-8.8 4.2-11.9 1.7-1.5 4.6-3.5 8.9-4 6.3-0.6 10.8-1.2 13.7-1.6q0.2 0 0.4 0l12.2-1.3q0.8-0.2 1.6-0.4c1.8-0.4 3.9-0.7 6.4-0.9q2.9-0.3 6-0.2 0.5-0.1 1-0.1c2.4-0.3 4.5-0.3 6.3-0.1 3.9 0.5 7.5 2.4 10.1 5.3q0.5 0.6 0.9 1.2 1.8 2.7 3.1 6.1 0.2 0.8 0.4 1.6c0.2 1 0.5 2.6 0.9 7l3.1 28.8q0.1 0.7 0.1 1.4c0 0.2 0 1.1 0.3 3.5 0.3 2.9 0.5 5.3 0.5 7.3l0.5 5.6q0 0.3 0 0.6c0 0.8 0.1 2.1 0.3 4.4q0.1 0.4 0.1 0.8l0.1 1.8 0.9 8.3c0.6 5.8 0.9 10.7 0.9 15 0.1 3-0.3 6-1.4 8.9-1.7 4.6-5.9 7.9-10.8 8.4-1 0.1-2.8 0.3-6.4 0.9q-0.3 0.1-0.7 0.1-0.1 0-0.2 0.1-1.3 0.4-2.7 0.5l-1.7 0.2q-0.9 0.1-1.8 0.1-0.8 0.2-1.5 0.2l-11.6 1.3c-1.2 0.2-2.3 0.4-3.2 0.5l-10 1-3.1 0.5q-0.3 0-0.6 0.1-0.8 0-1.6 0zm6-23.1q0.2-0.3 0.5-0.6-0.3 0.3-0.5 0.6zm-4.6-69.2l3.4 31.8q0 0.3 0.1 0.6c0.3 5.4 0.7 10.9 1.3 16.4l1.6 16.5 4.8-0.5q0.1 0 0.3 0 0.9-0.3 1.8-0.4l10-1q1.7-0.8 3.6-1c1-0.1 1.9-0.1 2.7 0q-0.2-2.4-0.5-5.1l-0.9-8.8q-0.1-0.4-0.1-0.8l-0.1-1.8c-0.2-2.1-0.3-3.8-0.4-5.4l-0.5-5.9q0-0.6 0-1.2c0-0.6 0-2-0.4-4.9-0.3-3-0.4-4.5-0.4-5.6l-2.8-25.8q-0.3 0-0.6 0-0.3 0-0.5 0.1c-1.1 0-1.8 0.1-2.2 0.2q-1.6 0.6-3.5 0.8l-13.5 1.4q-1.4 0.2-3.2 0.4zm9.9-26.4q-0.5 0.2-1 0.5 0.5-0.3 1-0.5zm28.5 113.4q0 0 0 0 0 0 0 0zm-33.9-17.7q0 0 0 0 0 0 0 0zm0.1 0q-0.1 0-0.1 0 0 0 0.1 0zm0-0.1q0 0 0 0.1 0-0.1 0-0.1zm14.8-95q0 0 0 0 0 0 0 0zm0 0q0 0 0 0 0 0 0 0zm0.1 0q0 0-0.1 0 0.1 0 0.1 0z"/><path fill-rule="evenodd" class="f" d="m412.5 286.6c-6.6 0-12.3-4.1-14.9-10.8-1.1-2.5-1.8-5.4-2.2-9-0.8-7.7-1.6-14.7-2.4-20.8-1.3-9-2.5-18.6-3.5-28.6l-3.2-30.1c-0.5-4.3 0.8-8.6 3.7-12.1 2.8-3.5 6.8-5.7 11-6.2l16-1.5q0.1-0.1 0.3-0.1c2.8-0.2 6.5-0.5 11-1 6.7-0.7 12-1.3 15.7-1.8l5-0.7c5.7-0.8 10.3-1.4 13.7-1.7 7.3-0.8 14.6-0.1 21.6 1.9 9.1 2.5 16.8 7.5 22.8 14.9 6.9 8.5 11 19.1 12.3 31.7 1.2 11.1 0.9 20.4-0.9 28.5-1.9 8.9-5.8 16.5-11.6 22.8-5.7 6.1-13.3 10.8-22.5 14.2-8.4 3-18.6 5.1-31 6.4l-39.1 3.9q-0.9 0.1-1.8 0.1zm-0.8-26q0 0-0.1 0zm1.4-66.6l2.2 20.6c1.1 9.8 2.2 19.1 3.4 27.9 0.7 5.2 1.4 10.9 2.1 17.2l11.8-1.2q0 0 0 0l7.3-0.7c-1-1.6-1.6-3.5-1.7-5.6l-1.8-23.3c-0.3-2.2-0.5-5.5-0.8-10.2l-0.2-3.3q-0.1-0.1-0.1-0.3c-0.1-3.3-0.2-4.9-0.3-5.7l-1.7-16.6q0-0.4 0-0.8-1.1 0.1-2.3 0.3c-4.7 0.5-8.5 0.8-11.6 1.1zm53.6-6.1c1.3 2.7 2.4 6 3.4 10q0.1 0.2 0.1 0.5c1.1 5.1 1.7 9 2 11.8l0.3 2.6c0.5 4.2 0.7 9.1 0.9 14.9q0 0.4 0 0.8c-0.3 6.7-0.7 11.5-1.1 14.6-0.6 4.3-1.3 7.6-2.5 10.3q3.1-0.8 5.7-1.7c5.4-1.9 9.5-4.4 12.3-7.4 2.5-2.8 4.3-6.3 5.3-10.7 1.1-5.2 1.3-12 0.4-20.1-0.8-7.6-3-13.7-6.6-18.1-2.6-3.2-5.6-5.2-9.5-6.2q-0.1 0-0.3-0.1c-3.5-1-6.9-1.4-10.4-1.2zm-44.8 78.8q0 0 0 0 0 0 0 0zm30.7-15.5z"/><path fill-rule="evenodd" class="f" d="m547.6 297.7q-5.9 0-11.9-0.7-0.1 0-0.2 0c-8.1-1-15-3-20.8-5.8-2.7-1.3-4.8-3.6-6.1-6.3-1.7-3.8-3.1-7.6-4.2-11.5-0.9-3.3-2.1-8-3.6-14.3q-0.3-0.8-0.3-1.7l-0.1-0.4q-0.1-1.1 0-2.1c0.3-5 2.7-9.5 6.8-12.4q-2.1-2.8-3.7-5.9 0-0.1-0.1-0.3c-1.9-4-3.2-8.6-3.7-13.4-1.3-11.7 1.5-21.9 8.2-30.2 5.3-6.7 12.9-11.9 22.4-15.5q0.1 0 0.1 0c7.3-2.6 15.4-4.4 24.1-5.3 5.2-0.6 11.9-0.8 20.7-0.6q0.6 0 1.2 0.1c0.1 0 0.7 0.1 2.2 0.1q0.5 0 1 0l4 0.4c3.4 0.2 4.5 0.1 4.6 0.1 2.3-0.2 6.4 0 10.3 3.4 3.2 1.8 5.7 4.9 6.5 8.7l0.5 2.9q0.2 0.6 0.2 1.2 0.1 0.9 0.5 2.1 0.1 0.4 0.2 0.7c0.6 2.8 1.1 5.8 1.4 8.9 0.4 3.5 0.4 6 0.1 8.3-1 6.2-4 10-6.4 12.1q-0.8 0.7-1.6 1.2c3.1 2.5 5.7 5.4 7.7 8.5 2.7 4.1 4.3 8.4 4.8 12.7q0.3 3.1 0 6.5c-0.1 9.5-2.9 18.1-8.4 25.6q-0.2 0.3-0.4 0.5c-5.3 6.5-12.2 11.7-20.5 15.3-6.9 3.3-15.2 5.5-24.8 6.5q-5.3 0.6-10.7 0.6zm-8.9-26.5c5.7 0.6 11.4 0.7 16.9 0.1 6.6-0.7 12.2-2.1 16.4-4.2q0.3-0.1 0.5-0.2c4.5-2 8-4.5 10.7-7.7 2.2-3.1 3.2-6.5 3.2-10.5q0-0.9 0.1-1.8c0.1-0.7 0-1.2 0-1.4 0 0-0.1-0.4-0.6-1.1q-1.1-1.7-3.2-3.3c-3.7-3-7.9-4.8-12.8-5.6q-1-0.2-2-0.6-0.6-0.1-1.7-0.4c-1.9-0.5-4-1.1-6-2q-0.6-0.2-1.2-0.5c-9.3-4.9-11.3-12-11.7-15.8-0.1-1.2-0.9-11.1 10.7-14.6l4.2-1.3q0.3-0.1 0.6-0.2c4.7-1.3 8.8-2.1 12.6-2.5l1.5-0.2q-1.5 0-2.7-0.1c-7.3-0.1-13 0-16.9 0.4-6.7 0.7-12.8 2-18.1 3.9-4.9 1.9-8.6 4.3-11 7.3-1.5 1.9-3.3 5-2.7 11.2q0.3 2.8 1.3 4.8c1.3 2.6 3.3 4.6 6 6.2 4.1 2.2 8.8 4.2 13.9 6l7.8 2.8c6.2 2.3 9.8 8.9 8.2 15.3-1.2 5-4.4 9.1-8.9 11.4q-0.5 0.2-1 0.4c-3.2 1.4-6.6 2.2-9.9 2.6q-0.4 0-0.8 0l-1.8 0.1-2.9 0.3q-2 0.2-3.9 0.3 2.4 0.5 5.2 0.9zm28.9-36.4q0.1 0.1 0.2 0.1-0.1 0-0.2-0.1zm33.7-56.5q0 0 0 0 0 0 0 0zm-10.7-4.5z"/><path class="d" d="m317.5 279.9q-1-0.9-1-1l-16.1-15q-0.5-0.4-1.5-1.5-1.1-1.2-2-1.9l-2.3-1.8q-1.1-0.6-1.3-0.6-0.6 0.1-0.8 0.5-0.2 0.3-0.2 0.7l0.2 2 0.3 3q0.3 2.2 0.1 3.4l0.4 3.6q0 1.2 0.2 3l0.2 1.8 0.2 2v0.6q0.2 1.3-0.8 1.6-0.6 0.6-2 0.5-7.1 1-10.2 1.3l-17.5 1.8-2.4 0.2-2.7 0.3q-1.8 0.2-2.5 0.1l-0.9 0.1-6.3 0.2-0.5-1.1q-0.1 0-0.3-1.5-0.2-2.3-0.5-3.9l-0.6-5.5q-0.5-2-1-6.1l-1.4-10.6q-0.5-3.4-1.7-10.1l-0.5-3.5q-0.8-4.6-1-6.8l-0.2-1.3q0.2-0.9 0-2.5 0-1.8-0.3-4.1l-0.4-2.8q-0.1-0.9-0.3-1.5-0.2-0.6-0.2-0.9-0.1-0.3-0.1-1.7 0-1.3-0.1-2.7-0.1-1.7-0.3-4.1l-0.2-2.1-0.3-2.7q-0.4-2.3-0.9-6.8-0.4-1-0.6-2.8l-0.1-1.3q-0.8-3.1 2.9-4.1 1-0.5 3.1-0.7l3-0.3 15.2-1.7 11.2-1.2 7.3-0.7 4.3-0.5q1.9-0.2 2.6 2.1 0.2 0.4 0.3 1.8l0.3 2q0.3 3.4 0.8 10.3l0.2 3.7q0.1 3.6 0.3 5 1.6-0.2 2.9-1.2l0.9-1q0.2-0.2 0.5-0.6 0.3-0.4 0.6-0.7 0.5-0.3 2.3-2.6 3.1-3.8 10.1-11.7 6.8-7.9 10.7-11.7 2.4-2 3.1-2.2 0.2-0.1 1 0.6 0.8 0.6 1.1 0.8l1.3 1.1q0.4 0.7 0.8 0.8l0.9 0.8q1.3 0.9 1.8 1.5l1.8 1.3q0.5 0.4 0.8 0.7 0.3 0.3 0.5 0.4 0.9 1.3 5 5.5 3 2.8 4.7 5.7l0.1 0.3q0.2 1.9-3.2 6.4l-2.7 3.3q-1.5 1.7-2.1 2.6-0.1 0-0.4 0.3-0.2 0.3-0.6 0.8l-5 4.8-2.5 3-2.2 2.2q-0.3 0.2-1 0.9-0.7 0.7-1.2 0.9-0.4 0.3-0.9 0.7-0.5 0.4-0.6 0.7-0.3 0.1-0.1 1.2 0.2 2.2 2.6 3.9 1.1 1 2.1 1.4l2.1 1.5 3.2 2.5q2.9 2.1 10.8 7.9 5.9 4.3 9.5 8 1.6 1.9 1.7 2.8 0.1 0.8 0 1.4-0.2 0.6-0.8 1.3-2.5 2.7-4.7 4-2.2 1.5-4.2 3.6-2 2-3.8 4-1.7 1.9-3.8 3.5l-2.6 1.6-1.2 1q-1.1 1-1.6 1.6-1.9 1.4-4.1 1.6-1.2 0.2-2.7-0.2z"/><path class="d" d="m358.6 290.5q-0.9-0.7-1.5-1.9-0.8-2.4-1.4-5.4-0.2-0.9-0.4-2.5l-0.2-1.8-1.6-17q-1-8.6-1.4-17l-4.6-43.3q-0.2-1.3 1.6-1.5 9.4-1 14.1-1.7l13.7-1.4q0.4-0.1 0.6-0.2 0.3-0.2 0.7-0.2 1.7-0.5 4.9-0.7 2.3-0.2 5-0.1 0.9 0.4 1.2 0.1 0.3 0 1.1-0.4 2.1-0.2 3.3 0 1.1 0.1 1.9 1 0.8 1.2 1.4 2.9 0.3 1.4 0.8 5.7l2.8 26.7 0.3 2.1q-0.1 1.1 0.3 4.9 0.5 4.1 0.5 6.5l0.5 6.1q0.1 2.1 0.4 5.3l0.1 2.2 0.9 8.7q0.9 8.2 0.8 14.1 0.2 1.9-0.5 3.9-2.5 0.3-7.1 1-2.2 0.3-2.8 0.6l-1.4 0.1-0.4 0.1q-1 0.1-1-0.2-1.1-0.1-1.3-0.1l-1 0.6-12.6 1.4q-0.1 0.1-2.2 0.4l-5.2 0.5-5 0.5-3.4 0.5q-1 0.1-1.9-0.5z"/><path fill-rule="evenodd" class="d" d="m436.8 268.6l-20.9 2.1q-2.4 0.2-3.4-2.7-0.9-1.9-1.2-5.4-1.3-11.9-2.6-21.2-1.8-13.4-3.4-28.3l-3.2-30.1q-0.2-1.2 0.9-2.5 1-1.3 2.3-1.4l15.9-1.6q4.5-0.3 11.3-1.1 10.3-1 16-1.8l5.1-0.7q8.4-1.1 13.4-1.7 8.4-0.9 16.7 1.6 9.7 2.5 16.2 10.5 7.9 9.7 9.5 24.9 1.5 14.4-0.7 24.3-2.2 9.9-8.5 16.8-6.3 6.8-17.3 10.7-11 4-28 5.8zm18.7-20.3q1.1-0.1 3-0.6 0.7-0.2 1-0.4 0.3-0.3 0.6-0.4 1.4-2.1 2.3-8.4 0.5-4 0.9-13.4-0.2-8-0.8-13.8l-0.3-2.6q-0.3-3.5-1.8-10.6-1.7-7-3.8-9.7-1.7-1.7-2.9-1.6-1.3 0.1-2.2 0.5-0.9 0.4-1.2 0.5-0.2 0.2-1.1 0.9l1.6 16.4q0.2 2.2 0.4 6.6l0.2 3.3q0.5 6.9 0.8 9.9l1.8 23.5q0.6 0 1.5-0.1z"/><path class="d" d="m540 281.2q-9.9-1.3-16.7-4.6-2.1-4.7-3.5-9.6-1.3-4.8-3.5-13.8l-0.1-0.4q0.1-1.7 1.5-2.7 5.6 2.6 10.5 3.7 5 1 10.7 0.4l3.3-0.3 2.2-0.1q3.2-0.4 6.4-1.7 1.7-0.9 2.1-2.8l-7.6-2.8q-8.8-3.1-15.9-6.9-7.6-4.3-11.4-11.8-2-4.1-2.5-9.2-1.3-12.3 5.4-20.6 5.9-7.4 16.8-11.5 9.4-3.3 21.1-4.6 6.8-0.7 19-0.5 1.3 0.2 3.5 0.2l4.2 0.4q4.7 0.3 6.9 0.1 0.2 0 0.5 0.3 0.4 0.4 0.7 0.7 0.7 0.9 1.2 0.8h0.2 0.1l0.6 2.8q0.2 2.1 0.9 4.3 0.7 3.4 1.2 7.4 0.3 3.4 0.1 5-0.4 2.8-2.1 4.2l-12.9-0.3-1.3 0.2-1.9 0.2q-4.7 0.5-10.6 2.1l-4.4 1.4q-1.6 0.4-1.6 0.7 0.3 3.3 4.9 5.7 2.1 0.9 4.3 1.4 2.1 0.6 2.7 0.8 10.4 1.8 18.6 8.1 3.7 2.9 6.1 6.4 2.3 3.5 2.6 6.9 0.2 2.1-0.1 4.5 0.2 10.3-5.9 18.6-6 7.4-15.7 11.6-8.5 4.1-20.8 5.4-9.7 1.1-19.8-0.1z"/><path fill-rule="evenodd" class="f" d="m250.8 444.9c-3.6 0-7.3-1.3-10.3-3.8-4.6-3.7-5.9-8-6.2-10.9l-2.7-25.3c-0.4-3.6 0.7-7.2 3-9.9 4.3-4.9 7.8-9.3 10.6-13.1h-0.2c-3.3 0.3-11 0-16.4-8.9q-0.3-0.5-0.6-1.1c-1.1-2.3-2-5.2-3-9.8-0.5-2-0.8-4.5-1.2-7.8q-0.2-1.5-0.2-3-0.1-1.7-0.1-3c-0.2-1.4-0.2-2.6-0.2-3.6v-0.1c-0.3-3.5 0.7-6.9 2.8-9.6l0.7-0.7c2.8-3.5 6.8-5.7 11.3-6.2q2-0.2 3.9 0c2.7-0.3 5.5-0.7 8.4-1.2 3.5-0.7 7.2-1.3 10.9-1.7 8.5-0.9 14.9-1.6 18.9-2.2q0.2-0.1 0.4-0.1l19.9-2.2c6.1-0.7 10.8-0.8 14.5-0.5q1.1 0.1 2.2 0.4c2.5 0.7 4.2 1.3 5.7 2.2 1.7 1 3.2 2.5 4.3 4.2 0.7 1.2 2.2 3.3 2.5 6.6l2.3 21.8c0.2 2.2 0.1 4.7-0.6 8.3q-0.1 0.5-0.2 0.9c-0.8 3-2.3 6.4-4.4 10.4q-2 3.9-5.2 8.9c2.4 0.3 4.8 1.2 6.9 2.6 4.2 2.7 6.7 6.7 7.2 11.3l2.4 22.4c0.5 4.9-1.3 9.6-5.1 12.9q-1 0.9-2.1 1.5-2.7 1.6-6.1 2.3c-2 0.6-4.4 1.1-7.6 1.4l-23.9 2.6c-9.4 1-16.2 1.6-20.5 2-4.2 0.4-7.3 0.7-9.6 0.9l-10.7 1q-0.9 0.1-1.7 0.1zm-0.7-26q-0.1 0-0.2 0zm7.9-11.2l1.1 10.4 1.9-0.2q0.2 0 0.4 0c1.8-0.2 4.8-0.4 8.7-0.8q0.2-0.1 0.3-0.1c4.1-0.3 10.9-1 20.1-2l20.6-2.2-0.2-2-6.1 0.6c-2.1 0.3-5.1 0.7-9.1 1.1-5.2 0.6-10.2-2-12.8-6.6-2.5-4.5-2.1-10.1 1.1-14.2 12.5-16.3 17.6-24.5 19.6-28.6q0.1-0.1 0.2-0.3c1.4-2.5 1.9-3.9 2.1-4.5q0.1-0.6 0.2-0.9l-1.2-11q-0.8 0-1.6 0.1l-19.5 2.2c-4.5 0.7-10.9 1.5-19.7 2.4-3 0.3-6 0.8-8.9 1.3q-2.7 0.5-5.3 0.9 0.1 1.4 0.3 2.1l18.5-1.6c7.6-0.7 14.1 4.6 14.9 12 0.4 4.2-1.1 7.7-2.5 10.1-0.7 1.6-1.8 3.4-3.6 6q-0.6 1-3.4 5c-1.9 2.8-4 5.5-6.2 8-2.7 3.8-6 8.1-9.9 12.8zm13.3-28q0 0 0 0zm32.5-43.6q0 0 0 0 0 0 0 0z"/><path fill-rule="evenodd" class="f" d="m377.5 418.6c-4.8 0-9-0.3-12.8-1-12-1.8-21.7-6.7-28.9-14.6-8-9-12.9-21.5-14.6-37.4-1.1-10.7-0.9-20.2 0.8-28.3 1.8-8.9 5.5-16.6 10.8-22.9 5.3-6.3 12.3-11.2 21-14.7 7.9-3.2 17.2-5.3 28.4-6.5 9.2-1 18.1-0.5 26.6 1.5 11.3 2.7 20.5 7.9 27.5 15.4 8.5 8.9 13.7 20.9 15.3 35.8 1.7 16.4 0.5 29.4-3.7 39.8q-0.1 0.2-0.2 0.4c-4.7 10.4-12.3 18.4-22.6 23.6-7.7 3.9-17.8 6.5-31 7.9-6.2 0.6-11.7 1-16.6 1zm-11.5-95.7q-1.3 0.4-2.5 0.9c-4.7 1.9-8.3 4.4-10.8 7.4-2.6 3-4.3 6.7-5.2 11.4-1.2 5.4-1.3 12.3-0.4 20.3 1.1 10.3 3.8 17.9 8 22.6 3 3.4 7.5 5.5 13.5 6.4q0.1 0 0.2 0.1 2.3 0.3 5.2 0.5-0.7-1.8-1.4-3.9 0-0.2-0.1-0.3c-1.6-6-2.7-11.5-3.3-16.3-0.6-3.6-1.3-8.1-1.8-13.4-0.9-7.8-1.3-13.6-1.5-17.6-0.5-4.9-0.5-10.4-0.1-16.3q0-0.4 0-0.8 0.1-0.5 0.2-1zm32.7-3.7c1.5 3.7 2.7 8.1 3.8 13.5 1.2 6.1 2.1 11.2 2.5 15.7l1 8.9c0.6 5.5 0.9 11.4 1 17.6 0.1 5.7-0.2 10.4-1 14.3 3.4-0.9 5.8-1.9 7.4-2.7 4.9-2.5 8.2-5.9 10.5-10.8 2.4-6.1 3-15.5 1.8-27-1-9.1-3.7-16-8.2-20.6q0-0.1-0.1-0.2c-3.6-3.8-8.4-6.4-14.6-7.9q-2-0.5-4.1-0.8zm-18.4 65.7q0 0 0 0 0 0 0 0z"/><path fill-rule="evenodd" class="f" d="m457.6 420.1q-0.9 0-1.7-0.1l-6.4-0.9c-4.2-0.6-7.9-3.2-9.9-7.1l-0.1-0.3c-1.4-2.4-1.8-4.8-1.9-6.2-0.5-2.9-1-6.2-1.4-9.9-0.2-2.6-0.5-4-0.6-4.6q-0.2-0.7-0.3-1.5c-0.3-2.9-0.5-4.3-0.6-4.8q-0.1-0.5-0.1-0.9l-0.5-4.1c-0.9-4.4-1.7-9.1-2.3-14.2-0.7-5.1-1.2-10.1-1.7-14.9q-0.1-0.1-0.1-0.2l-1.2-14q0-0.3 0-0.5c-0.1-0.9-0.2-2.8-0.6-6.4-0.3-3.3-0.6-5.1-0.7-6-1.4-6.6 0.7-13 5.6-17.2q0.7-0.6 1.4-1.1c2.7-1.7 5.9-2.7 10.4-3.1 3.1-0.4 7.2-0.9 12.1-1.6l2.7-0.5q0.1 0 0.3-0.1c7.6-1.3 9.8-1.6 11-1.7 1.7-0.2 3-0.3 4.2-0.3 2.1 0 5.1 0.1 8.1 1.5q3.5 1.7 6.1 4.9 0.6 0.7 1.1 1.4 0.1 0.2 0.3 0.4 1-1.8 2.5-3.2 0.1-0.1 0.2-0.2c1.9-2 3.9-3.6 6.1-4.8q1.1-0.6 2.4-1c1.7-0.5 3.2-0.9 4.6-1l9.5-1q0.8-0.1 1.6-0.1c-0.1 0 0.5 0 2.2-0.2 2.1-0.2 3.8-0.3 5.3-0.4l9.7-1c2-0.3 8-0.9 13.3 2.5 3.2 2.1 7 6.2 7.9 14.2q0.1 0.7 0.1 1.3l0.1 3.1q0 0.6 0 1.1 0 0.1 0 0.3l0.2 1.6q0.4 1.2 0.5 2.5l0.5 4.4q0 0.3 0 0.7c0.1 0.8 0.2 2.7 0.7 7.2l1.1 10.2q0 0.2 0 0.4c0.1 2.3 0.4 5.5 0.9 9.6l3.6 34.2q0.1 0.6 0.1 1.3v5.3q0 0.4 0 0.9c-0.6 9-5.6 13-8.5 14.6q-2 1-4.1 1.4l-2.4 0.4q-0.7 0.1-1.5 0.1l-1.9 0.1-23.8 2.6c-3.5 0.6-7 0.5-10.5-0.4q-0.4-0.1-0.8-0.2c-1.9-0.7-3.9-1.7-6-3q-1.5-1-2.6-2.3l-0.2-0.2c-1.2 2.8-3.3 5.1-6.1 6.6-1.8 1.2-4.4 2.2-7.7 2.3q-3.6 0.6-5.7 1c-1.3 0.3-3.3 0.7-6.1 1.2-3 0.5-5.9 0.9-8.5 1.2q-1.9 0.2-3.7 0.1l-4.8 0.5q-0.7 0.1-1.4 0.1zm-0.4-26.2h0.1c-2.1-1.3-4.8-2-7.8-1.7 2.7-0.2 5.4 0.4 7.7 1.7zm-7.7-1.7q-0.1 0-0.1 0 0 0 0.1 0zm11.6-6.1c0.4 1.9 0.7 4.1 1 6.8q0 0.3 0.1 0.6h0.2q1.3-0.2 2.6 0 3-0.4 6.5-1 2.9-0.5 4.5-0.8l-1.1-9.5c-0.2-2.1-0.3-3.7-0.4-5l-0.2-2.5c-0.5-4 0.8-8 3.5-11 2.3-2.5 5.6-4.1 9.1-4.5 2.5-0.3 6.3 0 10 3q1.5 1.2 2.6 2.7 1.2 1.2 2.4 2.6 0.2 0.2 0.3 0.5c1.5 1.8 2.6 3.3 3.4 4.5l13.2 14.8 18.8-2-3.3-30.3c-0.4-4.3-0.7-7.7-0.9-10.2l-1.1-9.9c-0.4-3.7-0.6-6.4-0.7-8.3l-0.4-2.9q-0.3-1.2-0.5-2.5l-0.1-1.4-3.1 0.3q-0.5 0.1-1 0.1c-0.6 0-1.7 0.1-3.8 0.3-1.9 0.2-3.3 0.3-4.5 0.3l-2.8 0.3 0.1 1.9 1.4 12.4q0.1 0.9 0 1.8c0 0.3 0 1.4 0.3 3.9 0.6 5.7-2.6 11.1-7.9 13.3-5.3 2.2-11.4 0.8-15-3.6l-5.1-6.1-10.4-12.7c-1.2-1.4-2.8-3.2-4.7-5.5q-0.9-1.2-1.9-2.3c-1.3 0.2-3.6 0.6-7.6 1.3l-2.8 0.6q-0.4 0.1-0.8 0.1-3.7 0.5-6.9 0.9c0.3 3.1 0.5 5.5 0.6 7.3l1.2 13.6q0.8 6.9 1.7 14.3c0.6 4.6 1.3 8.8 2.1 12.5q0.1 0.7 0.2 1.4l0.5 4.4c0.2 1.4 0.4 3.2 0.7 5.5zm21.8-2.3q0 0 0 0.1 0 0 0 0 0-0.1 0-0.1zm-0.1-0.3q0 0.2 0.1 0.3-0.1-0.2-0.1-0.3zm-0.3-1.4q0.1 0.2 0.1 0.5 0-0.3-0.1-0.5zm0.1 0.5q0 0.2 0.1 0.3-0.1-0.1-0.1-0.3zm28.8-61.1q-0.1 0.1-0.1 0.1 0 0 0.1-0.1zm44.8-6q0 0.1 0 0.2 0-0.1 0-0.2zm-63.1-12.4q-0.3 0.3-0.4 0.5 0.2-0.3 0.4-0.5zm-27.1 90.5q0 0 0 0 0 0 0 0zm16.5-11.5q0 0 0 0 0 0 0 0zm0 0q0 0 0 0 0 0 0 0zm0 0q0 0 0 0 0 0 0 0zm0 0q0 0 0 0 0 0 0 0zm0-0.1q0 0 0 0.1 0-0.1 0-0.1zm-3.9-1.7q0 0 0 0 0 0 0 0z"/><path fill-rule="evenodd" class="f" d="m571.8 393.5q-0.7 0-1.6 0-1-0.1-2.3 0-1.1 0-2.1-0.1l-2.8-0.4c-1.9-0.2-3.5-0.6-5.1-1.3-3.7-1.8-6.5-5.1-7.4-9q-0.3-1.3-0.4-2.5-0.3-3-1.2-7.8 0-0.4-0.1-0.9-0.1-1.4-0.3-2.5-0.3-1.2-0.5-2.1-0.1-0.5-0.2-1l-0.9-5.9q0-0.3-0.1-0.6-0.2-1.8-0.7-4.8-0.1-0.3-0.1-0.6l-0.6-4.2q0-0.3-0.1-0.5c-0.4-3.9-0.7-6.2-0.9-7.4-0.3-2.1-0.8-6.1-1.5-12.6-0.6-5.9-1.2-12-1.7-18-0.6-6.4-1-12.6-1.1-18.4-0.1-3.5 1-11 11-15.1q1-0.4 1.9-0.6c2-0.5 4.7-0.9 8.5-1.3 7-0.8 12.2-1.5 15.3-2q0.3-0.1 0.7-0.2c10.8-1.3 19.1-2.3 24.6-2.9l6-0.6q0.2 0 0.3 0c7.8-0.7 13.7-1 18.1-1.1 3.7-0.1 12.2 1.1 16.2 13.2 0.6 1.4 1.1 3.2 1.8 6q0.6 1.7 1.4 4.2 0.2 0.4 0.3 0.8 0.6 2.4 0.7 4.8v0.3q0 0.4 0 0.7c0 5-2.3 9.4-6.1 12 0.9 0.8 1.6 1.6 2.1 2.4q2.1 2.7 2.9 6.1 0.2 0.6 0.3 1.3l1.8 12.1q0.1 0.3 0.1 0.6l0.1 0.4c0.4 4.4-1 9.6-5.7 13.3q0.1 0.2 0.3 0.4 0.2 0.3 0.4 0.6c0.7 1.1 1.7 2.8 3.8 7.7 0.9 2.3 1.8 4.7 2.7 7.6q0.9 2.4 1.2 5c0.9 9-5.1 16.5-14 17.4-2.1 0.3-5.1 0.6-8.7 1.2-2.5 0.5-6 0.9-10.7 1.4-9.4 1-16.5 1.9-21.4 2.5q-0.1 0-0.2 0l-21.6 2.3q-1.1 0.1-2.4 0.1zm1.6-32q0.3 1.1 0.6 2.5 0.3 1.5 0.5 3.2l18.4-2q0.5 0 1-0.1c-1.1-1.7-1.9-3.6-2.1-5.8-0.3-2.8-0.4-4.8-0.5-6.3 0-2.4-0.1-3.5-0.2-4-0.3-3.4-0.3-6 0.3-8.3 0.7-2.9 2.2-5.5 4.4-7.6-1.1-0.6-1.9-1.2-2.6-1.9-4-3.7-4.5-8.6-4.7-10.3q0-0.5 0-1l-0.1-3.4q0-0.2 0-0.4c0-6.5 0.2-9 0.6-10.8q0.1-0.6 0.3-1.2c0.7-2.5 1.7-4.5 2.9-6q-5 0.6-11.1 1.4c-3.4 0.6-8.2 1.3-14.6 2q0.2 3.6 0.5 7.4c0.6 5.9 1.2 11.9 1.8 17.6 0.8 7.4 1.1 10.3 1.3 11.4q0.5 3.2 1.1 8.5l0.5 3.7c0.4 2.4 0.8 4.5 1 6.2zm31.3-42.6q0 0-0.1 0-0.1 0.1-0.3 0.1 0.2-0.1 0.4-0.1zm-0.4 0.1q-0.1 0-0.3 0 0.2 0 0.3 0zm42.4-21.1q0 0 0 0 0 0 0 0zm0.1 0.5q0-0.3-0.1-0.5 0.1 0.3 0.1 0.5zm-21.6 74.5q0 0 0 0 0 0 0 0zm-59.7-5.7q0 0 0 0 0 0 0 0zm56.6-30.4q0 0 0 0zm-18.1-17.7q0 0 0 0 0 0 0 0zm0 0q0 0 0 0 0 0 0 0z"/><path class="g" d="m274.4 427.1q-6.2 0.6-9.3 0.8l-11 1.1q-1.4 0.1-2.6-0.9-1.3-1.1-1.4-2.2l-2.7-25.3q8.2-9.6 13.1-16.6 3.1-3.5 5.8-7.4 2.7-3.9 3.3-4.8 2.4-3.6 2.8-4.7 1.2-1.9 1.1-2.8 0-0.5-0.7-0.4l-26.1 2.2q-2.3 0.2-4.1-2.8-0.9-1.8-2-6.9-0.5-2.2-1-6.3-0.1-1.2-0.1-2.2-0.2-2.1-0.2-3.2-0.2-2.2 0-3l-0.2-1.4 0.6-0.7q1-1.2 2.7-1.4 0.9-0.1 1.6 0.1h1.6q4.9-0.6 10-1.5 4.9-1 10-1.5 13-1.4 19.4-2.4l19.8-2.2q7.7-0.8 11.9-0.4 1.8 0.5 2.4 0.8 0.5 0.8 0.5 0.9l2.4 21.9q0.1 1.2-0.5 4.5-0.8 3-3.4 7.7-5 9.9-20.9 30.6 6-0.6 8.9-1.1l8-0.9 7.8-0.8q1.3-0.1 2.5 0.7 1.2 0.7 1.3 1.7l2.3 22v0.4q0.1 1-0.7 1.8-1.2 0.7-3 1-1.6 0.6-5.5 1l-24 2.5q-14 1.5-20.4 2.1z"/><path fill-rule="evenodd" class="g" d="m369.6 401.9q-13.5-2-21.4-10.6-9.1-10.2-11.2-29.9-1.5-14.1 0.6-24.3 2.1-10.2 8-17.2 5.9-7 15.9-11 10-4.1 25-5.7 11.6-1.2 22.2 1.3 13.1 3.1 21.1 11.7 9.8 10.2 11.7 28.2 2.3 21.1-2.8 33.5-5.1 11.5-16.6 17.3-9.3 4.7-26.5 6.6-16.3 1.7-26 0.1zm25.8-15.6q1.6-4.6 1.5-14.1-0.1-8.8-1-16.4l-0.5-5.5-0.4-3.4q-0.7-6-2.4-14.6-1.8-9.2-4.4-13.8-1.3-2.2-2.8-2-3 0.3-3.8 6.2-0.5 8.1 0.2 14.5 0.1 5.5 1.4 17.2 0.8 7.8 1.8 12.8 0.7 6.4 2.9 14.8 2.2 6.9 5.2 6.6 1.6-0.2 2.3-2.3z"/><path class="g" d="m466.6 403.5l-2.7 0.3-2.2 0.3-1.2 0.1-6.4-0.9-0.5-1q-0.1 0-0.3-1.5-0.7-4.1-1.3-9.4-0.4-3.8-0.9-6.1-0.4-3.9-0.7-5.8l-0.5-4.8q-1.4-6.2-2.3-13.7-1-7.5-1.7-14.6l-1.3-14q-0.1-2.4-0.6-7.2-0.5-4.7-0.9-7.1-0.7-3.1 1.3-4.8 1.3-0.8 4.7-1.2 5.1-0.5 13-1.6l3-0.6q8.1-1.5 10.2-1.7 1.9-0.2 2.7-0.1 2-0.1 2.7 0.2 0.7 0.4 1.4 1.3 0.8 0.9 1.1 1.4 1.9 2 3.8 4.3 2.8 3.4 4.6 5.3l10.5 12.9 5 6.1q-0.3-3.6-0.3-5.7l-1.3-12.7-0.7-9.8q0.1-1.1 0.2-1.5 0-0.4 0.3-0.7 0.2-0.2 0.4-0.3 1.5-1.6 3-2.5 1.4-0.4 2.2-0.5l7.8-0.8 1.6-0.2q1.1 0.1 3.9-0.2 3-0.4 4.8-0.4l4.6-0.5 3.9-0.4 1.6-0.2q3.6-0.4 4.9 0.6 1.6 0.9 2 4.6v1.4l0.1 2.2q0 0.8 0.1 2.2l0.2 1.7 0.1 1.1 0.5 1.3 0.4 4.4q0.1 2.3 0.7 7.9l1.1 10.2q0.2 3.5 0.9 10l0.9 7.9 0.5 4.6 2.3 21.7v5.2q-0.2 3.2-1.8 4.1l-2.3 0.4-2.3 0.1-6.2 0.6-8.1 0.9-8.3 0.9-2.1 0.2q-2.7 0.6-5.4-0.1-1.3-0.4-2.9-1.5l-16.1-18.1q0-0.1-3.5-4.7-1.3-1.5-2.4-2.7-0.3-0.5-0.7-0.8-0.4-0.3-0.5-0.3-1.2 0.2-1.1 1.2l0.3 3.1q0 1.3 0.4 4.5l0.5 5.3 0.6 5.2q-0.1 1.7 0.1 4.2l0.3 2.7 0.3 2 0.2 0.7q0.1 1.1-1 1.5-0.6 0.6-2.1 0.5-4.7 0.8-7.4 1.3-1.6 0.4-5.7 1.1-4.1 0.7-7.6 1.1-1.4 0.1-2.4-0.1z"/><path class="g" d="m573.6 377.6q-1.4-0.1-3.3 0l-3-0.4q-0.7 0-1-0.2-0.4-0.2-0.3-0.3-0.3-3.6-1.4-9.4-0.2-2.1-0.5-3.6-0.3-1.6-0.6-2.7l-0.9-5.8q-0.2-2.4-0.9-5.9l-0.5-4.2q-0.6-5.2-1-8.1-0.5-2.8-1.5-12-0.9-8.6-1.7-17.8-0.9-9.2-1.1-17.5-0.1-1.5 3.1-2.8 2-0.5 6.8-1 11.1-1.2 16.2-2.1 16.1-2 24.4-2.9l6-0.6q11.2-1 17.3-1.1 2.2-0.2 3.7 4.9 0.5 0.9 1.5 4.8 0.6 2 1.6 5 0.2 0.8 0.3 1.5 0 0.8 0 0.9 0 1.4-1.4 1.6-0.5-0.1-1.6 0-5.8 0.6-14 2.5l-7.2 1.3q-4.5 1-7.1 1.4-0.4 0.1-0.9 1.8-0.3 1.8-0.3 8.3l0.1 3.5q0.1 1.8 0.6 2.2 0.5 0.4 1.8 0.3l12.2-1.3q5.4-0.6 12.3-0.6l1.6-0.2q1.8 0.2 2.3 1.1 0.7 0.8 0.9 1.7l1.9 12.2v0.4q0.3 2.3-4.6 3.2-2.8 1-10.9 1.9-7 0.7-9 0.8-4 0.4-4.8 0.7-1.5 0.5-1.8 1.7-0.3 1.2 0 4 0.2 1.8 0.3 5.1 0 1.6 0.4 5.2 8.9-1 13.1-1.7 4.6-0.9 13.1-1.8 0.6-0.1 1.2 0.8 0.8 1.3 2.9 6 1.1 2.6 2.3 6.6 0.4 1 0.5 2.1 0.3 2.8-2.4 3.1-3.6 0.4-9.6 1.3-3.1 0.6-9.8 1.3-14.3 1.6-21.6 2.5l-21.6 2.3q-0.7 0.1-2.1 0z"/><path class="c" d="m621.9 107.9c1.4 0 2.5-1.1 2.5-2.5 0-1.4-1.1-2.6-2.5-2.6-1.4 0-2.6 1.2-2.6 2.6 0 1.4 1.2 2.5 2.6 2.5z"/><path class="c" d="m646.5 107.9c1.4 0 2.6-1.1 2.6-2.5 0-1.4-1.2-2.6-2.6-2.6-1.4 0-2.5 1.2-2.5 2.6 0 1.4 1.1 2.5 2.5 2.5z"/><path class="c" d="m671.2 107.9c1.4 0 2.5-1.1 2.5-2.5 0-1.4-1.1-2.6-2.5-2.6-1.4 0-2.5 1.2-2.5 2.6 0 1.4 1.1 2.5 2.5 2.5z"/><path class="c" d="m695.9 107.9c1.4 0 2.5-1.1 2.5-2.5 0-1.4-1.1-2.6-2.5-2.6-1.4 0-2.5 1.2-2.5 2.6 0 1.4 1.1 2.5 2.5 2.5z"/><path class="c" d="m720.6 107.9c1.4 0 2.5-1.1 2.5-2.5 0-1.4-1.1-2.6-2.5-2.6-1.4 0-2.6 1.2-2.6 2.6 0 1.4 1.2 2.5 2.6 2.5z"/><path class="c" d="m745.2 107.9c1.4 0 2.6-1.1 2.6-2.5 0-1.4-1.2-2.6-2.6-2.6-1.4 0-2.5 1.2-2.5 2.6 0 1.4 1.1 2.5 2.5 2.5z"/><path class="c" d="m769.9 107.9c1.4 0 2.5-1.1 2.5-2.5 0-1.4-1.1-2.6-2.5-2.6-1.4 0-2.5 1.2-2.5 2.6 0 1.4 1.1 2.5 2.5 2.5z"/><path class="c" d="m621.9 132.6c1.4 0 2.5-1.2 2.5-2.6 0-1.4-1.1-2.5-2.5-2.5-1.4 0-2.6 1.1-2.6 2.5 0 1.4 1.2 2.6 2.6 2.6z"/><path class="c" d="m646.5 132.6c1.4 0 2.6-1.2 2.6-2.6 0-1.4-1.2-2.5-2.6-2.5-1.4 0-2.5 1.1-2.5 2.5 0 1.4 1.1 2.6 2.5 2.6z"/><path class="c" d="m671.2 132.6c1.4 0 2.5-1.2 2.5-2.6 0-1.4-1.1-2.5-2.5-2.5-1.4 0-2.5 1.1-2.5 2.5 0 1.4 1.1 2.6 2.5 2.6z"/><path class="c" d="m695.9 132.6c1.4 0 2.5-1.2 2.5-2.6 0-1.4-1.1-2.5-2.5-2.5-1.4 0-2.5 1.1-2.5 2.5 0 1.4 1.1 2.6 2.5 2.6z"/><path class="c" d="m720.6 132.6c1.4 0 2.5-1.2 2.5-2.6 0-1.4-1.1-2.5-2.5-2.5-1.4 0-2.6 1.1-2.6 2.5 0 1.4 1.2 2.6 2.6 2.6z"/><path class="c" d="m745.2 132.6c1.4 0 2.6-1.2 2.6-2.6 0-1.4-1.2-2.5-2.6-2.5-1.4 0-2.5 1.1-2.5 2.5 0 1.4 1.1 2.6 2.5 2.6z"/><path class="c" d="m769.9 132.6c1.4 0 2.5-1.2 2.5-2.6 0-1.4-1.1-2.5-2.5-2.5-1.4 0-2.5 1.1-2.5 2.5 0 1.4 1.1 2.6 2.5 2.6z"/><path class="c" d="m621.9 157.2c1.4 0 2.5-1.1 2.5-2.5 0-1.4-1.1-2.5-2.5-2.5-1.4 0-2.6 1.1-2.6 2.5 0 1.4 1.2 2.5 2.6 2.5z"/><path class="c" d="m646.5 157.2c1.4 0 2.6-1.1 2.6-2.5 0-1.4-1.2-2.5-2.6-2.5-1.4 0-2.5 1.1-2.5 2.5 0 1.4 1.1 2.5 2.5 2.5z"/><path class="c" d="m671.2 157.2c1.4 0 2.5-1.1 2.5-2.5 0-1.4-1.1-2.5-2.5-2.5-1.4 0-2.5 1.1-2.5 2.5 0 1.4 1.1 2.5 2.5 2.5z"/><path class="c" d="m695.9 157.2c1.4 0 2.5-1.1 2.5-2.5 0-1.4-1.1-2.5-2.5-2.5-1.4 0-2.5 1.1-2.5 2.5 0 1.4 1.1 2.5 2.5 2.5z"/><path class="c" d="m720.6 157.2c1.4 0 2.5-1.1 2.5-2.5 0-1.4-1.1-2.5-2.5-2.5-1.4 0-2.6 1.1-2.6 2.5 0 1.4 1.2 2.5 2.6 2.5z"/><path class="c" d="m745.2 157.2c1.4 0 2.6-1.1 2.6-2.5 0-1.4-1.2-2.5-2.6-2.5-1.4 0-2.5 1.1-2.5 2.5 0 1.4 1.1 2.5 2.5 2.5z"/><path class="c" d="m769.9 157.2c1.4 0 2.5-1.1 2.5-2.5 0-1.4-1.1-2.5-2.5-2.5-1.4 0-2.5 1.1-2.5 2.5 0 1.4 1.1 2.5 2.5 2.5z"/><path class="c" d="m621.9 181.9c1.4 0 2.5-1.1 2.5-2.5 0-1.4-1.1-2.6-2.5-2.6-1.4 0-2.6 1.2-2.6 2.6 0 1.4 1.2 2.5 2.6 2.5z"/><path class="c" d="m646.5 181.9c1.4 0 2.6-1.1 2.6-2.5 0-1.4-1.2-2.6-2.6-2.6-1.4 0-2.5 1.2-2.5 2.6 0 1.4 1.1 2.5 2.5 2.5z"/><path class="c" d="m671.2 181.9c1.4 0 2.5-1.1 2.5-2.5 0-1.4-1.1-2.6-2.5-2.6-1.4 0-2.5 1.2-2.5 2.6 0 1.4 1.1 2.5 2.5 2.5z"/><path class="c" d="m695.9 181.9c1.4 0 2.5-1.1 2.5-2.5 0-1.4-1.1-2.6-2.5-2.6-1.4 0-2.5 1.2-2.5 2.6 0 1.4 1.1 2.5 2.5 2.5z"/><path class="c" d="m720.6 181.9c1.4 0 2.5-1.1 2.5-2.5 0-1.4-1.1-2.6-2.5-2.6-1.4 0-2.6 1.2-2.6 2.6 0 1.4 1.2 2.5 2.6 2.5z"/><path class="c" d="m745.2 181.9c1.4 0 2.6-1.1 2.6-2.5 0-1.4-1.2-2.6-2.6-2.6-1.4 0-2.5 1.2-2.5 2.6 0 1.4 1.1 2.5 2.5 2.5z"/><path class="c" d="m769.9 181.9c1.4 0 2.5-1.1 2.5-2.5 0-1.4-1.1-2.6-2.5-2.6-1.4 0-2.5 1.2-2.5 2.6 0 1.4 1.1 2.5 2.5 2.5z"/><path class="c" d="m621.9 206.6c1.4 0 2.5-1.1 2.5-2.5 0-1.4-1.1-2.6-2.5-2.6-1.4 0-2.6 1.2-2.6 2.6 0 1.4 1.2 2.5 2.6 2.5z"/><path class="c" d="m646.5 206.6c1.4 0 2.6-1.1 2.6-2.5 0-1.4-1.2-2.6-2.6-2.6-1.4 0-2.5 1.2-2.5 2.6 0 1.4 1.1 2.5 2.5 2.5z"/><path class="c" d="m671.2 206.6c1.4 0 2.5-1.1 2.5-2.5 0-1.4-1.1-2.6-2.5-2.6-1.4 0-2.5 1.2-2.5 2.6 0 1.4 1.1 2.5 2.5 2.5z"/><path class="c" d="m695.9 206.6c1.4 0 2.5-1.1 2.5-2.5 0-1.4-1.1-2.6-2.5-2.6-1.4 0-2.5 1.2-2.5 2.6 0 1.4 1.1 2.5 2.5 2.5z"/><path class="c" d="m720.6 206.6c1.4 0 2.5-1.1 2.5-2.5 0-1.4-1.1-2.6-2.5-2.6-1.4 0-2.6 1.2-2.6 2.6 0 1.4 1.2 2.5 2.6 2.5z"/><path class="c" d="m745.2 206.6c1.4 0 2.6-1.1 2.6-2.5 0-1.4-1.2-2.6-2.6-2.6-1.4 0-2.5 1.2-2.5 2.6 0 1.4 1.1 2.5 2.5 2.5z"/><path class="c" d="m769.9 206.6c1.4 0 2.5-1.1 2.5-2.5 0-1.4-1.1-2.6-2.5-2.6-1.4 0-2.5 1.2-2.5 2.6 0 1.4 1.1 2.5 2.5 2.5z"/><path class="c" d="m621.9 231.3c1.4 0 2.5-1.2 2.5-2.6 0-1.4-1.1-2.5-2.5-2.5-1.4 0-2.6 1.1-2.6 2.5 0 1.4 1.2 2.6 2.6 2.6z"/><path class="c" d="m646.5 231.3c1.4 0 2.6-1.2 2.6-2.6 0-1.4-1.2-2.5-2.6-2.5-1.4 0-2.5 1.1-2.5 2.5 0 1.4 1.1 2.6 2.5 2.6z"/><path class="c" d="m671.2 231.3c1.4 0 2.5-1.2 2.5-2.6 0-1.4-1.1-2.5-2.5-2.5-1.4 0-2.5 1.1-2.5 2.5 0 1.4 1.1 2.6 2.5 2.6z"/><path class="c" d="m695.9 231.3c1.4 0 2.5-1.2 2.5-2.6 0-1.4-1.1-2.5-2.5-2.5-1.4 0-2.5 1.1-2.5 2.5 0 1.4 1.1 2.6 2.5 2.6z"/><path class="c" d="m720.6 231.3c1.4 0 2.5-1.2 2.5-2.6 0-1.4-1.1-2.5-2.5-2.5-1.4 0-2.6 1.1-2.6 2.5 0 1.4 1.2 2.6 2.6 2.6z"/><path class="c" d="m745.2 231.3c1.4 0 2.6-1.2 2.6-2.6 0-1.4-1.2-2.5-2.6-2.5-1.4 0-2.5 1.1-2.5 2.5 0 1.4 1.1 2.6 2.5 2.6z"/><path class="c" d="m769.9 231.3c1.4 0 2.5-1.2 2.5-2.6 0-1.4-1.1-2.5-2.5-2.5-1.4 0-2.5 1.1-2.5 2.5 0 1.4 1.1 2.6 2.5 2.6z"/><path class="c" d="m621.9 255.9c1.4 0 2.5-1.1 2.5-2.5 0-1.4-1.1-2.5-2.5-2.5-1.4 0-2.6 1.1-2.6 2.5 0 1.4 1.2 2.5 2.6 2.5z"/><path class="c" d="m646.5 255.9c1.4 0 2.6-1.1 2.6-2.5 0-1.4-1.2-2.5-2.6-2.5-1.4 0-2.5 1.1-2.5 2.5 0 1.4 1.1 2.5 2.5 2.5z"/><path class="c" d="m671.2 255.9c1.4 0 2.5-1.1 2.5-2.5 0-1.4-1.1-2.5-2.5-2.5-1.4 0-2.5 1.1-2.5 2.5 0 1.4 1.1 2.5 2.5 2.5z"/><path class="c" d="m695.9 255.9c1.4 0 2.5-1.1 2.5-2.5 0-1.4-1.1-2.5-2.5-2.5-1.4 0-2.5 1.1-2.5 2.5 0 1.4 1.1 2.5 2.5 2.5z"/><path class="c" d="m720.6 255.9c1.4 0 2.5-1.1 2.5-2.5 0-1.4-1.1-2.5-2.5-2.5-1.4 0-2.6 1.1-2.6 2.5 0 1.4 1.2 2.5 2.6 2.5z"/><path class="c" d="m745.2 255.9c1.4 0 2.6-1.1 2.6-2.5 0-1.4-1.2-2.5-2.6-2.5-1.4 0-2.5 1.1-2.5 2.5 0 1.4 1.1 2.5 2.5 2.5z"/><path class="c" d="m769.9 255.9c1.4 0 2.5-1.1 2.5-2.5 0-1.4-1.1-2.5-2.5-2.5-1.4 0-2.5 1.1-2.5 2.5 0 1.4 1.1 2.5 2.5 2.5z"/><path class="c" d="m66 353c1.4 0 2.5-1.1 2.5-2.5 0-1.4-1.1-2.5-2.5-2.5-1.4 0-2.6 1.1-2.6 2.5 0 1.4 1.2 2.5 2.6 2.5z"/><path class="c" d="m90.6 353c1.4 0 2.6-1.1 2.6-2.5 0-1.4-1.2-2.5-2.6-2.5-1.4 0-2.5 1.1-2.5 2.5 0 1.4 1.1 2.5 2.5 2.5z"/><path class="c" d="m115.3 353c1.4 0 2.5-1.1 2.5-2.5 0-1.4-1.1-2.5-2.5-2.5-1.4 0-2.5 1.1-2.5 2.5 0 1.4 1.1 2.5 2.5 2.5z"/><path class="c" d="m140 353c1.4 0 2.5-1.1 2.5-2.5 0-1.4-1.1-2.5-2.5-2.5-1.4 0-2.5 1.1-2.5 2.5 0 1.4 1.1 2.5 2.5 2.5z"/><path class="c" d="m164.7 353c1.4 0 2.5-1.1 2.5-2.5 0-1.4-1.1-2.5-2.5-2.5-1.4 0-2.6 1.1-2.6 2.5 0 1.4 1.2 2.5 2.6 2.5z"/><path class="c" d="m189.3 353c1.4 0 2.6-1.1 2.6-2.5 0-1.4-1.2-2.5-2.6-2.5-1.4 0-2.5 1.1-2.5 2.5 0 1.4 1.1 2.5 2.5 2.5z"/><path class="c" d="m214 353c1.4 0 2.5-1.1 2.5-2.5 0-1.4-1.1-2.5-2.5-2.5-1.4 0-2.5 1.1-2.5 2.5 0 1.4 1.1 2.5 2.5 2.5z"/><path class="c" d="m66 377.7c1.4 0 2.5-1.1 2.5-2.5 0-1.4-1.1-2.5-2.5-2.5-1.4 0-2.6 1.1-2.6 2.5 0 1.4 1.2 2.5 2.6 2.5z"/><path class="c" d="m90.6 377.7c1.4 0 2.6-1.1 2.6-2.5 0-1.4-1.2-2.5-2.6-2.5-1.4 0-2.5 1.1-2.5 2.5 0 1.4 1.1 2.5 2.5 2.5z"/><path class="c" d="m115.3 377.7c1.4 0 2.5-1.1 2.5-2.5 0-1.4-1.1-2.5-2.5-2.5-1.4 0-2.5 1.1-2.5 2.5 0 1.4 1.1 2.5 2.5 2.5z"/><path class="c" d="m140 377.7c1.4 0 2.5-1.1 2.5-2.5 0-1.4-1.1-2.5-2.5-2.5-1.4 0-2.5 1.1-2.5 2.5 0 1.4 1.1 2.5 2.5 2.5z"/><path class="c" d="m164.7 377.7c1.4 0 2.5-1.1 2.5-2.5 0-1.4-1.1-2.5-2.5-2.5-1.4 0-2.6 1.1-2.6 2.5 0 1.4 1.2 2.5 2.6 2.5z"/><path class="c" d="m189.3 377.7c1.4 0 2.6-1.1 2.6-2.5 0-1.4-1.2-2.5-2.6-2.5-1.4 0-2.5 1.1-2.5 2.5 0 1.4 1.1 2.5 2.5 2.5z"/><path class="c" d="m214 377.7c1.4 0 2.5-1.1 2.5-2.5 0-1.4-1.1-2.5-2.5-2.5-1.4 0-2.5 1.1-2.5 2.5 0 1.4 1.1 2.5 2.5 2.5z"/><path class="c" d="m66 402.4c1.4 0 2.5-1.1 2.5-2.5 0-1.4-1.1-2.6-2.5-2.6-1.4 0-2.6 1.2-2.6 2.6 0 1.4 1.2 2.5 2.6 2.5z"/><path class="c" d="m90.6 402.4c1.4 0 2.6-1.1 2.6-2.5 0-1.4-1.2-2.6-2.6-2.6-1.4 0-2.5 1.2-2.5 2.6 0 1.4 1.1 2.5 2.5 2.5z"/><path class="c" d="m115.3 402.4c1.4 0 2.5-1.1 2.5-2.5 0-1.4-1.1-2.6-2.5-2.6-1.4 0-2.5 1.2-2.5 2.6 0 1.4 1.1 2.5 2.5 2.5z"/><path class="c" d="m140 402.4c1.4 0 2.5-1.1 2.5-2.5 0-1.4-1.1-2.6-2.5-2.6-1.4 0-2.5 1.2-2.5 2.6 0 1.4 1.1 2.5 2.5 2.5z"/><path class="c" d="m164.7 402.4c1.4 0 2.5-1.1 2.5-2.5 0-1.4-1.1-2.6-2.5-2.6-1.4 0-2.6 1.2-2.6 2.6 0 1.4 1.2 2.5 2.6 2.5z"/><path class="c" d="m189.3 402.4c1.4 0 2.6-1.1 2.6-2.5 0-1.4-1.2-2.6-2.6-2.6-1.4 0-2.5 1.2-2.5 2.6 0 1.4 1.1 2.5 2.5 2.5z"/><path class="c" d="m214 402.4c1.4 0 2.5-1.1 2.5-2.5 0-1.4-1.1-2.6-2.5-2.6-1.4 0-2.5 1.2-2.5 2.6 0 1.4 1.1 2.5 2.5 2.5z"/><path class="c" d="m66 427.1c1.4 0 2.5-1.2 2.5-2.6 0-1.4-1.1-2.5-2.5-2.5-1.4 0-2.6 1.1-2.6 2.5 0 1.4 1.2 2.6 2.6 2.6z"/><path class="c" d="m90.6 427.1c1.4 0 2.6-1.2 2.6-2.6 0-1.4-1.2-2.5-2.6-2.5-1.4 0-2.5 1.1-2.5 2.5 0 1.4 1.1 2.6 2.5 2.6z"/><path class="c" d="m115.3 427.1c1.4 0 2.5-1.2 2.5-2.6 0-1.4-1.1-2.5-2.5-2.5-1.4 0-2.5 1.1-2.5 2.5 0 1.4 1.1 2.6 2.5 2.6z"/><path class="c" d="m140 427.1c1.4 0 2.5-1.2 2.5-2.6 0-1.4-1.1-2.5-2.5-2.5-1.4 0-2.5 1.1-2.5 2.5 0 1.4 1.1 2.6 2.5 2.6z"/><path class="c" d="m164.7 427.1c1.4 0 2.5-1.2 2.5-2.6 0-1.4-1.1-2.5-2.5-2.5-1.4 0-2.6 1.1-2.6 2.5 0 1.4 1.2 2.6 2.6 2.6z"/><path class="c" d="m189.3 427.1c1.4 0 2.6-1.2 2.6-2.6 0-1.4-1.2-2.5-2.6-2.5-1.4 0-2.5 1.1-2.5 2.5 0 1.4 1.1 2.6 2.5 2.6z"/><path class="c" d="m214 427.1c1.4 0 2.5-1.2 2.5-2.6 0-1.4-1.1-2.5-2.5-2.5-1.4 0-2.5 1.1-2.5 2.5 0 1.4 1.1 2.6 2.5 2.6z"/><path class="c" d="m66 451.7c1.4 0 2.5-1.1 2.5-2.5 0-1.4-1.1-2.5-2.5-2.5-1.4 0-2.6 1.1-2.6 2.5 0 1.4 1.2 2.5 2.6 2.5z"/><path class="c" d="m90.6 451.7c1.4 0 2.6-1.1 2.6-2.5 0-1.4-1.2-2.5-2.6-2.5-1.4 0-2.5 1.1-2.5 2.5 0 1.4 1.1 2.5 2.5 2.5z"/><path class="c" d="m115.3 451.7c1.4 0 2.5-1.1 2.5-2.5 0-1.4-1.1-2.5-2.5-2.5-1.4 0-2.5 1.1-2.5 2.5 0 1.4 1.1 2.5 2.5 2.5z"/><path class="c" d="m140 451.7c1.4 0 2.5-1.1 2.5-2.5 0-1.4-1.1-2.5-2.5-2.5-1.4 0-2.5 1.1-2.5 2.5 0 1.4 1.1 2.5 2.5 2.5z"/><path class="c" d="m164.7 451.7c1.4 0 2.5-1.1 2.5-2.5 0-1.4-1.1-2.5-2.5-2.5-1.4 0-2.6 1.1-2.6 2.5 0 1.4 1.2 2.5 2.6 2.5z"/><path class="c" d="m189.3 451.7c1.4 0 2.6-1.1 2.6-2.5 0-1.4-1.2-2.5-2.6-2.5-1.4 0-2.5 1.1-2.5 2.5 0 1.4 1.1 2.5 2.5 2.5z"/><path class="c" d="m214 451.7c1.4 0 2.5-1.1 2.5-2.5 0-1.4-1.1-2.5-2.5-2.5-1.4 0-2.5 1.1-2.5 2.5 0 1.4 1.1 2.5 2.5 2.5z"/><path class="c" d="m66 476.4c1.4 0 2.5-1.1 2.5-2.5 0-1.4-1.1-2.5-2.5-2.5-1.4 0-2.6 1.1-2.6 2.5 0 1.4 1.2 2.5 2.6 2.5z"/><path class="c" d="m90.6 476.4c1.4 0 2.6-1.1 2.6-2.5 0-1.4-1.2-2.5-2.6-2.5-1.4 0-2.5 1.1-2.5 2.5 0 1.4 1.1 2.5 2.5 2.5z"/><path class="c" d="m115.3 476.4c1.4 0 2.5-1.1 2.5-2.5 0-1.4-1.1-2.5-2.5-2.5-1.4 0-2.5 1.1-2.5 2.5 0 1.4 1.1 2.5 2.5 2.5z"/><path class="c" d="m140 476.4c1.4 0 2.5-1.1 2.5-2.5 0-1.4-1.1-2.5-2.5-2.5-1.4 0-2.5 1.1-2.5 2.5 0 1.4 1.1 2.5 2.5 2.5z"/><path class="c" d="m164.7 476.4c1.4 0 2.5-1.1 2.5-2.5 0-1.4-1.1-2.5-2.5-2.5-1.4 0-2.6 1.1-2.6 2.5 0 1.4 1.2 2.5 2.6 2.5z"/><path class="c" d="m189.3 476.4c1.4 0 2.6-1.1 2.6-2.5 0-1.4-1.2-2.5-2.6-2.5-1.4 0-2.5 1.1-2.5 2.5 0 1.4 1.1 2.5 2.5 2.5z"/><path class="c" d="m214 476.4c1.4 0 2.5-1.1 2.5-2.5 0-1.4-1.1-2.5-2.5-2.5-1.4 0-2.5 1.1-2.5 2.5 0 1.4 1.1 2.5 2.5 2.5z"/><path class="c" d="m66 501.1c1.4 0 2.5-1.1 2.5-2.5 0-1.4-1.1-2.6-2.5-2.6-1.4 0-2.6 1.2-2.6 2.6 0 1.4 1.2 2.5 2.6 2.5z"/><path class="c" d="m90.6 501.1c1.4 0 2.6-1.1 2.6-2.5 0-1.4-1.2-2.6-2.6-2.6-1.4 0-2.5 1.2-2.5 2.6 0 1.4 1.1 2.5 2.5 2.5z"/><path class="c" d="m115.3 501.1c1.4 0 2.5-1.1 2.5-2.5 0-1.4-1.1-2.6-2.5-2.6-1.4 0-2.5 1.2-2.5 2.6 0 1.4 1.1 2.5 2.5 2.5z"/><path class="c" d="m140 501.1c1.4 0 2.5-1.1 2.5-2.5 0-1.4-1.1-2.6-2.5-2.6-1.4 0-2.5 1.2-2.5 2.6 0 1.4 1.1 2.5 2.5 2.5z"/><path class="c" d="m164.7 501.1c1.4 0 2.5-1.1 2.5-2.5 0-1.4-1.1-2.6-2.5-2.6-1.4 0-2.6 1.2-2.6 2.6 0 1.4 1.2 2.5 2.6 2.5z"/><path class="c" d="m189.3 501.1c1.4 0 2.6-1.1 2.6-2.5 0-1.4-1.2-2.6-2.6-2.6-1.4 0-2.5 1.2-2.5 2.6 0 1.4 1.1 2.5 2.5 2.5z"/><path class="c" d="m214 501.1c1.4 0 2.5-1.1 2.5-2.5 0-1.4-1.1-2.6-2.5-2.6-1.4 0-2.5 1.2-2.5 2.6 0 1.4 1.1 2.5 2.5 2.5z"/><path fill-rule="evenodd" class="c" d="m520.7 136c-0.9 0-1.7-0.6-1.9-1.4-3.8-12.8-1.1-27.2 7.2-37.6 8.2-10.5 21.6-16.5 34.9-15.7q0.3 0 0.6 0c1.1-1.9 2.4-3.6 3.7-5.1 10.8-13 24.8-23.2 40.4-29.7 1-0.4 2.2 0.1 2.6 1.1 0.4 1 0 2.2-1.1 2.6-15 6.2-28.4 16.1-38.8 28.5-0.8 1-1.7 2.1-2.5 3.3q5.2 1.2 8.2 4.5c2 2.2 3 5.4 2.7 8.4-0.2 2.5-1.4 4.7-3.3 6-2.3 1.7-5.3 1.9-8.2 0.6-3.6-1.6-6.4-5.2-6.8-9-0.2-2.5 0.2-5 1.1-7.3q-0.4 0-0.9 0c-11.3 0-22.5 5.4-29.5 14.3-7.4 9.4-9.9 22.4-6.5 33.9 0.3 1.1-0.3 2.2-1.3 2.5q-0.3 0.1-0.6 0.1zm43-50.4c-1 2.1-1.5 4.3-1.3 6.5 0.3 2.4 2.1 4.7 4.4 5.8 0.9 0.4 2.7 0.9 4.3-0.2 1.2-0.9 1.5-2.2 1.6-3.2 0.2-1.9-0.4-4-1.7-5.3q-2.4-2.7-7.3-3.6z"/><path class="c" d="m103.5 278.9q-0.4 0-0.8-0.2l-50.4-22.2c-1-0.4-1.4-1.6-1-2.6 0.5-1.1 1.6-1.5 2.6-1.1l47.3 20.9-2.4-35.7c-0.1-0.8 0.3-1.5 0.9-1.9 0.7-0.4 1.5-0.4 2.2 0.1l50.2 33.5c0.9 0.6 1.1 1.8 0.5 2.8-0.6 0.9-1.8 1.1-2.8 0.5l-46.8-31.2 2.5 34.9c0 0.7-0.3 1.4-0.9 1.8q-0.5 0.4-1.1 0.4z"/><path class="c" d="m427 104.2c-1 0-1.9-0.7-2-1.7l-6.5-40.7c-0.2-1.1 0.5-2.1 1.6-2.3 1.1-0.2 2.1 0.6 2.3 1.7l6.5 40.7c0.2 1-0.5 2.1-1.6 2.2q-0.2 0.1-0.3 0.1z"/><path class="c" d="m711.2 322c-1 0-1.8-0.7-2-1.8-0.1-1.1 0.7-2.1 1.8-2.2l48.9-6c1.1-0.1 2.1 0.7 2.2 1.8 0.2 1.1-0.6 2.1-1.7 2.2l-48.9 6q-0.2 0-0.3 0z"/><path class="c" d="m764.4 466q-0.1 0-0.3 0c-1.1-0.2-1.8-1.3-1.6-2.4 2.6-14.5-7.1-30.7-21.2-35.3-3.6-1.1-7.3-1.6-11.3-2.2-4.2-0.5-8.6-1.1-12.8-2.6-15.1-5.3-24.6-22.4-21.2-38.1 0.2-1.1 1.3-1.8 2.4-1.5 1 0.2 1.7 1.3 1.5 2.3-2.9 13.6 5.6 28.9 18.7 33.5 3.8 1.4 7.8 1.9 12 2.5 3.9 0.5 8 1.1 11.9 2.3 16.2 5.3 26.9 23.1 23.9 39.9-0.2 0.9-1 1.6-2 1.6z"/><path class="c" d="m572.3 519.4c-0.8 0-1.6-0.6-1.9-1.4l-13.4-40.9c-0.4-1 0.2-2.1 1.2-2.5 1.1-0.3 2.2 0.2 2.6 1.3l13.4 40.9c0.4 1-0.2 2.1-1.3 2.5q-0.3 0.1-0.6 0.1z"/><path class="c" d="m398.1 561c-0.4 0-0.8-0.1-1.2-0.4-0.9-0.7-1.1-1.9-0.4-2.8l23.5-31.5-22.5 4.7c-0.8 0.2-1.7-0.2-2.1-0.9-0.5-0.7-0.4-1.6 0.1-2.3l23.7-29.9c0.7-0.9 1.9-1.1 2.8-0.4 0.9 0.7 1 2 0.3 2.8l-20.2 25.7 22.2-4.6c0.8-0.2 1.7 0.1 2.1 0.8 0.5 0.7 0.4 1.6-0.1 2.3l-26.6 35.7c-0.4 0.5-1 0.8-1.6 0.8z"/><path class="c" d="m218.1 109.2c-0.5 0-1-0.2-1.4-0.5l-43.3-40.3c-0.8-0.7-0.8-2-0.1-2.8 0.8-0.8 2-0.9 2.8-0.1l43.4 40.2c0.8 0.8 0.8 2.1 0.1 2.9-0.4 0.4-1 0.6-1.5 0.6z"/><path class="f" d="m384.7 147.7c0 5.2-4.1 9.3-9.3 9.3-5.1 0-9.3-4.1-9.3-9.3 0-5.1 4.2-9.3 9.3-9.3 5.2 0 9.3 4.2 9.3 9.3z"/><path class="f" d="m213.4 317.2c0 11-8.9 19.9-19.9 19.9-11 0-19.9-8.9-19.9-19.9 0-11 8.9-19.9 19.9-19.9 11 0 19.9 8.9 19.9 19.9z"/><path class="f" d="m403.3 449.4c0 3.8-3 6.9-6.8 6.9-3.8 0-6.8-3.1-6.8-6.9 0-3.7 3-6.8 6.8-6.8 3.8 0 6.8 3.1 6.8 6.8z"/><path class="f" d="m727.4 371.8c0 5.5-4.4 10-9.9 10-5.5 0-10-4.5-10-10 0-5.5 4.5-9.9 10-9.9 5.5 0 9.9 4.4 9.9 9.9z"/><path class="f" d="m705.1 288.6c0 2.8-2.3 5-5 5-2.8 0-5-2.2-5-5 0-2.7 2.2-4.9 5-4.9 2.7 0 5 2.2 5 4.9z"/><path class="f" d="m698.9 194.9c0 9.9-8.1 18-18.1 18-9.9 0-18-8.1-18-18 0-10 8.1-18 18-18 10 0 18.1 8 18.1 18z"/><path class="g" d="m167.4 196.8c0 10.9-8.9 19.8-19.8 19.8-11 0-19.9-8.9-19.9-19.8 0-11 8.9-19.9 19.9-19.9 10.9 0 19.8 8.9 19.8 19.9z"/><path class="g" d="m313.9 139c0 4.5-3.6 8.1-8 8.1-4.5 0-8.1-3.6-8.1-8.1 0-4.4 3.6-8.1 8.1-8.1 4.4 0 8 3.7 8 8.1z"/><path class="g" d="m506.4 468c0 8.6-7 15.6-15.5 15.6-8.6 0-15.5-7-15.5-15.6 0-8.5 6.9-15.5 15.5-15.5 8.5 0 15.5 7 15.5 15.5z"/><path class="g" d="m630.6 417.5c0 4.4-3.6 8.1-8.1 8.1-4.4 0-8.1-3.7-8.1-8.1 0-4.5 3.7-8.1 8.1-8.1 4.5 0 8.1 3.6 8.1 8.1z"/><path class="g" d="m562.3 122.3c0 5.4-4.5 9.9-10 9.9-5.4 0-9.9-4.5-9.9-9.9 0-5.5 4.5-10 9.9-10 5.5 0 10 4.5 10 10z"/><path class="c" d="m229.5 457.5c0 8.9-7.2 16.1-16.1 16.1-8.9 0-16.2-7.2-16.2-16.1 0-8.9 7.3-16.1 16.2-16.1 8.9 0 16.1 7.2 16.1 16.1z"/><path class="c" d="m215.9 263.2c0 4.4-3.7 8.1-8.1 8.1-4.5 0-8.1-3.7-8.1-8.1 0-4.5 3.6-8.1 8.1-8.1 4.4 0 8.1 3.6 8.1 8.1z"/><path class="c" d="m693 237.9c0 5.2-4.1 9.3-9.3 9.3-5.1 0-9.3-4.1-9.3-9.3 0-5.1 4.2-9.3 9.3-9.3 5.2 0 9.3 4.2 9.3 9.3z"/><path class="c" d="m486.3 99.8c0 10.8-8.7 19.5-19.5 19.5-10.7 0-19.5-8.7-19.5-19.5 0-10.8 8.8-19.5 19.5-19.5 10.8 0 19.5 8.7 19.5 19.5z"/><path class="c" d="m594.6 473.8c0 5.8-4.8 10.5-10.6 10.5-5.8 0-10.6-4.7-10.6-10.5 0-5.9 4.8-10.6 10.6-10.6 5.8 0 10.6 4.7 10.6 10.6z"/></svg>