<svg version="1.2" xmlns="http://www.w3.org/2000/svg" viewBox="0 0 2215 2539" width="2215" height="2539"><defs><linearGradient id="P" gradientUnits="userSpaceOnUse"/><linearGradient id="g1" x1="1027.7" y1="2526.3" x2="1043" y2="2403.8" href="#P"><stop offset="0" stop-color="#26264f"/><stop offset="1" stop-color="#444b8c"/></linearGradient><linearGradient id="g2" x1="956.6" y1="2421.2" x2="1124.4" y2="2119.2" href="#P"><stop offset="0" stop-color="#26264f"/><stop offset="1" stop-color="#444b8c"/></linearGradient><linearGradient id="g3" x1="888.6" y1="2239" x2="1311.2" y2="2239" href="#P"><stop offset="0" stop-color="#26264f"/><stop offset="1" stop-color="#444b8c"/></linearGradient><linearGradient id="g4" x1="968.5" y1="2377.6" x2="1150.8" y2="2026.9" href="#P"><stop offset="0" stop-color="#26264f"/><stop offset="1" stop-color="#444b8c"/></linearGradient><linearGradient id="g5" x1="869.7" y1="2180.3" x2="1330" y2="2180.3" href="#P"><stop offset="0" stop-color="#26264f"/><stop offset="1" stop-color="#444b8c"/></linearGradient><linearGradient id="g6" x1="862.8" y1="2041.2" x2="1337" y2="2041.2" href="#P"><stop offset="0" stop-color="#26264f"/><stop offset="1" stop-color="#444b8c"/></linearGradient><linearGradient id="g7" x1="1059.8" y1="2135" x2="1125.7" y2="1826.2" href="#P"><stop offset="0" stop-color="#26264f"/><stop offset="1" stop-color="#444b8c"/></linearGradient><linearGradient id="g8" x1="2013.2" y1="153.8" x2="3258.8" y2="2131.3" href="#P"><stop stop-color="#fcb148"/><stop offset=".32" stop-color="#ffc444"/><stop offset=".87" stop-color="#f8924f"/><stop offset="1" stop-color="#f8924f"/></linearGradient><linearGradient id="g9" x1="2256" y1="616.7" x2="2050.5" y2="2311" href="#P"><stop stop-color="#fcb148"/><stop offset=".32" stop-color="#ffc444"/><stop offset=".87" stop-color="#f8924f"/><stop offset="1" stop-color="#f8924f"/></linearGradient><linearGradient id="g10" x1="19518.3" y1="-13022.1" x2="20963.3" y2="-14108.8" href="#P"><stop offset="0" stop-color="#6165d7"/><stop offset="1" stop-color="#aa80f9"/></linearGradient><linearGradient id="g11" x1="1227" y1="1698.5" x2="591.1" y2="3406.8" href="#P"><stop offset="0" stop-color="#6165d7"/><stop offset="1" stop-color="#aa80f9"/></linearGradient><linearGradient id="g12" x1="2130.5" y1="1019.6" x2="2039.4" y2="712.6" href="#P"><stop offset="0" stop-color="#6165d7"/><stop offset="1" stop-color="#aa80f9"/></linearGradient><linearGradient id="g13" x1="340.8" y1="822.8" x2="1969.9" y2="822.8" href="#P"><stop offset="0" stop-color="#6165d7"/><stop offset="1" stop-color="#aa80f9"/></linearGradient></defs><style>.a{opacity:.7;fill:#f4f7fa}.b{fill:url(#g1)}.c{fill:url(#g2)}.d{opacity:.3;mix-blend-mode:multiply;fill:url(#g3)}.e{fill:url(#g4)}.f{opacity:.3;mix-blend-mode:multiply;fill:url(#g5)}.g{fill:url(#g6)}.h{fill:url(#g7)}.i{fill:url(#g8)}.j{opacity:.5;mix-blend-mode:soft-light;fill:#f4f7fa}.k{opacity:.3;mix-blend-mode:multiply;fill:url(#g9)}.l{opacity:.4;mix-blend-mode:soft-light;fill:#f4f7fa}.m{fill:#fff}.n{fill:url(#g10)}.o{fill:url(#g11)}.p{fill:url(#g12)}.q{fill:url(#g13)}</style><path class="a" d="m1816.9 1039.6c0-377-321-682.7-717-682.7-396 0-717 305.7-717 682.7 0 228.8 118.2 431.4 299.7 555.2 77 52.6 123.7 139.2 123.7 232.4v52.3c0 113.5 92 205.5 205.5 205.5h176.2c113.5 0 205.5-92 205.5-205.5v-52.3c0-93.2 46.7-179.8 123.7-232.4 181.5-123.8 299.7-326.4 299.7-555.2z"/><path class="b" d="m1259 2389.4c0 46.5-71.2 84.2-159.1 84.2-87.8 0-159-37.7-159-84.2 0-46.5 71.2-84.2 159-84.2 87.9 0 159.1 37.7 159.1 84.2z"/><path class="c" d="m888.6 2239v86c0 29.1 16.6 55.7 42.8 68.3 36.5 17.3 97.1 36.4 185.2 34.2 71.4-1.9 118-13.5 147.7-25.8 28.6-11.8 46.9-40.2 46.9-71.1v-47.6z"/><path class="d" d="m888.6 2314.3c6.4 6.3 13.9 11.6 22.3 15.6 40.9 19.5 308.8 63.1 373.4 38.8 8.4-3.2 15.9-7.4 22.6-12.5 2.8-8.1 4.3-16.7 4.3-25.6v-47.6l-422.6-44z"/><path class="e" d="m907.4 2180.5c-23.8-2.5-44.6 16.2-44.6 40.1v2.4c0 32.7 18.6 62.6 48.1 76.6 40.9 19.5 308.8 63.1 373.4 38.8 32.5-12.2 52.7-40.1 52.7-74.9v-1.9c0-20.7-15.6-38-36.2-40.2z"/><path class="f" d="m1300.8 2221.4l-393.4-40.9c-15.6-1.6-29.7 5.8-37.7 17.7 7.9 18.7 22.3 34.2 41.2 43.3 40.9 19.5 320.2 68.7 373.4 43.7 20.7-9.8 37-26.3 45.7-46.3-6.5-9.5-17-16.2-29.2-17.5z"/><path class="g" d="m892 2041.2c-16.1 0-29.2 13-29.2 29.1v67.3c0 32.7 18.6 62.6 48.1 76.6 40.9 19.5 320.2 68.8 373.4 43.7 31.4-14.8 52.7-45 52.7-79.8v-107.8c0-16.1-13-29.1-29.1-29.1z"/><path class="h" d="m1331.1 2062.1c0 30.2-103.5 54.7-231.2 54.7-127.7 0-231.2-24.5-231.2-54.7 0-30.2 103.5-54.6 231.2-54.6 127.7 0 231.2 24.4 231.2 54.6z"/><path class="i" d="m1816.9 1039.6c0-377-321-682.7-717-682.7-396 0-717 305.7-717 682.7 0 228.8 118.2 431.4 299.7 555.2 77 52.6 123.7 139.2 123.7 232.4v52.3c0 113.5 92 205.5 205.5 205.5h176.2c113.5 0 205.5-92 205.5-205.5v-52.3c0-93.2 46.7-179.8 123.7-232.4 181.5-123.8 299.7-326.4 299.7-555.2z"/><path class="j" d="m1269.1 2019c0 22.1-75.7 40-169.2 40-93.4 0-169.2-17.9-169.2-40 0-22.1 75.8-40 169.2-40 93.5 0 169.2 17.9 169.2 40z"/><path class="k" d="m1112.9 1578.1c15.4-263.1 459-324.7 457.1-559.7-1.2-144.7-177.5-252.2-215.1-273.8-277.4-158.6-618.8 24.6-689.3-105.1-17.5-32.2-9.3-67.4-4.6-87.4 7.1-30.2 23.1-58.4 46.9-84.2-195.7 121.9-325 332.4-325 571.7 0 228.8 118.2 431.4 299.7 555.2 77 52.6 123.7 139.2 123.7 232.4v52.3c0 113.5 92 205.5 205.5 205.5h176.2c113.5 0 205.5-92 205.5-205.5v-41.8c-24.2 18.6-52.1 31.5-82.6 31.3-105.9-0.9-205.6-159.9-198-290.9z"/><path class="l" d="m1728.4 1066.2c0 328.7-276.3 595.1-617 595.1-340.8 0-617-266.4-617-595.1 0-328.6 276.2-595 617-595 340.7 0 617 266.4 617 595z"/><path class="m" d="m1333.6 604.8l-480.2 528.7 197.4-1.2-160 397.7 479.3-531.6-178.2 0.5z"/><path class="n" d="m416.2 916.9l-126.3 218.8-215.6-114.7 37.9 141.5 215.5 114.6 126.3-218.7z"/><path class="o" d="m1862.2 579.5l-165.9-66.8c-47.5-62.1-106.1-116.7-174.5-161.1-339.3-220.5-809.9-118.1-1049.3 228.1-99.4 143.7-146.5 309.8-136.6 476.2 1.9 32.4 5.9 64.8 12.2 97.1 5.4 27.6-13.2 55.4-41.5 62-28.2 6.7-55.5-10.4-60.9-38q-6.8-35.2-10.6-70.4c-21.8-202.8 31.2-407.1 152.3-582.3 272.4-394.1 808.2-510.6 1194.4-259.7 47.9 31.2 91.5 66.7 130.7 105.8 61.5 61.6 111.8 132.3 149.7 209.1z"/><path class="p" d="m1784.1 1122.4l126.3-218.8 215.6 114.7-37.9-141.5-215.6-114.7-126.3 218.8z"/><path class="q" d="m1812.9 1515c-272.5 394.1-808.3 510.5-1194.5 259.6-47.9-31.1-91.5-66.6-130.6-105.7-60.1-60.2-109.4-128.9-147-203.6l175.6 77c45.2 55.6 99.5 104.8 162.1 145.4 339.2 220.4 809.9 118.1 1049.2-228.1 99.4-143.7 146.6-309.8 136.6-476.2-1.8-32.4-5.9-64.8-12.1-97.1-5.4-27.7 13.1-55.4 41.4-62.1 28.3-6.6 55.6 10.4 60.9 38.1q6.8 35.2 10.7 70.4c21.7 202.8-31.2 407.1-152.3 582.3z"/></svg>