<svg version="1.2" xmlns="http://www.w3.org/2000/svg" viewBox="0 0 3710 2952" width="3710" height="2952"><defs><linearGradient id="P" gradientUnits="userSpaceOnUse"/><linearGradient id="g1" x1="1763.4" y1="2064.4" x2="2190.1" y2="1303.3" href="#P"><stop stop-color="#09005d"/><stop offset="1" stop-color="#1a0f91"/></linearGradient><linearGradient id="g2" x1="2347.7" y1="807.1" x2="2226.6" y2="2574.3" href="#P"><stop stop-color="#09005d"/><stop offset="1" stop-color="#1a0f91"/></linearGradient><linearGradient id="g3" x1="529.4" y1="2202.2" x2="3070.7" y2="2202.2" href="#P"><stop stop-color="#dae3fe"/><stop offset="1" stop-color="#e9effd"/></linearGradient><linearGradient id="g4" x1="1913.3" y1="1747.5" x2="1899.5" y2="2064.3" href="#P"><stop stop-color="#09005d"/><stop offset="1" stop-color="#1a0f91"/></linearGradient><linearGradient id="g5" x1="3041.7" y1="991.7" x2="2776.5" y2="1936.6" href="#P"><stop stop-color="#4f52ff"/><stop offset="1" stop-color="#4042e2"/></linearGradient><linearGradient id="g6" x1="2557.6" y1="1082.4" x2="2853.3" y2="1082.4" href="#P"><stop stop-color="#dae3fe"/><stop offset="1" stop-color="#e9effd"/></linearGradient><linearGradient id="g7" x1="2670.1" y1="1096.2" x2="2740.7" y2="1096.2" href="#P"><stop stop-color="#dae3fe"/><stop offset="1" stop-color="#e9effd"/></linearGradient><linearGradient id="g8" x1="2666.8" y1="1092.9" x2="2744" y2="1092.9" href="#P"><stop stop-color="#dae3fe"/><stop offset="1" stop-color="#e9effd"/></linearGradient><linearGradient id="g9" x1="2605.9" y1="1095.5" x2="2797.7" y2="1095.5" href="#P"><stop stop-color="#dae3fe"/><stop offset="1" stop-color="#e9effd"/></linearGradient><linearGradient id="g10" x1="2602.6" y1="1092.2" x2="2800.9" y2="1092.2" href="#P"><stop stop-color="#dae3fe"/><stop offset="1" stop-color="#e9effd"/></linearGradient><linearGradient id="g11" x1="2589.9" y1="1171" x2="2820.3" y2="1171" href="#P"><stop stop-color="#dae3fe"/><stop offset="1" stop-color="#e9effd"/></linearGradient><linearGradient id="g12" x1="2586.6" y1="1167.7" x2="2823.6" y2="1167.7" href="#P"><stop stop-color="#dae3fe"/><stop offset="1" stop-color="#e9effd"/></linearGradient><linearGradient id="g13" x1="2623.3" y1="1122.6" x2="2786.9" y2="1122.6" href="#P"><stop stop-color="#dae3fe"/><stop offset="1" stop-color="#e9effd"/></linearGradient><linearGradient id="g14" x1="2620" y1="1119.3" x2="2790.3" y2="1119.3" href="#P"><stop stop-color="#dae3fe"/><stop offset="1" stop-color="#e9effd"/></linearGradient><linearGradient id="g15" x1="2579.9" y1="1219.4" x2="2830.3" y2="1219.4" href="#P"><stop stop-color="#dae3fe"/><stop offset="1" stop-color="#e9effd"/></linearGradient><linearGradient id="g16" x1="2576.6" y1="1216.1" x2="2833.6" y2="1216.1" href="#P"><stop stop-color="#dae3fe"/><stop offset="1" stop-color="#e9effd"/></linearGradient><linearGradient id="g17" x1="2589.9" y1="1267.8" x2="2820.3" y2="1267.8" href="#P"><stop stop-color="#dae3fe"/><stop offset="1" stop-color="#e9effd"/></linearGradient><linearGradient id="g18" x1="2586.6" y1="1264.5" x2="2823.6" y2="1264.5" href="#P"><stop stop-color="#dae3fe"/><stop offset="1" stop-color="#e9effd"/></linearGradient><linearGradient id="g19" x1="2627.1" y1="1316.3" x2="2791.4" y2="1316.3" href="#P"><stop stop-color="#dae3fe"/><stop offset="1" stop-color="#e9effd"/></linearGradient><linearGradient id="g20" x1="2623.8" y1="1313" x2="2794.7" y2="1313" href="#P"><stop stop-color="#dae3fe"/><stop offset="1" stop-color="#e9effd"/></linearGradient><linearGradient id="g21" x1="1258" y1="1014.6" x2="1074.1" y2="1862" href="#P"><stop stop-color="#4f52ff"/><stop offset="1" stop-color="#4042e2"/></linearGradient><linearGradient id="g22" x1="909.1" y1="1154.5" x2="1087.1" y2="1154.5" href="#P"><stop stop-color="#dae3fe"/><stop offset="1" stop-color="#e9effd"/></linearGradient><linearGradient id="g23" x1="959.9" y1="1110.5" x2="975.5" y2="1110.5" href="#P"><stop stop-color="#dae3fe"/><stop offset="1" stop-color="#e9effd"/></linearGradient><linearGradient id="g24" x1="1019.3" y1="1110.5" x2="1034.9" y2="1110.5" href="#P"><stop stop-color="#dae3fe"/><stop offset="1" stop-color="#e9effd"/></linearGradient><linearGradient id="g25" x1="909.1" y1="1209.2" x2="1083" y2="1209.2" href="#P"><stop stop-color="#dae3fe"/><stop offset="1" stop-color="#e9effd"/></linearGradient><linearGradient id="g26" x1="901.7" y1="1105" x2="1093.1" y2="1105" href="#P"><stop stop-color="#dae3fe"/><stop offset="1" stop-color="#e9effd"/></linearGradient><linearGradient id="g27" x1="828.5" y1="1053.3" x2="921.9" y2="1053.3" href="#P"><stop stop-color="#dae3fe"/><stop offset="1" stop-color="#e9effd"/></linearGradient><linearGradient id="g28" x1="3131.4" y1="2240.9" x2="2971.9" y2="2994.9" href="#P"><stop stop-color="#ff928e"/><stop offset="1" stop-color="#fe7062"/></linearGradient><linearGradient id="g29" x1="2940.4" y1="1765.6" x2="2926.6" y2="2453.6" href="#P"><stop stop-color="#ff928e"/><stop offset="1" stop-color="#fe7062"/></linearGradient><linearGradient id="g30" x1="2681.5" y1="1040.1" x2="2107.8" y2="3676.7" href="#P"><stop stop-color="#4f52ff"/><stop offset="1" stop-color="#4042e2"/></linearGradient><linearGradient id="g31" x1="2479.6" y1="1230.2" x2="2115.9" y2="1969.6" href="#P"><stop stop-color="#ff928e"/><stop offset="1" stop-color="#fe7062"/></linearGradient><linearGradient id="g32" x1="1567.9" y1="1519.8" x2="1659" y2="1273.2" href="#P"><stop stop-color="#febbba"/><stop offset="1" stop-color="#ff928e"/></linearGradient><linearGradient id="g33" x1="1977" y1="1346.5" x2="1581.8" y2="1511.8" href="#P"><stop stop-color="#febbba"/><stop offset="1" stop-color="#ff928e"/></linearGradient><linearGradient id="g34" x1="1903.8" y1="848.8" x2="2188.7" y2="1516.2" href="#P"><stop stop-color="#09005d"/><stop offset="1" stop-color="#1a0f91"/></linearGradient><linearGradient id="g35" x1="2037.4" y1="1161.5" x2="1495.6" y2="1388.1" href="#P"><stop stop-color="#febbba"/><stop offset="1" stop-color="#ff928e"/></linearGradient><linearGradient id="g36" x1="2292.3" y1="1212.8" x2="1955.1" y2="1898.4" href="#P"><stop stop-color="#ff928e"/><stop offset="1" stop-color="#fe7062"/></linearGradient><linearGradient id="g37" x1="1699" y1="1450.4" x2="1812" y2="1857.4" href="#P"><stop stop-color="#e1473d"/><stop offset="1" stop-color="#e9605a"/></linearGradient><linearGradient id="g38" x1="1597.7" y1="1662.5" x2="1769" y2="2113.2" href="#P"><stop stop-color="#febbba"/><stop offset="1" stop-color="#ff928e"/></linearGradient><linearGradient id="g39" x1="1719.3" y1="1561.1" x2="1910.2" y2="2063.3" href="#P"><stop stop-color="#febbba"/><stop offset="1" stop-color="#ff928e"/></linearGradient><linearGradient id="g40" x1="2063.7" y1="1804.5" x2="1984.2" y2="1906.8" href="#P"><stop stop-color="#09005d"/><stop offset="1" stop-color="#1a0f91"/></linearGradient><linearGradient id="g41" x1="2114.7" y1="1851.2" x2="2036.3" y2="1952.3" href="#P"><stop stop-color="#09005d"/><stop offset="1" stop-color="#1a0f91"/></linearGradient><linearGradient id="g42" x1="2436.6" y1="1413.6" x2="2300.5" y2="1917.2" href="#P"><stop stop-color="#09005d"/><stop offset="1" stop-color="#1a0f91"/></linearGradient><linearGradient id="g43" x1="2269.1" y1="1597.2" x2="2352.7" y2="2111.2" href="#P"><stop stop-color="#09005d"/><stop offset="1" stop-color="#1a0f91"/></linearGradient><linearGradient id="g44" x1="2073.1" y1="1909.8" x2="2311.1" y2="2065.8" href="#P"><stop stop-color="#09005d"/><stop offset="1" stop-color="#1a0f91"/></linearGradient><linearGradient id="g45" x1="1623.1" y1="1382.8" x2="1873.4" y2="1142.2" href="#P"><stop stop-color="#4f52ff"/><stop offset="1" stop-color="#4042e2"/></linearGradient><linearGradient id="g46" x1="1941.6" y1="1062.4" x2="1842.8" y2="1268.6" href="#P"><stop stop-color="#4f52ff"/><stop offset="1" stop-color="#4042e2"/></linearGradient><linearGradient id="g47" x1="1991.7" y1="1018.4" x2="1917.3" y2="1152.8" href="#P"><stop stop-color="#4f52ff"/><stop offset="1" stop-color="#4042e2"/></linearGradient><linearGradient id="g48" x1="1805.7" y1="1003.3" x2="2165.4" y2="592.3" href="#P"><stop stop-color="#4f52ff"/><stop offset="1" stop-color="#4042e2"/></linearGradient></defs><style>.a{fill:#91b3fa}.b{opacity:.4;fill:#fff}.c{fill:#bdd0fb}.d{fill:url(#g1)}.e{fill:url(#g2)}.f{fill:#fbe446}.g{fill:url(#g3)}.h{fill:url(#g4)}.i{fill:url(#g5)}.j{fill:url(#g6)}.k{fill:url(#g7)}.l{fill:url(#g8)}.m{fill:url(#g9)}.n{fill:url(#g10)}.o{fill:url(#g11)}.p{fill:url(#g12)}.q{fill:url(#g13)}.r{fill:url(#g14)}.s{fill:url(#g15)}.t{fill:url(#g16)}.u{fill:url(#g17)}.v{fill:url(#g18)}.w{fill:url(#g19)}.x{fill:url(#g20)}.y{fill:url(#g21)}.z{fill:url(#g22)}.A{fill:url(#g23)}.B{fill:url(#g24)}.C{fill:url(#g25)}.D{fill:url(#g26)}.E{fill:url(#g27)}.F{fill:url(#g28)}.G{fill:#fff}.H{fill:url(#g29)}.I{fill:url(#g30)}.J{fill:url(#g31)}.K{fill:url(#g32)}.L{fill:url(#g33)}.M{fill:url(#g34)}.N{fill:url(#g35)}.O{fill:url(#g36)}.P{fill:url(#g37)}.Q{fill:url(#g38)}.R{fill:url(#g39)}.S{fill:url(#g40)}.T{fill:url(#g41)}.U{fill:url(#g42)}.V{fill:url(#g43)}.W{fill:url(#g44)}.X{fill:url(#g45)}.Y{fill:#3840f7}.Z{fill:url(#g46)}.a0{fill:url(#g47)}.a1{fill:url(#g48)}</style><path class="a" d="m3109.1 398.8c-4.4-14.9-25.8-13.9-28.8 1.3-29 146.7-117 528.9-281.9 741-268.7 345.5-423.1 884.2-213.4 1140.4 0 0 1007.4-268.6 524.1-1882.7z"/><path class="b" d="m3096.9 605.8c0 4.7-0.4 8.6-0.6 12.8l-0.9 12.4-2.1 24.7c-1.4 16.4-3.2 32.9-4.9 49.3-3.7 32.9-7.7 65.7-12 98.5-8.8 65.5-19.3 130.8-30.8 196-11.5 65.1-24.7 129.9-39.4 194.4-14.6 64.5-30.2 128.9-47.9 192.6-35.2 127.6-77.3 253.4-128.2 375.7-26 60.9-53.7 121.2-84.8 179.7-31.5 58.2-65.5 115.1-103.5 169.4-0.8 1.1-2.5 1.4-3.6 0.6-1.2-0.8-1.5-2.4-0.7-3.6 35.7-55.4 68.4-112.7 98.2-171.4 30-58.7 56.6-119 81.5-180 24.9-61 47.4-123 68.4-185.4 21-62.5 39.4-125.8 57.5-189.2 35.6-126.9 64.4-255.8 89.6-385.2 12.5-64.8 23.6-129.8 33.6-195.1 5.1-32.6 9.9-65.2 14.2-97.9l6.2-49.1 2.8-24.6 1.3-12.3c0.3-4 0.7-8.3 0.9-11.9v-0.6c0.1-1.4 1.3-2.5 2.7-2.4 1.4 0 2.5 1.2 2.5 2.6z"/><path class="c" d="m2586.2 112c-8.2-12.3-27.5-5.6-26.1 9.1 13.4 142.4 37 516.9-56.4 756.5-152.1 390.1-146.8 926.2 115.4 1104 0 0 850.6-521.2-32.9-1869.6z"/><path class="b" d="m2631.5 305.2c1.3 4.3 2 8 3 11.9l2.5 11.6 4.9 23.2c3.1 15.5 6 31.1 8.9 46.6 5.6 31.2 10.9 62.4 15.9 93.6 9.8 62.5 18 125.2 25.2 188.1 7.3 62.9 12.8 125.9 17 189.1 4.1 63.2 7.4 126.4 8.5 189.7 2.6 126.6-1.7 253.5-15 379.5-7.3 63-16.2 125.8-28.8 187.9-13 62-28.7 123.5-48.8 183.6-0.4 1.3-1.9 2-3.2 1.6-1.3-0.5-2-1.8-1.6-3.1v-0.1c17.6-60.6 32-122 43.3-184 11.5-62 19.3-124.6 25.6-187.3 6.2-62.7 9.8-125.6 12.1-188.6 2.2-63.1 1.8-126.1 1.1-189.2-2-126.1-10.8-252.1-22.9-377.7-6.2-62.8-13.7-125.5-22.3-188.1-4.3-31.2-8.8-62.5-13.7-93.7l-7.8-46.7-4.1-23.3-2.2-11.6c-0.7-3.8-1.5-7.9-2.3-11.2l-0.2-0.5c-0.3-1.4 0.5-2.7 1.9-3.1 1.3-0.3 2.6 0.5 3 1.8z"/><path class="d" d="m1596.3 2228.2l-56.4 505.5h654l-85.2-505.5z"/><path class="e" d="m458.3 946.5v1191.4c0 98 78.1 178.2 176.1 180.7 435.2 11.2 1957.2 38.4 2371.4 32.3 71.2-1 128.9-58 130.9-129.2 8-276.8 21-942.3-27-1251.3-10.1-65.1-65.1-113.8-130.9-115.9-364.6-11.6-1978-48.7-2392-39.4-71.4 1.6-128.5 60-128.5 131.4z"/><path class="f" d="m533.1 940.7v1131.9c0 57.2 45.9 103.9 103.2 104.7l2309.9 28.6c56.7 0.8 103.2-44.8 103.4-101.6l3.9-1121.8c0.2-40.5-32.2-73.8-72.7-74.8l-2365-47.7c-45.3-1.1-82.7 35.3-82.7 80.7z"/><path class="g" d="m3067 2252.8q0 0 0 0l-2534-43.2c-2-0.1-3.6-1.7-3.6-3.8 0-2 1.7-3.7 3.8-3.6l2533.9 43.1c2 0.1 3.7 1.8 3.6 3.8 0 2-1.6 3.7-3.7 3.7z"/><path class="h" d="m2334.8 2837.1h-957.1c-26 0-45.6-18.5-40.5-38.4l12.2-48.5c3.7-14.6 19.8-25.4 38.9-26l922.7-28.8c19.9-0.6 37.6 10 41.9 25.2l22.2 77.4c5.7 20.1-13.9 39.1-40.3 39.1z"/><path class="i" d="m2918.4 1217.8c0 117.8-95.6 213.4-213.4 213.4-117.8 0-213.3-95.6-213.3-213.4 0-117.8 95.5-213.3 213.3-213.3 117.8 0 213.4 95.5 213.4 213.3z"/><path fill-rule="evenodd" class="j" d="m2706.5 1358.8q-3.5 0-7.1-0.1c-81.4-3.6-145-68.5-141.6-144.6 1.6-37 18.6-71.1 47.8-95.9 29-24.7 66.6-37.3 105.9-35.6 81.4 3.6 145 68.4 141.7 144.5-1.7 37-18.6 71.1-47.8 96-27.3 23.1-62.1 35.7-98.9 35.7zm-2.1-256.9c-32.1 0-62.5 10.9-86.2 31.1-25 21.3-39.6 50.4-41 82-2.8 65.3 52.4 121.1 123.1 124.2 34.3 1.5 67.2-9.5 92.4-31 25.1-21.3 39.6-50.4 41-81.9 2.8-65.4-52.4-121.1-123.1-124.3q-3.1-0.1-6.2-0.1z"/><path fill-rule="evenodd" class="k" d="m2740.7 1221.2c0 22.7-1.5 45.4-5.5 67.7-1 5.6-2.2 11.1-3.6 16.6-1.4 5.5-3 11-5 16.3-1.9 5.3-4.3 10.6-7.4 15.4-1.6 2.3-3.3 4.6-5.6 6.5-1.1 0.9-2.3 1.7-3.6 2.3-1.3 0.6-2.8 1-4.3 1-1.4 0.1-2.9-0.2-4.3-0.7-1.3-0.6-2.6-1.4-3.7-2.3-2.3-1.8-4.1-4-5.7-6.4-3.2-4.8-5.5-10-7.5-15.3-2-5.3-3.6-10.7-5.1-16.2-1.4-5.5-2.5-11.1-3.6-16.7-2-11.1-3.4-22.4-4.3-33.7-0.9-11.3-1.4-22.6-1.4-33.9-0.1-5.7 0.1-11.4 0.3-17q0.3-8.5 0.9-17c0.9-11.3 2.1-22.6 4-33.7 0.9-5.6 2-11.2 3.3-16.7 1.3-5.5 2.8-11 4.7-16.3 0.9-2.7 2-5.4 3.2-7.9 1.1-2.6 2.5-5.2 4-7.5 1.6-2.4 3.3-4.7 5.6-6.5 1.1-0.9 2.3-1.7 3.7-2.2 1.3-0.6 2.7-0.8 4.2-0.8 1.4 0.1 2.9 0.4 4.2 1 1.3 0.6 2.5 1.4 3.6 2.3 2.2 1.8 4.1 4 5.7 6.3 3.2 4.7 5.7 9.9 7.8 15.1 2.1 5.3 3.8 10.7 5.3 16.2q2.3 8.2 3.9 16.5c4.4 22.3 6.2 45 6.2 67.6zm-1.6 0c0-11.2-0.4-22.5-1.4-33.8-0.9-11.2-2.3-22.4-4.4-33.5-1-5.6-2.2-11.1-3.7-16.5-1.4-5.5-3.1-10.9-5.1-16.1-2-5.3-4.4-10.4-7.6-15.1-1.5-2.3-3.3-4.5-5.5-6.3-1-0.9-2.2-1.6-3.4-2.2-1.3-0.6-2.6-0.9-4-1-1.4 0-2.8 0.3-4 0.8-1.3 0.5-2.5 1.3-3.6 2.1-2.1 1.8-3.8 4.1-5.3 6.4-1.5 2.4-2.8 4.9-3.9 7.5-1.2 2.5-2.2 5.2-3.1 7.8-1.8 5.4-3.3 10.8-4.5 16.3-1.2 5.5-2.3 11.1-3.1 16.7-1.8 11.1-2.9 22.4-3.6 33.6-0.7 11.3-0.9 22.6-0.9 33.9-0.1 11.3 0.3 22.5 1.2 33.8 0.8 11.3 2.1 22.5 4 33.6 1 5.5 2.1 11.1 3.5 16.5 1.3 5.5 2.9 10.9 4.8 16.2 2 5.3 4.3 10.5 7.3 15.1 1.6 2.3 3.4 4.5 5.5 6.3 1.1 0.8 2.2 1.6 3.5 2.1 1.2 0.5 2.6 0.8 3.9 0.8 1.4-0.1 2.7-0.4 3.9-1 1.2-0.6 2.4-1.4 3.4-2.2 2.1-1.8 3.8-4.1 5.4-6.4 3-4.7 5.2-9.9 7.2-15.2 1.9-5.3 3.4-10.7 4.8-16.2 1.3-5.4 2.4-11 3.4-16.5 1.9-11.1 3.2-22.4 4-33.6 0.9-11.3 1.3-22.6 1.3-33.9z"/><path fill-rule="evenodd" class="l" d="m2705.4 1350.4c-1.7 0-3.5-0.4-5.2-1.1-1.5-0.6-3-1.5-4.5-2.7-2.3-1.8-4.3-4.1-6.4-7.1-2.9-4.4-5.4-9.4-7.9-16-1.9-5-3.6-10.5-5.1-16.6-1.4-5.3-2.6-10.8-3.7-16.9-1.9-10.7-3.4-21.8-4.4-34-0.9-11.1-1.4-22.6-1.4-34.2-0.1-6.1 0.1-12.1 0.3-17.1 0.2-5.8 0.5-11.5 0.9-17.1 1-12.3 2.3-23.4 4-34.1 1-6 2.1-11.6 3.4-16.9 1.4-6.2 3-11.6 4.8-16.6 1.1-3.1 2.1-5.8 3.3-8.2 1.3-3 2.7-5.6 4.3-7.9 2-3.2 4-5.5 6.2-7.3q2.2-1.8 4.6-2.7c1.7-0.7 3.6-1 5.5-1 1.8 0.1 3.6 0.5 5.4 1.3 1.5 0.6 2.9 1.5 4.4 2.7 2.2 1.8 4.2 4.1 6.3 7 2.9 4.3 5.5 9.3 8.1 15.8 2 5 3.8 10.4 5.5 16.5 1.5 5.3 2.8 10.8 4 16.8 4.1 21.1 6.2 43.4 6.2 68.2 0 25-1.8 47.3-5.6 68.3-1.1 6-2.3 11.5-3.6 16.9-1.6 6.1-3.2 11.5-5.1 16.6-2.4 6.6-4.9 11.6-7.7 16-2.1 3.1-4 5.3-6.2 7.2-1.5 1.2-2.9 2.2-4.4 2.8q-2.8 1.3-5.6 1.3-0.2 0.1-0.4 0.1zm-1.7-250.4q-1.3 0-2.5 0.5-1.3 0.6-2.7 1.7c-1.6 1.3-3.1 3.1-4.7 5.6-1.2 2-2.5 4.3-3.6 7-1.1 2.3-2 4.8-3 7.6-1.6 4.8-3.1 10-4.4 16-1.2 5.1-2.2 10.5-3.1 16.4-1.6 10.4-2.7 21.3-3.5 33.3-0.7 10.3-1 21.3-0.9 33.7-0.1 11.4 0.3 22.7 1.1 33.6 0.9 11.9 2.2 22.8 4.1 33.2 1 5.9 2.1 11.2 3.4 16.4 1.4 5.9 3 11 4.7 15.8 2.3 6 4.5 10.6 7 14.4 1.6 2.4 3.1 4.2 4.8 5.5q1.3 1.1 2.6 1.6c0.9 0.4 1.8 0.5 2.6 0.6q1.3-0.1 2.6-0.7 1.3-0.6 2.7-1.8c1.6-1.3 3.1-3.1 4.7-5.6 2.5-3.8 4.7-8.5 6.9-14.5 1.7-4.8 3.2-10 4.7-15.9 1.2-5.1 2.3-10.4 3.3-16.3 1.8-10.3 3.1-21.2 4-33.3 0.9-10.8 1.3-22.1 1.3-33.6 0-11.4-0.4-22.6-1.3-33.5-1-12-2.5-22.8-4.4-33.2-1.1-5.8-2.3-11.1-3.6-16.3-1.6-5.9-3.2-11-5.1-15.8-2.3-5.9-4.6-10.5-7.2-14.3-1.6-2.5-3.2-4.2-4.9-5.6q-1.4-1.2-2.7-1.8-1.4-0.6-2.7-0.7-0.1 0-0.2 0z"/><path fill-rule="evenodd" class="m" d="m2797.7 1221.2c-0.1 14.6-2 29.2-5.9 43.3-3.9 14-9.9 27.5-18 39.6-4 6.1-8.6 11.8-13.8 17-5.1 5.1-10.8 9.8-16.9 13.7-6.2 3.8-12.8 6.9-19.8 9-6.9 2.1-14.2 3.2-21.5 3.3-7.2 0-14.5-1.1-21.5-3.2-6.9-2.1-13.6-5.2-19.8-9.1-6.1-3.9-11.8-8.5-16.9-13.7-5.2-5.2-9.8-10.9-13.8-16.9-8.1-12.1-14.1-25.6-18.1-39.7-2-7-3.4-14.2-4.4-21.4-0.9-7.3-1.4-14.6-1.4-21.9 0-7.3 0.5-14.6 1.4-21.8 1-7.2 2.5-14.4 4.4-21.4 4-14.1 10-27.6 18.1-39.7 4.1-6 8.7-11.7 13.8-16.9 5.2-5.1 10.8-9.8 17-13.6 6.1-3.9 12.8-7 19.8-9.1 6.9-2.1 14.2-3.2 21.4-3.2 7.3 0 14.5 1.1 21.5 3.2 6.9 2.2 13.6 5.2 19.7 9.1 6.2 3.9 11.9 8.5 17 13.7 5.1 5.1 9.7 10.8 13.7 16.9 8.2 12.1 14.1 25.6 18.1 39.6 3.9 14.1 5.8 28.7 5.9 43.2zm-2 0c0-14.4-1.8-28.8-5.6-42.7-3.8-13.9-9.5-27.4-17.4-39.4-4-6.1-8.4-11.7-13.5-16.9-5-5.2-10.5-9.8-16.6-13.7-6.1-3.9-12.6-7-19.5-9.1-6.9-2.1-14.1-3.2-21.3-3.2-7.2 0-14.3 1.2-21.2 3.3-6.9 2.1-13.5 5.2-19.5 9-6.1 3.9-11.6 8.6-16.6 13.7-5.1 5.2-9.5 10.9-13.5 16.9-7.9 12.1-13.6 25.5-17.4 39.4-1.9 6.9-3.2 14-4.2 21.2-0.9 7.1-1.4 14.3-1.4 21.5 0.1 7.2 0.5 14.4 1.4 21.6 1 7.1 2.4 14.2 4.2 21.2 3.8 13.9 9.6 27.3 17.5 39.3 3.9 6 8.4 11.7 13.4 16.9 5 5.1 10.6 9.8 16.6 13.7 6.1 3.8 12.6 6.9 19.5 9 6.9 2.1 14 3.2 21.2 3.3 7.2-0.1 14.4-1.2 21.2-3.3 6.9-2.1 13.5-5.2 19.5-9 6.1-3.9 11.7-8.5 16.7-13.7 5-5.1 9.5-10.8 13.4-16.8 7.9-12.1 13.7-25.5 17.5-39.4 3.8-13.9 5.6-28.3 5.6-42.8z"/><path fill-rule="evenodd" class="n" d="m2701.8 1350.4c-7.5 0-15.1-1.2-22.4-3.4-7.1-2.1-14-5.3-20.6-9.4-6.2-3.9-12.1-8.7-17.6-14.2-5.1-5.1-9.9-11-14.2-17.4-8-12-14.2-25.7-18.5-40.6-1.9-7.1-3.4-14.5-4.4-21.9-1-7.3-1.5-14.7-1.5-22.2 0-7.6 0.5-15.1 1.5-22.3 1-7.5 2.5-14.8 4.5-21.9 4.2-14.9 10.4-28.6 18.5-40.6 4.3-6.4 9-12.2 14.2-17.4 5.4-5.5 11.4-10.2 17.5-14.1 6.6-4.1 13.5-7.3 20.6-9.4 7.3-2.2 14.9-3.4 22.4-3.4 7.6 0 15.1 1.2 22.4 3.4 7.2 2.1 14.1 5.3 20.6 9.4 6.2 3.9 12.1 8.6 17.5 14.1 5.1 5.2 9.9 11.1 14.2 17.4 8 12.1 14.2 25.7 18.5 40.6 3.8 14 5.9 28.8 5.9 44.1v0.1c0 15.2-2 30.1-5.9 44.1-4.2 14.9-10.4 28.5-18.5 40.6-4.2 6.4-9 12.2-14.1 17.4-5.5 5.5-11.4 10.2-17.6 14.2-6.5 4.1-13.4 7.3-20.5 9.4-7.4 2.2-14.9 3.3-22.5 3.4zm0-250.9c-6.8 0-13.6 1.1-20.3 3.1-6.4 2-12.7 4.9-18.7 8.7-5.5 3.6-10.9 8-16 13.2-4.7 4.9-9.1 10.4-13 16.4-7.4 11.4-13.1 24.3-17 38.5-1.8 6.5-3.2 13.5-4.1 20.7-0.9 6.9-1.4 14-1.4 21.1 0 7.2 0.5 14.3 1.4 21.2 0.9 7.2 2.3 14.1 4.1 20.7 3.9 14.2 9.6 27.1 17 38.4 3.9 6 8.3 11.5 13.1 16.4 5 5.2 10.4 9.6 16 13.2 5.9 3.8 12.2 6.7 18.7 8.6 6.6 2.1 13.4 3.1 20.2 3.2 6.8-0.1 13.7-1.1 20.3-3.1 6.4-2 12.7-4.9 18.7-8.7 5.5-3.5 10.9-8 16-13.2 4.8-4.8 9.2-10.4 13.1-16.3 7.4-11.4 13.1-24.3 17-38.5 3.7-13.2 5.5-27.3 5.6-41.9-0.1-14.5-1.9-28.6-5.5-41.9-3.9-14.2-9.6-27.1-17.1-38.4-3.9-6-8.3-11.5-13-16.4-5.1-5.2-10.5-9.6-16.1-13.2-6-3.8-12.3-6.7-18.7-8.7-6.6-2-13.4-3.1-20.3-3.1z"/><path class="o" d="m2590 1171.5l28.8-0.3 28.8-0.1 57.5-0.1 57.6 0.1 28.8 0.1 28.7 0.3q0.1 0 0.1 0.1c0 0 0 0.1-0.1 0.1l-28.7 0.2-28.8 0.2-57.6 0.1-57.5-0.1-28.8-0.2-28.8-0.2c-0.1 0-0.1-0.1-0.1-0.1q0-0.2 0.1-0.1z"/><path class="p" d="m2705.1 1175.5l-86.3-0.3-30.2-0.2-2-2v-1.5l0.1-3.2 3.3-0.1 57.5-0.4 57.6-0.1 86.4 0.2 32 0.3 0.1 6.7-3.4 0.1-57.5 0.4z"/><path class="q" d="m2623.4 1123.1c6.8-0.1 13.6-0.2 20.4-0.3l20.4-0.1c6.9-0.1 13.7-0.1 20.5-0.1h20.4l40.9 0.1 20.4 0.1c6.8 0.1 13.6 0.2 20.4 0.3 0.1 0 0.1 0 0.1 0q0 0.2-0.1 0.2c-6.8 0.1-13.6 0.1-20.4 0.2l-20.4 0.2-40.9 0.1-20.4-0.1c-6.8 0-13.6 0-20.5 0l-20.4-0.2c-6.8 0-13.6-0.1-20.4-0.2q-0.1 0-0.1-0.1 0-0.1 0.1-0.1z"/><path class="r" d="m2705.1 1127.1l-25.7-0.1q-7.6 0-15.2 0l-27.2-0.2q-6.9-0.1-13.7-0.2h-3.2l-0.1-6.7 3.3-0.1q6.6-0.1 13.2-0.2l27.7-0.2q7.2-0.1 14.4-0.1h26.5l68.8 0.3q6.5 0.1 13 0.2l3.4 0.1-0.2 6.6-3.3 0.1c-4.4 0-9 0.1-13.5 0.1l-27.3 0.3z"/><path class="s" d="m2580 1219.8l31.3-0.2 31.2-0.1 62.6-0.1 62.6 0.1 31.3 0.1 31.2 0.3q0.1 0 0.1 0.1c0 0 0 0.1-0.1 0.1l-31.2 0.2-31.3 0.2-62.6 0.1-62.6-0.1-31.2-0.2-31.3-0.2q-0.1 0-0.1-0.1 0-0.1 0.1-0.2z"/><path class="t" d="m2705.1 1223.9l-93.8-0.3-34.6-0.2-0.1-6.7 3.4-0.2 62.5-0.3 62.6-0.1 93.9 0.2 32.6 0.3 2 2-0.1 4.7-3.3 0.1-62.5 0.4z"/><path class="u" d="m2590 1268.2l28.8-0.2 28.8-0.1 57.5-0.1 57.6 0.1 28.8 0.1 28.7 0.3c0.1 0 0.1 0 0.1 0q0 0.2-0.1 0.1l-28.7 0.3-28.8 0.1-57.6 0.2-57.5-0.1-28.8-0.2-28.8-0.2q-0.1 0-0.1-0.1 0-0.2 0.1-0.2z"/><path class="v" d="m2705.1 1272.3l-86.3-0.3-30.2-0.2-2-2v-1.5-3.2l3.4-0.2 57.5-0.3 57.6-0.1 86.4 0.2 32 0.3 0.1 6.7-3.4 0.1-57.5 0.3z"/><path class="w" d="m2791 1317.2h-163.5c-0.2 0-0.4-0.2-0.4-0.4 0-0.3 0.2-0.5 0.4-0.5h163.5c0.2 0 0.4 0.2 0.4 0.5 0 0.2-0.2 0.4-0.4 0.4z"/><path class="x" d="m2791 1320.5h-163.5c-2.1 0-3.7-1.7-3.7-3.7 0-2.1 1.6-3.8 3.7-3.8h163.5c2 0 3.7 1.7 3.7 3.8 0 2-1.7 3.7-3.7 3.7z"/><path class="y" d="m1176.4 1176.5c0 118.3-96 214.3-214.3 214.3-118.3 0-214.3-96-214.3-214.3 0-118.4 96-214.3 214.3-214.3 118.3 0 214.3 95.9 214.3 214.3z"/><path class="z" d="m1079.3 1170.1h-162.4c-4.3 0-7.8-3.5-7.8-7.8 0-4.3 3.5-7.8 7.8-7.8h162.4c4.3 0 7.8 3.5 7.8 7.8 0 4.3-3.5 7.8-7.8 7.8z"/><path class="A" d="m967.7 1274.9c-4.3 0-7.8-5.7-7.8-12.8v-138.8c0-7.1 3.5-12.8 7.8-12.8 4.3 0 7.8 5.7 7.8 12.8v138.8c0 7.1-3.5 12.8-7.8 12.8z"/><path class="B" d="m1027.1 1274.9c-4.3 0-7.8-5.7-7.8-12.8v-138.8c0-7.1 3.5-12.8 7.8-12.8 4.3 0 7.8 5.7 7.8 12.8v138.8c0 7.1-3.5 12.8-7.8 12.8z"/><path class="C" d="m1074.3 1224.8h-156.5c-4.8 0-8.7-3.5-8.7-7.8 0-4.4 3.9-7.8 8.7-7.8h156.5c4.8 0 8.7 3.4 8.7 7.8 0 4.3-3.9 7.8-8.7 7.8z"/><path fill-rule="evenodd" class="D" d="m1083 1279.7h-171.2c-5.6 0-10.1-4.5-10.1-10.1v-154.5c0-5.6 4.5-10.1 10.1-10.1h171.2c5.5 0 10.1 4.5 10.1 10.1v154.5c0 5.6-4.6 10.1-10.1 10.1zm-161.1-20.2h151v-134.3h-151z"/><path fill-rule="evenodd" class="E" d="m911.8 1279.7h-73.2c-2.8 0-5.5-1.2-7.4-3.3-2-2.1-2.9-4.9-2.6-7.8l19.8-206.2c0.5-5.2 4.8-9.1 10-9.1h35.4c5.2 0 9.6 4 10 9.2l18.1 206.2c0.2 2.8-0.7 5.6-2.6 7.7-2 2.1-4.7 3.3-7.5 3.3zm-62.1-20.2h51.1l-16.3-186h-16.9z"/><path class="F" d="m2384.1 2821.1v-372.7c0-48.9 39.4-88.8 88.4-89.3 146.9-1.6 449.9-1.7 697.9 19.2 33.8 2.9 60.1 30.6 61.4 64.5l23.1 360.3c1.8 47.7-35.9 87.5-83.6 88.4l-701.8 13.3c-46.9 0.9-85.4-36.8-85.4-83.7z"/><path class="b" d="m2785.3 2676.4l100.8 10.9c14.1 1.5 26.2-10.1 25.1-24.3l-22-300.1c-42.3-1.3-84-2.3-124.2-3v293.9c0 11.6 8.7 21.3 20.3 22.6z"/><path class="G" d="m2826.6 2624.4c0.3 5.4 4.8 9.5 10.1 9.5q0.3 0 0.6 0c5.6-0.3 9.9-5.1 9.6-10.7l-15.3-261.9q-10.2-0.2-20.3-0.4z"/><path class="H" d="m2501.9 2320.8v-261.7c0-34.4 27.7-62.4 62.1-62.8 103.2-1.1 316-1.1 490.1 13.5 23.8 2 42.3 21.5 43.1 45.4l16.3 253c1.2 33.4-25.3 61.4-58.7 62l-492.9 9.4c-32.9 0.6-60-25.9-60-58.8z"/><path class="b" d="m2783.6 2219.2l70.9 7.6c9.9 1.1 18.4-7.1 17.6-17l-15.5-210.7c-29.7-1-59-1.7-87.2-2.2v206.4c0 8.2 6.1 15 14.2 15.9z"/><path class="G" d="m2812.7 2182.7c0.2 3.7 3.3 6.7 7.1 6.7q0.2 0 0.4 0c3.9-0.3 6.9-3.6 6.7-7.6l-10.7-183.9q-7.2-0.2-14.3-0.3z"/><path fill-rule="evenodd" class="I" d="m2375.3 1832.1l-38.1 63.3c-12.8 21.2-37.6 32-61.7 26.8l-57.4-12.2c-15.5-3.3-31.5 1.3-43.1 12.2-29.2 27.2-61.1 50.6-95 70.1-13.8 7.9-23 21.9-24.4 37.7l-5.2 58.5c-2.2 24.6-19.7 45.1-43.7 51.1l-71.7 17.8c-24 6-49.2-3.9-62.6-24.7l-32-49.2c-8.6-13.3-23.3-21.4-39.2-21.9-39-1.4-78.2-7.2-116.7-17.5-15.3-4.2-31.7-0.8-43.9 9.4l-44.9 37.7c-19 15.8-45.9 17.9-67.1 5.2l-63.3-38.1c-21.2-12.8-32-37.6-26.8-61.8l12.2-57.3c3.3-15.5-1.3-31.6-12.2-43.2-27.2-29.1-50.6-61.1-70.1-95-7.9-13.7-21.9-22.9-37.7-24.3l-58.5-5.2c-24.6-2.2-45.1-19.7-51.1-43.8l-17.8-71.6c-6-24 3.9-49.2 24.7-62.6l49.2-32c13.3-8.6 21.4-23.3 21.9-39.2 1.4-39 7.2-78.2 17.5-116.7 4.2-15.4 0.8-31.7-9.4-43.9l-37.7-44.9c-15.8-19-17.9-45.9-5.2-67.1l38.1-63.3c12.8-21.2 37.6-32 61.8-26.8l57.3 12.2c15.5 3.3 31.6-1.4 43.1-12.2 29.2-27.2 61.1-50.6 95-70.1 13.8-7.9 23-21.9 24.4-37.7l5.2-58.5c2.2-24.6 19.7-45.2 43.8-51.1l71.6-17.8c24-6 49.2 3.9 62.6 24.7l32 49.2c8.6 13.3 23.3 21.4 39.2 21.9 39 1.4 78.2 7.1 116.7 17.5 15.4 4.1 31.7 0.7 43.9-9.4l44.9-37.7c19-15.9 45.9-17.9 67.1-5.2l63.3 38.1c21.2 12.7 32 37.5 26.8 61.7l-12.2 57.4c-3.3 15.5 1.4 31.5 12.2 43.1 27.2 29.2 50.6 61.1 70.1 95 7.9 13.8 21.9 23 37.7 24.4l58.5 5.2c24.6 2.2 45.2 19.7 51.1 43.7l17.8 71.7c6 24-3.9 49.2-24.7 62.6l-49.2 32c-13.3 8.6-21.4 23.3-21.9 39.2-1.4 39-7.1 78.2-17.5 116.7-4.1 15.3-0.7 31.7 9.4 43.8l37.7 45c15.8 19 17.9 45.9 5.2 67.1zm-166.8-107.8c101.3-214.7 9.3-470.8-205.3-572.1-214.7-101.3-470.8-9.3-572.1 205.3-101.2 214.7-9.3 470.8 205.3 572.1 214.7 101.2 470.8 9.3 572.1-205.3z"/><path class="J" d="m1563.7 1421.5c0 0 184.3-46.2 379.2-18.3 54.8 7.8 103.3 39.7 132.9 86.5 53.3 84.4 128.6 234.7 112.7 391.4l-83.6 20.7c0 0-57.9-186-122.9-261.7 0 0-77.1 175.6-73.2 272.1q0.2 4.1 0.5 8c8.9 94.3-369.9 17.6-369.9 17.6z"/><path class="K" d="m1763 1264.1l-39.3 125c-3.6 11.6 0 24.1 9.1 31.1 21 16.2 62.6 42 113.3 41.2 9.3-0.1 17.1-8 17.8-17.8l13.9-209z"/><path class="L" d="m1915 1127c0 0 15.2 98.5 5.6 145.5-9.6 47.1-7.5 79.8-63.6 75.1-56-4.8-94.2-43.4-106.5-96 0 0-19.7-81.3-3.4-108.2 16.2-26.8 167.9-16.4 167.9-16.4z"/><path class="M" d="m1777.5 1223.2l6.8 1.8c0 0-12.9-64.6 14.3-68.3 27.2-3.6 129.6 2.1 159.7-26.9 28.9-27.9 22.2-75.6-1.6-94.7-1.6-1.2-3.8-0.9-5.1 0.5l-3.3 3.6c-2.3 2.5-6.5 1-6.6-2.4 0-3.2-3.9-4.9-6.2-2.7-9.2 8.6-31 20.8-79.9 17.1-69.3-5.1-120.1 10.2-133.2 55.6-0.8 2.9-4.4 3.7-6.4 1.5-4.1-4.2-11.6-7.7-24.3-1.7-22.2 10.5-25.2 52.1 6.1 95.2 1.4 2 0.7 5-1.7 5.8-8.5 2.8-22.2 11.1 1.8 33.4 24.5 22.7 41.8 25.5 48.6 25.5 1.8 0.1 3.4-1.2 3.8-3l8.1-41.2c0.4-2.1 2.6-3.4 4.7-2.9z"/><path class="N" d="m1777 1232.1c0 0 0.1-60.3-29.4-51.1-29.4 9.2-3.4 66.7 16.3 74.2z"/><path class="O" d="m1564.8 1797.6c-8.2-57.7 51.6-142.5 76.3-174.7 7-9.2 11-20.4 11.1-32 0.7-81.7-33.6-134.2-88.5-169.4 0 0-199.5 232.4-148.7 411.1 5.5 19.3 14 35.9 24.7 50.1 8-67.3 85.9-82 125.1-85.1z"/><path class="P" d="m1568.5 1775.3l-7.6-0.9c6.5-56.6 56.1-126.4 77.1-153.8l6.1 4.7c-20.7 26.9-69.4 95.3-75.6 150z"/><path class="Q" d="m1566.4 1805.6c-0.7-2.6-1.2-5.3-1.6-8-39.2 3.1-117.1 17.8-125.1 85.1 89 117.7 334.4 75.3 334.4 75.3v-45.9c0 0-188.5-35-207.7-106.5z"/><path class="R" d="m1750.5 1945.3c0 0 36.2-85.5 100-55.1 63.9 30.3 58.8 50.1 58.8 50.1z"/><path class="S" d="m1742.3 1963c0.5 6.5 6.1 11.4 12.5 11.2l330.8-11.5c5.1-0.2 9.6-3.6 11.1-8.5l9.6-30.7c2.4-7.6-3-15.3-10.9-15.8l-120.6-6.4q-1.7-0.1-3.3 0.3l-219.7 48.7c-5.9 1.3-9.9 6.7-9.5 12.7z"/><path class="T" d="m1964 1951l9.1-42.4 123.9 5.9-8.1 35.2z"/><path class="U" d="m1900.5 1494.5c-7 57.3-38.5 290.1-47.5 356.6-1.3 9.4 6.1 17.6 15.5 17.3l535.1-15.3c7-0.2 13-5.1 14.5-12l83.3-374.8c2.2-9.9-5.7-19.2-15.9-18.6l-570.7 33.4c-7.4 0.5-13.4 6.1-14.3 13.4z"/><path class="V" d="m2115.6 1729.6l-79.1 224.5 183.9 3.9 15.3-227.1c0.8-10.6-8.1-19.5-18.7-18.7l-85.9 5.7c-7.1 0.4-13.1 5-15.5 11.7z"/><path class="W" d="m1962 1957.3c-2 6.1 2.6 12.5 9.1 12.5h287.9c5.3 0 9.6-4.3 9.6-9.6v-12.3c0-5.5-4.5-9.8-10-9.6l-287.9 12.4c-4 0.2-7.5 2.8-8.7 6.6z"/><path class="c" d="m1892.4 1731.3l-3.7-0.4 26.2-207.4c1.7-12.8 12.2-22.7 25.2-23.5l493.2-29.8 0.2 3.8-493.2 29.8c-11.1 0.7-20.2 9.2-21.6 20.2z"/><path class="c" d="m1879.3 1835.3l-3.8-0.5 5.7-44.9 3.8 0.5z"/><path class="X" d="m1862.5 1295.7c-59.5 4.5-94-57-94.3-57.6l3.9-2.2c0.4 0.6 33.5 59.5 90 55.3z"/><path class="Y" d="m1886.7 1293.4c0 3.5-2.9 6.4-6.4 6.4h-17c-3.5 0-6.4-2.9-6.4-6.4 0-3.5 2.9-6.4 6.4-6.4h17c3.5 0 6.4 2.9 6.4 6.4z"/><path class="Z" d="m1772.3 1170c0 0 21.3-109.4 84.1-119.8 0 0-17.8-8.9-36.3 0.8-18.6 9.7-65.5 63-63.6 121.7 12.8 4.5 15.8-2.7 15.8-2.7z"/><path class="a0" d="m1761.3 1164.8c-32.6 6.6-28.6 47.9-28.6 47.9-2.4 30 6.4 44.9 17.6 51.9 7.7 4.9 17.3 5.3 25.4 1.2 8.1-4 13.4-12.1 14.1-21.1 0.6-8.2 1.3-15.9 1.9-18.7 1.5-6.6 2.3-67.8-30.4-61.2z"/><path class="a1" d="m1764.3 1175.2c-6.7-1.2-13.4 2.5-16.2 8.8-19.5 45.2 4.5 74.6 16.3 75.2 12.4 0.7 12.1-59 9.5-74.3-1.1-6.4-5.2-8.9-9.6-9.7z"/></svg>