<svg version="1.2" xmlns="http://www.w3.org/2000/svg" viewBox="0 0 2975 3000" width="2975" height="3000"><defs><linearGradient id="P" gradientUnits="userSpaceOnUse"/><linearGradient id="g1" x1="4283.5" y1="1449.7" x2="3704" y2="2383" href="#P"><stop stop-color="#fcb148"/><stop offset=".32" stop-color="#ffc444"/><stop offset=".87" stop-color="#f8924f"/><stop offset="1" stop-color="#f8924f"/></linearGradient><linearGradient id="g2" x1="3377.2" y1="838" x2="2955.6" y2="2095.8" href="#P"><stop stop-color="#aa80f9"/><stop offset="1" stop-color="#6165d7"/></linearGradient><linearGradient id="g3" x1="2915.7" y1="1325.5" x2="1573.3" y2="2428.2" href="#P"><stop offset="0" stop-color="#e38ddd"/><stop offset="1" stop-color="#9571f6"/></linearGradient><linearGradient id="g4" x1="346.4" y1="1748.8" x2="2574.7" y2="1748.8" href="#P"><stop stop-color="#aa80f9"/><stop offset="1" stop-color="#6165d7"/></linearGradient><linearGradient id="g5" x1="162.3" y1="3052.1" x2="524.9" y2="2227.5" href="#P"><stop stop-color="#ffc444"/><stop offset="1" stop-color="#f36f56"/></linearGradient><linearGradient id="g6" x1="1086.9" y1="2273.4" x2="2576.1" y2="2273.4" href="#P"><stop offset=".49" stop-color="#eaedf3"/><stop offset="1" stop-color="#fff"/></linearGradient><linearGradient id="g7" x1="1050.5" y1="2257.1" x2="2602.7" y2="2257.1" href="#P"><stop stop-color="#ffc444"/><stop offset="1" stop-color="#f36f56"/></linearGradient><linearGradient id="g8" x1="1215" y1="1673.9" x2="742.3" y2="3266.1" href="#P"><stop stop-color="#aa80f9"/><stop offset="1" stop-color="#6165d7"/></linearGradient><linearGradient id="g9" x1="1086.9" y1="1772.8" x2="2576.1" y2="1772.8" href="#P"><stop offset=".49" stop-color="#eaedf3"/><stop offset="1" stop-color="#fff"/></linearGradient><linearGradient id="g10" x1="1050.5" y1="1749.4" x2="2602.7" y2="1749.4" href="#P"><stop stop-color="#aa80f9"/><stop offset="1" stop-color="#6165d7"/></linearGradient><linearGradient id="g11" x1="1336.2" y1="1951.4" x2="1170.6" y2="2020.9" href="#P"><stop stop-color="#40447e"/><stop offset="1" stop-color="#3c3b6b"/></linearGradient><linearGradient id="g12" x1="1413.4" y1="1792.3" x2="1232.6" y2="1868.3" href="#P"><stop stop-color="#40447e"/><stop offset="1" stop-color="#3c3b6b"/></linearGradient><linearGradient id="g13" x1="332.3" y1="385.1" x2="1943.7" y2="385.1" href="#P"><stop stop-color="#40447e"/><stop offset="1" stop-color="#3c3b6b"/></linearGradient><linearGradient id="g14" x1="1952.8" y1="1303.5" x2="1032.3" y2="2051.8" href="#P"><stop stop-color="#ff9085"/><stop offset="1" stop-color="#fb6fbb"/></linearGradient><linearGradient id="g15" x1="332.3" y1="1569.7" x2="2613" y2="1569.7" href="#P"><stop stop-color="#40447e"/><stop offset="1" stop-color="#3c3b6b"/></linearGradient><linearGradient id="g16" x1="556" y1="1592.7" x2="2227" y2="1592.7" href="#P"><stop stop-color="#40447e"/><stop offset="1" stop-color="#3c3b6b"/></linearGradient><linearGradient id="g17" x1="1587.4" y1="808.5" x2="693.2" y2="1535.4" href="#P"><stop stop-color="#ff9085"/><stop offset="1" stop-color="#fb6fbb"/></linearGradient><linearGradient id="g18" x1="2783.9" y1="2515.5" x2="2229.9" y2="3267.9" href="#P"><stop stop-color="#ff9085"/><stop offset="1" stop-color="#fb6fbb"/></linearGradient><linearGradient id="g19" x1="2993.6" y1="2211.3" x2="2173" y2="3325.9" href="#P"><stop stop-color="#ff9085"/><stop offset="1" stop-color="#fb6fbb"/></linearGradient><linearGradient id="g20" x1="2336.9" y1="1817.9" x2="2454" y2="2375.6" href="#P"><stop stop-color="#a1f094"/><stop offset="1" stop-color="#4fc3ba"/></linearGradient><linearGradient id="g21" x1="2680.7" y1="2149.2" x2="2447.3" y2="2466.2" href="#P"><stop stop-color="#311944"/><stop offset="1" stop-color="#6b3976"/></linearGradient><linearGradient id="g22" x1="2321.5" y1="1821.1" x2="2435.8" y2="2365" href="#P"><stop stop-color="#38e8c7"/><stop offset="1" stop-color="#425f63"/></linearGradient></defs><style>.a{fill:url(#g1)}.b{opacity:.5;fill:#fff}.c{fill:url(#g2)}.d{fill:url(#g3)}.e{fill:url(#g4)}.f{fill:url(#g5)}.g{fill:url(#g6)}.h{fill:url(#g7)}.i{fill:url(#g8)}.j{fill:url(#g9)}.k{fill:url(#g10)}.l{opacity:.5;mix-blend-mode:soft-light;fill:#fff}.m{fill:url(#g11)}.n{fill:url(#g12)}.o{fill:url(#g13)}.p{fill:url(#g14)}.q{fill:#fff}.r{fill:url(#g15)}.s{opacity:.3;mix-blend-mode:multiply;fill:url(#g16)}.t{fill:url(#g17)}.u{fill:url(#g18)}.v{opacity:.3;mix-blend-mode:multiply;fill:url(#g19)}.w{fill:url(#g20)}.x{fill:url(#g21)}.y{opacity:.3;mix-blend-mode:multiply;fill:url(#g22)}</style><path class="a" d="m1716.7 1824.1c-40.6-117.3-82.9-296.7-40-497.4 49.2-230.4 165.8-278.2 267.1-525.3 162.6-396.3 31.4-684.4 124.4-713.2 96.8-30 340.6 250.6 339 554.8-1.5 281.8-213 480-233.8 499-161.1 146.6-289.4 118-391.2 256.4-97.7 133.1-87.1 306.3-65.5 425.7z"/><path class="b" d="m1716.7 1824.1c-40.6-117.3-82.9-296.7-40-497.4 49.2-230.4 165.8-278.2 267.1-525.3 162.6-396.3 31.4-684.4 124.4-713.2 96.8-30 340.6 250.6 339 554.8-1.5 281.8-213 480-233.8 499-161.1 146.6-289.4 118-391.2 256.4-97.7 133.1-87.1 306.3-65.5 425.7z"/><path class="b" d="m2184.1 700.6l-0.6-4c-9.1-64.1-32.1-126.5-66.5-180.5-54.7-85.8-126.7-134.7-177.4-160.6l1.8-3.6c51.2 26.2 123.7 75.5 178.9 162.1 34.1 53.3 57.1 114.8 66.6 178.1 49.5-50.7 88.1-112 111.7-177.7 40.7-113.5 30.7-216.1 15.1-282.1l3.8-0.9c15.8 66.6 25.9 170-15.2 284.3-24.2 67.5-64.1 130.4-115.4 182z"/><path class="b" d="m1948.1 1019.3l2.6-3.5c24.9-34.8 65.9-107.9 60.3-206.6-5.1-90.4-47.3-154.9-72-185.3l3.1-2.6c25 30.8 67.7 96.1 72.9 187.7 5.4 96.7-33.2 169-58.6 205.5 99.3-10.1 194.8-43.2 276.4-95.6 187-120.3 253.1-308.9 272.9-384.4l3.8 1c-19.8 76-86.4 265.7-274.5 386.7-83.3 53.6-181 87-282.5 96.7z"/><path class="b" d="m1747.4 1315l-0.1-2c-2.3-46.4-2.3-93.4 0-139.7 5-99.7 20.6-199.7 46.6-297l3.9 1c-25.9 97.1-41.6 196.7-46.5 296.2-2.2 45.5-2.3 91.7-0.1 137.3 110.1-5.2 215.6-30.8 313.7-76.2 221.7-102.4 342.9-279.3 395.4-375.7l3.5 2c-52.8 96.7-174.5 274.4-397.2 377.4-99.1 45.8-205.8 71.6-317.2 76.6z"/><path class="c" d="m1721.8 1772c-23.3-83.5-45.8-215.5 10.5-341.8 98.2-220.4 325.9-175.5 512.4-420.4 150.5-197.6 81.9-330.9 257.3-470.4 125.8-100.1 291.3-134.9 315-98.5 25.5 39.1-140.4 118.4-215.8 314.4-98.2 255.1 74.6 401.4-29.9 561.3-79.5 121.6-209.1 82.3-491.7 219.4-164.3 79.6-284.1 172.3-357.8 236z"/><path class="b" d="m1721.8 1772c-23.3-83.5-45.8-215.5 10.5-341.8 98.2-220.4 325.9-175.5 512.4-420.4 150.5-197.6 81.9-330.9 257.3-470.4 125.8-100.1 291.3-134.9 315-98.5 25.5 39.1-140.4 118.4-215.8 314.4-98.2 255.1 74.6 401.4-29.9 561.3-79.5 121.6-209.1 82.3-491.7 219.4-164.3 79.6-284.1 172.3-357.8 236z"/><path class="b" d="m2435.5 865.8l-1.9-5.2c-17.4-48.4-25.3-98.5-23.6-148.7 4-118.5 61.5-205.7 95.5-247.1l3 2.5c-33.5 41-90.5 127.4-94.5 244.7-1.7 48 5.6 95.7 21.5 142 27.2-73 67.7-125.8 120.6-156.9 55.6-32.7 106.2-31.2 159.8-29.7 33.2 0.9 67.4 1.9 103.3-5.9 109.9-23.6 206.5-124.3 287.3-299.3l3.6 1.7c-81.3 176.1-178.9 277.6-290.1 301.5-36.3 7.9-70.8 6.9-104.2 6-53-1.5-103.1-2.9-157.6 29.2-53.4 31.3-94 85.1-120.9 160z"/><path class="b" d="m2311.4 1185.9l-0.3-2.1c-6.9-45.3-11.2-91.5-12.6-137.2-3.2-97.8 6.3-196.3 28-292.8l3.9 0.9c-21.6 96.2-31.1 194.3-28 291.7 1.5 44.9 5.6 90.2 12.3 134.7 66.1-14 127.5-40.7 182.5-79.3 83.5-58.6 131.8-131.4 157.5-182.2l3.6 1.9c-26 51.1-74.6 124.5-158.8 183.6-56 39.3-118.6 66.4-186 80.4z"/><path class="b" d="m2355.8 1386.8q-24.7 0-50.4-1.8c-83-5.7-164.4-25.4-242.1-58.5l-2.8-1.2 2.2-2.1c39.9-37.6 71-84.3 89.9-135.2 15.4-41.8 22.7-85.7 21.7-130.5l4-0.1c1 45.3-6.4 89.7-22 131.9-18.7 50.6-49.3 97.1-88.7 134.7 76.5 32.3 156.5 51.4 238 57 181.5 12.5 328.7-45 420.2-95.4l1.9 3.5c-83.3 45.9-212.6 97.7-371.9 97.7z"/><path class="b" d="m2184 1563.6c-21.9-26.6-69.9-73.9-144.4-91-130.7-30-233 58.2-244.2 68.3l-3.6 3.3 0.3-4.9c2.8-47 11.6-93.3 26.2-137.6 24.7-75.1 65-143.2 119.8-202.4l2.9 2.7c-54.4 58.8-94.4 126.4-118.9 200.9-14 42.5-22.6 86.9-25.7 131.9 22.1-18.9 120.5-94.5 244.1-66.1 75.7 17.4 124.3 65.3 146.6 92.4z"/><path class="d" d="m1711 1700.1c46.7-40.2 118.9-95.7 215.8-145 225.6-114.9 340-71.8 463.3-178.5 151.5-131.2 122.1-320.4 171.8-319.2 73.2 1.8 220.2 412.9 41 584.7-114.8 110.1-322.4 82.6-364.8 75.9-100.3-16-127.5-51.4-229.2-64.7-123.6-16.1-229.5 17.3-297.9 46.8z"/><path class="b" d="m1655.4 1735.4l-2.4-3.1c133.8-103.5 267.5-155 397.3-152.8 70.1 1.1 124.5 17.2 172.5 31.3 63.1 18.7 117.7 34.8 183.7 7.6 84.2-34.6 148.6-124.3 181.2-252.4 52.2-205.3-63.4-376.6-100.1-424.2l3.1-2.5c37 48 153.5 220.7 100.8 427.7-32.9 129.3-98.1 220-183.5 255.1-67.3 27.7-122.5 11.4-186.4-7.4-47.7-14.1-101.9-30.1-171.3-31.2-128.9-2.2-261.8 49-394.9 151.9z"/><path class="b" d="m2544 1485.1l0.8-3.9c11.1-58.8 11.1-118.4 0-177-12.3-64.5-38.7-127.3-76.2-181.6l3.3-2.3c37.8 54.7 64.4 118.1 76.8 183.2 11 57.8 11.2 116.4 0.7 174.5 31.6-16.3 74.3-45.8 105.4-96 66.4-107.2 27.9-225.1 19.5-247.6l3.8-1.4c8.5 22.8 47.5 142.4-19.9 251.1-32.8 53-78.3 83.2-110.6 99.3z"/><path class="b" d="m2459.6 1709c-41.3 0-85.9-5.7-131.7-20.6-55.8-18-107.3-47.4-152.9-87.1l-4.6-4 6.1 0.5c87.6 7 169.7-32 214.2-101.9 47.5-74.7 31.8-154.9 25.8-177.7l3.9-1c6 23.2 22 104.8-26.4 180.8-44.2 69.6-124.9 109.1-211.8 104.2 44.1 37.4 93.5 65.1 146.9 82.4 152.2 49.3 289.6-3.2 341.6-28.1l1.8 3.6c-36.8 17.6-116 48.9-212.9 48.9z"/><path class="b" d="m2237.4 1806.8c-21.5-45.8-72.4-129.8-173.1-177.2-42.3-19.9-88.1-30.9-136.1-32.7l-0.2-4c80.4-7.8 138.9-30.6 173.9-67.6 3.2-3.3 7.3-7.9 13.4-14.9 8.3-9.4 20.8-23.6 40.1-44.7 19.2-21.2 38.6-42.1 57.8-62.4l2.9 2.7c-19.1 20.3-38.6 41.2-57.8 62.4-19.2 21.1-31.7 35.3-40 44.7-6.2 7-10.3 11.6-13.5 15-32.4 34.3-84.4 56.5-154.8 66.3 40.7 3.9 79.6 14.5 116 31.6 101.8 47.9 153.3 132.8 175 179.1z"/><path class="e" d="m346.4 1752l1055.9 64.3 1172.4-67.5-1156.3 366.6z"/><path class="f" d="m1201.2 2859.1l-859.3-335.1c-84.4-22.7-150.1-106.4-150.1-187.6v-0.9c0-81.1 65.7-135.6 150.1-120.7l920.1 256.6z"/><path class="g" d="m2576.1 2580.2l-1334.5 260.7c-84.9 9.5-154.7-49.7-154.7-132.3v-56.1c0-82.6 69.8-155.1 154.7-161.9l1334.5-217.2c-59.9 111.6-73.8 216.1 0 306.8z"/><path class="h" d="m2587.9 2595.2l-1335 263.1c-110.7 12.6-202.4-65-202.4-173.1v-1.2c0-108.1 91.7-203.2 202.4-211.8l1335-215.1c8.2-0.6 14.8 6.2 14.8 15.2 0 9-6.6 16.8-14.8 17.5l-1335 219.7c-89 7.3-162.6 83.9-162.6 170.7v1.2c0 86.8 73.6 149.4 162.6 139.6l1335-258.4c8.2-0.9 14.8 5.6 14.8 14.7 0 9-6.6 17-14.8 17.9z"/><path class="i" d="m1236.4 2472.3l-894.5-257.5c-84.4-14.9-150.1-125.6-150.1-247.4v-1.4c0-121.8 65.7-218.5 150.1-215.4l947.6 143.8z"/><path class="j" d="m2576.1 2233.5l-1258.6 205.8c-126.1 9.5-230.6-83.2-230.6-207.2v-84.2c0-124.1 104.5-227.5 230.6-230.9l1258.6-144.2c-60.1 167.2-73.6 323.9 0 460.7z"/><path class="k" d="m2587.9 2257.1l-1335 215.1c-110.7 8.6-202.4-116.2-202.4-278.6v-1.7c0-162.3 91.7-296.7 202.4-299.4l1335-143.1c8.2-0.2 14.8 10.6 14.8 24.2 0 13.5-6.6 24.7-14.8 24.9l-1335 150c-89 2.7-162.6 111-162.6 241.3v1.8c0 130.4 73.6 231.1 162.6 224.6l1335-208.2c8.2-0.6 14.8 9.9 14.8 23.5 0 13.5-6.6 25-14.8 25.6z"/><path class="l" d="m965.4 2350.2l-207.4-56.1c-43.6-119.1-40.3-228.5 0-359.2l207.4 36.8c-38.3 137.5-32.5 262.1 0 378.5z"/><path class="m" d="m2613 1681l-2280.7-22v65.1c0 17.7 10 32.7 23.4 35.4l645 128.1c7.6 1.5 15.4 1.9 23.1 1.2l1564.4-146.1c14-1.3 24.8-16.4 24.8-34.5z"/><path class="n" d="m1878.8 1575.5l-1521.4 119.1c-27.2 2.1-49.3-20.5-49.3-50.6v-1204.5c0-30 22.1-54.4 49.3-54.4h1521.4c22.5 0 40.6 22 40.6 49.2v1088.8c0 27.2-18.1 50.6-40.6 52.4z"/><path class="o" d="m1903.1 1575.5l-1521.4 119.1c-27.2 2.1-49.4-20.5-49.4-50.6v-1204.5c0-30 22.2-54.4 49.4-54.4h1521.4c22.4 0 40.6 22 40.6 49.2v1088.8c0 27.2-18.2 50.6-40.6 52.4z"/><path class="p" d="m1855.7 1498.7l-1417 103.5c-22.2 1.6-40.2-17-40.2-41.5v-1054.6c0-24.5 18-44.5 40.2-44.6l1417-6.5c18.5-0.1 33.5 18 33.5 40.3v960.5c0 22.4-15 41.6-33.5 42.9z"/><path class="q" d="m1196.1 418c0 11.2-7.8 20.3-17.5 20.4-9.7 0-17.5-9.1-17.5-20.3 0-11.2 7.8-20.3 17.5-20.3 9.7 0 17.5 9 17.5 20.2z"/><path class="l" d="m1536.5 1245.2c-117.2-69.9-209.5 18.6-298.5-68.7-53.9-53-27.4-92.5-93.8-171.7-73.6-87.7-121.4-58.2-195.4-137.1-93.4-99.8-46.7-177.4-127.2-249-97.6-86.9-202.9-6.5-295.9-89.8-40.1-36-62.1-88.2-73.5-143.8h-91c-15.9 0-28.9 14.3-28.9 31.9v1248.6c0 17.6 13 30.9 28.9 29.7l1550.6-121.9c7.6-0.6 14.3-5.5 18.7-12.7-113.5-4.6-183.3-46.7-227.9-90.3-87.2-85.2-72-169.2-166.1-225.2z"/><path class="r" d="m1865.1 1570.1l-1532.8 125.3 668.4 132.8c7.6 1.6 15.4 2 23.1 1.3l1589.2-148.5-723.5-110c-8.1-1.3-16.2-1.6-24.4-0.9z"/><path class="s" d="m556 1698.6l1276.1-105.9 394.9 59.6-1265.1 113.2z"/><path class="q" d="m1776.7 861.7l-282.1-145.7-295.9-152.8-631 325.9 2 0.9v11.6l629.6 296.8 576.8-325.2v-11h-0.3z"/><path class="q" d="m1565.1 1029.3l-366.4 207.2-402.9-188.3v272.5c0 44.7 34.1 82 78.5 86 72.1 6.6 187 13.1 315.3 5.2 125-7.7 234.5-27.4 302.5-42 42.6-9.2 73-46.9 73-90.4z"/><path class="q" d="m1776.3 1286.5c-4 0.2-3.7-3.4-3.7-7.8v-391.5c0-8.8-8.2-14.5-16.4-14.3l-553.3 13c-4.4 0.1-8-3.6-8-8.3 0-4.6 3.6-8.5 8-8.6l553.3-12.3c16.3-0.3 23.8 12.6 23.8 30.3v391.3c0 4.4 0.4 8-3.7 8.2z"/><path class="t" d="m1788.1 866.5c-3.8-7.2 1.5-10.5-8.1-10.3l-577.1 12.8c-4.4 0.1-8 4-8 8.6 0 4.7 3.6 8.4 8 8.3l553.3-13c4.6-0.1 9.1 1.6 12.2 4.6l7.7-4.3z"/><path class="q" d="m1793.9 1204.2l-7.2-11.8c-2.4-4.5-7.4-7-12.2-6.7-4.9 0.3-9.5 3.5-11.8 8.3l-6.4 13c-1.4 3.1-2.5 6.6-2.5 10v106.7c0 2.2 11.1 3.5 22.3 2.8 11.2-0.6 22.2-3.1 22.2-5.4v-106.6c0-3.7-2.7-7.2-4.4-10.3z"/><path class="u" d="m2361 2221.2c-34 29.8-85.2 27.4-116.8-5-39.4-40.3-113.2-67.6-245.6 16.2-236.4 149.6 24.9 572.9 174.2 585.2 149.4 12.4 199.1-24.8 273.8 0 74.7 24.8 180.4-141.2 224-291.5 43.5-150.3-68.5-328.8-180.5-348.4-55.1-9.7-96.6 15-129.1 43.5z"/><path class="v" d="m2556.2 2674.5c0 0 0 0-56.9 35.2-56.8 35.1-80.7-101.5-185.2-187.4-104.6-85.9-310-24-299-171.6 5.5-73.6 42.4-127.8 78.1-163.7-27.6 8.3-59 22.8-94.6 45.4-236.4 149.6 24.9 572.9 174.2 585.2 149.4 12.4 199.1-24.8 273.8 0 64.1 21.3 151.1-98.1 202-227.4z"/><path class="w" d="m2322.6 2246.4c0 0 106.9-174-73.5-223.8-180.5-49.8-257.2-116.6-257.2-116.6 0 0 45.6 145.1 78.8 254.3 33.2 109.1 192.7 133.7 251.9 86.1z"/><path class="x" d="m2371.8 2043.5c-31.1 3.6-18.6-45-48.5-12.6-25.9 28.3-30.5 184-31.2 223.9-0.1 5.2 3.9 9.5 9.1 9.7 5.5 0.3 10-4.1 10-9.6-0.4-85.8 92.1-182.6 102.1-202.2 10.4-20.5-10.4-12.8-41.5-9.2z"/><path class="y" d="m2245.3 2145.2c-14.1-78.2-74.6-63.8-197-169.6-19.7-17-36.1-33.3-49.8-48.6 13.8 44.2 46.7 149.3 72.2 233.3 29.6 97.3 159.6 127.4 229.4 99-23-20.4-44.1-55.2-54.8-114.1z"/></svg>