<svg version="1.2" xmlns="http://www.w3.org/2000/svg" viewBox="0 0 439 74" width="439" height="74"><style>.a{fill:#474747}.b{fill:#379b0f}</style><path class="a" d="m29.8 16.9q1.4 0 2.3 0.3 1 0.3 1.5 0.7 0.5 0.4 0.7 1.1 0.2 0.7 0.2 1.3 0.1 0.5 0.1 1.5v30.4q0 1.3-0.1 1.9-0.1 0.6-0.5 1.4-0.4 0.8-1.5 1.2-1 0.3-2.8 0.3-2.1 0-2.9-0.3-0.8-0.4-1.4-1.1-12.3-16.4-16.2-21.4v18q0 1.3-0.1 1.9-0.1 0.6-0.5 1.4-0.4 0.8-1.5 1.2-1 0.3-2.8 0.3-1.7 0-2.7-0.3-1-0.4-1.4-1.2-0.5-0.8-0.6-1.5 0-0.6 0-1.9v-30.5q0-1.3 0.1-1.9 0.1-0.6 0.5-1.3 0.4-0.8 1.5-1.1 1-0.4 2.8-0.4 1.5 0 2.4 0.4 1 0.2 1.4 0.6 0.4 0.4 1 1.1l0.2 0.4q11.6 15.7 15.5 20.7v-18.5q0-1.3 0.1-1.9 0.1-0.6 0.5-1.3 0.4-0.8 1.5-1.1 1-0.4 2.7-0.4zm32.2 11.2q1.7 0 2.6 0.3 1 0.3 1.4 1.1 0.4 0.8 0.5 1.4 0.1 0.6 0.1 1.9v22.6q0 6.3-4.4 10.2-4.3 3.8-9.8 3.8-4.2 0-7.9-2-3.8-2-3.8-3.7 0-2 1.5-3.6l0.1-0.1q1.1-1.2 1.6-1.6 0.6-0.5 1.4-0.5 0.7 0 1.6 0.7 0.8 0.6 2.2 1.4 1.4 0.6 3.4 0.6 2.1 0 3.4-1.6 1.4-1.7 1.4-4v-1.6l-0.2 0.1q0 0.1-0.2 0.3-0.1 0.1-0.3 0.4-0.2 0.2-0.5 0.4-0.3 0.2-0.7 0.4-0.3 0.2-0.8 0.5-0.5 0.1-1.1 0.3-0.5 0.2-1.2 0.3-0.7 0-1.4 0-4.8 0-8.8-4.1-3.9-4.2-3.9-9.9 0-5.5 4-9.7 3.9-4.2 8.7-4.2 1.9 0 3.4 0.7 1.5 0.6 2.1 1.2 0.6 0.6 0.9 1.1 0.2-1.6 1.1-2.3 1-0.8 3.6-0.8zm-9.7 18.7q2 0 3.3-1.4 1.3-1.5 1.3-3.2 0-1.7-1.2-3.2-1.3-1.5-3.5-1.5-2.1 0-3.4 1.4-1.3 1.5-1.3 3.3 0 1.8 1.4 3.2 1.4 1.4 3.4 1.4zm42.2-18.6q1.7 0 2.7 0.3 1 0.3 1.4 1.1 0.5 0.9 0.5 1.5 0.1 0.6 0.1 1.9v19.1q0 1.3-0.1 1.9 0 0.6-0.5 1.5-0.4 0.7-1.4 1.1-1 0.3-2.8 0.3-2.5 0-3.5-0.7-1-0.8-1.1-2.2-2.1 2.9-6.6 2.9-4.9 0-9-4.3-4-4.4-4-10.2 0-5.6 4-9.9 4.1-4.3 9-4.3 1.9 0 3.4 0.7 1.5 0.6 2.1 1.2 0.6 0.6 1 1.1 0.2-1.5 1.2-2.3 1-0.7 3.6-0.7zm-9.8 19.1q1.9 0 3.3-1.5 1.3-1.4 1.3-3.2 0-1.8-1.3-3.3-1.3-1.6-3.4-1.6-2.2 0-3.5 1.6-1.4 1.5-1.4 3.3 0 1.8 1.5 3.3 1.4 1.4 3.5 1.4zm26.2-23.4q-1 0.3-2.6 0.3-1.7 0-2.7-0.4-1-0.3-1.5-1.1-0.3-0.8-0.4-1.4-0.1-0.6-0.1-1.9 0-1.2 0.1-1.9 0.1-0.6 0.4-1.3 0.5-0.8 1.5-1.1 1.1-0.3 2.8-0.3 1.6 0 2.6 0.3 1 0.3 1.4 1.1 0.4 0.7 0.5 1.3 0.1 0.6 0.1 1.8v0.3q0 1.2-0.1 1.8-0.1 0.6-0.5 1.4-0.4 0.8-1.5 1.1zm-5.3 4.4q1.1-0.3 2.8-0.3 1.7 0 2.6 0.3 1 0.4 1.4 1.2 0.4 0.7 0.5 1.4 0.1 0.6 0.1 1.9v22.5q0 6.4-4.4 10.2-4.5 3.9-9.8 3.9-1.2 0-1.8-0.1-0.6-0.1-1.4-0.5-0.8-0.4-1.1-1.5-0.3-1-0.3-2.7 0-3 1.1-3.8 1.2-0.8 3.6-0.8 1.6 0 3.2-1.1 1.5-1.1 1.5-4v-22.5q0-1.1 0.1-1.7 0.1-0.6 0.5-1.3 0.4-0.7 1.4-1.1zm11.8 23.9v-19.2q0-1.3 0-1.9 0.2-0.6 0.5-1.4 0.5-0.8 1.5-1.2 1.1-0.3 2.8-0.3 1.4 0 2.3 0.3 1 0.3 1.4 0.6 0.5 0.4 0.7 1.2 0.3 0.7 0.3 1.3 0.1 0.4 0.1 1.5v19.1q0 1.3-0.1 2-0.1 0.6-0.5 1.4-0.4 0.7-1.5 1.1-1 0.3-2.8 0.3-1.6 0-2.7-0.3-1-0.4-1.5-1.2-0.3-0.8-0.5-1.4 0-0.6 0-1.9zm4.7-27.9q-1.6 0-2.7-0.3-1-0.4-1.5-1.2-0.3-0.8-0.5-1.4 0-0.7 0-1.9 0-1.3 0-1.9 0.2-0.7 0.5-1.4 0.5-0.8 1.5-1.2 1.1-0.3 2.8-0.3 1.7 0 2.7 0.3 1.1 0.4 1.5 1.2 0.4 0.8 0.5 1.5 0.1 0.6 0.1 1.8 0 1.3-0.1 1.9-0.1 0.6-0.5 1.5-0.4 0.7-1.5 1.1-1 0.3-2.8 0.3z"/><path class="b" d="m173.7 19.7l14.8 30.6q0.9 1.8 0.9 2.8 0 1.9-3.1 3.5-1.9 0.9-3.2 0.9-0.8 0-1.5-0.4-0.7-0.5-1-1.1-0.3-0.5-0.9-1.6l-2.8-5.9h-15.2l-2.8 5.9q-0.5 1.1-0.9 1.6-0.2 0.5-1 1-0.6 0.5-1.5 0.5-1.3 0-3.1-0.9-3.2-1.6-3.2-3.5 0-1 0.9-2.8 0 0 14.8-30.6 0.6-1.3 1.8-2 1.3-0.8 2.7-0.8 2.9 0 4.3 2.8zm-0.7 20.7l-3.7-7.5-3.6 7.5zm18.4 5.1v-26.1q0-1.2 0-1.9 0.1-0.6 0.5-1.4 0.5-0.8 1.5-1.2 1-0.3 2.8-0.3 1.7 0 2.7 0.4 1 0.3 1.4 1.1 0.5 0.8 0.5 1.4 0.1 0.7 0.1 2v25.3q0 2 0.4 2.5 0.3 0.5 1.8 0.5 0.7 0 1.1 0.1 0.4 0.1 1 0.5 0.6 0.3 0.8 1.3 0.3 1 0.3 2.5 0 1.7-0.3 2.8-0.2 1-0.8 1.5-0.6 0.3-1 0.4-0.4 0.1-1.2 0.1-2.9 0-4.6-0.2-1.8-0.2-3.3-0.8-1.5-0.7-2.3-2-0.7-1.3-1-3.3-0.4-2.1-0.4-5.2zm34 3.9h-13q-0.9 0-1.4-0.1-0.5-0.1-1.2-0.4-0.8-0.4-1.1-1.4-0.3-1-0.3-2.5 0-1.5 0.4-2.4 0.3-1 1-1.3 0.7-0.4 1.2-0.4 0.5-0.2 1.4-0.2h13.1q0.9 0 1.4 0.2 0.5 0 1.2 0.4 0.7 0.3 1 1.3 0.3 0.9 0.3 2.5 0 1.5-0.3 2.5-0.3 0.9-1 1.3-0.6 0.3-1.2 0.4-0.5 0.1-1.5 0.1zm47.3-1.3q1 0.7 1.3 1 0.5 0.3 0.9 1 0.5 0.6 0.5 1.3 0 1.3-1.5 3.5-1.8 2.6-3.5 2.6-1.1 0-3.2-1.4-0.3-0.2-1.5-1.1-1.3-0.8-2-1.3-5.1 4-11.4 4-8.5 0-14.4-6.1-5.8-6-5.8-14.3 0-4.5 1.7-8.5 1.6-4 4.4-6.7 2.7-2.6 6.2-4.2 3.6-1.5 7.4-1.5 8.1 0 14 5.9 6 5.8 6 14.8 0 4.5-2 9 1.9 1.3 2.9 2zm-20.8-0.1q4 0 7.1-3 3.1-2.9 3.1-8 0-4.9-3.2-7.9-3.1-3-6.9-3-3.9 0-7.1 3-3.1 3.1-3.1 8 0 4.8 3.1 7.9 3.2 3 7 3zm37.6 8.9q-5.5 0-9.2-4.2-3.6-4.2-3.6-10.2v-9.6q0-1.3 0.1-1.9 0.1-0.6 0.5-1.4 0.4-0.8 1.5-1.2 1-0.3 2.7-0.3 1.5 0 2.4 0.3 0.9 0.3 1.4 0.6 0.5 0.4 0.7 1.2 0.3 0.7 0.3 1.2 0.1 0.5 0.1 1.6v9.6q0 2.2 1.2 3.5 1.3 1.2 3.5 1.2 2.2 0 3.5-1.3 1.3-1.3 1.3-3.4v-9.7q0-1.3 0.1-1.9 0.1-0.6 0.5-1.4 0.4-0.8 1.5-1.2 1-0.3 2.7-0.3 1.7 0 2.8 0.3 1 0.4 1.4 1.2 0.4 0.8 0.5 1.5 0.1 0.6 0.1 1.8v19.4q0 1.2-0.1 1.9-0.1 0.6-0.5 1.3-0.4 0.8-1.5 1.1-1 0.3-2.7 0.3-1.6 0-2.7-0.3-1-0.3-1.4-1-0.4-0.6-0.5-1.1-0.1-0.4-0.1-1.1-0.1 0.2-0.3 0.4-0.2 0.2-0.8 0.8-0.6 0.6-1.3 1.1-0.7 0.4-1.8 0.8-1.1 0.4-2.3 0.4zm42.4-25.3q0 2.3-1.1 4.4-1 2.1-3 2.1-1 0-1.9-0.5-0.9-0.4-1.8-0.4-2 0-3.3 1-1.3 1.1-1.3 2.5v11.5q0 1.3-0.1 2 0 0.6-0.5 1.4-0.4 0.7-1.5 1.1-1 0.3-2.8 0.3-1.3 0-2.3-0.3-0.9-0.2-1.4-0.6-0.5-0.4-0.7-1.1-0.3-0.8-0.3-1.3 0-0.5 0-1.6v-19.2q0-1.2 0-1.8 0.1-0.7 0.5-1.5 0.5-0.8 1.5-1.1 1-0.3 2.8-0.3 1.6 0 2.7 0.3 1 0.3 1.4 0.9 0.4 0.6 0.5 1 0.1 0.3 0.1 0.8 0.3-0.4 0.8-0.9 0.5-0.5 2.2-1.5 1.7-0.9 3.5-0.9 0.8 0 1.7 0.2 0.8 0.1 1.9 0.4 1 0.3 1.7 1.1 0.7 0.8 0.7 2zm24.8-3.4q1.7 0 2.8 0.3 1 0.3 1.4 1.1 0.4 0.9 0.5 1.5 0.1 0.6 0.1 1.9v19.1q0 1.3-0.1 1.9-0.1 0.6-0.5 1.5-0.4 0.7-1.4 1.1-1.1 0.3-2.8 0.3-2.5 0-3.5-0.7-1-0.8-1.2-2.2-2 2.9-6.5 2.9-5 0-9-4.3-4.1-4.4-4.1-10.2 0-5.6 4.1-9.9 4.1-4.3 9-4.3 1.8 0 3.3 0.7 1.6 0.6 2.2 1.2 0.6 0.6 1 1.1 0.1-1.5 1.1-2.3 1.1-0.7 3.6-0.7zm-9.8 19.1q2 0 3.3-1.5 1.4-1.4 1.4-3.2 0-1.8-1.3-3.3-1.3-1.6-3.5-1.6-2.1 0-3.5 1.6-1.3 1.5-1.3 3.3 0 1.8 1.4 3.3 1.4 1.4 3.5 1.4zm35-19.1q5.5 0 9.1 4.2 3.6 4.1 3.6 10.2v9.6q0 1.2-0.1 1.9 0 0.6-0.5 1.4-0.3 0.8-1.4 1.1-1 0.3-2.8 0.3-1.4 0-2.3-0.2-1-0.3-1.4-0.6-0.5-0.4-0.8-1.2-0.2-0.7-0.3-1.2 0-0.5 0-1.6v-9.6q0-2.2-1.3-3.5-1.3-1.3-3.4-1.3-2.2 0-3.6 1.4-1.3 1.3-1.3 3.4v9.7q0 1.2-0.1 1.9 0 0.6-0.5 1.4-0.3 0.8-1.4 1.1-1 0.3-2.8 0.3-1.7 0-2.7-0.3-1.1-0.3-1.5-1.1-0.4-0.9-0.5-1.5 0-0.6 0-1.9v-19.3q0-1.2 0-1.8 0.1-0.7 0.6-1.5 0.4-0.7 1.4-1 1.1-0.3 2.8-0.3 1.6 0 2.7 0.3 1 0.3 1.4 1 0.4 0.6 0.4 1 0.1 0.5 0.1 1.2 0.1-0.2 0.3-0.4 0.2-0.2 0.8-0.8 0.7-0.6 1.4-1.1 0.7-0.5 1.8-0.9 1.1-0.3 2.3-0.3z"/></svg>