<svg version="1.2" xmlns="http://www.w3.org/2000/svg" viewBox="0 0 1144 1144" width="1144" height="1144"><defs><linearGradient id="P" gradientUnits="userSpaceOnUse"/><linearGradient id="g1" x2="1" href="#P" gradientTransform="matrix(1145,-995.333,995.33,1144.997,0,1070.154)"><stop stop-color="#61d3af"/><stop offset=".01" stop-color="#61d3af"/><stop offset="1" stop-color="#c7d35d"/></linearGradient></defs><style>.a{fill:url(#g1)}.b{fill:#fff}</style><path class="a" d="m572.5 1145c-316.6 0-572.5-255.9-572.5-572.5 0-316.6 255.9-572.5 572.5-572.5 316.6 0 572.5 255.9 572.5 572.5 0 316.6-255.9 572.5-572.5 572.5z"/><path class="b" d="m567.5 122.3c0 0-63.7 25.2-36.8 94.3 0 0 22.5 46 69.7 37.4 0 0 53.4-5.2 57.3-54.8 0 0 2.9-11.8-9.9-7.5-12.9 4.3-41.5 7.2-56.7-4.2 0 0-21.9-15.5-15.6-48.1 0 0 6.8-20.8-8-17.1z"/><path class="b" d="m572 834c0 0 56-89.1 188-52 0 0 39.5 8.5 82 2 42.5-6.5 44.4-8.9 86 24 0 0 7.6 5.7 0 8l-299 75c0 0-11.3 49-59 42z"/><path class="b" d="m569 950c0 0 45.4 4.3 71-37 0 0 0.4-10.6 15-15l291-71c0 0 7 0.7 9 6 2 5.3 0 9.7-4 11l-290.3 71c0 0-4.4-0.1-5.9 7.5 0 0-31.7 50.1-86.8 43.5z"/><path class="b" d="m659 754c0 0 11.1-13.5 18-9 6.9 4.5-15.5-25.2-20-45 0 0-2.7-2.1-2 2 0 0 4.4 41.5 3 49-1.2 6.4 1 3 1 3z"/><path class="b" d="m857 763c0 0 41.3-9.5 68 21 0 0 39 31.6 37 4v-210c0 0-5.9-21.1-19-21h-75c0 0-15.9 2.1-20 21l-1 172c0 0-4.2 11.8 10 13z"/><path class="b" d="m863 540h84c0 0 14.9-2.3 15-15v-42c0 0-9-41.9-39-43h-32c0 0-35.8 6.5-40 35l-2 50c0 0 2.1 8.4 14 15z"/><path class="b" d="m569 602c0 0 133.3-9.5 166 132 0 0 6.8 33.5 46 30l43-3c0 0 6.7 1.1 6-10 0 0 9-238-17-278 0 0-61.1-152.1-186-167 0 0-8 0.4-21-14 0 0-20.4-20.7-34-15v174c0 0 28.4-2.9 49 23l7.7 42.9c0 0 2.7 13.3-6.7 4.1-9.4-9.2-40-21.4-50-14v4c0 0 38.7-1.6 54.6 22.1l0.7 6.1c0 0 7.6-0.5 4.7 12.8-2.9 13.3-11.1 9.1-11.1 9.1 0 0-7.6 24.6-48.9 28.9 0 0-9.6 2.3-3 12z"/><path class="b" d="m579.7 834c0 0-55.9-89.1-188-52 0 0-39.4 8.5-82 2-42.5-6.5-44.3-8.9-86 24 0 0-7.5 5.7 0 8l299 75c0 0 11.4 49 59 42z"/><path class="b" d="m582.7 950c0 0-45.4 4.3-71-37 0 0-0.4-10.6-15-15l-291-71c0 0-7 0.7-9 6-1.9 5.3 0.1 9.7 4 11l290.4 71c0 0 4.3-0.1 5.9 7.5 0 0 31.7 50.1 86.7 43.5z"/><path class="b" d="m492.7 754c0 0-11-13.5-18-9-6.9 4.5 15.6-25.2 20-45 0 0 2.8-2.1 2 2 0 0-4.4 41.5-3 49 1.3 6.4-1 3-1 3z"/><path class="b" d="m294.7 763c0 0-41.3-9.5-68 21 0 0-38.9 31.6-37 4v-210c0 0 5.9-21.1 19-21h75c0 0 16 2.1 20 21l1 172c0 0 4.2 11.8-10 13z"/><path class="b" d="m288.7 540h-84c0 0-14.8-2.3-15-15v-42c0 0 9-41.9 39-43h32c0 0 35.9 6.5 40 35l2 50c0 0-2 8.4-14 15z"/><path class="b" d="m582.7 602c0 0-133.2-9.5-166 132 0 0-6.8 33.5-46 30l-43-3c0 0-6.7 1.1-6-10 0 0-9-238 17-278 0 0 61.2-152.1 186-167 0 0 8 0.4 21-14 0 0 20.4-20.7 34-15v174c0 0-28.4-2.9-49 23l-7.6 42.9c0 0-2.7 13.3 6.6 4.1 9.4-9.2 40-21.4 50-14v4c0 0-38.6-1.6-54.5 22.1l-0.7 6.1c0 0-7.7-0.5-4.8 12.8 3 13.3 11.1 9.1 11.1 9.1 0 0 7.6 24.6 48.9 28.9 0 0 9.7 2.3 3 12z"/></svg>