<svg version="1.2" xmlns="http://www.w3.org/2000/svg" viewBox="0 0 2601 2635" width="2601" height="2635"><defs><linearGradient id="P" gradientUnits="userSpaceOnUse"/><linearGradient id="g1" x1="985.8" y1="5005.5" x2="-2338.6" y2="-31.4" href="#P"><stop stop-color="#09005d"/><stop offset="1" stop-color="#1a0f91"/></linearGradient><linearGradient id="g2" x1="1126.3" y1="83.4" x2="1405.2" y2="83.4" href="#P"><stop stop-color="#4f52ff"/><stop offset="1" stop-color="#4042e2"/></linearGradient><linearGradient id="g3" x1="666.3" y1="1583.1" x2="2506.2" y2="-670.4" href="#P"><stop stop-color="#e1473d"/><stop offset="1" stop-color="#e9605a"/></linearGradient><linearGradient id="g4" x1="826.1" y1="1517.9" x2="995" y2="1060.5" href="#P"><stop stop-color="#febbba"/><stop offset="1" stop-color="#ff928e"/></linearGradient><linearGradient id="g5" x1="1584.8" y1="1196.5" x2="851.8" y2="1503.2" href="#P"><stop stop-color="#febbba"/><stop offset="1" stop-color="#ff928e"/></linearGradient><linearGradient id="g6" x1="1663" y1="474.6" x2="1436.1" y2="1155.3" href="#P"><stop stop-color="#09005d"/><stop offset="1" stop-color="#1a0f91"/></linearGradient><linearGradient id="g7" x1="1696.9" y1="853.3" x2="691.9" y2="1273.8" href="#P"><stop stop-color="#febbba"/><stop offset="1" stop-color="#ff928e"/></linearGradient><linearGradient id="g8" x1="107" y1="1144.7" x2="1861.7" y2="-1004.4" href="#P"><stop stop-color="#e1473d"/><stop offset="1" stop-color="#e9605a"/></linearGradient><linearGradient id="g9" x1="914.4" y1="645.7" x2="1404.4" y2="2786.2" href="#P"><stop stop-color="#ff928e"/><stop offset="1" stop-color="#fe7062"/></linearGradient><linearGradient id="g10" x1="864.5" y1="1828.9" x2="1160.6" y2="2608.1" href="#P"><stop stop-color="#febbba"/><stop offset="1" stop-color="#ff928e"/></linearGradient><linearGradient id="g11" x1="1107" y1="1594.5" x2="1460.9" y2="2525.9" href="#P"><stop stop-color="#febbba"/><stop offset="1" stop-color="#ff928e"/></linearGradient><linearGradient id="g12" x1="1341.3" y1="2424.8" x2="1712.2" y2="1868.4" href="#P"><stop stop-color="#4f52ff"/><stop offset="1" stop-color="#4042e2"/></linearGradient><linearGradient id="g13" x1="1482" y1="2523.4" x2="1848.7" y2="1973.3" href="#P"><stop stop-color="#4f52ff"/><stop offset="1" stop-color="#4042e2"/></linearGradient><linearGradient id="g14" x1="1537.2" y1="1474.5" x2="2785.6" y2="795.5" href="#P"><stop stop-color="#4f52ff"/><stop offset="1" stop-color="#4042e2"/></linearGradient><linearGradient id="g15" x1="2185.8" y1="1658.4" x2="2164.8" y2="2235.1" href="#P"><stop stop-color="#4f52ff"/><stop offset="1" stop-color="#4042e2"/></linearGradient><linearGradient id="g16" x1="1698.2" y1="2530.4" x2="2250.2" y2="1597.1" href="#P"><stop stop-color="#4f52ff"/><stop offset="1" stop-color="#4042e2"/></linearGradient><linearGradient id="g17" x1="928.5" y1="1263.9" x2="1392.7" y2="817.6" href="#P"><stop stop-color="#4f52ff"/><stop offset="1" stop-color="#4042e2"/></linearGradient><linearGradient id="g18" x1="1362.1" y1="1086.2" x2="1417.3" y2="1086.2" href="#P"><stop stop-color="#4f52ff"/><stop offset="1" stop-color="#4042e2"/></linearGradient><linearGradient id="g19" x1="1721.6" y1="727.3" x2="501.1" y2="1150.3" href="#P"><stop stop-color="#4f52ff"/><stop offset="1" stop-color="#4042e2"/></linearGradient><linearGradient id="g20" x1="1583.1" y1="608" x2="1344.7" y2="1072.2" href="#P"><stop stop-color="#4f52ff"/><stop offset="1" stop-color="#4042e2"/></linearGradient><linearGradient id="g21" x1="1186.4" y1="687.7" x2="1431.6" y2="451.5" href="#P"><stop stop-color="#4f52ff"/><stop offset="1" stop-color="#4042e2"/></linearGradient></defs><style>.a{fill:url(#g1)}.b{fill:#f9eb90}.c{fill:url(#g2)}.d{fill:url(#g3)}.e{fill:url(#g4)}.f{fill:url(#g5)}.g{fill:url(#g6)}.h{fill:url(#g7)}.i{fill:url(#g8)}.j{fill:url(#g9)}.k{fill:url(#g10)}.l{fill:url(#g11)}.m{fill:url(#g12)}.n{fill:url(#g13)}.o{fill:url(#g14)}.p{fill:url(#g15)}.q{fill:url(#g16)}.r{fill:#91b3fa}.s{fill:url(#g17)}.t{fill:url(#g18)}.u{fill:url(#g19)}.v{fill:url(#g20)}.w{fill:url(#g21)}</style><path class="a" d="m539.7 42.6c-66.7 5.8-117.8 61.6-118 128.5-1.1 409.3-3 1821 23.6 2320.7 2.9 52.9 46.3 94.5 99.3 95.1 262.1 2.8 1016.3 8 1444.4-19.4 89.2-5.7 158.6-79.5 158.5-168.9-0.5-429.6-7.4-1637.6-66.2-2189.8-7.1-66.1-60.3-117.8-126.6-123-286-22.2-1045.3-75.4-1415-43.2z"/><path class="b" d="m527 278.4c-5.2 350.1-19.8 1514.7 5.8 1944.6 3.7 62.8 52.5 112.4 112.8 114.5 248.1 8.7 884.3 25.4 1246.9-14.5 65.3-7.2 115.1-63.8 116.9-132.3 9.1-357.2 33.5-1442 8.7-1867-4-67.8-55.8-121.9-120.7-126.3-268.7-18.1-958.5-59.9-1266.8-34.2-57.9 4.8-102.7 54.6-103.6 115.2z"/><path class="c" d="m1126.4 103.5c0.3 9.6 8 17.4 17.6 17.7 47.8 1.5 182.3 5.6 242.4 7.8 11.8 0.4 20.9-10.5 18.4-22-0.2-0.4-1.8-15.3-16.9-16.3-40.7-2.9-163.4-10.5-244.4-5.8-16.7 1-17.6 19.9-17.1 18.6z"/><path class="d" d="m818.2 1335.7c0 0 342-85.8 703.3-34.1 101.7 14.6 191.7 73.7 246.6 160.6 98.8 156.4 238.6 435.1 209 725.9l-155.1 38.3c0 0-107.3-345-227.9-485.4 0 0-143 325.8-135.7 504.7q0.3 7.6 0.9 14.8c16.4 175-686 32.7-686 32.7z"/><path class="e" d="m1187.9 1043.6l-72.8 231.9c-6.8 21.6 0 44.7 16.9 57.7 38.9 30.1 116 77.8 210.1 76.5 17.2-0.3 31.7-15 32.9-33l25.9-387.6z"/><path class="f" d="m1469.8 789.5c0 0 28.3 182.6 10.5 269.9-17.8 87.3-14 147.9-118 139.1-104-8.8-174.8-80.3-197.6-178 0 0-36.5-150.7-6.3-200.6 30.2-49.8 311.4-30.4 311.4-30.4z"/><path class="g" d="m1214.8 967.9l12.6 3.3c0 0-23.9-119.9 26.6-126.6 50.4-6.7 240.4 3.9 296.1-49.9 53.7-51.8 41.2-140.3-3-175.7-2.8-2.3-6.9-1.7-9.4 0.9l-6.2 6.7c-4.2 4.7-11.9 1.8-12.1-4.5-0.1-6-7.3-9.1-11.6-5-16.9 16-57.4 38.6-148.1 31.8-128.6-9.6-222.8 18.8-247.1 103.1-1.5 5.3-8.1 6.8-11.9 2.8-7.6-7.9-21.4-14.3-45.1-3.1-41.1 19.5-46.7 96.6 11.3 176.5 2.8 3.8 1.3 9.2-3.1 10.7-15.7 5.2-41.1 20.7 3.3 61.9 45.5 42.2 77.6 47.4 90.3 47.5 3.3 0 6.2-2.4 6.9-5.7l15.1-76.4c0.8-3.9 4.7-6.4 8.6-5.4z"/><path class="h" d="m1213.8 984.4c0 0 0.3-111.8-54.4-94.8-54.6 17-6.4 123.7 30.3 137.5z"/><path class="i" d="m832.5 2070.3c-15.2-107 83.4-301.4 129.3-361 13.1-17.1 20.4-38 20.6-59.5 1.3-151.5-62.3-248.8-164.2-314.1 0 0-369.9 430.9-275.7 762.4 10.1 35.8 25.9 66.5 45.9 92.9 14.8-124.9 171.3-114.9 244.1-120.7z"/><path class="j" d="m827.2 1991.8l-14.1-1.7c12-104.9 104-234.4 143-285.2l11.3 8.7c-38.3 49.8-128.6 176.8-140.2 278.2z"/><path class="k" d="m834.3 2065.3c-41.6 0.1-233 6.6-250.6 120.8 165 218.3 620.1 139.6 620.1 139.6v-85c0 0-285.3-51.8-357.8-168.9-2.5-4.1-6.9-6.5-11.7-6.5z"/><path class="l" d="m1164.7 2307.1c0 0 67.2-158.5 185.6-102.2 118.3 56.2 109 93 109 93z"/><path class="m" d="m1149.6 2340c0.9 12 11.2 21.2 23.2 20.7l613.4-21.4c9.6-0.3 17.8-6.6 20.7-15.7l17.8-57c4.4-14-5.6-28.4-20.3-29.1l-223.7-11.9q-3-0.2-6 0.5l-407.5 90.2c-11 2.5-18.5 12.6-17.6 23.7z"/><path class="n" d="m1560.8 2317.7l16.9-78.7 229.8 11-15.2 65.2z"/><path class="o" d="m1443 1471.1c-13 106.2-71.5 538-88.2 661.3-2.4 17.4 11.4 32.6 28.9 32.1l992.4-28.4c13-0.3 24.1-9.5 26.9-22.2l154.4-695.2c4-18.4-10.6-35.6-29.4-34.5l-1058.5 62c-13.7 0.8-24.8 11.3-26.5 24.9z"/><path class="p" d="m1841.9 1907.1l-146.7 416.3 341.1 7.2 28.4-421c1.3-19.8-15.1-36.2-34.8-34.9l-159.3 10.6c-13 0.9-24.3 9.4-28.7 21.8z"/><path class="q" d="m1557 2329.3c-3.8 11.5 4.8 23.2 16.8 23.2h534.1c9.8 0 17.7-7.9 17.7-17.7v-22.9c0-10.1-8.4-18.1-18.4-17.7l-534.1 22.9c-7.4 0.3-13.8 5.2-16.1 12.2z"/><path class="r" d="m1428 1910.3l-7-0.9 48.7-384.5c3.1-23.9 22.7-42.3 46.7-43.7l914.7-55.3 0.4 7.1-914.7 55.3c-20.6 1.2-37.4 17-40 37.4z"/><path class="r" d="m1403.6 2103.1l-7.1-0.9 10.6-83.3 7 0.9z"/><path class="s" d="m1372.4 1102.3c-110.2 8.3-174.3-105.6-174.9-106.8l7.4-4c0.6 1.1 62.1 110.3 166.9 102.4z"/><path class="t" d="m1417.3 1098.1c0 6.5-5.3 11.8-11.8 11.8h-31.5c-6.6 0-11.9-5.3-11.9-11.8 0-6.6 5.3-11.9 11.9-11.9h31.5c6.5 0 11.8 5.3 11.8 11.9z"/><path class="u" d="m1205.1 869.1c0 0 39.6-202.9 156.1-222 0 0-33-16.6-67.4 1.4-34.4 18-121.4 116.8-117.8 225.6 23.6 8.5 29.1-5 29.1-5z"/><path class="v" d="m1184.9 859.5c-60.6 12.3-53.2 88.9-53.2 88.9-4.4 55.6 11.9 83.2 32.7 96.3 14.2 9 32.1 9.8 47.1 2.3 15-7.6 24.9-22.5 26.1-39.3 1.2-15.1 2.4-29.5 3.6-34.6 2.7-12.4 4.2-125.9-56.3-113.6z"/><path class="w" d="m1190.4 878.9c-12.6-2.2-25 4.5-30 16.2-36.2 83.9 8.2 138.4 30.1 139.6 23 1.2 22.5-109.5 17.6-137.9-2-11.8-9.6-16.5-17.7-17.9z"/></svg>