<svg version="1.2" xmlns="http://www.w3.org/2000/svg" viewBox="0 0 3096 2720" width="1000" height="879"><defs><linearGradient id="P" gradientUnits="userSpaceOnUse"/><linearGradient id="g1" x1="3700" y1="828.3" x2="3673.9" y2="1544.8" href="#P"><stop offset="0" stop-color="#fff"/><stop offset="1" stop-color="#f4f7fa"/></linearGradient><linearGradient id="g2" x1="2534.9" y1="432.7" x2="1750.4" y2="1563" href="#P"><stop stop-color="#ffc444"/><stop offset="1" stop-color="#f36f56"/></linearGradient><linearGradient id="g3" x1="2546.4" y1="304.3" x2="1762" y2="1434.6" href="#P"><stop stop-color="#ffc444"/><stop offset="1" stop-color="#f36f56"/></linearGradient><linearGradient id="g4" x1="2495.6" y1="265.9" x2="1711.1" y2="1396.2" href="#P"><stop stop-color="#ffc444"/><stop offset="1" stop-color="#f36f56"/></linearGradient><linearGradient id="g5" x1="2390.2" y1="305.9" x2="1605.8" y2="1436.2" href="#P"><stop stop-color="#ffc444"/><stop offset="1" stop-color="#f36f56"/></linearGradient><linearGradient id="g6" x1="3852.7" y1="2453.1" x2="2957.9" y2="3033" href="#P"><stop stop-color="#ffc444"/><stop offset="1" stop-color="#f36f56"/></linearGradient><linearGradient id="g7" x1="3367.8" y1="1963.9" x2="2267.5" y2="2507.4" href="#P"><stop offset="0" stop-color="#fff"/><stop offset="1" stop-color="#f4f7fa"/></linearGradient><linearGradient id="g8" x1="2822.9" y1="1151.8" x2="1781.6" y2="1652.8" href="#P"><stop offset="0" stop-color="#e38ddd"/><stop offset="1" stop-color="#9571f6"/></linearGradient><linearGradient id="g9" x1="2797" y1="1098" x2="1755.7" y2="1598.9" href="#P"><stop offset="0" stop-color="#e38ddd"/><stop offset="1" stop-color="#9571f6"/></linearGradient><linearGradient id="g10" x1="2771" y1="1044.1" x2="1729.8" y2="1545" href="#P"><stop offset="0" stop-color="#e38ddd"/><stop offset="1" stop-color="#9571f6"/></linearGradient><linearGradient id="g11" x1="2935.9" y1="898.4" x2="1894.7" y2="1399.4" href="#P"><stop offset="0" stop-color="#e38ddd"/><stop offset="1" stop-color="#9571f6"/></linearGradient><linearGradient id="g12" x1="3331.6" y1="2031.4" x2="2309.9" y2="2536" href="#P"><stop offset="0" stop-color="#e38ddd"/><stop offset="1" stop-color="#9571f6"/></linearGradient><linearGradient id="g13" x1="2626.2" y1="1424.2" x2="2241.2" y2="2501.8" href="#P"><stop offset="0" stop-color="#fff"/><stop offset="1" stop-color="#f4f7fa"/></linearGradient><linearGradient id="g14" x1="2621.3" y1="1922.5" x2="1467.5" y2="1858.9" href="#P"><stop stop-color="#ff9085"/><stop offset="1" stop-color="#fb6fbb"/></linearGradient><linearGradient id="g15" x1="2695.3" y1="1866.7" x2="1541.5" y2="1803.1" href="#P"><stop stop-color="#ff9085"/><stop offset="1" stop-color="#fb6fbb"/></linearGradient><linearGradient id="g16" x1="2739.9" y1="1809.2" x2="1586.1" y2="1745.7" href="#P"><stop stop-color="#ff9085"/><stop offset="1" stop-color="#fb6fbb"/></linearGradient><linearGradient id="g17" x1="2813.2" y1="1753.4" x2="1659.5" y2="1689.8" href="#P"><stop stop-color="#ff9085"/><stop offset="1" stop-color="#fb6fbb"/></linearGradient><linearGradient id="g18" x1="3059.3" y1="1870.2" x2="2246.2" y2="2213.2" href="#P"><stop stop-color="#ff9085"/><stop offset="1" stop-color="#fb6fbb"/></linearGradient><linearGradient id="g19" x1="1298.9" y1="1416.8" x2="1389.1" y2="1510.2" href="#P"><stop offset="0" stop-color="#e38ddd"/><stop offset="1" stop-color="#9571f6"/></linearGradient><linearGradient id="g20" x1="364.5" y1="139.4" x2="1194.1" y2="139.4" href="#P"><stop stop-color="#aa80f9"/><stop offset="1" stop-color="#6165d7"/></linearGradient><linearGradient id="g21" x1="1214.5" y1="658.2" x2="887.9" y2="1535" href="#P"><stop offset="0" stop-color="#e38ddd"/><stop offset="1" stop-color="#9571f6"/></linearGradient><linearGradient id="g22" x1="142.1" y1="884.4" x2="2011.4" y2="884.4" href="#P"><stop stop-color="#444b8c"/><stop offset="1" stop-color="#26264f"/></linearGradient><linearGradient id="g23" x1="218.9" y1="960.7" x2="1948.1" y2="960.7" href="#P"><stop stop-color="#aa80f9"/><stop offset="1" stop-color="#6165d7"/></linearGradient><linearGradient id="g24" x1="142.1" y1="2175.7" x2="2958" y2="2175.7" href="#P"><stop stop-color="#444b8c"/><stop offset="1" stop-color="#26264f"/></linearGradient><linearGradient id="g25" x1="2977.2" y1="1008" x2="1903.9" y2="3227.6" href="#P"><stop stop-color="#fff"/><stop offset="1" stop-color="#ebeff2"/></linearGradient><linearGradient id="g26" x1="1648.9" y1="163" x2="1061.4" y2="1743.7" href="#P"><stop stop-color="#ff9085"/><stop offset="1" stop-color="#fb6fbb"/></linearGradient><linearGradient id="g27" x1="776.2" y1="1088.6" x2="879.2" y2="1367.5" href="#P"><stop stop-color="#ff9085"/><stop offset="1" stop-color="#fb6fbb"/></linearGradient><linearGradient id="g28" x1="748.6" y1="1095.7" x2="852" y2="1375.6" href="#P"><stop stop-color="#ff9085"/><stop offset="1" stop-color="#fb6fbb"/></linearGradient><linearGradient id="g29" x1="776.6" y1="1253.3" x2="880.2" y2="1534.1" href="#P"><stop stop-color="#ff9085"/><stop offset="1" stop-color="#fb6fbb"/></linearGradient><linearGradient id="g30" x1="748.8" y1="1260" x2="852.8" y2="1541.6" href="#P"><stop stop-color="#ff9085"/><stop offset="1" stop-color="#fb6fbb"/></linearGradient><linearGradient id="g31" x1="2031" y1="2307.4" x2="2166.1" y2="2672.6" href="#P"><stop stop-color="#ffc444"/><stop offset="1" stop-color="#f36f56"/></linearGradient><linearGradient id="g32" x1="2509.8" y1="2454.1" x2="2523.5" y2="2452.9" href="#P"><stop stop-color="#aa80f9"/><stop offset="1" stop-color="#6165d7"/></linearGradient><linearGradient id="g33" x1="2027.7" y1="2298.5" x2="2165.4" y2="2670.6" href="#P"><stop offset="0" stop-color="#f36f56"/><stop offset="1" stop-color="#ffc444"/></linearGradient></defs><style>.a{fill:url(#g1)}.b{fill:url(#g2)}.c{fill:url(#g3)}.d{fill:url(#g4)}.e{fill:url(#g5)}.f{fill:url(#g6)}.g{fill:url(#g7)}.h{fill:url(#g8)}.i{fill:url(#g9)}.j{fill:url(#g10)}.k{fill:url(#g11)}.l{fill:url(#g12)}.m{fill:url(#g13)}.n{fill:url(#g14)}.o{fill:url(#g15)}.p{fill:url(#g16)}.q{fill:url(#g17)}.r{fill:url(#g18)}.s{fill:url(#g19)}.t{fill:url(#g20)}.u{fill:#fff}.v{fill:url(#g21)}.w{fill:#26264f}.x{fill:url(#g22)}.y{fill:url(#g23)}.z{opacity:.5;mix-blend-mode:soft-light;fill:#fff}.A{fill:url(#g24)}.B{fill:url(#g25)}.C{fill:url(#g26)}.D{fill:#d8dee8}.E{fill:url(#g27)}.F{fill:url(#g28)}.G{fill:url(#g29)}.H{fill:url(#g30)}.I{mix-blend-mode:soft-light;fill:#fff}.J{fill:url(#g31)}.K{mix-blend-mode:multiply;fill:url(#g32)}.L{opacity:.3;mix-blend-mode:multiply;fill:url(#g33)}</style><path class="a" d="m1443.2 1860.1l-424.2-439.5 1193-1151.5 424.2 439.5z"/><path class="b" d="m2324.4 891.5l-320-331.5 200.8-193.8 319.9 331.5z"/><path class="c" d="m2089.5 1118.2l-320-331.5 200.7-193.7 320 331.5z"/><path class="d" d="m1854.6 1345l-320-331.5 200.7-193.8 320 331.5z"/><path class="e" d="m1619.7 1571.7l-320-331.5 200.7-193.7 320 331.5z"/><g style="opacity:.3;mix-blend-mode:multiply"><path class="f" d="m2636.2 708.6l-225.5-233.6c-14.4 64.9-41.6 132.8-91 192.6-93.9 113.8-201.7 117.8-364.6 218.3-170.1 104.8-217.5 202.1-348.2 340.8-95.3 101.2-235.7 225.3-443.7 343.4l280 290z"/></g><path class="g" d="m1235.7 1845.1l-159.5-589.7 1600.6-433.1 159.5 589.7z"/><path class="h" d="m2474.9 1421.7l-120.3-444.7 269.3-72.9 120.3 444.8z"/><path class="i" d="m2159.8 1507l-120.3-444.7 269.2-72.9 120.4 444.7z"/><path class="j" d="m1844.6 1592.3l-120.3-444.8 269.3-72.8 120.3 444.7z"/><path class="k" d="m1529.5 1677.5l-120.4-444.7 269.3-72.8 120.4 444.7z"/><g style="opacity:.3;mix-blend-mode:multiply"><path class="l" d="m2836.3 1412l-105.1-388.4c-66.6 85.6-133.6 124.1-187.2 143.2-150.6 53.5-240.7-30.8-438.4 5-185.4 33.5-262.5 135.9-387.7 211.5-119.1 71.9-299.3 130.2-580.6 98l98.4 363.7z"/></g><path class="m" d="m1101.5 1775.2l144.8-593.4 1610.9 392.8-144.7 593.5z"/><path class="n" d="m2391.2 2002.3l109.2-447.6 271 66.1-109.1 447.6z"/><path class="o" d="m2074 1924.9l109.2-447.6 271 66.1-109.1 447.6z"/><path class="p" d="m1756.9 1847.6l109.1-447.6 271 66.1-109.1 447.6z"/><path class="q" d="m1439.7 1770.2l109.1-447.6 271 66.1-109.1 447.6z"/><g style="opacity:.3;mix-blend-mode:multiply"><path class="r" d="m2712.5 2168.1l92.8-380.9c-129.8 74.5-227.7 80-295.3 69.7-158.1-24-197.6-140.8-388.8-202.7-179.3-58-295.6-4.2-441.6 3.3-129.5 6.6-300.2-22.3-511.1-156.7l-67 274.4z"/></g><path class="s" d="m1342.4 1555.3c-25.8 25-67 24.2-91.9-1.6-24.9-25.8-24.2-66.9 1.6-91.8 25.9-25 67-24.2 91.9 1.6 24.9 25.8 24.2 66.9-1.6 91.8z"/><path class="t" d="m1194.1 1464.6c-64.1-60.1-148.6-157.7-186.8-295.7-50.2-181.1 23.3-272.5 15-579-5.2-193.8-10.8-328.9-108.5-401.2-76.6-56.7-200.5-68-275.7-15.4-62.5 43.6-98.7 136.5-109.8 202.8-9 54-1.7 93.3-32.9 121.7-31.8 29.1-66.2 12.6-95.9 34.2-60.4 43.7-25.4 188.4-19.8 211.8 62.8 260.2 302.6 435.6 408.1 510.9 87.2 62.3 222.1 145.2 406.3 209.9z"/><g style="opacity:.5;mix-blend-mode:soft-light"><path class="u" d="m1267 1513.5c-111.8-42.4-208-93.1-286-150.6-115.4-85.1-187.4-182.9-213.8-290.7-20.6-84.2-13-175.4-3.3-290.9 8-95.7 22.3-162.8 35-221.9 16.3-76.6 29.2-137 20.2-224.4-9.1-88.7-38.3-177-87-262.3l6.2-3.6c49.2 86.2 78.8 175.5 88 265.2 9 88.5-4 149.4-20.4 226.6-12.6 58.9-26.9 125.7-34.9 221-10 119.3-17.2 205.5 3.2 288.6 26 106.1 97 202.6 211.1 286.7 77.4 57 173 107.4 284.2 149.6z"/><path class="u" d="m772.8 715.8l-1.1-3.9c-51.5-172.7-143.8-280.7-212.2-341-74.1-65.3-136.9-90.1-137.5-90.3l2.6-6.7c0.6 0.3 64.3 25.4 139.4 91.4 68.6 60.5 161.1 168.5 213.3 340.6 14.3-7 68.2-35.3 122.1-90.8 57.6-59.4 127.1-163 130.8-319.6l7.1 0.1c-3.7 159.1-74.4 264.4-133 324.7-63.5 65.4-127.2 93.6-127.8 93.9z"/><path class="u" d="m759.4 973.7l-2.5-0.7c-84.4-24.8-180.1-121.8-284.5-288.4-77.5-123.7-131.1-241.8-131.6-242.9l6.5-3c2.1 4.7 212.3 465.6 409.2 526.7 10-14.4 69.1-97.4 143.4-170.3 42.9-42.1 115.2-69.3 168.3-84.7 57.3-16.7 105.2-23.5 105.7-23.6l1 7.1c-1.9 0.3-189.8 27.6-270 106.3-80.7 79.2-143.4 170.5-144 171.4z"/><path class="u" d="m952.4 1339.9l-7.1-0.8c-0.9-0.2-95.7-11.8-219.4-54.9-114.2-39.8-277.3-115.5-405.5-249.6l-247.3-258.7 5.2-4.9 247.3 258.6c127.2 133.1 289.1 208.2 402.5 247.8 103.8 36.2 187 50.1 211 53.6-47.1-87-38.3-181.7 25.7-274.2 49.3-71.2 114.6-116.7 115.3-117.1l4.1 5.8c-0.7 0.5-65.1 45.4-113.6 115.5-64.7 93.6-72 185.4-21.7 272.7z"/></g><path class="v" d="m1159 1325.9c-124.5 61-291.9 121-477.7 125.4-47.4 1.2-340.3 8.2-364.6-115-8.6-43.5 23.4-66.4 13-124.6-12.4-69-65.2-81-128.2-144.1-37.6-37.6-147.6-147.8-103.6-259.3 26.3-66.7 106.4-130.8 182.7-147.8 112-25 193.7 56.3 329.6 196.2 120.5 124.1 125.3 166.4 213.6 254.2 65.6 65.2 169.9 148.2 335.2 215z"/><g style="opacity:.5;mix-blend-mode:soft-light"><path class="u" d="m1156.1 1325c-137 0-276.6-36.2-416.8-108.2-203.9-104.9-358-259.3-451.4-370.5-65.2-77.5-107.9-177.4-127.1-296.8l7.1-1.2c18.9 118.2 61.2 216.9 125.5 293.4 92.9 110.7 246.3 264.4 449.2 368.7 194.7 100.1 388.1 130.4 574.9 90.2 140.2-30.1 271.7-97.3 390.9-199.5l4.6 5.5c-120.1 103-252.6 170.6-394 201-53.8 11.6-108.2 17.4-162.9 17.4z"/><path class="u" d="m499.2 1053.7l-3.2-0.4c-353.8-44.6-447.7-246.7-468-307.6q-0.6-1.7-0.8-2.2l6.4-3.1q0.3 0.5 1.1 3c20 59.7 112 257.5 459 302.4 5.9-28.7 44.9-246.9-86.9-401.3l5.4-4.6c143 167.5 88.3 408.3 87.8 410.7z"/><path class="u" d="m412.3 1328.2c-10.2 0-19.7-0.3-28.7-1-85.1-6.1-133.4-36.2-135.4-37.5l3.9-6.1c0.5 0.3 49 30.6 132.5 36.5 76.8 5.4 199.6-9.4 349.3-110.2-0.5-20.1-8.6-196.8-117.5-385.3l-117-202.6 6.2-3.5 117 202.5c116.1 201.1 118.5 388.9 118.5 390.8v1.9l-1.5 1.1c-135 91.2-248.7 113.4-327.3 113.4z"/></g><path class="w" d="m2958 2297.1l-2815.9-24v71.1c0 19.2 12.3 35.6 29 38.6l796.2 139.8c9.5 1.7 19 2.1 28.6 1.3l1931.5-159.4c17.3-1.5 30.6-17.9 30.6-37.7z"/><path class="w" d="m1936.2 2183.3l-1764.9 130c-31.6 2.3-57.3-22.4-57.3-55.2v-1314.3c0-32.8 25.7-59.4 57.3-59.4h1764.9c26 0 47 24 47 53.7v1188.1c0 29.6-21 55.2-47 57.1z"/><path class="x" d="m1964.3 2183.3l-1764.9 130c-31.6 2.3-57.3-22.4-57.3-55.2v-1314.3c0-32.8 25.7-59.4 57.3-59.4h1764.9c26 0 47.1 24 47.1 53.7v1188.1c0 29.6-21.1 55.2-47.1 57.1z"/><path class="y" d="m1909.3 2099.6l-1643.8 112.8c-25.7 1.8-46.6-18.5-46.6-45.3v-1150.6c0-26.8 20.9-48.6 46.6-48.7l1643.8-7.1c21.5-0.1 38.8 19.6 38.8 44v1048c0 24.4-17.3 45.4-38.8 46.9z"/><path class="u" d="m1144.2 920.3c0 12.3-9.1 22.2-20.3 22.2-11.2 0.1-20.4-9.8-20.4-22.1 0-12.2 9.2-22.1 20.4-22.1 11.2-0.1 20.3 9.8 20.3 22z"/><path class="z" d="m199.4 2313.3l1756-129.3 8.9-0.7c11.9-0.8 22.8-6.7 31.1-15.7-126.4-6.9-204.9-51.8-255.5-98.1-101.7-93-84-184.8-193.7-246-136.7-76.3-244.3 20.4-348-75-62.9-57.8-32.1-101-109.5-187.4-85.7-95.7-141.5-63.6-227.7-149.7-109-109-54.5-193.7-148.3-271.9-113.9-94.9-236.7-7.1-345-98.1-46.8-39.3-72.4-96.3-85.8-157h-82.5c-31.6 0-57.3 26.6-57.3 59.4v1314.3c0 32.8 25.7 57.5 57.3 55.2z"/><path class="A" d="m2034.6 2176.1l-1892.5 136.8 825.2 144.9c9.5 1.7 19 2.1 28.6 1.3l1962.1-162-893.2-120c-10-1.4-20.1-1.7-30.2-1z"/><path class="w" d="m418.3 2314.1l1575.6-115.6 487.6 65-1562 123.6z"/><path class="B" d="m2183.4 1830.1c0 145.4-118.6 270.8-266.9 280.3l-1652.7 104.9c174.7-11.1 314.3-147.8 314.3-305.5v-1813.8l1605.3 61.5z"/><path class="C" d="m1422 565.9c0 164.2-139.5 297.2-314.2 297-177.9-0.2-324.4-137.8-324.4-307.3 0-169.6 146.5-302.5 324.4-296.9 174.7 5.4 314.2 142.9 314.2 307.2z"/><path class="D" d="m2079.6 558.4l-577.3-9.8v-100.4l577.3 12.8z"/><path class="D" d="m2079.6 638.9l-577.3-7.5v-50.1l577.3 8.9z"/><path class="D" d="m2079.6 719.3l-577.3-5v-50.2l577.3 6.5z"/><path class="D" d="m2079.6 1150.5l-1242 17.2v-49.8l1242-14.2z"/><path class="E" d="m736.2 1169.1l56.3-0.8v-49.9l-56.3 0.6z"/><path class="D" d="m2079.6 1227.8l-1242 22.2v-49.8l1242-19.2z"/><path class="F" d="m736.2 1251.8l56.3-1v-49.9l-56.3 0.8z"/><path class="D" d="m2079.6 1305.1l-1242 27.2v-49.8l1242-24.2z"/><path class="G" d="m736.2 1334.5l56.3-1.2v-50l-56.3 1.1z"/><path class="D" d="m2079.6 1382.3l-1242 32.3v-49.8l1242-29.3z"/><path class="H" d="m736.2 1417.2l56.3-1.4v-50l-56.3 1.3z"/><path class="D" d="m2079.6 1536.9l-1343.4 45.7v-50.1l1343.4-42.4z"/><path class="D" d="m2079.6 1614.2l-1343.4 51.1v-50.1l1343.4-47.8z"/><path class="D" d="m2079.6 1691.4l-1343.4 56.6v-50.1l1343.4-53.3z"/><path class="D" d="m2079.6 1768.7l-1343.4 62v-50.1l1343.4-58.7z"/><path fill-rule="evenodd" class="u" d="m1206.4 737.1l-28.6-93.5-145.2-0.7-29.2 94.2h-92.4l142.4-397.1 103.3 2.1 139.3 395zm-48.6-163.6c-26.6-85.2-41.6-133.4-45-144.6q-5-16.8-7.2-26.6c-6 22.9-23.2 79.6-51.6 170.3z"/><path class="D" d="m2819.8 2547.8l-430.2 39.7c-12.2 1.1-23-7.9-24.1-20.1-1.2-12.2 7.8-23 20-24.1l430.2-39.7c12.2-1.1 23 7.9 24.1 20.1 1.1 12.2-7.8 23-20 24.1z"/><path class="D" d="m2937.2 2492.4l-95.6 8.8-5-53.9 95.6-8.8c0.8-0.1 1.4 0.4 1.5 1.2l4.7 51.2c0.1 0.8-0.4 1.5-1.2 1.5z"/><path class="w" d="m1194.1 2637.6l-40.1 3.7c-4.5 0.4-8.5-2.9-9-7.4-0.4-4.5 2.9-8.5 7.5-8.9l40.1-3.7z"/><path class="D" d="m1170.2 2631.6c0.7 8.3 7.2 14.9 15.5 15.8l170.4 19-9.5-103.1-164.1 49.9c-7.9 2.4-13.1 10.1-12.3 18.4z"/><path class="I" d="m1180.5 2623.4c0.2 2.3 6.2 3.7 14.3 3.4l166.9-20.1-2.6-28.2-165.1 39c-8.1 1.2-13.7 3.6-13.5 5.9z"/><path class="J" d="m2849.2 2526.8l-1497.1 140c-28.5 2.6-38-100.5-9.5-103.1l1497.1-140c16.9-1.5 32 11 33.6 27.9l3.8 41.6c1.6 17-10.9 32.1-27.9 33.6z"/><path class="I" d="m2517.6 2497.2l-1176.9 110.4-2.2-24.3 1176.9-110.4z"/><path class="K" d="m2533 2556.4l-13.7 1.3-9.5-103.6 13.7-1.2z"/><path class="I" d="m2847.1 2527.4l-13.7 1.3-9.6-103.5 13.7-1.3z"/><path class="L" d="m2839.7 2423.7l-717.5 68.1c-81.7 75.2-138.8 87.3-178.3 80.3-27.5-4.9-62.9-21.9-117.4-13.8-52.5 7.8-55.4 29.1-98.3 30.4-63.5 2.1-85.3-43.7-132.7-29.5-25.5 7.6-21.4 21.5-56.7 42.8-13 8-67.5 41-130 25.7-36.3-8.9-62.2-30.9-79.2-51.2-10.7 28.1-0.1 92.4 22.5 90.3l1497.1-140c17-1.5 29.5-16.6 27.9-33.6l-3.8-41.6c-1.6-16.9-16.7-29.4-33.6-27.9z"/></svg>