<svg version="1.2" xmlns="http://www.w3.org/2000/svg" viewBox="0 0 1200 800" width="1200" height="800"><defs><linearGradient id="P" gradientUnits="userSpaceOnUse"/><linearGradient id="g1" x1="37.8" y1="53.8" x2="1128" y2="53.8" href="#P"><stop stop-color="#b37cff"/><stop offset="1" stop-color="#f895e7"/></linearGradient><linearGradient id="g2" x1="71.8" y1="724.9" x2="310.9" y2="198.9" href="#P"><stop stop-color="#cb236d"/><stop offset="1" stop-color="#4c246d"/></linearGradient><linearGradient id="g3" x1="233.3" y1="320.9" x2="417.5" y2="281.5" href="#P"><stop stop-color="#a737d5"/><stop offset="1" stop-color="#ef497a"/></linearGradient><linearGradient id="g4" x1="-423" y1="-219.9" x2="-338.1" y2="-336" href="#P"><stop stop-color="#cb236d"/><stop offset="1" stop-color="#4c246d"/></linearGradient><linearGradient id="g5" x1="77.9" y1="288.4" x2="1124.2" y2="288.4" href="#P"><stop stop-color="#a737d5"/><stop offset="1" stop-color="#ef497a"/></linearGradient><linearGradient id="g6" x1="450.3" y1="96.1" x2="886.9" y2="96.1" href="#P"><stop stop-color="#2b3582"/><stop offset="1" stop-color="#150e42"/></linearGradient><linearGradient id="g7" x1="1151.1" y1="524.8" x2="206.7" y2="1732.9" href="#P"><stop stop-color="#fdf53f"/><stop offset=".66" stop-color="#e57a58"/><stop offset="1" stop-color="#d93c65"/></linearGradient><linearGradient id="g8" x1="622.2" y1="545" x2="699" y2="545" href="#P"><stop stop-color="#a737d5"/><stop offset="1" stop-color="#ef497a"/></linearGradient><linearGradient id="g9" x1="843" y1="541.1" x2="779.7" y2="603.3" href="#P"><stop stop-color="#a737d5"/><stop offset="1" stop-color="#ef497a"/></linearGradient><linearGradient id="g10" x1="482.9" y1="541.1" x2="546.2" y2="603.3" href="#P"><stop stop-color="#a737d5"/><stop offset="1" stop-color="#ef497a"/></linearGradient><linearGradient id="g11" x1="497" y1="503.4" x2="697.9" y2="503.4" href="#P"><stop stop-color="#a737d5"/><stop offset="1" stop-color="#ef497a"/></linearGradient><linearGradient id="g12" x1="1263.8" y1="315.4" x2="806.9" y2="624.4" href="#P"><stop stop-color="#a737d5"/><stop offset="1" stop-color="#ef497a"/></linearGradient><linearGradient id="g13" x1="1226.9" y1="276.1" x2="797.3" y2="566.6" href="#P"><stop stop-color="#a737d5"/><stop offset="1" stop-color="#ef497a"/></linearGradient><linearGradient id="g14" x1="1232.8" y1="284.4" x2="803.1" y2="575" href="#P"><stop stop-color="#a737d5"/><stop offset="1" stop-color="#ef497a"/></linearGradient><linearGradient id="g15" x1="1247.3" y1="303.3" x2="814.6" y2="596" href="#P"><stop stop-color="#a737d5"/><stop offset="1" stop-color="#ef497a"/></linearGradient><linearGradient id="g16" x1="1255.6" y1="211.8" x2="744.3" y2="610.8" href="#P"><stop stop-color="#cb236d"/><stop offset="1" stop-color="#4c246d"/></linearGradient><linearGradient id="g17" x1="1209.1" y1="168.6" x2="728.5" y2="543.8" href="#P"><stop stop-color="#cb236d"/><stop offset="1" stop-color="#4c246d"/></linearGradient><linearGradient id="g18" x1="1216.7" y1="177.9" x2="735.9" y2="553.2" href="#P"><stop stop-color="#cb236d"/><stop offset="1" stop-color="#4c246d"/></linearGradient><linearGradient id="g19" x1="1235.3" y1="198.9" x2="751.1" y2="576.8" href="#P"><stop stop-color="#cb236d"/><stop offset="1" stop-color="#4c246d"/></linearGradient><linearGradient id="g20" x1="638.2" y1="52.7" x2="1068.3" y2="52.7" href="#P"><stop stop-color="#53d8ff"/><stop offset="1" stop-color="#3840f7"/></linearGradient><linearGradient id="g21" x1="838.1" y1="103.5" x2="1035.8" y2="103.5" href="#P"><stop stop-color="#53d8ff"/><stop offset="1" stop-color="#3840f7"/></linearGradient><linearGradient id="g22" x1="838.1" y1="125.2" x2="1035.8" y2="125.2" href="#P"><stop stop-color="#53d8ff"/><stop offset="1" stop-color="#3840f7"/></linearGradient><linearGradient id="g23" x1="896" y1="140.2" x2="1035.8" y2="140.2" href="#P"><stop stop-color="#53d8ff"/><stop offset="1" stop-color="#3840f7"/></linearGradient><linearGradient id="g24" x1="713" y1="146.9" x2="1018.3" y2="146.9" href="#P"><stop stop-color="#53d8ff"/><stop offset="1" stop-color="#3840f7"/></linearGradient><linearGradient id="g25" x1="790.3" y1="166.2" x2="792.3" y2="166.2" href="#P"><stop stop-color="#53d8ff"/><stop offset="1" stop-color="#3840f7"/></linearGradient><linearGradient id="g26" x1="868.7" y1="248.1" x2="870.7" y2="248.1" href="#P"><stop stop-color="#53d8ff"/><stop offset="1" stop-color="#3840f7"/></linearGradient><linearGradient id="g27" x1="925.3" y1="210" x2="930.2" y2="210" href="#P"><stop stop-color="#53d8ff"/><stop offset="1" stop-color="#3840f7"/></linearGradient><linearGradient id="g28" x1="985" y1="251.8" x2="987" y2="251.8" href="#P"><stop stop-color="#53d8ff"/><stop offset="1" stop-color="#3840f7"/></linearGradient><linearGradient id="g29" x1="689.9" y1="124.2" x2="709.3" y2="124.2" href="#P"><stop stop-color="#53d8ff"/><stop offset="1" stop-color="#3840f7"/></linearGradient><linearGradient id="g30" x1="689.9" y1="122.3" x2="709.3" y2="122.3" href="#P"><stop stop-color="#53d8ff"/><stop offset="1" stop-color="#3840f7"/></linearGradient><linearGradient id="g31" x1="694.2" y1="305.7" x2="1030.9" y2="305.7" href="#P"><stop stop-color="#53d8ff"/><stop offset="1" stop-color="#3840f7"/></linearGradient><linearGradient id="g32" x1="694.2" y1="302.1" x2="1030.9" y2="302.1" href="#P"><stop stop-color="#53d8ff"/><stop offset="1" stop-color="#3840f7"/></linearGradient><linearGradient id="g33" x1="601.2" y1="659.3" x2="637" y2="659.3" href="#P"><stop stop-color="#2b3582"/><stop offset="1" stop-color="#150e42"/></linearGradient><linearGradient id="g34" x1="696.3" y1="630.1" x2="557.6" y2="739.1" href="#P"><stop stop-color="#53d8ff"/><stop offset="1" stop-color="#3840f7"/></linearGradient><linearGradient id="g35" x1="890.7" y1="35.4" x2="738.3" y2="193.4" href="#P"><stop stop-color="#53d8ff"/><stop offset="1" stop-color="#3840f7"/></linearGradient><linearGradient id="g36" x1="808.8" y1="127.4" x2="723" y2="225.7" href="#P"><stop stop-color="#fdf53f"/><stop offset="1" stop-color="#d93c65"/></linearGradient><linearGradient id="g37" x1="824.3" y1="106.1" x2="785.5" y2="156.2" href="#P"><stop stop-color="#53d8ff"/><stop offset="1" stop-color="#3840f7"/></linearGradient><linearGradient id="g38" x1="553.1" y1="403" x2="600.9" y2="403" href="#P"><stop stop-color="#f9b776"/><stop offset="1" stop-color="#f47960"/></linearGradient><linearGradient id="g39" x1="624.9" y1="633.1" x2="617.7" y2="696" href="#P"><stop stop-color="#f9b776"/><stop offset="1" stop-color="#f47960"/></linearGradient><linearGradient id="g40" x1="716.6" y1="661.6" x2="581.7" y2="767.5" href="#P"><stop stop-color="#53d8ff"/><stop offset="1" stop-color="#3840f7"/></linearGradient><linearGradient id="g41" x1="655.7" y1="661.8" x2="707.3" y2="661.8" href="#P"><stop stop-color="#2b3582"/><stop offset="1" stop-color="#150e42"/></linearGradient><linearGradient id="g42" x1="685.5" y1="641" x2="678.4" y2="702.5" href="#P"><stop stop-color="#f9b776"/><stop offset="1" stop-color="#f47960"/></linearGradient><linearGradient id="g43" x1="998.3" y1="496.8" x2="755.1" y2="874.3" href="#P"><stop stop-color="#7c27dd"/><stop offset="1" stop-color="#2b41d9"/></linearGradient><linearGradient id="g44" x1="826.1" y1="280.9" x2="593.9" y2="790.4" href="#P"><stop stop-color="#a737d5"/><stop offset="1" stop-color="#ef497a"/></linearGradient><linearGradient id="g45" x1="831.6" y1="210.8" x2="772.1" y2="294.7" href="#P"><stop stop-color="#f9b776"/><stop offset="1" stop-color="#f47960"/></linearGradient><linearGradient id="g46" x1="784.1" y1="185.3" x2="726.5" y2="266.6" href="#P"><stop stop-color="#f9b776"/><stop offset="1" stop-color="#f47960"/></linearGradient><linearGradient id="g47" x1="648.4" y1="248.4" x2="619.7" y2="372.2" href="#P"><stop stop-color="#f9b776"/><stop offset="1" stop-color="#f47960"/></linearGradient><linearGradient id="g48" x1="661.8" y1="215.1" x2="677.6" y2="308.1" href="#P"><stop stop-color="#f9b776"/><stop offset="1" stop-color="#f47960"/></linearGradient><linearGradient id="g49" x1="582.1" y1="235.6" x2="620.1" y2="195.3" href="#P"><stop stop-color="#2b3582"/><stop offset="1" stop-color="#150e42"/></linearGradient><linearGradient id="g50" x1="597.4" y1="326.5" x2="594.3" y2="254.4" href="#P"><stop stop-color="#f9b776"/><stop offset="1" stop-color="#f47960"/></linearGradient><linearGradient id="g51" x1="716.5" y1="323.4" x2="655.5" y2="435.4" href="#P"><stop stop-color="#a737d5"/><stop offset="1" stop-color="#ef497a"/></linearGradient><linearGradient id="g52" x1="669.8" y1="404.1" x2="609.9" y2="510.7" href="#P"><stop stop-color="#2b3582"/><stop offset="1" stop-color="#150e42"/></linearGradient><linearGradient id="g53" x1="239.1" y1="593.1" x2="428.2" y2="715.8" href="#P"><stop stop-color="#53d8ff"/><stop offset="1" stop-color="#3840f7"/></linearGradient><linearGradient id="g54" x1="145.1" y1="552.6" x2="442.8" y2="601.7" href="#P"><stop stop-color="#53d8ff"/><stop offset="1" stop-color="#3840f7"/></linearGradient><linearGradient id="g55" x1="231.9" y1="642.8" x2="235.1" y2="771" href="#P"><stop stop-color="#2b3582"/><stop offset="1" stop-color="#150e42"/></linearGradient><linearGradient id="g56" x1="94.8" y1="574" x2="357.8" y2="739.6" href="#P"><stop stop-color="#b37cff"/><stop offset="1" stop-color="#f895e7"/></linearGradient><linearGradient id="g57" x1="411" y1="621.4" x2="132.2" y2="621.4" href="#P"><stop stop-color="#a737d5"/><stop offset="1" stop-color="#ef497a"/></linearGradient><linearGradient id="g58" x1="547.3" y1="731.9" x2="480.7" y2="882.5" href="#P"><stop stop-color="#fdf53f"/><stop offset=".66" stop-color="#e57a58"/><stop offset="1" stop-color="#d93c65"/></linearGradient><linearGradient id="g59" x1="599.4" y1="753.6" x2="526.4" y2="918.9" href="#P"><stop stop-color="#fdf53f"/><stop offset=".66" stop-color="#e57a58"/><stop offset="1" stop-color="#d93c65"/></linearGradient><linearGradient id="g60" x1="327.9" y1="744" x2="341.3" y2="679.5" href="#P"><stop stop-color="#fdf53f"/><stop offset=".66" stop-color="#e57a58"/><stop offset="1" stop-color="#d93c65"/></linearGradient><linearGradient id="g61" x1="414.2" y1="741.1" x2="459.8" y2="741.1" href="#P"><stop stop-color="#cb236d"/><stop offset="1" stop-color="#4c246d"/></linearGradient><linearGradient id="g62" x1="454.2" y1="633" x2="438.5" y2="741.9" href="#P"><stop stop-color="#cb236d"/><stop offset="1" stop-color="#4c246d"/></linearGradient><linearGradient id="g63" x1="416.5" y1="723.7" x2="428.8" y2="723.7" href="#P"><stop stop-color="#f9b776"/><stop offset="1" stop-color="#f47960"/></linearGradient><linearGradient id="g64" x1="485.7" y1="719.4" x2="522.5" y2="719.4" href="#P"><stop stop-color="#cb236d"/><stop offset="1" stop-color="#4c246d"/></linearGradient><linearGradient id="g65" x1="524.3" y1="662.8" x2="511.4" y2="752.6" href="#P"><stop stop-color="#cb236d"/><stop offset="1" stop-color="#4c246d"/></linearGradient><linearGradient id="g66" x1="348.2" y1="618.5" x2="445.9" y2="618.5" href="#P"><stop stop-color="#2b3582"/><stop offset="1" stop-color="#150e42"/></linearGradient><linearGradient id="g67" x1="474.9" y1="721.7" x2="489.6" y2="721.7" href="#P"><stop stop-color="#f9b776"/><stop offset="1" stop-color="#f47960"/></linearGradient><linearGradient id="g68" x1="524.6" y1="632.1" x2="252.5" y2="940.6" href="#P"><stop stop-color="#2b3582"/><stop offset="1" stop-color="#150e42"/></linearGradient><linearGradient id="g69" x1="370.7" y1="519.8" x2="380.8" y2="494.2" href="#P"><stop stop-color="#f9b776"/><stop offset="1" stop-color="#f47960"/></linearGradient><linearGradient id="g70" x1="423.5" y1="504.8" x2="539.9" y2="695.9" href="#P"><stop stop-color="#fdf53f"/><stop offset=".66" stop-color="#e57a58"/><stop offset="1" stop-color="#d93c65"/></linearGradient><linearGradient id="g71" x1="455.1" y1="589.6" x2="489.2" y2="589.6" href="#P"><stop stop-color="#f9b776"/><stop offset="1" stop-color="#f47960"/></linearGradient><linearGradient id="g72" x1="434.8" y1="501.4" x2="386.1" y2="549.9" href="#P"><stop stop-color="#f9b776"/><stop offset="1" stop-color="#f47960"/></linearGradient><linearGradient id="g73" x1="393.7" y1="432" x2="476.5" y2="513.8" href="#P"><stop stop-color="#2b3582"/><stop offset="1" stop-color="#150e42"/></linearGradient><linearGradient id="g74" x1="432.5" y1="470.3" x2="365.8" y2="536.8" href="#P"><stop stop-color="#f9b776"/><stop offset="1" stop-color="#f47960"/></linearGradient><linearGradient id="g75" x1="-7855.7" y1="-8270.4" x2="-7718.7" y2="-8124.4" href="#P"><stop stop-color="#9cfffb"/><stop offset="1" stop-color="#9bfffa"/></linearGradient><linearGradient id="g76" x1="12080.3" y1="-3244.7" x2="11890.2" y2="-3182" href="#P"><stop stop-color="#9cfffb"/><stop offset="1" stop-color="#9bfffa"/></linearGradient><linearGradient id="g77" x1="704.9" y1="748.2" x2="711.9" y2="912" href="#P"><stop stop-color="#53d8ff"/><stop offset="1" stop-color="#3840f7"/></linearGradient><linearGradient id="g78" x1="751.3" y1="744.7" x2="758.2" y2="905.5" href="#P"><stop stop-color="#53d8ff"/><stop offset="1" stop-color="#3840f7"/></linearGradient><linearGradient id="g79" x1="565.4" y1="753.4" x2="572.3" y2="914.9" href="#P"><stop stop-color="#53d8ff"/><stop offset="1" stop-color="#3840f7"/></linearGradient><linearGradient id="g80" x1="480.4" y1="599.9" x2="467.1" y2="698.3" href="#P"><stop stop-color="#2b3582"/><stop offset="1" stop-color="#150e42"/></linearGradient></defs><style>.a{opacity:.5;fill:url(#g1)}.b{fill:url(#g2)}.c{opacity:.7;fill:#fff}.d{fill:url(#g3)}.e{fill:url(#g4)}.f{fill:url(#g5)}.g{fill:url(#g6)}.h{fill:url(#g7)}.i{opacity:.5;fill:#fff}.j{fill:url(#g8)}.k{fill:url(#g9)}.l{fill:url(#g10)}.m{fill:url(#g11)}.n{fill:#fff}.o{fill:url(#g12)}.p{opacity:.9;fill:#fff}.q{fill:url(#g13)}.r{fill:url(#g14)}.s{fill:url(#g15)}.t{fill:url(#g16)}.u{fill:url(#g17)}.v{fill:url(#g18)}.w{fill:url(#g19)}.x{fill:url(#g20)}.y{fill:url(#g21)}.z{fill:url(#g22)}.A{fill:url(#g23)}.B{fill:url(#g24)}.C{fill:url(#g25)}.D{fill:url(#g26)}.E{fill:url(#g27)}.F{fill:url(#g28)}.G{fill:url(#g29)}.H{fill:url(#g30)}.I{fill:url(#g31)}.J{fill:url(#g32)}.K{fill:url(#g33)}.L{fill:url(#g34)}.M{fill:url(#g35)}.N{fill:url(#g36)}.O{fill:url(#g37)}.P{fill:url(#g38)}.Q{fill:url(#g39)}.R{fill:url(#g40)}.S{fill:url(#g41)}.T{fill:url(#g42)}.U{fill:url(#g43)}.V{fill:url(#g44)}.W{fill:url(#g45)}.X{fill:url(#g46)}.Y{fill:url(#g47)}.Z{fill:url(#g48)}.a0{fill:url(#g49)}.a1{fill:url(#g50)}.a2{fill:url(#g51)}.a3{fill:url(#g52)}.a4{fill:#e992ec}.a5{fill:url(#g53)}.a6{fill:url(#g54)}.a7{fill:url(#g55)}.a8{opacity:.6;fill:#fff}.a9{fill:url(#g56)}.aa{opacity:.8;fill:#fff}.ab{fill:url(#g57)}.ac{fill:url(#g58)}.ad{fill:url(#g59)}.ae{fill:url(#g60)}.af{fill:url(#g61)}.ag{fill:url(#g62)}.ah{fill:url(#g63)}.ai{fill:url(#g64)}.aj{fill:url(#g65)}.ak{fill:url(#g66)}.al{fill:url(#g67)}.am{fill:url(#g68)}.an{fill:url(#g69)}.ao{fill:url(#g70)}.ap{fill:#f2bd4a}.aq{fill:url(#g71)}.ar{fill:url(#g72)}.as{fill:url(#g73)}.at{fill:url(#g74)}.au{fill:url(#g75)}.av{fill:url(#g76)}.aw{fill:url(#g77)}.ax{fill:url(#g78)}.ay{fill:url(#g79)}.az{fill:url(#g80)}</style><path class="a" d="m231.6 97.2c-84.6 69.9 28.5 159.7-30.1 198.8-58.6 39.2-301.2 115.6-56.9 267.1 244.3 151.6 256.7 225.2 431 129.2 174.4-95.9 156.3-86.4 299.8-21.5 143.5 64.9 293.5-36 242.5-155.8-51-119.8-83.5-118.3-25.3-194.8 58.3-76.5-32.8-288.2-233.3-124.6-200.4 163.6-325.9 41.5-347.9-19.7-22-61.2-146.2-189.1-279.8-78.7z"/><path class="b" d="m501.7 734.8c0 0-20.2-160.1-117.7-189.8-93.5-28.6-108.1 17.5-159.7-35.9-2.3-2.5-6.4-0.6-6.2 2.7 3 36.3 20.7 157.4 126.8 159.6 122.5 2.5 156.8 63.4 156.8 63.4z"/><path class="c" d="m241.1 543.1c1.5 2.8 3.5 5.4 5.5 8 1.1 1.2 2.1 2.5 3.2 3.7l3.4 3.6c2.5 2.2 4.8 4.5 7.4 6.5 1.3 1.1 2.5 2.1 3.8 3.1l4 2.9c10.8 7.6 22.6 13.5 34.9 18.3 12.2 4.9 25 8.1 37.8 11l9.8 1.7c3.2 0.5 6.4 1.1 9.8 1.6l4.9 0.8 4.9 1c3.3 0.6 6.5 1.4 9.8 2.1 6.5 1.7 13 3.5 19.3 5.7 3.2 1 6.3 2.3 9.4 3.5 3.1 1.4 6.2 2.6 9.2 4.2 12.2 5.7 23.5 13.2 33.7 22.2 10.1 9 18.8 19.5 26.3 30.6 7.5 11.2 13.9 23 20.2 34.6 0.9 1.7 0.3 3.8-1.4 4.7-1.7 0.9-3.8 0.3-4.7-1.4q0 0 0 0c-6.2-11.8-12.2-23.5-19.3-34.4-7.1-11-15.3-21.2-24.9-29.9-9.5-8.8-20.4-16.2-32.1-22-2.9-1.6-5.9-2.8-8.8-4.2-3.1-1.2-6.1-2.5-9.2-3.6-6.1-2.3-12.4-4.1-18.7-5.8-3.2-0.8-6.4-1.7-9.6-2.3l-4.8-1-4.9-0.9c-3.2-0.6-6.5-1.2-9.8-1.9l-9.8-1.9c-13-3.1-25.9-6.5-38.2-11.7-12.4-5.1-24.3-11.3-35.1-19.2-10.7-7.9-20.7-17.1-27.4-29-0.2-0.3-0.1-0.8 0.3-1 0.3-0.2 0.8-0.1 1 0.3q0 0 0 0z"/><g style="opacity:.6"><path class="d" d="m511.3 740.8l-10.8-3.6c-11.2-76.2-54.4-211.1-137.4-232.7-56.3-14.5-81.2-38.9-90.4-100.3-6.1-41-25.5-66.1-37.7-78.2-2.5-2.5-0.2-6.7 3.2-5.8 34.3 8.7 124.6 36.6 176.9 100.6 65.5 80.1 96.2 320 96.2 320z"/><path class="c" d="m296.9 360c4.5 1.4 8.5 3.2 12.5 5.2 2.1 1 4.1 2 6 3.1l2.9 1.6 1.5 0.9 1.4 0.8 5.7 3.6c1.9 1.2 3.7 2.5 5.5 3.8l2.8 1.9c0.9 0.6 1.8 1.3 2.6 2l5.4 4.1c14 11.1 26.7 23.7 38.4 37.1l4.4 5 1.1 1.2 1.1 1.3 2 2.6 8.4 10.5 7.9 10.7 3.9 5.4c1.3 1.9 2.5 3.7 3.7 5.6l7.3 11.1c1.3 1.9 2.4 3.8 3.6 5.7l3.4 5.7 3.4 5.8 1.7 2.8c0.6 1 1.2 1.9 1.7 2.9l6.2 11.8 3.2 5.9c1 2 1.9 4 2.9 6l5.8 12 1.5 3c0.4 1 0.8 2.1 1.3 3.1l2.7 6.1c1.7 4.1 3.5 8.1 5.3 12.2l4.9 12.4 2.5 6.2c0.7 2.1 1.5 4.2 2.2 6.3l4.6 12.5c1.5 4.2 2.8 8.4 4.2 12.7l2.2 6.3c0.6 2.1 1.3 4.2 1.9 6.3l3.9 12.8 3.7 12.8q0.9 3.2 1.7 6.5l1.7 6.4c1.2 4.3 2.2 8.6 3.2 12.9 0.6 2.2 1.1 4.4 1.6 6.5l1.5 6.5c1.9 8.7 3.7 17.4 5.2 26.3 0.3 1.9-0.9 3.7-2.8 4-1.9 0.3-3.7-1-4-2.9-1.4-8.6-3.1-17.3-5-25.9l-1.4-6.5c-0.5-2.1-1-4.3-1.5-6.4-1-4.3-2-8.6-3.1-12.9l-1.6-6.4q-0.8-3.2-1.7-6.4l-3.5-12.8-3.7-12.7c-0.7-2.1-1.3-4.2-1.9-6.3l-2.1-6.3c-1.3-4.2-2.7-8.4-4.1-12.6l-4.4-12.4c-0.7-2.1-1.4-4.2-2.2-6.3l-2.4-6.1-4.8-12.4c-1.6-4-3.4-8.1-5.1-12.1l-2.6-6.1c-0.5-1-0.9-2.1-1.3-3.1l-1.4-3-5.7-11.9c-0.9-2-1.8-4-2.8-6l-3.1-5.8-6.1-11.7c-0.5-1-1.1-2-1.6-2.9l-1.7-2.9-3.3-5.7-3.3-5.7c-1.1-1.9-2.2-3.8-3.5-5.6l-7.2-11.1c-1.2-1.9-2.3-3.7-3.6-5.6l-3.8-5.3-7.7-10.8-8.2-10.4-2-2.6-1.1-1.3-1-1.2-4.4-5c-11.4-13.3-23.9-25.9-37.6-36.9l-5.2-4.1c-0.8-0.6-1.7-1.3-2.6-2l-2.7-1.9c-1.8-1.2-3.5-2.5-5.3-3.7l-5.6-3.6-1.4-0.9-1.4-0.8-2.9-1.6c-1.8-1.1-3.8-2.1-5.8-3.1-1.9-1-3.9-1.8-5.9-2.8-2-0.8-4-1.6-6-2.2l-0.1-0.1c-0.8-0.2-1.3-1.1-1.1-2 0.3-0.9 1.2-1.3 2.1-1.1z"/></g><g style="opacity:.7"><path class="e" d="m520.7 704.1c-0.6 2.3-3.9 2.2-4.2-0.2-6.3-41.1-36.4-220.7-93.9-302.3-64.4-91.4-162.5-173.6-12-289.4 1.9-1.5 4.5 0.1 4.2 2.4-1.7 13.2-2.2 44.2 23.3 74.6 33.6 40 55.6 118.2 22.4 212.2 0 0 76.5 235.5 60.2 302.7z"/><path class="c" d="m396.6 147.6c-2 1.9-3.9 4.1-5.7 6.4l-1.3 1.7-1.3 1.8c-0.8 1.1-1.6 2.3-2.4 3.6-3.1 4.8-5.7 10-7.9 15.3l-1.6 4.1c-0.6 1.3-1 2.7-1.4 4-1 2.8-1.7 5.6-2.5 8.4-0.4 1.4-0.6 2.8-0.9 4.2-0.3 1.4-0.7 2.8-0.9 4.2l-0.6 4.3-0.3 2.2c-0.1 0.7-0.2 1.4-0.3 2.1-1.2 11.5-0.9 23.2 0.5 34.6l1.2 8.6 1.7 8.6 0.5 2.1 0.5 2.1 1.1 4.2 1.1 4.2c0.3 1.4 0.8 2.8 1.2 4.1 0.9 2.8 1.8 5.6 2.7 8.3l3 8.2c0.5 1.3 1 2.7 1.5 4.1l1.7 4 3.5 8c1.2 2.6 2.5 5.2 3.7 7.8l1.9 3.9 1 2 1 1.9 4.1 7.7 2.1 3.8c0.7 1.3 1.5 2.5 2.2 3.8 11.7 20.1 25 39.2 39.3 57.5v0.1c1.2 1.5 0.9 3.6-0.6 4.8-1.5 1.2-3.7 0.9-4.8-0.6q-0.1 0-0.1 0c-14.1-18.9-27.3-38.4-38.8-59-0.7-1.3-1.4-2.6-2.1-3.9l-2.1-3.9-4-7.9-1-1.9-1-2-1.8-4c-1.2-2.7-2.5-5.4-3.7-8.1l-3.3-8.2-1.7-4.1c-0.5-1.4-1-2.8-1.5-4.1l-2.9-8.4c-0.9-2.8-1.7-5.7-2.6-8.5-0.4-1.4-0.8-2.8-1.2-4.2l-1-4.3-1.1-4.4-0.5-2.1-0.4-2.2-1.6-8.7-1.1-8.8c-1.2-11.8-1.3-23.7 0.2-35.4 0.1-0.8 0.1-1.5 0.3-2.3l0.3-2.1 0.8-4.4c0.2-1.5 0.6-2.9 0.9-4.4 0.4-1.4 0.6-2.9 1.1-4.3 0.8-2.8 1.5-5.7 2.6-8.5 0.5-1.3 0.9-2.8 1.5-4.1l1.7-4.1c2.4-5.4 5.2-10.7 8.5-15.6 3.3-5 6.8-9.6 11.3-13.8 0.4-0.4 1.1-0.3 1.4 0.1 0.4 0.4 0.4 1 0 1.4z"/></g><path class="f" d="m210.9 733.5c0 0-142.7-78.5-132.5-195.3 10.2-116.9 134.8-143.8 273.9-52.9 139.6 91.3 407.8 142.3 536.6 35 128.8-107.3 129-231.9 129-231.9l106.3 96.2c0 0-31.9 286.9-424.8 270.5 0 0-98.8-0.8-209.8-65.8-100.6-58.8-179.4-138.1-242.2-116.7-77.3 26.4-67.7 155.7 62.8 219.7z"/><path class="g" d="m489 97.4c-17 1.1-30.3 14.9-30.7 31.9-2.6 103.9-10.9 462.3-6.9 589.2 0.4 13.5 11.2 24.3 24.6 24.7 66.6 2.2 258 7.7 366.8 3.2 22.7-1 40.7-19.4 41.2-42 2.2-109.1 7.2-415.8-4.7-556.3-1.4-16.8-14.6-30.2-31.4-31.9-72.5-7.2-264.9-24.9-358.9-18.8z"/><path class="h" d="m485.3 161.6c-3.6 85.1-15.1 368.1-11.4 472.8 0.5 15.3 12.6 27.7 27.9 28.6 62.9 3.6 224.2 11.8 316.5 4.4 16.6-1.4 29.7-14.8 30.6-31.4 4.7-86.8 18.1-350.4 14.6-453.9-0.6-16.5-13.3-30-29.8-31.5-68.1-6.1-242.9-20.6-321.3-16.3-14.7 0.8-26.4 12.6-27.1 27.3z"/><path fill-rule="evenodd" class="c" d="m668.6 732.9c-15.6 0-28.2-12.7-28.2-28.3 0-15.6 12.6-28.2 28.2-28.2 15.6 0 28.3 12.6 28.3 28.2 0 15.6-12.7 28.3-28.3 28.3zm0-54.5c-14.5 0-26.2 11.7-26.2 26.2 0 14.5 11.7 26.3 26.2 26.3 14.5 0 26.3-11.8 26.3-26.3 0-14.5-11.8-26.2-26.3-26.2z"/><path class="i" d="m622.7 115.5c0 3.2 2.5 5.8 5.7 6 15.7 0.8 60 3.1 79.8 4.3 3.9 0.2 6.9-3.3 6.2-7.1l-0.1-0.7c-0.5-2.6-2.7-4.6-5.4-4.8-13.3-1.2-53.7-4.6-80.4-3.7-3.2 0.1-5.8 2.8-5.8 6z"/><path class="c" d="m498.4 182.1c4 51.9 14.7 218.8 17.7 266.5 0.4 7.2 6.4 12.8 13.6 12.9l285.5 3.4c7.4 0.1 13.6-5.7 13.9-13.1l13.7-258.3c0.4-7.7-5.6-14.3-13.3-14.6l-316.8-11.7c-8.2-0.3-14.9 6.7-14.3 14.9z"/><path class="j" d="m699 581.6c0 20.2-16.4 36.6-36.6 36.6-20.3 0-40.2-15.3-40.2-35.5 0-20.2 19.9-37.7 40.2-37.7 20.2 0 36.6 16.4 36.6 36.6z"/><path class="c" d="m655.7 604.1c-2.5 0-4.5-1.8-4.8-4.3l-3.3-30.8c-0.3-3.1 2.2-5.6 5.2-5.4l3.3 0.3c2.5 0.2 4.5 2.3 4.5 4.8v30.6c0 2.7-2.2 4.9-4.9 4.8z"/><path class="c" d="m666.2 568.2v31.1c0 2.7 2.1 4.8 4.8 4.9h0.8c2.6 0 4.8-2.1 4.9-4.7l1.1-31.1c0.1-2.7-2.1-5-4.9-5h-1.9c-2.6 0-4.8 2.2-4.8 4.8z"/><path class="k" d="m776.1 581.6c0 15.4-12.5 27.9-27.9 27.9-15.4 0-30.6-11.7-30.6-27.1 0-15.4 15.2-28.7 30.6-28.7 15.4 0 27.9 12.5 27.9 27.9z"/><path class="c" d="m736.6 569.6v24.9c0 2.1 1.7 3.8 3.8 3.9h0.7c2.1 0 3.8-1.7 3.9-3.8l0.9-24.8c0.1-2.2-1.7-4.1-3.9-4.1h-1.5c-2.2 0-3.9 1.8-3.9 3.9z"/><path class="c" d="m751.5 568.8l-1.3 26c-0.1 1.9 2.3 2.9 3.6 1.6l12.6-13c0.7-0.8 0.8-2 0.1-2.8l-11.3-13.1c-1.2-1.4-3.6-0.6-3.7 1.3z"/><path class="l" d="m549.8 581.6c0 15.4 12.5 27.9 27.9 27.9 15.4 0 30.6-11.7 30.6-27.1 0-15.4-15.2-28.7-30.6-28.7-15.4 0-27.9 12.5-27.9 27.9z"/><path class="c" d="m589.3 569.6v24.9c0 2.1-1.7 3.8-3.9 3.9h-0.6c-2.1 0-3.8-1.7-3.9-3.8l-0.9-24.8c-0.1-2.2 1.7-4.1 3.9-4.1h1.5c2.1 0 3.9 1.8 3.9 3.9z"/><path class="c" d="m574.3 568.8l1.3 26c0.1 1.9-2.2 2.9-3.5 1.6l-12.6-13c-0.8-0.8-0.8-2-0.1-2.8l11.3-13.1c1.2-1.4 3.5-0.6 3.6 1.3z"/><path class="c" d="m497 509.8l0.3 3.2c0.3 3 2.8 5.3 5.8 5.3h313c3.2 0 5.8-2.6 5.8-5.8 0-3.2-2.5-5.8-5.7-5.8l-313.4-3.3c-3.4 0-6.1 3-5.8 6.4z"/><path class="m" d="m697.3 514.5c-0.3-3-0.8-6-1.2-9.1l-193.3-2c-3.4 0-6.1 3-5.8 6.4l0.3 3.2c0.3 3 2.8 5.3 5.8 5.3h194.8q-0.3-2-0.6-3.8z"/><path class="n" d="m709.4 511.5c0 5.8-4.7 10.5-10.5 10.5-5.8 0-10.5-4.7-10.5-10.5 0-5.7 4.7-10.4 10.5-10.4 5.8 0 10.5 4.7 10.5 10.4z"/><path class="o" d="m1110.1 468.4l-269.3-23.9c-10.9-0.9-19.3-10-19.3-21l-1-181.5c-0.1-12.4 10.4-22.2 22.7-21.3l286.7 19.9c11.9 0.8 20.7 11.2 19.7 23.1l-16.5 185.5c-1 11.6-11.3 20.3-23 19.2z"/><path class="p" d="m836.3 259.5l-1.8 156.8c-0.1 6.8 5 12.5 11.8 13.2l258.2 25.6c7.3 0.8 13.7-4.6 14.4-11.9l14.9-167.6c0.6-7.4-5-13.8-12.4-14.3l-271.3-14.7c-7.5-0.4-13.8 5.5-13.8 12.9z"/><path class="q" d="m958.7 396.5l146.1 8.6c1.5 0 2.6 1.4 2.5 2.8l-0.2 2.4c-0.2 1.4-1.4 2.5-2.9 2.4l-145.9-10.9c-1.5-0.1-2.6-1.4-2.5-2.9 0.2-1.4 1.4-2.5 2.9-2.4z"/><path class="r" d="m954.8 411.1l-0.1 1c-0.2 1.5 0.9 2.8 2.4 2.9l145.7 12.9c1.5 0.2 2.8-0.9 2.9-2.4l0.1-1c0.1-1.4-1-2.7-2.4-2.9l-145.7-12.9c-1.5-0.1-2.8 1-2.9 2.4z"/><path class="s" d="m997.8 428.1v0.4c-0.1 1.5 0.9 2.8 2.4 2.9l101.5 9c1.5 0.2 2.8-0.9 2.9-2.4l0.2-2c0.1-1.5-1-2.8-2.5-2.9l-101.6-7.4c-1.5-0.1-2.7 1-2.9 2.4z"/><path class="t" d="m1087.5 403.6l-317.7-6.5c-12.9-0.2-23.5-10.3-24.4-23.1l-15.7-212.9c-1.1-14.5 10.4-26.8 24.9-26.8l337.9 0.4c14 0.1 25.2 11.5 24.9 25.5l-4.4 218.9c-0.3 13.8-11.7 24.8-25.5 24.5z"/><path class="p" d="m749.6 180.5l10.4 184c0.5 8 7 14.3 15 14.5l304.9 9.4c8.6 0.3 15.7-6.5 15.9-15.1l4-197.8c0.2-8.7-6.9-15.9-15.6-15.7l-319.4 4.3c-8.8 0.2-15.7 7.6-15.2 16.4z"/><path class="u" d="m904.1 331.3l172.1-1.6c1.8-0.1 3.2 1.4 3.2 3.1l-0.1 2.8c0 1.7-1.4 3.1-3.1 3.1l-172.1-1.1c-1.7-0.1-3.1-1.5-3.1-3.2 0.1-1.7 1.4-3.1 3.1-3.1z"/><path class="v" d="m900.7 348.8v1.2c0 1.7 1.3 3.1 3.1 3.2l171.9 3.5c1.8 0 3.2-1.4 3.2-3.1l0.1-1.2c0-1.7-1.4-3.1-3.1-3.2l-172-3.5c-1.7 0-3.1 1.4-3.2 3.1z"/><path class="w" d="m952.6 365.3v0.5c0 1.7 1.3 3.1 3.1 3.2l119.7 2.4c1.8 0 3.2-1.3 3.2-3.1l0.1-2.4c0-1.7-1.4-3.2-3.1-3.2l-119.8-0.5c-1.8 0-3.2 1.4-3.2 3.1z"/><path class="x" d="m1040.6 350.9h-352.5c-14.3 0-26.2-10.8-27.6-25.1l-22.2-235.7c-1.5-16 10.9-30 27.1-30.3l374.7-7.1c15.5-0.3 28.2 12.2 28.2 27.7v242.8c0 15.3-12.4 27.7-27.7 27.7z"/><path class="p" d="m660.8 111.1l15.8 203.8c0.7 8.9 8 15.8 16.9 15.9l338.3 3.5c9.6 0.1 17.3-7.6 17.3-17.1v-219.5c0-9.7-8-17.4-17.7-17.1l-354.1 12.1c-9.7 0.3-17.2 8.7-16.5 18.4z"/><path class="y" d="m841.5 109.3l190.8-5.8c1.9 0 3.5 1.6 3.5 3.5v3.1c0 1.9-1.5 3.4-3.4 3.5l-190.8 2.6c-1.9 0-3.5-1.5-3.5-3.5 0-1.9 1.5-3.4 3.4-3.4z"/><path class="z" d="m838.1 128.7v1.3c0 1.9 1.6 3.5 3.5 3.5h190.8c1.9 0 3.4-1.6 3.4-3.5v-1.3c0-1.9-1.5-3.5-3.4-3.5h-190.8c-1.9 0-3.5 1.6-3.5 3.5z"/><path class="A" d="m896 145.8v0.6c0 1.9 1.6 3.5 3.5 3.5h132.9c1.9 0 3.4-1.6 3.4-3.5v-2.7c0-1.9-1.6-3.5-3.5-3.5l-132.9 2.2c-1.9 0-3.4 1.5-3.4 3.4z"/><path class="B" d="m985.2 250.6q-0.5 0-0.9-0.4l-57.3-46.5-56.4 41.3c-0.7 0.5-1.6 0.4-2.1-0.2l-78.5-94.2c-8.9 7.8-66.8 58.5-74.5 65.3-0.6 0.5-1.6 0.5-2.1-0.2-0.6-0.6-0.5-1.5 0.1-2.1 8.4-7.3 75.7-66.3 75.7-66.3 0.3-0.3 0.7-0.4 1.1-0.4 0.4 0.1 0.8 0.3 1 0.6l78.6 94.3 56.3-41.2c0.5-0.4 1.3-0.4 1.8 0l57.2 46.5 30.6-26.8c0.7-0.5 1.6-0.4 2.2 0.2 0.5 0.6 0.4 1.5-0.2 2.1l-31.6 27.6c-0.2 0.2-0.6 0.4-1 0.4z"/><path class="C" d="m791.3 301.2c-0.5 0-1-0.4-1-1v-3c0-0.5 0.5-1 1-1 0.6 0 1 0.5 1 1v3c0 0.6-0.4 1-1 1zm0-10c-0.5 0-1-0.4-1-1v-3c0-0.5 0.5-1 1-1 0.6 0 1 0.5 1 1v3c0 0.6-0.4 1-1 1zm0-10c-0.5 0-1-0.4-1-1v-3c0-0.5 0.5-1 1-1 0.6 0 1 0.5 1 1v3c0 0.6-0.4 1-1 1zm0-10c-0.5 0-1-0.4-1-1v-3c0-0.5 0.5-1 1-1 0.6 0 1 0.5 1 1v3c0 0.6-0.4 1-1 1zm0-10c-0.5 0-1-0.4-1-1v-3c0-0.5 0.5-1 1-1 0.6 0 1 0.5 1 1v3c0 0.6-0.4 1-1 1zm0-10c-0.5 0-1-0.4-1-1v-3c0-0.5 0.5-1 1-1 0.6 0 1 0.5 1 1v3c0 0.6-0.4 1-1 1zm0-10c-0.5 0-1-0.4-1-1v-3c0-0.5 0.5-1 1-1 0.6 0 1 0.5 1 1v3c0 0.6-0.4 1-1 1zm0-10c-0.5 0-1-0.4-1-1v-3c0-0.5 0.5-1 1-1 0.6 0 1 0.5 1 1v3c0 0.6-0.4 1-1 1zm0-10c-0.5 0-1-0.4-1-1v-3c0-0.5 0.5-1 1-1 0.6 0 1 0.5 1 1v3c0 0.6-0.4 1-1 1zm0-10c-0.5 0-1-0.4-1-1v-3c0-0.5 0.5-1 1-1 0.6 0 1 0.5 1 1v3c0 0.6-0.4 1-1 1zm0-10c-0.5 0-1-0.4-1-1v-3c0-0.5 0.5-1 1-1 0.6 0 1 0.5 1 1v3c0 0.6-0.4 1-1 1zm0-10c-0.5 0-1-0.4-1-1v-3c0-0.5 0.5-1 1-1 0.6 0 1 0.5 1 1v3c0 0.6-0.4 1-1 1zm0-10c-0.5 0-1-0.4-1-1v-3c0-0.5 0.5-1 1-1 0.6 0 1 0.5 1 1v3c0 0.6-0.4 1-1 1zm0-10c-0.5 0-1-0.4-1-1v-3c0-0.5 0.5-1 1-1 0.6 0 1 0.5 1 1v3c0 0.6-0.4 1-1 1z"/><path class="D" d="m869.7 303.1c-0.6 0-1-0.5-1-1v-3c0-0.6 0.4-1 1-1 0.5 0 1 0.4 1 1v3c0 0.5-0.5 1-1 1zm0-10c-0.6 0-1-0.5-1-1v-3c0-0.6 0.4-1 1-1 0.5 0 1 0.4 1 1v3c0 0.5-0.5 1-1 1zm0-10c-0.6 0-1-0.5-1-1v-3c0-0.6 0.4-1 1-1 0.5 0 1 0.4 1 1v3c0 0.5-0.5 1-1 1zm0-10c-0.6 0-1-0.5-1-1v-3c0-0.6 0.4-1 1-1 0.5 0 1 0.4 1 1v3c0 0.5-0.5 1-1 1zm0-10c-0.6 0-1-0.5-1-1v-3c0-0.6 0.4-1 1-1 0.5 0 1 0.4 1 1v3c0 0.5-0.5 1-1 1zm0-10c-0.6 0-1-0.5-1-1v-3c0-0.6 0.4-1 1-1 0.5 0 1 0.4 1 1v3c0 0.5-0.5 1-1 1z"/><path class="E" d="m929.2 305c-0.5 0-1-0.4-1-1l-0.1-3c0-0.5 0.4-1 1-1 0.6-0.1 1 0.4 1 0.9l0.1 3c0 0.6-0.4 1.1-1 1.1q0 0 0 0zm-0.3-10c-0.5 0-1-0.4-1-1l-0.1-3c0-0.5 0.4-1 1-1 0.5 0 1 0.4 1 1l0.1 3c0 0.5-0.4 1-1 1q0 0 0 0zm-0.3-10c-0.5 0-1-0.4-1-1l-0.1-3c0-0.5 0.4-1 1-1 0.5 0 1 0.4 1 1l0.1 3c0 0.5-0.4 1-1 1q0 0 0 0zm-0.3-10c-0.6 0-1-0.4-1-1l-0.1-3c0-0.5 0.4-1 1-1 0.5 0 1 0.4 1 1l0.1 3c0 0.5-0.4 1-1 1q0 0 0 0zm-0.3-10c-0.6 0-1-0.4-1-1l-0.1-3c0-0.5 0.4-1 0.9-1 0.6 0 1.1 0.4 1.1 1l0.1 3c0 0.5-0.4 1-1 1q0 0 0 0zm-0.3-10c-0.6 0-1-0.4-1-1l-0.1-3c0-0.5 0.4-1 0.9-1 0.6 0 1.1 0.4 1.1 1l0.1 3c0 0.5-0.5 1-1 1q0 0 0 0zm-0.3-10c-0.6 0-1-0.4-1-1l-0.1-3c-0.1-0.5 0.4-1 0.9-1 0.6 0 1 0.4 1.1 1l0.1 3c0 0.5-0.5 1-1 1q0 0 0 0zm-0.4-10c-0.5 0-0.9-0.4-1-1v-3c-0.1-0.5 0.4-1 0.9-1 0.6 0 1 0.4 1 1l0.1 3c0.1 0.5-0.4 1-0.9 1q0 0-0.1 0zm-0.3-10c-0.5 0-0.9-0.4-1-1l-0.1-3c0-0.5 0.5-1 1-1 0.6 0 1 0.4 1 1l0.1 3c0 0.5-0.4 1-0.9 1q-0.1 0-0.1 0zm-0.3-10c-0.5 0-1-0.4-1-0.9l-0.1-3c0-0.6 0.4-1.1 1-1.1 0.6 0 1 0.4 1 1l0.1 3c0 0.5-0.4 1-0.9 1q-0.1 0-0.1 0z"/><path class="F" d="m986 296.8c-0.6 0-1-0.5-1-1v-3c0-0.6 0.4-1 1-1 0.5 0 1 0.4 1 1v3c0 0.5-0.5 1-1 1zm0-10c-0.6 0-1-0.5-1-1v-3c0-0.6 0.4-1 1-1 0.5 0 1 0.4 1 1v3c0 0.5-0.5 1-1 1zm0-10c-0.6 0-1-0.5-1-1v-3c0-0.6 0.4-1 1-1 0.5 0 1 0.4 1 1v3c0 0.5-0.5 1-1 1zm0-10c-0.6 0-1-0.5-1-1v-3c0-0.6 0.4-1 1-1 0.5 0 1 0.4 1 1v3c0 0.5-0.5 1-1 1zm0-10c-0.6 0-1-0.5-1-1v-3c0-0.6 0.4-1 1-1 0.5 0 1 0.4 1 1v3c0 0.5-0.5 1-1 1z"/><path class="G" d="m707.8 317.5c-0.8 0-1.4-0.5-1.5-1.3l-16.1-190.4c-0.1-0.8 0.5-1.5 1.4-1.6 0.8-0.1 1.5 0.5 1.6 1.4l16.1 190.3c0.1 0.8-0.5 1.6-1.4 1.6q0 0-0.1 0z"/><path class="H" d="m687.1 132.1l4.7-5.5 5.5 4.6-0.4-4.3-5.5-4.6-4.6 5.5z"/><path class="I" d="m1026 308.7h-330.3c-0.8 0-1.5-0.7-1.5-1.5 0-0.9 0.7-1.5 1.5-1.5h330.3c0.8 0 1.5 0.6 1.5 1.5 0 0.8-0.7 1.5-1.5 1.5z"/><path class="J" d="m1020 312.2l5.1-5-5.1-5.1h4.3l5.1 5.1-5.1 5z"/><path class="K" d="m637 686.1q0-0.4-0.1-0.8c-4-16-24.1-26-24.1-26l-7.9 0.7c-4.6 14.1-4 22.7-3.2 26.6q0 0.1 0 0.3c6.6 0.6 20.1 0.9 35.3-0.8z"/><path class="L" d="m601.7 686.9c0.4 1.3 1.4 2.3 2.6 2.5 9.3 2 24.1 0.4 30.3-0.4 1.4-0.2 2.4-1.5 2.4-2.9-15.2 1.7-28.7 1.4-35.3 0.8z"/><path class="M" d="m717.4 170.6l52.3-18.9 4 8.4-50.3 18.9c0 0-6.9-0.6-6-8.4z"/><path class="N" d="m769.7 151.7c-1.6 4.6 4 8.4 4 8.4l9.5-6.7c-0.5-1.3-0.9-2.6-1-3.7z"/><path class="O" d="m782.2 149.7c0.1 1.1 0.5 2.4 1 3.7l7-5z"/><path class="P" d="m570.3 403c-4.9 5.2-12.1 9.7-17.2 12.6 7.6 9.3 17.9 18.7 31.5 27.9l3.8 8.7 12.5-14.9c0 0-22.3-11.1-30.6-34.3z"/><path class="Q" d="m601.7 648.1l3.4 16.2c0.2 1.2 1.1 2.1 2.2 2.2 1.4 0.1 3.3 0.2 5.2-0.1 1.8-0.2 3-2 2.7-3.9l-2.4-14.4z"/><path class="R" d="m671.3 686.7c-8.7-0.2-13.3-1.3-15.6-2.2q0 1.3 0 2.7c0.1 0.9 0.8 1.7 1.7 1.7l48.1-0.3c1.5 0 2.4-1.8 1.8-3.2-6.3 0.5-22.4 1.7-36 1.3z"/><path class="S" d="m707.3 685.4q-0.1-0.2-0.2-0.4c-4.3-5.9-15.1-17.7-36.5-22.8l-10.2-0.4c0 0-4.6 8-4.7 22.7 2.3 0.9 6.9 2 15.6 2.2 13.6 0.4 29.7-0.8 36-1.3z"/><path class="T" d="m658.5 646.3c0.1 0.7 1.5 12.4 2 16.9 0.2 1 0.9 1.9 1.9 2 1.8 0.2 4.6 0.4 7.1-0.1 1.3-0.3 2.3-1.6 2.3-3.1v-18.2z"/><path class="U" d="m650.2 434.2c0 0 24.8 94 24.3 212.4 0 2.1-1.5 4-3.6 4.4-3.1 0.7-7.7 1.4-11.5 1.3-2 0-3.7-1.5-4-3.5-3.5-20.4-23.4-135-34.8-153.6 0 0-7.4 102.1-5 155.1 0 1.3-0.9 2.4-2.2 2.6-2 0.2-5.2 0.4-9.3 0-1.5-0.2-2.7-1.4-2.9-2.9-2.5-17.2-16.7-119.7-16.1-193.5 0-4.2 11-22.3 11-22.3z"/><path class="V" d="m731.1 231.7c-10.8 20.2-28.9 40.8-58.2 46.4-27.1 5.1-75.7 11.4-95.2 13.8-5.9 0.8-11.3 3.7-15.2 8.2-15.3 17.7-49 66.4-9.4 115.5 5.1-2.9 12.3-7.4 17.2-12.6-4.4-12.4-4.7-28.2 4.5-47.6q0.4 2.3 1.2 4.6c12.6 40.1 13.3 73.6 13.3 81.3 0 1 0.6 2 1.6 2.3 16.7 6.7 48.8 2.7 59.6 1.1 1.9-0.3 3.3-2.1 3-4.1-5.3-38.3 21.9-101.4 29-117.2 1.1-2.3 2.9-4.2 5.3-5.2 41-18.6 58.8-47.1 66-72.9-6.2-8.4-15.9-12-22.7-13.6z"/><path class="W" d="m753.8 245.3c8.8-31.1 2-58.2 2-58.2h-9.4c0 0-3.1 22-15.3 44.6 6.8 1.6 16.5 5.2 22.7 13.6z"/><path class="X" d="m749.7 192.1c0 0-14.2-18.4-9.6-28 4.7-9.6 20.5-8.7 20.5-8.7l2.2 7.5c0.6 2 0.5 4.1-0.2 6l-8.8 23.2z"/><path class="Y" d="m606.5 255.1l-3.2 32.8c0 0 18.5 5.6 31.9-3.9l-9.4-29.9z"/><path class="Z" d="m627.9 217.6c0.5 0.4 18.8 36.4 18.8 36.4l-20.8 10-22.4-31.5c0 0 17-21.9 24.4-14.9z"/><path class="a0" d="m612.7 233.4c-0.4 0.9-0.3 2 0.2 2.9l10.4 17.3q0.2 0.4 0.6 0.7c1.2 1.1 5.4 4.5 8.7-0.1 2.8-3.9 5.4-7.4 8.2-8.8 1.6-0.9 3.6-0.2 4.5 1.4 1.7 3.4 5 10.3 7 16.9 0.6 1.6-0.3 3.4-1.9 4-4.2 1.7-12.5 4.8-19.9 5.8-1.2 0.2-2.4-0.3-3.1-1.3-3.2-4.4-12.1-16.5-15.2-19.6-2.8-2.8-8.1-1.7-10.4-1-0.9 0.2-1.9 0.1-2.7-0.4-2.4-1.4-6.5-5-2.7-11.1 0.9-1.5 0.5-3.5-1-4.5-2.7-1.8-5.6-5.1-2.8-10.4 2.7-5.4 7.7-5.9 11.1-5.5 1.5 0.2 3.1-0.6 3.7-2 0.2-0.6 0.7-1.2 1.7-1.3 1.7-0.4 2.9-2 2.6-3.8-0.6-3.1-0.2-7.1 4.7-9.8 9-4.9 16.8 3.2 18.8 9.9 2 6.8-8 11.6-14.3 12.4-4.6 0.6-7.2 5.6-8.2 8.3z"/><path class="a1" d="m616.1 259c0 0-4-11.7-9.1-11.3-5.1 0.5-9.1 5.6-2.8 11.3 7.9 7.1 11.9 0 11.9 0z"/><path class="a2" d="m573.1 352.4c-6.7-18.4-4.3-40.6-4.3-40.9l1.9 0.3c0 0.2-2.4 22 4.1 40z"/><path class="a3" d="m619.7 492.8c-0.4 0-0.8-0.3-0.9-0.7-2-7.9-17.4-16.6-17.5-16.7-0.5-0.2-0.6-0.8-0.4-1.2 0.3-0.5 0.8-0.7 1.3-0.4 0.6 0.4 16.2 9.2 18.4 17.9 0.2 0.5-0.1 1-0.6 1.1q-0.1 0-0.3 0z"/><path class="a4" d="m183.4 660l-2.5-1.8c-0.7-0.5-0.9-1.6-0.4-2.4 0.5-0.7 1.6-0.9 2.4-0.4l2.4 1.8h0.1c0.7 0.5 0.9 1.6 0.4 2.4-0.6 0.7-1.6 0.9-2.4 0.4z"/><path class="a4" d="m175.3 653.9l-2.4-1.9c-0.7-0.6-0.8-1.7-0.2-2.4 0.6-0.7 1.7-0.9 2.4-0.3v0.1l2.3 1.9c0.8 0.6 0.9 1.7 0.3 2.4-0.6 0.7-1.7 0.8-2.4 0.2z"/><path class="a4" d="m167.6 647.4l-2.2-2.1c-0.8-0.7-0.8-1.8-0.1-2.5 0.6-0.7 1.7-0.7 2.4-0.1h0.1v0.1l2.1 2h0.1c0.7 0.7 0.7 1.8 0 2.5-0.6 0.7-1.7 0.7-2.4 0.1z"/><path class="a4" d="m160.3 640.3l-2-2.2c-0.7-0.8-0.7-1.9 0.1-2.5 0.7-0.7 1.8-0.7 2.5 0v0.1l2 2.2c0.7 0.7 0.7 1.8-0.1 2.5-0.7 0.6-1.8 0.6-2.5-0.1z"/><path class="a4" d="m153.6 632.7l-1.9-2.3c-0.6-0.8-0.5-2 0.3-2.6 0.8-0.6 1.9-0.5 2.5 0.3h0.1l1.8 2.3v0.1c0.6 0.7 0.5 1.9-0.3 2.5-0.7 0.6-1.9 0.5-2.5-0.3z"/><path class="a4" d="m147.4 624.7l-1.7-2.5c-0.6-0.8-0.4-2 0.5-2.5 0.8-0.6 1.9-0.4 2.5 0.4l1.7 2.5c0.6 0.8 0.4 2-0.4 2.6-0.8 0.5-2 0.3-2.6-0.5z"/><path class="a4" d="m141.8 616.3l-1.5-2.6c-0.5-0.9-0.3-2.1 0.6-2.6 0.9-0.5 2-0.2 2.6 0.6v0.1l1.5 2.5v0.1c0.5 0.8 0.2 2-0.6 2.5-0.9 0.5-2 0.2-2.6-0.6z"/><path class="a4" d="m136.9 607.4l-1.4-2.7c-0.5-0.9-0.1-2 0.8-2.5 0.9-0.5 2.1-0.1 2.5 0.8l0.1 0.1 1.3 2.6v0.1c0.5 0.9 0.1 2-0.8 2.5-1 0.4-2.1 0.1-2.5-0.9z"/><path class="a4" d="m132.5 598.3l-1.1-2.8c-0.4-1 0-2.1 1-2.5 1-0.4 2.1 0 2.5 1v0.1l1.1 2.7c0.4 1 0 2.1-1 2.5-1 0.4-2.1-0.1-2.5-1z"/><path class="a4" d="m128.9 588.8l-1-2.9c-0.3-1 0.3-2.1 1.3-2.4 1-0.4 2.1 0.2 2.4 1.2v0.1l0.9 2.8c0.4 1-0.2 2.1-1.2 2.4-1 0.4-2.1-0.2-2.4-1.2z"/><path class="a4" d="m126 579.1l-0.7-3c-0.3-1 0.4-2.1 1.4-2.3 1.1-0.3 2.1 0.3 2.4 1.4v0.1l0.7 2.8v0.1c0.2 1-0.4 2.1-1.5 2.3-1 0.3-2.1-0.4-2.3-1.4z"/><path class="a4" d="m123.9 569.1l-0.5-3c-0.1-1.1 0.6-2.1 1.7-2.2 1.1-0.2 2.1 0.5 2.2 1.6l0.1 0.1 0.4 2.9c0.2 1.1-0.6 2.1-1.7 2.3-1 0.1-2-0.6-2.2-1.7z"/><path class="a4" d="m122.6 559.1l-0.2-3.1c-0.1-1.1 0.8-2 1.9-2.1 1.1-0.1 2 0.7 2.1 1.8v0.1l0.2 2.9v0.1c0.1 1.1-0.7 2-1.8 2.1-1.1 0.1-2.1-0.7-2.2-1.8z"/><path class="a4" d="m122.3 548.9v-3.1c0-1.1 1-2 2.1-2 1.1 0.1 2 1 2 2.1v0.1l-0.1 2.9v0.1c0 1.1-1 2-2.1 1.9-1.1 0-2-0.9-1.9-2z"/><path class="a4" d="m122.8 538.7l0.3-3c0.1-1.1 1.1-2 2.3-1.8 1.1 0.1 1.9 1.1 1.8 2.2v0.1l-0.3 2.9-0.1 0.1c-0.1 1.1-1.1 1.9-2.2 1.8-1.1-0.2-2-1.2-1.8-2.3z"/><path class="a4" d="m124.2 528.6l0.6-3c0.2-1.1 1.3-1.8 2.4-1.6 1.2 0.2 1.9 1.3 1.7 2.5l-0.6 2.9v0.1c-0.3 1.1-1.4 1.8-2.5 1.6-1.1-0.3-1.8-1.3-1.6-2.5z"/><path class="a4" d="m126.5 518.7l0.8-2.9c0.3-1.1 1.5-1.8 2.6-1.4 1.1 0.3 1.8 1.4 1.5 2.6h-0.1l-0.8 2.8v0.1c-0.3 1.1-1.5 1.7-2.6 1.4-1.1-0.3-1.8-1.5-1.4-2.6z"/><path class="a4" d="m129.6 509l1.1-2.8c0.4-1.1 1.6-1.7 2.7-1.2 1.1 0.4 1.7 1.6 1.2 2.7v0.1l-1 2.7-0.1 0.1c-0.4 1.1-1.6 1.6-2.7 1.2-1.1-0.5-1.6-1.7-1.2-2.8z"/><path class="a4" d="m133.5 499.6l1.3-2.7c0.5-1.1 1.8-1.5 2.9-1 1.1 0.5 1.5 1.8 1 2.9l-1.3 2.7c-0.6 1.1-1.9 1.5-2.9 1-1.1-0.5-1.5-1.8-1-2.9z"/><path class="a4" d="m138.2 490.6l1.6-2.6c0.6-1 1.9-1.4 3-0.8 1 0.6 1.3 2 0.7 3v0.1l-1.5 2.5h-0.1c-0.6 1.1-1.9 1.4-2.9 0.8-1.1-0.6-1.4-2-0.8-3z"/><path class="a4" d="m143.7 482l1.8-2.5c0.7-0.9 2.1-1.2 3.1-0.4 1 0.7 1.2 2 0.5 3l-0.1 0.1-1.7 2.4c-0.8 1-2.1 1.2-3.1 0.5-1-0.7-1.2-2.1-0.5-3.1z"/><path class="a4" d="m150 474l2-2.3c0.8-1 2.2-1.1 3.1-0.3 0.9 0.9 1 2.3 0.2 3.2l-2 2.2v0.1c-0.8 0.9-2.2 1-3.1 0.2-1-0.8-1.1-2.2-0.2-3.1z"/><path class="a4" d="m156.9 466.5l2.3-2.1c0.9-0.9 2.3-0.8 3.1 0.1 0.9 0.9 0.9 2.3-0.1 3.2l-2.2 2v0.1c-0.9 0.8-2.3 0.8-3.2-0.1-0.8-0.9-0.8-2.4 0.1-3.2z"/><path class="a4" d="m164.6 459.8l2.4-1.9c1-0.8 2.5-0.6 3.2 0.4 0.8 1 0.6 2.4-0.4 3.2l-2.4 1.8v0.1c-1 0.7-2.5 0.5-3.2-0.5-0.8-1-0.6-2.4 0.4-3.1z"/><path class="a4" d="m172.9 453.8l2.6-1.6c1.1-0.7 2.5-0.3 3.2 0.7 0.7 1.1 0.3 2.5-0.7 3.2h-0.1v0.1l-2.5 1.5h-0.1c-1.1 0.7-2.5 0.3-3.1-0.7-0.7-1.1-0.4-2.5 0.7-3.2z"/><path class="a4" d="m181.8 448.8l2.8-1.4c1.1-0.5 2.5-0.1 3.1 1.1 0.6 1.1 0.1 2.5-1.1 3.1h-0.1l-2.6 1.3h-0.1c-1.1 0.6-2.5 0.1-3.1-1.1-0.5-1.1 0-2.5 1.1-3z"/><path class="a4" d="m191.2 444.6l2.8-1.1c1.3-0.4 2.6 0.2 3.1 1.4 0.4 1.2-0.2 2.6-1.4 3l-0.1 0.1-2.7 1h-0.1c-1.2 0.4-2.6-0.2-3-1.4-0.5-1.2 0.1-2.6 1.4-3z"/><path class="a4" d="m200.8 441.3l3-0.8c1.3-0.3 2.6 0.4 2.9 1.7 0.4 1.3-0.4 2.6-1.7 2.9l-2.9 0.8c-1.3 0.4-2.6-0.4-2.9-1.7-0.4-1.2 0.4-2.5 1.6-2.9z"/><path class="a4" d="m210.7 438.9l3-0.5c1.3-0.3 2.6 0.6 2.8 1.9 0.3 1.3-0.6 2.5-1.9 2.8l-2.9 0.5h-0.1c-1.3 0.3-2.5-0.6-2.8-1.9-0.2-1.3 0.6-2.5 1.9-2.8z"/><path class="a4" d="m220.8 437.3l3-0.3c1.4-0.1 2.5 0.8 2.7 2.1 0.1 1.3-0.8 2.5-2.1 2.7h-0.1l-2.9 0.3h-0.1c-1.3 0.1-2.5-0.8-2.6-2.1-0.2-1.3 0.8-2.5 2.1-2.7z"/><path class="a4" d="m230.9 436.5l3.1-0.1c1.3-0.1 2.4 1 2.5 2.3 0 1.3-1 2.4-2.3 2.5h-0.1l-2.9 0.1h-0.1c-1.3 0-2.4-1-2.5-2.3 0-1.4 1-2.5 2.3-2.5z"/><path class="a4" d="m241.1 436.3l3 0.1c1.4 0.1 2.4 1.2 2.4 2.5 0 1.4-1.2 2.4-2.5 2.4h-0.1l-2.9-0.1c-1.4-0.1-2.4-1.2-2.4-2.5 0-1.4 1.2-2.4 2.5-2.4z"/><path class="a4" d="m251.2 436.8l3.1 0.3c1.3 0.1 2.3 1.3 2.2 2.7-0.1 1.3-1.3 2.3-2.7 2.2l-3-0.3c-1.4-0.1-2.3-1.3-2.2-2.7 0.1-1.3 1.3-2.3 2.6-2.2z"/><path class="a4" d="m261.3 438l3 0.4c1.4 0.2 2.3 1.5 2.1 2.8-0.2 1.3-1.5 2.3-2.8 2.1h-0.1l-2.9-0.5c-1.4-0.2-2.3-1.4-2.1-2.8 0.2-1.3 1.5-2.2 2.8-2z"/><path class="a4" d="m271.3 439.7l3 0.6c1.3 0.2 2.2 1.5 1.9 2.9-0.3 1.3-1.6 2.2-2.9 1.9l-2.9-0.6h-0.1c-1.3-0.3-2.2-1.6-1.9-2.9 0.3-1.4 1.6-2.2 2.9-1.9z"/><path class="a4" d="m281.2 441.8l2.9 0.8c1.3 0.3 2.2 1.7 1.8 3-0.3 1.3-1.7 2.1-3 1.8l-2.9-0.8c-1.4-0.3-2.2-1.7-1.8-3 0.3-1.3 1.7-2.1 3-1.8z"/><path class="a4" d="m290.9 444.4l2.9 0.9c1.4 0.4 2.1 1.8 1.7 3.1-0.4 1.3-1.8 2.1-3.1 1.7l-2.8-0.9h-0.1c-1.3-0.4-2-1.8-1.6-3.1 0.3-1.3 1.7-2 3-1.7z"/><path class="a4" d="m300.6 447.4l2.8 1c1.4 0.4 2.1 1.8 1.6 3.2-0.4 1.3-1.8 2-3.1 1.5h-0.1l-2.8-0.9c-1.3-0.5-2-1.9-1.6-3.2 0.5-1.3 1.9-2 3.2-1.6z"/><path class="a4" d="m310.1 450.7l2.8 1.1c1.3 0.5 2 1.9 1.5 3.2-0.5 1.3-1.9 2-3.2 1.5l-2.8-1.1c-1.3-0.4-2-1.9-1.5-3.2 0.5-1.3 1.9-1.9 3.2-1.5z"/><path class="a4" d="m319.5 454.3l2.8 1.1c1.3 0.5 1.9 2 1.4 3.3-0.5 1.3-2 1.9-3.3 1.4l-2.7-1.1h-0.1c-1.3-0.5-1.9-2-1.4-3.3 0.6-1.3 2-1.9 3.3-1.4z"/><path class="a4" d="m328.8 458.1l2.8 1.2c1.3 0.5 1.9 2 1.4 3.3-0.6 1.3-2.1 1.9-3.4 1.3l-2.7-1.1c-1.3-0.6-1.9-2.1-1.4-3.4 0.6-1.3 2-1.9 3.3-1.3z"/><path class="a4" d="m338.1 462l2.7 1.2c1.3 0.6 1.9 2.1 1.3 3.4-0.5 1.3-2 1.9-3.3 1.3l-2.8-1.2c-1.3-0.6-1.9-2.1-1.3-3.4 0.6-1.3 2.1-1.8 3.4-1.3z"/><path class="a4" d="m347.2 466.1l2.8 1.2c1.3 0.6 1.8 2.1 1.3 3.4-0.6 1.3-2.1 1.9-3.4 1.3l-2.8-1.3c-1.3-0.5-1.8-2.1-1.2-3.3 0.5-1.3 2-1.9 3.3-1.3z"/><path class="a4" d="m356.4 470.2l2.7 1.3c1.3 0.6 1.8 2.1 1.2 3.4-0.5 1.3-2.1 1.9-3.4 1.3l-2.7-1.3c-1.3-0.6-1.8-2.1-1.2-3.4 0.5-1.3 2.1-1.9 3.4-1.3z"/><path class="a4" d="m365.4 474.5l2.8 1.2c1.3 0.6 1.8 2.2 1.2 3.5-0.6 1.3-2.2 1.8-3.4 1.2h-0.1l-2.7-1.3c-1.3-0.6-1.8-2.1-1.2-3.4 0.6-1.3 2.2-1.9 3.4-1.2z"/><path class="a4" d="m374.5 478.7l2.7 1.3c1.3 0.7 1.8 2.2 1.2 3.5-0.6 1.3-2.2 1.9-3.4 1.2h-0.1l-2.7-1.3c-1.2-0.6-1.8-2.2-1.2-3.4 0.7-1.3 2.2-1.9 3.5-1.3z"/><path class="a4" d="m383.5 483.1l2.7 1.3c1.3 0.7 1.8 2.2 1.2 3.5-0.6 1.3-2.2 1.8-3.5 1.2l-2.7-1.3c-1.3-0.6-1.8-2.2-1.2-3.5 0.7-1.3 2.2-1.8 3.5-1.2z"/><path class="a4" d="m392.5 487.5l2.7 1.3c1.3 0.7 1.8 2.3 1.2 3.6-0.7 1.3-2.2 1.8-3.5 1.2v-0.1l-2.7-1.3c-1.3-0.6-1.9-2.2-1.2-3.5 0.6-1.3 2.2-1.8 3.5-1.2z"/><path class="a4" d="m401.5 492l2.6 1.3c1.4 0.7 1.9 2.3 1.2 3.6-0.6 1.3-2.2 1.8-3.5 1.1l-2.7-1.3c-1.3-0.7-1.8-2.3-1.2-3.6 0.7-1.3 2.3-1.8 3.6-1.1z"/><path class="a4" d="m410.4 496.5l2.7 1.3c1.3 0.7 1.8 2.3 1.2 3.6-0.7 1.3-2.3 1.8-3.6 1.1l-2.7-1.3c-1.3-0.7-1.8-2.3-1.1-3.6 0.6-1.3 2.2-1.8 3.5-1.1z"/><path class="a4" d="m419.3 501l2.7 1.4c1.3 0.6 1.8 2.2 1.2 3.5-0.7 1.3-2.3 1.9-3.6 1.2l-2.7-1.4c-1.3-0.6-1.8-2.2-1.1-3.6 0.6-1.3 2.2-1.8 3.5-1.1z"/><path class="a4" d="m428.3 505.5l2.6 1.4c1.3 0.7 1.9 2.3 1.2 3.6-0.7 1.3-2.3 1.8-3.6 1.2l-2.7-1.4c-1.3-0.7-1.8-2.3-1.1-3.6 0.6-1.3 2.2-1.8 3.6-1.2z"/><path class="a4" d="m437.2 510.1l2.6 1.4c1.4 0.6 1.9 2.2 1.2 3.6-0.7 1.3-2.3 1.8-3.6 1.1l-2.7-1.3c-1.3-0.7-1.8-2.3-1.1-3.7 0.6-1.3 2.2-1.8 3.6-1.1z"/><path class="a4" d="m446.1 514.6l2.6 1.4c1.4 0.7 1.9 2.3 1.2 3.6-0.7 1.4-2.3 1.9-3.6 1.2l-2.7-1.4c-1.3-0.6-1.8-2.3-1.2-3.6 0.7-1.3 2.3-1.8 3.7-1.2z"/><path class="a4" d="m455 519.2l2.6 1.4c1.4 0.6 1.9 2.3 1.2 3.6-0.7 1.3-2.3 1.9-3.6 1.2l-2.7-1.4c-1.3-0.7-1.8-2.3-1.2-3.6 0.7-1.4 2.3-1.9 3.7-1.2z"/><path class="a4" d="m463.9 523.7l2.7 1.4c1.3 0.7 1.8 2.3 1.2 3.6-0.7 1.4-2.4 1.9-3.7 1.2l-2.7-1.3c-1.3-0.7-1.9-2.3-1.2-3.7 0.7-1.3 2.3-1.8 3.7-1.2z"/><path class="a4" d="m472.8 528.3l2.7 1.3c1.3 0.7 1.9 2.3 1.2 3.7-0.7 1.3-2.3 1.9-3.7 1.2l-2.7-1.4c-1.3-0.7-1.8-2.3-1.2-3.6 0.7-1.4 2.4-1.9 3.7-1.2z"/><path class="a4" d="m481.7 532.7l2.7 1.4c1.4 0.7 1.9 2.3 1.2 3.7-0.6 1.3-2.3 1.9-3.6 1.2l-2.7-1.4c-1.4-0.6-1.9-2.3-1.3-3.6 0.7-1.4 2.4-1.9 3.7-1.3z"/><path class="a4" d="m490.7 537.2l2.7 1.3c1.3 0.7 1.9 2.3 1.2 3.7-0.7 1.4-2.3 1.9-3.7 1.3l-2.7-1.4c-1.3-0.7-1.9-2.3-1.2-3.7 0.7-1.3 2.3-1.9 3.7-1.2z"/><path class="a4" d="m499.6 541.6l2.7 1.3c1.4 0.7 2 2.3 1.3 3.7-0.7 1.4-2.3 1.9-3.7 1.3l-2.7-1.3c-1.4-0.7-1.9-2.4-1.3-3.7 0.7-1.4 2.4-2 3.7-1.3z"/><path class="a4" d="m508.6 545.9l2.7 1.3c1.4 0.7 2 2.3 1.3 3.7-0.6 1.4-2.3 2-3.7 1.3l-2.7-1.3c-1.4-0.6-2-2.3-1.3-3.7 0.7-1.4 2.3-1.9 3.7-1.3z"/><path class="a4" d="m517.6 550.2l2.7 1.3c1.4 0.6 2 2.3 1.4 3.7-0.7 1.4-2.3 2-3.7 1.3l-2.7-1.2c-1.4-0.7-2-2.4-1.4-3.8 0.7-1.3 2.3-1.9 3.7-1.3z"/><path class="a4" d="m526.7 554.4l2.7 1.3c1.4 0.6 2 2.3 1.4 3.7-0.7 1.4-2.3 2-3.7 1.4l-2.8-1.3c-1.4-0.6-2-2.3-1.3-3.7 0.6-1.4 2.3-2 3.7-1.4z"/><path class="a4" d="m535.7 558.6l2.8 1.2c1.4 0.6 2 2.3 1.4 3.7-0.6 1.4-2.3 2-3.7 1.4l-2.7-1.2c-1.4-0.7-2.1-2.3-1.4-3.7 0.6-1.4 2.2-2.1 3.6-1.4z"/><path class="a4" d="m544.9 562.6l2.7 1.2c1.4 0.6 2.1 2.3 1.5 3.7-0.7 1.4-2.3 2.1-3.7 1.4l-2.8-1.2c-1.4-0.6-2-2.2-1.4-3.6 0.6-1.5 2.2-2.1 3.7-1.5z"/><path class="a4" d="m554 566.6l2.8 1.1c1.4 0.6 2.1 2.3 1.5 3.7-0.6 1.4-2.3 2.1-3.7 1.5l-2.8-1.2c-1.4-0.6-2-2.2-1.4-3.7 0.6-1.4 2.2-2 3.6-1.4z"/><path class="a4" d="m563.2 570.4l2.8 1.1c1.4 0.6 2.1 2.2 1.5 3.7-0.6 1.4-2.2 2.1-3.6 1.5l-2.8-1.1c-1.4-0.6-2.1-2.2-1.5-3.7 0.5-1.4 2.2-2.1 3.6-1.5z"/><path class="a4" d="m572.5 574.1l2.7 1.1h0.1c1.4 0.6 2.1 2.2 1.5 3.6-0.5 1.5-2.1 2.2-3.6 1.6l-2.8-1.1c-1.4-0.6-2.1-2.2-1.6-3.6 0.6-1.4 2.2-2.2 3.7-1.6z"/><path class="a4" d="m581.8 577.7l2.8 1v0.1c1.4 0.5 2.1 2.1 1.6 3.6-0.5 1.4-2.2 2.1-3.6 1.6l-2.8-1.1c-1.5-0.5-2.2-2.1-1.7-3.6 0.6-1.4 2.2-2.1 3.6-1.6z"/><path class="a4" d="m591.1 581.2l2.8 1c1.5 0.5 2.2 2.1 1.7 3.5-0.5 1.5-2.1 2.3-3.6 1.7l-2.8-1c-1.5-0.5-2.2-2.1-1.7-3.6 0.5-1.4 2.1-2.2 3.6-1.7z"/><path class="a4" d="m600.5 584.5l2.8 0.9c1.5 0.5 2.3 2.1 1.8 3.6-0.5 1.5-2.1 2.2-3.6 1.7l-2.8-0.9c-1.5-0.5-2.3-2.1-1.8-3.6 0.5-1.5 2.1-2.2 3.6-1.7z"/><path class="a4" d="m609.9 587.6l2.9 0.9c1.5 0.5 2.3 2.1 1.8 3.6-0.5 1.4-2.1 2.3-3.5 1.8l-2.9-0.9c-1.5-0.5-2.3-2.1-1.8-3.6 0.5-1.4 2-2.3 3.5-1.8z"/><path class="a4" d="m619.4 590.6l2.9 0.9c1.5 0.4 2.3 2 1.9 3.5-0.5 1.5-2.1 2.3-3.5 1.9l-2.9-0.9c-1.5-0.5-2.3-2-1.9-3.5 0.5-1.5 2-2.3 3.5-1.9z"/><path class="a4" d="m629 593.4l2.8 0.9c1.5 0.4 2.4 1.9 2 3.4-0.5 1.5-2 2.4-3.5 2l-2.9-0.9c-1.5-0.4-2.3-1.9-1.9-3.4 0.4-1.5 1.9-2.4 3.4-2z"/><path class="a4" d="m638.5 596.1l2.9 0.8c1.5 0.3 2.4 1.9 2 3.4-0.4 1.5-1.9 2.4-3.4 2l-2.9-0.8c-1.5-0.4-2.4-1.9-2-3.4 0.4-1.5 1.9-2.4 3.4-2z"/><path class="a4" d="m648.2 598.6l2.9 0.6v0.1c1.5 0.3 2.4 1.8 2.1 3.3-0.4 1.5-1.9 2.5-3.4 2.1l-3-0.7c-1.5-0.4-2.4-1.9-2-3.4 0.3-1.5 1.9-2.4 3.4-2.1z"/><path class="a4" d="m657.9 600.8l2.9 0.6c1.5 0.4 2.5 1.9 2.1 3.4-0.3 1.5-1.8 2.5-3.3 2.1l-3-0.6c-1.5-0.3-2.4-1.8-2.1-3.4 0.3-1.5 1.8-2.4 3.3-2.1z"/><path class="a4" d="m667.6 602.8l2.9 0.6c1.6 0.3 2.5 1.8 2.2 3.3-0.2 1.5-1.7 2.5-3.2 2.2l-3-0.5c-1.5-0.3-2.5-1.8-2.2-3.3 0.3-1.6 1.7-2.6 3.3-2.3z"/><path class="a4" d="m677.4 604.7l2.9 0.5c1.5 0.2 2.6 1.7 2.3 3.2-0.3 1.5-1.7 2.6-3.2 2.3l-3-0.5c-1.5-0.3-2.6-1.7-2.3-3.2 0.3-1.6 1.7-2.6 3.2-2.3z"/><path class="a4" d="m687.2 606.3l2.9 0.4c1.6 0.2 2.6 1.6 2.4 3.2-0.2 1.5-1.7 2.6-3.2 2.4l-3-0.5c-1.5-0.2-2.6-1.6-2.4-3.2 0.3-1.5 1.7-2.6 3.2-2.3z"/><path class="a4" d="m697 607.6l2.9 0.4h0.1c1.5 0.1 2.6 1.5 2.4 3.1-0.2 1.5-1.6 2.6-3.1 2.4l-3-0.3c-1.5-0.2-2.6-1.6-2.5-3.1 0.2-1.6 1.6-2.7 3.2-2.5z"/><path class="a4" d="m706.9 608.7l2.9 0.3c1.6 0.1 2.7 1.5 2.6 3-0.2 1.6-1.5 2.7-3.1 2.6l-3-0.3c-1.5-0.1-2.7-1.5-2.5-3.1 0.1-1.5 1.5-2.7 3-2.5z"/><path class="a4" d="m716.7 609.5l3 0.2c1.6 0.1 2.8 1.5 2.6 3-0.1 1.6-1.4 2.7-2.9 2.6l-3.1-0.2c-1.5-0.1-2.7-1.4-2.6-3 0.1-1.5 1.5-2.7 3-2.6z"/><path class="a4" d="m726.6 610.1l3 0.1c1.6 0 2.8 1.4 2.7 2.9 0 1.6-1.3 2.8-2.9 2.7l-3-0.1c-1.6-0.1-2.8-1.4-2.7-2.9 0.1-1.6 1.4-2.8 2.9-2.7z"/><path class="a4" d="m736.5 610.3l3 0.1c1.6 0 2.9 1.3 2.8 2.8 0 1.6-1.2 2.8-2.8 2.8h-3c-1.6 0-2.8-1.3-2.8-2.9 0-1.5 1.3-2.8 2.8-2.8z"/><path class="a4" d="m746.5 610.3h2.9 0.1c1.5-0.1 2.8 1.2 2.8 2.7 0.1 1.6-1.2 2.9-2.7 2.9l-3 0.1c-1.6 0-2.9-1.2-2.9-2.8-0.1-1.5 1.2-2.8 2.7-2.9z"/><path class="a4" d="m756.4 610l2.9-0.2h0.1c1.5-0.1 2.8 1.1 2.9 2.7 0.1 1.5-1.1 2.9-2.6 3l-3.1 0.1c-1.5 0.1-2.8-1.1-2.9-2.6-0.1-1.6 1.1-2.9 2.6-3z"/><path class="a4" d="m766.2 609.3l3-0.2c1.6-0.2 3 1 3.1 2.5 0.1 1.6-1 2.9-2.6 3.1l-3 0.3c-1.5 0.1-2.9-1.1-3-2.6-0.2-1.6 1-2.9 2.5-3.1z"/><path class="a4" d="m776.1 608.3l2.9-0.3h0.1c1.5-0.2 2.9 0.9 3.1 2.4 0.2 1.6-0.9 3-2.4 3.2l-3 0.3c-1.6 0.2-3-0.9-3.2-2.4-0.2-1.6 0.9-3 2.5-3.2z"/><path class="a4" d="m785.9 607l2.9-0.5h0.1c1.5-0.2 3 0.8 3.2 2.4 0.2 1.5-0.8 3-2.3 3.2l-3 0.5c-1.6 0.2-3-0.8-3.3-2.4-0.2-1.5 0.8-3 2.4-3.2z"/><path class="a4" d="m795.7 605.3l2.9-0.5c1.5-0.3 3 0.7 3.3 2.2 0.3 1.5-0.7 3-2.2 3.3l-3 0.6c-1.5 0.3-3-0.7-3.3-2.3-0.3-1.5 0.7-3 2.2-3.3z"/><path class="a4" d="m805.4 603.3l2.9-0.6c1.5-0.4 3 0.6 3.4 2.1 0.3 1.5-0.6 3-2.1 3.4l-3 0.6c-1.5 0.4-3-0.6-3.4-2.1-0.3-1.5 0.6-3 2.1-3.4z"/><path class="a4" d="m815 601l2.9-0.8c1.5-0.4 3 0.5 3.5 2 0.4 1.5-0.5 3.1-2 3.5h-0.1l-2.9 0.8c-1.5 0.4-3-0.5-3.4-2-0.4-1.6 0.5-3.1 2-3.5z"/><path class="a4" d="m824.5 598.3l2.9-0.9c1.5-0.4 3.1 0.4 3.5 1.9 0.5 1.5-0.4 3.1-1.9 3.5l-2.9 0.9c-1.4 0.5-3-0.4-3.5-1.9-0.4-1.4 0.4-3 1.9-3.5z"/><path class="a4" d="m833.9 595.3l2.8-1h0.1c1.5-0.5 3.1 0.3 3.6 1.7 0.5 1.5-0.3 3.1-1.8 3.6l-2.8 1c-1.5 0.5-3.1-0.2-3.6-1.7-0.5-1.5 0.2-3.1 1.7-3.6z"/><path class="a4" d="m843.2 591.9l2.8-1.1c1.5-0.6 3.1 0.2 3.7 1.6 0.6 1.5-0.1 3.1-1.6 3.7l-2.8 1.1c-1.5 0.6-3.1-0.2-3.7-1.6-0.6-1.5 0.2-3.1 1.6-3.7z"/><path class="a4" d="m852.4 588.2l2.7-1.2h0.1c1.4-0.6 3.1 0 3.7 1.5 0.6 1.4 0 3.1-1.5 3.7l-2.8 1.2c-1.4 0.6-3.1 0-3.7-1.5-0.6-1.4 0-3.1 1.5-3.7z"/><path class="a4" d="m861.4 584.1l2.7-1.3c1.4-0.7 3.1-0.1 3.8 1.3 0.7 1.4 0.1 3.1-1.3 3.8l-2.7 1.3c-1.5 0.7-3.2 0.1-3.8-1.3-0.7-1.4-0.1-3.1 1.3-3.8z"/><path class="a4" d="m870.2 579.7l2.7-1.4c1.4-0.8 3.1-0.3 3.8 1.1 0.8 1.4 0.3 3.1-1.1 3.9l-2.7 1.4c-1.4 0.7-3.1 0.2-3.8-1.2-0.8-1.3-0.3-3.1 1.1-3.8z"/><path class="a4" d="m878.9 574.9l2.5-1.5h0.1c1.3-0.8 3.1-0.4 3.9 1 0.8 1.3 0.3 3-1 3.8l-2.7 1.6c-1.3 0.8-3 0.3-3.8-1-0.8-1.4-0.4-3.1 1-3.9z"/><path class="a4" d="m887.3 569.7l2.5-1.6c1.3-0.9 3.1-0.5 4 0.8 0.8 1.3 0.4 3.1-0.9 3.9l-2.5 1.7c-1.3 0.9-3.1 0.5-3.9-0.8-0.9-1.3-0.5-3.1 0.8-4z"/><path class="a4" d="m895.5 564.2l2.4-1.7c1.3-0.9 3.1-0.7 4 0.6 0.9 1.3 0.6 3.1-0.6 4l-2.5 1.7c-1.3 1-3.1 0.7-4-0.6-0.9-1.3-0.6-3.1 0.7-4z"/><path class="a4" d="m903.4 558.3l2.4-1.8c1.2-1 3-0.8 4 0.4 0.9 1.3 0.7 3.1-0.5 4l-2.4 1.9c-1.2 1-3 0.8-4-0.5-0.9-1.2-0.7-3 0.5-3.9z"/><path class="a4" d="m911.1 552.1l2.2-1.9v-0.1c1.2-1 3-0.9 4 0.3 1.1 1.2 0.9 3-0.2 4l-2.3 2c-1.2 1-3 0.9-4-0.3-1.1-1.2-0.9-2.9 0.2-4z"/><path class="a4" d="m918.4 545.5l2.1-2 0.1-0.1c1.1-1.1 2.9-1 4 0.1 1.1 1.1 1 2.9-0.1 4l-2.2 2.1c-1.1 1.1-2.9 1.1-4-0.1-1.1-1.1-1.1-2.9 0.1-4z"/><path class="a4" d="m925.4 538.6l2-2.2h0.1c1-1.2 2.8-1.2 4-0.1 1.1 1 1.2 2.8 0.1 4l-2.1 2.2c-1.1 1.1-2.9 1.2-4 0.1-1.2-1.1-1.2-2.9-0.1-4z"/><path class="a4" d="m932 531.3l1.9-2.3h0.1c1-1.2 2.8-1.4 4-0.3 1.2 1 1.3 2.8 0.3 4l-2 2.3c-1 1.2-2.8 1.3-4 0.3-1.2-1-1.3-2.8-0.3-4z"/><path class="a4" d="m938.3 523.7l1.8-2.4c0.9-1.3 2.7-1.5 4-0.6 1.2 1 1.5 2.8 0.5 4l-1.8 2.5c-1 1.2-2.8 1.5-4 0.5-1.3-0.9-1.5-2.7-0.6-4z"/><path class="a4" d="m944 515.7l1.7-2.4v-0.1c0.9-1.3 2.6-1.6 3.9-0.7 1.3 0.8 1.7 2.6 0.8 3.9l-1.7 2.5c-0.9 1.3-2.6 1.6-3.9 0.8-1.3-0.9-1.6-2.6-0.8-3.9z"/><path class="a4" d="m949.4 507.4l1.6-2.5c0.8-1.3 2.5-1.7 3.8-0.9 1.3 0.8 1.8 2.5 1 3.8l-1.6 2.6c-0.8 1.3-2.5 1.7-3.8 0.9-1.4-0.8-1.8-2.5-1-3.8z"/><path class="a4" d="m954.4 498.9l1.4-2.6h0.1c0.7-1.3 2.4-1.8 3.7-1.1 1.4 0.7 1.8 2.4 1.1 3.8l-1.4 2.6c-0.8 1.4-2.4 1.9-3.8 1.1-1.3-0.7-1.8-2.4-1.1-3.7z"/><path class="a4" d="m959.1 490.2l1.3-2.6v-0.1c0.6-1.3 2.3-1.9 3.6-1.2 1.3 0.7 1.9 2.3 1.2 3.6l-1.3 2.7c-0.6 1.4-2.2 2-3.6 1.3-1.4-0.6-1.9-2.3-1.3-3.6q0 0 0 0z"/><path class="a4" d="m963.2 481.3l1.2-2.7v-0.1c0.6-1.3 2.1-1.9 3.5-1.3 1.3 0.5 1.9 2.1 1.4 3.4l-1.2 2.8c-0.5 1.4-2.1 2-3.4 1.4-1.4-0.5-2-2.1-1.5-3.4q0 0 0 0z"/><path class="a4" d="m966.9 472.2l1-2.8c0.5-1.4 2-2.1 3.3-1.6 1.3 0.5 2 1.9 1.6 3.2l-1 2.9c-0.5 1.4-1.9 2.1-3.3 1.6-1.3-0.4-2.1-1.9-1.6-3.2q0 0 0-0.1z"/><path class="a4" d="m970 462.9l0.8-2.9c0.3-1.3 1.7-2.1 3-1.8 1.3 0.4 2.1 1.7 1.7 3l-0.7 3c-0.3 1.3-1.7 2.1-3 1.8-1.4-0.3-2.2-1.7-1.8-3q0 0 0-0.1z"/><path class="a4" d="m972.3 453.4l0.5-2.9v-0.1c0.2-1.3 1.4-2.1 2.7-1.9 1.3 0.2 2.1 1.4 1.9 2.7l-0.4 3c-0.2 1.3-1.4 2.2-2.7 2-1.3-0.2-2.2-1.4-2-2.7q0 0 0-0.1z"/><path class="a4" d="m973.6 443.7l0.1-2.9v-0.1c0.1-1.2 1.1-2.2 2.4-2.1 1.2 0.1 2.1 1.1 2.1 2.3l-0.1 3.1c0 1.2-1.1 2.2-2.3 2.2-1.3 0-2.3-1.1-2.2-2.3q0-0.1 0-0.1z"/><path class="a4" d="m973.6 434.1l-0.3-2.9v-0.1c-0.2-1.2 0.7-2.2 1.8-2.3 1.1-0.1 2.1 0.7 2.3 1.8l0.4 3.1c0.2 1.1-0.6 2.2-1.8 2.4-1.2 0.1-2.2-0.7-2.4-1.9q0 0 0 0z"/><path class="a4" d="m971.9 424.6l-0.8-2.7-0.1-0.2c-0.3-1 0.3-2 1.3-2.3 1-0.4 2 0.2 2.4 1.1l1 3c0.4 1-0.1 2.2-1.2 2.5-1 0.4-2.1-0.2-2.5-1.2q0 0 0-0.1z"/><path class="a4" d="m968.4 415.8l-1.5-2.5v-0.1c-0.5-0.9-0.2-1.9 0.6-2.4 0.8-0.5 1.8-0.2 2.3 0.6l1.7 2.6c0.5 0.8 0.3 1.9-0.5 2.5-0.9 0.5-2 0.2-2.5-0.6q0 0 0 0z"/><path class="a4" d="m962.9 407.9l-2.1-2v-0.1c-0.6-0.6-0.6-1.6 0-2.2 0.6-0.5 1.5-0.5 2.1 0l2.3 2.2c0.6 0.6 0.6 1.6 0 2.2-0.6 0.6-1.6 0.7-2.2 0.1q0-0.1-0.1-0.1z"/><path class="a4" d="m955.6 401.5l-2.4-1.7c-0.6-0.4-0.7-1.2-0.3-1.8 0.3-0.6 1.1-0.7 1.7-0.4l2.6 1.6c0.6 0.4 0.8 1.3 0.4 1.9-0.3 0.7-1.2 0.9-1.8 0.5q-0.1-0.1-0.1-0.1z"/><path class="a5" d="m170.7 615.3l210.2 0.1v-32.3h-210.2c4.5 0 4.5 32.2 0 32.2z"/><path class="a6" d="m380.9 607.3v-14.8c0-5.2-4.2-9.4-9.3-9.4h-200c-4.1 0-7.3-2.5-7.3-5.6 0-0.9 1-1.7 2.2-1.7h218.6c5 0 13 6.1 13 13.5v20.6c0 7-7.7 12.7-12.5 12.7h-218c-1.8 0-3.3-1.1-3.3-2.5 0-2.6 2.7-4.8 6.1-4.8h202.5c4.4 0 8-3.6 8-8z"/><path class="n" d="m375.1 590.7h-197.1c-0.6 0-1-0.4-1-1 0-0.5 0.4-1 1-1h197.1c0.5 0 1 0.5 1 1 0 0.6-0.5 1-1 1z"/><path class="n" d="m375.1 595.5h-197.1c-0.6 0-1-0.4-1-1 0-0.5 0.4-1 1-1h197.1c0.5 0 1 0.5 1 1 0 0.6-0.5 1-1 1z"/><path class="n" d="m375.1 600.3h-197.1c-0.6 0-1-0.5-1-1 0-0.6 0.4-1 1-1h197.1c0.5 0 1 0.4 1 1 0 0.5-0.5 1-1 1z"/><path class="n" d="m375.1 605.1h-197.1c-0.6 0-1-0.5-1-1 0-0.6 0.4-1 1-1h197.1c0.5 0 1 0.4 1 1 0 0.5-0.5 1-1 1z"/><path class="n" d="m375.1 609.9h-197.1c-0.6 0-1-0.5-1-1 0-0.6 0.4-1 1-1h197.1c0.5 0 1 0.4 1 1 0 0.5-0.5 1-1 1z"/><path class="a7" d="m387.2 748.1h-293.5c-11.1 0-20.1-9-20.1-20.1v-22.8c0-11.1 9-20.1 20.1-20.1h293.5c11.1 0 20.1 9 20.1 20.1v22.8c0 11.1-9 20.1-20.1 20.1z"/><path class="a8" d="m143.3 740.9h-24.7c-4 0-7.3-3.3-7.3-7.3v-34c0-4 3.3-7.3 7.3-7.3h24.7c4 0 7.2 3.3 7.2 7.3v34c0 4-3.2 7.3-7.2 7.3z"/><path class="a9" d="m401.6 626.1v10.9c0 1.9-1.1 3.6-3 4.9l-1.8 1.2c-1.6 1-1.2 2.8 0.6 3.5 1.2 0.4 1.4 1.6 0.4 2.3l-2.3 1.5c-1.6 1-1.6 2.8 0 3.9l1.6 1.1c1.5 1 1.5 2.7 0 3.6l-1.9 1.1c-1.2 0.8-1.4 2.2-0.4 3.2l1 1c0.7 0.7 1.1 1.5 1.1 2.4v17.2h-246.1v-58.8z"/><path class="aa" d="m159.3 638.7h233.7c0.5 0 0.9-0.3 0.9-0.7 0-0.4-0.4-0.7-0.9-0.7h-233.7c-0.5 0-0.9 0.3-0.9 0.7 0 0.4 0.4 0.7 0.9 0.7z"/><path class="aa" d="m159.3 648.9h228.2c0.5 0 0.9-0.3 0.9-0.6 0-0.4-0.4-0.7-0.9-0.7h-228.2c-0.5 0-0.9 0.3-0.9 0.7 0 0.3 0.4 0.6 0.9 0.6z"/><path class="aa" d="m159.3 656.5h225.3c0.5 0 0.9-0.3 0.9-0.7 0-0.4-0.4-0.7-0.9-0.7h-225.3c-0.5 0-0.9 0.3-0.9 0.7 0 0.4 0.4 0.7 0.9 0.7z"/><path class="ab" d="m146.3 621.4h260.7c2 0 3.8 1.1 3.9 2.5 0.3 1.7-1.5 3.1-3.7 3.1h-241.8c-4.2 0-7.9 2.3-8.7 5.4-4 13.8-3.7 28.3 0 43.2 0.9 3.5 4.9 6 9.7 6h235.8c2 0 3.8 1.1 4 2.5 0.2 1.7-1.6 3.1-3.8 3.1h-254.4c-6 0-11.3-3.2-12.4-7.7-4.3-18-4.7-35.4 0-51.8 1.1-3.7 5.5-6.3 10.6-6.3z"/><path class="ac" d="m321.4 656.6c-1.9 2.8-9.3 65.5-10.5 88.6 0 1.6 1.2 2.9 2.8 2.9 1.3 0 2.5-1 2.7-2.3l13.6-87.2z"/><path class="ad" d="m381.2 656.6c1.9 2.8 9.3 65.5 10.5 88.6 0.1 1.6-1.2 2.9-2.7 2.9-1.4 0-2.5-1-2.7-2.3l-13.7-87.2z"/><path class="ae" d="m310.2 651.7v0.7c-0.1 4.9 4.1 8.9 9.5 9l62.9 1.1c5.2 0.1 9.5-3.7 9.8-8.5v-0.7c0.3-5-4-9.3-9.4-9.4l-63-1.1c-5.4-0.1-9.8 3.9-9.8 8.9z"/><path class="af" d="m432.5 743c-11.2 0-16.1-1-18.3-1.9 0.4 1.9 2 3.3 4.1 3.3h39.6c1.3 0 2.1-1.3 1.8-2.4-4.5 0.3-14.1 1-27.2 1z"/><path class="ag" d="m459.7 742q-0.1-0.4-0.3-0.7c-3-3.8-9.1-9.9-17.3-9.8-12.1 0.2-16.3 1.5-25.6 0.1l-2.2 7.3c-0.3 0.8-0.3 1.5-0.1 2.2 2.2 0.9 7.1 1.9 18.3 1.9 13.1 0 22.7-0.7 27.2-1z"/><path class="ah" d="m419.2 723.7l-2.7 9.2c0 0 6 2.8 11.3 0.6l1-8z"/><path class="ai" d="m501.2 737.2c-8.8 7-13.2 9.3-15.5 10 1.5 1.2 3.7 1.3 5.3 0l30.8-24.8c1.1-0.8 0.9-2.3 0-3-3.3 3.1-10.4 9.5-20.6 17.8z"/><path class="aj" d="m521.8 719.4q-0.3-0.3-0.7-0.4c-4.8-1.1-13.2-2-19.6 3.3-9.3 7.7-11.8 11.3-19.9 16.1l2.8 7.1c0.3 0.7 0.8 1.3 1.3 1.7 2.3-0.7 6.7-3 15.5-10 10.2-8.3 17.3-14.7 20.6-17.8z"/><path class="ak" d="m361.1 618.5c0 0 67 5.5 80.7 12 13.7 6.4-11.2 97-11.2 97 0 0-3.8 1.8-12.1-0.7 0 0 8.6-66.9 2.2-81.4l-72.5-11.9z"/><path class="al" d="m474.9 725.7c0.6 0.5 6.7 12.7 6.7 12.7 0 0 6.7-1.4 8-5.7l-6-11z"/><path class="am" d="m320.8 618c0 0-2.2 5.2-2.1 12.2 0.1 9.7 7.9 17.5 17.5 18l79.2 3.6c1.6 0 3 1.2 3.5 2.8 1.8 7.2 10.9 29.3 55.3 73.4 1.2 1.2 3.1 1.4 4.5 0.5l6.3-4c0.7-0.5 0.9-1.3 0.5-2l-46.1-78.7c-2.4-4-6.3-6.9-10.8-8l-67.5-17.3z"/><path class="an" d="m398.8 495.1c0 0-8.5 15-17.1 22.2l17.8 10c0 0 4.1-15.9 13.2-20.5z"/><path class="ao" d="m319.4 618.5c0 0 21.3 5.2 41.7 0 0 0 28.5-38.3 39.6-48.8 0 0 17.6 27.8 56.8 31.8l2.2-4.9c0 0-31.2-14.4-40.8-36.5-9.6-22.1-13.5-31.5-22.2-37.3-5.5-3.6-8.7-6-10.4-7.4-0.9-0.7-2.2-0.8-3.2-0.2-9.3 5.7-52.9 35.6-63.7 103.3z"/><path class="ap" d="m399.5 570.1c-0.6 0-1.3-0.3-1.8-0.9-6.8-9-10.7-18.9-10.8-19.3-0.5-1.1 0.1-2.4 1.3-2.9 1.1-0.4 2.4 0.2 2.9 1.3 0 0.1 3.7 9.7 10.2 18.2 0.8 0.9 0.6 2.4-0.4 3.1-0.4 0.3-0.9 0.5-1.4 0.5z"/><path class="aq" d="m455.1 594l4.4-1.1 13.4-3.1c1.6-0.4 3.3-0.1 4.7 0.7l11.6 7.3-31.8-0.1z"/><path class="ar" d="m412.2 472.6c0 0 8.3 13.7 9.7 21.3 1.4 7.5 3.7 12.3-4.9 15-8.6 2.7-16.6-0.8-21.6-7.8 0 0-7.9-10.9-7.1-15.9 0.8-5 23.9-12.6 23.9-12.6z"/><path class="as" d="m397.7 495.2l1.1-0.1c0 0-5.9-8.8-2-11 3.8-2.2 19.3-7.6 22-13.7 2.6-5.9-1.3-12.6-5.9-14-0.3-0.1-0.7 0.1-0.8 0.4l-0.2 0.7c-0.2 0.5-0.9 0.6-1.2 0.1-0.2-0.5-0.8-0.5-1.1-0.1-0.8 1.9-3.3 5-10.8 7.4-10.6 3.5-17.2 8.8-16.4 16.4 0.1 0.5-0.4 0.8-0.8 0.6-0.9-0.4-2.2-0.5-3.8 1.2-2.6 2.9-0.5 9.3 6.7 13.8 0.4 0.2 0.4 0.7 0.1 0.9-1.1 1-2.6 3 2.3 4.9 5 1.9 7.8 1.2 8.8 0.8 0.3-0.1 0.4-0.4 0.4-0.6l-1.3-6.7c-0.1-0.3 0.1-0.6 0.5-0.7z"/><path class="at" d="m398.1 496.6c0 0-3.6-9-7.4-5.8-3.8 3.1 3.5 10.1 6.9 10z"/><path class="au" d="m442.8 604q0.1 0 0.2 0h67.9c1.7 0 3.1-1.4 3.1-3.1 0-1.6-1.4-3-3.1-3l-67.9 0.1c-1.7 0-3 1.3-3 3 0 1.6 1.2 3 2.8 3z"/><path class="av" d="m537.3 537.5q-0.1 0.1-0.1 0.1l-28.6 61.7c-0.7 1.5 0 3.3 1.5 4 1.5 0.7 3.3 0.1 4-1.5l28.6-61.6c0.7-1.5 0-3.3-1.5-4.1-1.4-0.6-3.2 0-3.9 1.4z"/><path class="aw" d="m473.1 607.4c-0.3 1.3-28.7 107.6-35.8 134.6-0.9 3.1 1.4 6.1 4.6 6.1 2.2 0 4.2-1.5 4.7-3.7l31.5-127.6z"/><path class="ax" d="m488.6 607.4c0.3 1.3 28.7 107.6 35.9 134.6 0.8 3.1-1.5 6.1-4.7 6.1-2.2 0-4.2-1.5-4.7-3.7l-31.5-127.6z"/><path class="ay" d="m489.8 604h-17.7v14.1c0 2.1 1.7 3.7 3.7 3.7h2.4v31.9c0 1.5 1.3 2.8 2.8 2.8 1.5 0 2.7-1.3 2.7-2.8v-31.9h1.3c2.6 0 4.8-2.2 4.8-4.9z"/><path class="az" d="m428.7 600.6h98.6c1.4 0 2.6 0.9 3 2.3l1.3 5.3c0.5 2-0.9 3.9-2.9 3.9l-101.2-0.6c-1.9 0-3.4-1.9-2.9-3.8l1.2-4.8c0.3-1.4 1.5-2.3 2.9-2.3z"/></svg>