<svg version="1.2" xmlns="http://www.w3.org/2000/svg" viewBox="0 0 2960 2624" width="2960" height="2624"><defs><linearGradient id="P" gradientUnits="userSpaceOnUse"/><linearGradient id="g1" x1="3696.1" y1="2852.4" x2="-2053.2" y2="2392.5" href="#P"><stop stop-color="#4f52ff"/><stop offset="1" stop-color="#4042e2"/></linearGradient><linearGradient id="g2" x1="4811.3" y1="1098.8" x2="-6736.8" y2="6856.1" href="#P"><stop stop-color="#4f52ff"/><stop offset="1" stop-color="#4042e2"/></linearGradient><linearGradient id="g3" x1="6048" y1="-887.2" x2="-4248.9" y2="6232.1" href="#P"><stop stop-color="#4f52ff"/><stop offset="1" stop-color="#4042e2"/></linearGradient><linearGradient id="g4" x1="3573.1" y1="-2800.5" x2="884.9" y2="2936.9" href="#P"><stop stop-color="#ff928e"/><stop offset="1" stop-color="#fe7062"/></linearGradient><linearGradient id="g5" x1="2906.9" y1="928.3" x2="3916.8" y2="1262.2" href="#P"><stop stop-color="#4f52ff"/><stop offset="1" stop-color="#4042e2"/></linearGradient><linearGradient id="g6" x1="2530" y1="2565.1" x2="3584.2" y2="2706.5" href="#P"><stop stop-color="#4f52ff"/><stop offset="1" stop-color="#4042e2"/></linearGradient><linearGradient id="g7" x1="12384.6" y1="-21055" x2="13445.5" y2="-20519.2" href="#P"><stop stop-color="#09005d"/><stop offset="1" stop-color="#1a0f91"/></linearGradient><linearGradient id="g8" x1="1554.9" y1="835.9" x2="2464" y2="1136.4" href="#P"><stop stop-color="#09005d"/><stop offset="1" stop-color="#1a0f91"/></linearGradient></defs><style>.a{fill:#fdde99}.b{opacity:.4;fill:#fff}.c{fill:#91b3fa}.d{fill:url(#g1)}.e{fill:#fff}.f{fill:url(#g2)}.g{fill:url(#g3)}.h{fill:url(#g4)}.i{fill:url(#g5)}.j{fill:url(#g6)}.k{fill:url(#g7)}.l{fill:url(#g8)}</style><path class="a" d="m2688.5 371c-5.5-14.9-27.4-12.6-29.5 3.2-20.7 152.8-87.3 551.6-243.9 780.3-254.9 372.3-380.2 936.3-148.3 1186.9 0 0 1020-339.4 421.7-1970.4z"/><path class="b" d="m2688.9 584.8c0.3 4.9 0.2 8.9 0.2 13.2l-0.1 12.8-0.6 25.6c-0.5 17.1-1.3 34.1-2.1 51.1-1.6 34.1-3.7 68.1-6.1 102.1-5 68-11.7 135.9-19.5 203.6-7.7 67.8-17.3 135.3-28.3 202.6-11.1 67.3-23.1 134.5-37.4 201.2-28.2 133.5-63.7 265.6-108.4 394.7-23 64.3-47.7 128-76 190.1-28.8 62-60.3 122.7-96 180.9-0.8 1.2-2.4 1.6-3.7 0.8-1.2-0.7-1.6-2.3-0.9-3.6 33.3-59.3 63.4-120.3 90.4-182.6 27.2-62.2 50.7-126 72.6-190.3 21.8-64.3 41-129.5 58.8-195.1 17.7-65.6 32.7-131.9 47.3-198.2 28.7-132.9 50.3-267.3 68.2-402.1 8.8-67.5 16.2-135.1 22.4-202.9 3.2-33.8 6.1-67.7 8.5-101.7l3.3-50.9 1.3-25.4 0.6-12.8c0.1-4.1 0.3-8.6 0.2-12.3v-0.6c0-1.5 1.2-2.7 2.6-2.7 1.5 0 2.6 1.1 2.7 2.5z"/><path class="c" d="m2022.7 87.1c-9.1-12.3-28.6-4.1-26.3 11 22.8 145.7 70.5 529.6-10.7 782-132.2 411-93.2 962.4 187.7 1129 0 0 842.8-589.5-150.7-1922z"/><path class="b" d="m2081.4 283c1.6 4.4 2.6 8.1 3.8 12.1l3.4 11.8 6.4 23.6c4.2 15.7 8.2 31.6 12.1 47.4 7.8 31.7 15.1 63.4 22.2 95.3 14.1 63.7 26.4 127.8 37.7 192 11.4 64.3 21.1 128.8 29.3 193.6 8.2 64.7 15.5 129.6 20.7 194.7 10.6 130.1 14 260.9 8.2 391.5-3.5 65.2-8.8 130.4-17.9 195.1-9.5 64.7-21.8 128.9-38.7 192-0.4 1.4-1.8 2.2-3.2 1.9-1.4-0.4-2.2-1.8-1.9-3.1v-0.1c14.4-63.4 25.3-127.6 33.1-192.1 7.9-64.5 12.1-129.4 14.6-194.3 2.5-64.9 2.3-130 0.7-194.9-1.7-65-6-129.9-10.7-194.8-9.9-129.7-26.8-258.8-47.2-387.3-10.3-64.3-21.9-128.3-34.7-192.1-6.3-31.9-12.9-63.8-19.9-95.6l-10.9-47.6-5.7-23.7-3-11.8c-1-3.9-2.1-8-3.1-11.4l-0.2-0.5c-0.4-1.4 0.4-2.9 1.7-3.3 1.3-0.4 2.8 0.3 3.2 1.6z"/><path class="d" d="m2293.2 1446.9c0 615.8-499.2 1114.9-1114.9 1114.9-615.8 0-1114.9-499.1-1114.9-1114.9 0-615.7 499.1-1114.9 1114.9-1114.9 615.7 0 1114.9 499.2 1114.9 1114.9z"/><path class="e" d="m2367.8 1446.9c0 615.8-499.1 1114.9-1114.9 1114.9-615.7 0-1114.9-499.1-1114.9-1114.9 0-615.7 499.2-1114.9 1114.9-1114.9 615.8 0 1114.9 499.2 1114.9 1114.9z"/><path class="f" d="m2204.5 1446.9c0 525.5-426 951.5-951.6 951.5-525.5 0-951.5-426-951.5-951.5 0-525.5 426-951.5 951.5-951.5 525.6 0 951.6 426 951.6 951.5z"/><path fill-rule="evenodd" class="e" d="m1252.9 2446.1c-550.9 0-999.1-448.2-999.1-999.2 0-550.9 448.2-999.2 999.1-999.2 551 0 999.2 448.3 999.2 999.2 0 551-448.2 999.2-999.2 999.2zm0-1950.7c-524.6 0-951.5 426.8-951.5 951.5 0 524.7 426.9 951.5 951.5 951.5 524.7 0 951.6-426.8 951.6-951.5 0-524.7-426.9-951.5-951.6-951.5z"/><path class="g" d="m1833 1446.9c0 320.4-259.7 580.1-580.1 580.1-320.3 0-580.1-259.7-580.1-580.1 0-320.4 259.8-580.1 580.1-580.1 320.4 0 580.1 259.7 580.1 580.1z"/><path fill-rule="evenodd" class="e" d="m1252.9 2074.7c-346.1 0-627.7-281.6-627.7-627.8 0-346.1 281.6-627.7 627.7-627.7 346.2 0 627.8 281.6 627.8 627.7 0 346.2-281.6 627.8-627.8 627.8zm0-1160.2c-293.5 0-532.4 238.8-532.4 532.4 0 293.6 238.9 532.5 532.4 532.5 293.6 0 532.5-238.9 532.5-532.5 0-293.6-238.9-532.4-532.5-532.4z"/><path class="h" d="m1477.7 1446.9c0 124.1-100.6 224.8-224.8 224.8-124.1 0-224.7-100.7-224.7-224.8 0-124.1 100.6-224.7 224.7-224.7 124.2 0 224.8 100.6 224.8 224.7z"/><path fill-rule="evenodd" class="e" d="m1252.9 1719.3c-150.2 0-272.4-122.2-272.4-272.4 0-150.2 122.2-272.4 272.4-272.4 150.2 0 272.4 122.2 272.4 272.4 0 150.2-122.2 272.4-272.4 272.4zm0-449.5c-97.6 0-177 79.5-177 177.1 0 97.7 79.4 177.1 177 177.1 97.7 0 177.1-79.4 177.1-177.1 0-97.6-79.4-177.1-177.1-177.1z"/><path class="i" d="m2805.6 1782l47.7 96.1-201.9-46.5c-66.2-15.2-122-59.3-152.1-120.1z"/><path class="j" d="m2812.3 1753.2l84.8-65.6-201.9-46.5c-66.1-15.2-135.6 0-189.3 41.5z"/><path class="k" d="m2816.9 1749.2l-8 34.6-1310.3-301.7 7.9-34.6z"/><path class="l" d="m1567.3 1430.4c19.9 4.6-1.7 98.2-21.5 93.6l-301.5-108.5c-11.1-4-7.3-20.6 4.5-19.3z"/></svg>