<svg version="1.2" xmlns="http://www.w3.org/2000/svg" viewBox="0 0 2513 2948" width="2513" height="2948"><defs><linearGradient id="P" gradientUnits="userSpaceOnUse"/><linearGradient id="g1" x1="2876.7" y1="1055.7" x2="2152.5" y2="2928" href="#P"><stop stop-color="#ff9085"/><stop offset="1" stop-color="#fb6fbb"/></linearGradient><linearGradient id="g2" x1="1280.8" y1="1646.4" x2="919.1" y2="3057" href="#P"><stop stop-color="#ffc444"/><stop offset="1" stop-color="#f36f56"/></linearGradient><linearGradient id="g3" x1="1704.8" y1="1623.4" x2="1036.7" y2="2937.2" href="#P"><stop stop-color="#ffc444"/><stop offset="1" stop-color="#f36f56"/></linearGradient><linearGradient id="g4" x1="1488.1" y1="3033.1" x2="890.2" y2="3098.3" href="#P"><stop stop-color="#444b8c"/><stop offset="1" stop-color="#26264f"/></linearGradient><linearGradient id="g5" x1="3789.8" y1="1009.9" x2="2646.3" y2="4902.9" href="#P"><stop stop-color="#444b8c"/><stop offset="1" stop-color="#26264f"/></linearGradient><linearGradient id="g6" x1="809.3" y1="52.5" x2="1898.6" y2="281.5" href="#P"><stop offset="0" stop-color="#e38ddd"/><stop offset="1" stop-color="#9571f6"/></linearGradient><linearGradient id="g7" x1="1483.6" y1="370.2" x2="-193.1" y2="4911.2" href="#P"><stop stop-color="#311944"/><stop offset="1" stop-color="#893976"/></linearGradient><linearGradient id="g8" x1="1654.9" y1="245.7" x2="2264.3" y2="245.7" href="#P"><stop stop-color="#ffc444"/><stop offset="1" stop-color="#f36f56"/></linearGradient></defs><style>.a{fill:url(#g1)}.b{fill:#fff}.c{fill:url(#g2)}.d{fill:url(#g3)}.e{fill:url(#g4)}.f{fill:url(#g5)}.g{fill:url(#g6)}.h{fill:url(#g7)}.i{fill:#9d3060}.j{fill:url(#g8)}</style><path class="a" d="m943.8 2113.5c142.7 7.9 414.7-562.4 224.7-865.8-79.3-126.6-199-142.8-249.6-304-45.2-143.9 30.2-194.6 6.5-354.8-33.3-225.4-233.1-469.6-417.1-450.9-92.4 9.4-195.7 86.5-225.5 196.1-23.9 87.8 48.6 177 23 194.8-21.1 14.6-63.8-44.9-101.4-33.8-55.5 16.4-93.7 184.4-43.6 325.4 85.8 241.2 376.1 249.7 388 423.6 7.5 110.8-107.8 145.4-88.8 259.5 16.7 100.5 113.6 119.6 237.7 244 194.3 194.8 169.6 361.7 246.1 365.9z"/><g style="opacity:.5;mix-blend-mode:soft-light"><path class="b" d="m907.7 2238.9c2.8 0.8 6.1-0.2 7.8-2.8 1.6-2.3 1.7-5.2 0.5-7.5-0.1-4.3 2.8-18.2 6.1-34.3 18.5-90.1 67.6-329.7 18.8-710.8-61.4-479.4-252.7-1002.3-568.6-1554.1-2-3.4-6.3-4.6-9.7-2.7-3.5 2-4.6 6.4-2.7 9.8 339.4 592.9 710.1 1465.4 548.2 2255-7.3 35.7-8.7 42.1-2.5 46.4q1 0.7 2.1 1z"/><path class="b" d="m810.4 975.3c3.6 1.1 7.4-0.8 8.7-4.5 1.3-3.7-0.7-7.7-4.4-9-306.3-107.2-488-216.9-586.5-290.1-106.6-79.2-141.3-133.8-141.6-134.4-2.1-3.3-6.5-4.3-9.8-2.3-3.4 2.1-4.4 6.5-2.4 9.8 1.5 2.3 35.9 56.8 144.1 137.5 99.3 74 282.6 184.9 591.5 292.9q0.2 0.1 0.4 0.1z"/><path class="b" d="m699.2 630.9c1.4 0.4 3 0.4 4.5-0.2 83.3-30.5 140.8-133.9 170.8-307.2 22.1-127.8 20.2-248.4 20.2-249.6 0-3.9-3.3-7.1-7.2-7-4 0.1-7.1 3.3-7 7.3 0 4.7 6.1 474.3-181.8 543.1-3.7 1.4-5.6 5.5-4.2 9.2 0.8 2.2 2.6 3.7 4.7 4.4z"/><path class="b" d="m941.3 1576.5c2 0.6 4.3 0.3 6.1-1 115.4-79.9 171.1-219.6 197.6-322.7 28.6-111.2 30.1-205.1 30.1-206 0.1-3.9-3.1-7.2-7-7.2-4-0.1-7.2 3.1-7.3 7 0 0.9-1.5 93.4-29.7 203-25.9 100.6-80.2 236.8-191.8 314.1-3.3 2.3-4.1 6.7-1.8 10 0.9 1.4 2.3 2.3 3.8 2.8z"/></g><path class="c" d="m987.2 2429.2c46.6-227.8 40.1-404.3 26.5-519.4-10.7-90.4-34.5-216.7-98.8-232.6-30.8-7.6-48.4 15.7-80.5 6.3-60.8-17.9-59.2-118.9-97.5-192.4-65.6-125.8-276.7-226.1-427.9-151.7-182 89.5-201.3 395-103.5 489.2 58 55.8 161.8 41.8 167.5 82.4 5.6 40.8-98.4 63-105.7 128.4-7.5 67.8 94.5 129.2 100.7 132.9 123.5 72.6 220.8-2.5 356.4 31 73.6 18.2 169.4 71.1 262.8 225.9z"/><path class="d" d="m987.2 2429.2c46.6-227.8 40.1-404.3 26.5-519.4-10.7-90.4-34.5-216.7-98.8-232.6-30.8-7.6-48.4 15.7-80.5 6.3-60.8-17.9-59.2-118.9-97.5-192.4-65.6-125.8-276.7-226.1-427.9-151.7-182 89.5-201.3 395-103.5 489.2 58 55.8 161.8 41.8 167.5 82.4 5.6 40.8-98.4 63-105.7 128.4-7.5 67.8 94.5 129.2 100.7 132.9 123.5 72.6 220.8-2.5 356.4 31 73.6 18.2 169.4 71.1 262.8 225.9z"/><g style="opacity:.8;mix-blend-mode:soft-light"><path class="b" d="m1179.7 1822.8c-99.9 110.8-196.9 327.2-216.3 482.3l-3.6-0.5c19.5-155.7 117-372.9 217.3-484.2z"/><path class="b" d="m1007.5 2506.5l-3.4 1.1c-25.4-77.2-88.8-138.5-188.5-182.4-73.1-32.1-163.7-54.3-269.1-65.9l0.4-3.5c105.8 11.6 196.7 33.9 270.1 66.2 100.7 44.3 164.8 106.3 190.5 184.5z"/><path class="b" d="m716.9 1820.3l-3.3 1.3c-55.3-143-17.7-299.8 23.6-406.1l3.3 1.2c-41.1 105.8-78.5 261.7-23.6 403.6z"/><path class="b" d="m470.7 1570.1l-1.6 3.1c-152.5-81-331.5-51.8-424.6-27.1l-0.9-3.4c93.6-24.8 273.6-54.2 427.1 27.4z"/></g><path class="e" d="m854.4 479.3l-261.1 2170.6c-3.9 32.6 18.5 61.8 49.9 64.9l1087.7 119.4c66.7 4.1 103.2-29.9 107.3-64.5l274.1-2307.7c4.1-34.4-28.6-65.6-95.5-65.6l-1097.6 23.1c-31.8 0.5-60.9 27.5-64.8 59.8z"/><path class="f" d="m805.5 475.6l-262.6 2181.5c-3.9 32.7 18.6 62 50.1 65.1l1127.7 112.3c35.3 3.5 67.7-22.1 71.8-56.8l275.8-2319.7c4.1-34.6-21.9-62.4-57.6-61.8l-1140.2 19.3c-31.9 0.5-61.1 27.6-65 60.1z"/><path class="g" d="m826.9 595.9l-243.4 2022.7c-3.7 30.5 17.4 57.9 46.9 60.7l1060.5 103.1c32.9 3.2 63-20.6 66.9-53l254.8-2142.8c3.8-32.2-20.3-58.3-53.5-57.9l-1071.4 11.4c-29.8 0.3-57.2 25.4-60.8 55.8z"/><path class="h" d="m1395.6 474.1c-1.4 11.6 6.9 20.9 18.6 20.8 11.7-0.2 22.3-9.7 23.7-21.4 1.4-11.6-7-20.9-18.7-20.7-11.6 0.1-22.2 9.7-23.6 21.3z"/><g style="opacity:.5;mix-blend-mode:soft-light"><path class="b" d="m1010.2 1953.7c217.1-401.4 541.5-521.6 639.1-935.3 52.8-223.6 16.8-437.6-43.7-615.3l405.1-6.9c35.7-0.6 61.7 27.2 57.6 61.8l-275.8 2319.7c-4.1 34.7-36.5 60.3-71.8 56.8l-886.5-88.3c-6.5-359.6 79.3-613.6 176-792.5z"/></g><g style="opacity:.8"><path class="b" d="m951.2 1677c1.1-11.5 10.5-21.3 20.8-21l606.9 16.2c10.8 0.3 18.6 10.7 17.4 22.6l-7 66.2c-1.3 11.8-11.1 21.2-22 20.9l-606.1-18.9c-10.3-0.3-17.8-10-16.6-21.6z"/><path fill-rule="evenodd" class="b" d="m996.2 1818.9c1.2-11.6 10.5-20.8 20.9-20.5l481.3 15.7c10.8 0.4 18.6 10.3 17.3 22.2l-33.3 316.5c-1.2 11.8-11 20.9-21.7 20.4l-479.5-22.7c-10.3-0.5-17.7-10.3-16.5-21.8zm140.3 240.6c-1.5 14.9 8.2 26.5 21.6 27.1l135.8 6c13.6 0.6 25.9-10.1 27.5-25.1l15.7-151.7c1.6-15-8.2-28.4-21.8-28.9l-136.1-4.9c-13.5-0.5-25.7 12-27.2 27z"/><path class="b" d="m1252.8 2062.8c4.9 0.3 9.9-1.6 14.1-5.5l39.8-37.9c8.3-7.9 9.7-21.2 3.1-29.7-6.6-8.5-18.7-9-27-1.1l-24.7 23.6-61.6-79.6c-6.5-8.5-18.5-8.9-26.7-1-8.2 7.9-9.6 21.1-3 29.5l73.2 95c3.3 4.3 7.9 6.5 12.8 6.7z"/><path class="b" d="m968.3 1023h750.1c51.1 0 90.2 41.3 84.6 94l-21.6 202.9c-5.6 52.5-53.7 95.4-104.6 94.6l-746.9-12c-47.7-0.7-82.6-42.7-77.5-93.2l19.7-195.7c5.1-50.6 48.3-90.6 96.2-90.6z"/></g><path class="i" d="m1691 522.1c0 168.4 135.7 314.1 303.7 325.3 168.6 11.3 305.7-117 305.7-286.5 0-169.5-137.1-315.3-305.7-325.5-168-10.2-303.7 118.2-303.7 286.7z"/><path class="j" d="m1654.9 532.8c0 168.5 135.8 314.2 303.8 325.4 168.5 11.3 305.6-117 305.6-286.5 0-169.5-137.1-315.3-305.6-325.5-168-10.2-303.8 118.2-303.8 286.6z"/><path class="b" d="m1969.4 717.8c13.2 0.9 25.5-5.3 32.3-16.3l114.9-184.4c10.8-17.3 5-41-12.9-52.9-17.9-11.9-41.2-7.5-51.9 9.7l-79.7 128.1-105.1-214.1c-9.4-19.2-32.1-28-50.6-19.7-18.5 8.4-25.8 30.7-16.4 49.9l135.8 276.8c6.2 12.7 18.6 21.4 32.3 22.8q0.6 0 1.3 0.1z"/></svg>