<svg version="1.2" xmlns="http://www.w3.org/2000/svg" viewBox="0 0 2656 3309" width="2656" height="3309"><defs><linearGradient id="P" gradientUnits="userSpaceOnUse"/><linearGradient id="g1" x1="-330.7" y1="4459.5" x2="-2679.5" y2="397.9" href="#P"><stop stop-color="#ffc444"/><stop offset="1" stop-color="#f36f56"/></linearGradient><linearGradient id="g2" x1="2684.3" y1="1742.3" x2="1905.4" y2="3956" href="#P"><stop offset="0" stop-color="#e38ddd"/><stop offset="1" stop-color="#9571f6"/></linearGradient><linearGradient id="g3" x1="661.3" y1="4252.3" x2="-412" y2="3336.8" href="#P"><stop stop-color="#444b8c"/><stop offset="1" stop-color="#26264f"/></linearGradient><linearGradient id="g4" x1="675.1" y1="2699.3" x2="819.9" y2="-1192.4" href="#P"><stop stop-color="#444b8c"/><stop offset="1" stop-color="#26264f"/></linearGradient><linearGradient id="g5" x1="3528.2" y1="532.6" x2="3319.4" y2="5137.6" href="#P"><stop stop-color="#aa80f9"/><stop offset="1" stop-color="#6165d7"/></linearGradient><linearGradient id="g6" x1="3514.1" y1="539.6" x2="3306" y2="5129.8" href="#P"><stop stop-color="#aa80f9"/><stop offset="1" stop-color="#6165d7"/></linearGradient><linearGradient id="g7" x1="916.4" y1="959.1" x2="3531.6" y2="-2399.6" href="#P"><stop stop-color="#ab316d"/><stop offset="1" stop-color="#792d3d"/></linearGradient><linearGradient id="g8" x1="1275.2" y1="698.4" x2="1734.8" y2="108.1" href="#P"><stop stop-color="#fcb148"/><stop offset=".32" stop-color="#ffc444"/><stop offset=".87" stop-color="#f8924f"/><stop offset="1" stop-color="#f8924f"/></linearGradient><linearGradient id="g9" x1="1761.3" y1="892.1" x2="1483.9" y2="186.5" href="#P"><stop stop-color="#fcb148"/><stop offset=".32" stop-color="#ffc444"/><stop offset=".87" stop-color="#f8924f"/><stop offset="1" stop-color="#f8924f"/></linearGradient><linearGradient id="g10" x1="1631.4" y1="964.6" x2="2241" y2="181.6" href="#P"><stop stop-color="#fcb148"/><stop offset=".32" stop-color="#ffc444"/><stop offset=".87" stop-color="#f8924f"/><stop offset="1" stop-color="#f8924f"/></linearGradient><linearGradient id="g11" x1="-4571.9" y1="8243.1" x2="-3984.8" y2="7689.5" href="#P"><stop stop-color="#311944"/><stop offset="1" stop-color="#893976"/></linearGradient><linearGradient id="g12" x1="1893.4" y1="2132.9" x2="2363.8" y2="1706.1" href="#P"><stop stop-color="#ff9085"/><stop offset="1" stop-color="#fb6fbb"/></linearGradient><linearGradient id="g13" x1="1604.7" y1="140.9" x2="707.7" y2="986.7" href="#P"><stop stop-color="#311944"/><stop offset="1" stop-color="#893976"/></linearGradient><linearGradient id="g14" x1="1300.9" y1="-79.7" x2="1577.3" y2="348.1" href="#P"><stop stop-color="#ff9085"/><stop offset="1" stop-color="#fb6fbb"/></linearGradient><linearGradient id="g15" x1="-5900.8" y1="8687.1" x2="-5187.6" y2="8014.5" href="#P"><stop stop-color="#444b8c"/><stop offset="1" stop-color="#26264f"/></linearGradient><linearGradient id="g16" x1="1953.3" y1="1264.4" x2="2524.6" y2="745.9" href="#P"><stop stop-color="#aa80f9"/><stop offset="1" stop-color="#6165d7"/></linearGradient><linearGradient id="g17" x1="880.1" y1="1056.1" x2="1848.9" y2="1056.1" href="#P"><stop stop-color="#444b8c"/><stop offset="1" stop-color="#26264f"/></linearGradient><linearGradient id="g18" x1="1044" y1="1814.1" x2="1694.3" y2="1814.1" href="#P"><stop stop-color="#444b8c"/><stop offset="1" stop-color="#26264f"/></linearGradient><linearGradient id="g19" x1="1076.1" y1="1294.4" x2="1707.9" y2="1294.4" href="#P"><stop stop-color="#444b8c"/><stop offset="1" stop-color="#26264f"/></linearGradient><linearGradient id="g20" x1="911.5" y1="1283.5" x2="967.2" y2="1283.5" href="#P"><stop stop-color="#444b8c"/><stop offset="1" stop-color="#26264f"/></linearGradient><linearGradient id="g21" x1="1799.6" y1="1285.1" x2="1855.8" y2="1285.1" href="#P"><stop stop-color="#444b8c"/><stop offset="1" stop-color="#26264f"/></linearGradient><linearGradient id="g22" x1="964.4" y1="3279.7" x2="390.5" y2="2919.9" href="#P"><stop stop-color="#311944"/><stop offset="1" stop-color="#893976"/></linearGradient><linearGradient id="g23" x1="483.6" y1="1749.9" x2="679" y2="1845" href="#P"><stop stop-color="#311944"/><stop offset="1" stop-color="#893976"/></linearGradient><linearGradient id="g24" x1="977.3" y1="1883.2" x2="1580.7" y2="2760.5" href="#P"><stop stop-color="#ff9085"/><stop offset="1" stop-color="#fb6fbb"/></linearGradient><linearGradient id="g25" x1="-126.3" y1="946.2" x2="804.8" y2="690.8" href="#P"><stop stop-color="#444b8c"/><stop offset="1" stop-color="#26264f"/></linearGradient><linearGradient id="g26" x1="-117.4" y1="936.3" x2="813.8" y2="680.9" href="#P"><stop stop-color="#aa80f9"/><stop offset="1" stop-color="#6165d7"/></linearGradient></defs><style>.a{fill:url(#g1)}.b{fill:#fcfdfe}.c{fill:#d8dee8}.d{fill:url(#g2)}.e{fill:#beb8f2}.f{fill:url(#g3)}.g{fill:url(#g4)}.h{fill:url(#g5)}.i{fill:#de8bdf}.j{opacity:.3;mix-blend-mode:multiply;fill:url(#g6)}.k{fill:url(#g7)}.l{fill:url(#g8)}.m{fill:url(#g9)}.n{fill:url(#g10)}.o{fill:#fff}.p{fill:url(#g11)}.q{fill:url(#g12)}.r{opacity:.5;mix-blend-mode:soft-light;fill:#fff}.s{fill:url(#g13)}.t{fill:url(#g14)}.u{fill:url(#g15)}.v{fill:url(#g16)}.w{opacity:.3;mix-blend-mode:multiply;fill:url(#g17)}.x{opacity:.3;mix-blend-mode:multiply;fill:url(#g18)}.y{fill:url(#g19)}.z{fill:url(#g20)}.A{fill:url(#g21)}.B{opacity:.3;mix-blend-mode:multiply;fill:#d8dee8}.C{fill:url(#g22)}.D{fill:url(#g23)}.E{fill:url(#g24)}.F{fill:url(#g25)}.G{fill:url(#g26)}.H{opacity:.3;mix-blend-mode:soft-light;fill:#fff}</style><path class="a" d="m1486.1 2233.3c38.6 47.5 75.6 82.1 115.5 126.7-246.4 75.1-470.1 192.6-719.8 269.2 54.6-332.2 158.1-507.6-68.2-825.6-106.2-149.2-359.3-412.3-352.6-598.6 7.7-212.4 156.8-214.4 60.5-366.4-150.5-237.5-127.3-556.2 263.2-579 385.5-22.6 721.6 921.7 619.7 1251.2-30.6 297.8-119.8 474.9 81.7 722.5z"/><g style="opacity:.7;mix-blend-mode:soft-light"><path class="b" d="m1213.4 2471.6l5.5-0.9c-14.4-93.8-21.6-190-28.5-283l-2.7-35.3c-5.6-74.8-12-141.6-17.7-200.6-3.1-33-6.2-64.3-8.8-94.7-8.2-92.9-13.7-157.9-16.4-190.2l-1.8-21.3c-22.4-254.7-146.6-592.5-213.3-773.9-7.2-19.7-13.6-37.2-19.1-52.3-93.7-259.8-160.2-541.3-197.4-836.8l-5.6 0.7c37.4 295.9 103.9 577.8 197.8 838 5.5 15.1 11.9 32.6 19.1 52.3 66.6 181.2 190.6 518.5 212.9 772.5l1.8 21.3c2.8 32.3 8.3 97.3 16.5 190.2 2.6 30.4 5.6 61.7 8.8 94.8 5.6 58.9 12 125.7 17.7 200.4l2.7 35.3c6.9 93.1 14.1 189.4 28.5 283.5z"/><path class="b" d="m1175.7 2000.5l5.5-0.8c-22.8-167.5-117.1-355.2-272.7-542.6-129.6-156.1-298.2-306.5-462.5-412.5l-3 4.6c318.5 205.6 683.7 590.9 732.7 951.3z"/><path class="b" d="m936.1 903.8l4.5-3.1c-83-120.4-181.8-230.9-277.3-337.8-65.3-73.2-132.9-148.8-194.9-227l-4.3 3.5c62.1 78.3 129.7 154 195.1 227.2 95.4 106.8 194 217.2 276.9 337.2z"/><path class="b" d="m1087.2 1351.8c8.2-203.1 111.3-471.3 220.6-574l-3.8-4c-110.2 103.5-214.1 373.5-222.4 577.8z"/></g><path class="c" d="m1783.9 1479.6c15.7 292.1-159.9 273.9-385.2 260.5 103.5 252 195 501.1 287 754.3 150.8 6.7 259 8.7 296.2-170.8 42-203.1 59.5-321.7 264.6-422.2 205.1-100.5 328-302.2 201.4-492.2-133.1-200-17.3-535.3-242.9-647.6-393.1-195.7-437.5 413.9-421.1 718z"/><path class="c" d="m1783.9 1479.6c15.7 292.1-159.9 273.9-385.2 260.5 103.5 252 195 501.1 287 754.3 150.8 6.7 259 8.7 296.2-170.8 42-203.1 59.5-321.7 264.6-422.2 205.1-100.5 328-302.2 201.4-492.2-133.1-200-17.3-535.3-242.9-647.6-393.1-195.7-437.5 413.9-421.1 718z"/><g style="mix-blend-mode:soft-light"><path class="c" d="m1618.3 2156.9c187.6-160 339.5-298.6 444.8-501.8 100.8-194.4 126-382.3 84.3-628.1-21.7-127.3-22.8-221-22-349.4h-5.2c-0.8 128.6 0.3 222.5 22.1 350.3 41.5 244.6 16.5 431.5-83.8 624.9-104.9 202.3-256.4 340.5-443.6 500.2z"/><path class="c" d="m1979.2 2430.7l3.1-4.2c-65.5-47.9-131.9-83.5-203-108.7-36.4-12.9-71.7-18.8-113.7-23.8l-0.6 5.1c41.6 5 76.7 10.9 112.6 23.6 70.6 25 136.5 60.3 201.6 108z"/><path class="c" d="m1991.7 1775.1c141.5-121.1 337.8-192.5 552.7-201.1l-0.2-5.1c-216.1 8.6-413.5 80.5-555.8 202.3z"/><path class="c" d="m2160.2 1296.7l5.2-0.7c-3.8-27.5-111.9-268.7-144.9-342-68.4-151.7-144-314-152.2-323.2l-3.9 3.4c6.8 7.7 76.1 155.1 151.3 321.9 68 150.7 141.6 319.3 144.5 340.6z"/></g><path class="d" d="m1546.4 3360.9c111.2-55.9 221.5-114 330.8-174.3 2.4 0.8-34.5-222.7-193.9-289.7-313.5-127.9-222-376.6-216.9-506.4 15.2-185.6-84.7-345-281.4-277.2-219.4 71.5-365.5-212.8-423.1-498.4-16.9-143.3-224.8-250-388.1-232.8-167.8 14.3-291 152.5-243.5 433.2 38.2 331.1 372.6 419 526.9 536.5 151.6 115.2-32.6 318.6 198.3 386.1 196.4 63.1 421.1 78.5 403.2 252.7-20.5 173.3 40 287.2 287.7 370.3z"/><g style="mix-blend-mode:soft-light"><path class="e" d="m1712.2 3315.4c-0.6-1.9-269.5-403.5-614.8-764.6-51.2-60-105.1-119.9-157.1-177.7-289.8-322.3-563.6-626.8-547.9-1080.2l-7.3 0.5c-15.8 455.6 258.7 760.8 549.2 1083.9 52.1 57.9 105.9 117.7 157.2 177.8 347.1 363 612.5 760.3 613.8 762.9z"/><path class="e" d="m674.2 2073.5l3.8-5.8c-172.2-73-389.3-186.8-505.9-247.9-94.4-49.5-94.7-49.3-98.1-47.6l1.6 2.7-0.8 3.1c4.6 1 43.6 21.4 93 47.3 116.7 61.2 333.9 175 506.4 248.2z"/><path class="e" d="m578.3 1922.4c-22.1-146 13.3-260 46.9-329.9 36.5-76.2 80.7-121.1 86.9-124.4l-1.3-2 1.4-4c-2.1-0.3-4 0.8-6.6 3-38.3 31.7-173.4 202.2-134.6 458.8z"/><path class="e" d="m1305.1 2793.9l6.7-3.2c-136.6-258.7-4.4-593.3 58.8-725.1 3.4-7.1 4.4-9.4 4.7-10.5l-7.1-0.7 3.6 0.3-3.6-0.3c-0.2 0.7-2.1 4.7-4.3 9.4-45.6 95.1-78.7 189.7-98.5 281.3-38 175.9-24.6 326.9 39.7 448.8z"/><path fill-rule="evenodd" class="e" d="m704.7 2636l-1.3-2.8-0.1 3.1-3.4-2 1.6-3.6q0 0 0 0c4.7-2.2 302.5-93.9 508.4 42.9l-4.8 5.2c-203.9-135.4-497.7-43.9-500.4-42.8zm-1.3-2.8l0.1-3.2z"/><path class="e" d="m1667 3250.2c-22.2-54.4-32.1-157.4 47.1-338.5 4.5-10.3 4.5-10.3 3.7-11.7l-6.6 3.4 3.3-1.7-3.5-0.1c-0.3 0.8-1.8 4.4-3.6 8.5-80.1 183-69.9 287.4-47.3 342.8z"/><path class="e" d="m1593.3 3159.2l6.2-4c-69.8-86.4-261.5-99.1-369.6-98.9-3.4 0-5.6 0-6.4 0l-1.4 6.3c0.9 0 3.3 0 7 0 106.8-0.1 296.1 12.2 364.2 96.6z"/></g><path class="f" d="m1907.7 566v2135.2c0 31.9-27.3 39.7-58.3 41.7l-1079.2 91.5-16.6 1.1c-34.1 2.3-62.1-23.4-62.1-57v-2248.5c0-33.6 28-60.2 62.1-59.1l22.5 0.7 1083 82.8c30.9 1 48.6-20.3 48.6 11.6z"/><path class="g" d="m1940.7 566v2134.1c0 31.9-25.2 59.7-56.2 61.8l-1096.8 72.5c-34.1 2.2-62-23.4-62-57v-2247.4c0-33.6 27.9-60.2 62-59.1l1096.8 35.2c31 1 56.2 28 56.2 59.9z"/><path class="h" d="m1906.3 683.4v1978c0 29.8-23.9 55.7-52.8 57.6l-1031.4 66.2c-31.7 2-57.8-22-57.8-53.3v-2076.4c0-20.8 11.4-38.7 28.4-48.2 8.6-4.8 18.6-7.5 29.3-7.2l1031.5 27.7c28.9 0.8 52.8 25.8 52.8 55.6z"/><path class="i" d="m1369.3 555.6c0 11.3-9.1 20.3-20.4 20-11.2-0.4-20.4-9.8-20.4-21.2 0-11.4 9.2-20.3 20.4-19.9 11.3 0.3 20.4 9.8 20.4 21.1z"/><path class="j" d="m1906.3 2510.1v151.3c0 29.8-23.9 55.7-52.8 57.6l-1031.4 66.2c-31.7 2-57.8-22-57.8-53.3v-2076.4c0-20.8 11.4-38.7 28.4-48.2 85.2 28 334 161.8 353.9 772.9 19.5 598.6 629.6 731.6 759.7 1129.9z"/><path class="k" d="m2263.3 203.3l-534.1-32.7c-39.2-2.1-71.1 28.6-71.1 68.4v498.9c0 39.9 31.9 72.5 71.1 72.9l29.7 0.2v122.9c0 18.4 21.9 27.4 39.9 7l111.7-128.4 352.8 1c33 0.3 59.6-28.8 59.6-65.2v-476.2c0-36.3-26.6-67.1-59.6-68.8z"/><path class="l" d="m2280.2 800.5l-534-2.8c-39.3-0.3-71.2-32.9-71.2-72.8v-498.9c0-39.8 31.9-70.5 71.2-68.4l534 32.7c33 1.7 59.6 32.5 59.6 68.8v476.2c0 36.3-26.6 65.5-59.6 65.2z"/><path class="m" d="m1695.3 738.3v-524.4c0-21.3 17-37.6 37.9-36.5l557.9 32.2c17.6 0.9 31.8 17.4 31.8 36.7v500.8c0 19.4-14.2 34.9-31.8 34.7l-557.9-4.6c-20.9-0.3-37.9-17.6-37.9-38.9z"/><path class="n" d="m1775.9 920.9v-148.1l173.1 1.9-138.8 159.5c-12 13.7-34.3 5.1-34.3-13.3z"/><path class="o" d="m1918.1 485.7c0 22.3-18.7 39.9-41.9 39.4-23.3-0.5-42.2-19.1-42.2-41.5 0-22.4 18.9-40 42.2-39.4 23.2 0.7 41.9 19.3 41.9 41.5z"/><path class="o" d="m2059.3 489.4c0 22-18.3 39.4-41 38.9-22.7-0.5-41.2-18.9-41.2-41 0-22.2 18.5-39.6 41.2-39 22.7 0.7 41 19.1 41 41.1z"/><path class="o" d="m2197.2 492.9c0 21.7-17.9 39-40 38.5-22.2-0.5-40.3-18.7-40.3-40.6 0-21.9 18.1-39.1 40.3-38.4 22.1 0.6 40 18.7 40 40.5z"/><path class="p" d="m2042.4 2176.6c0-105.5 92.1-191 202.5-191 107.2 0 191.7 81 191.7 180.9 0 99.9-84.5 185.2-191.7 190.7-110.4 5.7-202.5-75.1-202.5-180.6z"/><path class="q" d="m2054.3 2168.1c0-105.4 89.4-191 196.6-190.9 104.1 0 186.2 81 186.2 180.9 0 99.9-82.1 185.2-186.2 190.7-107.2 5.7-196.6-75.2-196.6-180.7z"/><g style="opacity:.5;mix-blend-mode:soft-light"><path class="o" d="m2084.9 2167.3c0-88.6 75.1-160.4 165.2-160.4 87.4 0 156.4 68.1 156.4 152 0 83.9-69 155.6-156.4 160.2-90.1 4.8-165.2-63.1-165.2-151.8z"/></g><path class="r" d="m2243.9 2020.5c87.4 0 156.4 68.1 156.4 152 0 20-3.9 39.2-11 57.1 11-21.5 17.2-45.6 17.2-70.7 0-83.9-69-152-156.4-152-69.5 0-130 42.7-154.1 102.9 27.3-52.9 83.8-89.3 147.9-89.3z"/><path fill-rule="evenodd" class="o" d="m2159 2240.1c-5.5 0-10.5-2-14.3-5.7-3.9-3.7-6-8.7-6-14.1v-109.1c0-11.1 9.3-20.3 20.8-20.5l180.4-3c5.5 0 10.5 1.9 14.4 5.7 3.7 3.7 5.8 8.6 5.8 13.9v105.9c0 10.9-8.9 20-19.9 20.4l-180.4 6.5q-0.4 0-0.8 0zm181.1-140.4l-180.4 3c-5 0.1-9 3.9-9 8.5v109.1c0 2.1 0.8 4 2.3 5.4 1.6 1.6 3.9 2.4 6.3 2.4l180.5-6.5c4.6-0.2 8.3-3.9 8.3-8.4v-105.9c0-2-0.8-3.9-2.3-5.3-1.5-1.5-3.5-2.3-5.7-2.3z"/><path class="o" d="m2250.4 2172.5c-5.4 0-10.8-1.8-15.2-5.4l-80.4-65.7c-2.6-2.1-3-5.9-0.9-8.5 2.1-2.6 5.9-2.9 8.5-0.8l80.4 65.7c4.6 3.8 11.4 3.6 16.1-0.5l78.1-68.1c2.5-2.2 6.3-2 8.5 0.5 2.1 2.5 1.9 6.3-0.6 8.5l-78.1 68.1c-4.7 4.2-10.5 6.2-16.4 6.2z"/><path class="s" d="m1339.3 111.6c55.8 57.2 55.8 147.3 0 202.4-56.4 55.7-149.3 55.4-207.4-1.8-58.7-57.9-58.7-150.9 0-206.5 58.1-55.1 151-51.9 207.4 5.9z"/><path class="t" d="m1349.4 99.4c55.9 57.1 55.9 147.3 0 202.4-56.4 55.7-149.2 55.4-207.3-1.9-58.8-57.8-58.8-150.8 0-206.5 58.1-55 150.9-51.9 207.3 6z"/><g style="opacity:.5;mix-blend-mode:soft-light"><path class="o" d="m1329.1 118.6c45 46.1 45 118.8 0 163.2-45.5 44.9-120.3 44.6-167.1-1.5-47.4-46.7-47.4-121.6 0-166.5 46.8-44.3 121.6-41.8 167.1 4.8z"/></g><path class="r" d="m1329.1 118.6c-45.5-46.6-120.3-49.1-167.1-4.8-0.4 0.5-0.8 0.9-1.3 1.3 46.6-30.5 110.4-23.9 150.9 17.6 45 46.1 45 118.7 0 163.1q-0.2 0.2-0.4 0.4c6.4-4.2 12.4-9 17.9-14.4 45-44.4 45-117.1 0-163.2z"/><path class="o" d="m1294.3 265.2l21.8 0.3v-119.8l-21.8-0.5z"/><path class="o" d="m1255.4 264.8l21.9 0.2v-60.1l-21.9-0.4z"/><path class="o" d="m1216.1 264.3l22.1 0.3v-132.2l-22.1-0.5z"/><path class="o" d="m1176.6 263.8l22.2 0.3v-113l-22.2-0.5z"/><path class="u" d="m2134.3 1317.4c0-128.1 111.8-232 245.9-232 130.2 0 233 98.4 233 219.8 0 121.4-102.8 225-233 231.7-134.1 6.9-245.9-91.3-245.9-219.5z"/><path class="v" d="m2148.7 1307.2c0-128.1 108.6-232 238.9-232 126.4 0 226.2 98.4 226.2 219.8 0 121.4-99.8 225-226.2 231.7-130.3 6.8-238.9-91.3-238.9-219.5z"/><g style="opacity:.5;mix-blend-mode:soft-light"><path class="o" d="m2185.9 1306.2c0-107.6 91.2-194.9 200.7-194.9 106.2 0 190 82.7 190 184.7 0 101.9-83.8 189-190 194.6-109.5 5.8-200.7-76.7-200.7-184.4z"/></g><path class="r" d="m2379 1127.9c106.2 0 190.1 82.6 190.1 184.6 0 24.3-4.8 47.6-13.5 69.3 13.4-26.1 21-55.3 21-85.8 0-102-83.8-184.7-190-184.7-84.5 0-158 51.9-187.2 125.1 33.1-64.3 101.7-108.6 179.6-108.5z"/><path class="o" d="m2352.7 1346.9v-13.7q0-17.7 7.6-30.8 7.6-13.2 27.7-27.9 19.4-13.9 25.6-22.6 6.2-8.7 6.2-19.4 0-12-8.9-18.3-8.9-6.3-24.7-6.3-27.8 0-63.2 18.1l-20.2-40.4q41.2-23.1 87.4-23.1 38.1 0 60.5 18.3 22.5 18.3 22.5 48.8 0 20.3-9.3 35.1-9.2 14.7-35.1 33.2-17.7 13.1-22.4 20-4.7 6.8-4.7 17.9v11.1zm-5.9 63.2q0-15.5 8.3-23.5 8.3-7.9 24.2-7.9 15.3 0 23.7 8.1 8.4 8.1 8.4 23.3 0 14.6-8.5 23-8.5 8.4-23.6 8.4-15.5 0-24-8.2-8.5-8.3-8.5-23.2z"/><g style="mix-blend-mode:multiply"><path class="w" d="m1820 1305.1c-6.2 0-12.1 3.3-16.8 8.9 0 0 0 0 0 0-52.3-146.8-224.3-256-430.8-257.9-42-0.4-82.8 3.7-121.5 11.7q-0.1 0-0.2 0 0 0 0 0c-154.2 31.6-277.1 125-320.9 244.8-5-5.7-11.7-9.1-18.3-9.1-16.8-0.1-31.4 21.8-31.4 48.9v142.2c0 27.1 13.9 48.9 30.7 48.8 0.1 0 0.4 0 0.5 0 0.2 0 0.4 0 0.5 0 10-0.1 19.5-8 25-20 61.8 141.1 234.4 240.8 435.6 238.4 56.3-0.7 110-9.4 159.4-24.6 125-38.3 222.6-118.6 264.9-218q0 0 0 0c5.2 11.7 13.8 19.3 23.3 19.3 15.8-0.1 28.9-21.5 28.9-47.7v-138.1c0-26.2-13-47.6-28.9-47.6z"/><path class="x" d="m1505.9 1814.1l-268.1 3.7c-34.2 0.5-67.4 10.2-96.4 27.4-22.9 13.7-43.2 32-59.4 54.4-36.8 50.7-47.6 115.6-29.3 174.7 0.4 1.2 0.8 2.4 1.1 3.6l7 22.6c14.2 45.6 28.4 91.2 42.5 136.7 36.1 116.2 142.8 192.4 263.3 188.5 38-1.2 74.6-9.9 108.2-24.8 78-34.7 139.8-102.7 165.6-188.7 12.6-41.9 25.2-83.7 37.7-125.5l6.8-22.4c0.3-1.2 0.7-2.5 1.1-3.7 17.6-58.6 7.1-121.8-28.2-170.4-35.5-48.6-91.8-76.9-151.9-76.1z"/></g><path class="o" d="m1827.4 1386c0 37.8-7.8 74.3-22.3 108.4-41.3 97.2-136.7 175.6-258.9 213.1-48.3 14.9-100.9 23.4-155.9 24-196.6 2.4-365.4-95.1-425.8-233-15.3-35-23.6-72.4-23.6-111.3 0-32.8 5.9-64.6 17-94.8 42.8-117.1 162.8-208.4 313.6-239.4 37.9-7.8 77.7-11.7 118.8-11.4 201.8 1.9 370 108.7 421.1 252.1 10.4 29.4 16 60.3 16 92.3z"/><path class="c" d="m1595.4 1571.2l-398.6 2.9c-81.7 0.6-148.1-65.8-148.1-148.4v-87.2c0-37.3 30-67.5 67-67.4l558.3 1.2c35.7 0.1 64.6 29.8 64.6 66.2v85.5c0 80.7-64 146.7-143.2 147.2z"/><path class="c" d="m1418.7 1645.3l-56.8 0.5c-78.8 0.8-142.9-63.5-142.9-143.5 0-80.1 64.1-145 142.9-145h56.8c78.1-0.1 141.1 64.1 141.1 143.3 0 79.2-63 143.9-141.1 144.7z"/><path class="y" d="m1606 1504l-424.6 2.1c-58 0.3-105.3-47-105.3-105.6v-38.7c0-37.3 30.1-67.4 67-67.4l500.1 0.8c35.8 0 64.7 29.7 64.7 66.2v38c0 57.5-45.5 104.3-101.9 104.6z"/><path class="c" d="m1306.5 1412.3c4.1-5.9 6.6-12.5 6.6-19.6 0-23-24.1-41.7-53.9-41.7-29.9 0-54.2 18.8-54.2 41.9 0 7.1 2.6 13.7 6.6 19.6z"/><path class="c" d="m1575.7 1411.7c4-5.8 6.4-12.4 6.4-19.4 0-22.9-23.7-41.4-53-41.4-29.4 0-53.2 18.6-53.2 41.5 0 7.1 2.4 13.7 6.5 19.5z"/><path class="z" d="m967.2 1331.3v138.8c0 10.6-0.6 20.4-4.2 28.4-5.4 11.8-13 19.5-22.8 19.5-16.5 0.1-28.7-21.2-28.7-47.7v-139c0-26.4 13-47.9 29.4-47.8 6.5 0 12.2 3.3 17.1 8.9 1.3 1.6 1 3.3 2.2 5.1 5.3 8.7 7 20.6 7 33.8z"/><path class="A" d="m1827.7 1513.2c-15.5 0.1-28.1-20.7-28.1-46.4v-135.2c0-25.7 12.6-46.5 28.1-46.5 15.5 0 28.1 20.8 28.1 46.5v135c0 25.7-12.6 46.5-28.1 46.6z"/><path class="o" d="m1696.9 2023.7c-0.4 1.2-0.8 2.4-1.1 3.5l-6.6 22c-12.3 40.9-24.6 81.7-36.9 122.7-25.2 84-85.7 150.5-161.9 184.4-32.8 14.6-68.6 23.1-105.8 24.3-117.8 3.8-222.1-70.7-257.4-184.3-13.8-44.5-27.6-89-41.5-133.7l-6.8-22c-0.4-1.2-0.8-2.4-1.1-3.6-17.9-57.8-7.3-121.2 28.6-170.7 15.8-21.9 35.7-39.9 58.1-53.2 28.3-16.9 60.8-26.3 94.2-26.8l262.1-3.6c58.8-0.8 113.8 26.8 148.5 74.4 34.6 47.5 44.8 109.3 27.6 166.6z"/><path class="c" d="m1695.8 2027.2l-6.6 22-603.5 13.4-6.8-22z"/><path class="B" d="m1422 1645.2c39.1 25.5 81.5 46.3 124.2 62.3-48.3 14.9-100.9 23.4-155.9 24-196.6 2.4-365.4-95.1-425.8-233-5.4 11.8-13.8 19.5-23.6 19.5-16.4 0.1-29.4-21.2-29.4-47.7v-139c0-26.4 13-47.9 29.4-47.8 6.5 0 12.2 3.3 17.1 8.9 42.9-117.1 162.7-208.4 313.5-239.4 14.3 50.9 13.9 114.3-12.3 192.9-2.9 8.6-5.4 17.1-7.6 25.5q-3 11.7-5.2 23.2c-3.8 20.3-5.7 39.9-5.7 58.9 0 20.4 1.9 40 5.7 58.9 0.3 1.2 0.5 2.3 0.8 3.5 6.9 32.1 19.1 62 35.4 89.7 14.3 24.3 31.7 46.8 51.5 67.5 25.9 27.1 55.7 51.2 87.9 72.1z"/><path class="B" d="m1490.4 2356.3c-32.8 14.6-68.6 23.1-105.8 24.3-117.8 3.8-222.1-70.7-257.4-184.3-13.8-44.5-27.6-89-41.5-133.7l-6.8-22c-0.4-1.2-0.8-2.4-1.1-3.6-17.9-57.8-7.3-121.2 28.6-170.7 15.8-21.9 35.7-39.9 58.1-53.2 1.3 65-10.9 138.5 78.9 223.9 7.5 7.2 15.7 14.3 24.6 21.6 22 17.9 48.5 36.2 80.7 55.1 153.9 90.1 192.1 179.3 141.7 242.6z"/><path fill-rule="evenodd" class="C" d="m895.1 2680.5c-10.2 12.7-21.1 24.4-32.7 35 0.8 1.3 1.6 2.7 2.4 4.2 14.6 28.5 5.3 64.5-20.7 80.3-25.9 15.8-58.7 5.5-73.3-23-0.7-1.5-1.4-3-2-4.5-14.4 5.3-29.2 9.3-44.1 12.1 0.1 1.7 0.2 3.4 0.1 5.1-0.3 32.5-24.6 58.4-54.2 57.8-29.5-0.6-53.2-27.4-52.8-59.9 0-1.6 0.1-3.3 0.3-4.9-14.7-3.3-29.2-7.9-43.6-13.7-0.6 1.4-1.3 2.9-2.1 4.4-15 27.8-47.6 36.7-72.9 20.1-25.2-16.7-33.5-52.7-18.5-80.4 0.8-1.5 1.6-2.8 2.5-4.2q-11.5-11-21.6-23.2c-26.4 12-72.1-5.5-85.7-32.3-14.2-28.2-5.2-63.8 20.3-79.6 1.3-0.8 2.6-1.5 4-2.2-4.8-15.7-8.5-31.7-11.1-48-1.5 0.1-3 0.2-4.5 0.2-29.1-0.4-52.4-26.8-52.1-59.1 0.4-32.2 24.3-58.1 53.4-57.8 1.5 0 3 0.2 4.4 0.3 2.9-16.1 7-32 12.2-47.7-1.3-0.8-2.7-1.5-4-2.3-25.1-16.4-33.3-52.2-18.4-80 14.9-27.9 47.3-37.2 72.4-20.9 1.4 0.8 2.6 1.8 3.8 2.7 10-12.7 20.7-24.3 32.1-34.9-0.8-1.4-1.6-2.7-2.3-4.2-14.4-28-5.3-63.8 20.3-79.9 25.6-16 58-6.3 72.4 21.8 0.7 1.5 1.4 3 2 4.5 14.3-5.5 28.9-9.7 43.8-12.7-0.1-1.6-0.2-3.3-0.2-5 0.4-32.4 23-59.8 87.5-52.2 29.6 3.5 19.9 20.1 19.6 52.6 0 1.7-0.2 3.4-0.3 5 14.7 3.1 29.4 7.5 43.8 13.2 0.7-1.5 1.4-3 2.1-4.5 15.2-28.1 42-52.2 101.8-15.2 25.8 16.1 6.1 46.5-9.1 74.7-0.8 1.5-1.6 2.9-2.5 4.2 11.6 11.1 22.3 23 32 35.6 1.3-0.9 2.5-1.8 3.9-2.7 26-16.1 59-6.2 73.7 22.2 14.7 28.5 5.4 64.6-20.7 80.7-1.4 0.9-2.8 1.6-4.2 2.3 5 15.8 8.8 32.1 11.4 48.6 1.5-0.2 3.1-0.3 4.7-0.2 29.9 0.3 54 27.1 53.6 59.8-0.3 32.7-24.9 59-54.9 58.6-1.6 0-3.1-0.2-4.6-0.3-2.9 16.3-7.1 32.4-12.4 48.3 1.3 0.7 2.7 1.5 4 2.3 25.8 16.8 34.3 53.1 19 81.2-15.3 28.1-48.5 37.3-74.2 20.5-1.3-0.9-2.6-1.8-3.8-2.8zm-429.4 3.2c1-0.6-9.4-6.4-12.7-9.1q4.3 5.7 8.9 11.1 1.9-0.9 3.8-2zm-12.7-9.1q-0.5-0.6-1-1.3c-0.2 0.2 0.2 0.7 1 1.3zm389.5-96.8c55.2-101.9 24.5-233.4-68.4-293.3-92.5-59.7-211.4-25.5-265.9 75.9-54.3 101.1-24.1 231.6 67.6 291.7 92.1 60.5 211.6 27.4 266.7-74.3z"/><path class="D" d="m967.1 2531.3c30 0.4 54.6-25.9 54.9-58.6 0.4-32.7-23.7-59.5-53.6-59.8-1.6-0.1-3.2 0-4.7 0.2-2.6-16.5-6.4-32.8-11.4-48.6 1.4-0.7 2.8-1.4 4.2-2.3 26.1-16.1 59.1-58.2 41.8-85.1-32.8-51-68.8-33.9-94.8-17.8-1.4 0.9-2.6 1.8-3.9 2.7-9.7-12.7-20.4-24.5-32-35.6 0.9-1.3 1.7-2.7 2.5-4.2 8.3-15.3 9.5-33 4.8-48.6-25.9 42.9-51.5 86-76.6 129.3 73.7 65.7 94.3 182.5 44.2 274.9-42.4 78.2-122.9 115.8-199.7 101.5-3.7 9-7.3 18-11.3 26.9-10.7 24.1-22.7 47.4-34.7 70.8q10.6 3.3 21.3 5.7c-0.2 1.6-0.3 3.3-0.3 4.9-0.4 32.5 17.5 62.1 71 65.3 29.6 1.7 35.7-30.7 36-63.2 0.1-1.7 0-3.4-0.1-5.1 14.9-2.8 29.7-6.8 44.1-12.1 0.6 1.5 1.3 3 2 4.5 14.6 28.5 67.5 45.9 93.5 30.1 26-15.8 15.1-58.9 0.5-87.4-0.8-1.5-1.6-2.9-2.4-4.2 11.6-10.6 22.5-22.3 32.7-35 1.2 1 2.5 1.9 3.8 2.8 25.7 16.8 58.9 7.6 74.2-20.5 15.3-28.1 6.8-64.4-19-81.2-1.3-0.8-2.7-1.6-4-2.3 5.3-15.9 9.5-32 12.4-48.3 1.5 0.1 3 0.3 4.6 0.3z"/><path fill-rule="evenodd" class="E" d="m923.1 2686.9c-10.2 12.8-21.2 24.4-32.8 35 0.8 1.4 1.7 2.8 2.4 4.2 14.6 28.6 5.4 64.6-20.6 80.4-26 15.8-58.9 5.5-73.5-23-0.7-1.5-1.4-3-2-4.5-14.4 5.3-29.2 9.3-44.2 12.1 0.1 1.6 0.2 3.3 0.2 5-0.3 32.6-24.7 58.5-54.3 57.9-29.6-0.6-53.2-27.4-52.9-59.9 0.1-1.7 0.2-3.3 0.3-4.9-14.7-3.3-29.2-7.9-43.6-13.8-0.6 1.5-1.3 3-2.1 4.4-15 27.8-47.7 36.8-73 20.1-25.2-16.7-33.5-52.7-18.6-80.4 0.8-1.5 1.7-2.8 2.5-4.2-11.4-11-21.9-23-31.4-35.6-1.3 0.9-2.5 1.8-3.8 2.6-25.5 15.8-57.8 5.6-72.1-22.6-14.3-28.2-5.3-63.8 20.2-79.6 1.3-0.8 2.7-1.5 4.1-2.2-4.8-15.7-8.5-31.7-11.1-48.1-1.5 0.2-3 0.3-4.5 0.2-29.2-0.3-52.6-26.8-52.2-59.1 0.3-32.2 24.3-58.1 53.4-57.8 1.5 0 3 0.1 4.5 0.3 2.9-16.1 6.9-32.1 12.2-47.8-1.4-0.7-2.7-1.4-4-2.3-25.1-16.4-33.4-52.2-18.5-80 14.9-27.9 47.4-37.2 72.6-20.9 1.3 0.8 2.5 1.8 3.7 2.7 10-12.7 20.8-24.3 32.2-34.9-0.8-1.4-1.6-2.7-2.4-4.2-14.3-28.1-5.2-63.9 20.4-79.9 25.6-16.1 58-6.4 72.5 21.8 0.7 1.4 1.4 2.9 2 4.4 14.3-5.4 29-9.7 43.8-12.6-0.1-1.7-0.1-3.4-0.1-5.1 0.3-32.4 24.6-58.7 54.1-58.6 29.6 0.1 53.4 26.6 53 59.1 0 1.7-0.1 3.3-0.2 5 14.7 3 29.4 7.4 43.8 13.2 0.7-1.5 1.4-3 2.2-4.5 15.1-28.1 48.2-37.7 73.9-21.3 25.6 16.5 34.1 52.7 18.9 80.9-0.8 1.4-1.7 2.8-2.6 4.1 11.7 11.1 22.4 23 32.1 35.7 1.3-1 2.5-1.9 3.9-2.7 26-16.2 59.1-6.2 73.8 22.2 14.7 28.5 5.4 64.6-20.7 80.8-1.4 0.8-2.8 1.5-4.2 2.2 4.9 15.9 8.7 32.1 11.4 48.6 1.5-0.1 3.1-0.2 4.6-0.2 30 0.3 54.1 27.2 53.8 59.9-0.4 32.8-25 59-55 58.6-1.6 0-3.1-0.1-4.6-0.3-2.9 16.3-7.1 32.5-12.5 48.4 1.4 0.7 2.8 1.4 4.1 2.3 25.8 16.8 34.3 53.1 19 81.3-15.3 28.1-48.6 37.2-74.3 20.4-1.3-0.8-2.6-1.8-3.8-2.8zm-52.7-102.7c55.3-102 24.5-233.6-68.5-293.6-92.6-59.7-211.7-25.5-266.2 75.9-54.3 101.3-24.2 231.8 67.7 292 92.2 60.5 211.8 27.4 267-74.3z"/><path class="F" d="m176.2 955.9c84.7-73.7 217.7-65.8 297.2 14.2 77.6 78.1 77.6 198.7 0 272.6-79.5 75.7-212.5 76.3-297.2-2-86.8-80.2-86.8-209.3 0-284.8z"/><path class="G" d="m185.2 945.9c84.7-73.6 217.7-65.8 297.2 14.2 77.6 78.2 77.6 198.8 0 272.7-79.5 75.7-212.5 76.3-297.2-2-86.8-80.2-86.8-209.4 0-284.9z"/><g style="opacity:.5;mix-blend-mode:soft-light"><path class="o" d="m206.4 967.4c72.3-62.9 185.9-56.2 253.7 12.1 66.3 66.7 66.3 169.7 0 232.8-67.8 64.5-181.4 65.1-253.7-1.8-74.1-68.5-74.1-178.7 0-243.1z"/></g><path class="H" d="m197.5 982.1c72.2-62.9 185.8-56.2 253.7 12.1 53.5 53.8 63.8 131.4 30.8 192.5 43.4-62.9 36.1-148.9-21.9-207.2-67.8-68.3-181.4-75-253.7-12.1-15.5 13.5-27.8 29.1-36.8 45.9 7.7-11.2 16.9-21.7 27.9-31.2z"/><path fill-rule="evenodd" class="o" d="m437.8 1080.7q0 18.9-6.1 34.6-6 15.8-17.1 24.7-11 8.9-25.6 8.9-9.8 0-17.3-4.6-7.5-4.7-10.8-12.3h-2.1q-14.2 16.9-36.1 16.9-23.3 0-36.7-14-13.5-14-13.5-38.3 0-27.8 17.7-44.7 17.6-17 46-17 11.3 0 24.9 2.2 13.7 2.1 22.5 5.2l-3.1 64.3q0 18.3 10 18.3 8.5 0 13.5-12.3 5-12.3 5-32.2 0-21.2-8.9-37.4-8.8-16.2-24.8-24.8-15.9-8.5-36.5-8.5-26.5 0-46.1 10.9-19.6 10.9-30.1 31.5-10.4 20.6-10.4 47.5 0 36.3 19.4 55.7 19.4 19.4 56.2 19.4 13.9 0 30.6-3.1 16.7-3.1 32.9-9v25.3q-28.1 12-62.5 12-49.9 0-77.9-26.4-27.9-26.3-27.9-73.1 0-32.5 14.2-59 14.3-26.5 40.7-41.5 26.3-15.1 60.7-15.1 28.9 0 51.7 11.8 22.7 11.9 35.1 33.7 12.4 21.8 12.4 50.4zm-134.7 16.4q0 27.8 22.6 27.8 11.8 0 18-8.4 6.2-8.3 7.5-27.1l1.7-29.1q-6.7-1.5-15.1-1.5-16.5 0-25.6 10.3-9.1 10.3-9.1 28z"/></svg>