<svg version="1.2" xmlns="http://www.w3.org/2000/svg" viewBox="0 0 1404 1313" width="1404" height="1313"><defs><linearGradient id="P" gradientUnits="userSpaceOnUse"/><linearGradient id="g1" x2="1" href="#P" gradientTransform="matrix(-81.309,19.785,-18.173,-74.687,781.056,798.373)"><stop stop-color="#fe9a81"/><stop offset="1" stop-color="#febbaa"/></linearGradient><linearGradient id="g2" x2="1" href="#P" gradientTransform="matrix(-42.021,41.684,-40.722,-41.051,724.84,748.559)"><stop stop-color="#fecec2"/><stop offset=".48" stop-color="#fec5b7"/><stop offset="1" stop-color="#feae9a"/></linearGradient><linearGradient id="g3" x2="1" href="#P" gradientTransform="matrix(-56.244,21.096,-13.263,-35.361,781.536,803.465)"><stop stop-color="#fecec2"/><stop offset=".48" stop-color="#fec5b7"/><stop offset="1" stop-color="#feae9a"/></linearGradient><linearGradient id="g4" x2="1" href="#P" gradientTransform="matrix(-73.825,39.441,-26.815,-50.192,779.758,835.707)"><stop stop-color="#fecec2"/><stop offset=".48" stop-color="#fec5b7"/><stop offset="1" stop-color="#feae9a"/></linearGradient><linearGradient id="g5" x2="1" href="#P" gradientTransform="matrix(-54.499,36.477,-25.13,-37.546,767.025,882.387)"><stop stop-color="#fecec2"/><stop offset=".48" stop-color="#fec5b7"/><stop offset="1" stop-color="#feae9a"/></linearGradient><linearGradient id="g6" x2="1" href="#P" gradientTransform="matrix(-142.982,18.252,-9.132,-71.535,822.667,777.853)"><stop stop-color="#fecfc3"/><stop offset="1" stop-color="#febbaa"/></linearGradient></defs><style>.a{fill:#0a2445}.b{fill:#feedb4}.c{fill:none;stroke:#fbcb22;stroke-linejoin:round;stroke-width:6.3}.d{fill:#fbcb22}.e{fill:none;stroke:#eca400;stroke-linecap:round;stroke-linejoin:round;stroke-width:3}.f{fill:#febbaa}.g{fill:url(#g1)}.h{fill:#eca400}.i{fill:url(#g2)}.j{fill:url(#g3)}.k{fill:url(#g4)}.l{fill:url(#g5)}.m{fill:url(#g6)}.n{fill:none;stroke:#eca400;stroke-linecap:round;stroke-linejoin:round;stroke-width:35.6}.o{fill:none;stroke:#eca400;stroke-linecap:round;stroke-linejoin:round;stroke-width:7.1}.p{fill:none;stroke:#feedb4;stroke-linecap:round;stroke-linejoin:round;stroke-width:21.4}.q{fill:#bf3f34}</style><path class="a" d="m1002.5 1169.7l-23.3-176.1-399.1 56.1 23.3 176.1h0.3c4 29.7 96.4 41.2 206.3 25.8 110-15.5 196-52.1 192.1-81.8z"/><path class="b" d="m907 1084.4c-0.2-1.9-1.3-3.5-2.8-4.5-1.5-1-3.4-1.2-5.1-0.6-30.7 10.1-68 18.7-108.6 24.4-40.6 5.7-78.8 7.7-111 6.4-1.8 0-3.6 0.7-4.8 2.1-1.2 1.3-1.8 3.2-1.5 5 1.4 11 5 38.1 13.9 105.3 0.4 3 2.8 5.3 5.7 5.4 32.7 1.5 71.8-0.5 113.3-6.3 41.5-5.9 79.6-14.7 110.7-25.1 2.8-1 4.5-3.8 4.1-6.8-2.4-18.7-11-83.3-13.9-105.3z"/><path class="c" d="m882.1 1106.7c1.7-0.5 3.5-0.2 5 0.8 1.4 1 2.4 2.6 2.6 4.4 2 14.9 6.6 49.4 8.3 62.6 0.4 3.1-1.4 6-4.3 6.9-26.6 7.8-57.4 14.4-90.4 19-33 4.6-64.4 6.8-92.1 6.6-3 0-5.5-2.3-5.9-5.4-1.8-13.3-6.3-47.7-8.3-62.7-0.3-1.7 0.3-3.5 1.4-4.9 1.2-1.4 2.8-2.1 4.6-2.2 27.5-0.2 58.2-2.4 90.3-6.9 32.1-4.5 62.2-10.8 88.8-18.2z"/><path class="d" d="m772.6 968.4c-110 15.5-196 52.1-192 81.8 3.9 29.8 96.3 41.3 206.3 25.9 110-15.5 195.9-52.1 192-81.8-3.9-29.8-96.3-41.3-206.3-25.9z"/><path class="d" d="m976.2 971.4c-6-36.3-120.3-28-213.1-74.9-76.9 78.3-189.5 94.4-186 130.9l3 22.1 399.1-56-3-22.1z"/><path class="e" d="m597.1 1052.6c32.9 15 105.4 18.5 187.6 7 74.8-10.5 138.6-30.9 170.4-52.2"/><path class="f" d="m1404 810.7l-557.3-19.6 2.4 128.7 554.9 106z"/><path class="f" d="m893.2 875.5c1.4-18.2 4.4-57-4.5-75.3-9.7-19.9-48.4-27.4-86.3-24.1-79.5 6.8-118.9 24.6-116.4 50.3 2.8 28 15 110 33.6 119.2 33.8 16.8 126.9-9.3 140.8-14 18.2-6.3 30.7-28.5 32.8-56.1z"/><path class="g" d="m863.4 889.9c0.5-11.9 4-81.6-46.6-85.3-50.7-3.8-98.4 6.3-103.2 23.1-4.8 16.7-4.4 107.1 24 111.9 28.3 4.9 123.4 8.7 125.8-49.7z"/><path class="h" d="m799.6 776.1c0 0-9.1 19.2-14.5 51.7-1.7 10.6-3.5 21.8-1.8 33.4 1.6 11.6 6.6 21.7 11.1 31.5 13.6 29.4 26.7 45.9 26.7 45.9 3.8 29.2-99.1 43.7-103 14.4 0 0 8.3-19.4 13.8-51.5 1.8-10.7 3.9-21.8 2.5-33.5-1.4-11.5-6-21.9-10.5-31.6-13.6-29.8-27.3-45.8-27.3-45.8-3.9-29.3 16-56.3 44.5-60.3 28.4-4 54.6 16.6 58.5 45.8z"/><path class="i" d="m787.6 817.3c0.8-23.7-31.2-27.7-50.4-28.7-17.6-1-39-0.5-57.6 3.2-14.5 2.8-20.1 46.2-1.7 49.4 7.3 1.3 31.6 3.4 54.9 2.2 27.6-1.3 54.1-5.5 54.8-26.1z"/><path class="j" d="m789.7 860.7c0.8-22.9-30.1-26.6-48.7-27.6-17.1-0.9-37.7-0.4-55.6 3.2-14.1 2.7-19.4 44.7-1.6 47.8 7.1 1.2 30.5 3.1 53 2 26.7-1.4 52.3-5.5 52.9-25.4z"/><path class="k" d="m796.3 901.3c-2-22.7-32.9-22.4-51.3-21-16.9 1.3-41.8 0.4-59.1 6.1-13.5 4.5-8.8 50 9.1 50.7 7.1 0.3 30.2-0.1 52.2-4.1 26.2-4.7 50.9-12 49.1-31.7z"/><path class="l" d="m796.3 939.4c-1.7-18.9-27.5-18.7-42.9-17.6-14.1 1.1-37.9 8-52.3 12.8-11.3 3.8-6.2 34.8 10.4 35.2 6 0.2 25.4-0.6 43.8-3.9 21.9-4 42.5-10.1 41-26.5z"/><path class="m" d="m874.9 804.3c-15.6-14.8-45.9-20.4-77.7-13.2-31.8 7.2-105.5 22.4-110 43.2-4.5 20.8 15.5 22 33.5 19 17.9-2.9 71.9-11.5 71.9-11.5 0 0 2.8 35.2 33.4 42.8 23.9 5.8 57.6-6.2 61.6-29.6 4-23.4-3.4-41.9-12.7-50.7z"/><path class="n" d="m940.3 364.3c0 0 108.8-57.8 122.9 77 14.1 134.9-89.7 161-140.3 156.5"/><path class="n" d="m455.3 432.4c0 0-119.8-25.6-98.3 108.2 21.5 133.8 128.2 130.3 175.8 112"/><path class="d" d="m958.1 383.7l-10.2-77.5c-3.4-25.7-26.3-43.6-51.2-40.1l-424.8 59.7c-12 1.7-22.8 8.2-30.1 18.1-7.3 9.9-10.5 22.3-8.8 34.7 4.7 35.6 10.4 78.7 10.4 78.7 28.9 215.2 165 356.6 306.8 336.6 142.1-19.9 236.5-194.4 207.9-410.2z"/><path class="b" d="m703.5 435.8c-72.7 10.2-123.5 79.2-113.6 154 9.9 74.9 76.8 127.3 149.5 117.1 72.7-10.2 123.5-79.2 113.6-154-9.9-74.9-76.8-127.3-149.5-117.1z"/><path class="o" d="m701 416.8c-82.9 11.6-140.9 90.3-129.6 175.6 11.3 85.4 87.6 145.2 170.5 133.6 82.9-11.7 140.9-90.3 129.6-175.7-11.3-85.4-87.7-145.2-170.5-133.5z"/><path class="d" d="m715.8 495.4c-0.9-1.9-2.8-2.9-4.8-2.7-1.9 0.3-3.5 1.9-3.8 3.9-3 16.9-7.7 44-9.4 53.4-0.3 2-1.9 3.5-3.8 3.8-9.3 1.3-35.8 5-52.3 7.4-1.9 0.2-3.5 1.8-3.8 3.8-0.4 2 0.5 4 2.3 4.9 14.7 8.2 38.2 21.2 46.4 25.7 1.8 1 2.7 3 2.3 5-1.6 9.4-6.4 36.5-9.3 53.4-0.4 2 0.6 4 2.3 5 1.7 1 3.9 0.7 5.3-0.7 12-11.9 31.4-31 38.1-37.6 1.4-1.4 3.5-1.7 5.3-0.8 8.2 4.6 31.7 17.6 46.4 25.7 1.8 1 3.9 0.7 5.3-0.7 1.4-1.4 1.8-3.6 1-5.4-7.3-15.5-18.9-40.3-22.9-48.9-0.9-1.9-0.5-4.1 0.9-5.5 6.7-6.6 26-25.7 38.1-37.5 1.4-1.4 1.8-3.6 0.9-5.5-0.8-1.8-2.7-2.8-4.7-2.6-16.5 2.4-43 6.1-52.2 7.4-2 0.2-3.9-0.8-4.7-2.6-4.1-8.7-15.7-33.5-22.9-48.9z"/><path class="p" d="m915.6 368.2c0 0 19.1 103.1-11.2 217.2"/><path class="p" d="m891.9 625.2c-6.2 17-13.7 33.9-22.6 50.6"/><path class="b" d="m956.1 247.1l-546.9 76.9 4.3 32.2q0 0.3 0.1 0.6c5.4 40.8 132.3 56.7 283.2 35.5 150.9-21.2 269-71.6 263.6-112.3q0-0.3-0.1-0.6z"/><path class="d" d="m672.9 211.6c-151 21.3-269.1 71.5-263.7 112.3 5.4 40.8 132.2 56.7 283.2 35.5 151-21.2 269.1-71.5 263.7-112.3-5.4-40.8-132.2-56.7-283.2-35.5z"/><path class="h" d="m674.4 223.2c-142.1 20-253.5 64.1-249 98.5 4.6 34.4 123.4 46.1 265.5 26.2 142.1-20 253.5-64.1 249-98.5-4.6-34.4-123.4-46.2-265.5-26.2z"/><path class="a" d="m443 165.9c0 0-20.4-49.5-41.2-60.5l-35.8 22.5c0 0 31.2 37.9 37.6 61.7z"/><path class="a" d="m1097.3 699.8c0 0-28.1-32.5-33.8-48.9l-40.7 20.8c0 0 17.1 43.1 31.8 54.3z"/><path class="a" d="m70.7 457.3c0 0-20.2-49.6-42.4-55.4l-23.9 21.8c0 0 35.4 35.4 37 50.3z"/><path class="q" d="m336.8 260.6c0 0-49.5 57.8-52 126.4l-48.7-13.8c0 0 16.3-73.1 51.5-131.7z"/><path class="q" d="m98.5 201.8l-38.8-64.5-49.4 31.1c0 0 30.9 38.3 37.8 59.8z"/><path class="q" d="m800.2 58.9c0 0-20.5 68.1-23.7 78.4l-71.7-10.7 33.3-80.7z"/><path class="q" d="m1089.5 280.3l21.7-70.1-39.8-20.6c0 0-20.4 48.9-29.2 63z"/><path class="q" d="m527.1 1119.6c0 0-19.6-60.6-34.3-79.9l-49.8 28.2c0 0 16.6 58.5 22.1 74.1z"/><path class="d" d="m152.8 415.4c-5.1 33.9-18.7 56.2-43 63.8 20.9 16 28 41.4 26.7 72.5 5.1-29.9 17.7-52.8 42.9-63.7-18.9-16.4-27.2-41.1-26.6-72.6z"/><path class="d" d="m1057.5 1048.4c0.6 23.9-6.1 40.8-21.8 49.1 16.2 8.3 24.1 24.8 26.9 46.2 0-21.1 5.8-38.4 21.8-49-15-8.8-23.6-24.7-26.9-46.3z"/><path class="d" d="m956.8 110.6c-9.5 21.7-22.6 34-40.2 34.5 11.1 14.7 11.2 33.1 4.8 53.7 8.8-19.1 21.4-32 40.2-34.5-9.7-14.6-10.9-32.7-4.8-53.7z"/></svg>