<svg version="1.2" xmlns="http://www.w3.org/2000/svg" viewBox="0 0 1000 853" width="1000" height="853"><style>.a{opacity:.1;fill:none}.b{fill:#9c5300}.c{fill:#bd6b00}.d{opacity:.1;fill:#fff}.e{fill:#337235}.f{fill:#683c1d}.g{fill:#dbbf9a}.h{fill:#edddc8}.i{fill:#fffced}.j{fill:none;stroke:#669568;stroke-miterlimit:10;stroke-width:8.5}.k{fill:#fffae3}.l{fill:#f5e5ce}.m{opacity:.5;mix-blend-mode:multiply;fill:#edddc8}.n{fill:#854f2a}.o{opacity:.5;fill:#683c1d}.p{fill:#603012}.q{opacity:.2;fill:#fff}.r{fill:#fff}</style><path class="a" d="m1000 1000h-1000v-1000h1000z"/><path class="b" d="m541.5 428l324.3 166.1 10 31.7-142.9-71.9 3.5 20.2c-36.5-14.2-48.2 0.8-60.9 10.1 17.1 24.6 35.5 54.2 76.5 78.5l3.5 20.3 163.4 79.5 10.5 33-395.2-192.1z"/><path class="b" d="m875.8 625.8l8.5-17.1-142.9-71.8 3.5 20.2-8.5 17-3.5-20.2 32.8 3.7z"/><path class="b" d="m929.4 795.5l8.5-17-395.1-192.2 7.3-175.3-8.6 17-7.3 175.4z"/><path class="c" d="m550.1 411l324.2 166.1 10 31.6-142.9-71.8 3.5 20.2c-36.5-14.3-48.2 0.8-60.9 10.1 17.2 24.5 35.5 54.2 76.5 78.5l3.5 20.2 163.5 79.5 10.4 33.1-395.1-192.2z"/><path class="b" d="m458.5 428l-324.3 166.1-10 31.7 142.9-71.9-3.5 20.2c36.5-14.2 48.2 0.8 60.9 10.1-17.1 24.6-35.5 54.2-76.5 78.5l-3.5 20.3-163.4 79.5-10.5 33 395.2-192.1z"/><path class="b" d="m124.2 625.8l-8.5-17.1 142.9-71.8-3.5 20.2 8.5 17 3.5-20.2-32.8 3.7z"/><path class="b" d="m70.6 795.5l-8.5-17 395.1-192.2-7.3-175.3 8.6 17 7.3 175.4z"/><path class="c" d="m449.9 411l-324.2 166.1-10 31.6 142.9-71.8-3.5 20.2c36.5-14.3 48.2 0.8 60.9 10.1-17.2 24.5-35.5 54.2-76.5 78.5l-3.5 20.2-163.5 79.5-10.4 33.1 395.1-192.2z"/><path class="b" d="m158.9 280l-53.8 139.5c0 0 261.1 175.1 355.4 183.8 94.3 8.6 131.9-2.9 190-37.2 58.1-34.2 222-130.4 244.4-157.6l-65.8-128.5-308.6 113.6c-108.8-42.1-36.1-18.3-361.6-113.6z"/><path class="c" d="m170.7 283.5l-49.7 125c0 0 251.3 147.2 345.7 170.1 125.8 30.5 372.5-150.4 408.3-185l-55.3-110.1-299.2 110.1z"/><path class="d" d="m164 281.2c-9.3 21.1-13.1 44.3-23.3 65.2-8.6 17.8-20.5 34.8-23.2 54.8 0 0.1 0.2 0.2 0.2 0.1 10.1-33.2 36.6-61.7 48.7-119.1 0.3-1.3-1.7-2.4-2.4-1z"/><path class="d" d="m864.9 410.6c-65.4 59.6-217.4 142.2-260.4 161.2-136 60.1-220.9-15.3-469.6-143.4-21.6-11.1 135 75.5 156.4 87.2 224 122.9 253 101.5 436.2-3.4 161.8-92.6 142.6-106.4 137.4-101.6z"/><path class="d" d="m867.5 364.3c-13.5-30.4-31.8-61.9-30.2-58.2 23.6 54.5 32.8 64.1 30.2 58.2z"/><path class="d" d="m346.8 341.1c-25.1-8.9-51.9-13.7-77.3-22-25-8.1-48.7-20.1-73.9-27.5-15.9-4.6-23.7-8.7-28.7 2.3-1.4 3-24.9 74.4-31 99.5-3.6 14.9 25-68.5 33-92.9 7.1-21.5 36.6 2.9 106.9 24.8 86.8 27.1 72 16.1 71 15.8z"/><path class="d" d="m859.5 392.7c-47.7-107.4-43.9-101.6-46.4-100.7-132.9 50.4-127.3 45.8-155.1 58.2-10.9 4.9 65.1-20.1 143.3-49.5 15.7-5.9 6.8-15 54.6 94.1 1.1 2.5 4.7 0.4 3.6-2.1z"/><path class="d" d="m366.3 528.2c-16-10.2-239.1-122.9-221-110.4 20.4 14.1 264.5 138.2 221 110.4z"/><path class="d" d="m832.8 419c-29.5 19.5-53.5 41.8-114 74-67.9 36.1-93.2 39.2-124.4 54.7-21.4 10.5 69.4-5.9 185-86 44.9-31.1 55.9-44.3 53.4-42.7z"/><path class="d" d="m248.4 517.8c-28.7 6.1-35 16.9-115.4 58-12 6.1-12.3 30.9-11 26.9 8.7-27.4 6.3-21.1 24.7-29.4 24.8-11.1 43.8-24 67.4-36.6 11.5-6.1 23.7-10.6 35.3-16.4 1.5-0.7 0.4-2.8-1-2.5z"/><path class="d" d="m314.8 561.7c-10.1-18.4-36.8-21.5-54-12.1 1.3-5.8 1.5-11.3 0.8-17.4-0.5-5.1-210.4 101.4-47.4 23.1 43.4-20.9 41.7-20.9 43.3-20.4 7 1.9-3.8 22.2 1.9 18.5 18.9-12.5 39.5-5.7 53.9 9.5 0.8 0.8 2.1-0.2 1.5-1.2z"/><path class="d" d="m232.3 673.4c-28.2 12-34.2 21.3-103.2 49.1-37.3 15.1-37.6 12.8-45.9 17.7-10.9 6.4-9.8 19.8-15.1 30-0.1 0.1 0.2 0.3 0.3 0.2 9.7-10 3.2-23.1 23.4-30.7 30.8-11.6 112.4-42.7 142.2-63.4 1.8-1.3 0.3-3.7-1.7-2.9z"/><path class="d" d="m315 583.1c-38.5 50.1-76.9 58.8-71.7 83.7 0.1 0.5 0.8 0.4 0.9-0.1 0.9-20.2 24.4-31.4 38.5-42.8 41.3-33.2 36.2-45.9 32.3-40.8z"/><path class="d" d="m410.2 601.6c-0.2 0-324 160.3-323.7 160.2 51.3-22.1 301.3-141 325.6-155.8 2.2-1.4 0.7-5.5-1.9-4.4z"/><path class="d" d="m931.3 769.1q-2.6-6.7-5.2-13.4c-0.7-1.7-3.5-0.9-2.8 0.8 8.6 22.1 39 21.3-335.9-153.2-13.4-6.2 346.4 172.2 343.9 165.8z"/><path class="d" d="m890.7 729c-120.9-61.1-122.4-45.5-130.6-71.2-8.9-28.2-43.9-25.6-76.6-85.3-2.4-4.4 8 26.5 37.7 50.9 13.5 11 30.2 18.6 35.7 33.7 5.6 15.4-0.3 14 26.1 26 74.2 33.5 84.1 38.6 106.9 47.8 1.1 0.4 1.8-1.4 0.8-1.9z"/><path class="d" d="m878.7 600.9c-12.2-7.3-138.2-69.9-138.4-70-4.7-2.4-2.9 20-3.3 20.3-0.3 0.2-5.3-3.3-7-4.1-17-7.9-30.9 3.7-26.5 1.6 22-10.5 36.4 10.2 35.9 5.7-3.9-31.7 8.3-17 20.8-10.5 0.4 0.2 100.7 52.2 117.5 59.3 1.3 0.5 2.1-1.6 1-2.3z"/><path class="d" d="m847 564.3c-78.9-38.5-65.6-31.2 5.8 5.5 6.8 3.5 18.6 7.2 19.8 16.1 0.2 1.3 2 1.4 2.1 0 0.8-12.3-19.3-17.5-27.7-21.6z"/><path class="e" d="m192.6 248.9l-51.1 190.7 293.1 142.7c57.4 24.6 87.4 17 127.3 0l308.6-150.4-71.3-172.1-300 113.2z"/><path class="f" d="m535.9 571.5c-23.1 25.7-142.3 3.4-30.9-46.4l43.6 38.9z"/><path class="g" d="m498.4 541.9c0 0 25.3 8.9 37.5 29.6l304.7-148-43.2-35.3c0 0-248.8 91.6-299 153.7z"/><path class="h" d="m797.4 388.2l-55.1-143.8 32.3 24.9 66 154.2z"/><path class="i" d="m498.4 541.9l-9.4-175.2c0 0 60.1-39.4 129.1-64.4 69-25 124.2-57.9 124.2-57.9l55.1 143.8c0 0-98.9 47.4-154.2 70.9-55.3 23.4-144.8 82.8-144.8 82.8z"/><path class="j" d="m506.5 375.9c18.5-11.3 65.7-38.8 117.4-57.5 47.2-17 87.6-37.5 109.5-49.4l42.4 110.5c-29.4 13.9-97.4 46-139.2 63.8-38.5 16.3-91.8 48.7-122.7 68.3z"/><path class="g" d="m498.4 541.9c0 0-24.1 15.4-33.1 32.1 0 0-119.4-57.8-156.6-75.8-37.3-17.9-152.8-65.4-152.8-65.4 0 0 22.4-31.9 38-31.9 15.7 0 276.7 83.6 304.5 141z"/><path class="h" d="m155.9 432.8l48.5-175.9 23.1-18.5 10.4 6-44 156.5c0 0-34.3 24.5-38 31.9z"/><path class="k" d="m498.4 541.9l-9.4-175.2c0 0-25.4-54.2-93.9-75.9-68.6-21.7-157.2-52.4-157.2-52.4l-44 162.5c0 0 281.2 85.9 304.5 141z"/><path class="j" d="m479 499.3c-24.3-16.4-65.4-37.4-135.5-64.6-52.3-20.3-103.7-37.2-128.8-45.2l34.9-129c29.3 10.1 90.4 30.8 140.4 46.7 52.4 16.6 76.3 53.7 82.1 64.2z"/><path class="l" d="m711.5 302.8c-38.7 24.6-47 21.5-93.4 41.6-74.5 32.2-96.4 53.9-93.7 52.4 24.9-13.5 49.7-32.3 101.6-52.2 43.9-16.9 72.8-19.8 88.7-37.7 1.8-2.1-0.6-5.7-3.2-4.1z"/><path class="l" d="m726.3 329.4c-75.4 23.1-142.6 40.8-203.6 85.1-1.2 0.9-0.6 3.2 1.1 2.7 25.7-8 35.4-28 93.1-48 23.1-8 132.6-46.9 109.4-39.8z"/><path class="l" d="m735.9 348.4c-57 10.3-207.5 91.7-207.2 91.6 51-17.2 64.5-38.2 155.7-70.7 17.2-6.1 36.3-10.1 52.6-18.3 1.6-0.8 0.4-2.9-1.1-2.6z"/><path class="l" d="m736.3 372.3c-7.7 2.2-188.2 77.5-202.3 90.2-1.6 1.5 0.7 3.7 2.3 2.4 16.5-13.7 222.3-99 200-92.6z"/><path class="l" d="m318.6 306.2c-24.7-6.3-59.3-17.8-55.5-15.9 63.6 32.9 74.4 1.3 192.8 85.6 12 8.6-17.7-39.2-137.3-69.7z"/><path class="l" d="m457.5 395.4c-54.9-28.8-79.9-58.5-200.5-88-20.9-5.1 74.4 24.6 107.2 39.2 51.1 22.6 64.9 40.2 92.1 51.6 1.6 0.7 2.7-2 1.2-2.8z"/><path class="l" d="m308.8 348.1c-31.1-8.4-65.5-12.5-57.4-10.6 59.9 14.1 54.5 8.1 105.9 35.3 85.9 45.3 81.7 47.9 100.6 53.9 22.6 7.2-118.6-70.3-149.1-78.6z"/><path class="l" d="m462.9 451c-85.2-36.8-157.1-88.1-208.1-84-2.6 0.3-3.7 4.5-0.7 5 83.3 14.9 58.2 12.1 157.8 59.6 41.8 19.8 52.2 19.9 51 19.4z"/><path class="m" d="m211.2 254.6c-7.8 26.7-14.8 53.5-22 80.4-7.2 26.6-15.8 53.4-21.4 80.5-0.3 1.2 1.5 1.7 1.9 0.5 8.7-26.3 14.5-53.7 21.6-80.5 7.1-26.8 14.4-53.6 21-80.6 0.1-0.7-0.9-1-1.1-0.3z"/><path class="m" d="m220.4 249.9c-9.2 25.3-15.4 52.2-22.7 78.1-7 25.1-16.1 50.6-20.9 76.2-0.2 1.1 1.3 1.5 1.7 0.5 9.2-24.4 14.6-51 21.5-76.1 7.1-26 15.7-52.1 20.8-78.6 0.1-0.2-0.3-0.4-0.4-0.1z"/><path class="m" d="m231.7 243.4c-10 23.5-15.5 49.7-22.7 74.1-7.3 24.8-14.5 49.6-21.6 74.4-0.4 1.4 1.7 2 2.1 0.6 7.3-24.8 14.5-49.6 21.7-74.4 7-24.5 16.4-49.5 20.6-74.6 0.1-0.1-0.1-0.2-0.1-0.1z"/><path class="m" d="m830.7 414.2c-8.6-23.6-19.7-46.5-29.6-69.5-10.3-24.1-19.1-49.5-31.2-72.8-0.1-0.2-0.5 0-0.4 0.2 7.6 25 19.4 49.3 29.5 73.5 9.6 23.1 18.7 47 30 69.3 0.5 0.9 2.1 0.3 1.7-0.7z"/><path class="m" d="m815.1 400c-8.4-24.7-20.8-48.5-30.7-72.6-9.4-23.2-17-47.3-27.3-70.1-0.1-0.2-0.4-0.1-0.3 0.1 6.3 25.3 17 50.1 26.5 74.2 9.1 23 17.8 47.7 30.3 69 0.5 0.8 1.8 0.3 1.5-0.6z"/><path class="m" d="m797 399.5c-51.8 16.6-100.4 41.2-147.8 67.7-23.7 13.3-47 27.1-70.4 41-11 6.5-22.2 12.8-32.7 20.1-9.1 6.3-20 13.6-25.2 23.6-0.5 0.8 0.5 2 1.3 1.4 9.9-7.5 18.2-16.6 28.6-23.7 10.2-6.9 20.9-13 31.4-19.4 22.7-13.7 45.6-27.2 68.7-40.2 47.1-26.5 95.8-50.3 146.4-69.6 0.5-0.2 0.3-1.1-0.3-0.9z"/><path class="m" d="m814.2 411.3c-51 11.2-98.6 32.3-144.2 57.1-22.9 12.5-45.3 25.9-67.2 40.1-22.7 14.7-46.2 29.2-67.7 45.7-2.4 1.9-0.3 5.8 2.4 4.2 22.3-13.4 43.4-29 65.2-43.2 21.9-14.1 43.9-28 66.6-41 45.8-26.1 94.3-47.7 145.1-62.1 0.5-0.2 0.3-0.9-0.2-0.8z"/><path class="m" d="m822.4 423.5c-42.1 8.8-83 25.9-121.4 44.9-19.4 9.6-38.2 20-56.6 31.2-18.3 11.2-37.4 22.7-53.5 37-1.4 1.2 0.4 3.3 1.8 2.4 17.9-10.8 34.7-23.6 52.5-34.5 18.4-11.3 37.3-21.7 56.5-31.3 39.2-19.5 80-33.9 120.8-49.3 0.2-0.1 0.2-0.4-0.1-0.4z"/><path class="m" d="m479.8 536.5c-19.6-17.4-44-30.5-67.1-42.5-23.6-12.3-48.1-22.9-73-32.2-25.4-9.4-51.3-17-77.1-24.9-14.2-4.4-27.3-10.2-40.4-17.3-9.6-5.2-19.8-10.8-30.9-11.8-0.2 0-0.3 0.4 0 0.5 24.3 7.2 44.6 23 68.9 30.8 25.1 8.2 50.5 15.2 75.4 24.3 25.2 9.3 50.1 20 74 32.3 24.2 12.5 46 28 69.2 42.1 0.8 0.5 1.8-0.7 1-1.3z"/><path class="m" d="m475.1 551.1c-22.4-15.7-46.6-29.3-70.3-42.9-23.8-13.6-48-26.5-72.9-37.9-23.3-10.8-47.2-20.2-71.8-27.6-26.8-8.2-54.2-14.2-79.7-26.3-0.6-0.3-1 0.5-0.5 0.8 22.2 12.3 46.8 18.6 71.1 25.7 27.2 7.9 53.6 18.1 79.3 30 24.4 11.2 48 23.9 71.2 37.3 24.3 13.9 47.8 29.6 72.5 42.9 1.3 0.7 2.4-1.2 1.1-2z"/><path class="m" d="m467.8 563c-24.4-12.5-49.7-23-73.8-36.2-23.5-12.9-45.8-27.9-70.4-38.9-23.9-10.8-48.7-20-73-29.7-26.7-10.7-53.2-21.9-80.5-30.7-0.3-0.1-0.6 0.4-0.3 0.6 50.5 24.5 104.4 41.1 155.2 64.7 24.4 11.3 46.6 26.6 70.1 39.6 22.9 12.6 46.9 24.7 71.6 33.2 1.5 0.5 2.5-1.8 1.1-2.6z"/><path class="d" d="m194.4 258.8c-7 20.6-10.4 43-15.8 64.2-5.6 21.3-11.6 42.5-17.8 63.7-0.1 0.1 0.2 0.2 0.2 0 7.6-21.4 14.4-43 20.7-64.9 5.8-20.3 13-41.6 15.5-62.7 0.2-1.6-2.3-1.7-2.8-0.3z"/><path class="d" d="m849.8 425.8q-133 65.5-266 130.9c-21.4 10.5-43.4 24.3-67 29-25.7 5.1-51.4-4.5-74.5-14.8-45.2-20.1-89.9-41.4-134.9-62.1-51.3-23.6-102.6-47.5-154.3-70.3-0.8-0.4-1.6 0.8-0.7 1.2 93.7 45.3 188.4 88.9 283 132.2 19.3 8.9 39.4 17.4 60.8 18.9 21.5 1.6 40.8-6.5 59.7-15.8 46.7-22.8 93.3-45.8 140-68.7q78.1-38.4 156.1-76.7c2.5-1.3 0.3-5-2.2-3.8z"/><path class="d" d="m834.6 369.2l-13.5-35.5c-4.4-11.8-9-23.6-13.8-35.3-4-9.8-7.6-21.1-14.2-29.4-0.2-0.3-0.7 0-0.7 0.3 0.6 11.6 6.2 23.6 10.1 34.5q6.4 17.9 13.1 35.6c8.6 22.6 15.2 48.5 28.3 68.9 1.1 1.6 3.2 0.5 3-1.2-2.1-13.1-7.6-25.5-12.3-37.9z"/><path class="d" d="m249.7 258.9c-5 13.4-8 27.6-11.7 41.4-3.6 13.8-7.8 27.8-10.4 41.8 0 0.2 0.2 0.3 0.3 0.1 4.9-13.4 8.4-27.5 12.3-41.3 3.8-13.8 8.4-27.5 11-41.6 0.1-1-1.2-1.4-1.5-0.4z"/><path class="d" d="m449.6 337.3c-4.7-10.2-14.6-15.2-24.6-18.9-15-5.6-30.5-9.9-45.7-14.7-33.7-10.8-67.3-21.7-101.3-31.3-0.3-0.1-0.4 0.3-0.2 0.4 29.7 10.6 59.7 20.1 89.6 29.7q22.5 7.2 45 14.4c13.8 4.4 27 8.8 35.8 21.2 0.6 0.8 1.8 0.1 1.4-0.8z"/><path class="d" d="m725 272.8c-14.3 6-27.5 14.9-41.7 21.2-16.7 7.5-33.9 13.7-51.2 19.8-15.8 5.6-31.7 11.1-47.3 17.4-14.6 6-30.8 12.1-43.4 21.8-0.1 0.1 0 0.4 0.1 0.3 16.4-6.8 31.9-15.5 48.5-22 15.7-6 31.6-11.4 47.5-16.9 15.7-5.5 31.6-11.1 47-17.6 13.8-5.9 30.2-12.4 41.3-22.6 0.6-0.6 0-1.8-0.8-1.4z"/><path class="d" d="m768.4 382.2c-27.3 9.7-53.8 23.2-80 35.5-27.4 12.8-55.4 25.5-81.5 40.8-0.2 0.1 0 0.4 0.2 0.3 27.3-11.9 53.7-25.8 80.7-38.3 26.9-12.5 54.9-23.1 81.5-36.3 1.1-0.5 0.3-2.5-0.9-2z"/><path class="d" d="m766.4 359.3c-4.8-11.6-8.7-22.4-11.6-34.6-2.5-10.9-5-21.9-11.3-31.4-0.1-0.1-0.3 0-0.2 0.1 5.4 12.4 7.8 25.1 10.5 38.3 2 9.9 4.3 20.6 10.9 28.6 0.6 0.7 2.1-0.1 1.7-1z"/><path class="d" d="m512.6 569.3c-8.8 2.2-23.4 8.4-30.4-0.7-0.3-0.4-0.8-0.1-0.6 0.3 5.1 10.9 23.8 7.9 32.1 3 1.4-0.8 0.5-3-1.1-2.6z"/><path class="d" d="m499.2 559c-1.6-0.3-3.4 0.1-5.1 0.1-1.8-0.1-3.6-0.1-5.5-0.3-0.5 0-0.7 0.9-0.2 1.1 3.2 1.5 7.7 2.9 11.1 1.4 1-0.5 0.7-2.1-0.3-2.3z"/><path class="n" d="m561 614.8c2.2 8.4 9.9 19.9 21.6 27.3-4.1-0.8-1.8 0.2-2.6 3.4q-0.8-0.3-1.7-0.7c0.7 1.1-0.3 2.6-1.5 2.9-2.6 0.6-4.7-2.1-7.2-2-4.6 0.1-1.9 6.1-5.9-0.6-3.6 9.9-22.6-19.9-26.5-42-3.1-17.7 6.9-34.5 16.6-38.7 15.7-6.8 1.1 26.9 7.2 50.4z"/><path class="o" d="m559.4 568c-24.5 54.6 9.8 83.1 3.7 76.7-19.9-21-16.3-53-5.5-77.3 0.5-1.1 2.3-0.5 1.8 0.6z"/><path class="o" d="m558.5 575.2c-3.4 17.9-10 41.2 5.7 65.6 1.9 2.9-21.5-23-6.2-65.7 0.1-0.3 0.6-0.3 0.5 0.1z"/><path class="o" d="m554.4 568.2c-9 27.2-13.5 49.7 2.3 73.6 2.6 3.9-24.7-25.4-3.1-73.9 0.2-0.5 1-0.3 0.8 0.3z"/><path class="o" d="m549.9 569.7c-8.2 17.9-11.3 32-3.9 53.2 2.2 6.2-15.3-27 3.1-53.6 0.3-0.4 1-0.1 0.8 0.4z"/><path class="o" d="m559.6 579.8c0.5 10.6-10 36 14 63.7 0.2 0.2-0.1 0.4-0.3 0.2-22.2-22.5-15.7-47.6-14.5-63.9 0.1-0.5 0.8-0.5 0.8 0z"/><path class="o" d="m563.3 624.2c4.5 6.5 9 12.8 14.7 18.5 0.2 0.1-0.1 0.4-0.3 0.3-13.5-11.9-16.4-21.7-14.4-18.8z"/><path class="d" d="m552 568.6c-8.5 20.1-8.8 28.3-7 48.5 0.2 2.5-7.7-23.8 6.4-48.8 0.2-0.3 0.8-0.1 0.6 0.3z"/><path class="d" d="m559 569c-5.8 21.6-13.3 48.8 4.2 73.6 2 2.9-23.4-20.2-4.7-73.8 0.1-0.3 0.6-0.1 0.5 0.2z"/><path class="d" d="m557.4 585.1c-2.8 18.8-1.3 49.2 13.4 58.9 0 0-9.1-1.9-14.2-26.9-4.4-21.9 1.4-35.8 0.8-32z"/><path class="d" d="m566.4 629.9c5.5 7.8 8.1 13.5 6.9 11.7-8.2-11.6-7.5-12.5-6.9-11.7z"/><path class="d" d="m555.6 570.1c-4.6 15.6-15.3 37.9-2.3 62 1.8 3.4-17.8-19.9 1.5-62.3 0.2-0.5 0.9-0.2 0.8 0.3z"/><path class="d" d="m542.8 579.9c-5.4 14.9-3.8 24.4-4 23.1-2.9-17.7 5.5-27.1 4-23.1z"/><path class="n" d="m573.8 611.1c4.8 7.4 15.6 15.8 29 19.3-4.1 0.4-1.6 0.7-1.4 4q-0.9-0.1-1.8-0.1c1 0.8 0.6 2.5-0.5 3.2-2.3 1.4-5.1-0.5-7.5 0.3-4.3 1.6 0.2 6.4-5.7 1.3-0.4 10.6-27.8-11.9-38.3-31.6-8.5-15.9-4.3-34.9 3.7-42 12.8-11.3 9.4 25.3 22.5 45.6z"/><path class="o" d="m557.7 567.2c-6.2 59.5 35.2 75.8 27.5 71.7-25.5-13.7-32-45.2-29.4-71.7 0.1-1.2 2-1.2 1.9 0z"/><path class="o" d="m559.1 574.3c2.4 18.1 3.4 42.3 25.9 60.5 2.6 2.2-27.6-15.1-26.5-60.4 0-0.4 0.6-0.5 0.6-0.1z"/><path class="o" d="m553 568.9c0 28.6 2.7 51.5 25.2 69.3 3.7 2.9-31.4-16.5-26.1-69.3 0.1-0.5 0.9-0.5 0.9 0z"/><path class="o" d="m549.2 571.8c-2.2 19.6-0.7 33.9 12.9 51.7 4 5.2-22.9-20.9-13.8-51.8 0.2-0.5 1-0.5 0.9 0.1z"/><path class="o" d="m561.6 578.4c3.7 9.9 1.8 37.3 33.1 56.1 0.2 0.1 0.1 0.4-0.2 0.3-28.1-14.5-29.7-40.4-33.7-56.2-0.1-0.5 0.6-0.7 0.8-0.2z"/><path class="o" d="m578.9 619.4c6.4 4.8 12.6 9.4 19.8 12.9 0.2 0.1 0 0.5-0.2 0.4-16.6-7.1-22.4-15.4-19.6-13.3z"/><path class="d" d="m550.9 570c-1.9 21.8 0.4 29.7 8.4 48.3 1 2.3-14.7-20.2-9.1-48.3 0.1-0.4 0.7-0.3 0.7 0z"/><path class="d" d="m557.6 568.3c1.3 22.3 2.6 50.5 27 68.6 2.8 2.1-28.5-11.9-27.5-68.6 0-0.3 0.5-0.3 0.5 0z"/><path class="d" d="m561.2 584c3.1 18.9 14 47.2 31 51.8 0.1 0-9.2 1.1-21.8-21.1-11-19.4-9.9-34.4-9.2-30.7z"/><path class="d" d="m583.7 623.8c7.6 5.7 11.9 10.3 10.1 9-11.4-8.5-10.9-9.6-10.1-9z"/><path class="d" d="m554.7 570.4c0.5 16.3-2.7 40.8 17.2 59.6 2.8 2.7-23.1-13.4-18-59.6 0-0.6 0.8-0.6 0.8 0z"/><path class="d" d="m545.7 583.7c-0.5 15.8 4 24.3 3.3 23.2-8.2-15.9-3.2-27.5-3.3-23.2z"/><path class="p" d="m562.1 561.3c1.9-7.5 8.3-17.5 8.3-17.4 0.5-2-0.7-4.1-2.8-4.6-0.1 0 0.3-1.3 0.3-1.2 1.1-4.3-6-4.8-5.9-4.8-2.5-0.6-3.6 1.1-4.2 3.6-7.8-2-2.4 9.7-5.5 22l-2 2c-1.6 1.5-0.9 4.3 1.3 4.8l8 2c2.2 0.6 4.2-1.5 3.4-3.7z"/><path class="e" d="m571.5 513.6c-4.9-2.4-7-8.3-4.6-13.2 2.4-5 8.3-7 13.2-4.6 5 2.4 7 8.3 4.6 13.2-2.3 4.9-8.3 7-13.2 4.6z"/><path class="q" d="m579.2 511.3c1.7-0.1 3.5-1.7 4.2-3.1 1-2 1-4.6 0.2-6.7-1.6-4.5-6.1-5.2-10.3-4 0 0 0 0 0.1 0 2.9-0.1 5.9 2.8 6.5 5.7 0.6 2.4-0.7 4.7-1.5 6.9-0.2 0.6 0.1 1.3 0.8 1.2z"/><path class="d" d="m572.6 512.3c0.6 0 0.9-0.7 0.6-1.2-1-1.4-2.2-2.7-2.8-4.4-0.7-1.7-0.7-3.6-0.5-5.5 0-0.1-0.1-0.2-0.2-0.1-4.1 2.8-2.3 11.1 2.9 11.2z"/><path class="e" d="m580.7 495.9c-5.4-1.1-8.9-6.3-7.8-11.7 1.1-5.3 6.4-8.8 11.7-7.7 5.4 1.1 8.9 6.3 7.8 11.7-1.1 5.4-6.4 8.8-11.7 7.7z"/><path class="q" d="m587.6 491.8c1.6-0.6 2.9-2.5 3.3-4.1 0.4-2.1-0.2-4.6-1.5-6.5-2.7-3.9-7.2-3.6-10.9-1.4-0.1 0 0 0.1 0 0.1 2.9-0.9 6.4 1.3 7.7 3.8 1.2 2.3 0.5 4.8 0.3 7.1 0 0.6 0.4 1.3 1.1 1z"/><path class="d" d="m581.4 494.4c0.6-0.1 0.7-1 0.3-1.3-1.3-1.1-2.8-2.1-3.8-3.6-1.1-1.5-1.6-3.3-1.8-5.2 0-0.1-0.2-0.1-0.3-0.1-3.3 3.7 0.5 11.3 5.6 10.2z"/><path class="e" d="m586.1 476.7c-5.4-0.1-9.8-4.7-9.6-10.2 0.1-5.4 4.7-9.8 10.1-9.6 5.5 0.1 9.8 4.7 9.7 10.1-0.1 5.5-4.7 9.8-10.2 9.7z"/><path class="q" d="m592.2 471.4c1.5-0.8 2.5-2.9 2.5-4.6 0.1-2.2-1-4.5-2.5-6.1-3.4-3.4-7.8-2.3-11.1 0.5 0 0.1 0.1 0.1 0.1 0.1 2.6-1.4 6.5 0.1 8.3 2.4 1.5 2 1.3 4.6 1.5 7 0.1 0.6 0.6 1.1 1.2 0.7z"/><path class="d" d="m586.6 475c0.6-0.2 0.5-1 0.1-1.3-1.5-0.9-3.2-1.6-4.4-2.8-1.3-1.3-2.2-3.1-2.7-4.8 0-0.1-0.2-0.2-0.3-0.1-2.6 4.3 2.5 11.1 7.3 9z"/><path class="e" d="m584.9 457c-5.4 0.8-10.5-2.9-11.3-8.3-0.9-5.4 2.8-10.5 8.2-11.3 5.5-0.9 10.5 2.9 11.4 8.3 0.8 5.4-2.9 10.4-8.3 11.3z"/><path class="q" d="m589.9 450.7c1.3-1.1 1.9-3.3 1.7-5-0.3-2.2-1.8-4.3-3.6-5.5-3.9-2.8-8.1-0.9-10.8 2.4 0 0.1 0 0.1 0.1 0.1 2.3-1.8 6.4-1.1 8.6 0.9 1.8 1.7 2 4.3 2.7 6.6 0.1 0.6 0.8 1 1.3 0.5z"/><path class="d" d="m585.1 455.3c0.5-0.4 0.3-1.2-0.2-1.4-1.7-0.5-3.4-0.9-4.9-2-1.5-1-2.6-2.6-3.5-4.2 0-0.1-0.2-0.1-0.2 0-1.8 4.6 4.4 10.4 8.8 7.6z"/><path class="e" d="m583.3 436.9c-4.7 2.7-10.8 1-13.5-3.7-2.7-4.8-1.1-10.8 3.7-13.5 4.7-2.8 10.8-1.1 13.5 3.6 2.7 4.8 1.1 10.8-3.7 13.6z"/><path class="q" d="m585.8 429.2c0.8-1.5 0.5-3.8-0.3-5.2-1.1-2-3.2-3.4-5.3-4-4.7-1.1-7.8 2.1-9.2 6.2 0 0.1 0.1 0.1 0.1 0.1 1.6-2.6 5.6-3.3 8.3-2.3 2.4 0.9 3.5 3.3 4.9 5.2 0.4 0.5 1.2 0.6 1.5 0z"/><path class="d" d="m582.9 435.2c0.3-0.5-0.1-1.2-0.7-1.2-1.7 0.1-3.5 0.3-5.2-0.1-1.8-0.4-3.4-1.5-4.8-2.7-0.1-0.1-0.2 0-0.2 0.1-0.1 5 7.8 8.1 10.9 3.9z"/><path class="e" d="m573.5 419.7c-4.8 2.7-10.9 1-13.6-3.7-2.7-4.8-1.1-10.8 3.7-13.6 4.7-2.7 10.8-1 13.5 3.7 2.7 4.8 1.1 10.8-3.6 13.6z"/><path class="q" d="m575.9 412c0.8-1.5 0.6-3.8-0.2-5.2-1.1-2-3.3-3.4-5.4-4-4.7-1.2-7.8 2.1-9.1 6.2-0.1 0.1 0 0.1 0 0 1.6-2.5 5.7-3.2 8.4-2.2 2.3 0.9 3.4 3.3 4.9 5.2 0.3 0.5 1.1 0.6 1.4 0z"/><path class="d" d="m573 418c0.4-0.5-0.1-1.2-0.7-1.2-1.7 0.1-3.4 0.3-5.2-0.1-1.8-0.4-3.4-1.5-4.8-2.7 0-0.1-0.2-0.1-0.2 0.1-0.1 4.9 7.8 8.1 10.9 3.9z"/><path class="e" d="m564.2 401.9c-3.8 3.9-10.1 4-14 0.1-3.9-3.9-3.9-10.1 0-14 3.8-3.9 10.1-3.9 14-0.1 3.9 3.9 3.9 10.1 0 14z"/><path class="q" d="m564.6 393.9c0.4-1.7-0.5-3.8-1.6-5-1.6-1.6-4.1-2.4-6.3-2.3-4.8 0.1-6.9 4.1-7.1 8.3 0 0.1 0 0.1 0 0.1 0.9-2.9 4.6-4.7 7.5-4.4 2.5 0.2 4.2 2.2 6.1 3.7 0.5 0.3 1.2 0.3 1.4-0.4z"/><path class="d" d="m563.4 400.4c0.2-0.5-0.4-1.1-1-0.9-1.6 0.5-3.3 1.2-5 1.3-1.9 0-3.7-0.6-5.4-1.4-0.1 0-0.2 0-0.2 0.2 1.3 4.8 9.8 5.7 11.6 0.8z"/><path class="e" d="m550.2 388c-3.9 3.9-10.2 3.9-14.1 0-3.9-3.8-3.9-10.1 0-14 3.8-3.9 10.1-3.9 14-0.1 3.9 3.9 3.9 10.2 0.1 14.1z"/><path class="q" d="m550.5 379.9c0.4-1.6-0.5-3.8-1.6-4.9-1.6-1.6-4.1-2.4-6.3-2.4-4.8 0.1-6.9 4.1-7.1 8.4 0 0 0 0 0 0 0.9-2.9 4.6-4.7 7.5-4.4 2.5 0.3 4.2 2.3 6.1 3.7 0.5 0.4 1.2 0.3 1.4-0.4z"/><path class="d" d="m549.3 386.5c0.2-0.6-0.4-1.1-1-1-1.6 0.5-3.3 1.2-5 1.3-1.9 0.1-3.7-0.5-5.4-1.4-0.1 0-0.2 0.1-0.2 0.2 1.3 4.8 9.8 5.8 11.6 0.9z"/><path class="e" d="m536.4 373.5c-2.5 4.9-8.5 6.8-13.3 4.2-4.9-2.5-6.8-8.5-4.3-13.3 2.5-4.9 8.5-6.8 13.4-4.3 4.9 2.5 6.8 8.5 4.2 13.4z"/><path class="q" d="m534.4 365.7c-0.2-1.7-1.6-3.5-3.1-4.2-2-1.1-4.5-1.1-6.6-0.4-4.6 1.5-5.4 6-4.4 10.1 0 0.1 0.1 0 0.1 0 0-3 3-5.8 5.8-6.4 2.5-0.5 4.7 0.9 6.9 1.7 0.6 0.2 1.3-0.1 1.3-0.8z"/><path class="d" d="m535.2 372.3c0-0.6-0.8-0.9-1.2-0.6-1.5 1-2.8 2.2-4.5 2.7-1.7 0.6-3.7 0.6-5.5 0.3-0.1 0-0.2 0.1-0.1 0.2 2.6 4.3 11 2.6 11.3-2.6z"/><path class="e" d="m518.8 364.4c-2.5 4.8-8.5 6.7-13.3 4.2-4.9-2.5-6.8-8.5-4.3-13.3 2.5-4.9 8.5-6.8 13.4-4.3 4.8 2.5 6.7 8.5 4.2 13.4z"/><path class="q" d="m516.7 356.6c-0.1-1.7-1.6-3.5-3-4.3-2-1-4.6-1.1-6.6-0.4-4.6 1.6-5.5 6-4.4 10.2 0 0 0.1 0 0.1 0-0.1-3 3-5.8 5.8-6.4 2.5-0.5 4.7 0.9 6.9 1.7 0.6 0.2 1.3-0.1 1.2-0.8z"/><path class="d" d="m517.6 363.2c0-0.6-0.8-0.9-1.2-0.6-1.5 1-2.8 2.1-4.5 2.7-1.8 0.6-3.7 0.6-5.5 0.3-0.1 0-0.2 0.1-0.1 0.2 2.6 4.2 11 2.6 11.3-2.6z"/><path class="e" d="m491.8 348.1c5.4-0.4 10.2 3.7 10.6 9.1 0.4 5.5-3.7 10.3-9.1 10.7-5.5 0.4-10.3-3.7-10.7-9.2-0.4-5.4 3.7-10.2 9.2-10.6z"/><path class="q" d="m486.2 354c-1.3 1-2.1 3.2-2 4.8 0.2 2.2 1.5 4.4 3.2 5.8 3.7 3.1 7.9 1.5 10.9-1.6 0 0 0-0.1-0.1-0.1-2.5 1.7-6.5 0.6-8.5-1.5-1.7-1.9-1.7-4.5-2.1-6.8-0.2-0.6-0.8-1-1.4-0.6z"/><path class="d" d="m491.4 349.8c-0.5 0.3-0.3 1.1 0.1 1.3 1.6 0.7 3.3 1.3 4.7 2.4 1.4 1.2 2.4 2.8 3.1 4.5 0.1 0.1 0.2 0.1 0.3 0 2.2-4.4-3.6-10.7-8.2-8.2z"/><path class="e" d="m494.9 367.3c4.6-3 10.7-1.7 13.7 2.9 3.1 4.5 1.8 10.7-2.8 13.7-4.6 3-10.7 1.7-13.7-2.8-3-4.6-1.8-10.8 2.8-13.8z"/><path class="q" d="m492.9 375.1c-0.7 1.6-0.3 3.8 0.6 5.2 1.2 1.9 3.4 3.2 5.6 3.6 4.7 0.9 7.6-2.6 8.7-6.7 0-0.1 0-0.1 0 0-1.4 2.6-5.5 3.6-8.2 2.7-2.4-0.8-3.7-3.1-5.2-4.9-0.4-0.4-1.2-0.5-1.5 0.1z"/><path class="d" d="m495.5 369c-0.4 0.5 0.1 1.1 0.7 1.1 1.7-0.2 3.5-0.5 5.2-0.2 1.8 0.3 3.5 1.3 5 2.4 0 0.1 0.2 0 0.2-0.1-0.3-5-8.3-7.7-11.1-3.2z"/><path class="e" d="m506.2 383.6c4.3-3.3 10.5-2.5 13.9 1.9 3.3 4.3 2.5 10.6-1.9 13.9-4.3 3.3-10.5 2.5-13.9-1.9-3.3-4.3-2.5-10.5 1.9-13.9z"/><path class="q" d="m504.7 391.6c-0.6 1.6 0 3.8 1 5.1 1.3 1.8 3.6 2.9 5.8 3.2 4.8 0.5 7.5-3.1 8.3-7.3 0-0.1-0.1-0.1-0.1-0.1-1.2 2.8-5.2 4-8 3.4-2.4-0.6-3.9-2.8-5.5-4.5-0.4-0.4-1.2-0.5-1.5 0.2z"/><path class="d" d="m506.8 385.2c-0.3 0.5 0.3 1.2 0.8 1.1 1.8-0.3 3.5-0.8 5.2-0.6 1.9 0.2 3.6 1.1 5.1 2.1 0.1 0.1 0.3 0 0.3-0.1-0.6-5-8.9-7.1-11.4-2.5z"/><path class="e" d="m518.2 399.4c4.4-3.2 10.6-2.3 13.9 2.2 3.2 4.4 2.2 10.6-2.2 13.8-4.4 3.3-10.6 2.3-13.9-2.1-3.2-4.5-2.2-10.7 2.2-13.9z"/><path class="q" d="m516.6 407.3c-0.6 1.6-0.1 3.8 0.8 5.2 1.3 1.8 3.6 3 5.8 3.3 4.7 0.7 7.5-3 8.4-7.2 0 0-0.1 0-0.1 0-1.3 2.7-5.2 3.9-8 3.2-2.5-0.7-3.8-2.9-5.5-4.6-0.4-0.5-1.1-0.5-1.4 0.1z"/><path class="d" d="m518.8 401c-0.3 0.5 0.3 1.2 0.8 1.1 1.7-0.2 3.4-0.7 5.2-0.4 1.9 0.2 3.6 1.1 5.1 2.1 0.1 0.1 0.2 0 0.2-0.1-0.5-4.9-8.7-7.2-11.3-2.7z"/><path class="e" d="m530.3 415.2c4.7-2.8 10.8-1.2 13.6 3.5 2.7 4.7 1.2 10.8-3.5 13.6-4.8 2.7-10.8 1.2-13.6-3.5-2.8-4.7-1.2-10.8 3.5-13.6z"/><path class="q" d="m527.9 422.9c-0.8 1.5-0.5 3.8 0.3 5.2 1.1 1.9 3.3 3.3 5.4 3.9 4.7 1.1 7.8-2.2 9.1-6.3 0-0.1 0-0.1-0.1-0.1-1.5 2.6-5.6 3.4-8.3 2.4-2.4-0.9-3.5-3.3-4.9-5.1-0.4-0.5-1.2-0.6-1.5 0z"/><path class="d" d="m530.7 416.8c-0.3 0.5 0.2 1.2 0.7 1.2 1.8-0.1 3.5-0.3 5.2 0.1 1.9 0.4 3.5 1.4 4.9 2.6 0 0.1 0.2 0 0.2-0.1 0-5-8-8-11-3.8z"/><path class="e" d="m540.4 432.3c4.7-2.8 10.8-1.3 13.5 3.5 2.8 4.7 1.3 10.8-3.4 13.5-4.8 2.8-10.8 1.3-13.6-3.5-2.8-4.7-1.3-10.8 3.5-13.5z"/><path class="q" d="m538 440c-0.8 1.5-0.5 3.8 0.3 5.2 1.1 1.9 3.3 3.3 5.4 3.8 4.7 1.2 7.8-2.2 9.1-6.3 0 0 0 0-0.1 0-1.5 2.6-5.6 3.4-8.3 2.4-2.4-0.9-3.5-3.3-4.9-5.1-0.4-0.5-1.2-0.6-1.5 0z"/><path class="d" d="m540.8 433.9c-0.3 0.5 0.2 1.2 0.7 1.2 1.7-0.1 3.5-0.4 5.2 0 1.8 0.5 3.5 1.5 4.9 2.7 0 0.1 0.2 0 0.2-0.1 0-5-8-8-11-3.8z"/><path class="e" d="m548.9 450.1c5.1-1.9 10.8 0.7 12.7 5.9 1.9 5.1-0.7 10.8-5.9 12.7-5.1 1.9-10.8-0.8-12.7-5.9-1.9-5.2 0.8-10.8 5.9-12.7z"/><path class="q" d="m545.2 457.2c-1.1 1.3-1.2 3.7-0.7 5.2 0.8 2.1 2.6 3.9 4.7 4.8 4.3 1.9 8-0.8 10-4.5 0-0.1 0-0.1-0.1-0.1-1.9 2.2-6.1 2.3-8.5 0.8-2.2-1.3-2.9-3.8-4-5.9-0.3-0.6-1-0.8-1.4-0.3z"/><path class="d" d="m549 451.8c-0.4 0.4 0 1.2 0.5 1.3 1.7 0.2 3.5 0.3 5.1 1 1.7 0.7 3.1 2 4.3 3.5 0.1 0.1 0.2 0 0.2-0.1 0.9-4.9-6.3-9.4-10.1-5.7z"/><path class="e" d="m555.7 468.7c5.2-1.9 10.8 0.8 12.7 5.9 1.9 5.2-0.7 10.9-5.9 12.7-5.1 1.9-10.8-0.7-12.7-5.9-1.9-5.1 0.8-10.8 5.9-12.7z"/><path class="q" d="m552 475.9c-1.1 1.3-1.2 3.6-0.7 5.1 0.8 2.1 2.6 3.9 4.7 4.8 4.3 2 8-0.7 10-4.5 0-0.1 0-0.1 0-0.1-2 2.3-6.2 2.3-8.6 0.8-2.2-1.3-2.9-3.8-4-5.9-0.3-0.5-1-0.8-1.4-0.2z"/><path class="d" d="m555.9 470.4c-0.5 0.4-0.1 1.2 0.4 1.3 1.7 0.2 3.5 0.3 5.1 1 1.7 0.7 3.1 2.1 4.3 3.5 0.1 0.1 0.2 0.1 0.2-0.1 0.9-4.8-6.3-9.3-10-5.7z"/><path class="e" d="m561.2 487.7c5.4-0.9 10.5 2.7 11.4 8.1 0.9 5.4-2.7 10.6-8.1 11.5-5.5 0.9-10.6-2.8-11.5-8.2-0.9-5.4 2.8-10.5 8.2-11.4z"/><path class="q" d="m556.2 494c-1.3 1.1-1.8 3.4-1.6 5 0.4 2.2 1.9 4.3 3.7 5.6 3.9 2.7 8 0.7 10.7-2.7 0 0 0 0 0 0-2.4 1.8-6.5 1.1-8.6-0.8-1.9-1.7-2.2-4.3-2.8-6.6-0.2-0.5-0.9-0.9-1.4-0.5z"/><path class="d" d="m561 489.4c-0.5 0.3-0.3 1.2 0.2 1.3 1.7 0.6 3.4 1 4.9 2 1.5 1 2.7 2.6 3.5 4.2 0.1 0.1 0.2 0.1 0.3 0 1.8-4.7-4.5-10.4-8.9-7.5z"/><path class="e" d="m564.4 507.3c5.5-0.2 10.1 4.1 10.2 9.6 0.2 5.5-4.2 10-9.6 10.2-5.5 0.1-10.1-4.2-10.2-9.7-0.2-5.4 4.2-10 9.6-10.1z"/><path class="q" d="m558.6 512.9c-1.4 0.9-2.3 3-2.2 4.7 0 2.2 1.2 4.5 2.8 6 3.6 3.2 7.9 1.8 11-1.1 0.1-0.1 0-0.1 0-0.1-2.6 1.5-6.6 0.2-8.4-2-1.7-1.9-1.5-4.5-1.9-6.9-0.1-0.5-0.7-1-1.3-0.6z"/><path class="d" d="m564 508.9c-0.5 0.3-0.4 1.1 0.1 1.4 1.5 0.8 3.2 1.4 4.5 2.6 1.4 1.2 2.3 2.9 2.9 4.6 0.1 0.1 0.2 0.2 0.3 0.1 2.4-4.4-3.1-10.9-7.8-8.7z"/><path class="f" d="m564.4 525.6c7.5 0.8 13 7.6 12.1 15.2-0.9 7.5-7.7 13-15.2 12.1-7.6-0.8-13-7.7-12.2-15.2 0.9-7.6 7.7-13 15.3-12.1z"/><path class="q" d="m555.3 532.1c-2.1 1-3.7 3.8-4 6.1-0.4 3 0.8 6.4 2.8 8.8 4.2 5.1 10.4 4 15.3 0.6 0-0.1 0-0.1-0.1-0.1-3.8 1.5-9-1-11.1-4.4-1.9-2.9-1.2-6.5-1.3-9.8 0-0.8-0.7-1.6-1.6-1.2z"/><path class="d" d="m563.5 527.8c-0.8 0.2-0.8 1.4-0.2 1.8 2 1.4 4.1 2.6 5.7 4.5 1.7 2 2.6 4.4 3.1 7 0.1 0.1 0.3 0.2 0.4 0 4.1-5.5-2.1-15.5-9-13.3z"/><g style="opacity:.1"><path class="r" d="m558.5 563.8c-1.5-0.7-3.1-1-4.6-1.6 2.2-1.8 4-5.4 2.1-7.8-0.1-0.1-0.2-0.1-0.2 0-0.2 1.5 0.1 2.7-0.5 4-0.7 1.6-1.8 2.7-3.4 3.3-0.5 0.2-0.7 1-0.1 1.3 1.9 1.3 4.1 2.6 6.5 2.3 0.8-0.1 1-1.2 0.2-1.5z"/></g><g style="opacity:.7"><path class="k" d="m627 178.6l3.6 19.2 17.9 7.9-17.2 9.3-2 19.4-14.2-13.4-19.1 4.1 8.4-17.6-9.8-16.9 19.4 2.5z"/><path class="k" d="m482.9 66.6l4.5 12.8 13.1 3.6-10.8 8.2 0.6 13.6-11.1-7.8-12.7 4.9 3.9-13-8.5-10.6 13.5-0.3z"/><path class="k" d="m475.3 209.1l1.9 14.1 12.7 6.4-12.8 6.2-2.1 14.1-9.9-10.3-14 2.3 6.7-12.5-6.5-12.7 14 2.5z"/><path class="k" d="m668.4 87.4l5 11.5 12.3 2.4-9.4 8.2 1.5 12.5-10.8-6.4-11.3 5.3 2.7-12.2-8.5-9.2 12.4-1.2z"/><path class="k" d="m317.4 128.7l11.3 15.3 18.9-0.7-11 15.5 6.5 17.9-18.1-5.8-15 11.7-0.2-19-15.7-10.6 18-6z"/></g></svg>