<svg version="1.2" xmlns="http://www.w3.org/2000/svg" viewBox="0 0 660 630" width="660" height="630"><style>.a{fill:#f3cc30}.b{fill:#f7db5e}.c{fill:#edbd31}</style><path class="a" d="m339.5 6.5l93.8 190c1.5 3.2 4.5 5.3 7.9 5.8l209.7 30.5c8.7 1.3 12.2 11.9 5.9 18.1l-151.7 147.9c-2.5 2.4-3.7 5.9-3.1 9.3l35.8 208.9c1.5 8.6-7.6 15.2-15.3 11.1l-187.6-98.6c-3.1-1.6-6.7-1.6-9.8 0l-187.6 98.6c-7.7 4.1-16.8-2.5-15.3-11.1l35.8-208.9c0.6-3.4-0.6-6.9-3.1-9.3l-151.7-147.9c-6.3-6.2-2.8-16.8 5.9-18.1l209.7-30.5c3.4-0.5 6.4-2.6 7.9-5.8l93.8-190c3.9-7.8 15.1-7.8 19 0z"/><path class="b" d="m330 50.4l-83.6 161.9c-4.3 8.5-12.8 14.1-22.3 15l-181.4 16.6 191.7 8.9c12.2 0.6 23.3-6.8 27.5-18.2z"/><path class="c" d="m126.3 592.9l-4.1 24.1c-1.5 8.6 7.6 15.2 15.3 11.1l187.6-98.6c3.1-1.6 6.7-1.6 9.8 0l187.6 98.6c7.7 4.1 16.8-2.5 15.3-11.1l-35.8-208.9c-0.6-3.4 0.6-6.9 3.1-9.3l151.7-147.9c6.3-6.2 2.8-16.8-5.9-18.1l-70.2-10.2c-113.6 203.8-287.5 311.2-454.4 370.3z"/></svg>