<svg version="1.2" xmlns="http://www.w3.org/2000/svg" viewBox="0 0 1144 1144" width="1144" height="1144"><defs><linearGradient id="P" gradientUnits="userSpaceOnUse"/><linearGradient id="g1" x1="0" y1="1070.2" x2="1145" y2="74.8" href="#P"><stop stop-color="#6187d3"/><stop offset=".01" stop-color="#6187d3"/><stop offset="1" stop-color="#5dc4d3"/></linearGradient></defs><style>.a{fill:url(#g1)}.b{fill:#fff}</style><path class="a" d="m572.5 1145c-316.6 0-572.5-255.9-572.5-572.5 0-316.6 255.9-572.5 572.5-572.5 316.6 0 572.5 255.9 572.5 572.5 0 316.6-255.9 572.5-572.5 572.5z"/><path class="b" d="m179.6 448.9c-3.7 3.6-3.8 9.5-0.3 13.3l90.8 100.4c1.8 2 4.4 3.1 7 3.2h0.2c2.6 0 5.1-1.1 6.9-2.9 52.3-52.6 116.4-89.3 186.2-107.6 33.8-8.9 68.9-13.5 104.8-13.5 33.9 0 67.2 4.1 99.4 12.1 69.5 17.3 133.5 52.7 186.1 103.8 3.8 3.7 9.9 3.6 13.6-0.1l90.9-90.9c1.8-1.8 2.8-4.3 2.8-6.9 0-2.6-1-5.1-2.9-6.9-104.9-102.6-243.4-159-389.9-159-155.7 0-296.2 55-395.6 155z"/><path class="b" d="m572.7 502.1c-24.4 0-49.1 3.4-73.4 9.5-61 15.5-120.1 49.5-168.9 98.6-3.7 3.7-3.7 9.8-0.1 13.6l76.7 78.9c1.8 1.9 4.3 2.9 6.9 3 2.3-0.1 5.1-1.1 7-2.9 44.2-44.6 85-72.2 151.4-72.2 63.9 0 107.5 29.6 153.3 74.2 1.9 1.7 4.3 2.7 6.8 2.7h0.3c2.7-0.1 5.2-1.3 6.9-3.3l75.1-84.1c3.5-3.9 3.3-9.8-0.4-13.4-47.9-46.8-107.7-80-168.7-95.2-24.3-6.1-48.9-9.4-72.9-9.4z"/><path class="b" d="m572.4 869.6c-51.4 0-92.9-41.5-92.9-92.9 0-51.4 41.5-93 92.9-93 51.4 0 92.9 41.6 92.9 93 0 51.4-41.5 92.9-92.9 92.9z"/></svg>